<svg id="Layer_1" data-name="Layer 1" xmlns="http://www.w3.org/2000/svg" viewBox="0 0 300 200"><title>00</title><path d="M129.5,135.52c-4.3,4.16-10.38,7.36-19.34,7.36s-15-3.21-19.33-7.36c-8.59-8.2-9.91-22-9.91-35.52s1.31-27.32,9.91-35.52c4.3-4.16,10.38-7.36,19.33-7.36s15,3.21,19.34,7.36c8.59,8.2,9.9,22,9.9,35.52s-1.31,27.32-9.9,35.52M110.16,70.9c-15.4,0-14.08,18.41-14.08,29.1s-1.31,29.1,14.08,29.1,14.08-18.41,14.08-29.1,1.31-29.1-14.08-29.1"/><path d="M197.52,135.52c-4.3,4.16-10.38,7.36-19.34,7.36s-15-3.21-19.33-7.36c-8.59-8.2-9.91-22-9.91-35.52s1.31-27.32,9.91-35.52c4.3-4.16,10.38-7.36,19.33-7.36s15,3.21,19.34,7.36c8.59,8.2,9.9,22,9.9,35.52s-1.31,27.32-9.9,35.52M178.18,70.9c-15.4,0-14.08,18.41-14.08,29.1s-1.31,29.1,14.08,29.1,14.08-18.41,14.08-29.1,1.31-29.1-14.08-29.1"/></svg>