<svg id="Layer_1" data-name="Layer 1" xmlns="http://www.w3.org/2000/svg" viewBox="0 0 300 200"><defs><style>.cls-1{fill-rule:evenodd;}</style></defs><title>ARUP</title><path class="cls-1" d="M123.28,102.86c.93,0,1.87,0,2.8,0a10.28,10.28,0,0,0,9.54-8.24,13.72,13.72,0,0,0-16.75-16.13.74.74,0,0,0-.67.86c0,14,.06,28,0,42,0,3.66,2,5.26,5.07,6,.48.12,1,.17,1.51.26v.88h-19v-.74a10.17,10.17,0,0,0,1.42-.31,15.27,15.27,0,0,0,2.28-1,4.15,4.15,0,0,0,2.21-3.91q0-20.88,0-41.76c0-2.75-1.68-4.58-4.7-5.15-.68-.13-1.37-.21-2.1-.33v-.89h.71c6.52,0,13-.1,19.56,0,4.56.09,8.74,1.38,12.05,4.73a15,15,0,0,1,3.08,17.09,14.54,14.54,0,0,1-6.35,6.55l-.47.29c.44.56.85,1.1,1.28,1.62,4.86,5.82,9.69,11.66,14.6,17.43a23.49,23.49,0,0,0,3.61,3.29,9.25,9.25,0,0,0,4.83,1.52c.58.07,1.17.07,1.75.13a1.6,1.6,0,0,1,.4.16c-.1.12-.18.3-.31.36a11.83,11.83,0,0,1-5.24,1.1c-4.87,0-8.64-2.35-11.77-5.73-2.47-2.67-4.68-5.58-7-8.41-2-2.46-4-5-6-7.43a9.6,9.6,0,0,0-5.79-3.55c-.38-.07-.87-.11-.61-.8"/><path class="cls-1" d="M189.8,74.19H207v.7c-.87.25-1.72.45-2.54.75a4.63,4.63,0,0,0-3.43,4.92q0,10.09,0,20.18c0,3.32.05,6.64,0,10a19.38,19.38,0,0,1-14.48,18.57A19.8,19.8,0,0,1,165.23,122a18.16,18.16,0,0,1-3.67-11c0-10,0-20,0-29.93,0-3.37-1.77-5.31-5.21-5.67-.87-.09-.87-.09-.79-1h18.68V75a28.21,28.21,0,0,0-3.63,1.35,4.33,4.33,0,0,0-2.34,4.08c0,9.84,0,19.69,0,29.53a21.7,21.7,0,0,0,.92,7.31A13.78,13.78,0,0,0,181,126.05a13.43,13.43,0,0,0,12.75-6.52,12.76,12.76,0,0,0,1.9-5.79c.16-1.74.22-3.51.23-5.26,0-9.26,0-18.53,0-27.79,0-3.16-1.8-4.82-4.72-5.4l-.86-.15c-.73-.1-.73-.1-.57-.94"/><path class="cls-1" d="M101.77,127.87v.88H83.84V128c.72-.14,1.42-.22,2.08-.41,2.24-.64,3-2.18,2.12-4.31s-1.71-4.07-2.57-6.1c-1.21-2.87-2.44-5.74-3.61-8.62a1.2,1.2,0,0,0-1.33-.86c-4.9,0-9.79,0-14.69,0a.79.79,0,0,0-.9.64c-1.61,4.77-3.22,9.53-4.9,14.27-.9,2.54.2,4.09,2.57,4.88a19.28,19.28,0,0,0,2.57.5v.8H47.59c-.24-.62,0-.9.63-1a9.19,9.19,0,0,0,3.84-1.18,5.55,5.55,0,0,0,2.57-3.07q2.74-8.09,5.47-16.18,2.57-7.58,5.16-15.16l7.14-20.85c.14-.42.3-.83.51-1.42.28.6.51,1.07.71,1.55q5.41,13,10.81,26,4.81,11.53,9.67,23c.43,1,.92,2,1.3,3.08.87,2.38,2.72,3.49,5.09,4,.42.09.84.14,1.29.21M72.69,86.51h-.23l-6.2,17.88H80.06L72.69,86.51"/><path class="cls-1" d="M234,127.47v.8H215.68c-.24-.63,0-.89.63-1a7.06,7.06,0,0,0,4.13-2.08,3.8,3.8,0,0,0,1-2.43c0-.78.09-1.55.09-2.33q0-19.91,0-39.82c0-2.9-1.39-4.65-4.29-5.38a3.71,3.71,0,0,0-.66-.15c-.61,0-.84-.32-.66-.93h1.6c5.44,0,10.87-.11,16.31-.05,3.06,0,6.14.15,9,1.37A15.09,15.09,0,0,1,252,86.28a13.68,13.68,0,0,1-2.2,11.81,14.38,14.38,0,0,1-11.52,6.29,11.84,11.84,0,0,1-6-1.36,3.79,3.79,0,0,1-.62-.5l.09-.21a5.71,5.71,0,0,1,.75,0c5.22.69,9.61-1,12.3-5.59,2.18-3.71,2-7.54.12-11.31A13.23,13.23,0,0,0,235.45,78a14.38,14.38,0,0,0-6.3.11c-.62.14-.8.45-.8,1.07q0,15.23,0,30.46c0,3.76,0,7.53,0,11.29a21.16,21.16,0,0,0,.13,2.47c.22,1.77,1.49,2.67,3,3.31a24.31,24.31,0,0,0,2.49.76"/></svg>