<?xml version="1.0" encoding="utf-8"?>
<!-- Generator: Adobe Illustrator 17.1.0, SVG Export Plug-In . SVG Version: 6.00 Build 0)  -->
<!DOCTYPE svg PUBLIC "-//W3C//DTD SVG 1.1//EN" "http://www.w3.org/Graphics/SVG/1.1/DTD/svg11.dtd">
<svg version="1.1" id="Layer_1" xmlns="http://www.w3.org/2000/svg" xmlns:xlink="http://www.w3.org/1999/xlink" x="0px" y="0px"
	 viewBox="0 0 86.3 56.8" enable-background="new 0 0 86.3 56.8" xml:space="preserve">
<g>
	<path fill="#00ADEE" d="M52.8,33.9C52.7,33.9,52.7,33.8,52.8,33.9c-0.1-0.1,0-0.1,0-0.1C52.8,33.7,52.9,33.8,52.8,33.9
		C52.9,33.8,52.8,33.9,52.8,33.9"/>
	<path fill="#00ADEE" d="M53.7,33.2c-0.2,0-0.4-0.2-0.4-0.4c0-0.2,0.2-0.3,0.4-0.3c0.2,0,0.3,0.2,0.3,0.3
		C54.1,33.1,53.9,33.2,53.7,33.2"/>
	<path fill="#00ADEE" d="M53.7,34c-0.1,0-0.2-0.1-0.2-0.2c0-0.1,0.1-0.2,0.2-0.2c0.1,0,0.2,0.1,0.2,0.2C53.9,33.9,53.8,34,53.7,34"
		/>
	<path fill="#00ADEE" d="M53.7,34.8C53.7,34.8,53.6,34.8,53.7,34.8c-0.1-0.1,0-0.1,0-0.1C53.7,34.7,53.8,34.7,53.7,34.8
		C53.8,34.8,53.7,34.8,53.7,34.8"/>
	<path fill="#00ADEE" d="M54.6,34.1c-0.2,0-0.3-0.1-0.3-0.3c0-0.2,0.1-0.3,0.3-0.3c0.2,0,0.3,0.1,0.3,0.3C55,34,54.8,34.1,54.6,34.1
		"/>
	<path fill="#00ADEE" d="M54.6,34.9c-0.1,0-0.1-0.1-0.1-0.1c0-0.1,0.1-0.1,0.1-0.1c0.1,0,0.1,0.1,0.1,0.1
		C54.8,34.8,54.7,34.9,54.6,34.9"/>
	<path fill="#00ADEE" d="M54.6,35.7C54.6,35.7,54.6,35.7,54.6,35.7c-0.1-0.1,0-0.1,0-0.1C54.7,35.6,54.7,35.6,54.6,35.7
		C54.7,35.7,54.7,35.7,54.6,35.7"/>
	<path fill="#00ADEE" d="M55.6,35c-0.2,0-0.3-0.1-0.3-0.3c0-0.2,0.1-0.3,0.3-0.3c0.2,0,0.3,0.1,0.3,0.3C55.8,34.9,55.7,35,55.6,35"
		/>
	<path fill="#00ADEE" d="M55.6,35.8c-0.1,0-0.1,0-0.1-0.1c0-0.1,0-0.1,0.1-0.1c0.1,0,0.1,0,0.1,0.1C55.7,35.7,55.6,35.8,55.6,35.8"
		/>
	<path fill="#00ADEE" d="M55.6,36.6C55.5,36.6,55.5,36.6,55.6,36.6C55.5,36.6,55.5,36.5,55.6,36.6C55.6,36.5,55.6,36.6,55.6,36.6
		C55.6,36.6,55.6,36.6,55.6,36.6"/>
	<path fill="#00ADEE" d="M56.5,35.9c-0.1,0-0.2-0.1-0.2-0.2s0.1-0.2,0.2-0.2s0.2,0.1,0.2,0.2S56.6,35.9,56.5,35.9"/>
	<path fill="#00ADEE" d="M56.5,36.7C56.4,36.7,56.4,36.6,56.5,36.7c-0.1-0.1,0-0.2,0-0.2C56.5,36.5,56.6,36.5,56.5,36.7
		C56.6,36.6,56.5,36.7,56.5,36.7"/>
	<path fill="#00ADEE" d="M61.7,37.5c0,0.2,0.2,0.4,0.4,0.4c0.2,0,0.4-0.2,0.4-0.4c0-0.2-0.2-0.4-0.4-0.4
		C61.9,37.1,61.7,37.3,61.7,37.5"/>
	<path fill="#00ADEE" d="M60.8,37.5c0,0.2,0.1,0.3,0.3,0.3s0.3-0.1,0.3-0.3c0-0.2-0.1-0.3-0.3-0.3C61,37.2,60.8,37.3,60.8,37.5"/>
	<path fill="#00ADEE" d="M60,37.5c0,0.1,0.1,0.2,0.2,0.2c0.1,0,0.2-0.1,0.2-0.2c0-0.1-0.1-0.2-0.2-0.2C60.1,37.3,60,37.4,60,37.5"/>
	<path fill="#00ADEE" d="M59.1,37.5c0,0.1,0.1,0.1,0.1,0.1c0.1,0,0.1-0.1,0.1-0.1c0-0.1-0.1-0.1-0.1-0.1
		C59.2,37.4,59.1,37.4,59.1,37.5"/>
	<path fill="#00ADEE" d="M60.1,38.4C60.1,38.5,60.2,38.5,60.1,38.4c0.1,0.1,0.1,0,0.1,0C60.3,38.4,60.2,38.4,60.1,38.4
		C60.2,38.4,60.1,38.4,60.1,38.4"/>
	<path fill="#00ADEE" d="M62,39.4C62,39.4,62,39.4,62,39.4C62.1,39.4,62.1,39.4,62,39.4C62.1,39.3,62.1,39.3,62,39.4
		C62,39.3,62,39.3,62,39.4"/>
	<path fill="#00ADEE" d="M59.2,38.4C59.2,38.5,59.3,38.5,59.2,38.4C59.3,38.5,59.3,38.5,59.2,38.4C59.3,38.4,59.3,38.4,59.2,38.4
		C59.3,38.4,59.2,38.4,59.2,38.4"/>
	<path fill="#00ADEE" d="M57.4,37.5C57.4,37.5,57.4,37.6,57.4,37.5C57.4,37.6,57.5,37.5,57.4,37.5C57.5,37.5,57.4,37.5,57.4,37.5
		C57.4,37.5,57.4,37.5,57.4,37.5"/>
	<path fill="#00ADEE" d="M61,38.4C61,38.5,61.1,38.5,61,38.4c0.1,0.1,0.2,0.1,0.2,0C61.2,38.4,61.2,38.3,61,38.4
		C61.1,38.3,61,38.4,61,38.4"/>
	<path fill="#00ADEE" d="M61.9,38.4c0,0.1,0.1,0.1,0.1,0.1c0.1,0,0.1-0.1,0.1-0.1c0-0.1-0.1-0.1-0.1-0.1
		C62,38.3,61.9,38.4,61.9,38.4"/>
	<path fill="#00ADEE" d="M62.8,38.4c0,0.1,0.1,0.2,0.2,0.2c0.1,0,0.2-0.1,0.2-0.2c0-0.1-0.1-0.2-0.2-0.2
		C62.9,38.3,62.8,38.3,62.8,38.4"/>
	<path fill="#00ADEE" d="M62.9,39.4C62.9,39.4,63,39.4,62.9,39.4c0.1,0.1,0.1,0,0.1,0C63.1,39.3,63,39.3,62.9,39.4
		C63,39.3,62.9,39.3,62.9,39.4"/>
	<path fill="#00ADEE" d="M58.3,37.5C58.3,37.6,58.3,37.6,58.3,37.5c0.1,0.1,0.2,0.1,0.2,0C58.4,37.5,58.4,37.4,58.3,37.5
		C58.3,37.4,58.3,37.5,58.3,37.5"/>
	<path fill="#00ADEE" d="M58.9,36.6c0,0.2,0.2,0.4,0.3,0.4c0.2,0,0.3-0.2,0.3-0.4c0-0.2-0.2-0.3-0.3-0.3
		C59.1,36.2,58.9,36.4,58.9,36.6"/>
	<path fill="#00ADEE" d="M58.1,36.6c0,0.1,0.1,0.2,0.2,0.2c0.1,0,0.2-0.1,0.2-0.2c0-0.1-0.1-0.2-0.2-0.2S58.1,36.4,58.1,36.6"/>
	<path fill="#00ADEE" d="M57.3,36.6c0,0.1,0.1,0.1,0.1,0.1c0.1,0,0.1-0.1,0.1-0.1c0-0.1-0.1-0.1-0.1-0.1S57.3,36.5,57.3,36.6"/>
	<path fill="#00ADEE" d="M57.1,35.7c0,0.2,0.2,0.3,0.3,0.3c0.2,0,0.3-0.2,0.3-0.3c0-0.2-0.2-0.3-0.3-0.3
		C57.2,35.3,57.1,35.5,57.1,35.7"/>
	<path fill="#00ADEE" d="M52.6,32.9c0,0.1,0.1,0.2,0.2,0.2c0.1,0,0.2-0.1,0.2-0.2c0-0.1-0.1-0.2-0.2-0.2
		C52.7,32.7,52.6,32.8,52.6,32.9"/>
	<path fill="#00ADEE" d="M51.8,32.9C51.8,32.9,51.8,32.9,51.8,32.9c0.1,0.1,0.1,0,0.1,0C51.9,32.8,51.9,32.8,51.8,32.9
		C51.8,32.8,51.8,32.8,51.8,32.9"/>
	<path fill="#00ADEE" d="M52.5,31.9c0,0.2,0.1,0.3,0.3,0.3s0.3-0.1,0.3-0.3c0-0.2-0.1-0.3-0.3-0.3S52.5,31.8,52.5,31.9"/>
	<path fill="#00ADEE" d="M51.7,31.9c0,0.1,0.1,0.1,0.1,0.1S52,32,52,31.9c0-0.1-0.1-0.1-0.1-0.1S51.7,31.9,51.7,31.9"/>
	<path fill="#00ADEE" d="M50.9,31.9C50.9,32,50.9,32,50.9,31.9c0.1,0.1,0.1,0,0.1,0C51,31.9,51,31.9,50.9,31.9
		C50.9,31.9,50.9,31.9,50.9,31.9"/>
	<path fill="#00ADEE" d="M51.6,31c0,0.2,0.1,0.3,0.3,0.3c0.2,0,0.3-0.1,0.3-0.3c0-0.2-0.1-0.3-0.3-0.3C51.7,30.7,51.6,30.9,51.6,31"
		/>
	<path fill="#00ADEE" d="M50.8,31c0,0.1,0,0.1,0.1,0.1c0.1,0,0.1,0,0.1-0.1c0-0.1,0-0.1-0.1-0.1C50.9,30.9,50.8,31,50.8,31"/>
	<path fill="#00ADEE" d="M50,31C50,31,50,31.1,50,31C50,31.1,50,31,50,31C50,31,50,31,50,31C50,31,50,31,50,31"/>
	<path fill="#00ADEE" d="M50.7,30.1c0,0.1,0.1,0.2,0.2,0.2c0.1,0,0.2-0.1,0.2-0.2c0-0.1-0.1-0.2-0.2-0.2
		C50.8,29.9,50.7,30,50.7,30.1"/>
	<path fill="#00ADEE" d="M49.9,30.1C49.9,30.1,49.9,30.2,49.9,30.1c0.1,0.1,0.2,0,0.2,0C50.1,30,50,30,49.9,30.1
		C49.9,30,49.9,30,49.9,30.1"/>
	<path fill="#00ADEE" d="M49.1,24.9c-0.2,0-0.4-0.2-0.4-0.4c0-0.2,0.2-0.4,0.4-0.4c0.2,0,0.4,0.2,0.4,0.4
		C49.4,24.7,49.3,24.9,49.1,24.9"/>
	<path fill="#00ADEE" d="M49.1,25.8c-0.2,0-0.3-0.1-0.3-0.3c0-0.2,0.1-0.3,0.3-0.3c0.2,0,0.3,0.1,0.3,0.3
		C49.4,25.6,49.2,25.8,49.1,25.8"/>
	<path fill="#00ADEE" d="M49.1,26.6c-0.1,0-0.2-0.1-0.2-0.2c0-0.1,0.1-0.2,0.2-0.2c0.1,0,0.2,0.1,0.2,0.2
		C49.3,26.5,49.2,26.6,49.1,26.6"/>
	<path fill="#00ADEE" d="M49.1,27.4c-0.1,0-0.1-0.1-0.1-0.1c0-0.1,0.1-0.1,0.1-0.1c0.1,0,0.1,0.1,0.1,0.1
		C49.2,27.4,49.1,27.4,49.1,27.4"/>
	<path fill="#00ADEE" d="M48.1,26.4C48.1,26.4,48.1,26.4,48.1,26.4c-0.1-0.1,0-0.1,0-0.1C48.2,26.3,48.2,26.3,48.1,26.4
		C48.2,26.4,48.2,26.4,48.1,26.4"/>
	<path fill="#00ADEE" d="M47.2,24.6C47.2,24.6,47.2,24.5,47.2,24.6C47.2,24.5,47.2,24.5,47.2,24.6C47.2,24.5,47.2,24.5,47.2,24.6
		C47.2,24.5,47.2,24.6,47.2,24.6"/>
	<path fill="#00ADEE" d="M48.1,27.3C48.1,27.3,48.1,27.3,48.1,27.3C48.1,27.3,48.1,27.3,48.1,27.3C48.2,27.3,48.2,27.3,48.1,27.3
		C48.2,27.3,48.2,27.3,48.1,27.3"/>
	<path fill="#00ADEE" d="M49.1,29.2C49,29.2,49,29.2,49.1,29.2C49,29.1,49,29.1,49.1,29.2C49.1,29.1,49.1,29.1,49.1,29.2
		C49.1,29.2,49.1,29.2,49.1,29.2"/>
	<path fill="#00ADEE" d="M48.1,25.5C48.1,25.5,48,25.5,48.1,25.5c-0.1-0.1-0.1-0.2,0-0.2C48.2,25.3,48.2,25.4,48.1,25.5
		C48.2,25.5,48.2,25.5,48.1,25.5"/>
	<path fill="#00ADEE" d="M48.1,24.7c-0.1,0-0.1-0.1-0.1-0.1s0.1-0.1,0.1-0.1c0.1,0,0.1,0.1,0.1,0.1S48.2,24.7,48.1,24.7"/>
	<path fill="#00ADEE" d="M48.1,23.8c-0.1,0-0.2-0.1-0.2-0.2c0-0.1,0.1-0.2,0.2-0.2c0.1,0,0.2,0.1,0.2,0.2
		C48.3,23.7,48.2,23.8,48.1,23.8"/>
	<path fill="#00ADEE" d="M47.2,23.6C47.2,23.6,47.1,23.6,47.2,23.6c-0.1-0.1,0-0.1,0-0.1C47.2,23.5,47.3,23.5,47.2,23.6
		C47.3,23.6,47.2,23.6,47.2,23.6"/>
	<path fill="#00ADEE" d="M49.1,28.3C49,28.3,49,28.3,49.1,28.3c-0.1-0.1,0-0.2,0-0.2C49.1,28.1,49.2,28.2,49.1,28.3
		C49.2,28.3,49.1,28.3,49.1,28.3"/>
	<path fill="#00ADEE" d="M50,27.6c-0.2,0-0.3-0.2-0.3-0.3c0-0.2,0.2-0.3,0.3-0.3c0.2,0,0.3,0.2,0.3,0.3C50.3,27.5,50.2,27.6,50,27.6
		"/>
	<path fill="#00ADEE" d="M50,28.5c-0.1,0-0.2-0.1-0.2-0.2c0-0.1,0.1-0.2,0.2-0.2c0.1,0,0.2,0.1,0.2,0.2C50.2,28.4,50.1,28.5,50,28.5
		"/>
	<path fill="#00ADEE" d="M50,29.3c-0.1,0-0.1-0.1-0.1-0.1c0-0.1,0.1-0.1,0.1-0.1c0.1,0,0.1,0.1,0.1,0.1C50.1,29.2,50.1,29.3,50,29.3
		"/>
	<path fill="#00ADEE" d="M50.9,29.5c-0.2,0-0.3-0.2-0.3-0.3c0-0.2,0.2-0.3,0.3-0.3c0.2,0,0.3,0.2,0.3,0.3
		C51.3,29.3,51.1,29.5,50.9,29.5"/>
	<path fill="#00ADEE" d="M52.8,5.9C52.7,5.9,52.7,5.9,52.8,5.9c-0.1,0.1,0,0.2,0,0.2C52.8,6,52.9,6,52.8,5.9
		C52.9,5.9,52.8,5.9,52.8,5.9"/>
	<path fill="#00ADEE" d="M53.7,6.5c-0.2,0-0.4,0.2-0.4,0.4c0,0.2,0.2,0.4,0.3,0.4c0.2,0,0.4-0.2,0.4-0.4C54.1,6.7,53.9,6.5,53.7,6.5
		"/>
	<path fill="#00ADEE" d="M53.7,5.8c-0.1,0-0.2,0.1-0.2,0.2c0,0.1,0.1,0.2,0.2,0.2c0.1,0,0.2-0.1,0.2-0.2C53.9,5.9,53.8,5.8,53.7,5.8
		"/>
	<path fill="#00ADEE" d="M53.7,4.9C53.7,4.9,53.6,5,53.7,4.9c-0.1,0.1,0,0.1,0,0.1C53.7,5.1,53.8,5.1,53.7,4.9
		C53.8,5,53.7,4.9,53.7,4.9"/>
	<path fill="#00ADEE" d="M54.6,5.6c-0.2,0-0.3,0.1-0.3,0.3s0.1,0.3,0.3,0.3c0.2,0,0.3-0.1,0.3-0.3S54.8,5.6,54.6,5.6"/>
	<path fill="#00ADEE" d="M54.6,4.9c-0.1,0-0.1,0.1-0.1,0.1s0.1,0.1,0.1,0.1c0.1,0,0.1-0.1,0.1-0.1S54.7,4.9,54.6,4.9"/>
	<path fill="#00ADEE" d="M54.6,4C54.6,4,54.6,4,54.6,4c-0.1,0.1,0,0.1,0,0.1C54.7,4.1,54.7,4.1,54.6,4C54.7,4,54.7,4,54.6,4"/>
	<path fill="#00ADEE" d="M55.6,4.7c-0.2,0-0.3,0.1-0.3,0.3c0,0.2,0.1,0.3,0.3,0.3c0.2,0,0.3-0.1,0.3-0.3C55.8,4.9,55.7,4.7,55.6,4.7
		"/>
	<path fill="#00ADEE" d="M55.6,4c-0.1,0-0.1,0-0.1,0.1c0,0.1,0,0.1,0.1,0.1c0.1,0,0.1,0,0.1-0.1C55.7,4,55.6,4,55.6,4"/>
	<path fill="#00ADEE" d="M55.6,3.1C55.5,3.1,55.5,3.1,55.6,3.1C55.5,3.2,55.5,3.2,55.6,3.1C55.6,3.2,55.6,3.2,55.6,3.1
		C55.6,3.1,55.6,3.1,55.6,3.1"/>
	<path fill="#00ADEE" d="M56.5,3.9c-0.1,0-0.2,0.1-0.2,0.2c0,0.1,0.1,0.2,0.2,0.2s0.2-0.1,0.2-0.2C56.7,4,56.6,3.9,56.5,3.9"/>
	<path fill="#00ADEE" d="M56.5,3.1C56.4,3.1,56.4,3.1,56.5,3.1c-0.1,0.1,0,0.2,0,0.2C56.5,3.2,56.6,3.2,56.5,3.1
		C56.6,3.1,56.5,3.1,56.5,3.1"/>
	<path fill="#00ADEE" d="M61.7,2.2c0-0.2,0.2-0.4,0.4-0.4c0.2,0,0.4,0.2,0.4,0.4c0,0.2-0.2,0.4-0.4,0.4C61.9,2.6,61.7,2.4,61.7,2.2"
		/>
	<path fill="#00ADEE" d="M60.8,2.2c0-0.2,0.1-0.3,0.3-0.3s0.3,0.1,0.3,0.3c0,0.2-0.1,0.3-0.3,0.3S60.8,2.4,60.8,2.2"/>
	<path fill="#00ADEE" d="M60,2.2C60,2.1,60.1,2,60.2,2c0.1,0,0.2,0.1,0.2,0.2c0,0.1-0.1,0.2-0.2,0.2C60.1,2.5,60,2.4,60,2.2"/>
	<path fill="#00ADEE" d="M59.1,2.2c0-0.1,0.1-0.1,0.1-0.1c0.1,0,0.1,0.1,0.1,0.1c0,0.1-0.1,0.1-0.1,0.1C59.2,2.4,59.1,2.3,59.1,2.2"
		/>
	<path fill="#00ADEE" d="M60.1,1.3C60.1,1.3,60.2,1.2,60.1,1.3c0.1-0.1,0.1,0,0.1,0C60.3,1.3,60.2,1.4,60.1,1.3
		C60.2,1.4,60.1,1.3,60.1,1.3"/>
	<path fill="#00ADEE" d="M62,0.4C62,0.3,62,0.3,62,0.4C62.1,0.3,62.1,0.3,62,0.4C62.1,0.4,62.1,0.4,62,0.4C62,0.4,62,0.4,62,0.4"/>
	<path fill="#00ADEE" d="M59.2,1.3C59.2,1.3,59.3,1.3,59.2,1.3C59.3,1.3,59.3,1.3,59.2,1.3C59.3,1.3,59.3,1.3,59.2,1.3
		C59.3,1.3,59.2,1.3,59.2,1.3"/>
	<path fill="#00ADEE" d="M57.4,2.2C57.4,2.2,57.4,2.2,57.4,2.2C57.4,2.2,57.5,2.2,57.4,2.2C57.5,2.3,57.4,2.3,57.4,2.2
		C57.4,2.3,57.4,2.3,57.4,2.2"/>
	<path fill="#00ADEE" d="M61,1.3C61,1.2,61.1,1.2,61,1.3c0.1-0.1,0.2-0.1,0.2,0C61.2,1.4,61.2,1.4,61,1.3C61.1,1.4,61,1.4,61,1.3"/>
	<path fill="#00ADEE" d="M61.9,1.3c0-0.1,0.1-0.1,0.1-0.1c0.1,0,0.1,0.1,0.1,0.1c0,0.1-0.1,0.1-0.1,0.1C62,1.4,61.9,1.4,61.9,1.3"/>
	<path fill="#00ADEE" d="M62.8,1.3c0-0.1,0.1-0.2,0.2-0.2c0.1,0,0.2,0.1,0.2,0.2c0,0.1-0.1,0.2-0.2,0.2C62.9,1.5,62.8,1.4,62.8,1.3"
		/>
	<path fill="#00ADEE" d="M63.7,1.3L63.7,1.3c0,0.1,0.1,0.3,0.3,0.3c0.1,0,0.3-0.1,0.3-0.3c0-0.1-0.1-0.3-0.3-0.3
		C63.8,1,63.7,1.2,63.7,1.3"/>
	<path fill="#00ADEE" d="M64.6,1.1c-0.1,0.1-0.1,0.1-0.1,0.2c0,0.1,0,0.1,0.1,0.2c0.1,0.1,0.1,0.1,0.2,0.1c0.2,0,0.3-0.1,0.3-0.3
		C65.1,1.1,65,1,64.8,1C64.8,1,64.7,1,64.6,1.1"/>
	<path fill="#00ADEE" d="M65.6,1.1c-0.1,0.1-0.1,0.1-0.1,0.2c0,0.1,0,0.2,0.1,0.2c0.1,0.1,0.1,0.1,0.2,0.1c0.2,0,0.3-0.1,0.3-0.3
		C66.1,1.1,66,1,65.8,1C65.7,1,65.6,1,65.6,1.1"/>
	<path fill="#00ADEE" d="M62.9,0.4C62.9,0.3,63,0.3,62.9,0.4c0.1-0.1,0.1,0,0.1,0C63.1,0.4,63,0.4,62.9,0.4
		C63,0.4,62.9,0.4,62.9,0.4"/>
	<path fill="#00ADEE" d="M63.8,0.4L63.8,0.4c0,0.1,0,0.1,0.1,0.1c0.1,0,0.1,0,0.1-0.1c0-0.1,0-0.1-0.1-0.1
		C63.9,0.3,63.8,0.3,63.8,0.4"/>
	<path fill="#00ADEE" d="M64.8,0.2c-0.1,0-0.1,0.1-0.1,0.1c0,0.1,0.1,0.1,0.1,0.1c0.1,0,0.1-0.1,0.1-0.1C65,0.3,65,0.3,64.8,0.2
		C64.9,0.3,64.9,0.2,64.8,0.2"/>
	<path fill="#00ADEE" d="M65.7,0.4L65.7,0.4c0,0.1,0.1,0.1,0.1,0.1c0,0,0.1,0,0.1,0c0,0,0-0.1,0-0.1c0,0,0-0.1,0-0.1
		c0,0-0.1,0-0.1,0C65.7,0.2,65.7,0.3,65.7,0.4"/>
	<path fill="#00ADEE" d="M58.3,2.2C58.3,2.2,58.3,2.1,58.3,2.2c0.1-0.1,0.2,0,0.2,0C58.4,2.3,58.4,2.3,58.3,2.2
		C58.3,2.3,58.3,2.3,58.3,2.2"/>
	<path fill="#00ADEE" d="M58.9,3.2c0-0.2,0.2-0.3,0.3-0.3c0.2,0,0.3,0.2,0.3,0.3c0,0.2-0.2,0.3-0.3,0.3C59.1,3.5,58.9,3.3,58.9,3.2"
		/>
	<path fill="#00ADEE" d="M58.1,3.2c0-0.1,0.1-0.2,0.2-0.2s0.2,0.1,0.2,0.2c0,0.1-0.1,0.2-0.2,0.2S58.1,3.3,58.1,3.2"/>
	<path fill="#00ADEE" d="M57.3,3.2c0-0.1,0.1-0.1,0.1-0.1s0.1,0.1,0.1,0.1c0,0.1-0.1,0.1-0.1,0.1S57.3,3.2,57.3,3.2"/>
	<path fill="#00ADEE" d="M57.1,4.1c0-0.2,0.2-0.3,0.3-0.3c0.2,0,0.3,0.2,0.3,0.3c0,0.2-0.2,0.3-0.3,0.3C57.2,4.4,57.1,4.3,57.1,4.1"
		/>
	<path fill="#00ADEE" d="M66.5,1.1c-0.1,0.1-0.1,0.1-0.1,0.2c0,0.2,0.1,0.3,0.3,0.3c0.2,0,0.3-0.1,0.3-0.3C67,1.1,66.9,1,66.7,1
		C66.6,1,66.5,1,66.5,1.1"/>
	<path fill="#00ADEE" d="M66.7,0.2C66.7,0.2,66.6,0.3,66.7,0.2c-0.1,0.1-0.1,0.1-0.1,0.1c0,0,0,0.1,0,0.1c0,0,0.1,0,0.1,0
		c0,0,0.1,0,0.1,0c0,0,0-0.1,0-0.1C66.8,0.3,66.8,0.2,66.7,0.2"/>
	<path fill="#00ADEE" d="M52.6,6.9c0-0.1,0.1-0.2,0.2-0.2c0.1,0,0.2,0.1,0.2,0.2C52.9,7,52.9,7,52.8,7C52.7,7,52.6,7,52.6,6.9"/>
	<path fill="#00ADEE" d="M51.8,6.9C51.8,6.8,51.8,6.8,51.8,6.9c0.1-0.1,0.1,0,0.1,0C51.9,6.9,51.9,6.9,51.8,6.9
		C51.8,6.9,51.8,6.9,51.8,6.9"/>
	<path fill="#00ADEE" d="M52.5,7.8c0-0.2,0.1-0.3,0.3-0.3s0.3,0.1,0.3,0.3c0,0.2-0.1,0.3-0.3,0.3S52.5,8,52.5,7.8"/>
	<path fill="#00ADEE" d="M51.7,7.8c0-0.1,0.1-0.1,0.1-0.1c0.1,0,0.1,0.1,0.1,0.1c0,0.1-0.1,0.1-0.1,0.1S51.7,7.9,51.7,7.8"/>
	<path fill="#00ADEE" d="M50.9,7.8C50.9,7.8,50.9,7.7,50.9,7.8c0.1-0.1,0.1,0,0.1,0C51,7.8,51,7.9,50.9,7.8
		C50.9,7.9,50.9,7.8,50.9,7.8"/>
	<path fill="#00ADEE" d="M51.6,8.7c0-0.2,0.1-0.3,0.3-0.3c0.2,0,0.3,0.1,0.3,0.3C52.1,8.9,52,9,51.8,9C51.7,9,51.6,8.9,51.6,8.7"/>
	<path fill="#00ADEE" d="M50.8,8.7c0-0.1,0-0.1,0.1-0.1c0.1,0,0.1,0,0.1,0.1c0,0.1,0,0.1-0.1,0.1C50.9,8.8,50.8,8.8,50.8,8.7"/>
	<path fill="#00ADEE" d="M50,8.7C50,8.7,50,8.7,50,8.7C50,8.7,50,8.7,50,8.7C50,8.7,50,8.8,50,8.7C50,8.8,50,8.7,50,8.7"/>
	<path fill="#00ADEE" d="M50.7,9.7c0-0.1,0.1-0.2,0.2-0.2c0.1,0,0.2,0.1,0.2,0.2c0,0.1-0.1,0.2-0.2,0.2C50.8,9.9,50.7,9.8,50.7,9.7"
		/>
	<path fill="#00ADEE" d="M49.9,9.7C49.9,9.6,49.9,9.6,49.9,9.7c0.1-0.1,0.2,0,0.2,0C50.1,9.7,50,9.7,49.9,9.7
		C49.9,9.7,49.9,9.7,49.9,9.7"/>
	<path fill="#00ADEE" d="M49.1,14.9c-0.2,0-0.4,0.2-0.4,0.4c0,0.2,0.2,0.4,0.4,0.4c0.2,0,0.4-0.2,0.4-0.4
		C49.4,15,49.3,14.9,49.1,14.9"/>
	<path fill="#00ADEE" d="M49.1,14c-0.2,0-0.3,0.1-0.3,0.3c0,0.2,0.1,0.3,0.3,0.3c0.2,0,0.3-0.1,0.3-0.3C49.4,14.1,49.2,14,49.1,14"
		/>
	<path fill="#00ADEE" d="M49.1,13.1c-0.1,0-0.2,0.1-0.2,0.2c0,0.1,0.1,0.2,0.2,0.2c0.1,0,0.2-0.1,0.2-0.2
		C49.3,13.2,49.2,13.1,49.1,13.1"/>
	<path fill="#00ADEE" d="M49.1,12.3c-0.1,0-0.1,0.1-0.1,0.1c0,0.1,0.1,0.1,0.1,0.1c0.1,0,0.1-0.1,0.1-0.1
		C49.2,12.4,49.1,12.3,49.1,12.3"/>
	<path fill="#00ADEE" d="M48.1,13.3C48.1,13.3,48.1,13.3,48.1,13.3c-0.1,0.1,0,0.2,0,0.2C48.2,13.4,48.2,13.4,48.1,13.3
		C48.2,13.3,48.2,13.3,48.1,13.3"/>
	<path fill="#00ADEE" d="M47.2,15.2C47.2,15.2,47.2,15.2,47.2,15.2C47.2,15.2,47.2,15.3,47.2,15.2C47.2,15.3,47.2,15.2,47.2,15.2
		C47.2,15.2,47.2,15.2,47.2,15.2"/>
	<path fill="#00ADEE" d="M77.8,36.6C77.9,36.6,77.9,36.6,77.8,36.6C77.9,36.6,77.9,36.5,77.8,36.6C77.8,36.5,77.8,36.6,77.8,36.6
		C77.8,36.6,77.8,36.6,77.8,36.6"/>
	<path fill="#00ADEE" d="M71.4,39.4C71.4,39.4,71.4,39.4,71.4,39.4C71.3,39.4,71.3,39.4,71.4,39.4C71.3,39.3,71.3,39.3,71.4,39.4
		C71.4,39.3,71.4,39.3,71.4,39.4"/>
	<path fill="#00ADEE" d="M83.5,31C83.5,31,83.4,31.1,83.5,31C83.4,31.1,83.4,31,83.5,31C83.4,31,83.4,31,83.5,31
		C83.4,31,83.5,31,83.5,31"/>
	<path fill="#00ADEE" d="M86.2,24.6C86.2,24.6,86.2,24.5,86.2,24.6C86.2,24.5,86.2,24.5,86.2,24.6C86.2,24.5,86.2,24.5,86.2,24.6
		C86.2,24.5,86.2,24.6,86.2,24.6"/>
	<path fill="#00ADEE" d="M77.8,3.1C77.9,3.1,77.9,3.1,77.8,3.1C77.9,3.2,77.9,3.2,77.8,3.1C77.8,3.2,77.8,3.2,77.8,3.1
		C77.8,3.1,77.8,3.1,77.8,3.1"/>
	<path fill="#00ADEE" d="M71.4,0.4C71.4,0.3,71.4,0.3,71.4,0.4C71.3,0.3,71.3,0.3,71.4,0.4C71.3,0.4,71.3,0.4,71.4,0.4
		C71.4,0.4,71.4,0.4,71.4,0.4"/>
	<path fill="#00ADEE" d="M83.5,8.7C83.5,8.7,83.4,8.7,83.5,8.7C83.4,8.7,83.4,8.7,83.5,8.7C83.4,8.7,83.4,8.8,83.5,8.7
		C83.4,8.8,83.5,8.7,83.5,8.7"/>
	<path fill="#00ADEE" d="M86.2,15.2C86.2,15.2,86.2,15.2,86.2,15.2C86.2,15.2,86.2,15.3,86.2,15.2C86.2,15.3,86.2,15.2,86.2,15.2
		C86.2,15.2,86.2,15.2,86.2,15.2"/>
	<path fill="#00ADEE" d="M48.1,12.4C48.1,12.4,48.1,12.4,48.1,12.4C48.1,12.5,48.1,12.5,48.1,12.4C48.2,12.5,48.2,12.5,48.1,12.4
		C48.2,12.4,48.2,12.4,48.1,12.4"/>
	<path fill="#00ADEE" d="M49.1,10.5C49,10.5,49,10.6,49.1,10.5C49,10.6,49,10.6,49.1,10.5C49.1,10.6,49.1,10.6,49.1,10.5
		C49.1,10.6,49.1,10.5,49.1,10.5"/>
	<path fill="#00ADEE" d="M48.1,14.2C48.1,14.2,48,14.2,48.1,14.2c-0.1,0.1-0.1,0.2,0,0.2C48.2,14.4,48.2,14.3,48.1,14.2
		C48.2,14.2,48.2,14.2,48.1,14.2"/>
	<path fill="#00ADEE" d="M48.1,15.1c-0.1,0-0.1,0.1-0.1,0.1s0.1,0.1,0.1,0.1c0.1,0,0.1-0.1,0.1-0.1S48.2,15.1,48.1,15.1"/>
	<path fill="#00ADEE" d="M48.1,16c-0.1,0-0.2,0.1-0.2,0.2c0,0.1,0.1,0.2,0.2,0.2c0.1,0,0.2-0.1,0.2-0.2C48.3,16,48.2,16,48.1,16"/>
	<path fill="#00ADEE" d="M47.2,16.1C47.2,16.1,47.1,16.1,47.2,16.1c-0.1,0.1,0,0.1,0,0.1C47.2,16.2,47.3,16.2,47.2,16.1
		C47.3,16.1,47.2,16.1,47.2,16.1"/>
	<path fill="#00ADEE" d="M49.1,11.4C49,11.4,49,11.5,49.1,11.4c-0.1,0.1,0,0.2,0,0.2C49.1,11.6,49.2,11.6,49.1,11.4
		C49.2,11.5,49.1,11.4,49.1,11.4"/>
	<path fill="#00ADEE" d="M50,12.1c-0.2,0-0.3,0.2-0.3,0.3s0.2,0.3,0.3,0.3c0.2,0,0.3-0.2,0.3-0.3S50.2,12.1,50,12.1"/>
	<path fill="#00ADEE" d="M50,11.3c-0.1,0-0.2,0.1-0.2,0.2c0,0.1,0.1,0.2,0.2,0.2c0.1,0,0.2-0.1,0.2-0.2C50.2,11.4,50.1,11.3,50,11.3
		"/>
	<path fill="#00ADEE" d="M50,10.5c-0.1,0-0.1,0.1-0.1,0.1c0,0.1,0.1,0.1,0.1,0.1c0.1,0,0.1-0.1,0.1-0.1C50.1,10.5,50.1,10.5,50,10.5
		"/>
	<path fill="#00ADEE" d="M50.9,10.2c-0.2,0-0.3,0.2-0.3,0.3c0,0.2,0.2,0.3,0.3,0.3c0.2,0,0.3-0.2,0.3-0.3
		C51.3,10.4,51.1,10.2,50.9,10.2"/>
	<path fill="#00ADEE" d="M80.6,33.9C80.7,33.9,80.7,33.8,80.6,33.9c0.1-0.1,0-0.1,0-0.1C80.6,33.7,80.6,33.8,80.6,33.9
		C80.6,33.8,80.6,33.9,80.6,33.9"/>
	<path fill="#00ADEE" d="M79.7,33.2c0.2,0,0.3-0.2,0.3-0.4c0-0.2-0.2-0.3-0.3-0.3c-0.2,0-0.4,0.2-0.4,0.3
		C79.4,33.1,79.5,33.2,79.7,33.2"/>
	<path fill="#00ADEE" d="M79.7,34c0.1,0,0.2-0.1,0.2-0.2c0-0.1-0.1-0.2-0.2-0.2c-0.1,0-0.2,0.1-0.2,0.2C79.5,33.9,79.6,34,79.7,34"
		/>
	<path fill="#00ADEE" d="M79.7,34.8C79.7,34.8,79.8,34.8,79.7,34.8c0.1-0.1,0-0.1,0-0.1C79.7,34.7,79.6,34.7,79.7,34.8
		C79.6,34.8,79.7,34.8,79.7,34.8"/>
	<path fill="#00ADEE" d="M78.8,34.1c0.2,0,0.3-0.1,0.3-0.3c0-0.2-0.1-0.3-0.3-0.3c-0.2,0-0.3,0.1-0.3,0.3
		C78.5,34,78.6,34.1,78.8,34.1"/>
	<path fill="#00ADEE" d="M78.8,34.9c0.1,0,0.1-0.1,0.1-0.1c0-0.1-0.1-0.1-0.1-0.1c-0.1,0-0.1,0.1-0.1,0.1
		C78.6,34.8,78.7,34.9,78.8,34.9"/>
	<path fill="#00ADEE" d="M78.8,35.7C78.8,35.7,78.8,35.7,78.8,35.7c0.1-0.1,0-0.1,0-0.1C78.7,35.6,78.7,35.6,78.8,35.7
		C78.7,35.7,78.7,35.7,78.8,35.7"/>
	<path fill="#00ADEE" d="M77.8,35c0.2,0,0.3-0.1,0.3-0.3c0-0.2-0.1-0.3-0.3-0.3c-0.2,0-0.3,0.1-0.3,0.3C77.6,34.9,77.7,35,77.8,35"
		/>
	<path fill="#00ADEE" d="M77.8,35.8c0.1,0,0.1,0,0.1-0.1c0-0.1,0-0.1-0.1-0.1c-0.1,0-0.1,0-0.1,0.1C77.7,35.7,77.8,35.8,77.8,35.8"
		/>
	<path fill="#00ADEE" d="M76.9,35.9c0.1,0,0.2-0.1,0.2-0.2s-0.1-0.2-0.2-0.2c-0.1,0-0.2,0.1-0.2,0.2S76.8,35.9,76.9,35.9"/>
	<path fill="#00ADEE" d="M76.9,36.7C77,36.7,77,36.6,76.9,36.7c0.1-0.1,0-0.2,0-0.2C76.9,36.5,76.8,36.5,76.9,36.7
		C76.8,36.6,76.9,36.7,76.9,36.7"/>
	<path fill="#00ADEE" d="M71.7,37.5c0,0.2-0.2,0.4-0.4,0.4c-0.2,0-0.4-0.2-0.4-0.4c0-0.2,0.2-0.4,0.4-0.4
		C71.6,37.1,71.7,37.3,71.7,37.5"/>
	<path fill="#00ADEE" d="M72.6,37.5c0,0.2-0.1,0.3-0.3,0.3c-0.2,0-0.3-0.1-0.3-0.3c0-0.2,0.1-0.3,0.3-0.3
		C72.4,37.2,72.6,37.3,72.6,37.5"/>
	<path fill="#00ADEE" d="M73.4,37.5c0,0.1-0.1,0.2-0.2,0.2S73,37.6,73,37.5c0-0.1,0.1-0.2,0.2-0.2S73.4,37.4,73.4,37.5"/>
	<path fill="#00ADEE" d="M74.3,37.5c0,0.1-0.1,0.1-0.1,0.1c-0.1,0-0.1-0.1-0.1-0.1c0-0.1,0.1-0.1,0.1-0.1
		C74.2,37.4,74.3,37.4,74.3,37.5"/>
	<path fill="#00ADEE" d="M73.3,38.4C73.3,38.5,73.2,38.5,73.3,38.4c-0.1,0.1-0.1,0-0.2,0C73.1,38.4,73.2,38.4,73.3,38.4
		C73.2,38.4,73.3,38.4,73.3,38.4"/>
	<path fill="#00ADEE" d="M74.2,38.4C74.2,38.5,74.2,38.5,74.2,38.4C74.1,38.5,74.1,38.5,74.2,38.4C74.1,38.4,74.1,38.4,74.2,38.4
		C74.2,38.4,74.2,38.4,74.2,38.4"/>
	<path fill="#00ADEE" d="M76,37.5C76,37.5,76,37.6,76,37.5C76,37.6,75.9,37.5,76,37.5C75.9,37.5,76,37.5,76,37.5
		C76,37.5,76,37.5,76,37.5"/>
	<path fill="#00ADEE" d="M72.4,38.4C72.4,38.5,72.3,38.5,72.4,38.4c-0.1,0.1-0.2,0.1-0.2,0C72.2,38.4,72.2,38.3,72.4,38.4
		C72.3,38.3,72.4,38.4,72.4,38.4"/>
	<path fill="#00ADEE" d="M71.5,38.4c0,0.1-0.1,0.1-0.1,0.1c-0.1,0-0.1-0.1-0.1-0.1c0-0.1,0.1-0.1,0.1-0.1
		C71.4,38.3,71.5,38.4,71.5,38.4"/>
	<path fill="#00ADEE" d="M70.6,38.4c0,0.1-0.1,0.2-0.2,0.2c-0.1,0-0.2-0.1-0.2-0.2c0-0.1,0.1-0.2,0.2-0.2
		C70.5,38.3,70.6,38.3,70.6,38.4"/>
	<path fill="#00ADEE" d="M70.5,39.4C70.5,39.4,70.5,39.4,70.5,39.4c-0.1,0.1-0.1,0-0.1,0C70.4,39.3,70.4,39.3,70.5,39.4
		C70.5,39.3,70.5,39.3,70.5,39.4"/>
	<path fill="#00ADEE" d="M75.2,37.5C75.2,37.6,75.1,37.6,75.2,37.5c-0.1,0.1-0.2,0.1-0.2,0C75,37.5,75,37.4,75.2,37.5
		C75.1,37.4,75.2,37.5,75.2,37.5"/>
	<path fill="#00ADEE" d="M74.5,36.6c0,0.2-0.2,0.4-0.4,0.4s-0.3-0.2-0.3-0.4c0-0.2,0.2-0.3,0.3-0.3S74.5,36.4,74.5,36.6"/>
	<path fill="#00ADEE" d="M75.3,36.6c0,0.1-0.1,0.2-0.2,0.2c-0.1,0-0.2-0.1-0.2-0.2c0-0.1,0.1-0.2,0.2-0.2
		C75.2,36.3,75.3,36.4,75.3,36.6"/>
	<path fill="#00ADEE" d="M76.1,36.6c0,0.1-0.1,0.1-0.1,0.1s-0.1-0.1-0.1-0.1c0-0.1,0.1-0.1,0.1-0.1C76.1,36.5,76.1,36.5,76.1,36.6"
		/>
	<path fill="#00ADEE" d="M76.3,35.7c0,0.2-0.2,0.3-0.3,0.3c-0.2,0-0.3-0.2-0.3-0.3c0-0.2,0.2-0.3,0.3-0.3
		C76.2,35.3,76.3,35.5,76.3,35.7"/>
	<path fill="#00ADEE" d="M80.8,32.9c0,0.1-0.1,0.2-0.2,0.2s-0.2-0.1-0.2-0.2c0-0.1,0.1-0.2,0.2-0.2C80.7,32.7,80.8,32.8,80.8,32.9"
		/>
	<path fill="#00ADEE" d="M81.6,32.9C81.6,32.9,81.6,32.9,81.6,32.9c-0.1,0.1-0.1,0-0.1,0C81.5,32.8,81.5,32.8,81.6,32.9
		C81.6,32.8,81.6,32.8,81.6,32.9"/>
	<path fill="#00ADEE" d="M81,31.9c0,0.2-0.1,0.3-0.3,0.3s-0.3-0.1-0.3-0.3c0-0.2,0.1-0.3,0.3-0.3S81,31.8,81,31.9"/>
	<path fill="#00ADEE" d="M81.7,31.9c0,0.1-0.1,0.1-0.1,0.1c-0.1,0-0.1-0.1-0.1-0.1c0-0.1,0.1-0.1,0.1-0.1
		C81.6,31.8,81.7,31.9,81.7,31.9"/>
	<path fill="#00ADEE" d="M82.6,31.9C82.6,32,82.5,32,82.6,31.9c-0.1,0.1-0.1,0-0.1,0C82.4,31.9,82.5,31.9,82.6,31.9
		C82.5,31.9,82.6,31.9,82.6,31.9"/>
	<path fill="#00ADEE" d="M81.9,31c0,0.2-0.1,0.3-0.3,0.3c-0.2,0-0.3-0.1-0.3-0.3c0-0.2,0.1-0.3,0.3-0.3C81.7,30.7,81.9,30.9,81.9,31
		"/>
	<path fill="#00ADEE" d="M82.6,31c0,0.1,0,0.1-0.1,0.1c-0.1,0-0.1,0-0.1-0.1c0-0.1,0-0.1,0.1-0.1S82.6,31,82.6,31"/>
	<path fill="#00ADEE" d="M82.7,30.1c0,0.1-0.1,0.2-0.2,0.2s-0.2-0.1-0.2-0.2c0-0.1,0.1-0.2,0.2-0.2S82.7,30,82.7,30.1"/>
	<path fill="#00ADEE" d="M83.5,30.1C83.5,30.1,83.5,30.2,83.5,30.1c-0.1,0.1-0.2,0-0.2,0C83.3,30,83.4,30,83.5,30.1
		C83.5,30,83.5,30,83.5,30.1"/>
	<path fill="#00ADEE" d="M84.3,24.9c0.2,0,0.4-0.2,0.4-0.4c0-0.2-0.2-0.4-0.4-0.4c-0.2,0-0.4,0.2-0.4,0.4
		C84,24.7,84.1,24.9,84.3,24.9"/>
	<path fill="#00ADEE" d="M84.3,25.8c0.2,0,0.3-0.1,0.3-0.3c0-0.2-0.1-0.3-0.3-0.3c-0.2,0-0.3,0.1-0.3,0.3
		C84,25.6,84.2,25.8,84.3,25.8"/>
	<path fill="#00ADEE" d="M84.3,26.6c0.1,0,0.2-0.1,0.2-0.2c0-0.1-0.1-0.2-0.2-0.2c-0.1,0-0.2,0.1-0.2,0.2
		C84.1,26.5,84.2,26.6,84.3,26.6"/>
	<path fill="#00ADEE" d="M84.3,27.4c0.1,0,0.1-0.1,0.1-0.1c0-0.1-0.1-0.1-0.1-0.1c-0.1,0-0.1,0.1-0.1,0.1
		C84.2,27.4,84.3,27.4,84.3,27.4"/>
	<path fill="#00ADEE" d="M85.3,26.4C85.3,26.4,85.4,26.4,85.3,26.4c0.1-0.1,0-0.1,0-0.1C85.2,26.3,85.2,26.3,85.3,26.4
		C85.2,26.4,85.2,26.4,85.3,26.4"/>
	<path fill="#00ADEE" d="M85.3,27.3C85.3,27.3,85.3,27.3,85.3,27.3C85.3,27.3,85.3,27.3,85.3,27.3C85.3,27.3,85.2,27.3,85.3,27.3
		C85.2,27.3,85.3,27.3,85.3,27.3"/>
	<path fill="#00ADEE" d="M84.3,29.2C84.4,29.2,84.4,29.2,84.3,29.2C84.4,29.1,84.4,29.1,84.3,29.2C84.3,29.1,84.3,29.1,84.3,29.2
		C84.3,29.2,84.3,29.2,84.3,29.2"/>
	<path fill="#00ADEE" d="M85.3,25.5C85.3,25.5,85.4,25.5,85.3,25.5c0.1-0.1,0.1-0.2,0-0.2C85.2,25.3,85.2,25.4,85.3,25.5
		C85.2,25.5,85.2,25.5,85.3,25.5"/>
	<path fill="#00ADEE" d="M85.3,24.7c0.1,0,0.1-0.1,0.1-0.1c0-0.1-0.1-0.1-0.1-0.1c-0.1,0-0.1,0.1-0.1,0.1S85.2,24.7,85.3,24.7"/>
	<path fill="#00ADEE" d="M85.3,23.8c0.1,0,0.2-0.1,0.2-0.2c0-0.1-0.1-0.2-0.2-0.2c-0.1,0-0.2,0.1-0.2,0.2
		C85.1,23.7,85.2,23.8,85.3,23.8"/>
	<path fill="#00ADEE" d="M86.2,23.6C86.2,23.6,86.3,23.6,86.2,23.6c0.1-0.1,0-0.1,0-0.1C86.2,23.5,86.1,23.5,86.2,23.6
		C86.1,23.6,86.2,23.6,86.2,23.6"/>
	<path fill="#00ADEE" d="M84.3,28.3C84.4,28.3,84.4,28.3,84.3,28.3c0.1-0.1,0-0.2,0-0.2C84.3,28.1,84.3,28.2,84.3,28.3
		C84.3,28.3,84.3,28.3,84.3,28.3"/>
	<path fill="#00ADEE" d="M83.4,27.6c0.2,0,0.3-0.2,0.3-0.3c0-0.2-0.2-0.3-0.3-0.3c-0.2,0-0.4,0.2-0.4,0.3
		C83.1,27.5,83.2,27.6,83.4,27.6"/>
	<path fill="#00ADEE" d="M83.4,28.5c0.1,0,0.2-0.1,0.2-0.2c0-0.1-0.1-0.2-0.2-0.2c-0.1,0-0.2,0.1-0.2,0.2
		C83.2,28.4,83.3,28.5,83.4,28.5"/>
	<path fill="#00ADEE" d="M83.4,29.3c0.1,0,0.1-0.1,0.1-0.1c0-0.1-0.1-0.1-0.1-0.1c-0.1,0-0.1,0.1-0.1,0.1
		C83.3,29.2,83.4,29.3,83.4,29.3"/>
	<path fill="#00ADEE" d="M82.5,29.5c0.2,0,0.3-0.2,0.3-0.3c0-0.2-0.2-0.3-0.3-0.3c-0.2,0-0.3,0.2-0.3,0.3
		C82.1,29.3,82.3,29.5,82.5,29.5"/>
	<path fill="#00ADEE" d="M80.6,5.9C80.7,5.9,80.7,5.9,80.6,5.9c0.1,0.1,0,0.2,0,0.2C80.6,6,80.6,6,80.6,5.9
		C80.6,5.9,80.6,5.9,80.6,5.9"/>
	<path fill="#00ADEE" d="M79.7,6.5c0.2,0,0.3,0.2,0.3,0.4c0,0.2-0.2,0.4-0.3,0.4c-0.2,0-0.4-0.2-0.4-0.4C79.4,6.7,79.5,6.5,79.7,6.5
		"/>
	<path fill="#00ADEE" d="M79.7,5.8c0.1,0,0.2,0.1,0.2,0.2c0,0.1-0.1,0.2-0.2,0.2c-0.1,0-0.2-0.1-0.2-0.2C79.5,5.9,79.6,5.8,79.7,5.8
		"/>
	<path fill="#00ADEE" d="M79.7,4.9C79.7,4.9,79.8,5,79.7,4.9c0.1,0.1,0,0.1,0,0.1C79.7,5.1,79.6,5.1,79.7,4.9
		C79.6,5,79.7,4.9,79.7,4.9"/>
	<path fill="#00ADEE" d="M78.8,5.6c0.2,0,0.3,0.1,0.3,0.3S79,6.3,78.8,6.3c-0.2,0-0.3-0.1-0.3-0.3S78.6,5.6,78.8,5.6"/>
	<path fill="#00ADEE" d="M78.8,4.9c0.1,0,0.1,0.1,0.1,0.1s-0.1,0.1-0.1,0.1c-0.1,0-0.1-0.1-0.1-0.1S78.7,4.9,78.8,4.9"/>
	<path fill="#00ADEE" d="M78.8,4C78.8,4,78.8,4,78.8,4c0.1,0.1,0,0.1,0,0.1C78.7,4.1,78.7,4.1,78.8,4C78.7,4,78.7,4,78.8,4"/>
	<path fill="#00ADEE" d="M77.8,4.7c0.2,0,0.3,0.1,0.3,0.3c0,0.2-0.1,0.3-0.3,0.3c-0.2,0-0.3-0.1-0.3-0.3C77.6,4.9,77.7,4.7,77.8,4.7
		"/>
	<path fill="#00ADEE" d="M77.8,4C77.9,4,78,4,78,4.1c0,0.1,0,0.1-0.1,0.1c-0.1,0-0.1,0-0.1-0.1C77.7,4,77.8,4,77.8,4"/>
	<path fill="#00ADEE" d="M76.9,3.9c0.1,0,0.2,0.1,0.2,0.2c0,0.1-0.1,0.2-0.2,0.2c-0.1,0-0.2-0.1-0.2-0.2C76.7,4,76.8,3.9,76.9,3.9"
		/>
	<path fill="#00ADEE" d="M76.9,3.1C77,3.1,77,3.1,76.9,3.1c0.1,0.1,0,0.2,0,0.2C76.9,3.2,76.8,3.2,76.9,3.1
		C76.8,3.1,76.9,3.1,76.9,3.1"/>
	<path fill="#00ADEE" d="M71.7,2.2c0-0.2-0.2-0.4-0.4-0.4C71.1,1.9,71,2,71,2.2c0,0.2,0.2,0.4,0.4,0.4C71.6,2.6,71.7,2.4,71.7,2.2"
		/>
	<path fill="#00ADEE" d="M72.6,2.2c0-0.2-0.1-0.3-0.3-0.3c-0.2,0-0.3,0.1-0.3,0.3c0,0.2,0.1,0.3,0.3,0.3C72.4,2.5,72.6,2.4,72.6,2.2
		"/>
	<path fill="#00ADEE" d="M73.4,2.2c0-0.1-0.1-0.2-0.2-0.2S73,2.1,73,2.2c0,0.1,0.1,0.2,0.2,0.2S73.4,2.4,73.4,2.2"/>
	<path fill="#00ADEE" d="M74.3,2.2c0-0.1-0.1-0.1-0.1-0.1c-0.1,0-0.1,0.1-0.1,0.1c0,0.1,0.1,0.1,0.1,0.1C74.2,2.4,74.3,2.3,74.3,2.2
		"/>
	<path fill="#00ADEE" d="M73.3,1.3C73.3,1.3,73.2,1.2,73.3,1.3c-0.1-0.1-0.2,0-0.2,0C73.1,1.3,73.2,1.4,73.3,1.3
		C73.2,1.4,73.3,1.3,73.3,1.3"/>
	<path fill="#00ADEE" d="M74.2,1.3C74.2,1.3,74.2,1.3,74.2,1.3C74.1,1.3,74.1,1.3,74.2,1.3C74.1,1.3,74.1,1.3,74.2,1.3
		C74.2,1.3,74.2,1.3,74.2,1.3"/>
	<path fill="#00ADEE" d="M76,2.2C76,2.2,76,2.2,76,2.2C76,2.2,75.9,2.2,76,2.2C75.9,2.3,76,2.3,76,2.2C76,2.3,76,2.3,76,2.2"/>
	<path fill="#00ADEE" d="M72.4,1.3C72.4,1.2,72.3,1.2,72.4,1.3c-0.1-0.1-0.2-0.1-0.2,0C72.2,1.4,72.2,1.4,72.4,1.3
		C72.3,1.4,72.4,1.4,72.4,1.3"/>
	<path fill="#00ADEE" d="M71.5,1.3c0-0.1-0.1-0.1-0.1-0.1c-0.1,0-0.1,0.1-0.1,0.1c0,0.1,0.1,0.1,0.1,0.1C71.4,1.4,71.5,1.4,71.5,1.3
		"/>
	<path fill="#00ADEE" d="M70.6,1.3c0-0.1-0.1-0.2-0.2-0.2c-0.1,0-0.2,0.1-0.2,0.2c0,0.1,0.1,0.2,0.2,0.2C70.5,1.5,70.6,1.4,70.6,1.3
		"/>
	<path fill="#00ADEE" d="M69.5,1c-0.1,0-0.3,0.1-0.3,0.3c0,0.1,0.1,0.3,0.3,0.3c0.1,0,0.3-0.1,0.3-0.3c0-0.1,0-0.1-0.1-0.2
		C69.6,1.1,69.6,1,69.5,1"/>
	<path fill="#00ADEE" d="M68.3,1.3c0,0.1,0,0.1,0.1,0.2c0.1,0.1,0.1,0.1,0.2,0.1c0.1,0,0.1,0,0.2-0.1c0.1-0.1,0.1-0.1,0.1-0.2
		c0-0.2-0.1-0.3-0.3-0.3C68.4,1,68.3,1.1,68.3,1.3"/>
	<path fill="#00ADEE" d="M67.3,1.3c0,0.2,0.1,0.3,0.3,0.3c0.2,0,0.3-0.1,0.3-0.3c0-0.2-0.1-0.3-0.3-0.3C67.5,1,67.3,1.1,67.3,1.3"/>
	<path fill="#00ADEE" d="M70.5,0.4C70.5,0.3,70.5,0.3,70.5,0.4c-0.1-0.1-0.1,0-0.1,0C70.4,0.4,70.4,0.4,70.5,0.4
		C70.5,0.4,70.5,0.4,70.5,0.4"/>
	<path fill="#00ADEE" d="M69.4,0.4c0,0.1,0,0.1,0.1,0.1c0.1,0,0.1,0,0.1-0.1c0-0.1,0-0.1-0.1-0.1C69.4,0.3,69.4,0.3,69.4,0.4"/>
	<path fill="#00ADEE" d="M68.4,0.4C68.4,0.4,68.5,0.4,68.4,0.4c0.1,0.1,0.1,0.1,0.1,0.1c0.1,0,0.1-0.1,0.1-0.1
		c0-0.1-0.1-0.1-0.1-0.1C68.5,0.2,68.4,0.3,68.4,0.4"/>
	<path fill="#00ADEE" d="M67.5,0.4c0,0.1,0.1,0.1,0.1,0.1c0.1,0,0.1-0.1,0.1-0.1c0-0.1-0.1-0.1-0.1-0.1C67.6,0.2,67.5,0.3,67.5,0.4"
		/>
	<path fill="#00ADEE" d="M75.2,2.2C75.2,2.2,75.1,2.1,75.2,2.2c-0.1-0.1-0.2,0-0.2,0C75,2.3,75,2.3,75.2,2.2
		C75.1,2.3,75.2,2.3,75.2,2.2"/>
	<path fill="#00ADEE" d="M48.1,22.9L48.1,22.9c0.1,0,0.3-0.1,0.3-0.3c0-0.1-0.1-0.3-0.3-0.3c-0.1,0-0.3,0.1-0.3,0.3
		C47.9,22.8,48,22.9,48.1,22.9"/>
	<path fill="#00ADEE" d="M47.9,21.9C48,22,48.1,22,48.1,22c0.1,0,0.1,0,0.2-0.1c0.1-0.1,0.1-0.1,0.1-0.2c0-0.2-0.1-0.3-0.3-0.3
		c-0.2,0-0.3,0.1-0.3,0.3C47.8,21.8,47.9,21.9,47.9,21.9"/>
	<path fill="#00ADEE" d="M47.9,21c0.1,0.1,0.1,0.1,0.2,0.1c0.1,0,0.2,0,0.2-0.1c0.1-0.1,0.1-0.1,0.1-0.2c0-0.2-0.1-0.3-0.3-0.3
		c-0.2,0-0.3,0.1-0.3,0.3C47.8,20.9,47.9,21,47.9,21"/>
	<path fill="#00ADEE" d="M47.2,22.8L47.2,22.8c0.1,0,0.1,0,0.1-0.1c0-0.1,0-0.1-0.1-0.1c-0.1,0-0.1,0-0.1,0.1
		C47.1,22.7,47.1,22.8,47.2,22.8"/>
	<path fill="#00ADEE" d="M47.1,21.7c0,0.1,0.1,0.1,0.1,0.1s0.1-0.1,0.1-0.1c0-0.1-0.1-0.1-0.1-0.1C47.2,21.6,47.1,21.6,47.1,21.7
		C47.1,21.7,47.1,21.7,47.1,21.7"/>
	<path fill="#00ADEE" d="M47.2,20.9L47.2,20.9c0.1,0,0.1-0.1,0.1-0.1c0,0,0-0.1,0-0.1c0,0-0.1,0-0.1,0c0,0-0.1,0-0.1,0
		c0,0,0,0.1,0,0.1C47.1,20.9,47.1,20.9,47.2,20.9"/>
	<path fill="#00ADEE" d="M47.9,20.1c0.1,0.1,0.1,0.1,0.2,0.1c0.2,0,0.3-0.1,0.3-0.3c0-0.2-0.1-0.3-0.3-0.3c-0.2,0-0.3,0.1-0.3,0.3
		C47.8,20,47.8,20,47.9,20.1"/>
	<path fill="#00ADEE" d="M47.1,19.9C47.1,19.9,47.1,19.9,47.1,19.9c0.1,0.1,0.1,0.1,0.1,0.1s0.1,0,0.1,0c0,0,0-0.1,0-0.1
		c0,0,0-0.1,0-0.1c0,0-0.1,0-0.1,0C47.1,19.7,47.1,19.8,47.1,19.9"/>
	<path fill="#00ADEE" d="M47.9,17.1c0,0.1,0.1,0.3,0.3,0.3c0.1,0,0.3-0.1,0.3-0.3c0-0.1-0.1-0.3-0.3-0.3c-0.1,0-0.1,0-0.2,0.1
		C47.9,16.9,47.9,17,47.9,17.1"/>
	<path fill="#00ADEE" d="M48.1,18.3c0.1,0,0.1,0,0.2-0.1c0.1-0.1,0.1-0.1,0.1-0.2c0-0.1,0-0.1-0.1-0.2c-0.1-0.1-0.1-0.1-0.2-0.1h0
		c-0.2,0-0.3,0.1-0.3,0.3C47.8,18.2,48,18.3,48.1,18.3"/>
	<path fill="#00ADEE" d="M48.1,19.3c0.2,0,0.3-0.1,0.3-0.3s-0.1-0.3-0.3-0.3c-0.2,0-0.3,0.1-0.3,0.3C47.8,19.1,48,19.3,48.1,19.3"/>
	<path fill="#00ADEE" d="M47.2,17.2c0.1,0,0.1,0,0.1-0.1c0-0.1,0-0.1-0.1-0.1c-0.1,0-0.1,0.1-0.1,0.1C47.1,17.1,47.1,17.2,47.2,17.2
		"/>
	<path fill="#00ADEE" d="M47.2,18.1C47.2,18.1,47.3,18.1,47.2,18.1c0.1-0.1,0.1-0.1,0.1-0.1c0-0.1-0.1-0.1-0.1-0.1
		c-0.1,0-0.1,0.1-0.1,0.1C47.1,18.1,47.1,18.1,47.2,18.1"/>
	<path fill="#00ADEE" d="M47.2,19.1c0.1,0,0.1-0.1,0.1-0.1s-0.1-0.1-0.1-0.1c-0.1,0-0.1,0.1-0.1,0.1S47.1,19.1,47.2,19.1"/>
	<path fill="#00ADEE" d="M69.8,38.4L69.8,38.4c0-0.1-0.1-0.3-0.3-0.3c-0.1,0-0.3,0.1-0.3,0.3c0,0.1,0.1,0.3,0.3,0.3
		C69.6,38.7,69.8,38.6,69.8,38.4"/>
	<path fill="#00ADEE" d="M68.8,38.6c0.1-0.1,0.1-0.1,0.1-0.2s0-0.1-0.1-0.2c-0.1-0.1-0.1-0.1-0.2-0.1c-0.2,0-0.3,0.1-0.3,0.3
		c0,0.2,0.1,0.3,0.3,0.3C68.6,38.7,68.7,38.7,68.8,38.6"/>
	<path fill="#00ADEE" d="M67.9,38.7c0.1-0.1,0.1-0.1,0.1-0.2c0-0.1,0-0.2-0.1-0.2c-0.1-0.1-0.1-0.1-0.2-0.1c-0.2,0-0.3,0.1-0.3,0.3
		c0,0.2,0.1,0.3,0.3,0.3C67.7,38.8,67.8,38.7,67.9,38.7"/>
	<path fill="#00ADEE" d="M69.6,39.4L69.6,39.4c0-0.1,0-0.1-0.1-0.1c-0.1,0-0.1,0-0.1,0.1c0,0.1,0,0.1,0.1,0.1
		C69.6,39.5,69.6,39.4,69.6,39.4"/>
	<path fill="#00ADEE" d="M68.6,39.5c0.1,0,0.1-0.1,0.1-0.1c0-0.1-0.1-0.1-0.1-0.1c-0.1,0-0.1,0.1-0.1,0.1
		C68.4,39.4,68.5,39.4,68.6,39.5C68.5,39.5,68.5,39.5,68.6,39.5"/>
	<path fill="#00ADEE" d="M67.8,39.4L67.8,39.4c0-0.1-0.1-0.1-0.1-0.1c0,0-0.1,0-0.1,0c0,0,0,0.1,0,0.1c0,0,0,0.1,0,0.1
		c0,0,0.1,0,0.1,0C67.7,39.5,67.8,39.4,67.8,39.4"/>
	<path fill="#00ADEE" d="M66.9,38.7c0.1-0.1,0.1-0.1,0.1-0.2c0-0.2-0.1-0.3-0.3-0.3c-0.2,0-0.3,0.1-0.3,0.3c0,0.2,0.1,0.3,0.3,0.3
		C66.8,38.8,66.9,38.7,66.9,38.7"/>
	<path fill="#00ADEE" d="M66.7,39.5C66.7,39.5,66.8,39.5,66.7,39.5c0.1-0.1,0.1-0.1,0.1-0.1c0,0,0-0.1,0-0.1c0,0-0.1,0-0.1,0
		c0,0-0.1,0-0.1,0c0,0,0,0.1,0,0.1C66.6,39.4,66.6,39.5,66.7,39.5"/>
	<path fill="#00ADEE" d="M63.9,38.7c0.1,0,0.3-0.1,0.3-0.3c0-0.1-0.1-0.3-0.3-0.3c-0.1,0-0.3,0.1-0.3,0.3c0,0.1,0,0.1,0.1,0.2
		C63.8,38.7,63.8,38.7,63.9,38.7"/>
	<path fill="#00ADEE" d="M65.1,38.4c0-0.1,0-0.1-0.1-0.2c-0.1-0.1-0.1-0.1-0.2-0.1c-0.1,0-0.1,0-0.2,0.1c-0.1,0.1-0.1,0.1-0.1,0.2
		c0,0.2,0.1,0.3,0.3,0.3C65,38.7,65.1,38.6,65.1,38.4"/>
	<path fill="#00ADEE" d="M66.1,38.4c0-0.2-0.1-0.3-0.3-0.3c-0.2,0-0.3,0.1-0.3,0.3c0,0.2,0.1,0.3,0.3,0.3
		C66,38.8,66.1,38.6,66.1,38.4"/>
	<path fill="#00ADEE" d="M64,39.4c0-0.1,0-0.1-0.1-0.1c-0.1,0-0.1,0-0.1,0.1c0,0.1,0,0.1,0.1,0.1C64,39.5,64,39.4,64,39.4"/>
	<path fill="#00ADEE" d="M65,39.4C65,39.3,65,39.3,65,39.4c-0.1-0.1-0.1-0.1-0.1-0.1c-0.1,0-0.1,0.1-0.1,0.1c0,0.1,0.1,0.1,0.1,0.1
		S65,39.4,65,39.4"/>
	<path fill="#00ADEE" d="M65.9,39.4c0-0.1-0.1-0.1-0.1-0.1c-0.1,0-0.1,0.1-0.1,0.1c0,0.1,0.1,0.1,0.1,0.1
		C65.8,39.5,65.9,39.4,65.9,39.4"/>
	<path fill="#00ADEE" d="M85.3,16.8L85.3,16.8c-0.1,0-0.3,0.1-0.3,0.3c0,0.1,0.1,0.3,0.3,0.3c0.1,0,0.3-0.1,0.3-0.3
		C85.5,16.9,85.4,16.8,85.3,16.8"/>
	<path fill="#00ADEE" d="M85.5,17.8c-0.1-0.1-0.1-0.1-0.2-0.1c-0.1,0-0.1,0-0.2,0.1C85,17.9,85,17.9,85,18c0,0.2,0.1,0.3,0.3,0.3
		c0.2,0,0.3-0.1,0.3-0.3C85.6,17.9,85.5,17.9,85.5,17.8"/>
	<path fill="#00ADEE" d="M85.5,18.7c-0.1-0.1-0.1-0.1-0.2-0.1c-0.1,0-0.2,0-0.2,0.1C85,18.8,85,18.9,85,18.9c0,0.2,0.1,0.3,0.3,0.3
		c0.2,0,0.3-0.1,0.3-0.3C85.6,18.9,85.6,18.8,85.5,18.7"/>
	<path fill="#00ADEE" d="M86.2,17L86.2,17c-0.1,0-0.1,0.1-0.1,0.1c0,0.1,0,0.1,0.1,0.1c0.1,0,0.1,0,0.1-0.1C86.3,17,86.3,17,86.2,17
		"/>
	<path fill="#00ADEE" d="M86.3,18c0-0.1-0.1-0.1-0.1-0.1c-0.1,0-0.1,0.1-0.1,0.1c0,0.1,0.1,0.1,0.1,0.1C86.2,18.1,86.3,18.1,86.3,18
		C86.3,18.1,86.3,18,86.3,18"/>
	<path fill="#00ADEE" d="M86.2,18.8L86.2,18.8c-0.1,0-0.1,0.1-0.1,0.1c0,0,0,0.1,0,0.1c0,0,0.1,0,0.1,0c0,0,0.1,0,0.1,0
		c0,0,0-0.1,0-0.1C86.3,18.9,86.3,18.8,86.2,18.8"/>
	<path fill="#00ADEE" d="M85.5,19.6c-0.1-0.1-0.1-0.1-0.2-0.1c-0.2,0-0.3,0.1-0.3,0.3c0,0.2,0.1,0.3,0.3,0.3c0.2,0,0.3-0.1,0.3-0.3
		C85.6,19.8,85.6,19.7,85.5,19.6"/>
	<path fill="#00ADEE" d="M86.3,19.9C86.3,19.8,86.3,19.8,86.3,19.9c-0.1-0.1-0.1-0.1-0.1-0.1c0,0-0.1,0-0.1,0c0,0,0,0.1,0,0.1
		c0,0,0,0.1,0,0.1c0,0,0.1,0,0.1,0C86.3,20,86.3,19.9,86.3,19.9"/>
	<path fill="#00ADEE" d="M85.5,22.7c0-0.1-0.1-0.3-0.3-0.3c-0.1,0-0.3,0.1-0.3,0.3c0,0.1,0.1,0.3,0.3,0.3c0.1,0,0.1,0,0.2-0.1
		C85.5,22.8,85.5,22.7,85.5,22.7"/>
	<path fill="#00ADEE" d="M85.3,21.4c-0.1,0-0.1,0-0.2,0.1C85,21.6,85,21.7,85,21.7c0,0.1,0,0.1,0.1,0.2c0.1,0.1,0.1,0.1,0.2,0.1
		c0.2,0,0.3-0.1,0.3-0.3C85.6,21.6,85.4,21.4,85.3,21.4"/>
	<path fill="#00ADEE" d="M85.3,20.5c-0.2,0-0.3,0.1-0.3,0.3s0.1,0.3,0.3,0.3c0.2,0,0.3-0.1,0.3-0.3S85.5,20.5,85.3,20.5"/>
	<path fill="#00ADEE" d="M86.2,22.5c-0.1,0-0.1,0.1-0.1,0.1c0,0.1,0,0.1,0.1,0.1c0.1,0,0.1,0,0.1-0.1C86.3,22.6,86.3,22.5,86.2,22.5
		"/>
	<path fill="#00ADEE" d="M86.2,21.6C86.2,21.6,86.1,21.6,86.2,21.6c-0.1,0.1-0.1,0.1-0.1,0.1c0,0.1,0.1,0.1,0.1,0.1
		c0.1,0,0.1-0.1,0.1-0.1C86.3,21.7,86.3,21.6,86.2,21.6"/>
	<path fill="#00ADEE" d="M86.2,20.7c-0.1,0-0.1,0.1-0.1,0.1s0.1,0.1,0.1,0.1c0.1,0,0.1-0.1,0.1-0.1S86.3,20.7,86.2,20.7"/>
	<path fill="#00ADEE" d="M74.5,3.2c0-0.2-0.2-0.3-0.4-0.3S73.8,3,73.8,3.2c0,0.2,0.2,0.3,0.3,0.3S74.5,3.3,74.5,3.2"/>
	<path fill="#00ADEE" d="M75.3,3.2c0-0.1-0.1-0.2-0.2-0.2c-0.1,0-0.2,0.1-0.2,0.2c0,0.1,0.1,0.2,0.2,0.2C75.2,3.4,75.3,3.3,75.3,3.2
		"/>
	<path fill="#00ADEE" d="M76.1,3.2C76.1,3.1,76.1,3,76,3s-0.1,0.1-0.1,0.1c0,0.1,0.1,0.1,0.1,0.1C76.1,3.3,76.1,3.2,76.1,3.2"/>
	<path fill="#00ADEE" d="M76.3,4.1c0-0.2-0.2-0.3-0.3-0.3c-0.2,0-0.3,0.2-0.3,0.3c0,0.2,0.2,0.3,0.3,0.3C76.2,4.4,76.3,4.3,76.3,4.1
		"/>
	<path fill="#00ADEE" d="M80.8,6.9c0-0.1-0.1-0.2-0.2-0.2s-0.2,0.1-0.2,0.2C80.5,7,80.5,7,80.6,7S80.8,7,80.8,6.9"/>
	<path fill="#00ADEE" d="M81.6,6.9C81.6,6.8,81.6,6.8,81.6,6.9c-0.1-0.1-0.1,0-0.1,0C81.5,6.9,81.5,6.9,81.6,6.9
		C81.6,6.9,81.6,6.9,81.6,6.9"/>
	<path fill="#00ADEE" d="M81,7.8c0-0.2-0.1-0.3-0.3-0.3s-0.3,0.1-0.3,0.3c0,0.2,0.1,0.3,0.3,0.3S81,8,81,7.8"/>
	<path fill="#00ADEE" d="M81.7,7.8c0-0.1-0.1-0.1-0.1-0.1c-0.1,0-0.1,0.1-0.1,0.1c0,0.1,0.1,0.1,0.1,0.1C81.6,7.9,81.7,7.9,81.7,7.8
		"/>
	<path fill="#00ADEE" d="M82.6,7.8C82.6,7.8,82.5,7.7,82.6,7.8c-0.1-0.1-0.1,0-0.1,0C82.4,7.8,82.5,7.9,82.6,7.8
		C82.5,7.9,82.6,7.8,82.6,7.8"/>
	<path fill="#00ADEE" d="M81.9,8.7c0-0.2-0.1-0.3-0.3-0.3c-0.2,0-0.3,0.1-0.3,0.3c0,0.2,0.1,0.3,0.3,0.3C81.7,9,81.9,8.9,81.9,8.7"
		/>
	<path fill="#00ADEE" d="M82.6,8.7c0-0.1,0-0.1-0.1-0.1c-0.1,0-0.1,0-0.1,0.1c0,0.1,0,0.1,0.1,0.1C82.6,8.8,82.6,8.8,82.6,8.7"/>
	<path fill="#00ADEE" d="M82.7,9.7c0-0.1-0.1-0.2-0.2-0.2s-0.2,0.1-0.2,0.2c0,0.1,0.1,0.2,0.2,0.2S82.7,9.8,82.7,9.7"/>
	<path fill="#00ADEE" d="M83.5,9.7C83.5,9.6,83.5,9.6,83.5,9.7c-0.1-0.1-0.2,0-0.2,0C83.3,9.7,83.4,9.7,83.5,9.7
		C83.5,9.7,83.5,9.7,83.5,9.7"/>
	<path fill="#00ADEE" d="M84.3,14.9c0.2,0,0.4,0.2,0.4,0.4c0,0.2-0.2,0.4-0.4,0.4c-0.2,0-0.4-0.2-0.4-0.4C84,15,84.1,14.9,84.3,14.9
		"/>
	<path fill="#00ADEE" d="M84.3,14c0.2,0,0.3,0.1,0.3,0.3c0,0.2-0.1,0.3-0.3,0.3c-0.2,0-0.3-0.1-0.3-0.3C84,14.1,84.2,14,84.3,14"/>
	<path fill="#00ADEE" d="M84.3,13.1c0.1,0,0.2,0.1,0.2,0.2c0,0.1-0.1,0.2-0.2,0.2c-0.1,0-0.2-0.1-0.2-0.2
		C84.1,13.2,84.2,13.1,84.3,13.1"/>
	<path fill="#00ADEE" d="M84.3,12.3c0.1,0,0.1,0.1,0.1,0.1c0,0.1-0.1,0.1-0.1,0.1c-0.1,0-0.1-0.1-0.1-0.1
		C84.2,12.4,84.3,12.3,84.3,12.3"/>
	<path fill="#00ADEE" d="M85.3,13.3C85.3,13.3,85.4,13.3,85.3,13.3c0.1,0.1,0,0.2,0,0.2C85.2,13.4,85.2,13.4,85.3,13.3
		C85.2,13.3,85.2,13.3,85.3,13.3"/>
	<path fill="#00ADEE" d="M85.3,12.4C85.3,12.4,85.3,12.4,85.3,12.4C85.3,12.5,85.3,12.5,85.3,12.4C85.3,12.5,85.2,12.5,85.3,12.4
		C85.2,12.4,85.3,12.4,85.3,12.4"/>
	<path fill="#00ADEE" d="M84.3,10.5C84.4,10.5,84.4,10.6,84.3,10.5C84.4,10.6,84.4,10.6,84.3,10.5C84.3,10.6,84.3,10.6,84.3,10.5
		C84.3,10.6,84.3,10.5,84.3,10.5"/>
	<path fill="#00ADEE" d="M85.3,14.2C85.3,14.2,85.4,14.2,85.3,14.2c0.1,0.1,0.1,0.2,0,0.2C85.2,14.4,85.2,14.3,85.3,14.2
		C85.2,14.2,85.2,14.2,85.3,14.2"/>
	<path fill="#00ADEE" d="M85.3,15.1c0.1,0,0.1,0.1,0.1,0.1s-0.1,0.1-0.1,0.1c-0.1,0-0.1-0.1-0.1-0.1S85.2,15.1,85.3,15.1"/>
	<path fill="#00ADEE" d="M85.3,16c0.1,0,0.2,0.1,0.2,0.2c0,0.1-0.1,0.2-0.2,0.2c-0.1,0-0.2-0.1-0.2-0.2C85.1,16,85.2,16,85.3,16"/>
	<path fill="#00ADEE" d="M86.2,16.1C86.2,16.1,86.3,16.1,86.2,16.1c0.1,0.1,0,0.1,0,0.1C86.2,16.2,86.1,16.2,86.2,16.1
		C86.1,16.1,86.2,16.1,86.2,16.1"/>
	<path fill="#00ADEE" d="M84.3,11.4C84.4,11.4,84.4,11.5,84.3,11.4c0.1,0.1,0,0.2,0,0.2C84.3,11.6,84.3,11.6,84.3,11.4
		C84.3,11.5,84.3,11.4,84.3,11.4"/>
	<path fill="#00ADEE" d="M83.4,12.1c0.2,0,0.3,0.2,0.3,0.3s-0.2,0.3-0.3,0.3c-0.2,0-0.4-0.2-0.4-0.3S83.2,12.1,83.4,12.1"/>
	<path fill="#00ADEE" d="M83.4,11.3c0.1,0,0.2,0.1,0.2,0.2c0,0.1-0.1,0.2-0.2,0.2c-0.1,0-0.2-0.1-0.2-0.2
		C83.2,11.4,83.3,11.3,83.4,11.3"/>
	<path fill="#00ADEE" d="M83.4,10.5c0.1,0,0.1,0.1,0.1,0.1c0,0.1-0.1,0.1-0.1,0.1c-0.1,0-0.1-0.1-0.1-0.1
		C83.3,10.5,83.4,10.5,83.4,10.5"/>
	<path fill="#00ADEE" d="M82.5,10.2c0.2,0,0.3,0.2,0.3,0.3c0,0.2-0.2,0.3-0.3,0.3c-0.2,0-0.3-0.2-0.3-0.3
		C82.1,10.4,82.3,10.2,82.5,10.2"/>
	<path fill="#00ADEE" d="M84.9,20.8c0-0.2-0.1-0.4-0.2-0.5c0,0,0.1,0,0.1-0.1c0.1-0.1,0.2-0.2,0.2-0.4c0-0.2-0.1-0.4-0.3-0.5
		c0.1-0.1,0.2-0.3,0.2-0.5c0-0.2-0.1-0.4-0.3-0.5c0.2-0.1,0.3-0.3,0.3-0.5c0-0.2-0.1-0.4-0.3-0.5c0.2-0.1,0.3-0.3,0.3-0.5
		c0-0.3-0.2-0.5-0.5-0.5c-0.1,0-0.3,0.1-0.3,0.1c0,0,0,0,0,0.1c0-0.1-0.1-0.2-0.2-0.2c0.1-0.1,0.2-0.2,0.2-0.3
		c0.1,0.2,0.2,0.3,0.4,0.3c0.2,0,0.4-0.2,0.4-0.4c0-0.2-0.2-0.4-0.4-0.4c-0.2,0-0.3,0.1-0.4,0.3c0-0.1-0.1-0.3-0.3-0.3
		c0.2-0.1,0.3-0.3,0.3-0.5c0-0.2-0.1-0.4-0.3-0.5c0.2-0.1,0.3-0.3,0.3-0.5c0-0.3-0.2-0.5-0.4-0.5c0.2,0,0.4-0.2,0.4-0.4
		c0-0.2-0.2-0.4-0.4-0.4c-0.2,0-0.3,0.1-0.4,0.2c0-0.1-0.1-0.2-0.2-0.3c0.1-0.1,0.2-0.3,0.2-0.4c0-0.2-0.1-0.4-0.4-0.5
		c0.2-0.1,0.3-0.2,0.3-0.4c0-0.3-0.2-0.5-0.5-0.5c-0.2,0-0.3,0.1-0.4,0.2c0-0.1-0.1-0.2-0.3-0.3c0.1-0.1,0.2-0.2,0.2-0.4
		c0-0.3-0.2-0.5-0.5-0.5c0.2,0,0.4-0.2,0.4-0.4c0-0.2-0.2-0.4-0.4-0.4c-0.2,0-0.4,0.1-0.4,0.3c0-0.2-0.2-0.3-0.4-0.4
		c0.2-0.1,0.3-0.2,0.3-0.4c0-0.3-0.2-0.5-0.5-0.5c-0.2,0-0.3,0.1-0.4,0.3c-0.1-0.1-0.2-0.3-0.3-0.3c0.2-0.1,0.3-0.2,0.3-0.4
		c0-0.3-0.2-0.5-0.5-0.5c-0.2,0-0.3,0.1-0.4,0.2c-0.1-0.1-0.2-0.2-0.3-0.3c0.1-0.1,0.2-0.2,0.2-0.4c0-0.3-0.2-0.5-0.5-0.5
		c-0.2,0-0.3,0.1-0.4,0.3c-0.1-0.1-0.2-0.2-0.3-0.3c0.2-0.1,0.3-0.2,0.3-0.4c0-0.3-0.2-0.5-0.5-0.5c-0.2,0-0.4,0.1-0.4,0.3
		c-0.1-0.2-0.2-0.3-0.4-0.4c0.2,0,0.3-0.2,0.3-0.4c0-0.2-0.2-0.4-0.4-0.4c-0.2,0-0.4,0.2-0.4,0.4c0-0.3-0.2-0.5-0.5-0.5
		c-0.2,0-0.3,0.1-0.4,0.2c-0.1-0.1-0.2-0.2-0.3-0.3c0.1-0.1,0.2-0.2,0.2-0.4c0-0.3-0.2-0.5-0.5-0.5c-0.2,0-0.4,0.1-0.4,0.3
		c-0.1-0.2-0.3-0.4-0.5-0.4c-0.2,0-0.3,0.1-0.4,0.2c-0.1-0.1-0.2-0.2-0.3-0.2c0.1-0.1,0.2-0.2,0.2-0.4c0-0.2-0.2-0.4-0.4-0.4
		c-0.2,0-0.4,0.2-0.4,0.4c0-0.2-0.2-0.4-0.5-0.4c-0.2,0-0.4,0.1-0.5,0.3c-0.1-0.2-0.3-0.3-0.5-0.3c-0.2,0-0.4,0.1-0.5,0.3
		c-0.1-0.1-0.2-0.2-0.3-0.3c0.2-0.1,0.3-0.2,0.3-0.4c0-0.2-0.2-0.4-0.4-0.4C70.2,1.8,70,2,70,2.2c0,0.2,0.1,0.3,0.3,0.4
		c-0.1,0-0.2,0.1-0.3,0.2c-0.1-0.1-0.1-0.1-0.2-0.2C69.9,2.5,70,2.4,70,2.2c0-0.3-0.2-0.5-0.5-0.5c-0.2,0-0.4,0.1-0.5,0.3
		c-0.1-0.2-0.3-0.3-0.5-0.3c-0.2,0-0.4,0.1-0.4,0.3c-0.1-0.2-0.3-0.3-0.5-0.3c-0.2,0-0.4,0.1-0.5,0.2c0,0,0-0.1-0.1-0.1
		c-0.1-0.1-0.2-0.2-0.4-0.2c-0.2,0-0.4,0.1-0.5,0.3c-0.1-0.1-0.3-0.2-0.5-0.2c-0.2,0-0.4,0.1-0.5,0.3c-0.1-0.2-0.3-0.3-0.4-0.3
		c-0.2,0-0.4,0.1-0.5,0.3c-0.1-0.2-0.3-0.3-0.5-0.3c-0.3,0-0.5,0.2-0.5,0.5c0,0.1,0.1,0.3,0.1,0.4c0,0,0,0,0.1,0
		c-0.1,0-0.2,0.1-0.2,0.2c-0.1-0.1-0.2-0.2-0.3-0.2c0.2-0.1,0.3-0.2,0.3-0.4c0-0.2-0.2-0.4-0.4-0.4c-0.2,0-0.4,0.2-0.4,0.4
		c0,0.2,0.1,0.3,0.3,0.4c-0.1,0-0.3,0.1-0.3,0.3c-0.1-0.2-0.3-0.3-0.5-0.3c-0.2,0-0.4,0.1-0.5,0.3c-0.1-0.2-0.3-0.3-0.5-0.3
		c-0.3,0-0.5,0.2-0.5,0.4c0-0.2-0.2-0.4-0.4-0.4c-0.2,0-0.4,0.2-0.4,0.4c0,0.2,0.1,0.3,0.2,0.4c-0.1,0-0.2,0.1-0.3,0.2
		c-0.1-0.1-0.3-0.2-0.4-0.2c-0.2,0-0.4,0.2-0.5,0.4c-0.1-0.2-0.2-0.3-0.4-0.3c-0.3,0-0.5,0.2-0.5,0.5c0,0.2,0.1,0.3,0.2,0.4
		c-0.1,0.1-0.2,0.1-0.3,0.3c-0.1-0.1-0.2-0.2-0.4-0.2c-0.3,0-0.5,0.2-0.5,0.5c0-0.2-0.2-0.4-0.4-0.4c-0.2,0-0.4,0.2-0.4,0.4
		c0,0.2,0.1,0.4,0.3,0.4c-0.2,0-0.3,0.2-0.4,0.4c-0.1-0.2-0.2-0.3-0.4-0.3c-0.3,0-0.5,0.2-0.5,0.5c0,0.2,0.1,0.3,0.3,0.4
		c-0.1,0.1-0.3,0.2-0.3,0.3c-0.1-0.2-0.2-0.3-0.4-0.3c-0.3,0-0.5,0.2-0.5,0.5c0,0.2,0.1,0.3,0.2,0.4c-0.1,0.1-0.2,0.2-0.3,0.3
		c-0.1-0.1-0.2-0.2-0.4-0.2c-0.3,0-0.5,0.2-0.5,0.5c0,0.2,0.1,0.3,0.3,0.4c-0.1,0.1-0.2,0.2-0.3,0.3c-0.1-0.2-0.2-0.3-0.4-0.3
		c-0.3,0-0.5,0.2-0.5,0.5c0,0.2,0.1,0.4,0.3,0.4c-0.2,0.1-0.3,0.2-0.3,0.4c0-0.2-0.2-0.3-0.4-0.3c-0.2,0-0.4,0.2-0.4,0.4
		c0,0.2,0.2,0.4,0.4,0.4c-0.3,0-0.5,0.2-0.5,0.5c0,0.2,0.1,0.3,0.2,0.4c-0.1,0.1-0.2,0.2-0.3,0.3c-0.1-0.1-0.2-0.2-0.4-0.2
		c-0.3,0-0.5,0.2-0.5,0.5c0,0.2,0.1,0.4,0.3,0.4c-0.2,0.1-0.4,0.3-0.4,0.5c0,0.2,0.1,0.3,0.2,0.4c-0.1,0.1-0.2,0.2-0.2,0.3
		c-0.1-0.1-0.2-0.2-0.4-0.2c-0.2,0-0.4,0.2-0.4,0.4c0,0.2,0.2,0.4,0.4,0.4c-0.2,0-0.4,0.2-0.4,0.5c0,0.2,0.1,0.4,0.3,0.5
		c-0.2,0.1-0.3,0.3-0.3,0.5c0,0.2,0.1,0.4,0.3,0.5c-0.1,0.1-0.2,0.2-0.3,0.3c-0.1-0.2-0.2-0.3-0.4-0.3c-0.2,0-0.4,0.2-0.4,0.4
		c0,0.2,0.2,0.4,0.4,0.4c0.2,0,0.3-0.1,0.4-0.3c0,0.1,0.1,0.2,0.2,0.3c-0.1,0.1-0.1,0.1-0.2,0.2c-0.1-0.1-0.2-0.2-0.4-0.2
		c-0.3,0-0.5,0.2-0.5,0.5c0,0.2,0.1,0.4,0.3,0.5c-0.2,0.1-0.3,0.3-0.3,0.5c0,0.2,0.1,0.4,0.3,0.5c-0.2,0.1-0.3,0.3-0.3,0.5
		c0,0.2,0.1,0.4,0.2,0.5c0,0-0.1,0-0.1,0.1c-0.1,0.1-0.2,0.2-0.2,0.4c0,0.2,0.1,0.4,0.3,0.5c-0.1,0.1-0.2,0.3-0.2,0.5
		c0,0.2,0.1,0.4,0.3,0.5c-0.2,0.1-0.3,0.3-0.3,0.5c0,0.2,0.1,0.4,0.3,0.5c-0.2,0.1-0.3,0.3-0.3,0.5c0,0.3,0.2,0.5,0.5,0.5
		c0.1,0,0.3-0.1,0.4-0.1c0,0,0,0,0-0.1c0,0.1,0.1,0.2,0.2,0.2c-0.1,0.1-0.2,0.2-0.2,0.3c-0.1-0.2-0.2-0.3-0.4-0.3
		c-0.2,0-0.4,0.2-0.4,0.4c0,0.2,0.2,0.4,0.4,0.4c0.2,0,0.3-0.1,0.4-0.3c0,0.1,0.1,0.3,0.3,0.3c-0.2,0.1-0.3,0.3-0.3,0.5
		c0,0.2,0.1,0.4,0.3,0.5c-0.2,0.1-0.3,0.3-0.3,0.5c0,0.3,0.2,0.5,0.4,0.5c-0.2,0-0.4,0.2-0.4,0.4c0,0.2,0.2,0.4,0.4,0.4
		c0.2,0,0.3-0.1,0.4-0.2c0,0.1,0.1,0.2,0.2,0.3c-0.1,0.1-0.2,0.3-0.2,0.4c0,0.2,0.2,0.4,0.4,0.5c-0.2,0.1-0.3,0.2-0.3,0.4
		c0,0.3,0.2,0.5,0.5,0.5c0.2,0,0.3-0.1,0.4-0.2c0.1,0.1,0.1,0.2,0.3,0.3c-0.1,0.1-0.2,0.2-0.2,0.4c0,0.3,0.2,0.5,0.5,0.5
		c-0.2,0-0.4,0.2-0.4,0.4c0,0.2,0.2,0.4,0.4,0.4c0.2,0,0.4-0.1,0.4-0.3c0,0.2,0.2,0.3,0.3,0.4c-0.2,0.1-0.3,0.2-0.3,0.4
		c0,0.3,0.2,0.5,0.5,0.5c0.2,0,0.3-0.1,0.4-0.3c0.1,0.1,0.2,0.3,0.3,0.3c-0.2,0.1-0.3,0.2-0.3,0.4c0,0.3,0.2,0.5,0.5,0.5
		c0.2,0,0.3-0.1,0.4-0.2c0.1,0.1,0.2,0.2,0.3,0.3c-0.1,0.1-0.2,0.2-0.2,0.4c0,0.3,0.2,0.5,0.5,0.5c0.2,0,0.3-0.1,0.4-0.3
		c0.1,0.1,0.2,0.2,0.3,0.3c-0.2,0.1-0.3,0.2-0.3,0.4c0,0.3,0.2,0.5,0.5,0.5c0.2,0,0.4-0.1,0.4-0.3c0.1,0.2,0.2,0.3,0.4,0.4
		c-0.2,0-0.3,0.2-0.3,0.4c0,0.2,0.2,0.4,0.4,0.4c0.2,0,0.4-0.2,0.4-0.4c0,0.3,0.2,0.5,0.5,0.5c0.2,0,0.3-0.1,0.4-0.2
		c0.1,0.1,0.2,0.2,0.3,0.3c-0.1,0.1-0.2,0.2-0.2,0.4c0,0.3,0.2,0.5,0.5,0.5c0.2,0,0.4-0.1,0.4-0.3c0.1,0.2,0.3,0.4,0.5,0.4
		c0.2,0,0.3-0.1,0.4-0.2c0.1,0.1,0.2,0.2,0.3,0.2c-0.1,0.1-0.2,0.2-0.2,0.4c0,0.2,0.2,0.4,0.4,0.4c0.2,0,0.4-0.2,0.4-0.4
		c0,0.2,0.2,0.4,0.5,0.4c0.2,0,0.4-0.1,0.5-0.3c0.1,0.2,0.3,0.3,0.5,0.3c0.2,0,0.4-0.1,0.5-0.3c0.1,0.1,0.2,0.2,0.3,0.3
		c-0.2,0.1-0.3,0.2-0.3,0.4c0,0.2,0.2,0.4,0.4,0.4c0.2,0,0.4-0.2,0.4-0.4c0-0.2-0.1-0.3-0.3-0.4c0.1,0,0.2-0.1,0.3-0.2
		c0.1,0.1,0.1,0.1,0.2,0.2c-0.1,0.1-0.2,0.2-0.2,0.4c0,0.3,0.2,0.5,0.5,0.5c0.2,0,0.4-0.1,0.5-0.3c0.1,0.2,0.3,0.3,0.5,0.3
		c0.2,0,0.4-0.1,0.4-0.3c0.1,0.2,0.3,0.3,0.5,0.3c0.2,0,0.4-0.1,0.5-0.2c0,0,0,0.1,0.1,0.1c0.1,0.1,0.2,0.2,0.4,0.2
		c0.2,0,0.4-0.1,0.5-0.3c0.1,0.1,0.3,0.2,0.5,0.2c0.2,0,0.4-0.1,0.5-0.3c0.1,0.2,0.3,0.3,0.5,0.3c0.2,0,0.4-0.1,0.5-0.3
		c0.1,0.2,0.3,0.3,0.5,0.3c0.3,0,0.5-0.2,0.5-0.5c0-0.1-0.1-0.3-0.1-0.3c0,0,0,0-0.1-0.1c0.1,0,0.2-0.1,0.2-0.2
		c0.1,0.1,0.2,0.2,0.3,0.2c-0.2,0.1-0.3,0.2-0.3,0.4c0,0.2,0.2,0.4,0.4,0.4c0.2,0,0.4-0.2,0.4-0.4c0-0.2-0.1-0.3-0.3-0.4
		c0.1,0,0.3-0.1,0.3-0.3c0.1,0.2,0.3,0.3,0.5,0.3c0.2,0,0.4-0.1,0.5-0.3c0.1,0.2,0.3,0.3,0.5,0.3c0.3,0,0.5-0.2,0.5-0.4
		c0,0.2,0.2,0.4,0.4,0.4c0.2,0,0.4-0.2,0.4-0.4c0-0.2-0.1-0.3-0.2-0.4c0.1,0,0.2-0.1,0.3-0.2c0.1,0.1,0.3,0.2,0.4,0.2
		c0.2,0,0.4-0.2,0.5-0.4c0.1,0.2,0.2,0.3,0.4,0.3c0.3,0,0.5-0.2,0.5-0.5c0-0.2-0.1-0.3-0.2-0.4c0.1,0,0.2-0.1,0.3-0.3
		c0.1,0.1,0.2,0.2,0.4,0.2c0.3,0,0.5-0.2,0.5-0.5c0,0.2,0.2,0.4,0.4,0.4c0.2,0,0.4-0.2,0.4-0.4c0-0.2-0.1-0.4-0.3-0.4
		c0.2,0,0.3-0.2,0.4-0.4c0.1,0.2,0.2,0.3,0.4,0.3c0.3,0,0.5-0.2,0.5-0.5c0-0.2-0.1-0.3-0.3-0.4c0.1-0.1,0.2-0.2,0.3-0.3
		c0.1,0.2,0.2,0.3,0.4,0.3c0.3,0,0.5-0.2,0.5-0.5c0-0.2-0.1-0.3-0.2-0.4c0.1-0.1,0.2-0.2,0.3-0.3c0.1,0.1,0.2,0.2,0.4,0.2
		c0.3,0,0.5-0.2,0.5-0.5c0-0.2-0.1-0.3-0.3-0.4c0.1-0.1,0.2-0.2,0.3-0.3c0.1,0.2,0.2,0.3,0.4,0.3c0.3,0,0.5-0.2,0.5-0.5
		c0-0.2-0.1-0.4-0.3-0.4c0.2-0.1,0.3-0.2,0.4-0.4c0,0.2,0.2,0.3,0.4,0.3c0.2,0,0.4-0.2,0.4-0.4c0-0.2-0.2-0.4-0.4-0.4
		c0.3,0,0.5-0.2,0.5-0.5c0-0.2-0.1-0.3-0.2-0.4c0.1-0.1,0.2-0.2,0.3-0.3c0.1,0.1,0.2,0.2,0.4,0.2c0.3,0,0.5-0.2,0.5-0.5
		c0-0.2-0.1-0.4-0.3-0.4c0.2-0.1,0.4-0.3,0.4-0.5c0-0.2-0.1-0.3-0.2-0.4c0.1-0.1,0.2-0.2,0.2-0.3c0.1,0.1,0.2,0.2,0.4,0.2
		c0.2,0,0.4-0.2,0.4-0.4c0-0.2-0.2-0.4-0.4-0.4c0.2,0,0.4-0.2,0.4-0.5c0-0.2-0.1-0.4-0.3-0.5c0.2-0.1,0.3-0.3,0.3-0.5
		c0-0.2-0.1-0.4-0.3-0.5c0.1-0.1,0.2-0.2,0.3-0.3c0.1,0.2,0.2,0.3,0.4,0.3c0.2,0,0.4-0.2,0.4-0.4c0-0.2-0.2-0.4-0.4-0.4
		c-0.2,0-0.3,0.1-0.4,0.3c0-0.1-0.1-0.2-0.2-0.3c0.1-0.1,0.1-0.1,0.2-0.2c0.1,0.1,0.2,0.2,0.4,0.2c0.3,0,0.5-0.2,0.5-0.5
		c0-0.2-0.1-0.4-0.3-0.5c0.2-0.1,0.3-0.3,0.3-0.5c0-0.2-0.1-0.4-0.3-0.4C84.8,21.2,84.9,21,84.9,20.8 M49.5,17.4
		c0,0.1,0.1,0.1,0.1,0.2c0,0,0,0,0,0c0,0-0.1,0.1-0.1,0.1c-0.1-0.1-0.1-0.1-0.2-0.2C49.3,17.5,49.4,17.4,49.5,17.4 M49.5,19.5
		c0,0-0.1-0.1-0.1-0.1c0,0,0.1-0.1,0.1-0.1c0,0,0,0.1,0.1,0.1c0,0,0,0,0,0C49.5,19.4,49.5,19.5,49.5,19.5 M49.6,20.4
		C49.6,20.4,49.6,20.4,49.6,20.4c0,0-0.1,0.1-0.1,0.1c0,0-0.1-0.1-0.1-0.1c0,0,0.1-0.1,0.1-0.1C49.5,20.3,49.5,20.3,49.6,20.4
		 M49.5,18.6c0-0.1-0.1-0.1-0.2-0.1c0.1,0,0.1-0.1,0.2-0.1c0,0.1,0.1,0.1,0.1,0.1C49.5,18.5,49.5,18.5,49.5,18.6 M49.4,21.2
		C49.5,21.2,49.5,21.2,49.4,21.2c0.1,0,0.1,0.1,0.1,0.1c0,0-0.1,0.1-0.1,0.1c0-0.1-0.1-0.1-0.2-0.1C49.4,21.3,49.4,21.2,49.4,21.2
		 M49.5,22.4C49.4,22.3,49.4,22.3,49.5,22.4c-0.1-0.1-0.1-0.1-0.2-0.2c0.1,0,0.2-0.1,0.2-0.2c0,0.1,0.1,0.1,0.1,0.2
		C49.5,22.2,49.5,22.3,49.5,22.4 M50.4,26.2c-0.1-0.1-0.2-0.2-0.3-0.2c0.1,0,0.2-0.1,0.3-0.2c0,0.1,0.1,0.1,0.2,0.2
		C50.5,26,50.4,26.1,50.4,26.2 M50.3,24C50.3,24.1,50.3,24.1,50.3,24C50.3,24.1,50.3,24.1,50.3,24C50.3,24.1,50.3,24,50.3,24
		 M50.3,15.7C50.3,15.7,50.3,15.7,50.3,15.7C50.3,15.7,50.3,15.7,50.3,15.7C50.3,15.7,50.3,15.7,50.3,15.7 M50.2,14.8
		c0.1,0,0.1-0.1,0.2-0.1c0,0,0,0.1,0.1,0.1c0,0-0.1,0.1-0.1,0.1C50.3,14.8,50.3,14.8,50.2,14.8 M50.3,24.9c0,0,0.1,0.1,0.1,0.1
		c0,0,0,0.1-0.1,0.1c0-0.1-0.1-0.1-0.2-0.1C50.3,25,50.3,24.9,50.3,24.9 M50.4,14c-0.1-0.1-0.2-0.2-0.3-0.2c0.1,0,0.3-0.1,0.3-0.2
		c0,0.1,0.1,0.2,0.2,0.2C50.5,13.8,50.4,13.9,50.4,14 M51.3,28c-0.1-0.1-0.1-0.2-0.2-0.2c0.1,0,0.1-0.1,0.2-0.1
		c0,0.1,0.1,0.1,0.2,0.2C51.4,27.9,51.3,28,51.3,28 M51.3,26.8C51.3,26.8,51.3,26.8,51.3,26.8C51.3,26.9,51.3,26.9,51.3,26.8
		C51.2,26.9,51.2,26.9,51.3,26.8C51.2,26.8,51.3,26.8,51.3,26.8 M51.2,12.9C51.2,12.9,51.2,12.9,51.2,12.9
		C51.3,12.9,51.3,12.9,51.2,12.9C51.3,12.9,51.3,12.9,51.2,12.9C51.3,12.9,51.2,12.9,51.2,12.9 M51.3,12c0,0-0.1-0.1-0.2-0.1
		c0.1,0,0.2-0.1,0.2-0.2c0,0.1,0.1,0.1,0.1,0.1C51.4,11.9,51.3,12,51.3,12 M52.3,30c0-0.2-0.2-0.3-0.4-0.3c0.2,0,0.3-0.1,0.4-0.2
		c0,0.1,0.1,0.2,0.2,0.2C52.4,29.7,52.3,29.9,52.3,30 M52.2,28.7c0,0,0.1,0.1,0.1,0.1c0,0,0,0,0,0.1C52.2,28.8,52.2,28.8,52.2,28.7
		C52.1,28.7,52.2,28.7,52.2,28.7 M52.1,11c0.1,0,0.1-0.1,0.1-0.1c0,0,0,0,0,0.1C52.3,11,52.2,11,52.1,11C52.2,11,52.1,11,52.1,11
		 M52.3,10.3c-0.1-0.1-0.2-0.2-0.4-0.2c0.2,0,0.4-0.1,0.4-0.3c0,0.1,0.1,0.2,0.2,0.3C52.4,10.1,52.3,10.2,52.3,10.3 M53.2,8.9
		c0,0.1,0.1,0.2,0.2,0.2c-0.1,0-0.1,0.1-0.2,0.2c-0.1-0.1-0.1-0.1-0.2-0.2C53.1,9.1,53.1,9,53.2,8.9 M53.2,30.8
		c-0.1-0.1-0.1-0.2-0.2-0.2c0.1,0,0.2-0.1,0.2-0.2c0,0.1,0.1,0.1,0.2,0.2C53.3,30.6,53.2,30.7,53.2,30.8 M54.1,31.7
		c0-0.1-0.1-0.1-0.2-0.2c0.1,0,0.1-0.1,0.2-0.1c0,0,0.1,0.1,0.1,0.1C54.2,31.6,54.1,31.6,54.1,31.7 M54.1,8.3c0,0-0.1-0.1-0.2-0.1
		c0.1,0,0.1-0.1,0.2-0.2c0,0.1,0.1,0.1,0.1,0.2C54.2,8.2,54.1,8.3,54.1,8.3 M55.1,32.7c0-0.1-0.1-0.1-0.2-0.2c0.1,0,0.1-0.1,0.2-0.1
		c0,0,0.1,0.1,0.1,0.1C55.1,32.5,55.1,32.6,55.1,32.7 M55,7.4c0,0-0.1-0.1-0.2-0.1c0.1,0,0.1-0.1,0.2-0.2c0,0.1,0.1,0.1,0.1,0.2
		C55.1,7.3,55.1,7.3,55,7.4 M71.8,3.4c0,0.1,0.1,0.1,0.1,0.2c0,0-0.1,0-0.1,0.1c0,0-0.1-0.1-0.1-0.1C71.8,3.5,71.8,3.4,71.8,3.4
		 M70.9,3.4C70.9,3.4,70.9,3.5,70.9,3.4C70.9,3.5,70.9,3.5,70.9,3.4C70.9,3.4,70.9,3.4,70.9,3.4 M69,2.4c0,0.1,0.1,0.2,0.2,0.2
		c-0.1,0-0.1,0.1-0.2,0.1c0,0,0,0,0,0c0,0-0.1-0.1-0.1-0.1C68.9,2.6,69,2.5,69,2.4 M68.1,2.5c0,0.1,0.1,0.1,0.1,0.2
		c-0.1,0-0.1,0.1-0.1,0.1c0,0-0.1-0.1-0.1-0.1C68,2.6,68.1,2.5,68.1,2.5 M67.2,2.5c0,0,0.1,0.1,0.1,0.1c0,0-0.1,0-0.1,0.1
		c0,0,0,0,0,0c0,0-0.1-0.1-0.1-0.1C67.1,2.6,67.2,2.6,67.2,2.5 M66.2,2.5c0,0,0.1,0.1,0.1,0.1c0,0-0.1,0.1-0.1,0.1c0,0,0,0,0,0
		c0,0-0.1-0.1-0.1-0.1C66.2,2.6,66.2,2.6,66.2,2.5 M65.3,2.5c0,0,0.1,0.1,0.1,0.1c0,0,0,0,0,0c0,0-0.1,0.1-0.1,0.1
		c0,0-0.1-0.1-0.1-0.1C65.2,2.6,65.3,2.5,65.3,2.5 M64.3,2.6c0,0,0.1-0.1,0.1-0.2c0,0.1,0.1,0.2,0.2,0.2c-0.1,0-0.1,0.1-0.2,0.1
		C64.3,2.7,64.3,2.7,64.3,2.6C64.2,2.6,64.3,2.6,64.3,2.6 M62.5,3.4C62.5,3.4,62.5,3.4,62.5,3.4C62.5,3.5,62.5,3.5,62.5,3.4
		C62.5,3.5,62.5,3.4,62.5,3.4 M61.6,3.4c0,0,0,0.1,0.1,0.1c0,0-0.1,0.1-0.1,0.1c0,0-0.1,0-0.1-0.1C61.5,3.5,61.6,3.4,61.6,3.4
		 M60.6,3.2c0,0.1,0.1,0.2,0.2,0.3c-0.1,0-0.1,0.1-0.2,0.2c-0.1-0.1-0.1-0.1-0.2-0.2C60.5,3.5,60.6,3.4,60.6,3.2 M59.7,4.4
		C59.7,4.4,59.7,4.4,59.7,4.4C59.7,4.4,59.7,4.4,59.7,4.4C59.7,4.4,59.7,4.4,59.7,4.4C59.7,4.4,59.7,4.4,59.7,4.4 M58.8,4.3
		c0,0.1,0.1,0.1,0.1,0.2c-0.1,0-0.1,0.1-0.2,0.2c0,0-0.1-0.1-0.1-0.1C58.7,4.4,58.7,4.4,58.8,4.3 M57.8,5.3
		C57.9,5.3,57.9,5.3,57.8,5.3c0,0.1,0,0.1-0.1,0.2c0,0,0,0-0.1,0C57.8,5.4,57.8,5.3,57.8,5.3 M56.9,5c0,0.2,0.1,0.3,0.2,0.4
		c-0.1,0-0.2,0.1-0.2,0.2c-0.1-0.1-0.2-0.2-0.3-0.2C56.8,5.4,56.9,5.2,56.9,5 M56,6.1c0,0.1,0.1,0.2,0.2,0.2c-0.1,0-0.1,0.1-0.2,0.2
		c-0.1-0.1-0.1-0.1-0.2-0.2C55.9,6.3,55.9,6.2,56,6.1 M56,33.6c0-0.1-0.1-0.2-0.2-0.2c0.1,0,0.2-0.1,0.2-0.2c0,0.1,0.1,0.1,0.2,0.2
		C56.1,33.5,56,33.5,56,33.6 M56.9,34.7c0-0.2-0.1-0.4-0.3-0.4c0.1,0,0.2-0.1,0.3-0.2c0.1,0.1,0.1,0.2,0.2,0.2
		C57,34.4,56.9,34.6,56.9,34.7 M57.8,34.5c0,0-0.1-0.1-0.1-0.1c0,0,0,0,0.1,0C57.8,34.3,57.9,34.4,57.8,34.5
		C57.9,34.4,57.9,34.4,57.8,34.5 M58.8,35.5c0-0.1-0.1-0.2-0.2-0.2c0.1,0,0.1-0.1,0.1-0.1c0,0.1,0.1,0.1,0.2,0.2
		C58.8,35.4,58.8,35.4,58.8,35.5 M59.7,35.4C59.7,35.3,59.7,35.3,59.7,35.4C59.7,35.3,59.7,35.3,59.7,35.4
		C59.7,35.3,59.7,35.3,59.7,35.4C59.7,35.3,59.7,35.3,59.7,35.4 M60.6,36.5c0-0.1-0.1-0.3-0.2-0.3c0.1,0,0.2-0.1,0.2-0.2
		c0,0.1,0.1,0.1,0.2,0.2C60.7,36.3,60.6,36.4,60.6,36.5 M61.6,36.4c0-0.1-0.1-0.1-0.1-0.2c0,0,0.1,0,0.1-0.1c0,0,0.1,0.1,0.1,0.1
		C61.6,36.3,61.6,36.3,61.6,36.4 M62.5,36.3C62.5,36.3,62.5,36.3,62.5,36.3C62.5,36.3,62.5,36.3,62.5,36.3
		C62.5,36.3,62.5,36.3,62.5,36.3 M64.4,37.3c0-0.1-0.1-0.1-0.2-0.2c0.1,0,0.1-0.1,0.2-0.1c0,0,0,0,0,0c0,0,0.1,0.1,0.1,0.1
		C64.5,37.2,64.4,37.2,64.4,37.3 M65.3,37.3c0-0.1-0.1-0.1-0.1-0.2c0.1,0,0.1-0.1,0.1-0.1c0,0,0.1,0.1,0.1,0.1
		C65.4,37.1,65.3,37.2,65.3,37.3 M66.2,37.2c0,0-0.1-0.1-0.1-0.1c0,0,0.1,0,0.1-0.1c0,0,0,0,0,0c0,0,0.1,0.1,0.1,0.1
		C66.3,37.1,66.3,37.2,66.2,37.2 M67.2,37.2c0,0-0.1-0.1-0.1-0.1c0,0,0.1-0.1,0.1-0.1c0,0,0,0,0,0c0,0,0.1,0.1,0.1,0.1
		C67.2,37.1,67.2,37.2,67.2,37.2 M68.1,37.3c0,0-0.1-0.1-0.1-0.1c0,0,0,0,0,0c0,0,0.1-0.1,0.1-0.1c0,0,0.1,0.1,0.1,0.1
		C68.2,37.1,68.1,37.2,68.1,37.3 M69.1,37.2c0,0-0.1,0.1-0.1,0.1c0-0.1-0.1-0.2-0.2-0.2c0.1,0,0.1-0.1,0.2-0.1
		C69.1,37,69.1,37.1,69.1,37.2C69.2,37.1,69.2,37.1,69.1,37.2 M70.9,36.3C70.9,36.3,70.9,36.3,70.9,36.3
		C70.9,36.3,70.9,36.3,70.9,36.3C70.9,36.3,70.9,36.3,70.9,36.3 M71.8,36.4c0,0,0-0.1-0.1-0.1c0,0,0.1-0.1,0.1-0.1
		c0,0,0.1,0,0.1,0.1C71.9,36.2,71.9,36.3,71.8,36.4 M72.8,36.5c0-0.1-0.1-0.2-0.2-0.3c0.1,0,0.1-0.1,0.2-0.2
		c0.1,0.1,0.1,0.1,0.2,0.2C72.9,36.3,72.8,36.4,72.8,36.5 M72.8,3.7c0-0.1-0.1-0.1-0.2-0.2c0.1-0.1,0.2-0.2,0.2-0.3
		c0,0.1,0.1,0.3,0.2,0.3C72.9,3.6,72.8,3.6,72.8,3.7 M73.7,35.4C73.7,35.3,73.7,35.3,73.7,35.4C73.7,35.3,73.7,35.3,73.7,35.4
		C73.7,35.3,73.7,35.3,73.7,35.4C73.7,35.3,73.7,35.3,73.7,35.4 M73.7,4.5C73.7,4.4,73.7,4.4,73.7,4.5C73.7,4.4,73.7,4.4,73.7,4.5
		C73.7,4.4,73.7,4.4,73.7,4.5C73.7,4.4,73.7,4.4,73.7,4.5 M74.6,35.5c0-0.1-0.1-0.1-0.1-0.2c0.1,0,0.1-0.1,0.2-0.2
		c0,0,0.1,0.1,0.1,0.1C74.7,35.3,74.7,35.4,74.6,35.5 M74.7,4.6c0-0.1-0.1-0.1-0.2-0.2c0-0.1,0.1-0.1,0.1-0.2c0,0.1,0.1,0.2,0.2,0.2
		C74.8,4.5,74.7,4.5,74.7,4.6 M75.6,34.5C75.6,34.4,75.5,34.4,75.6,34.5c0-0.1,0-0.1,0.1-0.2c0,0,0,0,0.1,0
		C75.6,34.4,75.6,34.4,75.6,34.5 M75.6,5.5c0,0-0.1-0.1-0.1-0.1c0,0,0,0,0-0.1C75.6,5.3,75.6,5.4,75.6,5.5
		C75.7,5.4,75.6,5.4,75.6,5.5 M76.5,34.7c0-0.2-0.1-0.3-0.2-0.4c0.1,0,0.2-0.1,0.2-0.2c0.1,0.1,0.2,0.2,0.3,0.2
		C76.6,34.4,76.5,34.5,76.5,34.7 M76.5,5.6c-0.1-0.1-0.1-0.2-0.2-0.2c0.1-0.1,0.2-0.2,0.2-0.4c0,0.2,0.1,0.4,0.3,0.4
		C76.7,5.4,76.6,5.5,76.5,5.6 M77.4,33.6c0-0.1-0.1-0.2-0.2-0.2c0.1,0,0.1-0.1,0.2-0.2c0.1,0.1,0.1,0.1,0.2,0.2
		C77.5,33.4,77.5,33.5,77.4,33.6 M77.4,6.5c0-0.1-0.1-0.1-0.2-0.2c0.1-0.1,0.1-0.1,0.2-0.2c0,0.1,0.1,0.2,0.2,0.2
		C77.6,6.4,77.5,6.4,77.4,6.5 M78.4,32.7c0-0.1-0.1-0.1-0.1-0.2c0,0,0.1-0.1,0.1-0.1c0,0,0.1,0.1,0.2,0.1
		C78.5,32.5,78.4,32.6,78.4,32.7 M78.4,7.4c0,0-0.1-0.1-0.1-0.1c0,0,0.1-0.1,0.1-0.2c0,0.1,0.1,0.1,0.2,0.2
		C78.5,7.3,78.4,7.3,78.4,7.4 M79.3,8c0,0.1,0.1,0.1,0.2,0.2c-0.1,0-0.1,0.1-0.2,0.1c0,0-0.1-0.1-0.1-0.1C79.2,8.2,79.3,8.1,79.3,8
		 M79.3,31.7c0-0.1-0.1-0.1-0.1-0.2c0,0,0.1-0.1,0.1-0.1c0.1,0,0.1,0.1,0.2,0.1C79.4,31.6,79.4,31.6,79.3,31.7 M80.2,30.8
		c0-0.1-0.1-0.2-0.2-0.2c0.1,0,0.1-0.1,0.2-0.2c0.1,0.1,0.1,0.1,0.2,0.2C80.4,30.6,80.3,30.7,80.2,30.8 M80.2,9.3
		c0-0.1-0.1-0.1-0.2-0.2c0.1-0.1,0.1-0.1,0.2-0.2c0.1,0.1,0.1,0.2,0.2,0.2C80.4,9.2,80.3,9.2,80.2,9.3 M81.2,30
		c0-0.1-0.1-0.2-0.2-0.3c0.1-0.1,0.2-0.1,0.2-0.2c0.1,0.1,0.2,0.2,0.4,0.2C81.4,29.7,81.2,29.8,81.2,30 M81.2,28.7
		C81.2,28.7,81.3,28.7,81.2,28.7c0,0.1,0,0.1-0.1,0.2c0,0,0,0,0-0.1C81.2,28.8,81.2,28.7,81.2,28.7 M81.1,11
		C81.1,10.9,81.1,10.9,81.1,11c0.1,0,0.1,0,0.2,0.1c0,0-0.1,0-0.1,0C81.2,11,81.2,11,81.1,11 M81.2,10.3c0-0.1-0.1-0.2-0.2-0.2
		c0.1-0.1,0.2-0.2,0.2-0.3c0,0.2,0.2,0.3,0.4,0.3C81.4,10.1,81.3,10.2,81.2,10.3 M82.1,28c0-0.1-0.1-0.1-0.1-0.1
		c0.1,0,0.1-0.1,0.2-0.2c0.1,0,0.1,0.1,0.2,0.1C82.2,27.8,82.1,27.9,82.1,28 M82.1,26.8C82.2,26.8,82.2,26.8,82.1,26.8
		C82.2,26.9,82.2,26.9,82.1,26.8C82.1,26.9,82.1,26.9,82.1,26.8C82.1,26.8,82.1,26.8,82.1,26.8 M82.1,12.9
		C82.1,12.9,82.1,12.9,82.1,12.9C82.2,12.9,82.2,12.9,82.1,12.9C82.2,12.9,82.2,12.9,82.1,12.9C82.1,12.9,82.1,12.9,82.1,12.9
		 M82.1,12c0-0.1-0.1-0.1-0.2-0.2c0,0,0.1-0.1,0.1-0.1c0.1,0.1,0.1,0.2,0.2,0.2C82.3,12,82.2,12,82.1,12 M83,26.2
		c0-0.1-0.1-0.2-0.2-0.2c0.1,0,0.1-0.1,0.2-0.2c0.1,0.1,0.2,0.2,0.3,0.2C83.2,26,83.1,26.1,83,26.2 M83.1,15.7
		C83.1,15.7,83.1,15.7,83.1,15.7C83.1,15.7,83.1,15.7,83.1,15.7C83.1,15.7,83.1,15.7,83.1,15.7 M83.2,24.1
		C83.1,24.1,83.1,24.1,83.2,24.1C83.1,24.1,83.1,24.1,83.2,24.1C83.1,24,83.1,24.1,83.2,24.1 M83.1,14.8c0,0-0.1-0.1-0.1-0.1
		c0,0,0-0.1,0.1-0.1c0,0.1,0.1,0.1,0.2,0.1C83.1,14.8,83.1,14.8,83.1,14.8 M83.1,24.9c0,0,0.1,0.1,0.1,0.1c-0.1,0-0.1,0.1-0.2,0.1
		c0,0,0-0.1-0.1-0.1C83,25,83,25,83.1,24.9 M83,14c0-0.1-0.1-0.1-0.2-0.2c0.1-0.1,0.1-0.1,0.2-0.2c0.1,0.1,0.2,0.2,0.3,0.2
		C83.2,13.8,83.1,13.9,83,14 M83.9,17.4C84,17.4,84,17.4,83.9,17.4c0.1,0.1,0.1,0.1,0.2,0.2c-0.1,0-0.2,0.1-0.2,0.2
		c0-0.1-0.1-0.1-0.1-0.2C83.9,17.5,83.9,17.4,83.9,17.4 M83.9,20.3c0,0,0.1,0.1,0.1,0.1c0,0-0.1,0.1-0.1,0.1c0,0,0-0.1-0.1-0.1
		c0,0,0,0,0,0C83.9,20.3,83.9,20.3,83.9,20.3 M83.8,19.4C83.9,19.4,83.9,19.4,83.8,19.4c0,0,0.1-0.1,0.1-0.1c0,0,0.1,0.1,0.1,0.1
		c0,0-0.1,0.1-0.1,0.1C83.9,19.5,83.9,19.4,83.8,19.4 M84,18.6C84,18.6,83.9,18.6,84,18.6c-0.1,0-0.1-0.1-0.1-0.1
		c0,0,0.1-0.1,0.1-0.1c0,0.1,0.1,0.1,0.2,0.1C84.1,18.5,84,18.5,84,18.6 M83.9,21.1c0,0.1,0.1,0.1,0.2,0.1c-0.1,0-0.1,0.1-0.2,0.1
		c0-0.1-0.1-0.1-0.1-0.1C83.9,21.2,83.9,21.2,83.9,21.1 M83.9,22.4c0-0.1-0.1-0.1-0.1-0.2c0,0,0,0,0,0c0,0,0.1-0.1,0.1-0.1
		c0.1,0.1,0.1,0.1,0.2,0.2C84.1,22.2,84,22.3,83.9,22.4"/>
	<path fill="#FFFFFF" d="M62.1,21.5c-0.2,0-0.3-0.1-0.3-0.3c0-0.2,0.1-0.3,0.3-0.3h1.9c0.2,0,0.3,0.1,0.3,0.3c0,0.2-0.1,0.3-0.3,0.3
		h-0.7V25c0,0.2-0.1,0.3-0.3,0.3c-0.2,0-0.3-0.1-0.3-0.3v-3.5H62.1z"/>
	<path fill="#FFFFFF" d="M59.2,16.1v3.7c0,0.2-0.1,0.3-0.3,0.3c-0.2,0-0.3-0.1-0.3-0.3v-3.7c0-0.2,0.1-0.3,0.3-0.3
		C59,15.8,59.2,15.9,59.2,16.1"/>
	<path fill="#FFFFFF" d="M57.3,24.8c0.2,0,0.3,0.1,0.3,0.3c0,0.2-0.1,0.3-0.3,0.3h-1.7c-0.2,0-0.3-0.1-0.3-0.3v-3.7
		c0-0.2,0.1-0.3,0.3-0.3c0.2,0,0.3,0.1,0.3,0.3v3.5H57.3z"/>
	<path fill="#FFFFFF" d="M61.9,15.7c1.1,0,1.7,0.7,1.8,0.9l0.1,0.2c0,0.2-0.1,0.3-0.3,0.3c-0.1,0-0.2,0-0.2-0.1l0,0
		c-0.2-0.3-0.7-0.7-1.4-0.7c-1,0-1.7,0.8-1.7,1.7c0,0.9,0.8,1.7,1.7,1.7c0.8,0,1.4-0.5,1.5-1.1h-2c-0.2,0-0.3-0.1-0.3-0.3
		s0.1-0.3,0.3-0.3h2.4c0.2,0,0.3,0.1,0.3,0.3c-0.2,1.2-1.3,1.9-2.3,1.9c-1.3,0-2.3-1-2.3-2.2C59.6,16.9,60.5,15.7,61.9,15.7"/>
	<path fill="#FFFFFF" d="M55.9,28.6v1.6c0,0.2-0.1,0.3-0.3,0.3c-0.2,0-0.3-0.1-0.3-0.3v-3.7c0-0.2,0.1-0.3,0.3-0.3h1.7
		c0.2,0,0.3,0.1,0.3,0.3c0,0.2-0.1,0.3-0.3,0.3h-1.4v1.3h1.3c0.2,0,0.3,0.1,0.3,0.3s-0.1,0.3-0.3,0.3H55.9z"/>
	<path fill="#FFFFFF" d="M61,28.9c0,0.4-0.1,0.7-0.2,0.9c-0.4,0.8-1.1,0.8-1.3,0.8c-0.2,0-1-0.1-1.3-0.8C58,29.5,58,29.2,58,28.9
		v-2.4c0-0.2,0.1-0.3,0.3-0.3c0.2,0,0.3,0.1,0.3,0.3v2.4c0,0.3,0,0.6,0.1,0.7c0.2,0.4,0.5,0.5,0.8,0.5c0.2,0,0.6-0.1,0.8-0.5
		c0.1-0.2,0.1-0.4,0.1-0.7v-2.4c0-0.2,0.1-0.3,0.3-0.3c0.2,0,0.3,0.1,0.3,0.3V28.9z"/>
	<path fill="#FFFFFF" d="M64.9,30.1c0,0.2-0.2,0.4-0.4,0.4c-0.1,0-0.2-0.1-0.3-0.2c0,0-2-2.9-2.2-3.3v3.2c0,0.2-0.1,0.3-0.3,0.3
		s-0.3-0.1-0.3-0.3v-3.6c0-0.2,0.2-0.5,0.5-0.5c0.2,0,0.3,0.1,0.4,0.2c0,0,1.8,2.7,2.1,3.1v-3c0-0.2,0.1-0.3,0.3-0.3
		c0.2,0,0.3,0.1,0.3,0.3V30.1z"/>
	<path fill="#FFFFFF" d="M65,21.5c-0.2,0-0.3-0.1-0.3-0.3c0-0.2,0.1-0.3,0.3-0.3h1.9c0.2,0,0.3,0.1,0.3,0.3c0,0.2-0.1,0.3-0.3,0.3
		h-0.7V25c0,0.2-0.1,0.3-0.3,0.3c-0.2,0-0.3-0.1-0.3-0.3v-3.5H65z"/>
	<path fill="#FFFFFF" d="M69.6,22.9c0.2,0,0.3,0.1,0.3,0.3c0,0.2-0.1,0.3-0.3,0.3h-1.5v1.4h1.6c0.2,0,0.3,0.1,0.3,0.3
		c0,0.2-0.1,0.3-0.3,0.3h-1.9c-0.2,0-0.3-0.1-0.3-0.3v-3.8c0-0.2,0.1-0.3,0.3-0.3h1.9c0.2,0,0.3,0.1,0.3,0.3c0,0.2-0.1,0.3-0.3,0.3
		h-1.6v1.3H69.6z"/>
	<path fill="#FFFFFF" d="M76.8,21.4c0,0-1.3,2.4-1.3,2.4V25c0,0.2-0.1,0.3-0.3,0.3s-0.3-0.1-0.3-0.3v-1.2c-0.1-0.1-1.3-2.5-1.3-2.5
		l0-0.1c0-0.2,0.1-0.3,0.3-0.3c0.1,0,0.2,0.1,0.3,0.2c0,0,0.9,1.8,1.1,2.1c0.3-0.5,1.1-2.1,1.1-2.1c0.1-0.1,0.2-0.2,0.3-0.2
		c0.2,0,0.3,0.1,0.3,0.3L76.8,21.4z"/>
	<path fill="#FFFFFF" d="M68.2,30.2c-0.3,0.2-0.9,0.4-1.4,0.4h-1c-0.2,0-0.3-0.1-0.3-0.3v-3.7c0-0.2,0.1-0.3,0.3-0.3h1
		c0.5,0,1.1,0.1,1.4,0.4c0.7,0.5,1,1.2,1,1.8C69.2,28.5,69.2,29.6,68.2,30.2 M67.9,27c-0.3-0.2-0.7-0.3-1.3-0.3h-0.5V30h0.5
		c0.4,0,0.9,0,1.4-0.3c0.4-0.4,0.6-0.8,0.6-1.3C68.6,27.8,68.4,27.3,67.9,27"/>
	<path fill="#FFFFFF" d="M72.4,23.7c0.2,0.3,0.8,1.1,0.8,1.1l0.1,0.2c0,0.2-0.1,0.3-0.3,0.3c-0.1,0-0.2,0-0.2-0.1c0,0-1-1.4-1.1-1.4
		h-0.5V25c0,0.2-0.1,0.3-0.3,0.3s-0.3-0.1-0.3-0.3v-3.7c0-0.2,0.1-0.3,0.3-0.3h0.8c0.6,0,0.9,0.1,1.1,0.2c0.5,0.2,0.8,0.7,0.8,1.3
		C73.5,23,73.1,23.6,72.4,23.7 M72.5,21.7c-0.2-0.1-0.4-0.1-0.8-0.1h-0.6v1.7h0.4c0.5,0,0.6,0,0.8-0.1c0.5-0.1,0.6-0.5,0.6-0.8
		C72.9,22.1,72.8,21.8,72.5,21.7"/>
	<path fill="#FFFFFF" d="M59.8,25.4c-1.2,0-2.3-1-2.3-2.2c0-1.4,1.2-2.3,2.3-2.3c1.3,0,2.3,1,2.3,2.2C62,24.4,61,25.4,59.8,25.4
		 M59.8,21.5c-0.9,0-1.7,0.8-1.7,1.7c0,0.9,0.8,1.7,1.7,1.7c0.9,0,1.7-0.8,1.7-1.7C61.5,22.2,60.7,21.5,59.8,21.5"/>
	<path fill="#FFFFFF" d="M56.4,20.1h-0.8c-0.2,0-0.3-0.1-0.3-0.3v-3.7c0-0.2,0.1-0.3,0.3-0.3h0.8c1.4,0,1.4,1,1.4,1.2
		c0,0.4-0.2,0.7-0.4,0.8c0.4,0.2,0.6,0.6,0.6,1c0,0.4-0.2,0.8-0.5,1C57.2,20.1,56.9,20.1,56.4,20.1 M57,17.5
		c0.2-0.1,0.3-0.3,0.3-0.5c0-0.2,0-0.3-0.2-0.4c-0.1-0.2-0.4-0.2-0.8-0.2h-0.5v1.2h0.4C56.6,17.6,56.8,17.6,57,17.5 M57.1,18.2
		c-0.2-0.1-0.3-0.1-0.8-0.1h-0.4v1.4h0.5c0.3,0,0.5,0,0.8-0.1c0.2-0.1,0.4-0.3,0.4-0.6C57.5,18.6,57.3,18.3,57.1,18.2"/>
	<polygon fill="#1B3280" points="1.2,49.3 0,49.3 0,56.7 4.4,56.7 4.4,55.4 1.4,55.4 1.4,49.3 	"/>
	<path fill="#1B3280" d="M4.9,53c0,2.3,1.4,3.8,3.6,3.8c2.2,0,3.6-1.5,3.6-3.8c0-2.3-1.4-3.8-3.6-3.8C6.3,49.1,4.9,50.7,4.9,53
		 M9.8,51c0.5,0.5,0.7,1.2,0.7,2c0,1.2-0.6,2.6-2.1,2.6c-1.6,0-2.1-1.3-2.1-2.6c0-0.8,0.3-1.6,0.7-2c0.4-0.4,0.8-0.5,1.4-0.5
		C9,50.4,9.5,50.6,9.8,51"/>
	<polygon fill="#1B3280" points="17.9,49.3 12.3,49.3 12.3,50.5 14.5,50.5 14.5,56.7 15.9,56.7 15.9,50.5 17.9,50.5 17.9,49.3 	"/>
	<polygon fill="#1B3280" points="24.2,49.3 18.8,49.3 18.8,50.5 20.8,50.5 20.8,56.7 22.2,56.7 22.2,50.5 24.4,50.5 24.4,49.3 	"/>
	<polygon fill="#1B3280" points="29.4,49.3 25.2,49.3 25.2,56.7 29.6,56.7 29.6,55.4 26.6,55.4 26.6,53.5 29.3,53.5 29.3,52.2 
		26.6,52.2 26.6,50.5 29.6,50.5 29.6,49.3 	"/>
	<path fill="#1B3280" d="M31.1,49.3h-0.2v7.4h1.4v-3.1h0.4c0.5,0,0.7,0,1,0.6l1.1,2.6h1.6L35,53.6c-0.1-0.3-0.3-0.5-0.4-0.6
		c0.7-0.3,1.2-0.9,1.2-1.7c0-1.9-1.5-2.1-2.9-2.1H31.1z M33.1,50.5c0.5,0,1.2,0.1,1.2,0.8c0,0.6-0.5,0.9-1.3,0.9h-0.7v-1.7H33.1z"/>
	<path fill="#1B3280" d="M42.9,49.3h-1.3c0,0-1.7,2.6-1.9,3c-0.3-0.4-2-3-2-3H36c0,0,2.9,4.3,2.9,4.4v3.1h1.4v-3.1
		c0.1-0.1,2.9-4.4,2.9-4.4H42.9z"/>
	<polygon fill="#1B3280" points="50.7,49.3 46.7,49.3 46.7,56.7 48.1,56.7 48.1,53.5 50.8,53.5 50.8,52.2 48.1,52.2 48.1,50.5 
		50.9,50.5 50.9,49.3 	"/>
	<path fill="#1B3280" d="M57.9,49.3h-1.2v4.2c0,1.4-0.5,2.1-1.5,2.1c-1.1,0-1.5-0.6-1.5-2.1v-4.2h-1.4v4.3c0,2.1,1.1,3.2,2.9,3.2
		c1.9,0,2.9-1.2,2.9-3.2v-4.3H57.9z"/>
	<path fill="#1B3280" d="M65.4,49.3h-1.2v5.1c-0.5-1-2.8-5.1-2.8-5.1h-1.7v7.4h1.4v-5.3c0.6,1,2.9,5.3,2.9,5.3h1.6v-7.4H65.4z"/>
	<path fill="#1B3280" d="M67.3,49.3h-0.2v7.4h2.3c2.5,0,4-1.4,4-3.8c0-2.2-1.6-3.7-4-3.7H67.3z M69.4,50.5c1.4,0,2.4,1,2.4,2.4
		c0,1.7-0.8,2.5-2.5,2.5h-0.9v-4.9H69.4z"/>
	<polygon fill="#1B3280" points="78.6,49.3 74.4,49.3 74.4,56.7 78.8,56.7 78.8,55.4 75.8,55.4 75.8,53.5 78.5,53.5 78.5,52.2 
		75.8,52.2 75.8,50.5 78.8,50.5 78.8,49.3 	"/>
	<path fill="#1B3280" d="M80.3,49.3h-0.2v7.4h2.3c2.5,0,4-1.4,4-3.8c0-2.2-1.6-3.7-4-3.7H80.3z M82.5,50.5c1.4,0,2.4,1,2.4,2.4
		c0,1.7-0.8,2.5-2.5,2.5h-0.9v-4.9H82.5z"/>
	<path fill="#1B3280" d="M22.1,21c0.8-0.6,1.7-0.8,2.4-0.6c1.1,0.5,1.2,2,0.4,3.7c-0.3,0.7-0.8,1.3-1.4,1.7
		c-0.7,0.5-1.4,0.7-2.1,0.5c-1.5-0.6-1.8-3.4-0.7-6.3c1.1-2.9,3.2-4.8,4.6-4.3c1.3,0.5,1.7,2.9,0.9,5.6c0.1-1-0.2-1.9-1-2.2
		c-1-0.5-2.4,0.3-3.2,1.7C22.2,20.9,22.2,21,22.1,21"/>
	<path fill="#1B3280" d="M31,22.6c0.4-2-0.2-3.6-1.3-3.6c-1.3,0-2.8,1.9-3.5,4.3c-0.7,2.4-0.2,4.3,1.1,4.3c0.8,0,1.7-0.8,2.5-2
		c0.1-0.2,0.2-0.4,0.3-0.6c0.5-1.3,0.2-2.6-0.6-2.8c-0.5-0.1-1.1,0-1.7,0.5c0-0.1,0-0.1,0.1-0.2c0.5-1.1,1.5-1.8,2.3-1.5
		C30.7,21.3,31,21.9,31,22.6"/>
	<path fill="#1B3280" d="M18.3,4.3c-1.4-3.1-2.8-5-4.1-4.1c-1.8,1.2-1.4,4.3,0.8,9.6C15.9,7.9,17,5.9,18.3,4.3"/>
	<path fill="#1B3280" d="M30.6,25.8c-0.1,0.2-0.1,0.3-0.2,0.5c-0.8,1.5-2,2.6-3.2,2.6c-1.3,0-2.2-1.2-2.4-3
		c-0.3,0.4-0.7,0.8-1.2,1.1c-0.9,0.6-1.8,0.8-2.7,0.5c-1.9-0.7-2.5-4.1-1.2-7.5c0.6-1.6,1.5-2.8,2.4-3.7c-0.2-0.9-0.5-1.9-0.8-3
		c-0.1,0.3-0.3,0.5-0.4,0.8c-0.7,1.3-1.5,2.2-2.4,2.7c0.6-1,1.2-2.1,1.7-3.1c2.7-5.2,4.8-9.9,2.8-11c-2.4-1.4-5.7,3.5-8.1,8.8
		c-2.5,5.3-3.9,10.7-3.9,10.7S8.7,17.6,4,17.6c-2.4,0-4,1.2-4,2.2c0,0.7,0.6,1.2,1.4,1.4c1.6,0.4,2.4,1,3.5,2.6
		c1.2,1.6,2.1,5.6,2.3,6.5c1.3,5.2,6,9.1,11.6,9.1c6.6,0,11.9-5.3,11.9-11.9C30.8,27,30.7,26.4,30.6,25.8 M21.2,35
		c-4.3,0-7.9-3.9-9.7-9.6c2.4,4.4,6.5,7.2,11.1,7.2c1.9,0,3.6-0.5,5.3-1.3C26,33.6,23.7,35,21.2,35"/>
	<rect x="38.7" y="0.2" fill="#1B3280" width="0.6" height="39.3"/>
	<path fill="#1B3280" d="M28.4,1.3c0.5,0,0.9,0.1,1.3,0.3c0.4,0.2,0.7,0.5,0.9,0.9C30.9,2.9,31,3.4,31,3.8c0,0.5-0.1,0.9-0.3,1.3
		c-0.2,0.4-0.5,0.7-0.9,0.9c-0.4,0.2-0.8,0.3-1.3,0.3c-0.5,0-0.9-0.1-1.3-0.3c-0.4-0.2-0.7-0.5-0.9-0.9c-0.2-0.4-0.3-0.8-0.3-1.3
		c0-0.5,0.1-0.9,0.3-1.3c0.2-0.4,0.5-0.7,0.9-0.9C27.6,1.4,28,1.3,28.4,1.3 M28.4,1.7c-0.6,0-1.1,0.2-1.5,0.6
		c-0.4,0.4-0.6,0.9-0.6,1.5s0.2,1.1,0.6,1.5c0.4,0.4,0.9,0.6,1.5,0.6c0.6,0,1.1-0.2,1.5-0.6c0.4-0.4,0.6-0.9,0.6-1.5
		c0-0.6-0.2-1.1-0.6-1.5C29.5,1.9,29,1.7,28.4,1.7 M27.9,5.2h-0.4V2.4h0.9c0.3,0,0.6,0,0.7,0.1c0.1,0.1,0.2,0.1,0.3,0.3
		c0.1,0.1,0.1,0.3,0.1,0.4c0,0.2-0.1,0.4-0.2,0.5C29.2,3.9,29,3.9,28.8,4C28.9,4,29,4.1,29,4.2c0.1,0.1,0.2,0.3,0.3,0.5l0.3,0.5
		h-0.5l-0.2-0.4c-0.2-0.3-0.3-0.5-0.4-0.6C28.4,4.1,28.3,4,28.1,4h-0.3V5.2z M27.9,2.8v0.8h0.5c0.2,0,0.4,0,0.5-0.1
		c0.1-0.1,0.2-0.2,0.2-0.3c0-0.2-0.1-0.3-0.2-0.3c-0.1-0.1-0.3-0.1-0.5-0.1H27.9z"/>
	<path fill="#1B3280" d="M22.1,21c0.8-0.6,1.7-0.8,2.4-0.6c1.1,0.5,1.2,2,0.4,3.7c-0.3,0.7-0.8,1.3-1.4,1.7
		c-0.7,0.5-1.4,0.7-2.1,0.5c-1.5-0.6-1.8-3.4-0.7-6.3c1.1-2.9,3.2-4.8,4.6-4.3c1.3,0.5,1.7,2.9,0.9,5.6c0.1-1-0.2-1.9-1-2.2
		c-1-0.5-2.4,0.3-3.2,1.7C22.2,20.9,22.2,21,22.1,21"/>
	<path fill="#1B3280" d="M31,22.6c0.4-2-0.2-3.6-1.3-3.6c-1.3,0-2.8,1.9-3.5,4.3c-0.6,2.4-0.2,4.3,1.1,4.3c0.8,0,1.7-0.8,2.5-2
		c0.1-0.2,0.2-0.4,0.3-0.6c0.5-1.3,0.2-2.6-0.6-2.8c-0.5-0.1-1.1,0-1.7,0.5c0-0.1,0-0.1,0.1-0.2c0.5-1.1,1.5-1.8,2.3-1.5
		C30.7,21.3,31,21.9,31,22.6"/>
	<path fill="#1B3280" d="M18.3,4.3c-1.4-3.1-2.8-5-4.1-4.1c-1.8,1.2-1.4,4.3,0.8,9.6C15.9,7.9,17,5.9,18.3,4.3"/>
	<path fill="#1B3280" d="M30.6,25.8c-0.1,0.2-0.1,0.3-0.2,0.5c-0.8,1.5-2,2.6-3.2,2.6c-1.3,0-2.2-1.2-2.4-3
		c-0.3,0.4-0.7,0.8-1.2,1.1c-0.9,0.6-1.8,0.8-2.7,0.5c-1.9-0.7-2.5-4.1-1.2-7.5c0.6-1.6,1.5-2.8,2.4-3.7c-0.2-0.9-0.5-1.9-0.8-3
		c-0.1,0.3-0.3,0.5-0.4,0.8c-0.7,1.3-1.5,2.2-2.4,2.7c0.6-1,1.2-2.1,1.7-3.1c2.7-5.2,4.8-9.9,2.8-11c-2.4-1.4-5.7,3.5-8.1,8.8
		c-2.5,5.3-3.9,10.7-3.9,10.7S8.7,17.6,4,17.6c-2.4,0-4,1.2-4,2.2c0,0.7,0.6,1.2,1.4,1.4c1.6,0.4,2.4,1,3.5,2.6
		c1.2,1.6,2.1,5.6,2.3,6.5c1.3,5.2,6,9.1,11.6,9.1c6.6,0,11.9-5.3,11.9-11.9C30.8,27,30.7,26.4,30.6,25.8 M21.2,35
		c-4.3,0-7.9-3.9-9.7-9.6c2.4,4.4,6.5,7.3,11.1,7.3c1.9,0,3.6-0.5,5.3-1.3C26,33.6,23.7,35,21.2,35"/>
</g>
</svg>
