<svg id="Layer_1" data-name="Layer 1" xmlns="http://www.w3.org/2000/svg" viewBox="0 0 86.4 56.82"><defs><style>.cls-1{fill:gray;}.cls-2{fill:#fff;}.cls-3{fill:#343434;}</style></defs><title>big-lottery-fund-bw</title><path class="cls-1" d="M52.8,33.9c-.1,0-.1-.1,0,0-.1-.1,0-.1,0-.1s.1,0,0,.1h0" transform="translate(0 0.02)"/><path class="cls-1" d="M53.7,33.2a.43.43,0,0,1-.4-.4c0-.2.2-.3.4-.3a.32.32,0,0,1,.3.3c.1.3-.1.4-.3.4" transform="translate(0 0.02)"/><path class="cls-1" d="M53.7,34a.2.2,0,1,1,.2-.2.22.22,0,0,1-.2.2" transform="translate(0 0.02)"/><path class="cls-1" d="M53.7,34.8h0c-.1-.1,0-.1,0-.1s.1,0,0,.1h0" transform="translate(0 0.02)"/><path class="cls-1" d="M54.6,34.1a.3.3,0,1,1,.3-.3c.1.2-.1.3-.3.3" transform="translate(0 0.02)"/><path class="cls-1" d="M54.6,34.9a.1.1,0,1,1,.1-.1c.1,0,0,.1-.1.1" transform="translate(0 0.02)"/><path class="cls-1" d="M54.6,35.7h0c-.1-.1,0-.1,0-.1s.1,0,0,.1h0" transform="translate(0 0.02)"/><path class="cls-1" d="M55.6,35a.3.3,0,1,1,.3-.3q-.15.3-.3.3" transform="translate(0 0.02)"/><path class="cls-1" d="M55.6,35.8c-.1,0-.1,0-.1-.1s0-.1.1-.1.1,0,.1.1l-.1.1" transform="translate(0 0.02)"/><path class="cls-1" d="M55.6,36.6h0c-.1,0-.1-.1,0,0h0" transform="translate(0 0.02)"/><path class="cls-1" d="M56.5,35.9a.2.2,0,1,1,.2-.2.22.22,0,0,1-.2.2" transform="translate(0 0.02)"/><path class="cls-1" d="M56.5,36.7c-.1,0-.1-.1,0,0a.14.14,0,0,1,0-.2s.1,0,0,.2h0" transform="translate(0 0.02)"/><path class="cls-1" d="M61.7,37.5a.4.4,0,1,0,.4-.4.43.43,0,0,0-.4.4" transform="translate(0 0.02)"/><path class="cls-1" d="M60.8,37.5a.3.3,0,1,0,.3-.3.32.32,0,0,0-.3.3" transform="translate(0 0.02)"/><path class="cls-1" d="M60,37.5a.2.2,0,1,0,.2-.2.22.22,0,0,0-.2.2" transform="translate(0 0.02)"/><path class="cls-1" d="M59.1,37.5a.1.1,0,1,0,.1-.1.1.1,0,0,0-.1.1" transform="translate(0 0.02)"/><path class="cls-1" d="M60.1,38.4c0,.1.1.1,0,0,.1.1.1,0,.1,0h-.1" transform="translate(0 0.02)"/><path class="cls-1" d="M62,39.4h0" transform="translate(0 0.02)"/><path class="cls-1" d="M59.2,38.4c0,.1.1.1,0,0h0" transform="translate(0 0.02)"/><path class="cls-1" d="M57.4,37.5h0c0,.1.1,0,0,0h0" transform="translate(0 0.02)"/><path class="cls-1" d="M61,38.4c0,.1.1.1,0,0,.1.1.2.1.2,0s0-.1-.2,0h0" transform="translate(0 0.02)"/><path class="cls-1" d="M61.9,38.4a.1.1,0,1,0,.1-.1l-.1.1" transform="translate(0 0.02)"/><path class="cls-1" d="M62.8,38.4a.2.2,0,1,0,.2-.2c-.1.1-.2.1-.2.2" transform="translate(0 0.02)"/><path class="cls-1" d="M62.9,39.4h0c.1.1.1,0,.1,0s0-.1-.1,0c.1-.1,0-.1,0,0" transform="translate(0 0.02)"/><path class="cls-1" d="M58.3,37.5h0c.1.1.2.1.2,0s-.1-.1-.2,0h0" transform="translate(0 0.02)"/><path class="cls-1" d="M58.9,36.6a.45.45,0,0,0,.3.4c.2,0,.3-.2.3-.4a.32.32,0,0,0-.3-.3c-.1-.1-.3.1-.3.3" transform="translate(0 0.02)"/><path class="cls-1" d="M58.1,36.6a.2.2,0,1,0,.2-.2c-.1,0-.2,0-.2.2" transform="translate(0 0.02)"/><path class="cls-1" d="M57.3,36.6a.1.1,0,1,0,.1-.1.1.1,0,0,0-.1.1" transform="translate(0 0.02)"/><path class="cls-1" d="M57.1,35.7a.3.3,0,1,0,.3-.3c-.2-.1-.3.1-.3.3" transform="translate(0 0.02)"/><path class="cls-1" d="M52.6,32.9a.2.2,0,1,0,.2-.2.22.22,0,0,0-.2.2" transform="translate(0 0.02)"/><path class="cls-1" d="M51.8,32.9h0c.1.1.1,0,.1,0s0-.1-.1,0h0" transform="translate(0 0.02)"/><path class="cls-1" d="M52.5,31.9a.3.3,0,1,0,.3-.3.32.32,0,0,0-.3.3" transform="translate(0 0.02)"/><path class="cls-1" d="M51.7,31.9a.1.1,0,0,0,.1.1s.2,0,.2-.1a.1.1,0,0,0-.1-.1l-.2.1" transform="translate(0 0.02)"/><path class="cls-1" d="M50.9,31.9h0c.1.1.1,0,.1,0h-.1" transform="translate(0 0.02)"/><path class="cls-1" d="M51.6,31a.3.3,0,1,0,.3-.3.32.32,0,0,0-.3.3" transform="translate(0 0.02)"/><path class="cls-1" d="M50.8,31c0,.1,0,.1.1.1s.1,0,.1-.1,0-.1-.1-.1l-.1.1" transform="translate(0 0.02)"/><path class="cls-1" d="M50,31h0" transform="translate(0 0.02)"/><path class="cls-1" d="M50.7,30.1a.2.2,0,1,0,.2-.2.22.22,0,0,0-.2.2" transform="translate(0 0.02)"/><path class="cls-1" d="M49.9,30.1h0a.14.14,0,0,0,.2,0c0-.1-.1-.1-.2,0h0" transform="translate(0 0.02)"/><path class="cls-1" d="M49.1,24.9a.4.4,0,1,1,.4-.4c-.1.2-.2.4-.4.4" transform="translate(0 0.02)"/><path class="cls-1" d="M49.1,25.8a.3.3,0,1,1,.3-.3.45.45,0,0,1-.3.3" transform="translate(0 0.02)"/><path class="cls-1" d="M49.1,26.6a.2.2,0,1,1,.2-.2.22.22,0,0,1-.2.2" transform="translate(0 0.02)"/><path class="cls-1" d="M49.1,27.4a.1.1,0,1,1,.1-.1.1.1,0,0,1-.1.1" transform="translate(0 0.02)"/><path class="cls-1" d="M48.1,26.4h0c-.1-.1,0-.1,0-.1s.1,0,0,.1h0" transform="translate(0 0.02)"/><path class="cls-1" d="M47.2,24.6h0" transform="translate(0 0.02)"/><path class="cls-1" d="M48.1,27.3h0" transform="translate(0 0.02)"/><path class="cls-1" d="M49.1,29.2h0" transform="translate(0 0.02)"/><path class="cls-1" d="M48.1,25.5h0c-.1-.1-.1-.2,0-.2s.1.1,0,.2h0" transform="translate(0 0.02)"/><path class="cls-1" d="M48.1,24.7a.1.1,0,0,1-.1-.1l.1-.1a.1.1,0,0,1,0,.2" transform="translate(0 0.02)"/><path class="cls-1" d="M48.1,23.8a.2.2,0,1,1,.2-.2.22.22,0,0,1-.2.2" transform="translate(0 0.02)"/><path class="cls-1" d="M47.2,23.6h0c-.1-.1,0-.1,0-.1s.1,0,0,.1h0" transform="translate(0 0.02)"/><path class="cls-1" d="M49.1,28.3h0a.14.14,0,0,1,0-.2.14.14,0,0,1,0,.2h0" transform="translate(0 0.02)"/><path class="cls-1" d="M50,27.6a.3.3,0,1,1,.3-.3.27.27,0,0,1-.3.3" transform="translate(0 0.02)"/><path class="cls-1" d="M50,28.5a.2.2,0,1,1,.2-.2.22.22,0,0,1-.2.2" transform="translate(0 0.02)"/><path class="cls-1" d="M50,29.3a.1.1,0,1,1,.1-.1.1.1,0,0,1-.1.1" transform="translate(0 0.02)"/><path class="cls-1" d="M50.9,29.5a.3.3,0,1,1,.3-.3c.1.1-.1.3-.3.3" transform="translate(0 0.02)"/><path class="cls-1" d="M52.8,5.9h0a.14.14,0,0,0,0,.2c0-.1.1-.1,0-.2h0" transform="translate(0 0.02)"/><path class="cls-1" d="M53.7,6.5a.43.43,0,0,0-.4.4.45.45,0,0,0,.3.4.43.43,0,0,0,.4-.4c.1-.2-.1-.4-.3-.4" transform="translate(0 0.02)"/><path class="cls-1" d="M53.7,5.8a.2.2,0,1,0,.2.2.22.22,0,0,0-.2-.2" transform="translate(0 0.02)"/><path class="cls-1" d="M53.7,4.9h0c-.1.1,0,.1,0,.1s.1.1,0-.1h0" transform="translate(0 0.02)"/><path class="cls-1" d="M54.6,5.6a.27.27,0,0,0-.3.3.3.3,0,1,0,.6,0,.27.27,0,0,0-.3-.3" transform="translate(0 0.02)"/><path class="cls-1" d="M54.6,4.9a.1.1,0,0,0-.1.1l.1.1a.1.1,0,0,0,0-.2" transform="translate(0 0.02)"/><path class="cls-1" d="M54.6,4h0c-.1.1,0,.1,0,.1s.1,0,0-.1h0" transform="translate(0 0.02)"/><path class="cls-1" d="M55.6,4.7a.27.27,0,0,0-.3.3.3.3,0,1,0,.6,0c-.1-.1-.2-.3-.3-.3" transform="translate(0 0.02)"/><path class="cls-1" d="M55.6,4c-.1,0-.1,0-.1.1s0,.1.1.1.1,0,.1-.1a.1.1,0,0,0-.1-.1" transform="translate(0 0.02)"/><path class="cls-1" d="M55.6,3.1h0" transform="translate(0 0.02)"/><path class="cls-1" d="M56.5,3.9a.2.2,0,1,0,.2.2.22.22,0,0,0-.2-.2" transform="translate(0 0.02)"/><path class="cls-1" d="M56.5,3.1h0a.14.14,0,0,0,0,.2c0-.1.1-.1,0-.2h0" transform="translate(0 0.02)"/><path class="cls-1" d="M61.7,2.2a.4.4,0,0,1,.8,0,.4.4,0,0,1-.8,0" transform="translate(0 0.02)"/><path class="cls-1" d="M60.8,2.2a.3.3,0,1,1,.6,0,.3.3,0,1,1-.6,0" transform="translate(0 0.02)"/><path class="cls-1" d="M60,2.2a.2.2,0,0,1,.4,0,.22.22,0,0,1-.2.2c-.1.1-.2,0-.2-.2" transform="translate(0 0.02)"/><path class="cls-1" d="M59.1,2.2a.1.1,0,1,1,.1.1c0,.1-.1,0-.1-.1" transform="translate(0 0.02)"/><path class="cls-1" d="M60.1,1.3h0c.1-.1.1,0,.1,0s0,.1-.1,0h0" transform="translate(0 0.02)"/><path class="cls-1" d="M62,.4h0" transform="translate(0 0.02)"/><path class="cls-1" d="M59.2,1.3h0" transform="translate(0 0.02)"/><path class="cls-1" d="M57.4,2.2h0c.1.1,0,.1,0,0h0" transform="translate(0 0.02)"/><path class="cls-1" d="M61,1.3c0-.1.1-.1,0,0,.1-.1.2-.1.2,0s0,.1-.2,0c.1.1,0,.1,0,0" transform="translate(0 0.02)"/><path class="cls-1" d="M61.9,1.3a.1.1,0,1,1,.1.1.1.1,0,0,1-.1-.1" transform="translate(0 0.02)"/><path class="cls-1" d="M62.8,1.3a.2.2,0,0,1,.4,0,.2.2,0,0,1-.4,0" transform="translate(0 0.02)"/><path class="cls-1" d="M63.7,1.3h0a.3.3,0,0,0,.6,0,.3.3,0,0,0-.6,0" transform="translate(0 0.02)"/><path class="cls-1" d="M64.6,1.1c-.1.1-.1.1-.1.2s0,.1.1.2.1.1.2.1a.27.27,0,0,0,.3-.3.27.27,0,0,0-.3-.3.31.31,0,0,0-.2.1" transform="translate(0 0.02)"/><path class="cls-1" d="M65.6,1.1c-.1.1-.1.1-.1.2s0,.2.1.2.1.1.2.1a.27.27,0,0,0,.3-.3.27.27,0,0,0-.3-.3c-.1,0-.2,0-.2.1" transform="translate(0 0.02)"/><path class="cls-1" d="M62.9.4c0-.1.1-.1,0,0,.1-.1.1,0,.1,0h-.1" transform="translate(0 0.02)"/><path class="cls-1" d="M63.8.4h0c0,.1,0,.1.1.1s.1,0,.1-.1,0-.1-.1-.1a.1.1,0,0,0-.1.1" transform="translate(0 0.02)"/><path class="cls-1" d="M64.8.2a.1.1,0,0,0-.1.1.1.1,0,1,0,.2,0c.1,0,.1,0-.1-.1.1.1.1,0,0,0" transform="translate(0 0.02)"/><path class="cls-1" d="M65.7.4h0a.1.1,0,0,0,.1.1h.1V.3h-.1c-.1-.1-.1,0-.1.1" transform="translate(0 0.02)"/><path class="cls-1" d="M58.3,2.2h0a.14.14,0,0,1,.2,0c-.1.1-.1.1-.2,0h0" transform="translate(0 0.02)"/><path class="cls-1" d="M58.9,3.2a.3.3,0,1,1,.6,0,.32.32,0,0,1-.3.3.45.45,0,0,1-.3-.3" transform="translate(0 0.02)"/><path class="cls-1" d="M58.1,3.2a.2.2,0,1,1,.2.2.22.22,0,0,1-.2-.2" transform="translate(0 0.02)"/><path class="cls-1" d="M57.3,3.2a.1.1,0,0,1,.1-.1l.1.1a.1.1,0,0,1-.1.1l-.1-.1" transform="translate(0 0.02)"/><path class="cls-1" d="M57.1,4.1a.3.3,0,1,1,.3.3.27.27,0,0,1-.3-.3" transform="translate(0 0.02)"/><path class="cls-1" d="M66.5,1.1c-.1.1-.1.1-.1.2a.3.3,0,0,0,.6,0,.27.27,0,0,0-.3-.3c-.1,0-.2,0-.2.1" transform="translate(0 0.02)"/><path class="cls-1" d="M66.7.2h0l-.1.1V.4h.2V.3a.1.1,0,0,0-.1-.1" transform="translate(0 0.02)"/><path class="cls-1" d="M52.6,6.9a.2.2,0,0,1,.4,0c-.1.1-.1.1-.2.1s-.2,0-.2-.1" transform="translate(0 0.02)"/><path class="cls-1" d="M51.8,6.9h0c.1-.1.1,0,.1,0h-.1" transform="translate(0 0.02)"/><path class="cls-1" d="M52.5,7.8a.3.3,0,1,1,.3.3.27.27,0,0,1-.3-.3" transform="translate(0 0.02)"/><path class="cls-1" d="M51.7,7.8a.1.1,0,1,1,.1.1.1.1,0,0,1-.1-.1" transform="translate(0 0.02)"/><path class="cls-1" d="M50.9,7.8h0c.1-.1.1,0,.1,0s0,.1-.1,0h0" transform="translate(0 0.02)"/><path class="cls-1" d="M51.6,8.7a.3.3,0,1,1,.6,0c-.1.2-.2.3-.4.3s-.2-.1-.2-.3" transform="translate(0 0.02)"/><path class="cls-1" d="M50.8,8.7c0-.1,0-.1.1-.1s.1,0,.1.1,0,.1-.1.1a.1.1,0,0,1-.1-.1" transform="translate(0 0.02)"/><path class="cls-1" d="M50,8.7h0" transform="translate(0 0.02)"/><path class="cls-1" d="M50.7,9.7a.2.2,0,1,1,.2.2.22.22,0,0,1-.2-.2" transform="translate(0 0.02)"/><path class="cls-1" d="M49.9,9.7h0a.14.14,0,0,1,.2,0h-.2" transform="translate(0 0.02)"/><path class="cls-1" d="M49.1,14.9a.4.4,0,1,0,.4.4c-.1-.3-.2-.4-.4-.4" transform="translate(0 0.02)"/><path class="cls-1" d="M49.1,14a.3.3,0,1,0,.3.3.32.32,0,0,0-.3-.3" transform="translate(0 0.02)"/><path class="cls-1" d="M49.1,13.1a.2.2,0,1,0,.2.2.22.22,0,0,0-.2-.2" transform="translate(0 0.02)"/><path class="cls-1" d="M49.1,12.3a.1.1,0,1,0,.1.1l-.1-.1" transform="translate(0 0.02)"/><path class="cls-1" d="M48.1,13.3h0a.14.14,0,0,0,0,.2c.1-.1.1-.1,0-.2h0" transform="translate(0 0.02)"/><path class="cls-1" d="M47.2,15.2h0" transform="translate(0 0.02)"/><path class="cls-1" d="M77.8,36.6h0c.1,0,.1-.1,0,0h0" transform="translate(0 0.02)"/><path class="cls-1" d="M71.4,39.4h0" transform="translate(0 0.02)"/><path class="cls-1" d="M83.5,31h0c-.1.1-.1,0,0,0h0" transform="translate(0 0.02)"/><path class="cls-1" d="M86.2,24.6h0" transform="translate(0 0.02)"/><path class="cls-1" d="M77.8,3.1h0" transform="translate(0 0.02)"/><path class="cls-1" d="M71.4.4h0" transform="translate(0 0.02)"/><path class="cls-1" d="M83.5,8.7h0c-.1,0-.1.1,0,0h0" transform="translate(0 0.02)"/><path class="cls-1" d="M86.2,15.2h0" transform="translate(0 0.02)"/><path class="cls-1" d="M48.1,12.4h0" transform="translate(0 0.02)"/><path class="cls-1" d="M49.1,10.5c-.1,0-.1.1,0,0h0" transform="translate(0 0.02)"/><path class="cls-1" d="M48.1,14.2h0c-.1.1-.1.2,0,.2s.1-.1,0-.2h0" transform="translate(0 0.02)"/><path class="cls-1" d="M48.1,15.1a.1.1,0,0,0-.1.1l.1.1a.1.1,0,0,0,0-.2" transform="translate(0 0.02)"/><path class="cls-1" d="M48.1,16a.2.2,0,1,0,.2.2c0-.2-.1-.2-.2-.2" transform="translate(0 0.02)"/><path class="cls-1" d="M47.2,16.1h0c-.1.1,0,.1,0,.1s.1,0,0-.1h0" transform="translate(0 0.02)"/><path class="cls-1" d="M49.1,11.4c-.1,0-.1.1,0,0a.14.14,0,0,0,0,.2s.1,0,0-.2h0" transform="translate(0 0.02)"/><path class="cls-1" d="M50,12.1a.32.32,0,0,0-.3.3.45.45,0,0,0,.3.3.3.3,0,0,0,0-.6" transform="translate(0 0.02)"/><path class="cls-1" d="M50,11.3a.2.2,0,1,0,.2.2.22.22,0,0,0-.2-.2" transform="translate(0 0.02)"/><path class="cls-1" d="M50,10.5a.1.1,0,1,0,.1.1c0-.1,0-.1-.1-.1" transform="translate(0 0.02)"/><path class="cls-1" d="M50.9,10.2a.3.3,0,1,0,.3.3c.1-.1-.1-.3-.3-.3" transform="translate(0 0.02)"/><path class="cls-1" d="M80.6,33.9c.1,0,.1-.1,0,0,.1-.1,0-.1,0-.1v.1h0" transform="translate(0 0.02)"/><path class="cls-1" d="M79.7,33.2c.2,0,.3-.2.3-.4a.32.32,0,0,0-.3-.3.45.45,0,0,0-.4.3c.1.3.2.4.4.4" transform="translate(0 0.02)"/><path class="cls-1" d="M79.7,34a.2.2,0,1,0-.2-.2.22.22,0,0,0,.2.2" transform="translate(0 0.02)"/><path class="cls-1" d="M79.7,34.8h0c.1-.1,0-.1,0-.1s-.1,0,0,.1h0" transform="translate(0 0.02)"/><path class="cls-1" d="M78.8,34.1a.3.3,0,1,0-.3-.3.27.27,0,0,0,.3.3" transform="translate(0 0.02)"/><path class="cls-1" d="M78.8,34.9a.1.1,0,1,0-.1-.1c-.1,0,0,.1.1.1" transform="translate(0 0.02)"/><path class="cls-1" d="M78.8,35.7h0c.1-.1,0-.1,0-.1s-.1,0,0,.1h0" transform="translate(0 0.02)"/><path class="cls-1" d="M77.8,35a.3.3,0,1,0-.3-.3q.15.3.3.3" transform="translate(0 0.02)"/><path class="cls-1" d="M77.8,35.8c.1,0,.1,0,.1-.1s0-.1-.1-.1-.1,0-.1.1l.1.1" transform="translate(0 0.02)"/><path class="cls-1" d="M76.9,35.9a.2.2,0,1,0-.2-.2.22.22,0,0,0,.2.2" transform="translate(0 0.02)"/><path class="cls-1" d="M76.9,36.7c.1,0,.1-.1,0,0a.14.14,0,0,0,0-.2s-.1,0,0,.2h0" transform="translate(0 0.02)"/><path class="cls-1" d="M71.7,37.5a.4.4,0,1,1-.4-.4.37.37,0,0,1,.4.4" transform="translate(0 0.02)"/><path class="cls-1" d="M72.6,37.5a.3.3,0,1,1-.3-.3.32.32,0,0,1,.3.3" transform="translate(0 0.02)"/><path class="cls-1" d="M73.4,37.5a.2.2,0,1,1-.2-.2.22.22,0,0,1,.2.2" transform="translate(0 0.02)"/><path class="cls-1" d="M74.3,37.5a.1.1,0,1,1-.1-.1.1.1,0,0,1,.1.1" transform="translate(0 0.02)"/><path class="cls-1" d="M73.3,38.4c0,.1-.1.1,0,0-.1.1-.1,0-.2,0h.2" transform="translate(0 0.02)"/><path class="cls-1" d="M74.2,38.4h0" transform="translate(0 0.02)"/><path class="cls-1" d="M76,37.5h0c0,.1-.1,0,0,0h0" transform="translate(0 0.02)"/><path class="cls-1" d="M72.4,38.4c0,.1-.1.1,0,0-.1.1-.2.1-.2,0s0-.1.2,0h0" transform="translate(0 0.02)"/><path class="cls-1" d="M71.5,38.4a.1.1,0,1,1-.1-.1l.1.1" transform="translate(0 0.02)"/><path class="cls-1" d="M70.6,38.4a.2.2,0,1,1-.2-.2c.1.1.2.1.2.2" transform="translate(0 0.02)"/><path class="cls-1" d="M70.5,39.4h0c-.1.1-.1,0-.1,0s0-.1.1,0h0" transform="translate(0 0.02)"/><path class="cls-1" d="M75.2,37.5c0,.1-.1.1,0,0-.1.1-.2.1-.2,0s0-.1.2,0h0" transform="translate(0 0.02)"/><path class="cls-1" d="M74.5,36.6a.43.43,0,0,1-.4.4c-.2,0-.3-.2-.3-.4a.32.32,0,0,1,.3-.3c.1,0,.4.1.4.3" transform="translate(0 0.02)"/><path class="cls-1" d="M75.3,36.6a.2.2,0,1,1-.2-.2c.1-.1.2,0,.2.2" transform="translate(0 0.02)"/><path class="cls-1" d="M76.1,36.6a.1.1,0,0,1-.1.1l-.1-.1a.1.1,0,0,1,.1-.1c.1,0,.1,0,.1.1" transform="translate(0 0.02)"/><path class="cls-1" d="M76.3,35.7a.3.3,0,1,1-.3-.3c.2-.1.3.1.3.3" transform="translate(0 0.02)"/><path class="cls-1" d="M80.8,32.9a.2.2,0,1,1-.2-.2.22.22,0,0,1,.2.2" transform="translate(0 0.02)"/><path class="cls-1" d="M81.6,32.9h0c-.1.1-.1,0-.1,0s0-.1.1,0h0" transform="translate(0 0.02)"/><path class="cls-1" d="M81,31.9a.3.3,0,1,1-.3-.3.32.32,0,0,1,.3.3" transform="translate(0 0.02)"/><path class="cls-1" d="M81.7,31.9a.1.1,0,1,1-.1-.1l.1.1" transform="translate(0 0.02)"/><path class="cls-1" d="M82.6,31.9c0,.1-.1.1,0,0-.1.1-.1,0-.1,0h.1" transform="translate(0 0.02)"/><path class="cls-1" d="M81.9,31a.3.3,0,1,1-.3-.3.45.45,0,0,1,.3.3" transform="translate(0 0.02)"/><path class="cls-1" d="M82.6,31c0,.1,0,.1-.1.1s-.1,0-.1-.1,0-.1.1-.1a.1.1,0,0,1,.1.1" transform="translate(0 0.02)"/><path class="cls-1" d="M82.7,30.1a.2.2,0,1,1-.2-.2.22.22,0,0,1,.2.2" transform="translate(0 0.02)"/><path class="cls-1" d="M83.5,30.1h0a.14.14,0,0,1-.2,0c0-.1.1-.1.2,0h0" transform="translate(0 0.02)"/><path class="cls-1" d="M84.3,24.9a.4.4,0,1,0-.4-.4c.1.2.2.4.4.4" transform="translate(0 0.02)"/><path class="cls-1" d="M84.3,25.8a.3.3,0,1,0-.3-.3.45.45,0,0,0,.3.3" transform="translate(0 0.02)"/><path class="cls-1" d="M84.3,26.6a.2.2,0,1,0-.2-.2.22.22,0,0,0,.2.2" transform="translate(0 0.02)"/><path class="cls-1" d="M84.3,27.4a.1.1,0,1,0-.1-.1.1.1,0,0,0,.1.1" transform="translate(0 0.02)"/><path class="cls-1" d="M85.3,26.4h0c.1-.1,0-.1,0-.1s-.1,0,0,.1h0" transform="translate(0 0.02)"/><path class="cls-1" d="M85.3,27.3h0" transform="translate(0 0.02)"/><path class="cls-1" d="M84.3,29.2h0" transform="translate(0 0.02)"/><path class="cls-1" d="M85.3,25.5h0c.1-.1.1-.2,0-.2s-.1.1,0,.2h0" transform="translate(0 0.02)"/><path class="cls-1" d="M85.3,24.7a.1.1,0,1,0-.1-.1.1.1,0,0,0,.1.1" transform="translate(0 0.02)"/><path class="cls-1" d="M85.3,23.8a.2.2,0,1,0-.2-.2.22.22,0,0,0,.2.2" transform="translate(0 0.02)"/><path class="cls-1" d="M86.2,23.6h0c.1-.1,0-.1,0-.1s-.1,0,0,.1h0" transform="translate(0 0.02)"/><path class="cls-1" d="M84.3,28.3h0a.14.14,0,0,0,0-.2v.2h0" transform="translate(0 0.02)"/><path class="cls-1" d="M83.4,27.6a.3.3,0,1,0,0-.6.45.45,0,0,0-.4.3c.1.2.2.3.4.3" transform="translate(0 0.02)"/><path class="cls-1" d="M83.4,28.5a.2.2,0,1,0-.2-.2.22.22,0,0,0,.2.2" transform="translate(0 0.02)"/><path class="cls-1" d="M83.4,29.3a.1.1,0,1,0-.1-.1l.1.1" transform="translate(0 0.02)"/><path class="cls-1" d="M82.5,29.5a.3.3,0,1,0-.3-.3c-.1.1.1.3.3.3" transform="translate(0 0.02)"/><path class="cls-1" d="M80.6,5.9h0a.14.14,0,0,1,0,.2V5.9h0" transform="translate(0 0.02)"/><path class="cls-1" d="M79.7,6.5c.2,0,.3.2.3.4a.45.45,0,0,1-.3.4.43.43,0,0,1-.4-.4c.1-.2.2-.4.4-.4" transform="translate(0 0.02)"/><path class="cls-1" d="M79.7,5.8a.2.2,0,1,1-.2.2.22.22,0,0,1,.2-.2" transform="translate(0 0.02)"/><path class="cls-1" d="M79.7,4.9h0c.1.1,0,.1,0,.1s-.1.1,0-.1h0" transform="translate(0 0.02)"/><path class="cls-1" d="M78.8,5.6a.27.27,0,0,1,.3.3c0,.2-.1.4-.3.4a.27.27,0,0,1-.3-.3c0-.2.1-.4.3-.4" transform="translate(0 0.02)"/><path class="cls-1" d="M78.8,4.9a.1.1,0,0,1,.1.1l-.1.1a.1.1,0,0,1,0-.2" transform="translate(0 0.02)"/><path class="cls-1" d="M78.8,4h0c.1.1,0,.1,0,.1s-.1,0,0-.1h0" transform="translate(0 0.02)"/><path class="cls-1" d="M77.8,4.7a.27.27,0,0,1,.3.3.3.3,0,0,1-.6,0c.1-.1.2-.3.3-.3" transform="translate(0 0.02)"/><path class="cls-1" d="M77.8,4c.1,0,.2,0,.2.1s0,.1-.1.1-.1,0-.1-.1,0-.1,0-.1" transform="translate(0 0.02)"/><path class="cls-1" d="M76.9,3.9a.2.2,0,1,1-.2.2.22.22,0,0,1,.2-.2" transform="translate(0 0.02)"/><path class="cls-1" d="M76.9,3.1h0a.14.14,0,0,1,0,.2c0-.1-.1-.1,0-.2h0" transform="translate(0 0.02)"/><path class="cls-1" d="M71.7,2.2a.43.43,0,0,0-.4-.4c-.2.1-.3.2-.3.4a.43.43,0,0,0,.4.4c.2,0,.3-.2.3-.4" transform="translate(0 0.02)"/><path class="cls-1" d="M72.6,2.2a.3.3,0,0,0-.6,0,.27.27,0,0,0,.3.3.32.32,0,0,0,.3-.3" transform="translate(0 0.02)"/><path class="cls-1" d="M73.4,2.2a.2.2,0,0,0-.4,0,.22.22,0,0,0,.2.2c.1,0,.2,0,.2-.2" transform="translate(0 0.02)"/><path class="cls-1" d="M74.3,2.2a.1.1,0,1,0-.1.1c0,.1.1,0,.1-.1" transform="translate(0 0.02)"/><path class="cls-1" d="M73.3,1.3h0a.14.14,0,0,0-.2,0,.14.14,0,0,0,.2,0h0" transform="translate(0 0.02)"/><path class="cls-1" d="M74.2,1.3h0" transform="translate(0 0.02)"/><path class="cls-1" d="M76,2.2h0c-.1.1,0,.1,0,0h0" transform="translate(0 0.02)"/><path class="cls-1" d="M72.4,1.3c0-.1-.1-.1,0,0-.1-.1-.2-.1-.2,0s0,.1.2,0c-.1.1,0,.1,0,0" transform="translate(0 0.02)"/><path class="cls-1" d="M71.5,1.3a.1.1,0,1,0-.1.1.1.1,0,0,0,.1-.1" transform="translate(0 0.02)"/><path class="cls-1" d="M70.6,1.3a.2.2,0,1,0-.4,0,.2.2,0,1,0,.4,0" transform="translate(0 0.02)"/><path class="cls-1" d="M69.5,1a.32.32,0,0,0-.3.3.3.3,0,0,0,.6,0c0-.1,0-.1-.1-.2s-.1-.1-.2-.1" transform="translate(0 0.02)"/><path class="cls-1" d="M68.3,1.3c0,.1,0,.1.1.2s.1.1.2.1.1,0,.2-.1.1-.1.1-.2a.3.3,0,1,0-.6,0" transform="translate(0 0.02)"/><path class="cls-1" d="M67.3,1.3a.3.3,0,0,0,.6,0,.27.27,0,0,0-.3-.3.32.32,0,0,0-.3.3" transform="translate(0 0.02)"/><path class="cls-1" d="M70.5.4h0c-.1-.1-.1,0-.1,0h.1" transform="translate(0 0.02)"/><path class="cls-1" d="M69.4.4c0,.1,0,.1.1.1s.1,0,.1-.1,0-.1-.1-.1-.1,0-.1.1" transform="translate(0 0.02)"/><path class="cls-1" d="M68.4.4h0l.1.1a.1.1,0,0,0,.1-.1.1.1,0,0,0-.1-.1c0-.1-.1,0-.1.1" transform="translate(0 0.02)"/><path class="cls-1" d="M67.5.4a.1.1,0,1,0,.2,0,.1.1,0,0,0-.1-.1c0-.1-.1,0-.1.1" transform="translate(0 0.02)"/><path class="cls-1" d="M75.2,2.2h0a.14.14,0,0,0-.2,0c0,.1,0,.1.2,0-.1.1,0,.1,0,0" transform="translate(0 0.02)"/><path class="cls-1" d="M48.1,22.9h0a.3.3,0,1,0-.3-.3q.15.3.3.3" transform="translate(0 0.02)"/><path class="cls-1" d="M47.9,21.9a.31.31,0,0,0,.2.1c.1,0,.1,0,.2-.1s.1-.1.1-.2a.3.3,0,1,0-.6,0,.35.35,0,0,0,.1.2" transform="translate(0 0.02)"/><path class="cls-1" d="M47.9,21c.1.1.1.1.2.1s.2,0,.2-.1.1-.1.1-.2a.3.3,0,0,0-.6,0,.35.35,0,0,0,.1.2" transform="translate(0 0.02)"/><path class="cls-1" d="M47.2,22.8h0c.1,0,.1,0,.1-.1s0-.1-.1-.1-.1,0-.1.1a.1.1,0,0,0,.1.1" transform="translate(0 0.02)"/><path class="cls-1" d="M47.1,21.7a.1.1,0,0,0,.1.1l.1-.1a.1.1,0,1,0-.2,0h0" transform="translate(0 0.02)"/><path class="cls-1" d="M47.2,20.9h0a.1.1,0,0,0,.1-.1v-.1h-.2v.1c0,.1,0,.1.1.1" transform="translate(0 0.02)"/><path class="cls-1" d="M47.9,20.1c.1.1.1.1.2.1a.3.3,0,1,0-.3-.3c0,.1,0,.1.1.2" transform="translate(0 0.02)"/><path class="cls-1" d="M47.1,19.9h0l.1.1h.1v-.2h-.1c-.1-.1-.1,0-.1.1" transform="translate(0 0.02)"/><path class="cls-1" d="M47.9,17.1a.3.3,0,1,0,.3-.3c-.1,0-.1,0-.2.1s-.1.1-.1.2" transform="translate(0 0.02)"/><path class="cls-1" d="M48.1,18.3c.1,0,.1,0,.2-.1s.1-.1.1-.2,0-.1-.1-.2-.1-.1-.2-.1h0a.27.27,0,0,0-.3.3.32.32,0,0,0,.3.3" transform="translate(0 0.02)"/><path class="cls-1" d="M48.1,19.3a.3.3,0,1,0-.3-.3.45.45,0,0,0,.3.3" transform="translate(0 0.02)"/><path class="cls-1" d="M47.2,17.2c.1,0,.1,0,.1-.1s0-.1-.1-.1a.1.1,0,0,0,0,.2" transform="translate(0 0.02)"/><path class="cls-1" d="M47.2,18.1h0l.1-.1a.1.1,0,1,0-.2,0c0,.1,0,.1.1.1" transform="translate(0 0.02)"/><path class="cls-1" d="M47.2,19.1a.1.1,0,0,0,.1-.1l-.1-.1a.1.1,0,0,0,0,.2" transform="translate(0 0.02)"/><path class="cls-1" d="M69.8,38.4h0a.3.3,0,1,0-.3.3.32.32,0,0,0,.3-.3" transform="translate(0 0.02)"/><path class="cls-1" d="M68.8,38.6c.1-.1.1-.1.1-.2s0-.1-.1-.2-.1-.1-.2-.1a.3.3,0,1,0,0,.6.31.31,0,0,0,.2-.1" transform="translate(0 0.02)"/><path class="cls-1" d="M67.9,38.7c.1-.1.1-.1.1-.2s0-.2-.1-.2-.1-.1-.2-.1a.3.3,0,1,0,0,.6.35.35,0,0,1,.2-.1" transform="translate(0 0.02)"/><path class="cls-1" d="M69.6,39.4h0c0-.1,0-.1-.1-.1s-.1,0-.1.1,0,.1.1.1a.1.1,0,0,0,.1-.1" transform="translate(0 0.02)"/><path class="cls-1" d="M68.6,39.5a.1.1,0,1,0-.1-.1c-.1,0,0,0,.1.1h0" transform="translate(0 0.02)"/><path class="cls-1" d="M67.8,39.4h0a.1.1,0,0,0-.1-.1h-.1v.2h.1l.1-.1" transform="translate(0 0.02)"/><path class="cls-1" d="M66.9,38.7c.1-.1.1-.1.1-.2a.3.3,0,1,0-.3.3.35.35,0,0,0,.2-.1" transform="translate(0 0.02)"/><path class="cls-1" d="M66.7,39.5h0l.1-.1v-.1h-.2v.1a.1.1,0,0,0,.1.1" transform="translate(0 0.02)"/><path class="cls-1" d="M63.9,38.7a.3.3,0,1,0-.3-.3c0,.1,0,.1.1.2s.1.1.2.1" transform="translate(0 0.02)"/><path class="cls-1" d="M65.1,38.4c0-.1,0-.1-.1-.2s-.1-.1-.2-.1-.1,0-.2.1-.1.1-.1.2a.3.3,0,1,0,.6,0" transform="translate(0 0.02)"/><path class="cls-1" d="M66.1,38.4a.3.3,0,1,0-.3.3c.2.1.3-.1.3-.3" transform="translate(0 0.02)"/><path class="cls-1" d="M64,39.4c0-.1,0-.1-.1-.1s-.1,0-.1.1,0,.1.1.1a.1.1,0,0,0,.1-.1" transform="translate(0 0.02)"/><path class="cls-1" d="M65,39.4h0l-.1-.1a.1.1,0,1,0,0,.2l.1-.1" transform="translate(0 0.02)"/><path class="cls-1" d="M65.9,39.4a.1.1,0,1,0-.1.1l.1-.1" transform="translate(0 0.02)"/><path class="cls-1" d="M85.3,16.8h0a.3.3,0,1,0,.3.3q-.15-.3-.3-.3" transform="translate(0 0.02)"/><path class="cls-1" d="M85.5,17.8c-.1-.1-.1-.1-.2-.1s-.1,0-.2.1-.1.1-.1.2a.3.3,0,0,0,.6,0c0-.1-.1-.1-.1-.2" transform="translate(0 0.02)"/><path class="cls-1" d="M85.5,18.7c-.1-.1-.1-.1-.2-.1s-.2,0-.2.1a.31.31,0,0,0-.1.2.3.3,0,0,0,.6,0,.31.31,0,0,0-.1-.2" transform="translate(0 0.02)"/><path class="cls-1" d="M86.2,17h0a.1.1,0,0,0-.1.1c0,.1,0,.1.1.1s.1,0,.1-.1,0-.1-.1-.1" transform="translate(0 0.02)"/><path class="cls-1" d="M86.3,18a.1.1,0,1,0-.1.1.1.1,0,0,0,.1-.1h0" transform="translate(0 0.02)"/><path class="cls-1" d="M86.2,18.8h0a.1.1,0,0,0-.1.1V19h.2v-.1a.1.1,0,0,0-.1-.1" transform="translate(0 0.02)"/><path class="cls-1" d="M85.5,19.6c-.1-.1-.1-.1-.2-.1a.3.3,0,1,0,.3.3.31.31,0,0,0-.1-.2" transform="translate(0 0.02)"/><path class="cls-1" d="M86.3,19.9h0l-.1-.1h-.1V20h.1a.1.1,0,0,0,.1-.1" transform="translate(0 0.02)"/><path class="cls-1" d="M85.5,22.7a.3.3,0,1,0-.3.3c.1,0,.1,0,.2-.1a.31.31,0,0,0,.1-.2" transform="translate(0 0.02)"/><path class="cls-1" d="M85.3,21.4c-.1,0-.1,0-.2.1a.31.31,0,0,0-.1.2c0,.1,0,.1.1.2s.1.1.2.1a.27.27,0,0,0,.3-.3.45.45,0,0,0-.3-.3" transform="translate(0 0.02)"/><path class="cls-1" d="M85.3,20.5a.3.3,0,1,0,.3.3.27.27,0,0,0-.3-.3" transform="translate(0 0.02)"/><path class="cls-1" d="M86.2,22.5a.1.1,0,0,0-.1.1c0,.1,0,.1.1.1s.1,0,.1-.1a.1.1,0,0,0-.1-.1" transform="translate(0 0.02)"/><path class="cls-1" d="M86.2,21.6h0l-.1.1a.1.1,0,1,0,.1-.1" transform="translate(0 0.02)"/><path class="cls-1" d="M86.2,20.7a.1.1,0,0,0-.1.1l.1.1a.1.1,0,0,0,0-.2" transform="translate(0 0.02)"/><path class="cls-1" d="M74.5,3.2c0-.2-.2-.3-.4-.3a.27.27,0,0,0-.3.3.32.32,0,0,0,.3.3c.1,0,.4-.2.4-.3" transform="translate(0 0.02)"/><path class="cls-1" d="M75.3,3.2a.2.2,0,1,0-.2.2.22.22,0,0,0,.2-.2" transform="translate(0 0.02)"/><path class="cls-1" d="M76.1,3.2c0-.1,0-.2-.1-.2a.1.1,0,0,0,0,.2c.1.1.1,0,.1,0" transform="translate(0 0.02)"/><path class="cls-1" d="M76.3,4.1a.3.3,0,1,0-.3.3.27.27,0,0,0,.3-.3" transform="translate(0 0.02)"/><path class="cls-1" d="M80.8,6.9a.2.2,0,1,0-.4,0c.1.1.1.1.2.1s.2,0,.2-.1" transform="translate(0 0.02)"/><path class="cls-1" d="M81.6,6.9h0c-.1-.1-.1,0-.1,0h.1" transform="translate(0 0.02)"/><path class="cls-1" d="M81,7.8a.3.3,0,1,0-.3.3.27.27,0,0,0,.3-.3" transform="translate(0 0.02)"/><path class="cls-1" d="M81.7,7.8a.1.1,0,1,0-.1.1.1.1,0,0,0,.1-.1" transform="translate(0 0.02)"/><path class="cls-1" d="M82.6,7.8h0c-.1-.1-.1,0-.1,0s0,.1.1,0h0" transform="translate(0 0.02)"/><path class="cls-1" d="M81.9,8.7a.3.3,0,1,0-.3.3.32.32,0,0,0,.3-.3" transform="translate(0 0.02)"/><path class="cls-1" d="M82.6,8.7c0-.1,0-.1-.1-.1s-.1,0-.1.1,0,.1.1.1.1,0,.1-.1" transform="translate(0 0.02)"/><path class="cls-1" d="M82.7,9.7a.2.2,0,1,0-.2.2.22.22,0,0,0,.2-.2" transform="translate(0 0.02)"/><path class="cls-1" d="M83.5,9.7h0a.14.14,0,0,0-.2,0h.2" transform="translate(0 0.02)"/><path class="cls-1" d="M84.3,14.9a.4.4,0,1,1-.4.4c.1-.3.2-.4.4-.4" transform="translate(0 0.02)"/><path class="cls-1" d="M84.3,14a.3.3,0,1,1-.3.3.32.32,0,0,1,.3-.3" transform="translate(0 0.02)"/><path class="cls-1" d="M84.3,13.1a.2.2,0,1,1-.2.2.22.22,0,0,1,.2-.2" transform="translate(0 0.02)"/><path class="cls-1" d="M84.3,12.3a.1.1,0,1,1-.1.1l.1-.1" transform="translate(0 0.02)"/><path class="cls-1" d="M85.3,13.3h0a.14.14,0,0,1,0,.2c-.1-.1-.1-.1,0-.2h0" transform="translate(0 0.02)"/><path class="cls-1" d="M85.3,12.4h0c0,.1-.1.1,0,0h0" transform="translate(0 0.02)"/><path class="cls-1" d="M84.3,10.5c.1,0,.1.1,0,0h0" transform="translate(0 0.02)"/><path class="cls-1" d="M85.3,14.2h0c.1.1.1.2,0,.2s-.1-.1,0-.2h0" transform="translate(0 0.02)"/><path class="cls-1" d="M85.3,15.1a.1.1,0,0,1,.1.1l-.1.1a.1.1,0,0,1,0-.2" transform="translate(0 0.02)"/><path class="cls-1" d="M85.3,16a.2.2,0,1,1-.2.2c0-.2.1-.2.2-.2" transform="translate(0 0.02)"/><path class="cls-1" d="M86.2,16.1h0c.1.1,0,.1,0,.1s-.1,0,0-.1h0" transform="translate(0 0.02)"/><path class="cls-1" d="M84.3,11.4c.1,0,.1.1,0,0a.14.14,0,0,1,0,.2v-.2h0" transform="translate(0 0.02)"/><path class="cls-1" d="M83.4,12.1a.32.32,0,0,1,.3.3.35.35,0,0,1-.7,0,.45.45,0,0,1,.4-.3" transform="translate(0 0.02)"/><path class="cls-1" d="M83.4,11.3a.2.2,0,1,1-.2.2.22.22,0,0,1,.2-.2" transform="translate(0 0.02)"/><path class="cls-1" d="M83.4,10.5a.1.1,0,1,1-.1.1.1.1,0,0,1,.1-.1" transform="translate(0 0.02)"/><path class="cls-1" d="M82.5,10.2a.3.3,0,1,1-.3.3c-.1-.1.1-.3.3-.3" transform="translate(0 0.02)"/><path class="cls-1" d="M84.9,20.8a.76.76,0,0,0-.2-.5.1.1,0,0,0,.1-.1.52.52,0,0,0,.2-.4.55.55,0,0,0-.3-.5.76.76,0,0,0,.2-.5.55.55,0,0,0-.3-.5.57.57,0,0,0,0-1,.55.55,0,0,0,.3-.5.47.47,0,0,0-.5-.5,1,1,0,0,0-.3.1v.1a.22.22,0,0,0-.2-.2c.1-.1.2-.2.2-.3.1.2.2.3.4.3a.4.4,0,1,0,0-.8c-.2,0-.3.1-.4.3a.32.32,0,0,0-.3-.3.57.57,0,0,0,0-1,.55.55,0,0,0,.3-.5.46.46,0,0,0-.4-.5.4.4,0,1,0,0-.8.52.52,0,0,0-.4.2c0-.1-.1-.2-.2-.3a.76.76,0,0,0,.2-.4.51.51,0,0,0-.4-.5c.2-.1.3-.2.3-.4a.47.47,0,0,0-.5-.5.52.52,0,0,0-.4.2q0-.15-.3-.3a.52.52,0,0,0,.2-.4.47.47,0,0,0-.5-.5.4.4,0,1,0,0-.8c-.2,0-.4.1-.4.3,0-.2-.2-.3-.4-.4.2-.1.3-.2.3-.4a.47.47,0,0,0-.5-.5c-.2,0-.3.1-.4.3-.1-.1-.2-.3-.3-.3.2-.1.3-.2.3-.4a.47.47,0,0,0-.5-.5.52.52,0,0,0-.4.2L79.1,7a.52.52,0,0,0,.2-.4.47.47,0,0,0-.5-.5c-.2,0-.3.1-.4.3l-.3-.3c.2-.1.3-.2.3-.4a.47.47,0,0,0-.5-.5c-.2,0-.4.1-.4.3a.78.78,0,0,0-.4-.4c.2,0,.3-.2.3-.4a.4.4,0,0,0-.8,0,.47.47,0,0,0-.5-.5.52.52,0,0,0-.4.2l-.3-.3a.52.52,0,0,0,.2-.4.47.47,0,0,0-.5-.5c-.2,0-.4.1-.4.3a.66.66,0,0,0-.5-.4.52.52,0,0,0-.4.2c-.1-.1-.2-.2-.3-.2a.52.52,0,0,0,.2-.4.4.4,0,0,0-.8,0,.46.46,0,0,0-.5-.4.55.55,0,0,0-.5.3.57.57,0,0,0-1,0l-.3-.3c.2-.1.3-.2.3-.4a.43.43,0,0,0-.4-.4c-.3.3-.5.5-.5.7s.1.3.3.4c-.1,0-.2.1-.3.2l-.2-.2a.52.52,0,0,0,.2-.4.47.47,0,0,0-.5-.5A.55.55,0,0,0,69,2a.55.55,0,0,0-.5-.3c-.2,0-.4.1-.4.3a.55.55,0,0,0-.5-.3.76.76,0,0,0-.5.2.1.1,0,0,0-.1-.1.52.52,0,0,0-.4-.2.55.55,0,0,0-.5.3.76.76,0,0,0-.5-.2.55.55,0,0,0-.5.3.54.54,0,0,0-.4-.3.55.55,0,0,0-.5.3.55.55,0,0,0-.5-.3.47.47,0,0,0-.5.5c0,.1.1.3.1.4h.1a.22.22,0,0,0-.2.2c-.1-.1-.2-.2-.3-.2.2-.1.3-.2.3-.4a.4.4,0,0,0-.8,0c0,.2.1.3.3.4a.32.32,0,0,0-.3.3.57.57,0,0,0-1,0,.55.55,0,0,0-.5-.3.46.46,0,0,0-.5.4.4.4,0,0,0-.8,0,.52.52,0,0,0,.2.4c-.1,0-.2.1-.3.2a.76.76,0,0,0-.4-.2.66.66,0,0,0-.5.4c-.1-.2-.2-.3-.4-.3a.47.47,0,0,0-.5.5.52.52,0,0,0,.2.4c-.1.1-.2.1-.3.3a.52.52,0,0,0-.4-.2.47.47,0,0,0-.5.5.4.4,0,0,0-.8,0c0,.2.1.4.3.4-.2,0-.3.2-.4.4-.1-.2-.2-.3-.4-.3a.47.47,0,0,0-.5.5c0,.2.1.3.3.4-.1.1-.3.2-.3.3-.1-.2-.2-.3-.4-.3a.47.47,0,0,0-.5.5.52.52,0,0,0,.2.4l-.3.3a.52.52,0,0,0-.4-.2.47.47,0,0,0-.5.5c0,.2.1.3.3.4l-.3.3c-.1-.2-.2-.3-.4-.3a.47.47,0,0,0-.5.5c0,.2.1.4.3.4-.2.1-.3.2-.3.4,0-.2-.2-.3-.4-.3a.4.4,0,1,0,0,.8.47.47,0,0,0-.5.5.52.52,0,0,0,.2.4l-.3.3a.52.52,0,0,0-.4-.2.47.47,0,0,0-.5.5c0,.2.1.4.3.4a.66.66,0,0,0-.4.5.52.52,0,0,0,.2.4c-.1.1-.2.2-.2.3a.52.52,0,0,0-.4-.2.4.4,0,1,0,0,.8.46.46,0,0,0-.4.5.55.55,0,0,0,.3.5.57.57,0,0,0,0,1l-.3.3c-.1-.2-.2-.3-.4-.3a.4.4,0,1,0,0,.8c.2,0,.3-.1.4-.3,0,.1.1.2.2.3l-.2.2a.52.52,0,0,0-.4-.2.47.47,0,0,0-.5.5.55.55,0,0,0,.3.5.57.57,0,0,0,0,1,.55.55,0,0,0-.3.5.76.76,0,0,0,.2.5.1.1,0,0,0-.1.1.52.52,0,0,0-.2.4.55.55,0,0,0,.3.5.76.76,0,0,0-.2.5.55.55,0,0,0,.3.5.57.57,0,0,0,0,1,.55.55,0,0,0-.3.5.47.47,0,0,0,.5.5c.1,0,.3-.1.4-.1v-.1a.22.22,0,0,0,.2.2c-.1.1-.2.2-.2.3-.1-.2-.2-.3-.4-.3a.4.4,0,1,0,0,.8c.2,0,.3-.1.4-.3a.32.32,0,0,0,.3.3.57.57,0,0,0,0,1,.55.55,0,0,0-.3.5.46.46,0,0,0,.4.5.4.4,0,1,0,0,.8.52.52,0,0,0,.4-.2c0,.1.1.2.2.3a.76.76,0,0,0-.2.4.66.66,0,0,0,.4.5c-.2.1-.3.2-.3.4a.47.47,0,0,0,.5.5.52.52,0,0,0,.4-.2c.1.1.1.2.3.3a.52.52,0,0,0-.2.4.47.47,0,0,0,.5.5.4.4,0,1,0,0,.8c.2,0,.4-.1.4-.3,0,.2.2.3.3.4-.2.1-.3.2-.3.4a.47.47,0,0,0,.5.5c.2,0,.3-.1.4-.3.1.1.2.3.3.3-.2.1-.3.2-.3.4a.47.47,0,0,0,.5.5.52.52,0,0,0,.4-.2l.3.3a.52.52,0,0,0-.2.4.47.47,0,0,0,.5.5c.2,0,.3-.1.4-.3l.3.3c-.2.1-.3.2-.3.4a.47.47,0,0,0,.5.5c.2,0,.4-.1.4-.3a.78.78,0,0,0,.4.4c-.2,0-.3.2-.3.4a.4.4,0,0,0,.8,0,.47.47,0,0,0,.5.5.52.52,0,0,0,.4-.2l.3.3a.52.52,0,0,0-.2.4.47.47,0,0,0,.5.5c.2,0,.4-.1.4-.3a.66.66,0,0,0,.5.4.52.52,0,0,0,.4-.2c.1.1.2.2.3.2a.52.52,0,0,0-.2.4.4.4,0,1,0,.8,0,.46.46,0,0,0,.5.4.55.55,0,0,0,.5-.3.57.57,0,0,0,1,0l.3.3c-.2.1-.3.2-.3.4a.4.4,0,1,0,.8,0c0-.2-.1-.3-.3-.4.1,0,.2-.1.3-.2l.2.2a.52.52,0,0,0-.2.4.47.47,0,0,0,.5.5.55.55,0,0,0,.5-.3.55.55,0,0,0,.5.3c.2,0,.4-.1.4-.3a.55.55,0,0,0,.5.3.76.76,0,0,0,.5-.2.1.1,0,0,0,.1.1.52.52,0,0,0,.4.2.55.55,0,0,0,.5-.3.76.76,0,0,0,.5.2.55.55,0,0,0,.5-.3.57.57,0,0,0,1,0,.55.55,0,0,0,.5.3.47.47,0,0,0,.5-.5,1,1,0,0,0-.1-.3l-.1-.1a.22.22,0,0,0,.2-.2c.1.1.2.2.3.2-.2.1-.3.2-.3.4a.4.4,0,0,0,.8,0c0-.2-.1-.3-.3-.4a.32.32,0,0,0,.3-.3.57.57,0,0,0,1,0,.55.55,0,0,0,.5.3.46.46,0,0,0,.5-.4.4.4,0,0,0,.8,0,.52.52,0,0,0-.2-.4c.1,0,.2-.1.3-.2a.76.76,0,0,0,.4.2.66.66,0,0,0,.5-.4c.1.2.2.3.4.3a.47.47,0,0,0,.5-.5.52.52,0,0,0-.2-.4q.15,0,.3-.3a.52.52,0,0,0,.4.2.47.47,0,0,0,.5-.5.4.4,0,1,0,.8,0c0-.2-.1-.4-.3-.4.2,0,.3-.2.4-.4.1.2.2.3.4.3a.47.47,0,0,0,.5-.5c0-.2-.1-.3-.3-.4l.3-.3c.1.2.2.3.4.3a.47.47,0,0,0,.5-.5.52.52,0,0,0-.2-.4l.3-.3a.52.52,0,0,0,.4.2.47.47,0,0,0,.5-.5c0-.2-.1-.3-.3-.4l.3-.3c.1.2.2.3.4.3a.47.47,0,0,0,.5-.5c0-.2-.1-.4-.3-.4a.78.78,0,0,0,.4-.4c0,.2.2.3.4.3a.4.4,0,1,0,0-.8.47.47,0,0,0,.5-.5.52.52,0,0,0-.2-.4l.3-.3a.52.52,0,0,0,.4.2.47.47,0,0,0,.5-.5c0-.2-.1-.4-.3-.4a.66.66,0,0,0,.4-.5.52.52,0,0,0-.2-.4c.1-.1.2-.2.2-.3a.52.52,0,0,0,.4.2.4.4,0,1,0,0-.8.46.46,0,0,0,.4-.5.55.55,0,0,0-.3-.5.57.57,0,0,0,0-1l.3-.3c.1.2.2.3.4.3a.4.4,0,1,0,0-.8c-.2,0-.3.1-.4.3,0-.1-.1-.2-.2-.3l.2-.2a.52.52,0,0,0,.4.2.47.47,0,0,0,.5-.5.55.55,0,0,0-.3-.5.55.55,0,0,0,.3-.5c0-.2-.1-.4-.3-.4a8.15,8.15,0,0,0,.2-.9M49.5,17.4c0,.1.1.1.1.2h0l-.1.1-.2-.2a.35.35,0,0,1,.2-.1m0,2.1-.1-.1.1-.1a.1.1,0,0,0,.1.1h0a.1.1,0,0,0-.1.1m.1.9h0l-.1.1-.1-.1.1-.1.1.1m-.1-1.8c0-.1-.1-.1-.2-.1.1,0,.1-.1.2-.1a.1.1,0,0,0,.1.1c-.1,0-.1,0-.1.1m-.1,2.6h0a.1.1,0,0,1,.1.1l-.1.1c0-.1-.1-.1-.2-.1.2,0,.2-.1.2-.1m.1,1.2h0l-.2-.2a.22.22,0,0,0,.2-.2c0,.1.1.1.1.2s-.1.1-.1.2m.9,3.8c-.1-.1-.2-.2-.3-.2.1,0,.2-.1.3-.2,0,.1.1.1.2.2a.22.22,0,0,0-.2.2M50.3,24h0m0-8.3h0m-.1-.9c.1,0,.1-.1.2-.1a.1.1,0,0,0,.1.1l-.1.1c-.1-.1-.1-.1-.2-.1m.1,10.1.1.1a.1.1,0,0,1-.1.1c0-.1-.1-.1-.2-.1.2,0,.2-.1.2-.1M50.4,14c-.1-.1-.2-.2-.3-.2.1,0,.3-.1.3-.2a.22.22,0,0,0,.2.2.22.22,0,0,0-.2.2m.9,14c-.1-.1-.1-.2-.2-.2.1,0,.1-.1.2-.1s.1.1.2.2a.35.35,0,0,0-.2.1m0-1.2h0m-.1-13.9h0m.1-.9a.35.35,0,0,0-.2-.1.22.22,0,0,0,.2-.2.1.1,0,0,0,.1.1.35.35,0,0,1-.1.2m1,18c0-.2-.2-.3-.4-.3a.52.52,0,0,0,.4-.2.22.22,0,0,0,.2.2c-.1,0-.2.2-.2.3m-.1-1.3.1.1v.1c-.1-.1-.1-.1-.1-.2h0M52.1,11a.1.1,0,0,0,.1-.1V11h-.1m.2-.7a.52.52,0,0,0-.4-.2c.2,0,.4-.1.4-.3,0,.1.1.2.2.3a.22.22,0,0,0-.2.2m.9-1.4a.22.22,0,0,0,.2.2c-.1,0-.1.1-.2.2L53,9.1c.1,0,.1-.1.2-.2m0,21.9c-.1-.1-.1-.2-.2-.2a.22.22,0,0,0,.2-.2c0,.1.1.1.2.2a.22.22,0,0,0-.2.2m.9.9c0-.1-.1-.1-.2-.2.1,0,.1-.1.2-.1l.1.1c0,.1-.1.1-.1.2m0-23.4a.35.35,0,0,0-.2-.1c.1,0,.1-.1.2-.2,0,.1.1.1.1.2l-.1.1m1,24.4c0-.1-.1-.1-.2-.2.1,0,.1-.1.2-.1l.1.1c-.1,0-.1.1-.1.2M55,7.4a.35.35,0,0,0-.2-.1c.1,0,.1-.1.2-.2,0,.1.1.1.1.2l-.1.1m16.8-4c0,.1.1.1.1.2a.1.1,0,0,0-.1.1l-.1-.1a.31.31,0,0,0,.1-.2m-.9,0h0M69,2.4a.22.22,0,0,0,.2.2c-.1,0-.1.1-.2.1h0l-.1-.1a.35.35,0,0,0,.1-.2m-.9.1c0,.1.1.1.1.2a.1.1,0,0,0-.1.1L68,2.7a.35.35,0,0,1,.1-.2m-.9,0,.1.1a.1.1,0,0,0-.1.1h0l-.1-.1a.1.1,0,0,0,.1-.1m-1,0,.1.1-.1.1h0l-.1-.1c.1,0,.1,0,.1-.1m-.9,0,.1.1h0l-.1.1-.1-.1.1-.1m-1,.1a.35.35,0,0,0,.1-.2.22.22,0,0,0,.2.2c-.1,0-.1.1-.2.1s-.1,0-.1-.1h0m-1.8.8h0m-.9,0a.1.1,0,0,0,.1.1l-.1.1a.1.1,0,0,1-.1-.1l.1-.1m-1-.2c0,.1.1.2.2.3-.1,0-.1.1-.2.2l-.2-.2c.1,0,.2-.1.2-.3m-.9,1.2h0m-.9-.1c0,.1.1.1.1.2s-.1.1-.2.2l-.1-.1a.77.77,0,0,1,.2-.3m-1,1h0c0,.1,0,.1-.1.2h-.1c.2-.1.2-.2.2-.2M56.9,5a.52.52,0,0,0,.2.4.22.22,0,0,0-.2.2c-.1-.1-.2-.2-.3-.2.2,0,.3-.2.3-.4M56,6.1a.22.22,0,0,0,.2.2c-.1,0-.1.1-.2.2l-.2-.2c.1,0,.1-.1.2-.2m0,27.5a.22.22,0,0,0-.2-.2.22.22,0,0,0,.2-.2c0,.1.1.1.2.2-.1.1-.2.1-.2.2m.9,1.1c0-.2-.1-.4-.3-.4.1,0,.2-.1.3-.2.1.1.1.2.2.2a.76.76,0,0,0-.2.4m.9-.2-.1-.1h.1c0-.1.1,0,0,.1h0m1,1a.22.22,0,0,0-.2-.2.1.1,0,0,0,.1-.1c0,.1.1.1.2.2-.1,0-.1,0-.1.1m.9-.1h0m.9,1.1c0-.1-.1-.3-.2-.3a.22.22,0,0,0,.2-.2c0,.1.1.1.2.2-.1.1-.2.2-.2.3m1-.1c0-.1-.1-.1-.1-.2a.1.1,0,0,0,.1-.1l.1.1c-.1.1-.1.1-.1.2m.9-.1h0m1.9,1c0-.1-.1-.1-.2-.2.1,0,.1-.1.2-.1h0l.1.1c0,.1-.1.1-.1.2m.9,0c0-.1-.1-.1-.1-.2a.1.1,0,0,0,.1-.1l.1.1a.35.35,0,0,0-.1.2m.9-.1-.1-.1a.1.1,0,0,0,.1-.1h0l.1.1a.1.1,0,0,1-.1.1m1,0-.1-.1.1-.1h0l.1.1a.1.1,0,0,0-.1.1m.9.1-.1-.1h0l.1-.1.1.1c0-.1-.1,0-.1.1m1-.1-.1.1a.22.22,0,0,0-.2-.2c.1,0,.1-.1.2-.1s.1.1.1.2h0m1.8-.9h0m.9.1a.1.1,0,0,0-.1-.1l.1-.1a.1.1,0,0,1,.1.1c0-.1,0,0-.1.1m1,.1c0-.1-.1-.2-.2-.3.1,0,.1-.1.2-.2l.2.2c-.1.1-.2.2-.2.3m0-32.8c0-.1-.1-.1-.2-.2.1-.1.2-.2.2-.3,0,.1.1.3.2.3-.1.1-.2.1-.2.2m.9,31.7h0m0-30.9h0m.9,31c0-.1-.1-.1-.1-.2s.1-.1.2-.2l.1.1c-.1.1-.1.2-.2.3m.1-30.9c0-.1-.1-.1-.2-.2s.1-.1.1-.2a.22.22,0,0,0,.2.2c0,.1-.1.1-.1.2m.9,29.9c0-.1-.1-.1,0,0,0-.1,0-.1.1-.2h.1c-.2.1-.2.1-.2.2m0-29-.1-.1V5.3c.1,0,.1.1.1.2.1-.1,0-.1,0,0m.9,29.2a.52.52,0,0,0-.2-.4.22.22,0,0,0,.2-.2c.1.1.2.2.3.2-.2.1-.3.2-.3.4m0-29.1c-.1-.1-.1-.2-.2-.2a.52.52,0,0,0,.2-.4c0,.2.1.4.3.4-.1,0-.2.1-.3.2m.9,28a.22.22,0,0,0-.2-.2c.1,0,.1-.1.2-.2l.2.2c-.1,0-.1.1-.2.2m0-27.1c0-.1-.1-.1-.2-.2l.2-.2a.22.22,0,0,0,.2.2c0,.1-.1.1-.2.2m1,26.2c0-.1-.1-.1-.1-.2l.1-.1a.35.35,0,0,0,.2.1.22.22,0,0,0-.2.2m0-25.3-.1-.1a.35.35,0,0,0,.1-.2c0,.1.1.1.2.2-.1,0-.2,0-.2.1m.9.6c0,.1.1.1.2.2-.1,0-.1.1-.2.1l-.1-.1a.35.35,0,0,0,.1-.2m0,23.7c0-.1-.1-.1-.1-.2l.1-.1c.1,0,.1.1.2.1l-.2.2m.9-.9a.22.22,0,0,0-.2-.2c.1,0,.1-.1.2-.2l.2.2-.2.2m0-21.5c0-.1-.1-.1-.2-.2l.2-.2c.1.1.1.2.2.2s-.1.1-.2.2m1,20.7c0-.1-.1-.2-.2-.3.1-.1.2-.1.2-.2a.52.52,0,0,0,.4.2c-.2,0-.4.1-.4.3m0-1.3h0c0,.1,0,.1-.1.2v-.1a.1.1,0,0,0,.1-.1M81.1,11h0c.1,0,.1,0,.2.1h-.1c0-.1,0-.1-.1-.1m.1-.7a.22.22,0,0,0-.2-.2c.1-.1.2-.2.2-.3,0,.2.2.3.4.3a.52.52,0,0,0-.4.2M82.1,28a.1.1,0,0,0-.1-.1c.1,0,.1-.1.2-.2s.1.1.2.1c-.2,0-.3.1-.3.2m0-1.2h0m0-13.9h0m0-.9c0-.1-.1-.1-.2-.2l.1-.1c.1.1.1.2.2.2s0,.1-.1.1M83,26.2a.22.22,0,0,0-.2-.2c.1,0,.1-.1.2-.2.1.1.2.2.3.2-.1,0-.2.1-.3.2m.1-10.5h0m.1,8.4h0c-.1-.1-.1,0,0,0m-.1-9.3-.1-.1a.1.1,0,0,1,.1-.1c0,.1.1.1.2.1l-.2.1m0,10.1.1.1c-.1,0-.1.1-.2.1a.1.1,0,0,0-.1-.1c.1,0,.1,0,.2-.1M83,14c0-.1-.1-.1-.2-.2l.2-.2c.1.1.2.2.3.2-.1,0-.2.1-.3.2m.9,3.4h0l.2.2a.22.22,0,0,0-.2.2c0-.1-.1-.1-.1-.2a.31.31,0,0,0,.1-.2m0,2.9.1.1-.1.1a.1.1,0,0,0-.1-.1h0l.1-.1m-.1-.9h0l.1-.1.1.1-.1.1a.1.1,0,0,0-.1-.1m.2-.8h0a.1.1,0,0,1-.1-.1l.1-.1c0,.1.1.1.2.1-.1,0-.2,0-.2.1m-.1,2.5c0,.1.1.1.2.1-.1,0-.1.1-.2.1a.1.1,0,0,0-.1-.1c.1,0,.1,0,.1-.1m0,1.3c0-.1-.1-.1-.1-.2h0l.1-.1.2.2c0-.1-.1,0-.2.1" transform="translate(0 0.02)"/><path class="cls-2" d="M62.1,21.5a.3.3,0,0,1,0-.6H64a.3.3,0,1,1,0,.6h-.7V25a.3.3,0,0,1-.6,0V21.5Z" transform="translate(0 0.02)"/><path class="cls-2" d="M59.2,16.1v3.7a.3.3,0,1,1-.6,0V16.1a.27.27,0,0,1,.3-.3.32.32,0,0,1,.3.3" transform="translate(0 0.02)"/><path class="cls-2" d="M57.3,24.8a.3.3,0,0,1,0,.6H55.6a.27.27,0,0,1-.3-.3V21.4a.3.3,0,1,1,.6,0v3.5h1.4Z" transform="translate(0 0.02)"/><path class="cls-2" d="M61.9,15.7a2.1,2.1,0,0,1,1.8.9l.1.2a.27.27,0,0,1-.3.3c-.1,0-.2,0-.2-.1h0a1.72,1.72,0,0,0-1.4-.7A1.69,1.69,0,0,0,60.2,18a1.75,1.75,0,0,0,1.7,1.7,1.45,1.45,0,0,0,1.5-1.1h-2a.3.3,0,1,1,0-.6h2.4a.27.27,0,0,1,.3.3,2.33,2.33,0,0,1-2.3,1.9A2.24,2.24,0,0,1,59.5,18a2.49,2.49,0,0,1,2.4-2.3" transform="translate(0 0.02)"/><path class="cls-2" d="M55.9,28.6v1.6a.3.3,0,0,1-.6,0V26.5a.27.27,0,0,1,.3-.3h1.7a.3.3,0,0,1,0,.6H55.9v1.3h1.3a.3.3,0,1,1,0,.6H55.9Z" transform="translate(0 0.02)"/><path class="cls-2" d="M61,28.9a2,2,0,0,1-.2.9,1.36,1.36,0,0,1-1.3.8,1.47,1.47,0,0,1-1.3-.8,1.49,1.49,0,0,1-.2-.9V26.5a.3.3,0,1,1,.6,0v2.4c0,.3,0,.6.1.7a.82.82,0,0,0,.8.5.92.92,0,0,0,.8-.5,1.48,1.48,0,0,0,.1-.7V26.5a.3.3,0,1,1,.6,0Z" transform="translate(0 0.02)"/><path class="cls-2" d="M64.9,30.1a.43.43,0,0,1-.4.4c-.1,0-.2-.1-.3-.2s-2-2.9-2.2-3.3v3.2a.3.3,0,0,1-.6,0V26.6a.54.54,0,0,1,.5-.5.52.52,0,0,1,.4.2s1.8,2.7,2.1,3.1v-3a.3.3,0,0,1,.6,0v3.7Z" transform="translate(0 0.02)"/><path class="cls-2" d="M65,21.5a.3.3,0,1,1,0-.6h1.9a.3.3,0,1,1,0,.6h-.7V25a.3.3,0,0,1-.6,0V21.5Z" transform="translate(0 0.02)"/><path class="cls-2" d="M69.6,22.9a.3.3,0,1,1,0,.6H68.1v1.4h1.6a.3.3,0,1,1,0,.6H67.8a.27.27,0,0,1-.3-.3V21.4a.27.27,0,0,1,.3-.3h1.9a.3.3,0,1,1,0,.6H68.1V23h1.5Z" transform="translate(0 0.02)"/><path class="cls-2" d="M76.8,21.4l-1.3,2.4V25a.3.3,0,0,1-.6,0V23.8c-.1-.1-1.3-2.5-1.3-2.5v-.1a.27.27,0,0,1,.3-.3c.1,0,.2.1.3.2s.9,1.8,1.1,2.1c.3-.5,1.1-2.1,1.1-2.1s.2-.2.3-.2a.27.27,0,0,1,.3.3Z" transform="translate(0 0.02)"/><path class="cls-2" d="M68.2,30.2a2.89,2.89,0,0,1-1.4.4h-1a.27.27,0,0,1-.3-.3V26.6a.27.27,0,0,1,.3-.3h1a2.12,2.12,0,0,1,1.4.4,2.25,2.25,0,0,1,1,1.8,2.11,2.11,0,0,1-1,1.7M67.9,27a2.27,2.27,0,0,0-1.3-.3h-.5V30h.5a2.54,2.54,0,0,0,1.4-.3,1.76,1.76,0,0,0,.6-1.3,1.51,1.51,0,0,0-.7-1.4" transform="translate(0 0.02)"/><path class="cls-2" d="M72.4,23.7c.2.3.8,1.1.8,1.1l.1.2a.27.27,0,0,1-.3.3c-.1,0-.2,0-.2-.1a13.44,13.44,0,0,0-1.1-1.4h-.5V25a.3.3,0,0,1-.6,0V21.3a.27.27,0,0,1,.3-.3h.8a2.33,2.33,0,0,1,1.1.2,1.34,1.34,0,0,1,.8,1.3,1.49,1.49,0,0,1-1.2,1.2m.1-2a1.72,1.72,0,0,0-.8-.1h-.6v1.7h.4c.5,0,.6,0,.8-.1a.73.73,0,0,0,.6-.8.67.67,0,0,0-.4-.7" transform="translate(0 0.02)"/><path class="cls-2" d="M59.8,25.4a2.25,2.25,0,1,1,0-4.5,2.24,2.24,0,0,1,2.3,2.2,2.39,2.39,0,0,1-2.3,2.3m0-3.9a1.7,1.7,0,1,0,1.7,1.7,1.69,1.69,0,0,0-1.7-1.7" transform="translate(0 0.02)"/><path class="cls-2" d="M56.4,20.1h-.8a.27.27,0,0,1-.3-.3V16.1a.27.27,0,0,1,.3-.3h.8c1.4,0,1.4,1,1.4,1.2a.89.89,0,0,1-.4.8,1.1,1.1,0,0,1,.6,1,1.23,1.23,0,0,1-.5,1c-.3.3-.6.3-1.1.3m.6-2.6a.55.55,0,0,0,.3-.5c0-.2,0-.3-.2-.4s-.4-.2-.8-.2h-.5v1.2h.4a1.72,1.72,0,0,0,.8-.1m.1.7c-.2-.1-.3-.1-.8-.1h-.4v1.4h.5a2.2,2.2,0,0,0,.8-.1.68.68,0,0,0,.4-.6,1.47,1.47,0,0,0-.5-.6" transform="translate(0 0.02)"/><polygon class="cls-3" points="1.2 49.32 0 49.32 0 56.72 4.4 56.72 4.4 55.42 1.4 55.42 1.4 49.32 1.2 49.32"/><path class="cls-3" d="M4.9,53a3.47,3.47,0,0,0,3.6,3.8A3.47,3.47,0,0,0,12.1,53a3.47,3.47,0,0,0-3.6-3.8c-2.2-.1-3.6,1.5-3.6,3.8m4.9-2a2.72,2.72,0,0,1,.7,2c0,1.2-.6,2.6-2.1,2.6S6.3,54.3,6.3,53A3,3,0,0,1,7,51a1.74,1.74,0,0,1,1.4-.5,1.39,1.39,0,0,1,1.4.5" transform="translate(0 0.02)"/><polygon class="cls-3" points="17.9 49.32 12.3 49.32 12.3 50.52 14.5 50.52 14.5 56.72 15.9 56.72 15.9 50.52 17.9 50.52 17.9 49.32"/><polygon class="cls-3" points="24.2 49.32 18.8 49.32 18.8 50.52 20.8 50.52 20.8 56.72 22.2 56.72 22.2 50.52 24.4 50.52 24.4 49.32 24.2 49.32"/><polygon class="cls-3" points="29.4 49.32 25.2 49.32 25.2 56.72 29.6 56.72 29.6 55.42 26.6 55.42 26.6 53.52 29.3 53.52 29.3 52.22 26.6 52.22 26.6 50.52 29.6 50.52 29.6 49.32 29.4 49.32"/><path class="cls-3" d="M31.1,49.3h-.2v7.4h1.4V53.6h.4c.5,0,.7,0,1,.6l1.1,2.6h1.6L35,53.6a1.54,1.54,0,0,0-.4-.6,1.84,1.84,0,0,0,1.2-1.7c0-1.9-1.5-2.1-2.9-2.1H31.1Zm2,1.2c.5,0,1.2.1,1.2.8s-.5.9-1.3.9h-.7V50.5Z" transform="translate(0 0.02)"/><path class="cls-3" d="M42.9,49.3H41.6s-1.7,2.6-1.9,3c-.3-.4-2-3-2-3H36s2.9,4.3,2.9,4.4v3.1h1.4V53.7c.1-.1,2.9-4.4,2.9-4.4Z" transform="translate(0 0.02)"/><polygon class="cls-3" points="50.7 49.32 46.7 49.32 46.7 56.72 48.1 56.72 48.1 53.52 50.8 53.52 50.8 52.22 48.1 52.22 48.1 50.52 50.9 50.52 50.9 49.32 50.7 49.32"/><path class="cls-3" d="M57.9,49.3H56.7v4.2q0,2.1-1.5,2.1c-1.1,0-1.5-.6-1.5-2.1V49.3H52.3v4.3c0,2.1,1.1,3.2,2.9,3.2s2.9-1.2,2.9-3.2V49.3Z" transform="translate(0 0.02)"/><path class="cls-3" d="M65.4,49.3H64.2v5.1c-.5-1-2.8-5.1-2.8-5.1H59.7v7.4h1.4V51.4c.6,1,2.9,5.3,2.9,5.3h1.6V49.3Z" transform="translate(0 0.02)"/><path class="cls-3" d="M67.3,49.3h-.2v7.4h2.3c2.5,0,4-1.4,4-3.8,0-2.2-1.6-3.7-4-3.7H67.3Zm2.1,1.2a2.31,2.31,0,0,1,2.4,2.4,2.18,2.18,0,0,1-2.5,2.5h-.9V50.5Z" transform="translate(0 0.02)"/><polygon class="cls-3" points="78.6 49.32 74.4 49.32 74.4 56.72 78.8 56.72 78.8 55.42 75.8 55.42 75.8 53.52 78.5 53.52 78.5 52.22 75.8 52.22 75.8 50.52 78.8 50.52 78.8 49.32 78.6 49.32"/><path class="cls-3" d="M80.3,49.3h-.2v7.4h2.3c2.5,0,4-1.4,4-3.8,0-2.2-1.6-3.7-4-3.7H80.3Zm2.2,1.2a2.31,2.31,0,0,1,2.4,2.4,2.18,2.18,0,0,1-2.5,2.5h-.9V50.5Z" transform="translate(0 0.02)"/><path class="cls-3" d="M22.1,21a2.84,2.84,0,0,1,2.4-.6c1.1.5,1.2,2,.4,3.7a3.91,3.91,0,0,1-1.4,1.7,2.4,2.4,0,0,1-2.1.5c-1.5-.6-1.8-3.4-.7-6.3s3.2-4.8,4.6-4.3,1.7,2.9.9,5.6a2,2,0,0,0-1-2.2c-1-.5-2.4.3-3.2,1.7.2.1.2.2.1.2" transform="translate(0 0.02)"/><path class="cls-3" d="M31,22.6c.4-2-.2-3.6-1.3-3.6-1.3,0-2.8,1.9-3.5,4.3s-.2,4.3,1.1,4.3c.8,0,1.7-.8,2.5-2l.3-.6c.5-1.3.2-2.6-.6-2.8a2,2,0,0,0-1.7.5c0-.1,0-.1.1-.2.5-1.1,1.5-1.8,2.3-1.5a1.82,1.82,0,0,1,.8,1.6" transform="translate(0 0.02)"/><path class="cls-3" d="M18.3,4.3c-1.4-3.1-2.8-5-4.1-4.1-1.8,1.2-1.4,4.3.8,9.6a27.67,27.67,0,0,1,3.3-5.5" transform="translate(0 0.02)"/><path class="cls-3" d="M30.6,25.8c-.1.2-.1.3-.2.5-.8,1.5-2,2.6-3.2,2.6s-2.2-1.2-2.4-3A4.26,4.26,0,0,1,23.6,27a3,3,0,0,1-2.7.5c-1.9-.7-2.5-4.1-1.2-7.5a10.31,10.31,0,0,1,2.4-3.7c-.2-.9-.5-1.9-.8-3-.1.3-.3.5-.4.8a6.46,6.46,0,0,1-2.4,2.7c.6-1,1.2-2.1,1.7-3.1C22.9,8.5,25,3.8,23,2.7c-2.4-1.4-5.7,3.5-8.1,8.8A69.16,69.16,0,0,0,11,22.2s-2.3-4.6-7-4.6c-2.4,0-4,1.2-4,2.2,0,.7.6,1.2,1.4,1.4a5.25,5.25,0,0,1,3.5,2.6c1.2,1.6,2.1,5.6,2.3,6.5a12,12,0,0,0,11.6,9.1A11.86,11.86,0,0,0,30.7,27.5a5,5,0,0,0-.1-1.7M21.2,35c-4.3,0-7.9-3.9-9.7-9.6,2.4,4.4,6.5,7.2,11.1,7.2a12.19,12.19,0,0,0,5.3-1.3C26,33.6,23.7,35,21.2,35" transform="translate(0 0.02)"/><rect class="cls-3" x="38.7" y="0.22" width="0.6" height="39.3"/><path class="cls-3" d="M28.4,1.3a2.77,2.77,0,0,1,1.3.3,2,2,0,0,1,.9.9A2.2,2.2,0,0,1,31,3.8a2.77,2.77,0,0,1-.3,1.3,2,2,0,0,1-.9.9,3,3,0,0,1-2.6,0,2,2,0,0,1-.9-.9A2.77,2.77,0,0,1,26,3.8a2.77,2.77,0,0,1,.3-1.3,2,2,0,0,1,.9-.9,2.66,2.66,0,0,1,1.2-.3m0,.4a2.05,2.05,0,0,0-2.1,2.1,2.1,2.1,0,1,0,4.2,0,2.05,2.05,0,0,0-2.1-2.1m-.5,3.5h-.4V2.4h.9c.3,0,.6,0,.7.1s.2.1.3.3a.6.6,0,0,1,.1.4.76.76,0,0,1-.2.5c-.1.2-.3.2-.5.3a.22.22,0,0,1,.2.2,2.19,2.19,0,0,1,.3.5l.3.5h-.5l-.2-.4a5.92,5.92,0,0,0-.4-.6.52.52,0,0,0-.4-.2h-.3V5.2Zm0-2.4v.8h.5a.75.75,0,0,0,.5-.1c.1-.1.2-.2.2-.3s-.1-.3-.2-.3a.75.75,0,0,0-.5-.1Z" transform="translate(0 0.02)"/><path class="cls-3" d="M22.1,21a2.84,2.84,0,0,1,2.4-.6c1.1.5,1.2,2,.4,3.7a3.91,3.91,0,0,1-1.4,1.7,2.4,2.4,0,0,1-2.1.5c-1.5-.6-1.8-3.4-.7-6.3s3.2-4.8,4.6-4.3,1.7,2.9.9,5.6a2,2,0,0,0-1-2.2c-1-.5-2.4.3-3.2,1.7.2.1.2.2.1.2" transform="translate(0 0.02)"/><path class="cls-3" d="M31,22.6c.4-2-.2-3.6-1.3-3.6-1.3,0-2.8,1.9-3.5,4.3s-.2,4.3,1.1,4.3c.8,0,1.7-.8,2.5-2l.3-.6c.5-1.3.2-2.6-.6-2.8a2,2,0,0,0-1.7.5c0-.1,0-.1.1-.2.5-1.1,1.5-1.8,2.3-1.5a1.82,1.82,0,0,1,.8,1.6" transform="translate(0 0.02)"/><path class="cls-3" d="M18.3,4.3c-1.4-3.1-2.8-5-4.1-4.1-1.8,1.2-1.4,4.3.8,9.6a27.67,27.67,0,0,1,3.3-5.5" transform="translate(0 0.02)"/><path class="cls-3" d="M30.6,25.8c-.1.2-.1.3-.2.5-.8,1.5-2,2.6-3.2,2.6s-2.2-1.2-2.4-3A4.26,4.26,0,0,1,23.6,27a3,3,0,0,1-2.7.5c-1.9-.7-2.5-4.1-1.2-7.5a10.31,10.31,0,0,1,2.4-3.7c-.2-.9-.5-1.9-.8-3-.1.3-.3.5-.4.8a6.46,6.46,0,0,1-2.4,2.7c.6-1,1.2-2.1,1.7-3.1C22.9,8.5,25,3.8,23,2.7c-2.4-1.4-5.7,3.5-8.1,8.8A69.16,69.16,0,0,0,11,22.2s-2.3-4.6-7-4.6c-2.4,0-4,1.2-4,2.2,0,.7.6,1.2,1.4,1.4a5.25,5.25,0,0,1,3.5,2.6c1.2,1.6,2.1,5.6,2.3,6.5a12,12,0,0,0,11.6,9.1A11.86,11.86,0,0,0,30.7,27.5a5,5,0,0,0-.1-1.7M21.2,35c-4.3,0-7.9-3.9-9.7-9.6,2.4,4.4,6.5,7.3,11.1,7.3a12.19,12.19,0,0,0,5.3-1.3C26,33.6,23.7,35,21.2,35" transform="translate(0 0.02)"/></svg>