<svg id="Layer_1" data-name="Layer 1" xmlns="http://www.w3.org/2000/svg" xmlns:xlink="http://www.w3.org/1999/xlink" viewBox="0 0 300 200"><defs><style>.cls-1{fill:none;}.cls-2{clip-path:url(#clip-path);}.cls-3{fill:#1d1d1b;}</style><clipPath id="clip-path"><rect class="cls-1" x="77.5" y="27.5" width="145" height="145"/></clipPath></defs><title>ClimateKIC</title><g class="cls-2"><g class="cls-2"><path class="cls-3" d="M77.5,99.83a27.87,27.87,0,0,0,6.11.1c1.65-.1,2.07.44,2.11,2a62.68,62.68,0,0,0,10.81,33.9c22,32.94,68.33,38.45,97.18,11.39C209,132.93,215.8,115,214.08,94.19a64.14,64.14,0,0,0-52.77-57.52A63,63,0,0,0,119,43.59c-1.09.59-1.51.43-2-.58a37.38,37.38,0,0,0-2.54-4.43c-.82-1.2-.39-1.65.71-2.25a72.36,72.36,0,0,1,26.74-8.47c.35,0,.82.16,1-.36h13c2.71.44,5.43.81,8.13,1.33A72.58,72.58,0,0,1,165,171c-2.91.62-5.87,1-8.8,1.47H142.6c-2.28-.83-4.71-.88-7.07-1.34-28.18-5.42-51.39-28.75-56.7-57-.49-2.59-.89-5.2-1.33-7.8V99.83"/><path class="cls-3" d="M150.31,156.47a56.48,56.48,0,1,1,47.63-86.22c.78,1.27.77,1.89-.64,2.54a27.77,27.77,0,0,0-4.14,2.36c-1.1.76-1.56.42-2.2-.61A47.84,47.84,0,0,0,171.6,56.82c-28.6-14.38-63,2.71-68.95,34.25-5,26.58,12.72,52.39,39.38,56.48,20.7,3.17,37-4.54,48.75-21.82.87-1.29,1.45-1.54,2.73-.65a41.26,41.26,0,0,0,4.42,2.56c.83.43.81.81.35,1.54a55.85,55.85,0,0,1-37.16,26.23,44.6,44.6,0,0,1-10.81,1.05"/><path class="cls-3" d="M149.14,109c-1.28,3.8-3.7,6.14-7.39,6.81a56.92,56.92,0,0,1-19.15.12c-5.11-.81-7.69-3.84-8.5-9.45a42.53,42.53,0,0,1,.16-13.74c.95-5.25,3.52-8,8.75-8.77a57.93,57.93,0,0,1,17.65,0c5.35.82,8.18,3.84,9,9.2.28,1.79.24,3.62.42,5.43.12,1.2-.31,1.54-1.51,1.52-6.08-.06-12.15,0-18.23,0-3.47,0-6.93,0-10.4,0-1,0-1.45.23-1.36,1.32.12,1.41.05,2.84.17,4.26.29,3.41,2,5.52,5.4,6.07a50.19,50.19,0,0,0,15.59,0,5.94,5.94,0,0,0,4.09-2.21A1.26,1.26,0,0,1,145,109c1.3,0,2.61,0,4.15,0M131.86,95.89c4.09,0,8.18,0,12.27,0,1,0,1.26-.3,1.2-1.27-.21-3.26-1.72-5.37-4.95-6.09a39,39,0,0,0-16.71,0c-3.18.67-4.7,2.78-5,6.05-.1,1.12.26,1.35,1.28,1.34,4,0,8,0,11.92,0"/><path class="cls-3" d="M166.06,98.93c0-3.24,0-6.48,0-9.72,0-1-.26-1.43-1.33-1.34s-2.05-.08-3.06,0c-1.44.18-1.83-.33-1.75-1.75.12-2.31,0-2.32,2.37-2.32,3.74,0,3.74,0,3.74-3.67v-2c0-2.38,0-2.28,2.31-2.41,1.47-.08,2,.28,1.88,1.84s0,3.07-.06,4.6c-.08,1.27.22,1.75,1.63,1.72,4.31-.1,8.63,0,13-.07,1.21,0,1.53.34,1.5,1.52-.07,2.56,0,2.56-2.62,2.56-3.92,0-7.84,0-11.76,0-1.24,0-1.73.19-1.71,1.62.09,6,0,12,0,18.07,0,3,1.55,4.53,4.49,4.55,3.35,0,6.7.06,10.05,0,1.17,0,1.68.26,1.49,1.48a4.43,4.43,0,0,0,0,1.36c.16,1.07-.28,1.33-1.32,1.31-3.57-.07-7.15,0-10.73,0a8,8,0,0,1-8.14-8.23c0-3,0-6,0-9"/><path class="cls-3" d="M158.13,100c0,4.88-.05,9.76,0,14.65,0,1.32-.39,1.61-1.63,1.57-2.64-.08-2.64,0-2.64-2.73,0-9.37,0-18.73,0-28.1,0-1.3.36-1.63,1.62-1.6,2.64.08,2.64,0,2.64,2.59V100"/><path class="cls-3" d="M158.13,78.11c.53,1.71-.51,1.85-2.16,1.95-2,.12-2-.74-2.14-2.31-.13-1.93.71-2.09,2.23-2,2.07.1,2.07,0,2.07,2.38"/></g></g></svg>