<svg id="Layer_1" data-name="Layer 1" xmlns="http://www.w3.org/2000/svg" xmlns:xlink="http://www.w3.org/1999/xlink" viewBox="0 0 300 200"><defs><style>.cls-1{fill:none;}.cls-2{clip-path:url(#clip-path);}</style><clipPath id="clip-path"><rect class="cls-1" x="25.67" y="58" width="237" height="84"/></clipPath></defs><title>FutureCitiesCatapult</title><g class="cls-2"><g class="cls-2"><path d="M228.78,70.9c-4.53,0-6-2.45-6-6.45s1.52-6.45,6-6.45h27.83c4.54,0,6.06,2.46,6.06,6.45s-1.52,6.45-6.06,6.45h-6.86v36.35c0,5-2.69,7-7,7s-7.05-2.07-7.05-7V70.89Z"/><path d="M162.57,72.1c0-4.39,2.28-5.82,6.08-5.82s6.13,1.51,6.13,5.91V94c0,6.88,2.65,10.11,7.35,10.11,4.85,0,7.39-3.23,7.39-10.11V69.15c0-4.39,2.31-5.91,6.11-5.91s6.1,1.51,6.1,5.91V93.41c0,12.66-5.43,21.2-19.59,21.2s-19.58-8.48-19.58-21.14Z"/><path d="M211.31,113.92c-4.54,0-6.06-2.44-6.06-6.45V66.77c0-4.65,2.51-6.25,6.62-6.25s6.61,1.6,6.61,6.25v35.17h9.06c4.22,0,5.64,2.29,5.64,6s-1.42,6-5.64,6Z"/><path d="M128.56,108.61c0,4.19,2.2,5.63,5.82,5.63s5.81-1.44,5.81-5.63v-6.84h4.27c11,0,15.88-6.35,15.88-15.2s-4.82-15.34-18.46-15.34h-7.72c-4.2,0-5.6,2.25-5.6,6Zm11.26-15.87V80.27h1.92c6.18,0,7,3.37,7,6.25,0,3.15-.92,6.22-7,6.22Z"/><path d="M75.53,88.91c-3,0-4-1.62-4-4.26s1-4.26,4-4.26H93c3,0,4,1.65,4,4.28s-1,4.26-4,4.26H89.17v20.74c0,3.4-1.85,4.57-4.84,4.57s-4.84-1.17-4.84-4.57V88.93Z"/><path d="M103.73,106.54h11.14l.82,3c1,3.72,3,4.75,6.07,4.75,3.76,0,6.09-2.09,5-6.12-.95-3.55-8.43-25.85-8.43-25.85-2.05-6-3.75-7.38-8.53-7.38s-6.33,1.43-8.55,7.39c0,0-8.08,22.11-9.13,25.83-1.15,4.11,1,6.14,4.76,6.14,3,0,4.64-1.09,5.9-4.82Zm1.82-8.91,4-14.19,3.51,14.19Z"/><path d="M58.71,108.11h8.83l.67,2.36c.77,3,2.38,3.77,4.81,3.77,3,0,4.84-1.65,4-4.86-.76-2.81-7.07-20.54-7.07-20.54C68.36,84.24,67,83,63.17,83s-5,1.13-6.79,5.87c0,0-6,17.56-6.88,20.51-.92,3.26.79,4.87,3.78,4.87,2.38,0,3.68-.86,4.68-3.82ZM60.16,101,63,89.78,66.11,101Z"/><path d="M38.41,107.34a5.63,5.63,0,0,0,3.85-1.53c2-1.52,3.44-.9,4.69.38a3.46,3.46,0,0,1-.19,5.18,12.15,12.15,0,0,1-8.67,3.25c-7.21,0-12.42-5.63-12.42-13.73,0-8.29,5.85-13.8,12.83-13.8A12,12,0,0,1,47,90.14a3.42,3.42,0,0,1,.43,4.76c-1.17,1.73-3.08,2.24-4.66,1a6,6,0,0,0-4.09-1.81c-3.22,0-5.33,2.82-5.33,6.79,0,3.79,2,6.46,5.06,6.46"/><path d="M103.74,124.73a2.08,2.08,0,0,1,2.16-2.16h6.63a1.94,1.94,0,0,1,2.16,2,1.91,1.91,0,0,1-2.16,2h-4.47V130H112a2,2,0,1,1,0,4h-3.9v5.47a2.16,2.16,0,1,1-4.32,0Z"/><path d="M128.58,136.45c0,3.85-3,5.55-6.46,5.55s-6.47-1.71-6.47-5.55v-7.08a2.09,2.09,0,1,1,4.17,0v6.49a2.3,2.3,0,0,0,4.6,0v-6.49a2.08,2.08,0,1,1,4.16,0Z"/><path d="M132.11,131.21h-.48c-1.34,0-2.19-.59-2.19-1.92s.85-1.92,2.19-1.92h.48v-2.72a2.08,2.08,0,1,1,4.16,0v2.72h1.16c1.33,0,2.19.59,2.19,1.92s-.86,1.92-2.19,1.92h-1.16v8.36a2.08,2.08,0,1,1-4.16,0Z"/><path d="M153.4,136.45c0,3.85-3,5.55-6.47,5.55s-6.46-1.71-6.46-5.55v-7.08a2.09,2.09,0,1,1,4.17,0v6.49a2.3,2.3,0,0,0,4.59,0v-6.49a2.09,2.09,0,1,1,4.17,0Z"/><path d="M154.79,129.37a2.08,2.08,0,0,1,2.09-2.16,2.24,2.24,0,0,1,2.08,1.34,4,4,0,0,1,2.89-1.6A2.15,2.15,0,0,1,164,129.1c0,1.44-1.09,1.79-2.62,2.24-1.81.54-2.4,1-2.4,3.15v5.07a2.09,2.09,0,1,1-4.17,0Z"/><path d="M173.52,133a2.71,2.71,0,0,0-5.4,0Zm-5.4,2.86c0,.88.67,2.32,3.34,2.32,2.06,0,3.31-1.31,4.27-1.31a1.73,1.73,0,0,1,1.74,1.79c0,2-3.39,3.36-6.54,3.36-4.49,0-7.3-3.34-7.3-7.53a7.35,7.35,0,0,1,7.3-7.53,6.84,6.84,0,0,1,6.75,7.07c0,1.47-.69,1.82-2,1.82Z"/><path d="M195.77,122.14c2.62,0,5.75.75,5.75,3a2,2,0,0,1-1.87,2.06c-1,0-2.09-.91-3.77-.91-3.5,0-4.89,2.83-4.89,5.77s1.55,5.61,4.52,5.61c2.69,0,3.12-.88,4.24-.88a1.84,1.84,0,0,1,1.92,2c0,2.37-3.6,3.2-6,3.2-6,0-9.35-4.49-9.35-9.93,0-5.77,3.72-9.93,9.43-9.93"/><path d="M202.77,129.37a2.09,2.09,0,1,1,4.17,0v10.2a2.09,2.09,0,1,1-4.17,0Zm2.09-8.36a2.48,2.48,0,1,1-2.49,2.48,2.47,2.47,0,0,1,2.49-2.48"/><path d="M210.38,131.21h-.48c-1.33,0-2.18-.59-2.18-1.92s.85-1.92,2.18-1.92h.48v-2.72a2.09,2.09,0,1,1,4.17,0v2.72h1.15c1.34,0,2.19.59,2.19,1.92s-.85,1.92-2.19,1.92h-1.15v8.36a2.09,2.09,0,1,1-4.17,0Z"/><path d="M218.67,129.37a2.08,2.08,0,1,1,4.16,0v10.2a2.08,2.08,0,1,1-4.16,0Zm2.08-8.36a2.48,2.48,0,1,1-2.48,2.48,2.48,2.48,0,0,1,2.48-2.48"/><path d="M234.14,133a2.71,2.71,0,0,0-5.4,0Zm-5.4,2.86c0,.88.67,2.32,3.34,2.32,2.06,0,3.31-1.31,4.27-1.31a1.73,1.73,0,0,1,1.74,1.79c0,2-3.39,3.36-6.54,3.36-4.49,0-7.3-3.34-7.3-7.53a7.35,7.35,0,0,1,7.3-7.53A6.84,6.84,0,0,1,238.3,134c0,1.47-.69,1.82-2,1.82Z"/><path d="M240.79,137.11c1.31,0,2.21,1.2,4,1.2.86,0,1.18-.4,1.18-.83,0-.85-.91-.93-3.23-1.89-2.14-.88-3.29-1.68-3.29-3.93s2-4.73,5.37-4.73c1.69,0,4.81.8,4.81,3a1.69,1.69,0,0,1-1.73,1.76c-.83,0-2.06-1-3.34-1-.57,0-1.1.26-1.1.88,0,1.63,6.52,1.26,6.52,5.82,0,2.93-2.48,4.67-5.34,4.67-2.62,0-5.56-1-5.56-2.88a1.84,1.84,0,0,1,1.71-2"/></g></g></svg>