<svg id="Layer_1" data-name="Layer 1" xmlns="http://www.w3.org/2000/svg" xmlns:xlink="http://www.w3.org/1999/xlink" viewBox="0 0 300 200"><defs><style>.cls-1{fill:none;}.cls-2{clip-path:url(#clip-path);}.cls-3{clip-path:url(#clip-path-2);}</style><clipPath id="clip-path"><rect class="cls-1" x="27" y="83" width="245" height="34"/></clipPath><clipPath id="clip-path-2"><rect class="cls-1" x="28" y="83" width="245" height="34"/></clipPath></defs><title>InnovateUK</title><g class="cls-2"><polygon points="27 87.08 27 115.44 32.45 115.44 32.45 83.03 27 87.08"/></g><g class="cls-3"><path d="M49.9,90.7A31.17,31.17,0,0,0,39,92.78v22.66h5.3V96.33a18,18,0,0,1,5.13-.71c2.94,0,5.08,1.25,5.08,4.75v15.07h5.24V99.88c0-6.83-3.85-9.17-9.89-9.17"/><path d="M75.83,90.7A31.12,31.12,0,0,0,65,92.78v22.66h5.29V96.33a18.09,18.09,0,0,1,5.14-.71c2.94,0,5.08,1.25,5.08,4.75v15.07h5.23V99.88c0-6.83-3.84-9.17-9.88-9.17"/><path d="M194,90.71c-6.52,0-11.43,5.13-11.43,12.82S187.6,116,195,116a14.8,14.8,0,0,0,8.33-2.24v-.11l-2.38-3.34a13.74,13.74,0,0,1-5.58,1c-3.69,0-7.32-2.34-7.63-6.65v-.11h16.44v-2.73c0-6.6-3.25-11.13-10.14-11.13m-6.14,10.36c.69-3.66,2.93-5.84,6-5.84,3.41,0,5.23,2.07,5.34,5.84Z"/><path d="M102.11,90.71c-7,0-12.19,5.13-12.19,12.67S95.06,116,102.11,116s12.25-5.13,12.25-12.61-5.14-12.67-12.25-12.67m0,20.64c-3.95,0-6.84-3.11-6.84-8s2.89-8,6.84-8,6.9,3.11,6.9,8-2.84,8-6.9,8"/><polygon points="127.5 110.2 120.81 91.25 115.2 91.25 124.34 115.44 130.38 115.44 139.58 91.25 134.13 91.25 127.5 110.2"/><path d="M150.87,90.7a15.54,15.54,0,0,0-7.7,2v4.7a13.16,13.16,0,0,1,6.85-2c2.62,0,4.54,1.2,4.54,3.82v2h-2.62c-6.84,0-11,2.4-11,7.32,0,5.46,4.49,7.37,10.64,7.37a34.68,34.68,0,0,0,8.13-1V99c0-6.06-3.69-8.25-8.88-8.25m3.69,20.91a19.07,19.07,0,0,1-2.89.27c-3.2,0-5.45-1-5.45-3.49s2.41-3.55,6.1-3.55h2.24Z"/><path d="M172.41,107.58V96.06h6.74V91.52h-6.74V83l-5.23,3.89v4.64h-3.59v4.53h3.59v12.72c0,5.51,3.26,7.48,7.1,7.48A12.2,12.2,0,0,0,180,115v-4.86a8.12,8.12,0,0,1-4.33,1.37c-2,0-3.27-1-3.27-3.88"/><path d="M237.06,111.7a34.62,34.62,0,0,1-6.25.55c-4.71,0-7.91-1.64-7.91-7.86V83l-5.46,4v18.29c0,9,6.15,11.63,13.37,11.63a50.66,50.66,0,0,0,11.71-1.47V83h-5.46Z"/><polygon points="248.66 115.47 254.11 115.47 254.11 83.03 251.39 83.03 248.66 83.03 248.66 98.17 248.66 115.47"/><polygon points="273 83.03 267.07 83.03 255.53 99.25 267.07 115.47 273 115.47 261.46 99.25 273 83.03"/></g><rect class="cls-1" x="27" y="83" width="245" height="34"/></svg>