<svg id="Layer_1" data-name="Layer 1" xmlns="http://www.w3.org/2000/svg" xmlns:xlink="http://www.w3.org/1999/xlink" viewBox="0 0 300 200"><defs><style>.cls-1{fill:none;}.cls-2{clip-path:url(#clip-path);}.cls-3{fill-rule:evenodd;}</style><clipPath id="clip-path"><rect class="cls-1" x="87" y="30.5" width="126" height="139"/></clipPath></defs><title>Momentum</title><g class="cls-2"><g class="cls-2"><path class="cls-3" d="M105.21,135.24c.43,1.64.41,3.63,1.37,4.84,5.4,6.81,12.91,10.21,20.89,12.73-10.69-1.05-18.72-6.51-24.62-15.41-2.83-4.27-5.74-8.5-8.28-12.94-7.37-12.87-9.56-26.56-5.68-41a28.22,28.22,0,0,1,2.26-4.73c-4.89,15.54-3,34.73,4.33,42.56,0-5.67,0-11.08,0-16.49,0-1.74-.41-3.46-.56-5.2-.57-6.44-1.06-12.88-1.71-19.31a11,11,0,0,0-1.32-3c5.49-12.8,14-22.77,26.78-28.66,1.58-.73,3.54-1.2,4.61-2.43A48.75,48.75,0,0,1,149.52,30.5h9.54C175.54,35.86,189.57,45,200,59c13.74,18.36,16.05,38.84,9.47,60.6-4.19,13.84-11.61,25.85-20.67,36.87-12.12,14.74-32.87,17.69-47.79,5.29-10.54-8.76-19.48-19.4-33.07-23.81-1.15-.37-1.94-1.88-2.9-2.87l14.35,7.21-23-33.35c-.61,9.89.84,19.18,8.86,26.33m7.95-27.57c-.25-4-.81-8-.7-12,.22-8.17.8-16.34,1.24-24.51-3,12.1-3.49,24.25-.45,36.47,2.82,8.9,5.35,17.91,8.54,26.67,2.44,6.73,7.79,10.72,14.9,10.78,18.82.17,36.28-4.62,51.36-16.38,2.67-2.08,4.4-5.4,6.57-8.15l-1.15-1c-12.75,14.18-28.95,19.1-47.23,17.54-9.9-.85-18.93-4.1-24.29-13.59,5.58,3.52,10.74,8.55,16.82,10.26,14.82,4.16,29.49,1.92,42.84-6,9.58-5.65,15.82-14.12,17.18-25.53,1.27-10.68-3.16-19.63-9.14-28-6.58-9.16-15.72-14.6-25.81-19.33-10.82-5.07-28.63-4.43-37.79,3.2-4.27,3.56-9.49,6.53-10.29,12.91-.86,6.86-2,13.71-2.27,20.6-.37,11.46,3.58,21.92,8.64,32-1.61-2.44-3.37-4.81-4.81-7.36-1.55-2.76-2.8-5.7-4.16-8.57M157.7,46.08c3.4,3.15,5.67,6.35,8.75,7.94,20.21,10.45,34.85,24.61,34.58,49.58,4.21-10,6.41-20,.8-30.29-1.17-2.15-3.17-3.85-4.27-6-4.6-9.12-27-22.58-37-22a22.22,22.22,0,0,0-2.86.79m46.77,67c-13.11,13.36-21,31-39,38.48,24.54-2.07,38.58-15.9,39-38.48m-18,42.71c-8.43,4.25-17.32,6.94-26.52,5.13-8.72-1.71-17.15-5-25.41-7.48,12.29,17.56,40.33,19.17,51.94,2.35M126.86,45c16.65-4.49,32.1-7.54,49.38-4.62C161.09,28.58,140,30.55,126.86,45m68.49,96.56c-14.66,13.52-32.75,13.36-50.88,13,20.53,10.28,46.18,3.61,50.88-13m-75.78-7.8c-7.67-18.87-12.29-36.8-9.42-56-10,17.26-5.71,44.81,9.42,56M139,146.8c14,9.64,36.8,2.91,45.88-14-14.37,9.71-29.38,12.74-45.88,14M116.39,59c-11.64,5-22.6,24.23-18,34.15l18-34.15m76.19-1.47c-5-10.84-19.61-18.07-30.07-15l30.07,15M96.08,96.09C94.37,83,99.43,73.34,106.54,63,94.65,69.49,90.65,82.5,96.08,96.09m8-9.73c-7,8.94-6.84,20,0,26.9Zm56.26-34.86c-4.89-9.27-10.18-8.94-19.84-2.06l19.84,2.06m39.19,63.13c5.21-5.56,9.1-11.54,6.94-20.59l-6.94,20.59M120,52l-1.44-2.25L104,60l1.09,1.61L120,52"/></g></g></svg>