<svg id="Layer_1" data-name="Layer 1" xmlns="http://www.w3.org/2000/svg" viewBox="0 0 300 200"><defs><style>.cls-1{fill:none;}</style></defs><title>Nesta</title><polygon points="75.41 71.5 75.41 91.05 75.41 112.61 51.79 71.5 39.98 71.5 39.98 127.57 49.52 127.57 49.52 107.52 49.52 83.81 74.31 127.57 85.02 127.57 85.02 71.5 75.41 71.5"/><rect class="cls-1" x="39.98" y="71.5" width="245" height="57"/><path d="M100.6,109.87c.25,7.45,6.07,10.67,12.65,10.67a30.77,30.77,0,0,0,11.39-1.86l1.52,7.2a38.37,38.37,0,0,1-14.34,2.63c-13.33,0-21.17-8.3-21.17-20.92,0-11.43,6.91-22.19,20.07-22.19,13.41,0,17.71,11,17.71,20.07a25.7,25.7,0,0,1-.34,4.4Zm18.05-7.28c.08-3.81-1.6-10.08-8.52-10.08-6.41,0-9.11,5.84-9.53,10.08Z"/><path d="M134.19,118a23.08,23.08,0,0,0,10.54,3c4.55,0,6.58-1.86,6.58-4.57s-1.69-4.23-6.75-6c-8-2.79-11.39-7.2-11.3-12,0-7.29,6-13,15.52-13a24,24,0,0,1,10.88,2.46l-2,7.37a18.39,18.39,0,0,0-8.69-2.37c-3.71,0-5.73,1.78-5.73,4.32s1.94,3.89,7.17,5.76c7.42,2.71,10.88,6.52,11,12.62,0,7.45-5.82,13-16.7,13a26.38,26.38,0,0,1-12.48-3Z"/><path d="M180.49,75.73V86.32h9.87v7.79h-9.87v18.21c0,5,1.35,7.62,5.31,7.62a12.74,12.74,0,0,0,4-.51l.17,8a22.29,22.29,0,0,1-7.51,1.1,12,12,0,0,1-8.94-3.47c-2.19-2.37-3.2-6.1-3.2-11.52V94.11h-5.9V86.32h5.9V78.7Z"/><path d="M228.72,117.66a66.52,66.52,0,0,0,.59,9.91h-9.36l-.67-4.57H219a15.23,15.23,0,0,1-12.15,5.51c-8.27,0-12.9-6-12.9-12.28,0-10.42,9.2-15.67,24.37-15.58V100c0-2.71-1.09-7.2-8.35-7.2a21.68,21.68,0,0,0-11,3l-2-6.78a29.48,29.48,0,0,1,14.84-3.64c13.16,0,17,8.39,17,17.36ZM218.6,107.41c-7.34-.17-14.34,1.44-14.34,7.71,0,4.07,2.61,5.93,5.9,5.93a8.4,8.4,0,0,0,8.09-5.67,7.5,7.5,0,0,0,.34-2.29Z"/><path d="M240.92,128.5a6.25,6.25,0,0,1-6.24-6.69c0-3.9,2.61-6.69,6.41-6.69s6.33,2.71,6.41,6.69A6.35,6.35,0,0,1,241,128.5Z"/><path d="M259.66,128.5a6.25,6.25,0,0,1-6.24-6.69c0-3.9,2.61-6.69,6.41-6.69s6.33,2.71,6.41,6.69a6.35,6.35,0,0,1-6.5,6.69Z"/><path d="M278.41,128.5a6.25,6.25,0,0,1-6.24-6.69c0-3.9,2.61-6.69,6.41-6.69s6.32,2.71,6.41,6.69a6.35,6.35,0,0,1-6.49,6.69Z"/><rect class="cls-1" x="39.98" y="71.5" width="245" height="57"/></svg>