<svg id="Layer_1" data-name="Layer 1" xmlns="http://www.w3.org/2000/svg" xmlns:xlink="http://www.w3.org/1999/xlink" viewBox="0 0 300 200"><defs><style>.cls-1{fill:none;}.cls-2{clip-path:url(#clip-path);}.cls-3{clip-path:url(#clip-path-2);}.cls-4{fill-rule:evenodd;}</style><clipPath id="clip-path"><rect class="cls-1" x="83" y="29.5" width="134" height="141"/></clipPath><clipPath id="clip-path-2"><rect class="cls-1" x="83" y="29.5" width="134" height="141"/></clipPath></defs><title>SpaceCraftSystems</title><g class="cls-2"><g class="cls-3"><path class="cls-4" d="M96.09,124.73,83.68,102.9a6.49,6.49,0,0,1,0-5.81L96.09,75.27a6.29,6.29,0,0,1,4.95-2.9h36.28a6.3,6.3,0,0,1,4.95,2.9l1.88,3.3L133.59,97.13a6.25,6.25,0,0,0,0,5.57l10.6,18.65-1.93,3.39a6.3,6.3,0,0,1-4.95,2.9H101a6.3,6.3,0,0,1-4.95-2.9"/><path class="cls-4" d="M169.19,167.6l-18.14-31.91a6.51,6.51,0,0,1,0-5.8l2-3.46h21a6,6,0,0,0,4.75-2.79l10.53-18.49h3.9a6.32,6.32,0,0,1,5,2.9L216.32,140a6.53,6.53,0,0,1,0,5.81L203.91,167.6a6.31,6.31,0,0,1-4.95,2.9H174.14a6.31,6.31,0,0,1-4.95-2.9"/><path class="cls-4" d="M189.43,94.85,178.8,76.19a6,6,0,0,0-4.75-2.79H152.93l-1.88-3.29a6.51,6.51,0,0,1,0-5.81L169.19,32.4a6.3,6.3,0,0,1,4.95-2.9H199a6.31,6.31,0,0,1,4.95,2.9l12.41,21.83a6.5,6.5,0,0,1,0,5.8L198.18,91.95a6.29,6.29,0,0,1-5,2.9Z"/></g></g></svg>