<svg id="Layer_1" data-name="Layer 1" xmlns="http://www.w3.org/2000/svg" viewBox="0 0 300 200"><title>Suncorp</title><path d="M73.47,127.75c-5,0-9.16-1.42-11.34-3.8-2.74-3-2.74-6.68-2.74-10.36l0-15.21c0-2.35.09-5.55-2.31-6.44v-.3h10V92c-2.36.89-2.32,4.14-2.28,6.52v15.12c0,6.83,3.05,10.22,8.64,10.22s8.64-3.39,8.64-10.22V98.47c0-2.38.08-5.63-2.29-6.52v-.3h10V92c-2.39.89-2.32,4.09-2.28,6.44v15.21c0,3.67,0,7.34-2.74,10.36-2.19,2.37-6.4,3.8-11.35,3.8m88.42-8h.29s-2.74,6.29-2.79,6.32a18.89,18.89,0,0,1-8.06,1.63c-12.59,0-20.42-7.1-20.42-18.52,0-10.83,7.72-18.4,18.77-18.4a38.86,38.86,0,0,1,9.76,1.41v6.25a18.71,18.71,0,0,0-9.93-3.09c-7.28,0-12.36,5.36-12.36,13,0,8.4,5.76,14.73,13.45,14.73a23.51,23.51,0,0,0,11.29-3.35M48.53,117.08c0-4.42-4.6-6.94-9.46-9.61-5.5-3-11.2-6.17-11.2-12.29C27.87,88.39,33.39,84,41.95,84a27.18,27.18,0,0,1,9.93,1.85v7.28a14.12,14.12,0,0,0-10.5-4.37c-4.69,0-8,2.3-8,5.58,0,3.9,4,6,8.6,8.33,5.65,2.9,12,6.17,12,13.69,0,6.58-5.44,11.36-13,11.36a32.86,32.86,0,0,1-13.3-2.52l-1-5.26-.57-2.77A20.53,20.53,0,0,0,40.32,123c5.32,0,8.21-3,8.21-5.9m133.2,6.63c7.75,0,13.17-5.68,13.17-13.78,0-7.37-4.65-15.21-13.29-15.21-7.89,0-13.45,5.74-13.45,13.95,0,7.23,5.2,15,13.57,15m14.1-27.48a17.74,17.74,0,0,1,5.3,12.64c0,10.55-8.64,18.83-19.67,18.83s-19.5-8-19.5-18.56a17.84,17.84,0,0,1,5.47-12.81A20,20,0,0,1,182,90.74a19.26,19.26,0,0,1,13.83,5.5M93.39,91.94v-.29h7.84a16.1,16.1,0,0,0,1.56,2.47s19.33,23.34,19.33,23.57V98.32c0-2.78-.15-4.85-2.84-6.37v-.3h9.55V92c-2.74,1.57-2.76,3.43-2.76,6.37v30.22c-3.92-1.32-26-29.07-26-29.31V120c0,2.77.17,5,2.85,6.52v.29H93.33v-.29c2.8-1.63,2.77-3.6,2.77-6.52V98.6c0-3,0-5.08-2.72-6.66m153.16-.29c7.45,0,12.26,3.68,12.26,9.39,0,6.31-6,10.09-11.78,10.09a8.61,8.61,0,0,1-3.27-.59,5.9,5.9,0,0,1-.58-.24c4.7-.35,9.42-3.22,9.42-8.21,0-5.62-4.69-6.47-7.48-6.47a31.88,31.88,0,0,0-3.66.25V120c0,2.87.14,5,2.86,6.51v.29H230c-2.91,0-4.67-.74-6.24-2.68s-4.7-5.57-6.43-8.12-4.9-7.48-4.9-7.48c3.41-.59,9.13-2.25,9.13-7.62a5.46,5.46,0,0,0-1.69-4.06,6.77,6.77,0,0,0-5.1-1.77c-2.08.06-2.3.08-3.55.14v25.23c0,2.26.18,5.32,2.33,6.08v.29H203.32v-.29c2.39-.85,2.33-3.73,2.29-6.08v-22c0-2.37.1-5.59-2.29-6.48v-.3H216c6.75,0,11.1,3.38,11.1,8.65,0,4.45-3.54,7.8-7.34,9a9.94,9.94,0,0,1-1.12.34l7.66,9.62a32.82,32.82,0,0,0,3.62,3.72c1,.92,2.86,2.44,3.76,2.61,2.27.45,2.19-3.7,2.19-3.7,0-.64,0-1.28,0-1.87V98.53c0-2.38.07-5.63-2.29-6.58v-.3Z"/><path d="M256.84,37a30.47,30.47,0,0,0-4.21.34l4.67,21.82,5-21.75a30.79,30.79,0,0,0-5.46-.41"/><path d="M262.31,37.42,260,59.62l11.49-19.14a31.08,31.08,0,0,0-9.18-3.06"/><path d="M284.9,54.11a30.8,30.8,0,0,0-5.63-7.86L264.38,62.85Z"/><path d="M243.4,40.27l11.18,19.32-2-22.23a30.59,30.59,0,0,0-9.22,2.91"/><path d="M287.83,63.34a31,31,0,0,0-2.92-9.23L265.6,65.31Z"/><path d="M271.49,40.49l-9,20.4,16.82-14.65a31.4,31.4,0,0,0-7.78-5.75"/><path d="M235.52,45.9l16.6,14.91-8.73-20.54a31,31,0,0,0-7.87,5.63"/><path d="M284.71,82.23a30.42,30.42,0,0,0,3.06-9.2l-22.2-2.3Z"/><path d="M287.83,63.35,266,68l21.76,5a30.84,30.84,0,0,0,.06-9.68"/><path d="M279,90a30.81,30.81,0,0,0,5.74-7.79l-20.42-9.06Z"/><path d="M272.13,95.14A30.5,30.5,0,0,0,279,90L262.47,75.22a61.08,61.08,0,0,1,9.66,19.92"/><path d="M230.29,52.72a60.64,60.64,0,0,1,19.84,10L235.52,45.91a31.22,31.22,0,0,0-5.23,6.81"/><path d="M220.84,49.78a27.24,27.24,0,0,0,38.43,26.66,70.56,70.56,0,0,0-38.43-26.66"/></svg>