<svg id="Layer_1" data-name="Layer 1" xmlns="http://www.w3.org/2000/svg" viewBox="0 0 300 200"><defs><style>.cls-1{fill:none;}</style></defs><title>SYHA</title><rect class="cls-1" x="45.5" y="67.5" width="209" height="65"/><path d="M208,84.86l4.57,16.38h-9.13Zm-8.63-16.46-15.21,47.72V68.41H167.05V89.25H153.41V68.41H136.48v56.26h16.92V102.38h13.64v22.29h30l3.18-11.27h15.25l3.34,11.27h17.33L218.48,68.41Z"/><path d="M91.91,95.3c-4.45-3.53-9.65-4.43-15.26-5.83-6.76-1.64-10.48-1.8-10.48-5.17,0-2.22,2.39-4.1,5.85-4.1,4.7,0,7.51,1.64,9.24,5.74l13.84-4,11.37,21,0,21.83h17.63l0-22.25,18.51-34.18H125.84L116.36,88l-10-19.54H87.15L89.84,73c-4.15-3.61-9.75-5.5-16.65-5.5-15.26,0-24.58,8-24.58,18.86,0,9.36,6.27,13.95,19.22,17.23,7.59,2,11.63,1.8,11.63,6,0,2.22-2.39,3.94-6.43,3.94-6.19,0-9.73-2.38-11-7.13H45.5a30.24,30.24,0,0,0,.49,3h0c2.72,11,12.21,17.38,26.72,17.38,7.84,0,14.44-2.38,19.13-6.72a17.13,17.13,0,0,0,5.61-12.63A14.82,14.82,0,0,0,91.91,95.3"/><rect class="cls-1" x="45.5" y="67.5" width="190.64" height="59.29"/><rect class="cls-1" x="45.5" y="67.5" width="209" height="65"/></svg>