<svg id="Layer_1" data-name="Layer 1" xmlns="http://www.w3.org/2000/svg" viewBox="0 0 366.39 140.32"><defs><style>.cls-1{fill:#2d2d2d;}.cls-2{fill:#626262;}.cls-3{fill:#858585;}.cls-4{fill:#fff;}.cls-5{fill:none;}</style></defs><title>Artboard 1</title><path class="cls-1" d="M107.07,64.3v7h-1.39V53.49h1.39v2a5.54,5.54,0,0,1,4.49-2.35c3.44,0,5.77,2.62,5.77,6.76s-2.32,6.78-5.77,6.78a5.51,5.51,0,0,1-4.49-2.4m8.76-4.38c0-3.12-1.63-5.5-4.51-5.5a5.21,5.21,0,0,0-4.25,2.3V63.1a5.26,5.26,0,0,0,4.25,2.35c2.88,0,4.51-2.4,4.51-5.53"/><path class="cls-1" d="M119.57,59.92c0-3.77,2.4-6.76,6.17-6.76s6.22,3,6.22,6.76-2.4,6.78-6.22,6.78-6.17-3-6.17-6.78m10.9,0c0-2.86-1.68-5.5-4.73-5.5s-4.7,2.64-4.7,5.5,1.71,5.53,4.7,5.53,4.73-2.64,4.73-5.53"/><polygon class="cls-1" points="146.06 66.39 142.46 55.36 138.83 66.39 137.49 66.39 133.3 53.49 134.79 53.49 138.21 64.44 141.84 53.49 143.05 53.49 146.68 64.44 150.1 53.49 151.59 53.49 147.4 66.39 146.06 66.39"/><path class="cls-1" d="M153,59.92c0-3.74,2.62-6.76,6.2-6.76,3.93,0,6.09,3.1,6.09,6.84v.37H154.45c.13,2.8,2,5.13,5,5.13a5.67,5.67,0,0,0,4.22-1.79l.72.91a6.66,6.66,0,0,1-5,2.08c-3.77,0-6.44-2.8-6.44-6.78m6.17-5.56c-3,0-4.57,2.67-4.67,4.92h9.38a4.73,4.73,0,0,0-4.7-4.92"/><path class="cls-1" d="M168.29,66.39V53.49h1.39V55.7A5.54,5.54,0,0,1,174,53.22v1.52a3,3,0,0,0-.7-.05,4.92,4.92,0,0,0-3.66,2.3v9.4Z"/><path class="cls-1" d="M182.87,63.9V54.72h-2.14V53.49h2.14V50h1.42v3.53h2.62v1.23h-2.62v9c0,1,.43,1.76,1.34,1.76a2,2,0,0,0,1.44-.61l.54,1.07a2.9,2.9,0,0,1-2.19.8c-1.71,0-2.54-1-2.54-2.81"/><path class="cls-1" d="M188.69,59.92c0-3.77,2.4-6.76,6.17-6.76s6.22,3,6.22,6.76-2.4,6.78-6.22,6.78-6.17-3-6.17-6.78m10.9,0c0-2.86-1.68-5.5-4.73-5.5s-4.7,2.64-4.7,5.5,1.71,5.53,4.7,5.53,4.73-2.64,4.73-5.53"/><path class="cls-1" d="M104.37,81.18a6.56,6.56,0,0,1,6.84-6.76,6,6,0,0,1,5.1,2.32l-2.22,2.08a3.13,3.13,0,0,0-2.72-1.39,3.76,3.76,0,0,0,0,7.51,3.21,3.21,0,0,0,2.72-1.42l2.22,2.08a6,6,0,0,1-5.1,2.35,6.57,6.57,0,0,1-6.84-6.78"/><path class="cls-1" d="M126.73,87.65V79.8c0-1.79-.94-2.35-2.38-2.35a3.73,3.73,0,0,0-2.94,1.5v8.71H118V69.83h3.42V76.4a6,6,0,0,1,4.51-2c2.83,0,4.19,1.55,4.19,4.06v9.16Z"/><path class="cls-1" d="M141.82,87.65V86a5,5,0,0,1-4,2c-3.23,0-5.72-2.46-5.72-6.78s2.43-6.76,5.72-6.76a4.93,4.93,0,0,1,4,2V74.75h3.42v12.9Zm0-4.17V78.94a3.7,3.7,0,0,0-2.91-1.49c-1.95,0-3.29,1.52-3.29,3.74S137,85,138.91,85a3.68,3.68,0,0,0,2.91-1.47"/><path class="cls-1" d="M156.78,87.65v-7.8a2.09,2.09,0,0,0-2.38-2.4,3.77,3.77,0,0,0-2.94,1.5v8.71h-3.39V74.75h3.39V76.4a6,6,0,0,1,4.51-2c2.86,0,4.22,1.6,4.22,4.11v9.11Z"/><path class="cls-1" d="M162.73,91l1.52-2.43a5.23,5.23,0,0,0,4,1.58c1.63,0,3.58-.7,3.58-3.31V85.54a5,5,0,0,1-4,2c-3.21,0-5.69-2.24-5.69-6.54s2.43-6.57,5.69-6.57a4.94,4.94,0,0,1,4,2V74.75h3.39v12c0,4.89-3.79,6.09-7,6.09A7.86,7.86,0,0,1,162.73,91m9.14-7.88V78.89A3.82,3.82,0,0,0,169,77.44c-1.95,0-3.29,1.34-3.29,3.55S167,84.55,169,84.55a3.84,3.84,0,0,0,2.91-1.47"/><path class="cls-1" d="M177.26,81.18a6.58,6.58,0,0,1,6.68-6.76c3.87,0,6.46,2.89,6.46,7.08v.8h-9.59a3.46,3.46,0,0,0,3.71,2.88,5.4,5.4,0,0,0,3.42-1.26l1.52,2.24A8,8,0,0,1,184.15,88a6.53,6.53,0,0,1-6.89-6.78m6.68-4A3,3,0,0,0,180.79,80h6.36a3,3,0,0,0-3.2-2.75"/><rect class="cls-1" x="212.15" y="43.64" width="0.95" height="53.86"/><path class="cls-1" d="M224.15,60.81V50.69h1.14v3.9a3.07,3.07,0,0,1,2.47-1.29c1.93,0,3.26,1.5,3.26,3.85S229.67,61,227.76,61a3.09,3.09,0,0,1-2.47-1.28v1.09Zm3.34-.84c1.47,0,2.35-1.2,2.35-2.82s-.88-2.84-2.35-2.84a2.73,2.73,0,0,0-2.2,1.18v3.32a2.7,2.7,0,0,0,2.2,1.15"/><path class="cls-1" d="M237.82,60.81v-1A3.59,3.59,0,0,1,235.21,61a2.07,2.07,0,0,1-2.34-2.34V53.48H234v4.83c0,1.29.65,1.67,1.65,1.67a2.8,2.8,0,0,0,2.16-1.11V53.48H239v7.33Z"/><path class="cls-1" d="M240.62,59.84l.58-.82a3.32,3.32,0,0,0,2.41,1c1.12,0,1.75-.53,1.75-1.26,0-1.78-4.54-.68-4.54-3.4,0-1.15,1-2.11,2.72-2.11a3.66,3.66,0,0,1,2.72,1.06l-.53.79a2.83,2.83,0,0,0-2.19-.93c-1,0-1.62.5-1.62,1.15,0,1.59,4.54.55,4.54,3.4,0,1.23-1,2.22-2.87,2.22a3.94,3.94,0,0,1-3-1.15"/><path class="cls-1" d="M248.1,51.68a.78.78,0,0,1,.77-.78.76.76,0,0,1,.76.78.75.75,0,0,1-.76.76.76.76,0,0,1-.77-.76m.2,1.81h1.14v7.33H248.3Z"/><path class="cls-1" d="M256.68,60.81V56c0-1.31-.67-1.7-1.66-1.7a2.86,2.86,0,0,0-2.17,1.14v5.36h-1.14V53.48h1.14v1.06a3.59,3.59,0,0,1,2.63-1.24,2.08,2.08,0,0,1,2.32,2.37v5.15Z"/><path class="cls-1" d="M259.67,57.14a3.67,3.67,0,0,1,3.61-3.84c2.22,0,3.52,1.73,3.52,3.93v.29h-5.92a2.57,2.57,0,0,0,2.63,2.53,3.19,3.19,0,0,0,2.28-.94l.55.74A4,4,0,0,1,263.42,61a3.64,3.64,0,0,1-3.75-3.86m3.6-2.9a2.44,2.44,0,0,0-2.4,2.43h4.81a2.37,2.37,0,0,0-2.41-2.43"/><path class="cls-1" d="M268,59.84l.58-.82a3.32,3.32,0,0,0,2.41,1c1.12,0,1.75-.53,1.75-1.26,0-1.78-4.54-.68-4.54-3.4,0-1.15,1-2.11,2.72-2.11a3.66,3.66,0,0,1,2.72,1.06l-.53.79a2.83,2.83,0,0,0-2.19-.93c-1,0-1.62.5-1.62,1.15,0,1.59,4.54.55,4.54,3.4,0,1.23-1,2.22-2.87,2.22a3.94,3.94,0,0,1-3-1.15"/><path class="cls-1" d="M275.07,59.84l.58-.82a3.32,3.32,0,0,0,2.41,1c1.12,0,1.75-.53,1.75-1.26,0-1.78-4.54-.68-4.54-3.4,0-1.15,1-2.11,2.72-2.11a3.66,3.66,0,0,1,2.72,1.06l-.53.79a2.84,2.84,0,0,0-2.19-.93c-1,0-1.62.5-1.62,1.15,0,1.59,4.54.55,4.54,3.4,0,1.23-1,2.22-2.87,2.22a3.94,3.94,0,0,1-3-1.15"/><path class="cls-1" d="M286.49,51.68a.78.78,0,0,1,.77-.78.77.77,0,0,1,.76.78.75.75,0,0,1-.76.76.76.76,0,0,1-.77-.76m.2,1.81h1.14v7.33h-1.14Z"/><path class="cls-1" d="M295.07,60.81V56c0-1.31-.67-1.7-1.66-1.7a2.86,2.86,0,0,0-2.17,1.14v5.36H290.1V53.48h1.14v1.06a3.59,3.59,0,0,1,2.63-1.24,2.08,2.08,0,0,1,2.32,2.37v5.15Z"/><path class="cls-1" d="M223.72,70.56a3.62,3.62,0,0,1,3.66-3.84A3.14,3.14,0,0,1,230.07,68l-.76.68a2.16,2.16,0,0,0-1.87-.94,2.85,2.85,0,0,0,0,5.66,2.21,2.21,0,0,0,1.87-1l.76.7a3.14,3.14,0,0,1-2.69,1.28,3.64,3.64,0,0,1-3.66-3.86"/><path class="cls-1" d="M231.25,70.56a3.63,3.63,0,1,1,3.63,3.86,3.6,3.6,0,0,1-3.63-3.86m6.06,0a2.46,2.46,0,1,0-2.43,2.84,2.55,2.55,0,0,0,2.43-2.84"/><path class="cls-1" d="M249.21,74.23v-5c0-.93-.4-1.52-1.35-1.52a2.53,2.53,0,0,0-1.94,1.12v5.37h-1.14v-5c0-.93-.38-1.52-1.35-1.52a2.56,2.56,0,0,0-1.93,1.14v5.36h-1.14V66.9h1.14V68a3.21,3.21,0,0,1,2.38-1.24,1.87,1.87,0,0,1,2,1.37,3.09,3.09,0,0,1,2.46-1.37c1.34,0,2,.74,2,2.22v5.3Z"/><path class="cls-1" d="M261.47,74.23v-5c0-.93-.39-1.52-1.35-1.52a2.52,2.52,0,0,0-1.94,1.12v5.37H257v-5c0-.93-.38-1.52-1.35-1.52a2.56,2.56,0,0,0-1.93,1.14v5.36h-1.14V66.9h1.14V68a3.2,3.2,0,0,1,2.38-1.24,1.88,1.88,0,0,1,2,1.37,3.08,3.08,0,0,1,2.46-1.37c1.34,0,2,.74,2,2.22v5.3Z"/><path class="cls-1" d="M269.84,74.23v-1a3.59,3.59,0,0,1-2.61,1.21,2.07,2.07,0,0,1-2.34-2.34V66.9H266v4.83c0,1.29.65,1.67,1.65,1.67a2.8,2.8,0,0,0,2.16-1.11V66.9H271v7.33Z"/><path class="cls-1" d="M278.22,74.23v-4.8c0-1.3-.67-1.7-1.66-1.7a2.85,2.85,0,0,0-2.17,1.14v5.36h-1.14V66.9h1.14V68A3.58,3.58,0,0,1,277,66.72a2.08,2.08,0,0,1,2.32,2.37v5.15Z"/><path class="cls-1" d="M281.43,65.09a.78.78,0,0,1,.77-.77.76.76,0,0,1,.76.77.75.75,0,0,1-.76.76.76.76,0,0,1-.77-.76m.2,1.81h1.14v7.33h-1.14Z"/><path class="cls-1" d="M285.59,72.7V67.9h-1.22v-1h1.22v-2h1.15v2h1.49v1h-1.49v4.55c0,.55.24.94.73.94a1.08,1.08,0,0,0,.77-.32l.34.87a1.85,1.85,0,0,1-1.35.47,1.5,1.5,0,0,1-1.64-1.72"/><path class="cls-1" d="M290,76.1l.58-.82a2.75,2.75,0,0,0,2.23,1A2,2,0,0,0,295,74.14V73a3.59,3.59,0,0,1-2.61,1.21,2.06,2.06,0,0,1-2.34-2.34v-5h1.14v4.67c0,1.29.65,1.68,1.65,1.68A2.84,2.84,0,0,0,295,72.15V66.9h1.14v7.24c0,2.08-1.55,3.07-3.36,3.07A3.67,3.67,0,0,1,290,76.1"/><path class="cls-1" d="M229.11,87.65V82.82c0-1.31-.65-1.67-1.66-1.67a2.82,2.82,0,0,0-2.16,1.14v5.36h-1.14V77.52h1.14v3.86a3.52,3.52,0,0,1,2.61-1.24,2.06,2.06,0,0,1,2.34,2.34v5.18Z"/><path class="cls-1" d="M237.84,87.65V86.56a3.08,3.08,0,0,1-2.47,1.28c-1.91,0-3.26-1.46-3.26-3.84s1.35-3.85,3.26-3.85a3.06,3.06,0,0,1,2.47,1.29V80.32H239v7.33Zm0-2V82.34a2.72,2.72,0,0,0-2.19-1.18c-1.49,0-2.37,1.21-2.37,2.84s.88,2.82,2.37,2.82a2.71,2.71,0,0,0,2.19-1.17"/><path class="cls-1" d="M246.22,87.65v-4.8c0-1.3-.67-1.7-1.66-1.7a2.85,2.85,0,0,0-2.17,1.14v5.36h-1.14V80.32h1.14v1.06A3.58,3.58,0,0,1,245,80.14a2.08,2.08,0,0,1,2.32,2.37v5.15Z"/><path class="cls-1" d="M254.95,87.65V86.56a3.09,3.09,0,0,1-2.47,1.28c-1.91,0-3.26-1.46-3.26-3.84s1.35-3.85,3.26-3.85a3.07,3.07,0,0,1,2.47,1.29v-3.9h1.14V87.65Zm0-2V82.34a2.72,2.72,0,0,0-2.19-1.18c-1.49,0-2.37,1.21-2.37,2.84s.88,2.82,2.37,2.82a2.71,2.71,0,0,0,2.19-1.17"/><path class="cls-1" d="M257.74,86.68l.58-.82a3.32,3.32,0,0,0,2.42,1c1.12,0,1.74-.53,1.74-1.26,0-1.78-4.54-.68-4.54-3.4,0-1.15,1-2.11,2.72-2.11a3.66,3.66,0,0,1,2.72,1.06l-.53.79a2.83,2.83,0,0,0-2.18-.93c-1,0-1.62.5-1.62,1.15,0,1.59,4.54.55,4.54,3.4,0,1.23-1,2.22-2.87,2.22a3.93,3.93,0,0,1-3-1.15"/><path class="cls-1" d="M66.61,43.64A26.93,26.93,0,1,0,93.54,70.57,26.93,26.93,0,0,0,66.61,43.64M84.55,80.5a46.7,46.7,0,0,1-7.81,7.84,15.91,15.91,0,0,1-20.16.08,47.48,47.48,0,0,1-7.82-7.82,15.91,15.91,0,0,1,0-20.07,47.47,47.47,0,0,1,7.82-7.82,15.91,15.91,0,0,1,20.07,0,47.45,47.45,0,0,1,7.82,7.82,15.91,15.91,0,0,1,.08,20"/><path class="cls-2" d="M84.47,60.53a47.45,47.45,0,0,0-7.82-7.82,15.91,15.91,0,0,0-20.07,0,47.46,47.46,0,0,0-7.82,7.82,15.91,15.91,0,0,0,0,20.07,47.47,47.47,0,0,0,7.82,7.82,15.91,15.91,0,0,0,20.16-.08,46.68,46.68,0,0,0,7.81-7.84,15.91,15.91,0,0,0-.08-20m-5.07,16-6.83,6.83a8.45,8.45,0,0,1-11.92,0l-6.83-6.83a8.45,8.45,0,0,1,0-11.92l6.83-6.83a8.45,8.45,0,0,1,11.91,0l6.83,6.83a8.45,8.45,0,0,1,0,11.92"/><path class="cls-3" d="M72.57,57.77a8.45,8.45,0,0,0-11.92,0l-6.83,6.83a8.45,8.45,0,0,0,0,11.92l6.83,6.83a8.45,8.45,0,0,0,11.92,0l6.83-6.83a8.45,8.45,0,0,0,0-11.92Zm-6,22.75-10-10,10-10,10,10Z"/><rect class="cls-4" x="59.57" y="63.53" width="14.08" height="14.08" transform="translate(-30.39 67.78) rotate(-45)"/><rect class="cls-5" y="16.71" width="366.39" height="140.32"/></svg>