<svg id="Layer_1" data-name="Layer 1" xmlns="http://www.w3.org/2000/svg" xmlns:xlink="http://www.w3.org/1999/xlink" viewBox="0 0 300 200"><defs><style>.cls-1{fill:none;}.cls-2{clip-path:url(#clip-path);}.cls-3{clip-path:url(#clip-path-2);}.cls-4{fill:#1d1d1b;}</style><clipPath id="clip-path"><rect class="cls-1" x="12" y="69.5" width="276" height="61"/></clipPath><clipPath id="clip-path-2"><rect class="cls-1" x="12" y="69.5" width="276" height="61"/></clipPath></defs><title>UnLtd</title><g class="cls-2"><g class="cls-3"><path class="cls-4" d="M277.93,92a6.85,6.85,0,0,0-7.76-5.8l-14.66,2.12v-12a6.85,6.85,0,1,0-13.7,0v12l-14.65-2.12a6.85,6.85,0,0,0-2,13.56l13,1.88-9.65,18.84a6.85,6.85,0,0,0,12.2,6.25l7.91-15.47,7.9,15.47a6.85,6.85,0,0,0,12.2-6.25l-9.65-18.84,13-1.88a6.86,6.86,0,0,0,5.8-7.77"/><path class="cls-4" d="M12,104.39V81a4.15,4.15,0,0,1,8.31,0V104c0,8.78,4.52,13.45,12,13.45s11.88-4.39,11.88-13.11V81a4.16,4.16,0,0,1,8.32,0v23c0,14.11-8,21.2-20.33,21.2S12,118.1,12,104.39"/><path class="cls-4" d="M58.86,92.5a4,4,0,0,1,4-4.12A4.09,4.09,0,0,1,67,92.5v1.76C69.33,90.95,72.64,88,78.17,88c8,0,12.7,5.41,12.7,13.65v19a4,4,0,0,1-4.05,4,4,4,0,0,1-4.12-4V104.19c0-5.54-2.76-8.72-7.63-8.72s-8,3.31-8,8.85v16.42a4.09,4.09,0,0,1-8.17,0Z"/><path class="cls-4" d="M97.63,81a4.15,4.15,0,0,1,8.3,0v35.93h21.4a3.78,3.78,0,1,1,0,7.56H101.81a4.12,4.12,0,0,1-4.18-4.19Z"/><path class="cls-4" d="M134.76,114.6V95.81h-1.35a3.51,3.51,0,0,1,0-7h1.35V82.7a4.09,4.09,0,0,1,8.17,0v6.08h6.42a3.51,3.51,0,1,1,0,7h-6.42v17.5c0,3.17,1.63,4.45,4.39,4.45a19.25,19.25,0,0,0,2-.2,3.44,3.44,0,0,1,3.44,3.38,3.52,3.52,0,0,1-2.16,3.17,16.11,16.11,0,0,1-5.6.95c-6,0-10.27-2.64-10.27-10.47"/><path class="cls-4" d="M162.18,106.55v.14c0,6.88,4.73,11.41,10.26,11.41s10.33-4.59,10.33-11.41v-.14c0-6.89-4.86-11.41-10.33-11.41s-10.26,4.32-10.26,11.41m28.63,14.19a4.09,4.09,0,0,1-8.17,0v-2.23c-2.63,3.71-6.35,6.68-12.16,6.68-8.37,0-16.54-6.68-16.54-18.5v-.14c0-11.82,8-18.51,16.54-18.51a14.56,14.56,0,0,1,12.16,6.29V78.86a4.09,4.09,0,0,1,8.17,0Z"/></g></g></svg>