<svg xmlns="http://www.w3.org/2000/svg" viewBox="0 0 91.2 91.2"><defs><style>.cls-1{fill:none;}.cls-2{fill:none;}.cls-3{fill:#96c933;}.cls-4{fill:#fff;}</style></defs><title>Asset 15</title><g id="Layer_2" data-name="Layer 2"><g id="content"><path class="cls-1" d="M91.2,45.6A45.6,45.6,0,1,0,24.6,86.07V13.39h42V86.08A45.59,45.59,0,0,0,91.2,45.6Z"/><path class="cls-1" d="M66.6,13.39h-42V86.07a45.31,45.31,0,0,0,13,4.42V56.54c0-2.19-2.72-5.15-2.72-5.15h0A17.86,17.86,0,0,1,27.38,37c0-9.85,8.29-17.64,18.15-17.64a17.86,17.86,0,0,1,5.62.91L40.29,31.17l.56,11.28L52.12,43,62.75,32.35a17.71,17.71,0,0,1-7.83,20h0s-2.32,1.82-2.32,3.88V90.66a45.27,45.27,0,0,0,14-4.59V13.39Z"/><polygon class="cls-2" points="37.6 90.49 37.59 90.48 37.6 90.49 37.6 90.49"/><path class="cls-2" d="M57.6,89.59l.92-.26Z"/><path class="cls-2" d="M52.61,90.66c.67-.1,1.33-.22,2-.35C53.94,90.44,53.28,90.56,52.61,90.66Z"/><path class="cls-2" d="M55.45,90.12l1.14-.26Z"/><path class="cls-2" d="M59.63,89l.69-.23Z"/><path class="cls-3" d="M54.59,90.31l.86-.19Z"/><path class="cls-3" d="M24.6,86.07h0a45.27,45.27,0,0,0,13,4.41A45.31,45.31,0,0,1,24.6,86.07Z"/><path class="cls-3" d="M66.45,86.15a45.63,45.63,0,0,1-6.12,2.6A45.32,45.32,0,0,0,66.45,86.15Z"/><path class="cls-3" d="M58.52,89.33,59.63,89Z"/><path class="cls-4" d="M52.61,90.66h0V56.28c0-2.06,2.32-3.88,2.32-3.88h0a17.71,17.71,0,0,0,7.83-20L52.12,43l-11.28-.55-.56-11.28L51.15,20.3a17.86,17.86,0,0,0-5.62-.91c-9.85,0-18.15,7.79-18.15,17.64a17.86,17.86,0,0,0,7.51,14.36h0s2.72,3,2.72,5.15V90.49a45.56,45.56,0,0,0,15,.18Z"/><path class="cls-3" d="M56.59,89.86l1-.26Z"/></g></g></svg>
