<svg xmlns="http://www.w3.org/2000/svg" xmlns:xlink="http://www.w3.org/1999/xlink" viewBox="0 0 91.2 91.2"><defs><style>.cls-1{fill:none;}.cls-2{clip-path:url(#clip-path);}.cls-3{fill:none;}.cls-4{fill:#fff;}</style><clipPath id="clip-path" transform="translate(0)"><circle class="cls-1" cx="45.6" cy="45.6" r="45.6"/></clipPath></defs><title>Asset 5</title><g id="Layer_2" data-name="Layer 2"><g id="content"><g class="cls-2"><path class="cls-3" d="M21.74,84.46,64.91,41.3,50.29,26.68,7,69.93A45.83,45.83,0,0,0,21.74,84.46Z" transform="translate(0)"/><path class="cls-3" d="M45.6,0A45.61,45.61,0,0,0,5.47,67.27L50.29,22.44,69.15,41.3,24.45,86A45.6,45.6,0,1,0,45.6,0Z" transform="translate(0)"/><path class="cls-4" d="M50.29,22.44,5.47,67.27c.49.91,1,1.8,1.57,2.67L50.29,26.68,64.91,41.3,21.74,84.46c.88.54,1.79,1.05,2.71,1.53l44.7-44.7Z" transform="translate(0)"/><rect class="cls-4" x="41.47" y="52.76" width="1" height="10" transform="translate(-28.55 46.59) rotate(-45)"/><rect class="cls-4" x="32.75" y="54.24" width="1" height="16" transform="translate(-34.27 41.74) rotate(-45)"/><rect class="cls-4" x="27.86" y="66.37" width="1" height="10" transform="translate(-42.16 40.96) rotate(-45)"/><rect class="cls-4" x="19.14" y="67.84" width="1" height="16" transform="translate(-47.88 36.1) rotate(-45)"/><rect class="cls-4" x="53.86" y="41.37" width="1" height="10" transform="translate(-16.86 52.02) rotate(-45)"/><rect class="cls-4" x="45.14" y="42.84" width="1" height="16" transform="translate(-22.58 47.17) rotate(-45)"/></g></g></g></svg>
