<svg xmlns="http://www.w3.org/2000/svg" viewBox="0 0 91.2 91.2"><defs><style>.cls-1{fill:#6696c9;}.cls-2{fill:#fff;}</style></defs><title>Asset 3</title><g id="Layer_2" data-name="Layer 2"><g id="content"><path class="cls-1" d="M45.6,91.2A45.53,45.53,0,0,0,82.49,72.39H8.71A45.53,45.53,0,0,0,45.6,91.2Z"/><path class="cls-1" d="M91.2,45.6A45.6,45.6,0,0,0,47.6.05V59.36L59,47.07,62,49.8,45.6,67.39,29.24,49.8l2.93-2.73L43.6,59.37V.05A45.59,45.59,0,0,0,6.11,68.39h79A45.37,45.37,0,0,0,91.2,45.6Z"/><path class="cls-2" d="M45.6,61.52l2-2.16V.05c-.66,0-1.33-.05-2-.05s-1.34,0-2,.05V59.37Z"/><polygon class="cls-2" points="43.6 63.39 43.6 59.37 32.17 47.07 29.24 49.8 45.6 67.39 61.95 49.8 59.03 47.07 47.6 59.37 47.6 63.39 43.6 63.39"/><polygon class="cls-2" points="43.6 59.37 43.6 63.39 47.6 63.39 47.6 59.37 45.6 61.52 43.6 59.37"/><path class="cls-2" d="M6.11,68.39a45.66,45.66,0,0,0,2.6,4H82.49a45.67,45.67,0,0,0,2.6-4Z"/></g></g></svg>