<svg xmlns="http://www.w3.org/2000/svg" viewBox="0 0 91.2 91.2"><defs><style>.cls-1{fill:#669696;}.cls-2{fill:#fff;}</style></defs><title>Asset 7</title><g id="Layer_2" data-name="Layer 2"><g id="content"><circle class="cls-1" cx="45.6" cy="45.6" r="45.6"/><path class="cls-2" d="M39.6,56.39h0V67.78a4,4,0,0,0,3.78,3.62h5.11a3.37,3.37,0,0,0,3.11-3.62V56.39h.24a3.8,3.8,0,0,0,3.76-3.52V36.71a3.76,3.76,0,0,0-2-3V51.39h-6V39.27l2.85-5.88h0c.11,0,.16-.73.16-1.07V25.39H53L51.6,22.84v-.47c0-1.33-1.14-2-2.46-2H43.64a1.79,1.79,0,0,0-2,2v3h1v6.93a2.64,2.64,0,0,0,.2.94l2.8,6V51.39h-6v-18a3.3,3.3,0,0,0-3,3.36V52.88A3.52,3.52,0,0,0,40,56.39"/></g></g></svg>