<svg xmlns="http://www.w3.org/2000/svg" viewBox="0 0 101 126.24"><defs><style>.cls-1{fill:none;}.cls-2{fill:#fff;}</style></defs><title>Asset 2</title><g id="Layer_2" data-name="Layer 2"><g id="content"><polygon class="cls-1" points="68.79 22.77 59.58 31.99 56.75 29.16 65.88 20.02 50.53 5.5 34.63 20.54 43.25 29.16 40.42 31.99 31.69 23.29 4 49.45 4 65.24 97 65.24 97 49.45 68.79 22.77"/><polygon class="cls-1" points="4 122.24 20 122.24 20 114.24 24 114.24 24 122.24 77 122.24 77 114.24 81 114.24 81 122.24 97 122.24 97 69.24 4 69.24 4 122.24"/><polygon class="cls-2" points="4 49.45 31.69 23.29 28.85 20.46 0 47.73 0 65.24 4 65.24 4 49.45"/><polygon class="cls-2" points="50.53 5.5 65.88 20.02 68.71 17.19 50.53 0 31.8 17.71 34.63 20.54 50.53 5.5"/><polygon class="cls-2" points="97 49.45 97 65.24 101 65.24 101 47.73 71.62 19.94 68.79 22.77 97 49.45"/><polygon class="cls-2" points="4 122.24 4 69.24 0 69.24 0 126.24 20 126.24 20 122.24 4 122.24"/><polygon class="cls-2" points="97 122.24 81 122.24 81 126.24 101 126.24 101 69.24 97 69.24 97 122.24"/><rect class="cls-2" x="24" y="122.24" width="53" height="4"/></g></g></svg>