<svg xmlns="http://www.w3.org/2000/svg" xmlns:xlink="http://www.w3.org/1999/xlink" viewBox="0 0 582.49 557.47"><defs><style>.cls-1,.cls-15,.cls-18,.cls-20,.cls-22,.cls-24,.cls-26,.cls-28,.cls-30,.cls-32,.cls-34,.cls-36,.cls-38{fill:none;}.cls-2{clip-path:url(#clip-path);}.cls-3{clip-path:url(#clip-path-3);}.cls-4{clip-path:url(#clip-path-5);}.cls-5{clip-path:url(#clip-path-7);}.cls-6{clip-path:url(#clip-path-9);}.cls-7{clip-path:url(#clip-path-11);}.cls-8{clip-path:url(#clip-path-13);}.cls-9{clip-path:url(#clip-path-15);}.cls-10{clip-path:url(#clip-path-17);}.cls-11{clip-path:url(#clip-path-19);}.cls-12{clip-path:url(#clip-path-21);}.cls-13{clip-path:url(#clip-path-23);}.cls-14{clip-path:url(#clip-path-25);}.cls-15,.cls-18,.cls-20,.cls-22,.cls-24,.cls-26,.cls-28,.cls-30,.cls-32,.cls-34,.cls-36,.cls-38{stroke:#231f20;stroke-miterlimit:10;}.cls-15{stroke-width:2.7px;}.cls-16{fill:#231f20;}.cls-17{clip-path:url(#clip-path-28);}.cls-18{stroke-width:2.7px;}.cls-19{clip-path:url(#clip-path-31);}.cls-20{stroke-width:2.71px;}.cls-21{clip-path:url(#clip-path-34);}.cls-22{stroke-width:2.7px;}.cls-23{clip-path:url(#clip-path-37);}.cls-24{stroke-width:2.77px;}.cls-25{clip-path:url(#clip-path-40);}.cls-26{stroke-width:2.69px;}.cls-27{clip-path:url(#clip-path-43);}.cls-28{stroke-width:2.75px;}.cls-29{clip-path:url(#clip-path-46);}.cls-30{stroke-width:2.7px;}.cls-31{clip-path:url(#clip-path-49);}.cls-32{stroke-width:2.71px;}.cls-33{clip-path:url(#clip-path-52);}.cls-34{stroke-width:2.75px;}.cls-35{clip-path:url(#clip-path-55);}.cls-36{stroke-width:2.7px;}.cls-37{clip-path:url(#clip-path-58);}.cls-38{stroke-width:2.69px;}.cls-39{clip-path:url(#clip-path-61);}.cls-40{clip-path:url(#clip-path-63);}.cls-41{clip-path:url(#clip-path-66);}.cls-42{clip-path:url(#clip-path-68);}.cls-43{clip-path:url(#clip-path-70);}.cls-44{clip-path:url(#clip-path-73);}.cls-45{clip-path:url(#clip-path-75);}.cls-46{clip-path:url(#clip-path-77);}.cls-47{clip-path:url(#clip-path-78);}.cls-48{clip-path:url(#clip-path-79);}.cls-49{clip-path:url(#clip-path-81);}.cls-50{fill:#1d1d1b;}.cls-51{clip-path:url(#clip-path-83);}</style><clipPath id="clip-path"><rect class="cls-1" x="109.3" y="71" width="94" height="73"/></clipPath><clipPath id="clip-path-3"><rect class="cls-1" x="207.3" y="53" width="115" height="19"/></clipPath><clipPath id="clip-path-5"><rect class="cls-1" x="324.3" y="56" width="108" height="48"/></clipPath><clipPath id="clip-path-7"><rect class="cls-1" x="433.3" y="104" width="73" height="96"/></clipPath><clipPath id="clip-path-9"><rect class="cls-1" x="505.3" y="203" width="17" height="113"/></clipPath><clipPath id="clip-path-11"><rect class="cls-1" x="473.3" y="318" width="47" height="108"/></clipPath><clipPath id="clip-path-13"><rect class="cls-1" x="374.3" y="427" width="96" height="74"/></clipPath><clipPath id="clip-path-15"><rect class="cls-1" x="257.3" y="499" width="114" height="18"/></clipPath><clipPath id="clip-path-17"><rect class="cls-1" x="148.3" y="466" width="106" height="48"/></clipPath><clipPath id="clip-path-19"><rect class="cls-1" x="75.3" y="372" width="72" height="94"/></clipPath><clipPath id="clip-path-21"><rect class="cls-1" x="58.3" y="255" width="18" height="113"/></clipPath><clipPath id="clip-path-23"><rect class="cls-1" x="61.3" y="145" width="47" height="107"/></clipPath><clipPath id="clip-path-25"><rect class="cls-1" x="304.3" y="477" width="22" height="36"/></clipPath><clipPath id="clip-path-28"><rect class="cls-1" x="402.3" y="440" width="24" height="29"/></clipPath><clipPath id="clip-path-31"><rect class="cls-1" x="468.3" y="356" width="35" height="20"/></clipPath><clipPath id="clip-path-34"><rect class="cls-1" x="485.3" y="252" width="36" height="22"/></clipPath><clipPath id="clip-path-37"><rect class="cls-1" x="445.3" y="148" width="30" height="25"/></clipPath><clipPath id="clip-path-40"><rect class="cls-1" x="362.3" y="75" width="21" height="34"/></clipPath><clipPath id="clip-path-43"><rect class="cls-1" x="253.3" y="57" width="22" height="36"/></clipPath><clipPath id="clip-path-46"><rect class="cls-1" x="148.3" y="106" width="25" height="28"/></clipPath><clipPath id="clip-path-49"><rect class="cls-1" x="76.3" y="195" width="34" height="20"/></clipPath><clipPath id="clip-path-52"><rect class="cls-1" x="62.3" y="302" width="35" height="23"/></clipPath><clipPath id="clip-path-55"><rect class="cls-1" x="105.3" y="397" width="29" height="25"/></clipPath><clipPath id="clip-path-58"><rect class="cls-1" x="192.3" y="458" width="20" height="34"/></clipPath><clipPath id="clip-path-61"><rect class="cls-1" x="390.3" y="23" width="27" height="35"/></clipPath><clipPath id="clip-path-63"><rect class="cls-1" x="245.3" width="38" height="34"/></clipPath><clipPath id="clip-path-66"><rect class="cls-1" x="496.3" y="102" width="15" height="36"/></clipPath><clipPath id="clip-path-68"><rect class="cls-1" x="433.3" y="485" width="55" height="35"/></clipPath><clipPath id="clip-path-70"><rect class="cls-1" x="537.3" y="241" width="45" height="35"/></clipPath><clipPath id="clip-path-73"><rect class="cls-1" x="33.3" y="167" width="14" height="38"/></clipPath><clipPath id="clip-path-75"><rect class="cls-1" x="530.3" y="368" width="18" height="38"/></clipPath><clipPath id="clip-path-77"><rect class="cls-1" x="310.3" y="531" width="45" height="26"/></clipPath><clipPath id="clip-path-78"><rect class="cls-1" x="0.3" y="299" width="32" height="32"/></clipPath><clipPath id="clip-path-79"><rect class="cls-1" x="113.3" y="62" width="13" height="37"/></clipPath><clipPath id="clip-path-81"><rect class="cls-1" x="58.3" y="420" width="18" height="57"/></clipPath><clipPath id="clip-path-83"><rect class="cls-1" x="167.3" y="506" width="14" height="37"/></clipPath></defs><title>clock</title><g id="Layer_2" data-name="Layer 2"><g id="menu_bar" data-name="menu bar"><g class="cls-2"><g class="cls-2"><path d="M119.89,134.25a232,232,0,0,1,83.88-60l-1.21-3a235.27,235.27,0,0,0-85.08,60.86c-3,3.34-5.81,6.76-8.56,10.22l2.55,2c2.72-3.42,5.51-6.78,8.43-10.07"/></g></g><g class="cls-3"><g class="cls-3"><path d="M279.06,56.61q7-.41,13.91-.41A231.85,231.85,0,0,1,321.36,58l.45-3.21A235.9,235.9,0,0,0,207.28,68.94l1.21,3a233.42,233.42,0,0,1,70.57-15.34"/></g></g><g class="cls-4"><g class="cls-4"><path d="M430.15,104.26l2-2.52A235.46,235.46,0,0,0,325.07,56.49l-.45,3.18a232.31,232.31,0,0,1,105.53,44.6"/></g></g><g class="cls-5"><g class="cls-5"><path d="M502.93,199.82l3-1.2a237.6,237.6,0,0,0-71.05-95.06l-2,2.58a234.23,234.23,0,0,1,70.1,93.68"/></g></g><g class="cls-6"><g class="cls-6"><path d="M519.27,273.16A242.91,242.91,0,0,1,518,315.31l3.09.45a244.83,244.83,0,0,0-12.91-112.42l-2.93,1.23a240.79,240.79,0,0,1,14.06,68.59"/></g></g><g class="cls-7"><g class="cls-7"><path d="M517.47,317.87a234,234,0,0,1-44.59,106.21l2.53,2a237.14,237.14,0,0,0,45.25-107.76Z"/></g></g><g class="cls-8"><g class="cls-8"><path d="M374.51,497.55l1.21,3a237,237,0,0,0,95.05-71.08l-2.55-2a233.73,233.73,0,0,1-93.72,70.07"/></g></g><g class="cls-9"><g class="cls-9"><path d="M302.31,513.74a233.09,233.09,0,0,1-44.69-1.64l-.45,3.24a235,235,0,0,0,31.08,2.08q7.1,0,14.25-.42a233.48,233.48,0,0,0,69.2-14.82l-1.21-3a230.33,230.33,0,0,1-68.18,14.59"/></g></g><g class="cls-10"><g class="cls-10"><path d="M150.26,466.13l-2,2.54A234.87,234.87,0,0,0,253.9,513.91l.46-3.19a231.74,231.74,0,0,1-104.1-44.59"/></g></g><g class="cls-11"><g class="cls-11"><path d="M139.27,456.66A230.85,230.85,0,0,1,78.2,372l-3,1.2a234.06,234.06,0,0,0,61.92,85.89q4.15,3.64,8.43,7.07l2-2.55c-2.8-2.24-5.57-4.54-8.29-6.92"/></g></g><g class="cls-12"><g class="cls-12"><path d="M61.92,297.82a238.9,238.9,0,0,1,1.29-42L60,255.33A240.35,240.35,0,0,0,73.62,368.46l3-1.21a236.52,236.52,0,0,1-14.67-69.43"/></g></g><g class="cls-13"><g class="cls-13"><path d="M108.21,147l-2.55-2A233.61,233.61,0,0,0,61.13,251.37l3.2.45A230.38,230.38,0,0,1,108.21,147"/></g></g><g class="cls-14"><g class="cls-14"><line class="cls-15" x1="318.64" y1="513" x2="313.83" y2="480.28"/></g></g><g class="cls-14"><polygon class="cls-16" points="313.4 477.37 304.24 490.81 306.47 492.36 313.98 481.31 324.35 489.68 326.03 487.55 313.4 477.37"/></g><g class="cls-17"><g class="cls-17"><line class="cls-18" x1="425.45" y1="468.1" x2="405" y2="442.42"/></g></g><g class="cls-17"><polygon class="cls-16" points="403.18 440.13 401.91 456.25 404.61 456.46 405.65 443.22 418.81 445.22 419.21 442.56 403.18 440.13"/></g><g class="cls-19"><g class="cls-19"><line class="cls-20" x1="502.59" y1="374.73" x2="471.44" y2="362.74"/></g></g><g class="cls-19"><polygon class="cls-16" points="484.04 355.81 468.67 361.67 475.78 376.19 478.26 375.03 472.42 363.12 485.05 358.31 484.04 355.81"/></g><g class="cls-21"><g class="cls-21"><line class="cls-22" x1="521.16" y1="259.21" x2="488.44" y2="264.02"/></g></g><g class="cls-21"><polygon class="cls-16" points="495.71 251.82 485.53 264.45 498.98 273.6 500.51 271.38 489.47 263.87 497.84 253.5 495.71 251.82"/></g><g class="cls-23"><g class="cls-23"><line class="cls-24" x1="474.13" y1="148.92" x2="447.82" y2="169.95"/></g></g><g class="cls-23"><polygon class="cls-16" points="445.48 171.82 461.99 173.12 462.2 170.35 448.65 169.28 450.69 155.74 447.97 155.33 445.48 171.82"/></g><g class="cls-25"><g class="cls-25"><line class="cls-26" x1="381.48" y1="75.95" x2="369.49" y2="106.47"/></g></g><g class="cls-25"><polygon class="cls-16" points="362.56 94.12 368.43 109.18 382.94 102.22 381.79 99.78 369.87 105.5 365.06 93.13 362.56 94.12"/></g><g class="cls-27"><g class="cls-27"><line class="cls-28" x1="260.58" y1="57.39" x2="265.55" y2="90.11"/></g></g><g class="cls-27"><polygon class="cls-16" points="265.39 89.08 254.69 80.71 252.95 82.84 265.99 93.02 275.44 79.58 273.14 78.04 265.39 89.08"/></g><g class="cls-29"><g class="cls-29"><line class="cls-30" x1="149.32" y1="106.51" x2="169.77" y2="132.19"/></g></g><g class="cls-29"><polygon class="cls-16" points="169.12 131.38 155.96 129.38 155.56 132.05 171.58 134.48 172.85 118.36 170.16 118.15 169.12 131.38"/></g><g class="cls-31"><g class="cls-31"><line class="cls-32" x1="76.39" y1="196.37" x2="107.54" y2="208.36"/></g></g><g class="cls-31"><polygon class="cls-16" points="103.2 194.91 100.71 196.06 106.56 207.98 93.93 212.78 94.93 215.28 110.31 209.42 103.2 194.91"/></g><g class="cls-33"><g class="cls-33"><line class="cls-34" x1="62.03" y1="317.27" x2="94.75" y2="312.3"/></g></g><g class="cls-33"><polygon class="cls-16" points="84.22 302.41 82.68 304.7 93.72 312.46 85.36 323.16 87.48 324.9 97.67 311.86 84.22 302.41"/></g><g class="cls-35"><g class="cls-35"><line class="cls-36" x1="106.23" y1="420.8" x2="131.92" y2="400.35"/></g></g><g class="cls-35"><polygon class="cls-16" points="118.09 397.27 117.88 399.96 131.11 401 129.11 414.16 131.77 414.56 134.2 398.54 118.09 397.27"/></g><g class="cls-37"><g class="cls-37"><line class="cls-38" x1="193.28" y1="491.63" x2="205.27" y2="461.11"/></g></g><g class="cls-37"><polygon class="cls-16" points="206.34 458.4 191.82 465.37 192.98 467.8 204.9 462.07 209.7 474.44 212.2 473.46 206.34 458.4"/></g><g class="cls-39"><g class="cls-39"><path d="M392.3,47h0v8.45A2.63,2.63,0,0,0,394.82,58h3.66a2.92,2.92,0,0,0,2.82-2.55V47h-.43a2.15,2.15,0,0,0,2.43-2.09V33.48A2.46,2.46,0,0,0,400.87,31h-1a1,1,0,0,0,.43-.62v-6A1.5,1.5,0,0,0,398.7,23h-3.46c-.71,0-.94.47-.94,1.34v6c0,.24-.31.62-.23.62h-1.64a2.22,2.22,0,0,0-2.12,2.48V44.91A1.91,1.91,0,0,0,392.42,47"/><path d="M390.3,33.48A2.22,2.22,0,0,1,392.42,31h1.64c-.08,0,.23-.38.23-.62v-6c0-.87.22-1.34.94-1.34h3.46a1.5,1.5,0,0,1,1.6,1.34v6a1,1,0,0,1-.43.62h1a2.46,2.46,0,0,1,2.42,2.48V44.91A2.15,2.15,0,0,1,400.87,47h.42v8.45A2.92,2.92,0,0,1,398.48,58h-3.66a2.63,2.63,0,0,1-2.52-2.55V47h.12a1.91,1.91,0,0,1-2.12-2.09Z"/><polygon points="399.57 57.8 397.72 57.06 407.46 33.03 417.37 56.52 415.53 57.28 407.5 38.24 399.57 57.8"/><rect x="405.3" y="29" width="5" height="7"/></g></g><g class="cls-40"><polygon points="245.3 16 245.3 33 247.3 33 247.3 18 281.3 18 281.3 33 283.3 33 283.3 16 245.3 16"/><path d="M270.3,14h-13V5h13Zm-12-1h11V6h-11Z"/><rect x="255.3" y="15" width="16" height="1"/></g><g class="cls-40"><g class="cls-40"><path d="M251.3,24h0v7.61A2.24,2.24,0,0,0,253.48,34h3.58a2.29,2.29,0,0,0,2.24-2.39V24h.11a3.16,3.16,0,0,0,2.89-2.72V10.08c0-1.32-1.57-2.08-2.89-2.08h-1c.07-1-.13-.72-.13-1V1.12c0-.85-.32-1.12-1-1.12h-3.38c-.7,0-1.59.26-1.59,1.12V7c0,.23.37,0,.45,1h-1.61c-1.32,0-2.84.76-2.84,2.08V21.28A3.11,3.11,0,0,0,251.14,24"/><path d="M248.3,10.08c0-1.32,1.52-2.08,2.84-2.08h1.61c-.08-1-.45-.73-.45-1V1.12c0-.85.89-1.12,1.59-1.12h3.38c.7,0,1,.26,1,1.12V7c0,.23.2,0,.13,1h1c1.33,0,2.89.76,2.89,2.08V21.28A3.16,3.16,0,0,1,259.41,24h-.11v7.61A2.29,2.29,0,0,1,257.06,34h-3.58a2.24,2.24,0,0,1-2.18-2.39V24h-.16a3.11,3.11,0,0,1-2.84-2.72Z"/></g></g><g class="cls-41"><g class="cls-41"><path d="M505.3,125v-6.84l3.79-7.28a5.57,5.57,0,0,0-.83.12H507.2c.08-1,.1-.82.1-1.07v-6.17c0-.89-.58-1.77-1.34-1.77h-3.66c-.76,0-1,.88-1,1.77v6.17c0,.24-.31.07-.23,1.07h-1.74a3.35,3.35,0,0,0-.92,0l3.89,7.21V125h-5.53a2.63,2.63,0,0,0,2.56,2h0v8.5a2.55,2.55,0,0,0,2.56,2.5h3.87a2.56,2.56,0,0,0,2.57-2.5V127h0a2.62,2.62,0,0,0,2.56-2Z"/></g></g><g class="cls-42"><g class="cls-42"><path d="M443.3,494H442a.6.6,0,0,0,.28-.48V491h-2.4a.68.68,0,0,1-.6-.7v-1.11c0-.31.23-.19.6-.19h2.4v-1.2c0-.82-.7-1.8-1.37-1.8h-3.21c-.66,0-1.42,1-1.42,1.8V489h2.06c.37,0,.94-.12.94.19v1.11c0,.31-.57.7-.94.7H436.3v2.52a.62.62,0,0,0,.34.48h-1.53c-1.26,0-1.81,1.18-1.81,2.45v10.81c0,1.27.55,2.74,1.81,2.74h.19v7.22c0,1.27.81,2.78,2,2.78h3.4a3,3,0,0,0,2.57-2.78V510H443a2.77,2.77,0,0,0,2.35-2.74V496.45A2.48,2.48,0,0,0,443,494"/><path d="M435.3,491h-.48c-.31,0-.52-.05-.52-.43v-2.29c0-.37.21-.28.52-.28h.48"/><path d="M443.3,491h.59c.31,0,.41-.05.41-.43v-2.29c0-.37-.1-.28-.41-.28h-.59"/><path d="M443.3,491h-1v-3.7a1.26,1.26,0,0,0-.23-.92,1.46,1.46,0,0,0-.82-.38h-3.84a1.21,1.21,0,0,0-1.21,1.27V491h-.9v-3.58a2.23,2.23,0,0,1,2.11-2.42h3.82a2.41,2.41,0,0,1,1.53.66,2.23,2.23,0,0,1,.54,1.63Z"/><rect x="457.3" y="503" width="28" height="13"/><rect x="457.3" y="501" width="28" height="1"/><polygon points="488.3 508 486.3 508 486.3 491 455.3 491 455.3 508 454.3 508 454.3 490 488.3 490 488.3 508"/><rect x="454.3" y="490" width="33" height="4"/><rect x="471.3" y="491" width="4" height="7"/><rect x="473.3" y="497" width="1" height="3"/></g></g><g class="cls-43"><rect x="550.3" y="258" width="31" height="2"/><polygon points="576.45 254.85 580.75 258.85 576.45 262.85 577.26 263.72 582.49 258.85 577.26 253.98 576.45 254.85"/></g><g class="cls-43"><g class="cls-43"><path d="M554.65,259.59V258.1c.05,0,1.27-.06,1.94-1.8.44-1.11,3.74-7.5,3.88-7.78,0,0,1.06-2.52,3.47-2.52H581.3v1H563.92c-1.38,0-2.1,1.86-2.11,1.88-1.21,2.4-3.52,7.08-3.85,7.92a3.89,3.89,0,0,1-3.32,2.79"/><polygon points="577.26 251.28 576.45 250.41 580.75 246.42 576.45 242.42 577.26 241.55 582.49 246.42 577.26 251.28"/><path d="M581.3,272H568.09c-2.41,0-3.45-2.72-3.49-2.83l-3.8-7.86c-.8-1.64-3.49-1.72-3.49-1.72V258.1s3.61,0,4.82,2.52l3.84,7.7c0,.07.74,1.68,2.12,1.68H581.3Z"/><polygon points="577.26 275.97 576.45 275.1 580.75 271.1 576.45 267.1 577.26 266.23 582.49 271.1 577.26 275.97"/><path d="M540.3,266h0v8a1.82,1.82,0,0,0,2,2H546c1.31,0,2.32-.68,2.32-2v-8h.06c1.35,0,1.94-1.21,1.94-2.56V252c0-1.34-.6-2-1.94-2h-1a2.56,2.56,0,0,0-.06-1.1v-6c0-.87-.39-1.86-1.11-1.86h-3.43c-.71,0-1.46,1-1.46,1.86v6c0,.24.22.1.3,1.1H540c-1.34,0-2.66.66-2.66,2v11.43A2.75,2.75,0,0,0,540,266"/><path d="M537.3,252c0-1.34,1.32-2,2.66-2h1.63c-.08-1-.3-.86-.3-1.1v-6c0-.87.75-1.86,1.46-1.86h3.44c.71,0,1.11,1,1.11,1.86v6a2.55,2.55,0,0,1,.06,1.1h1c1.34,0,1.94.66,1.94,2v11.43c0,1.35-.6,2.56-1.94,2.56h-.06v8c0,1.34-1,2-2.32,2h-3.64a1.82,1.82,0,0,1-2-2v-8H540a2.75,2.75,0,0,1-2.66-2.56Z"/></g></g><g class="cls-44"><g class="cls-44"><path d="M35.3,194h0v8.84c0,1.43,1.44,2.16,2.83,2.16H42a2.05,2.05,0,0,0,2.32-2.16V194h.2a2.62,2.62,0,0,0,2.8-2.39V179.42c0-1-1-1.82-2-2.26V190h-4v-8.65L43.45,177h0c.08,0-.14-.63-.14-.89V171h2.11l-1.11-2v-.35A1.68,1.68,0,0,0,42.46,167H38.32a1.85,1.85,0,0,0-2,1.61V171h1v5.11a2,2,0,0,0,0,.71l2,4.53V190h-4V176.89a2.74,2.74,0,0,0-2,2.53v12.19A2.2,2.2,0,0,0,35.61,194"/></g></g><g class="cls-45"><g class="cls-45"><path d="M538.68,380.7l5.62,0v-.91a2.71,2.71,0,0,0-2.46-2.82h-1c.08,0,.5-.21.5-.46v-6.41c0-.92-1-2.13-1.73-2.13H536c-.74,0-1.68,1.21-1.68,2.13v6.41c0,.25.38.46.46.46H533a3,3,0,0,0-2.75,2.82v12.12A3.19,3.19,0,0,0,533,395h.25v8.11c0,1.43.87,2.89,2.24,2.89h3.81a3.25,3.25,0,0,0,3-2.89V393.8l-3.31-.12c-.13.07-.3-13-.3-13"/><path d="M539.3,393h9V382h-9Zm7.53-6.56-3.77,3.41a1.1,1.1,0,0,1-.74.29h-.1a1.1,1.1,0,0,1-.77-.43l-1.18-1.54a1.13,1.13,0,0,1,.2-1.57,1.1,1.1,0,0,1,1.55.2l.45.59,2.88-2.61a1.1,1.1,0,0,1,1.56.09,1.13,1.13,0,0,1-.09,1.58"/></g></g><g class="cls-46"><path d="M346.49,548.6A4.44,4.44,0,1,0,351,553a4.45,4.45,0,0,0-4.46-4.43m0,6.65a2.22,2.22,0,1,1,2.23-2.22,2.22,2.22,0,0,1-2.23,2.22"/><path d="M320,548.6a4.44,4.44,0,1,0,4.46,4.43A4.45,4.45,0,0,0,320,548.6m0,6.65a2.22,2.22,0,1,1,2.23-2.22,2.23,2.23,0,0,1-2.23,2.22"/><path d="M353.59,543.63l-1.16-6.28a2.6,2.6,0,0,0-2.91-2.35h-7.71a1.79,1.79,0,0,0-1.51.78V542h-2V532a.85.85,0,0,0-1-1H311c-1.13,0-.67,1-.67,1v21h4.76a4.94,4.94,0,0,1,9.88,0h16.6a4.94,4.94,0,0,1,9.88,0h1.81l1.54-7.1a4.14,4.14,0,0,0,.06-.65,1.68,1.68,0,0,0-1.24-1.61M344.3,542v-6h4.9s1.31.21,1.43,1l.86,5Z"/></g><g class="cls-47"><polygon points="0 323.55 13.24 331.22 32.32 320.17 19.08 312.51 0 323.55"/><polygon points="0 316.75 13.24 324.42 32.32 313.37 19.08 305.7 0 316.75"/><polygon points="19.08 298.9 0 309.94 13.24 317.61 32.32 306.56 19.08 298.9"/></g><g class="cls-48"><g class="cls-48"><path d="M121.3,85V78.42l3.57-7.49A5.14,5.14,0,0,0,124,71h-1a2.38,2.38,0,0,0,.26-1V63.75A1.72,1.72,0,0,0,121.86,62h-3.47c-.72,0-1.08.84-1.08,1.75V70c0,.25-.17,1-.09,1h-1.65a3.16,3.16,0,0,0-.92,0l3.66,7.41V85h-5.17c.16,2,1.18,3,2.43,3h-.26v8.11A3,3,0,0,0,118,99h3.67a3,3,0,0,0,2.66-2.89V88H124c1.25,0,2.28-1,2.43-3Z"/></g></g><g class="cls-49"><g class="cls-49"><path class="cls-50" d="M67.4,420.46a9,9,0,0,0-3.75.85l.14,0a7,7,0,0,0,2.42-.18c.78-.32,1.41.54,1.1.55s-.7,1-.38,1,.39.47.86-.09.39-.32,1.26.23-.55.55-.55.55-.31.63-.7.64-1.32,1-1.55,1.75-.31.71-.63.16-.78-.15-1.32.56,1,1.41,1,1.41l.79.7a6,6,0,0,0,.94-.32c.31-.16.24.31,1.33.78s.16.55,1.18.86A1.85,1.85,0,0,1,70.8,431l-.31.63-.31.95a1.33,1.33,0,0,0-.7,1c-.23.79-.78,1-1.16,1.35s.09,1.26.33,1.73-.47-.07-.78-.15-.48-1-.64-1.49a10.1,10.1,0,0,1,.07-2.13c0-.55-.32-.71-.71-1.18a2.65,2.65,0,0,1-.63-1.42c-.24-.87-.09-1.1.15-1.26s-.63-.47-1-.63a7.51,7.51,0,0,1-1.33-.86c-.55-.39-.71-1-.95-1.34a6.61,6.61,0,0,1-.33-2.21c0-.47.54-1,.3-1.42-.11-.17-.43-.2-.8-.2a9.24,9.24,0,0,0-2.28,12.22,6.17,6.17,0,0,0,1.35.35c.4,0,1.51-.1,1.8.71s.81.91.1,1.72l-.23.25a9,9,0,0,0,4.8,1.34,9.22,9.22,0,0,0-.12-18.45"/><path d="M64.3,467h0v8c0,1.29,1.36,2,2.6,2h3.44a1.77,1.77,0,0,0,2-2v-8h.29c1.27,0,2.71-.75,2.71-2V454c0-1.29-1.43-2-2.71-2h-.94c.07,0-.35-.7-.35-.93v-5.78c0-.83-.08-1.29-.76-1.29H67.29c-.67,0-1,.46-1,1.29v5.78c0,.23-.19.93-.11.93H64.64a2.11,2.11,0,0,0-2.34,2V465a2.12,2.12,0,0,0,2.34,2"/><path d="M62.3,454a2.11,2.11,0,0,1,2.34-2h1.55c-.08,0,.11-.7.11-.93v-5.78c0-.83.32-1.29,1-1.29h3.25c.68,0,.76.46.76,1.29v5.78c0,.23.42.93.35.93h.94c1.27,0,2.71.75,2.71,2V465c0,1.29-1.43,2-2.71,2H72.3v8a1.77,1.77,0,0,1-2,2H66.89c-1.24,0-2.59-.68-2.59-2v-8h.34a2.12,2.12,0,0,1-2.34-2Z"/></g></g><g class="cls-51"><g class="cls-51"><path d="M170.3,532h0v8.18c0,1.4.65,2.82,2,2.82h3.85c1.38,0,2.12-1.42,2.12-2.82V532h.4a2.79,2.79,0,0,0,2.6-2.78V517.33a2.41,2.41,0,0,0-2.6-2.33h-1.05c.08,0-.35-.65-.35-.89v-6.29c0-.91-.14-1.82-.89-1.82h-3.64a1.79,1.79,0,0,0-1.47,1.82v6.29c0,.25.16.89.24.89h-1.73a2.34,2.34,0,0,0-2.51,2.33v11.89a2.72,2.72,0,0,0,2.51,2.78"/><path d="M167.3,517.33a2.34,2.34,0,0,1,2.51-2.33h1.73c-.08,0-.24-.65-.24-.89v-6.29a1.79,1.79,0,0,1,1.47-1.82h3.64c.75,0,.89.91.89,1.82v6.29c0,.25.43.89.35.89h1.06a2.41,2.41,0,0,1,2.6,2.33v11.89a2.79,2.79,0,0,1-2.6,2.78h-.4v8.18c0,1.4-.74,2.82-2.12,2.82h-3.85c-1.38,0-2-1.42-2-2.82V532h-.49a2.72,2.72,0,0,1-2.51-2.78Z"/></g></g></g></g></svg>