<svg xmlns="http://www.w3.org/2000/svg" xmlns:xlink="http://www.w3.org/1999/xlink" viewBox="0 0 530.86 447.68"><defs><style>.cls-1,.cls-40,.cls-41,.cls-42,.cls-59{fill:none;}.cls-2{fill:#1d1d1b;}.cls-3{isolation:isolate;}.cls-4{fill:#707070;}.cls-5{fill:#fff;}.cls-6{fill:#d6d3bd;}.cls-7{fill:#4f4f4f;}.cls-8{fill:#8f8f8f;}.cls-9{fill:#575757;}.cls-10{fill:#636363;}.cls-11{fill:#6c6c6c;}.cls-12{fill:#737373;}.cls-13{fill:#777;}.cls-14{fill:#919191;}.cls-15{fill:#6b6b6b;}.cls-16{fill:#b3b3b3;}.cls-17{fill:#7d858b;}.cls-18{fill:#8e8e8e;}.cls-19{fill:#e5e5e5;}.cls-20{fill:#c6c6c6;}.cls-21{fill:#ddd;}.cls-22{fill:#757575;}.cls-23{fill:#cfdee7;}.cls-24{fill:#515151;}.cls-25{fill:#b2b2b2;}.cls-26{fill:#f7fafc;}.cls-27{fill:#434344;}.cls-28{fill:#7f7f7f;}.cls-29{fill:#c2c2c2;}.cls-30{fill:#5e5e5e;}.cls-31{fill:#313131;}.cls-32{fill:#edf3f9;}.cls-33{fill:#9e9588;}.cls-34{fill:#d8d5c5;}.cls-35{fill:#edecda;}.cls-36{fill:#dcdcdc;}.cls-37{fill:#efefef;}.cls-38{fill:#bfccd5;}.cls-39{fill:#deeef8;}.cls-40{stroke:#3d3d3d;stroke-width:0.55px;}.cls-40,.cls-41,.cls-42,.cls-59{stroke-miterlimit:10;}.cls-41,.cls-42{stroke:#bcbcbc;}.cls-41{stroke-width:0.28px;}.cls-43{fill:#eae8e1;}.cls-44{opacity:0.4;}.cls-45{fill:url(#_10_dpi_20_);}.cls-46{mix-blend-mode:multiply;}.cls-47{fill:#a5a5a5;}.cls-48{fill:#8d8d8d;}.cls-49{fill:#e7e7e7;}.cls-50{fill:#a7a7a7;}.cls-51{fill:#d2d2d2;}.cls-52{fill:#a3a3a3;}.cls-53{fill:#b0b0b0;}.cls-54{fill:#a1a1a1;}.cls-55{fill:#fefefe;}.cls-56{fill:#a4a4a4;}.cls-57{fill:#b7b7b7;}.cls-58{fill:#fafafa;}.cls-59{stroke:#fff;}</style><pattern id="_10_dpi_20_" data-name="10 dpi 20%" width="28.8" height="28.8" patternTransform="translate(34.07 -52.77) scale(0.28)" patternUnits="userSpaceOnUse" viewBox="0 0 28.8 28.8"><rect class="cls-1" width="28.8" height="28.8"/><circle class="cls-2" cx="28.8" cy="28.8" r="1.44"/><circle class="cls-2" cx="14.4" cy="28.8" r="1.44"/><circle class="cls-2" cx="28.8" cy="14.4" r="1.44"/><circle class="cls-2" cx="14.4" cy="14.4" r="1.44"/><circle class="cls-2" cx="7.2" cy="21.6" r="1.44"/><circle class="cls-2" cx="21.6" cy="21.6" r="1.44"/><circle class="cls-2" cx="7.2" cy="7.2" r="1.44"/><circle class="cls-2" cx="21.6" cy="7.2" r="1.44"/><circle class="cls-2" cy="28.8" r="1.44"/><circle class="cls-2" cy="14.4" r="1.44"/><circle class="cls-2" cx="28.8" r="1.44"/><circle class="cls-2" cx="14.4" r="1.44"/><circle class="cls-2" r="1.44"/></pattern></defs><title>house</title><g class="cls-3"><g id="Layer_2" data-name="Layer 2"><g id="menu_bar" data-name="menu bar"><path class="cls-4" d="M20.19,294.43v16l.53.37-2.53,1.4v-.56l.1-18.22Zm-.11,0" transform="translate(-15.82)"/><path class="cls-5" d="M202.78,414.88l-.87-.5.87-.5Zm0,0" transform="translate(-15.82)"/><path class="cls-5" d="M173.74,398.12l-.87-.5.87-.5Zm0,0" transform="translate(-15.82)"/><path class="cls-6" d="M238.57,436.64l.79.5,1.83-1.1v1.48l-7,4.05v-7.38Zm.15,0" transform="translate(-15.82)"/><path class="cls-7" d="M16.19,170.57v-2.51l176-101.68v2.51l-8.72,5-11.88,5.33-.49.28.62,1.16-13.14,7.59-11.87,5.33-.48.28.62,1.16-13.14,7.59L121.83,108l-.48.28.62,1.16L108.83,117,97,122.34l-.48.28.62,1.16L84,131.36,72.09,136.7l-.48.28.62,1.16-13.14,7.59-11.87,5.33-.48.28.62,1.16-13.14,7.59-11.87,5.33-.48.28.68,1.16Zm-.13,0" transform="translate(-15.82)"/><path class="cls-8" d="M16.07,168.05l-.24-.14L192.19,66.1v.28Zm0,0" transform="translate(-15.82)"/><path class="cls-6" d="M35.57,319.14l-6.39,3.69v-7.38Zm-.38,0" transform="translate(-15.82)"/><path class="cls-7" d="M373.71,366.2l-.27.21v-1l.27-.15Zm0,0" transform="translate(-15.82)"/><path class="cls-7" d="M373.71,366.2v-.93l.17-.1V366Zm0,0" transform="translate(-15.82)"/><path class="cls-7" d="M373.44,365.42v1l-.35.16v-.94Zm0,0" transform="translate(-15.82)"/><path class="cls-9" d="M373.09,365.62v.94l-.41.1v-.8Zm0,0" transform="translate(-15.82)"/><path class="cls-10" d="M372.68,365.86v.8l-.44,0v-.58Zm0,0" transform="translate(-15.82)"/><path class="cls-7" d="M373.93,365.14v.56l-.05.26v-.79Zm0,0" transform="translate(-15.82)"/><path class="cls-11" d="M372.24,366.11v.58l-.44,0v-.3Zm0,0" transform="translate(-15.82)"/><path class="cls-12" d="M371.79,366.37v.3l-.37-.09Zm0,0" transform="translate(-15.82)"/><path class="cls-7" d="M257.57,433.25l-.27.21v-1l.27-.15Zm0,0" transform="translate(-15.82)"/><path class="cls-7" d="M257.57,433.25v-.93l.17-.1V433Zm0,0" transform="translate(-15.82)"/><path class="cls-7" d="M257.3,432.47v1l-.35.16v-.94Zm0,0" transform="translate(-15.82)"/><path class="cls-9" d="M256.95,432.68v.94l-.41.1v-.8Zm0,0" transform="translate(-15.82)"/><path class="cls-10" d="M256.54,432.91v.8l-.44,0v-.58Zm0,0" transform="translate(-15.82)"/><path class="cls-7" d="M257.79,432.19v.56l-.05.26v-.79Zm0,0" transform="translate(-15.82)"/><path class="cls-11" d="M256.1,433.17v.58l-.44,0v-.3Zm0,0" transform="translate(-15.82)"/><path class="cls-12" d="M255.65,433.43v.3l-.37-.09Zm0,0" transform="translate(-15.82)"/><path class="cls-8" d="M193.26,22.73l.83-.4,1-.26,1.07-.11,1.08.06,1,.22.89.36.7.48.46.57.19.62-.1.62-.37.59-.62.51-.83.4-1,.26-1.07.11-1.08-.06-1-.22-.89-.36-.7-.48-.46-.57-.19-.62.1-.62.37-.59Zm0,0" transform="translate(-15.82)"/><path class="cls-13" d="M199,67l.37-.21.12-.07.51-.23.37-.17.1,0,72.35-32.49-.48.28Zm0,0" transform="translate(-15.82)"/><path class="cls-13" d="M198.56,69.12l.46-.26,58.76-26.39L248,48.15,162.08,86.71,171.91,81l20.28-9.1v.25l.18,0,.45-.17.69-.3.89-.42,1-.5,1.08-.55,1.07-.56Zm0,0" transform="translate(-15.82)"/><path class="cls-14" d="M199.19,68.86V67l73.25-32.93-14.53,8.41Zm-.16,0" transform="translate(-15.82)"/><polygon class="cls-15" points="184.42 24.89 184.12 25.48 183.54 25.99 182.72 26.39 181.74 26.66 180.68 26.76 179.6 26.71 178.58 26.49 177.69 26.13 176.99 25.65 176.55 25.08 176.37 24.46 176.37 66.1 176.37 66.38 176.37 68.89 176.37 69.34 176.37 70.01 176.37 70.07 176.37 71.94 176.37 72.19 176.55 72.16 177 71.99 177.69 71.69 178.58 71.27 179.6 70.77 180.68 70.22 181.75 69.66 182.82 69.13 183.37 68.86 183.37 66.99 183.66 66.78 183.73 66.71 184.22 66.48 184.43 66.32 184.37 66.27 184.37 65.01 184.37 63.14 184.37 63.08 184.37 61.57 184.37 61.29 184.37 24.26 184.42 24.89"/><path class="cls-6" d="M241.29,436l-2.11,1.1V299.9l2,1.07Zm.2,0" transform="translate(-15.82)"/><path class="cls-7" d="M240.19,299.76v-2.51l.22-.23.54,1,4.45-2.59,24.85-14.36L295.1,266.7,320,252.34,344.84,238l24.87-14.36,24.87-14.36,24.75-14.36,22.85-13.27v1.15Zm-.36,0" transform="translate(-15.82)"/><path class="cls-8" d="M239.83,297.24l-.24-.14.51-.3.13.21Zm0,0" transform="translate(-15.82)"/><path class="cls-16" d="M234.2,287.35l-.62.36.58-.42Zm0,0" transform="translate(-15.82)"/><path class="cls-5" d="M235.54,285.55,223,294.45l.18.58v4.65l-1-.87V263.91Zm-.14,0" transform="translate(-15.82)"/><path class="cls-16" d="M223.42,295l.32-.23,0,0Zm0,0" transform="translate(-15.82)"/><path class="cls-16" d="M234.16,287.29l1.61-1.16.11.17Zm0,0" transform="translate(-15.82)"/><path class="cls-17" d="M237.21,288.45l.9-.65.06.1Zm0,0" transform="translate(-15.82)"/><path class="cls-18" d="M36.19,186.44v.94l-2.93-1.56L41,181.3l14.93-6.73.42.13Zm-.43,0" transform="translate(-15.82)"/><path class="cls-19" d="M152.61,181.47l.37.58,1.2-.69v2.91l-29,16.76v2.79l1,.56v38l1,.84v1.12l-70,40.51V177.47l72.33-32.53L138.19,159v6.27l6.32,3.53Zm0,0" transform="translate(-15.82)"/><path class="cls-5" d="M154.19,184.27v-2.91l6.12-3.54L172.7,185l9.73,15.61-18.58-10.73Zm0,0" transform="translate(-15.82)"/><path class="cls-16" d="M36.19,188.22v-.56l5.42-3.12,4.37-2-1.29.75-2.08,1.2-3.12,1.79Zm.05,0" transform="translate(-15.82)"/><path class="cls-16" d="M57.19,177.47v0Zm.19,0" transform="translate(-15.82)"/><path class="cls-16" d="M41.58,184.54l-5.4,3.12V187Zm.05,0" transform="translate(-15.82)"/><path class="cls-18" d="M33.19,184.81l.7-.45.06.06,7-3.12-7.77,4.51Zm-.14,0" transform="translate(-15.82)"/><path class="cls-20" d="M225.74,392.17l.87-.5v.06l-.82.47Zm0,0" transform="translate(-15.82)"/><path class="cls-17" d="M226.36,294.82l-.62.36.58-.42Zm0,0" transform="translate(-15.82)"/><path class="cls-21" d="M226.54,294.75l-.36.42v94.88l-2,1.06v-.45h0v-95.6L226,294l.24.34Zm-.22,0" transform="translate(-15.82)"/><path class="cls-20" d="M224.13,391.11l2.06-1.06v2.12l-1.9-1Zm-.22,0" transform="translate(-15.82)"/><path class="cls-7" d="M218.19,51.07v1.27l-1.92,1-.27.23.68,1.16-8.53,4.86-8,3.52V61.57Zm.48,0" transform="translate(-15.82)"/><path class="cls-8" d="M218.52,51.07l-18.33,10.5v-.28l18-10.36Zm.15,0" transform="translate(-15.82)"/><path class="cls-8" d="M16.06,170.57l6.41-3.7.18.34-4,2.31.22.3,1.32-.57v3.49L18.65,172l-.57-.28Zm0,0" transform="translate(-15.82)"/><path class="cls-8" d="M20.08,170.37l-.24-.14.24-.14Zm0,0" transform="translate(-15.82)"/><path class="cls-8" d="M34.21,160.09l13.14-7.59.18.34-9.82,5.67Zm0,0" transform="translate(-15.82)"/><path class="cls-8" d="M59.08,145.73l13.14-7.59.18.34-9.82,5.67Zm0,0" transform="translate(-15.82)"/><path class="cls-8" d="M84,131.36l13.14-7.59.18.34-9.82,5.67Zm0,0" transform="translate(-15.82)"/><path class="cls-8" d="M108.83,117,122,109.42l.18.34-9.82,5.67Zm0,0" transform="translate(-15.82)"/><path class="cls-8" d="M133.7,102.64l13.14-7.59.18.34-9.82,5.67Zm0,0" transform="translate(-15.82)"/><path class="cls-8" d="M158.58,88.28l13.14-7.59.18.34-9.82,5.67Zm0,0" transform="translate(-15.82)"/><path class="cls-8" d="M183.46,73.92l8.72-5v.45l-5.22,3Zm0,0" transform="translate(-15.82)"/><path class="cls-8" d="M208.33,59.56l8.41-4.86.18.34L211.83,58Zm0,0" transform="translate(-15.82)"/><path class="cls-13" d="M62.58,144.15l9.82-5.67,85.88-38.57-9.82,5.67Zm0,0" transform="translate(-15.82)"/><path class="cls-13" d="M71.6,137l.48-.28L84,131.36l3.5-1.57,85.88-38.57-.48.28Zm0,0" transform="translate(-15.82)"/><path class="cls-14" d="M71.6,137,172.86,91.51l-14.57,8.41L72.4,138.48l-.18-.34Zm0,0" transform="translate(-15.82)"/><path class="cls-13" d="M18.65,169.52l4-2.31,107.83-48.42.19.3-1,.58L23,167.57l-1.27.57Zm0,0" transform="translate(-15.82)"/><path class="cls-22" d="M129.67,119.67l1-.58.12.19.05.09-.86.49-.16.12Zm0,0" transform="translate(-15.82)"/><path class="cls-22" d="M129.83,120l.16-.12v0Zm0,0" transform="translate(-15.82)"/><path class="cls-13" d="M21.85,165.7l.48-.28,11.87-5.33,3.5-1.57L125,119.32l0,.05Zm0,0" transform="translate(-15.82)"/><path class="cls-14" d="M21.85,165.7,125,119.37l.22.41,3.62-1.62,1-.43.66,1.06L22.66,167.21l-.18-.34Zm0,0" transform="translate(-15.82)"/><path class="cls-23" d="M129.91,117.11l-.17.08.16-.09Zm0,0" transform="translate(-15.82)"/><path class="cls-13" d="M129.83,117l-4.9,2.2,8.49-4.9L148,105.87l.48-.28,9.82-5.67,14.57-8.41.48-.28,9.82-5.67,14.57-8.41.48-.28L208,71.2l14.57-8.41.48-.28,9.82-5.67,14.57-8.41.48-.28,9.82-5.67,14.57-8.41.48-.28,9.82-5.67,14.57-8.41.48-.28,5.1-2.94,14.57-8.41.39-.23,9.78-5.64,4.9-2.2Zm0,0" transform="translate(-15.82)"/><path class="cls-13" d="M37.71,158.52l9.82-5.67,85.88-38.57-8.49,4.9.07.14Zm0,0" transform="translate(-15.82)"/><path class="cls-13" d="M46.73,151.34l.48-.28,11.87-5.33,3.5-1.57,85.88-38.57-.48.28Zm0,0" transform="translate(-15.82)"/><path class="cls-14" d="M46.73,151.34,148,105.87l-14.57,8.41L47.53,152.84l-.18-.34Zm0,0" transform="translate(-15.82)"/><path class="cls-13" d="M87.46,129.79l9.82-5.67,85.88-38.57-9.82,5.67Zm0,0" transform="translate(-15.82)"/><path class="cls-13" d="M96.47,122.61l.48-.28L108.83,117l3.5-1.57,85.88-38.57-.48.28Zm0,0" transform="translate(-15.82)"/><path class="cls-14" d="M96.47,122.61,197.73,77.15l-14.57,8.41L97.28,124.12l-.18-.34Zm0,0" transform="translate(-15.82)"/><path class="cls-13" d="M112.33,115.43l9.82-5.67L208,71.2l-9.82,5.67Zm0,0" transform="translate(-15.82)"/><path class="cls-13" d="M121.35,108.25l.48-.28,11.87-5.33,3.5-1.57,85.88-38.57-.48.28Zm0,0" transform="translate(-15.82)"/><path class="cls-14" d="M121.35,108.25,222.6,62.79,208,71.2l-85.88,38.57-.18-.34Zm0,0" transform="translate(-15.82)"/><path class="cls-13" d="M137.2,101.07,147,95.4l85.88-38.57-9.82,5.67Zm0,0" transform="translate(-15.82)"/><path class="cls-13" d="M146.22,93.89l.48-.28,11.87-5.33,3.5-1.57L248,48.15l-.48.28Zm0,0" transform="translate(-15.82)"/><path class="cls-14" d="M146.22,93.89,247.48,48.42l-14.57,8.41L147,95.4l-.18-.34Zm0,0" transform="translate(-15.82)"/><path class="cls-13" d="M211.83,58l5.1-2.94L302.8,16.48l-5.1,2.94Zm0,0" transform="translate(-15.82)"/><path class="cls-13" d="M216.12,53.54l.39-.23,2.16-1,99.09-44.5-.39.23Zm0,0" transform="translate(-15.82)"/><path class="cls-14" d="M216.12,53.54,317.37,8.07,302.8,16.48,216.92,55l-.18-.34Zm0,0" transform="translate(-15.82)"/><path class="cls-13" d="M187,72.35l5.22-3V70Zm0,0" transform="translate(-15.82)"/><path class="cls-13" d="M171.11,79.53l.48-.28,11.87-5.33L187,72.35,192.19,70v.06Zm0,0" transform="translate(-15.82)"/><path class="cls-14" d="M171.11,79.53l21.08-9.46v1.87L171.91,81l-.18-.34Zm0,0" transform="translate(-15.82)"/><path class="cls-14" d="M333.75,2.1l0,0,111,178-.8.58L336.55,8.37l.47-.27.32-.23Zm0,0" transform="translate(-15.82)"/><path class="cls-24" d="M333.79,2.07l.48-.28,111,178-.48.28Zm0,0" transform="translate(-15.82)"/><path class="cls-7" d="M445.3,179.84l-1,.7-1.9,1.09-23,13.27.16-.12L444,180.7l.8-.58Zm0,0" transform="translate(-15.82)"/><path class="cls-24" d="M444,180.7l-24.39,14.08.8-.58L313,22,336.55,8.37Zm0,0" transform="translate(-15.82)"/><path class="cls-7" d="M419.62,194.78l-.16.12-24.87,14.36.16-.12,24.39-14.08.8-.58.48-.28Zm0,0" transform="translate(-15.82)"/><path class="cls-7" d="M320,252.34,295.09,266.7l.16-.12,24.39-14.08.8-.58.48-.28-.8.58Zm0,0" transform="translate(-15.82)"/><path class="cls-24" d="M319.64,252.5l-24.39,14.08.8-.58L188.65,93.76l23.53-13.59Zm0,0" transform="translate(-15.82)"/><path class="cls-24" d="M320.93,251.64l-.48.28L213,79.68l.48-.28Zm0,0" transform="translate(-15.82)"/><path class="cls-7" d="M213.52,79.4l-.48.28-.86.49L188.65,93.76l-.48.28-.86.49-23.53,13.59-.48.28-.86.49L138.9,122.48l-.48.28-.86.49-3.15,1.82.32-.23,202.61-117-.32.23-.47.27L313,22l-.48.28-.86.49L288.15,36.31l-.48.28-.86.49L263.27,50.67l-.48.28-.86.49L238.4,65l-.48.28-.86.49Zm0,0" transform="translate(-15.82)"/><path class="cls-24" d="M188.17,94l.48-.28L296.05,266l-.48.28Zm0,0" transform="translate(-15.82)"/><path class="cls-24" d="M287.66,36.59l.48-.28,107.4,172.25-.48.28Zm0,0" transform="translate(-15.82)"/><path class="cls-24" d="M237.91,65.31l.48-.28L345.8,237.28l-.48.28Zm0,0" transform="translate(-15.82)"/><path class="cls-24" d="M262.79,51l.48-.28,107.4,172.25-.48.28Zm0,0" transform="translate(-15.82)"/><path class="cls-24" d="M312.54,22.23,313,22,420.42,194.2l-.48.28Zm0,0" transform="translate(-15.82)"/><path class="cls-24" d="M138.42,122.76l.48-.28,28,44.89-.48.28Zm0,0" transform="translate(-15.82)"/><path class="cls-24" d="M163.29,108.4l.48-.28,107.4,172.25-.48.28Zm0,0" transform="translate(-15.82)"/><path class="cls-14" d="M320.44,251.92l-.8.58L212.18,80.17l.86-.49Zm0,0" transform="translate(-15.82)"/><path class="cls-7" d="M295.25,266.58l-.16.12-24.87,14.36.16-.12,24.39-14.08.8-.58.48-.28Zm0,0" transform="translate(-15.82)"/><path class="cls-24" d="M320.93,251.64,213.52,79.4l23.53-13.59L344.51,238.14l-24.39,14.08Zm0,0" transform="translate(-15.82)"/><path class="cls-24" d="M294.77,266.86l-24.39,14.08.8-.58L163.78,108.12l23.53-13.59Zm0,0" transform="translate(-15.82)"/><path class="cls-14" d="M295.57,266.28l-.8.58L187.31,94.53l.86-.49Zm0,0" transform="translate(-15.82)"/><path class="cls-7" d="M270.38,280.95l-.16.12-24.87,14.36.16-.12,24.39-14.08.8-.58.48-.28Zm0,0" transform="translate(-15.82)"/><path class="cls-7" d="M394.58,209.26l-24.87,14.36.16-.12,24.39-14.08.8-.58.48-.28-.8.58Zm0,0" transform="translate(-15.82)"/><path class="cls-24" d="M394.26,209.42,369.87,223.5l.8-.58L263.27,50.67,286.8,37.09Zm0,0" transform="translate(-15.82)"/><path class="cls-14" d="M395.06,208.84l-.8.58L286.8,37.09l.86-.49Zm0,0" transform="translate(-15.82)"/><path class="cls-7" d="M369.87,223.5l-.16.12L344.84,238l.16-.12,24.39-14.08.8-.58.48-.28Zm0,0" transform="translate(-15.82)"/><path class="cls-24" d="M395.55,208.56,288.15,36.31l23.53-13.59L419.13,195.06l-24.39,14.08Zm0,0" transform="translate(-15.82)"/><path class="cls-7" d="M320.12,252.22l24.39-14.08.8-.58.48-.28-.8.58-.16.12L320,252.34Zm0,0" transform="translate(-15.82)"/><path class="cls-14" d="M345.32,237.56l-.8.58L237.06,65.81l.86-.49Zm0,0" transform="translate(-15.82)"/><path class="cls-24" d="M345.8,237.28,238.4,65l23.53-13.59L369.39,223.78,345,237.86Zm0,0" transform="translate(-15.82)"/><path class="cls-14" d="M370.19,223.2l-.8.58L261.93,51.45l.86-.49Zm0,0" transform="translate(-15.82)"/><path class="cls-14" d="M419.94,194.48l-.8.58L311.68,22.73l.86-.49Zm0,0" transform="translate(-15.82)"/><path class="cls-17" d="M164.21,169.28l-2.67,1.54.16-.12,2.5-1.44Zm0,0" transform="translate(-15.82)"/><path class="cls-7" d="M245.34,295.42,240.85,298l.16-.12,4-2.31.8-.58.48-.28-.8.58Zm0,0" transform="translate(-15.82)"/><path class="cls-7" d="M236.14,290.09l-.17.1.16-.12Zm0,0" transform="translate(-15.82)"/><path class="cls-24" d="M245,295.59l-4,2.31-1.26-2-3.62-5.8v0l4-2.31Zm0,0" transform="translate(-15.82)"/><path class="cls-14" d="M245.82,295l-.8.58-4.88-7.83.8-.58Zm0,0" transform="translate(-15.82)"/><path class="cls-24" d="M246.31,294.73l-.48.28-4.88-7.83.48-.28.05.09Zm0,0" transform="translate(-15.82)"/><path class="cls-24" d="M245.5,295.31l.8-.58L241.48,287l18.21-10.51,2.35-1.69L187.6,155.41l-20.71,12-28-44.89,23.53-13.59L269.89,281.22Zm0,0" transform="translate(-15.82)"/><path class="cls-25" d="M187.6,155.41,262,274.77l-23.56,13.6-.3-.48-.06-.1,23.07-13.32L187.48,156.27l-23.07,13.32-.2-.31v0L164,169l1.51-.87.86-.49.48-.28Zm0,0" transform="translate(-15.82)"/><path class="cls-26" d="M164.41,169.59l23.07-13.32,73.71,118.21L238.11,287.8l-1.39-2.22-.36-.58L166.28,172.59l-.36-.58-1.45-2.32Zm0,0" transform="translate(-15.82)"/><path class="cls-7" d="M238.48,288.38,262,274.77l-2.35,1.69L241.48,287l-.05-.09-.48.28-.8.58-4,2.31Zm0,0" transform="translate(-15.82)"/><path class="cls-14" d="M138.42,122.76l28,44.89-.86.49-28-44.89Zm0,0" transform="translate(-15.82)"/><path class="cls-14" d="M269.89,281.22,162.44,108.89l.86-.49L270.7,280.64Zm0,0" transform="translate(-15.82)"/><path class="cls-24" d="M130,119.85l.86-.49,3.56,5.72,3.15-1.82,28,44.89L164,169l-2.35,1.69L130,119.87Zm0,0" transform="translate(-15.82)"/><path class="cls-8" d="M239.83,299.76l202.61-117,1.39.92L243.19,299.42v2.51l-1.23-.83-.38-.28Zm0,0" transform="translate(-15.82)"/><path class="cls-8" d="M243.84,299.56l-.24-.14L444,183.7l2.18-1.26.24.14Zm0,0" transform="translate(-15.82)"/><path class="cls-27" d="M446.19,182.58v2.79l-4.13,2.46-4,2.33-58,33.51v0L322,257.2l0,0-58,33.51.14,0-19.94,11.61v-2.79Zm.27,0" transform="translate(-15.82)"/><path class="cls-6" d="M240.1,296.81l-.51.3V296Zm0,0" transform="translate(-15.82)"/><path class="cls-28" d="M242,301.25l1.87,1.11,20.17-11.61.12,137.82v0l-6.31,3.59-.1,0-.19.1-.28.15-.36.2-.41.24-.44.26-.44.26-.26.21-13.2,7.68v-.56Zm-.1,0" transform="translate(-15.82)"/><path class="cls-29" d="M322.11,395.06l0,0L322,257.22l0,0Zm0,0" transform="translate(-15.82)"/><path class="cls-28" d="M322.11,395.06l-.06-137.85,58.06-33.51.08,137.82v0l-6.24,3.59-.06,0-.17.1-.27.15-.35.2-.41.24-.44.26-.44.26-.37.21Zm0,0" transform="translate(-15.82)"/><path class="cls-28" d="M322.19,395.07l-58.1,33.51L264,290.73l58.08-33.51.1,137.82Zm-.11,0" transform="translate(-15.82)"/><path class="cls-29" d="M264,290.73,264,428.58l0,0L264,290.75Zm0,0" transform="translate(-15.82)"/><path class="cls-30" d="M20.08,290.35l.48-.28v.56Zm0,0" transform="translate(-15.82)"/><path class="cls-5" d="M57.19,177.69V285.13L48,280l-.79.28V181.91Zm-.29,0" transform="translate(-15.82)"/><path class="cls-31" d="M47.19,181.91v0Zm.32,0" transform="translate(-15.82)"/><path class="cls-6" d="M56.08,174.7l-.23-.13,2-.92Zm0,0" transform="translate(-15.82)"/><path class="cls-30" d="M17.3,177.84l.46-.26v.53Zm0,0" transform="translate(-15.82)"/><path class="cls-30" d="M17.35,292.26l2.83-1.6v2.64l.43.28-.51.28-1.32-.75-.49-.28-.48-.29Zm-.05,0" transform="translate(-15.82)"/><path class="cls-31" d="M25.19,185.26v-2.4l2.08,1.2Zm-.17,0" transform="translate(-15.82)"/><path class="cls-31" d="M27.34,184.19v-.56l.48-.28.48.28Zm0,0" transform="translate(-15.82)"/><path class="cls-32" d="M25.15,185.26l2-1.2.21.14,1-.56,7.76,4.58,3.11-1.89v94.92l-17,10.16V183.47Zm-.14,0" transform="translate(-15.82)"/><path class="cls-7" d="M39.19,281.24V186.32l3-1.79V283Zm.34,0" transform="translate(-15.82)"/><path class="cls-30" d="M21.92,291.41l17.61-10.16,3.1,1.79L25,293.2l-2.37-1.37Zm0,0" transform="translate(-15.82)"/><path class="cls-31" d="M42.19,283v-98.5l3-1.2v100.9l-20,11.37v-2.4Zm.43,0" transform="translate(-15.82)"/><path class="cls-30" d="M25,295.6,44.7,284.23,47,285.57,27.34,296.94l-1.06-.61Zm0,0" transform="translate(-15.82)"/><path class="cls-7" d="M45.19,284.23V183.33l1.13-.75.87-.46V285.57Zm-.49,0" transform="translate(-15.82)"/><path class="cls-30" d="M27.82,183.36l-.48.28-1.55-.89.48-.28Zm0,0" transform="translate(-15.82)"/><path class="cls-16" d="M26.27,182.46l-.48.28v-.56Zm0,0" transform="translate(-15.82)"/><path class="cls-31" d="M27.19,297.5v-.56l20-11.37v.56Zm.15,0" transform="translate(-15.82)"/><path class="cls-33" d="M27.34,297.5,47,286.13l9.87,5.7,71.62-41.35,37.63,21.79,57,33v86l-.23.81.23.14V404l-1,.56v5.59L33.88,301.35ZM131.75,261.4,93.19,283.76v41.91l2,1.4,2-1.4V289.34l66,37.72v39.12l2.5,1.4,2.5-1.4V327.06l31-18.16v36.32l2.5,1.4,2.5-1.4V303.31Zm-.33,0" transform="translate(-15.82)"/><path class="cls-5" d="M223.42,405.12l-1-.56,1-.56Zm0,0" transform="translate(-15.82)"/><path class="cls-5" d="M222.19,263.91v34.91l-29-16.76V242.94l9,5.59v1.12l10,5.59v-1.12l5.74,3.22Zm-.27,0" transform="translate(-15.82)"/><path class="cls-5" d="M221.79,298.82l1.39.87v5.59l-57-33v-5.59l26.59,15.37Zm.12,0" transform="translate(-15.82)"/><path class="cls-34" d="M154.16,184.27l9.68,5.59-29,16.76L125.13,201Zm0,0" transform="translate(-15.82)"/><path class="cls-35" d="M125.19,201l10,5.59v2.79l-1.4-.7-6.63-3.77-1-.56-1-.56Zm-.06,0" transform="translate(-15.82)"/><path class="cls-36" d="M134.81,206.62l29-16.76,18.59,10.73,3,4.75-21.5-12.41-24.2,14,7.26,4.19,16.94,9.78,16.94-9.78,6-3.46,1.14,1.83-24.12,13.93Zm0,0" transform="translate(-15.82)"/><path class="cls-34" d="M163.84,223.38,188,209.46l15.37,24.65-10.46,6Zm0,0" transform="translate(-15.82)"/><path class="cls-37" d="M135.19,206.62l29,16.76v2.79l-9.85-5.59-8.8-5-.82-.56-9.53-5.59Zm-.38,0" transform="translate(-15.82)"/><path class="cls-35" d="M164.19,226.17v-2.79L193,240.14,215.18,253l2.68,4.37-5.6-3.22-8.72-5-1-.56-9.68-5.59-9.68-5.59-8.71-5-.8-.56Zm-.34,0" transform="translate(-15.82)"/><path class="cls-5" d="M166.19,266.69v5.59l-38-21.79v-5.59l-1-.56v-1.12l8,4.19v1.12L164,265.29Zm.07,0" transform="translate(-15.82)"/><path class="cls-14" d="M139.84,206.89l24.34-14v8.38l-17,9.78Zm-.15,0" transform="translate(-15.82)"/><path class="cls-37" d="M164.19,192.93l21.35,12.41,1.36,2.29L181,211.09l-16.83-9.78Zm-.29,0" transform="translate(-15.82)"/><path class="cls-36" d="M147,211.09l16.94-9.78,16.94,9.78-16.94,9.78Zm0,0" transform="translate(-15.82)"/><path class="cls-5" d="M126.19,242.38v-38l1,.56v7.54l8,4.47v1.12l-.37-.14-7.63-4.33v8.66l8,4.47v1.12l-.37-.14-7.63-4.33V232l8,4.47v1.12l-.37-.14-7.63-4.33v8.66l8,4.47v1.12l-7.4-4.19Zm-.09,0" transform="translate(-15.82)"/><path class="cls-16" d="M127.19,212.48v-7.54l6.53,3.77Zm-.12,0" transform="translate(-15.82)"/><path class="cls-5" d="M135.19,217l-7.93-4.47,6.63-3.77,1.3.7Zm-.38,0" transform="translate(-15.82)"/><path class="cls-5" d="M135.19,217v-7.54l9,5.59v1.12l10,5.59v-1.12l10,5.59v39.12l-29-16.76V217Zm-.38,0" transform="translate(-15.82)"/><path class="cls-5" d="M135.19,218.07v8.66l-7.93-4.47,7.6-4.33Zm-.38,0" transform="translate(-15.82)"/><path class="cls-16" d="M127.19,222.26V213.6l7.5,4.33Zm-.12,0" transform="translate(-15.82)"/><path class="cls-16" d="M127.19,232v-8.66l7.5,4.33Zm-.12,0" transform="translate(-15.82)"/><path class="cls-5" d="M135.19,236.51,127.25,232l7.6-4.33.34.14Zm-.38,0" transform="translate(-15.82)"/><path class="cls-5" d="M135.19,237.63v8.66l-7.93-4.47,7.6-4.33Zm-.38,0" transform="translate(-15.82)"/><path class="cls-16" d="M127.19,241.82v-8.66l7.5,4.33Zm-.12,0" transform="translate(-15.82)"/><path class="cls-5" d="M138.19,165.3V159l6.11,9.79Zm.43,0" transform="translate(-15.82)"/><path class="cls-5" d="M172.7,185l-12.4-7.16,5.83-3.37Zm0,0" transform="translate(-15.82)"/><path class="cls-36" d="M215.09,253l-22.22-12.83,10.46-6Zm0,0" transform="translate(-15.82)"/><path class="cls-16" d="M144.48,216.12V215l1,.56Zm0,0" transform="translate(-15.82)"/><path class="cls-5" d="M144.5,216.12l1-.56,8.72,5v1.12Zm0,0" transform="translate(-15.82)"/><path class="cls-5" d="M193.19,252.72v9.78l-9.83-5.59-8.79-5-.83-.56-9.54-5.59V236l9,5.59v1.12l10,5.59v-1.12Zm-.31,0" transform="translate(-15.82)"/><path class="cls-16" d="M173.52,242.66v-1.12l1,.56Zm0,0" transform="translate(-15.82)"/><path class="cls-5" d="M173.51,242.66l1-.56,8.71,5v1.12Zm0,0" transform="translate(-15.82)"/><path class="cls-5" d="M183.35,247.13l-8.79-5-.83-.56L164.19,236v-9.78l9,5.59v1.12l10,5.59v-1.12l10,5.59v9.78Zm-.15,0" transform="translate(-15.82)"/><path class="cls-5" d="M174.48,251.88l8.7,5V258l-9.68-5.59Zm0,0" transform="translate(-15.82)"/><path class="cls-16" d="M174.49,251.88l-1,.56v-1.12Zm0,0" transform="translate(-15.82)"/><path class="cls-5" d="M173.19,251.32v1.12l10,5.59v-1.12l10,5.59v9.78l-9.83-5.59-8.79-5-.83-.56-9.54-5.59v-9.78Zm.33,0" transform="translate(-15.82)"/><path class="cls-5" d="M174.48,261.66l8.7,5v1.12l-9.68-5.59Zm0,0" transform="translate(-15.82)"/><path class="cls-16" d="M174.49,261.66l-1,.56V261.1Zm0,0" transform="translate(-15.82)"/><path class="cls-5" d="M173.19,261.1v1.12l10,5.59v-1.12l10,5.59v9.78l-26.6-15.37-2.4-1.4v-9.78Zm.33,0" transform="translate(-15.82)"/><path class="cls-16" d="M173.52,232.88v-1.12l1,.56Zm0,0" transform="translate(-15.82)"/><path class="cls-5" d="M173.51,232.88l1-.56,8.71,5v1.12Zm0,0" transform="translate(-15.82)"/><path class="cls-16" d="M202.56,249.64v-1.12l1,.56Zm0,0" transform="translate(-15.82)"/><path class="cls-5" d="M202.53,249.64l1-.56,8.7,5v1.12Zm0,0" transform="translate(-15.82)"/><path class="cls-28" d="M442.46,325.22l-62.29,36.31-.06-137.85,62.29-36.31.05,132.29Zm0,0" transform="translate(-15.82)"/><path class="cls-29" d="M380.12,223.67l.06,137.85,0,0-.06-137.82Zm0,0" transform="translate(-15.82)"/><path class="cls-5" d="M223,392.22l-.23-.14.23-.81Zm0,0" transform="translate(-15.82)"/><path class="cls-17" d="M223.52,390.95v-.06l.05,0Zm0,0" transform="translate(-15.82)"/><path class="cls-5" d="M223,390.61l.39-.22v.4Zm0,0" transform="translate(-15.82)"/><path class="cls-5" d="M48,280l8.9,5.14.48-.28,70.17-40.51,1,.56L56.89,286.24,47,280.54l.48-.28Zm0,0" transform="translate(-15.82)"/><path class="cls-5" d="M47.19,280.54l10,5.7v5.59l-10-5.7v-5.59Zm-.16,0" transform="translate(-15.82)"/><path class="cls-16" d="M57.19,291.83v-5.59l71-41.35v5.59Zm-.29,0" transform="translate(-15.82)"/><path class="cls-24" d="M129.83,117,332.44,0l1.31,2.1,3.59,5.76-202.61,117-3.6-5.77-1-1.55-.06-.09-.17-.28,0,0v0Zm0,0" transform="translate(-15.82)"/><path class="cls-18" d="M129.83,141.35l1.3,2.09-1.3.75L42.07,183.6l-6.31,2.83L56.08,174.7l1.82-1.05Zm0,0" transform="translate(-15.82)"/><path class="cls-18" d="M129.83,144.19l1.3-.75,23,36.92-1.22.88-22.76-36.5Zm0,0" transform="translate(-15.82)"/><path class="cls-38" d="M226.61,295.22l1.12-.64-1,.76Zm0,0" transform="translate(-15.82)"/><path class="cls-16" d="M224.19,412.11V395.26l2,1.06V411Zm-.28,0" transform="translate(-15.82)"/><path class="cls-5" d="M224.35,412.11l1.84-1.06v2.12Zm-.44,0" transform="translate(-15.82)"/><path class="cls-39" d="M225.79,396.29v.06l0,0Zm0,0" transform="translate(-15.82)"/><path class="cls-17" d="M225.79,392.21l0,0v-.06l0,0Zm0,0" transform="translate(-15.82)"/><path class="cls-16" d="M224,391.14l-.05,0v-.06Zm0,0" transform="translate(-15.82)"/><path class="cls-23" d="M129.83,121.31l-.44.2.39-.22Zm0,0" transform="translate(-15.82)"/><path class="cls-16" d="M154.16,181.36,153,182l5.47-3.94.32-.23L160,177l.58-.42,4.76-3.43.82,1.31-5.83,3.37Zm0,0" transform="translate(-15.82)"/><path class="cls-13" d="M200.19,63.08l8-3.52L211.75,58l85.92-38.57-.62.28L200.19,63.14Zm.3,0" transform="translate(-15.82)"/><path class="cls-14" d="M200.19,63.14,297.07,19.7l-14.64,8.41L200.19,65Zm.3,0" transform="translate(-15.82)"/><path class="cls-13" d="M200.19,65l82.32-36.9-9.9,5.67L200.19,66.27Zm.3,0" transform="translate(-15.82)"/><path class="cls-35" d="M93.19,283.76l72,41.91v41.91l-2-1.4V327.06L97.73,289.34l-2.54-1.4v39.12l-2-1.4Zm-.49,0" transform="translate(-15.82)"/><path class="cls-34" d="M165.29,325.67,92.7,283.76l38.71-22.35L204,303.31Zm0,0" transform="translate(-15.82)"/><path class="cls-6" d="M204.19,303.31v41.91l-3,1.4V307.5l-2,1.4-31,18.16v39.12l-3,1.4V325.67Zm-.18,0" transform="translate(-15.82)"/><path class="cls-6" d="M95.19,327.06V287.95l2,1.4v36.32Zm-.07,0" transform="translate(-15.82)"/><path class="cls-35" d="M199.19,345.22V308.9l2-1.4v39.12Zm0,0" transform="translate(-15.82)"/><line class="cls-40" x1="364.28" y1="224.13" x2="364.33" y2="361.95"/><line class="cls-40" x1="306.2" y1="257.66" x2="306.26" y2="395.48"/><line class="cls-40" x1="248.13" y1="291.19" x2="248.19" y2="429.01"/><line class="cls-40" x1="422.35" y1="190.6" x2="422.4" y2="322.9"/><path class="cls-41" d="M204,345.66" transform="translate(-15.82)"/><path class="cls-41" d="M165.29,326.11" transform="translate(-15.82)"/><path class="cls-41" d="M131.41,261.85" transform="translate(-15.82)"/><line class="cls-42" x1="205.87" y1="298.8" x2="205.87" y2="264.8"/><line class="cls-42" x1="118.87" y1="217.8" x2="118.87" y2="209.8"/><line class="cls-42" x1="118.87" y1="226.8" x2="118.87" y2="218.8"/><line class="cls-42" x1="118.87" y1="236.8" x2="118.87" y2="227.8"/><line class="cls-42" x1="118.87" y1="246.8" x2="118.87" y2="237.8"/><line class="cls-42" x1="128.87" y1="216.8" x2="128.87" y2="215.8"/><line class="cls-41" x1="128.67" y1="216.56" x2="129.63" y2="216"/><line class="cls-42" x1="137.87" y1="221.8" x2="137.87" y2="220.8"/><line class="cls-41" x1="138.35" y1="221.03" x2="129.63" y2="216"/><line class="cls-41" x1="148.02" y1="226.62" x2="138.35" y2="221.03"/><path class="cls-41" d="M163.84,265.73" transform="translate(-15.82)"/><path class="cls-41" d="M134.81,249" transform="translate(-15.82)"/><line class="cls-41" x1="128.67" y1="215.44" x2="118.99" y2="209.85"/><line class="cls-41" x1="138.35" y1="222.14" x2="128.67" y2="216.56"/><line class="cls-42" x1="157.87" y1="242.8" x2="157.87" y2="241.8"/><line class="cls-41" x1="157.7" y1="243.1" x2="158.67" y2="242.54"/><line class="cls-42" x1="167.87" y1="248.8" x2="167.87" y2="247.8"/><line class="cls-41" x1="167.38" y1="247.57" x2="158.67" y2="242.54"/><line class="cls-41" x1="177.06" y1="253.16" x2="167.38" y2="247.57"/><line class="cls-42" x1="176.87" y1="262.8" x2="176.87" y2="252.8"/><line class="cls-41" x1="157.7" y1="241.98" x2="148.02" y2="236.39"/><line class="cls-42" x1="147.87" y1="236.8" x2="147.87" y2="245.8"/><line class="cls-41" x1="167.38" y1="248.69" x2="157.7" y2="243.1"/><line class="cls-42" x1="157.87" y1="252.8" x2="157.87" y2="251.8"/><line class="cls-41" x1="157.7" y1="252.88" x2="158.67" y2="252.32"/><line class="cls-42" x1="167.87" y1="258.8" x2="167.87" y2="257.8"/><line class="cls-41" x1="167.38" y1="257.35" x2="158.67" y2="252.32"/><line class="cls-41" x1="177.06" y1="262.94" x2="167.38" y2="257.35"/><line class="cls-42" x1="176.87" y1="272.8" x2="176.87" y2="262.8"/><line class="cls-41" x1="157.7" y1="251.76" x2="148.02" y2="246.17"/><line class="cls-42" x1="147.87" y1="245.8" x2="147.87" y2="255.8"/><line class="cls-41" x1="167.38" y1="258.47" x2="157.7" y2="252.88"/><line class="cls-42" x1="157.87" y1="262.8" x2="157.87" y2="261.8"/><line class="cls-41" x1="157.7" y1="262.66" x2="158.67" y2="262.1"/><line class="cls-42" x1="167.87" y1="267.8" x2="167.87" y2="266.8"/><line class="cls-41" x1="167.38" y1="267.13" x2="158.67" y2="262.1"/><line class="cls-41" x1="177.06" y1="272.72" x2="167.38" y2="267.13"/><line class="cls-42" x1="176.87" y1="282.8" x2="176.87" y2="272.8"/><line class="cls-41" x1="157.7" y1="261.54" x2="148.02" y2="255.95"/><line class="cls-42" x1="147.87" y1="255.8" x2="147.87" y2="265.8"/><line class="cls-41" x1="167.38" y1="268.24" x2="157.7" y2="262.66"/><line class="cls-42" x1="157.87" y1="233.8" x2="157.87" y2="231.8"/><line class="cls-41" x1="157.7" y1="233.32" x2="158.67" y2="232.76"/><line class="cls-42" x1="167.87" y1="238.8" x2="167.87" y2="237.8"/><line class="cls-41" x1="167.38" y1="237.79" x2="158.67" y2="232.76"/><line class="cls-41" x1="177.06" y1="243.38" x2="167.38" y2="237.79"/><line class="cls-42" x1="176.87" y1="252.8" x2="176.87" y2="243.8"/><line class="cls-41" x1="157.7" y1="232.2" x2="148.02" y2="226.62"/><line class="cls-42" x1="147.87" y1="226.8" x2="147.87" y2="236.8"/><line class="cls-41" x1="167.38" y1="238.91" x2="157.7" y2="233.32"/><line class="cls-42" x1="186.87" y1="249.8" x2="186.87" y2="248.8"/><line class="cls-41" x1="186.74" y1="250.08" x2="187.71" y2="249.53"/><line class="cls-42" x1="196.87" y1="255.8" x2="196.87" y2="254.8"/><line class="cls-41" x1="196.42" y1="254.55" x2="187.71" y2="249.53"/><line class="cls-41" x1="202" y1="257.78" x2="196.42" y2="254.55"/><path class="cls-41" d="M221.91,299.26" transform="translate(-15.82)"/><path class="cls-41" d="M192.88,282.49" transform="translate(-15.82)"/><line class="cls-41" x1="186.74" y1="248.97" x2="177.06" y2="243.38"/><line class="cls-41" x1="196.42" y1="255.67" x2="186.74" y2="250.08"/><line class="cls-41" x1="118.99" y1="228.29" x2="118.75" y2="228.15"/><line class="cls-41" x1="118.99" y1="218.51" x2="118.75" y2="218.37"/><line class="cls-41" x1="118.99" y1="238.07" x2="118.75" y2="237.93"/><line class="cls-42" x1="118.87" y1="247.8" x2="118.87" y2="248.8"/><line class="cls-41" x1="128.67" y1="215.44" x2="129.63" y2="216"/><line class="cls-41" x1="157.7" y1="251.76" x2="158.67" y2="252.32"/><line class="cls-41" x1="202" y1="257.78" x2="206.09" y2="264.35"/><line class="cls-41" x1="157.7" y1="232.2" x2="158.67" y2="232.76"/><line class="cls-41" x1="186.74" y1="248.97" x2="187.71" y2="249.53"/><line class="cls-41" x1="157.7" y1="261.54" x2="158.67" y2="262.1"/><line class="cls-41" x1="157.7" y1="241.98" x2="158.67" y2="242.54"/><line class="cls-42" x1="118.87" y1="236.8" x2="118.87" y2="237.8"/><line class="cls-42" x1="118.87" y1="217.8" x2="118.87" y2="218.8"/><line class="cls-42" x1="118.87" y1="226.8" x2="118.87" y2="227.8"/><line class="cls-42" x1="118.87" y1="246.8" x2="118.87" y2="247.8"/><line class="cls-41" x1="118.99" y1="248.97" x2="206.09" y2="299.26"/><path class="cls-43" d="M21.19,295.93l12.1,7-12.1,7Zm-.24,0" transform="translate(-15.82)"/><path class="cls-43" d="M20.95,309.9l12.1-7,1.82,1-9.68,5.59v2.79l-3.37-1.94Zm0,0" transform="translate(-15.82)"/><path class="cls-43" d="M25.18,309.55,34.86,304l3.63,2.1-9.68,5.59L27.6,311Zm0,0" transform="translate(-15.82)"/><path class="cls-43" d="M29.19,311.65l9.49-5.59,2.51,1.4-12,7Zm-.38,0" transform="translate(-15.82)"/><path class="cls-43" d="M28.81,314.44l12.33-7,16,9.13v14L29.91,314.95Zm0,0" transform="translate(-15.82)"/><path class="cls-43" d="M202.19,400.41v14l-28.3-16.26,12.17-7Zm-.28,0" transform="translate(-15.82)"/><path class="cls-43" d="M226.85,414.68l12.33,7v2.1l-8,4.54v2.79l-28.24-16.21,12.13-7Zm-.24,0" transform="translate(-15.82)"/><path class="cls-43" d="M231.09,428.3l8.1-4.54v4.19l-4.47,2.44-1.21-.7Zm-.24,0" transform="translate(-15.82)"/><path class="cls-43" d="M234.19,430.39l5-2.44v2.79l-5,2.44Zm.29,0" transform="translate(-15.82)"/><path class="cls-43" d="M234.72,433.19l4.47-2.44v4.89l-3.48-1.94Zm-.24,0" transform="translate(-15.82)"/><path class="cls-43" d="M215.28,407.9l-12.1,7v-14Zm-.41,0" transform="translate(-15.82)"/><path class="cls-43" d="M173.19,383.65v14l-28.32-16.26,12.18-7Zm-.31,0" transform="translate(-15.82)"/><path class="cls-43" d="M186.28,391.14l-12.1,7v-14Zm-.44,0" transform="translate(-15.82)"/><path class="cls-43" d="M144.19,366.88v14l-28.34-16.26,12.19-7Zm-.35,0" transform="translate(-15.82)"/><path class="cls-43" d="M157.28,374.37l-12.1,7v-14Zm-.48,0" transform="translate(-15.82)"/><path class="cls-43" d="M115.19,350.12v14L86.83,347.83l12.19-7Zm-.38,0" transform="translate(-15.82)"/><path class="cls-43" d="M127.28,357.61l-12.1,7v-14Zm.49,0" transform="translate(-15.82)"/><path class="cls-43" d="M86.19,333.36v14L57.81,331.07l12.2-7Zm-.42,0" transform="translate(-15.82)"/><path class="cls-43" d="M98.28,340.85l-12.1,7v-14Zm.45,0" transform="translate(-15.82)"/><path class="cls-43" d="M69.28,324.08l-12.1,7v-14Zm.42,0" transform="translate(-15.82)"/><path class="cls-43" d="M226.19,297.57l13,7V406.69l-13,7V297.57Zm.43,0" transform="translate(-15.82)"/><path class="cls-43" d="M226.85,413.67l12.33-7v14l-11.35-6.48Zm-.24,0" transform="translate(-15.82)"/><path class="cls-43" d="M33.19,183.47v.45l.7.45-.81.45-6.41-3.69-2.43-1.4-2.42-1.4-.87-.5,21.14-12.2,11,6.31Zm-.14,0" transform="translate(-15.82)"/><path class="cls-43" d="M162.12,173.09l-8,5.8L130.45,141l-.62-1,.44.25,8.36-4.83Zm0,0" transform="translate(-15.82)"/><path class="cls-43" d="M42.19,165.62l-21,12.2v-7.62l21-9.49Zm-.1,0" transform="translate(-15.82)"/><path class="cls-43" d="M138.55,135.43l-8.36,4.83V122Zm.08,0" transform="translate(-15.82)"/><path class="cls-43" d="M36.57,181.88,33,183.47l20-11.53,1.06-.67,75.11-33.77v2.27l.54.25L44.35,178.36Zm0,0" transform="translate(-15.82)"/><path class="cls-43" d="M129.19,137.49,54.08,171.26l-1.06.67-10.83-6.31v-4.9l87-39.21Zm.21,0" transform="translate(-15.82)"/><path class="cls-43" d="M226.19,295.22l.28.11,8.68-4.95.39.88-9.35,5.3Zm.43,0" transform="translate(-15.82)"/><path class="cls-43" d="M235.25,290.39l-8.57,4.95,1-.76,4.42-3.19,2.57-1.86Zm0,0" transform="translate(-15.82)"/><path class="cls-43" d="M226.61,296.57l9.42-5.3,3.15,4.67v7.62l-11.46-6.48Zm0,0" transform="translate(-15.82)"/><g class="cls-44"><polygon class="cls-45" points="222.37 420.55 222.37 406.58 222.37 304.45 210.37 297.46 210.37 391.56 210.37 391.62 210.37 395.76 210.37 412.56 210.37 413.56 211.19 414.06 222.37 420.55"/><polygon class="cls-45" points="222.37 303.44 222.37 295.82 219.69 291.15 219.25 290.28 218.78 289.42 216.24 291.28 211.83 294.47 210.61 295.22 210.37 295.11 210.37 296.46 211.19 296.96 222.37 303.44"/><polygon class="cls-45" points="70.37 333.75 70.37 346.71 70.37 347.72 99.37 363.98 99.37 350.01 82.88 340.74 70.37 333.75"/><polygon class="cls-45" points="41.37 316.99 41.37 329.95 41.37 330.96 70.37 347.22 70.37 333.25 53.88 323.97 41.37 316.99"/><polygon class="cls-45" points="215.37 428.19 217.47 429.58 218.37 430.28 218.37 433.08 219.12 433.58 222.37 435.52 222.37 430.63 222.37 427.84 222.37 423.65 222.37 421.55 210.5 414.57 199.11 407.79 187.37 400.81 187.37 413.77 187.37 414.77 215.37 430.98 215.37 428.19"/><polygon class="cls-45" points="99.37 350.51 99.37 363.48 99.37 364.48 128.37 380.75 128.37 366.77 111.88 357.5 99.37 350.51"/><polygon class="cls-45" points="128.37 367.28 128.37 380.24 128.37 381.25 157.37 397.51 157.37 383.54 140.88 374.26 128.37 367.28"/><polygon class="cls-45" points="9.37 312.24 9.37 309.44 11.97 310.84 13.37 311.54 13.37 314.33 13.78 314.84 40.37 330.45 40.37 316.48 24.79 307.35 22.48 305.95 18.91 303.86 17.28 302.81 5.37 295.82 5.37 309.79 6.12 310.3 9.37 312.24"/><polygon class="cls-45" points="186.37 400.3 169.88 391.03 157.37 384.04 157.37 397.01 157.37 398.01 186.37 414.27 186.37 400.3"/><polygon class="cls-45" points="8.35 179.61 10.77 181.01 17.16 184.7 18.04 184.25 17.37 183.81 17.37 183.36 20.79 181.78 28.57 178.25 113.9 139.9 113.37 139.64 113.37 137.38 113.37 121.4 26.28 160.6 5.37 170.1 5.37 172.55 5.37 177.71 6.09 178.22 8.35 179.61"/><polygon class="cls-45" points="138.19 178.78 146.23 172.98 122.74 135.32 114.37 121.9 114.37 139.14 114.37 139.64 114.37 140.15 113.94 139.9 114.56 140.88 138.19 178.78"/></g><g class="cls-46"><path class="cls-47" d="M241.49,297.29q13.68-7.84,27.36-15.68Q292.5,268,316.13,254.35q26.72-15.44,53.42-30.92,35-20.19,69.93-40.36c1.18-.68,2.16-1,3.07.3.36.5.67.94,1.41.46.48-.31,1.2-1,1.63,0a1.61,1.61,0,0,1-.56,2,7,7,0,0,1-1.33.82,2.93,2.93,0,0,0-2,3.53,3.27,3.27,0,0,1,1.07,2.6c0,1.12,0,2.24,0,3.36q0,59.32,0,118.65c0,1.19,0,2.39,0,3.58a3.28,3.28,0,0,1-1.71,3.15,4.4,4.4,0,0,0-2.31,4.29c.09,2-.93,3.1-2.57,4.05-19.61,11.38-39.29,22.65-58.91,34a10.9,10.9,0,0,0-3.18,2.44,2,2,0,0,1-.86.69c-8.05,2.94-15,8-22.34,12.18C331.87,390,313,401,294.07,411.92c-10.8,6.21-21.55,12.5-32.36,18.69a16.53,16.53,0,0,0-3.59,2.65,3,3,0,0,1-1.25.93c-4.2,1.08-7.56,3.83-11.37,5.69-2.6,1.27-3.3.9-3.3-2.06q0-37.39,0-74.77,0-30.22,0-60.44a2.47,2.47,0,0,0-1.22-2.35C239.45,299.19,239.66,298.29,241.49,297.29Z" transform="translate(-15.82)"/><path class="cls-48" d="M243.31,302.64a5.83,5.83,0,0,0-.41,3.07q0,65.71,0,131.42c0,2.88,0,2.82,2.54,1.51,3.77-1.92,7.74-3.71,11.2-5.92,4.19-2.67,8.44-5.27,12.71-7.79,11.11-6.55,22.35-12.88,33.51-19.34q18.3-10.57,36.57-21.2,14.52-8.41,29-16.8,26.38-15.19,52.78-30.36c5-2.86,9.91-5.8,14.9-8.64a2.8,2.8,0,0,0,1.47-3c-.2-2.27.18-4.13,2.68-5a2.2,2.2,0,0,0,1.36-2.36c0-.82,0-1.64,0-2.46q0-62.8,0-125.6L483,198c5.64,1.07,11.25,2.48,16.94,3.08,3.12.33,6.31.11,9.45.76a4.08,4.08,0,0,1,3.33,2.85q16.71,44.15,33.49,88.27c.53,1.4,1,2.59-1.3,2.48a1.44,1.44,0,0,0-1,.73c-.2.39.29.62.61.78,1.66.85.9,1.4-.19,2q-17.75,10.21-35.48,20.44L426.1,367.23l-73.45,42.39L347,412.87c-1.56.9-3.06,1.87-5,.83-.85-.45-1.74.19-2.56.5l-76.79,29.07a123.52,123.52,0,0,1-13.17,4.4l5.17-3.11a1.07,1.07,0,0,0-1.32,0c-3.18,1.78-6.23,2-9.24-.45-1.09-.9-2.28,0-3.39.35s-2.2,1.08-3.4.3c-.66-.43-1.76-.59-1.8-1.47s1-1.06,1.6-1.36c2-.9.81-1.51-.15-2.17a1.15,1.15,0,0,1,.36-1.41c1.66-1.21,1.61-3,1.92-4.79,1.12-6.45.65-12.93.66-19.4q.08-45.29,0-90.57c0-1.15-.37-2.41.56-3.42,1.27-.08,1.07.85,1.12,1.62.19,3,.09,5.92.09,8.89,0,35.34,0,70.69,0,96.77,0-27.1,0-63.45,0-99.81,0-7.48-.33-14.95-.23-22.43a8.64,8.64,0,0,1,.14-2C241.84,302.34,242.34,301.43,243.31,302.64Z" transform="translate(-15.82)"/><path class="cls-49" d="M228.1,270.35Q217.55,253.52,207,236.7,187.42,205.34,167.9,174c-.31-.5-.55-1-.83-1.57q8.23-4.73,16.46-9.47c2.17-1.25,2.57-1.08,2.84,1.46q1.61,15,3.18,30a6.63,6.63,0,0,0,1,2.93q20.84,33.36,41.66,66.74l.35.57c1.49,2.5,1.46,2.52-1.15,3.64C230.17,268.72,228.76,269,228.1,270.35Z" transform="translate(-15.82)"/><path class="cls-48" d="M35,319.27q13.77,7.9,27.54,15.81L157.73,390c23.25,13.42,46.47,26.89,69.77,40.21,2.45,1.4,2.93,3.06,2.38,5.47q-15.32-8.78-30.64-17.57Q157.11,393.78,115,369.45q-36.5-21.08-73-42.22c-2.54-1.48-4.76-2.44-7.59-.81-1.79,1-3-.65-4-1.29-.6-1.94,4.37-.84,1.53-3.74C32.08,319.4,32.35,319.22,35,319.27Z" transform="translate(-15.82)"/><path class="cls-47" d="M134.86,126.28c-1.14-1.05.58-.9.62-1.46q20.65-11.89,41.3-23.78,37.7-21.75,75.38-43.52Q293.63,33.57,335.1,9.64c.62-.36,1.5-1.55,2.21-.26.57,1,.35,2-1,2.73Q326,17.94,315.82,24c-1.1.65-1.88.65-3-.89.17,2.41-1,3.21-2.45,4-6.43,3.64-12.81,7.35-19.19,11.07-1.09.64-2.12,1.46-3-.7.19,2.15-.85,3-2.23,3.73-6.43,3.63-12.8,7.37-19.19,11.06-1,.59-2.07,1.44-3.35-.38-.1,2.49-1.61,3.3-3.19,4.19-6.17,3.48-12.29,7-18.42,10.61-1,.59-2,1.18-3.19-.4,0,2.2-1.24,3-2.62,3.79-6.29,3.58-12.54,7.22-18.81,10.82-1.08.62-2.18,1.72-3.43-.34.27,2.2-.94,2.9-2.28,3.67q-9.73,5.53-19.37,11.2c-1.12.66-2.06,1.11-3.37-.93.37,2.84-1.14,3.53-2.57,4.35q-9.43,5.38-18.81,10.83c-1.11.65-2.09,1.19-3.41-.94.47,2.66-.75,3.37-2.1,4.14-6.42,3.65-12.8,7.37-19.19,11.07-1.06.61-2.09,1.33-3.11-.16C138.61,127,138,127.3,134.86,126.28Z" transform="translate(-15.82)"/><path class="cls-47" d="M23.51,167c-1.61,1.1-3.83,1.17-4.95,3.11-.39.67-.93.35-1.06-.28s-.17-1.47-.86-1.93c4.81-2.07,9.16-5,13.68-7.59Q69.7,137.69,109,114.93q40.41-23.33,80.84-46.63c.64-.37,1.49-1.6,2.2-.45.59,1,0,1.86-1.11,2.54-5.44,3.48-11.51,5.65-17.3,8.39-1,.49-2.26.68-2.2,2.36,0,.89-1.12,1.1-1.78,1.53-6.53,4.25-13.7,7.25-20.77,10.43-1,.47-2.29.68-2.13,2.4.07.75-1,1-1.6,1.4-6.74,4.19-14,7.36-21.19,10.6-1,.45-2.13.66-2,2.26.07.81-1,1-1.58,1.41a154.77,154.77,0,0,1-20.15,10.16c-1.38.61-3.28.75-3.24,3,0,.55-.86.73-1.36,1.05-6.71,4.4-14.09,7.46-21.36,10.74-1,.44-2.09.63-2,2.25,0,.83-1.17,1.24-1.93,1.71a161.84,161.84,0,0,1-20,10c-1.21.53-3.09.57-2.73,2.83.09.54-.85.74-1.34,1-6.9,4.35-14.36,7.6-21.76,11C23.82,165.23,21.74,165.36,23.51,167Z" transform="translate(-15.82)"/><path class="cls-50" d="M237.25,290.54c0-1.37,1.22-1.77,2-2.55,5.14-3.45,10.67-6.25,16-9.43,1.47-.88,2.94-1.79,4.48-2.53,1.83-.88,2.07-1.85.95-3.62-6.81-10.78-13.53-21.62-20.28-32.44l-48.52-77.85a3.67,3.67,0,0,1-.93-2c1,0,1.08.8,1.39,1.3q36.31,58.18,72.61,116.36c.67,1.08.65,1.63-.47,2.28-6.34,3.64-12.66,7.3-19,11-1.07.63-1.44-.18-2.26-.76-.11,2.36-1.2,2.33-2.83,1.4A19.55,19.55,0,0,0,237.25,290.54Z" transform="translate(-15.82)"/><path class="cls-50" d="M218.39,52.21c-2,3.73-5.29,5.73-8.93,7.29A22.08,22.08,0,0,1,206.2,61c-4.35,1.06-6.5,4-7.16,8.37-.76-.71-.5-1.42-.5-2q0-18.9,0-37.81c0-.37,0-.75,0-1.12,0-.9.24-1.86,1.2-1.83,1.14,0,.65,1.15.65,1.78,0,10.22,0,20.43,0,30.65,0,.8-.32,1.83.41,2.32.9.6,1.63-.37,2.36-.78,4.53-2.59,9-5.21,13.56-7.82A2.08,2.08,0,0,1,218.39,52.21Z" transform="translate(-15.82)"/><path class="cls-47" d="M234.76,441a20.31,20.31,0,0,0,.25-4.9c0-1.09.34-1.23,1.35-.74,3.81,1.86,3.83,1.82,3.83-2.46V301.8h0V320c0,1.27.16,2.53.16,3.8q0,54.32.18,108.65c0,3.24-.28,5.87-3.59,7.24C236,439.79,235.52,440.59,234.76,441Z" transform="translate(-15.82)"/><path class="cls-51" d="M165.85,170.52l-.92-1.31c4.37-1.63,8.09-4.45,12.15-6.63,2.89-1.55,5.68-3.28,8.53-4.91.6-.34,1.32-1.13,1.9-.16s-.14,1.56-.89,2c-3.27,1.94-6.55,3.87-9.85,5.76-2.33,1.33-4.81,2.43-7,3.94C168.51,170.08,166.89,169.34,165.85,170.52Z" transform="translate(-15.82)"/><path class="cls-52" d="M35,319.27c-.92.85-2.3,1-3.06,2.11l-1.75.54a6,6,0,0,1-.07-1.09c.15-1.34-.69-3.29.4-3.86s2.38,1,3.59,1.68A7.92,7.92,0,0,1,35,319.27Z" transform="translate(-15.82)"/><path class="cls-53" d="M217.9,58.4c1.1-.6,2.2-1.18,3.29-1.79s1.93-1.1,2.11-2.4a1.87,1.87,0,0,1,1.32-1.4,1.23,1.23,0,0,1,1.56.5c.55.71,0,1.14-.48,1.43C223.19,56.17,220.76,57.73,217.9,58.4Z" transform="translate(-15.82)"/><path class="cls-54" d="M125.52,120.41c1.6,0,2.81-1.54,5.19-1.26l-5.19,2.11Z" transform="translate(-15.82)"/><path class="cls-47" d="M27,295.49c-1.1-.58-.35-1.84-1-2.61-.06-1.24.75-1.82,1.71-2.37,3.75-2.14,7.43-4.41,11.22-6.48A5.45,5.45,0,0,0,42,278.79q0-34.07,0-68.14c0-2.42-1.15-4.43-2.12-6.51-.22-.47-.6-.85-.59-1.42.13-4.59-.24-9.17-.17-13.76a5.44,5.44,0,0,1,.41-2.28c7.11-3.25,14.2-6.54,21.32-9.75Q94.42,161.85,128,146.78c1.59-.72,2.25-.46,3.13,1,6.76,11,13.63,21.89,20.41,32.85,1.06,1.72,1.88,2.36,3.74.83,2.64-2.18,5.58-4,8.28-6.1,1.42-1.11,2.08-.9,3,.61q18.73,30.21,37.58,60.35,10.23,16.41,20.45,32.83c.34.55.94,1,.8,1.78-.08,1.14-.88,1.57-1.81,2-7.25,3.44-14.68,6.49-21.92,9.94-.64.3-1.64.36-1.6,1.3s.9,1.12,1.53,1.48c6.08,3.45,12.1,7,18.17,10.46a6.15,6.15,0,0,1,2.93,2.93l0,1.41c-1,.73-1.82.14-2.68-.33-5.82-3.19-11.51-6.62-17.28-9.91-1.93-1.1-3.76-1.72-5.92-.72a5.7,5.7,0,0,1-3.53.16q-9.89-1.9-19.79-3.77a14.09,14.09,0,0,1-4.57-1.76c-11.19-6.58-22.54-12.88-33.68-19.54a6.08,6.08,0,0,0-7,0c-4.58,2.8-9.33,5.33-13.91,8.12a4.63,4.63,0,0,1-4.25.59,5.71,5.71,0,0,0-4.15.14Q87,280.57,68.18,287.69c-2.17.83-4.06,2.22-6.13,3.23-1.5.74-3.19,2-4.76.79s-1-3.36-.67-5a3.84,3.84,0,0,0,0-2.87c-.53-1.12-.25-2.5-.25-3.76q0-30.56,0-61.11a12.35,12.35,0,0,0-.21-3.34,3.42,3.42,0,0,0-3.5-2.57,3.19,3.19,0,0,0-2.94,2.9,17.38,17.38,0,0,0-.09,2.91q0,28.32,0,56.64a22.81,22.81,0,0,1-.14,3.57c-.13.8-.47,1.47-1.37,1.5s-1.29-.62-1.43-1.43a20.93,20.93,0,0,1-.16-3.57q0-29.55,0-59.1a13.84,13.84,0,0,0-.19-3.25A4.49,4.49,0,0,0,46,215.5q0,32.68,0,65.37a6.76,6.76,0,0,0,0,1.56c.45,1.86-.47,2.9-2,3.78-4.81,2.83-9.76,5.41-14.47,8.4A9.46,9.46,0,0,1,27,295.49Z" transform="translate(-15.82)"/><path class="cls-55" d="M27,295.49c1.91-2.3,4.75-3.23,7.18-4.75,3.09-1.94,6.31-3.69,9.5-5.46a2.44,2.44,0,0,0,1.39-2.49q-.08-35.15,0-70.29c0-.8-.73-2.28.75-2.36s1.82,1.18,1.82,2.55c0,10.75,0,21.49,0,32.24s0,21.49,0,32.24A5,5,0,0,0,48,280c.84-1,.57-2,.57-2.88q0-30.89,0-61.79a3.68,3.68,0,0,1,5.19-3.68c3,1,3.67,2,3.67,5.24q0,32.35,0,64.7c0,3.06,0,3.06,3.07,2.7-3.05.89-3.3,3.14-3.07,5.7.1,1.1.49,1.5,1.56,1.09a10.41,10.41,0,0,0,1.67-.63c9.21-5.59,19.67-8.17,29.5-12.24,5.3-2.2,10.74-4.08,16.1-6.13,1.21-.46,2.39-.93,3.6,0s2.47.5,3.71-.23c5.27-3.1,10.62-6.07,15.85-9.25a3.84,3.84,0,0,1,4.5,0c10.89,6.35,21.93,12.46,32.69,19,4.25,2.59,8.78,3.55,13.46,4.44,4.32.81,8.66,1.59,13,2.48a5.9,5.9,0,0,0,4.53-.54c1.38-.85,2.58-.56,3.94.25,7,4.13,14.07,8.16,21.11,12.22q0,14.29,0,28.57c-.91.72-1.74.17-2.49-.24-5.37-2.93-10.61-6.09-15.92-9.12a3,3,0,0,1-1.36-2.88c-.07-2.76,0-5.52,0-8.28-.05-2.34-.76-2.82-2.7-1.71Q184.27,315.84,168.5,325a3.82,3.82,0,0,0-2,3.52q-.06,17,0,34c0,2.18.77,2.68,2.84,1.92,7.7-2.84,15.45-5.57,23-8.8,5.13-2.19,9.74-5.48,14.62-8.23,4.16-2.35,8.25-4.81,12.41-7.15,1-.55,2-1.47,3.27-.45,0,16.49.09,33,0,49.47,0,2.23-.14,4.45.07,6.67.38,4.14-.51,8.15-1.18,12.41-4.24-2.43-8.42-4.82-12.59-7.22L134.32,358.1,55.84,312.77q-12.56-7.26-25.12-14.54a5.16,5.16,0,0,1-2-1.39c4.06-2.88,8.5-5.12,12.81-7.59,1.92-1.1,3.69-2.49,5.29-3-3,1.57-6.3,3.67-9.73,5.56-2.28,1.26-4.48,2.64-6.75,3.9-.7.39-1.37,1.22-2.37.68Z" transform="translate(-15.82)"/><path class="cls-47" d="M222.65,339.85c-5.63,3.21-11.41,6.19-16.87,9.68-9.19,5.88-19.17,9.9-29.35,13.56-3,1.08-6,2.19-9,3.38-1.41.56-2,.44-2-1.27q0-19,0-38a2.78,2.78,0,0,1,1.62-2.66q17.54-10.09,35.06-20.24c1.58-.92,2-.27,1.95,1.23,0,3.58,0,7.16,0,10.74a3,3,0,0,0,1.79,3c5.64,3.2,11.23,6.49,16.84,9.74Z" transform="translate(-15.82)"/><path class="cls-55" d="M222.63,299q-12.11-7-24.22-13.95c-.47-.27-1.3-.38-1.17-1.14s.86-.75,1.39-1l26.69-12c2.38,2.58,3.78,5.8,5.76,8.65.59.85,1.08,1.77,1.63,2.65,1.95,3.11,2,3.12-.93,5.17-2.17,1.54-4.31,3.13-6.54,4.59-1.87,1.23-3,2.71-2.56,5.07A9.44,9.44,0,0,1,222.63,299Z" transform="translate(-15.82)"/><path class="cls-56" d="M131.26,144.8c-1.42-1.15-2.63-.37-3.89.2Q85.17,163.94,43,182.9c-2.22,1-4.64,1.64-6.56,3.26-.91.76-1.43-.09-2.42-.71,4-1.81,7.74-3.51,11.49-5.19q41.39-18.58,82.75-37.2C130.34,142.1,130.58,143.46,131.26,144.8Z" transform="translate(-15.82)"/><path class="cls-47" d="M225.19,390V294.63h0V390Z" transform="translate(-15.82)"/><path class="cls-51" d="M40,202.75a2.42,2.42,0,0,1-1-2.1,90.51,90.51,0,0,1-.84-10.34c0-.71.39-1.74-.92-1.86a2.56,2.56,0,0,1,2.26-1.78c.76,1.39.4,2.9.42,4.35C40,194.93,40,198.84,40,202.75Z" transform="translate(-15.82)"/><path class="cls-57" d="M28,296.35c5.17-2.32,9.83-5.55,14.79-8.24,1.4-.76,2.77-1.56,4.15-2.35l.33.59L28.75,296.84C28.42,296.8,28,296.82,28,296.35Z" transform="translate(-15.82)"/><path class="cls-56" d="M224.19,411V396.43h1V411S225.19,411,224.19,411Z" transform="translate(-15.82)"/><path class="cls-47" d="M95.53,307.3c0-5.74,0-11.49,0-17.23,0-.55-.46-1.53.58-1.6a1.55,1.55,0,0,1,1.65,1.5,20,20,0,0,1,.08,2.23q0,13.87,0,27.74c0,3.06.18,3.17,3,2.09,6.42-2.42,12.86-4.79,19.24-7.3,3.48-1.37,6.53-3.57,9.77-5.41a2.51,2.51,0,0,1,2.86,0q14.4,8.38,28.86,16.67a2.73,2.73,0,0,1,1.54,2.7c-.05,3.28-.08,6.56,0,9.84.05,2-.53,2.16-2.15,1.21-8.11-4.74-16.26-9.42-24.39-14.11-4.33-2.5-8.71-4.9-13-7.5a4.5,4.5,0,0,0-4.4-.3c-7.09,2.74-14.22,5.4-21.33,8.09-2.29.87-2.39.81-2.4-1.6C95.52,318.63,95.53,313,95.53,307.3Z" transform="translate(-15.82)"/><path class="cls-55" d="M167.73,353.6c0-2.6,0-5.21,0-7.81,0-1.37.34-2.05,1.81-1.2,5.79,3.36,11.59,6.7,17.38,10.07.42.24,1.12.42.91,1.06-.11.32-.66.54-1.06.69-5.63,2.15-11.28,4.24-16.89,6.42-1.56.61-2.2.33-2.15-1.42C167.78,358.81,167.73,356.21,167.73,353.6Z" transform="translate(-15.82)"/><path class="cls-58" d="M199.41,312.21c-.51.8.71,2.68-1.06,2.49a7.17,7.17,0,0,1-4.29-2.57c-.27-.3,3.86-3.13,4.48-2.87C200,309.85,199.05,311.19,199.41,312.21Z" transform="translate(-15.82)"/></g><path class="cls-5" d="M25.37,313.35l1-.5,2.85,1.59v1Zm-.19,0" transform="translate(-15.82)"/><path class="cls-5" d="M26.05,312.85l-.87.5v-1Zm0,0" transform="translate(-15.82)"/><path class="cls-5" d="M25.19,312.35v1l-4.24-2.44.87-.5Zm0,0" transform="translate(-15.82)"/><path class="cls-5" d="M21.82,310.41l-.87.5v-1Zm0,0" transform="translate(-15.82)"/><path class="cls-5" d="M20.95,309.9v1l-.23-.13-.64-.37Zm0,0" transform="translate(-15.82)"/><path class="cls-5" d="M21.19,309.9l-1,.5v-16l1,.5v15Zm-.24,0" transform="translate(-15.82)"/><path class="cls-5" d="M20.95,294.93l-.87-.5,1-.56.87.5Zm0,0" transform="translate(-15.82)"/><path class="cls-5" d="M20.95,295.93v-1l.87.5Zm0,0" transform="translate(-15.82)"/><path class="cls-5" d="M20.95,294.93l.88-.56,1.36.84v1.12l-1.46-.89Zm0,0" transform="translate(-15.82)"/><path class="cls-5" d="M23.37,296.33v-1.12l1,.56Zm0,0" transform="translate(-15.82)"/><path class="cls-5" d="M21,295.93l.84-.5,1.53.89,2.48,1.4,7.32,4.19v1Zm-.07,0" transform="translate(-15.82)"/><path class="cls-5" d="M33,302.92v-1l.87.5Zm0,0" transform="translate(-15.82)"/><path class="cls-5" d="M26.19,297.72l-2.62-1.4,1.07-.56,1.55.84Zm-.4,0" transform="translate(-15.82)"/><path class="cls-5" d="M25.79,297.72V296.6l1,.56Zm0,0" transform="translate(-15.82)"/><path class="cls-5" d="M33,302.92l.87-.5L57.6,316.09l-.87.5-15.82-9.13-2.42-1.4L34.86,304Zm0,0" transform="translate(-15.82)"/><path class="cls-5" d="M57.19,330.56v0Zm-.46,0" transform="translate(-15.82)"/><path class="cls-5" d="M57.6,317.1l-.87-.5.87-.5.87.5Zm0,0" transform="translate(-15.82)"/><path class="cls-5" d="M56.73,330.56l.87-.5v1Zm0,0" transform="translate(-15.82)"/><path class="cls-5" d="M56.73,330.56l.87.5,28.16,16.26.87.5,28.16,16.26.87.5,28.16,16.26.87.5,28.16,16.26.87.5,28.16,16.26,1,.5,28.24,16.21v1l-195.82-113-6.47-3.69.83-.5Zm0,0" transform="translate(-15.82)"/><path class="cls-5" d="M29.68,314.95l-.87.5v-1Zm0,0" transform="translate(-15.82)"/><path class="cls-5" d="M144.71,381.36l-.87-.5.87-.5Zm0,0" transform="translate(-15.82)"/><path class="cls-5" d="M115.67,364.59l-.87-.5.87-.5Zm0,0" transform="translate(-15.82)"/><path class="cls-5" d="M86.64,347.83l-.87-.5.87-.5Zm0,0" transform="translate(-15.82)"/><path class="cls-5" d="M203.19,413.88l-1,.5v-14l1,.5Zm-.41,0" transform="translate(-15.82)"/><path class="cls-5" d="M202.78,400.89l-.87-.5.87-.5.87.5Zm0,0" transform="translate(-15.82)"/><path class="cls-5" d="M202.78,399.89l-.87.5-16.07-9.28-12.1-7,.87-.5Zm0,0" transform="translate(-15.82)"/><path class="cls-5" d="M202.78,400.91l.87-.5,19.77,11.41.48.28,1.62,1.06.66-.5v2l-11.52-6.78Zm0,0" transform="translate(-15.82)"/><path class="cls-5" d="M223.9,412.11l-.48-.28.48-.28Zm0,0" transform="translate(-15.82)"/><path class="cls-5" d="M226.61,414.68v-1l.87.5Zm0,0" transform="translate(-15.82)"/><path class="cls-5" d="M226.19,412.66V396.32l-.39,0,.39-.47Zm.43,0" transform="translate(-15.82)"/><path class="cls-5" d="M226.85,414.68l1-.5,11.35,6.48v1Zm-.24,0" transform="translate(-15.82)"/><path class="cls-5" d="M238.71,421.66v-1l.87-.5v1Zm0,0" transform="translate(-15.82)"/><path class="cls-5" d="M223.9,411.55l-.48.28v-1.12l.48-.28Zm0,0" transform="translate(-15.82)"/><path class="cls-5" d="M223.19,410.71v1.12l-19.65-11.41-.81-.5-28.13-16.26-.86-.5-28.16-16.26-.87-.5-28.16-16.26-.87-.5L87.51,333.36l-.87-.5L58.47,316.59l-.87-.5L33.92,302.42l-.87-.5,1-.56,188.32,108.8Zm.23,0" transform="translate(-15.82)"/><path class="cls-5" d="M223.42,410.71l-1-.56,1-.56Zm0,0" transform="translate(-15.82)"/><path class="cls-5" d="M34,301.35l-1,.56-7.26-4.19,1-.56.58.34Zm0,0" transform="translate(-15.82)"/><path class="cls-5" d="M239.19,420.15v0Zm.4,0" transform="translate(-15.82)"/><path class="cls-5" d="M239.19,421.66v0Zm-.47,0" transform="translate(-15.82)"/><path class="cls-5" d="M238.71,435.63l.87-.5v1l-.87.5Zm0,0" transform="translate(-15.82)"/><path class="cls-5" d="M239.19,435.63v1l-4.47-2.44,1-.5Zm-.47,0" transform="translate(-15.82)"/><path class="cls-5" d="M235.35,433.69l-.87.5v-1Zm0,0" transform="translate(-15.82)"/><path class="cls-5" d="M238.71,436.64l.87-.5v1Zm0,0" transform="translate(-15.82)"/><path class="cls-5" d="M29.19,322.83l-3.63-2.1,3.63-2.1Zm-.38,0" transform="translate(-15.82)"/><path class="cls-5" d="M234.19,441.57l-3.63-2.1,3.63-2.1Zm.29,0" transform="translate(-15.82)"/><path class="cls-5" d="M16.19,170.71v0Zm-.37,0" transform="translate(-15.82)"/><path class="cls-5" d="M17.75,171.82l-1.93-1.12.24-.14L18,171.68Zm0,0" transform="translate(-15.82)"/><path class="cls-5" d="M17.81,311.9V293.11l.48.28v18.22Zm0,0" transform="translate(-15.82)"/><path class="cls-5" d="M18.29,312.17l-.48-.28.48-.28Zm0,0" transform="translate(-15.82)"/><path class="cls-5" d="M18.29,293.39l-.48-.28.48-.28.48.28Zm0,0" transform="translate(-15.82)"/><path class="cls-5" d="M242,441.32l-.48-.28.48-.28Zm0,0" transform="translate(-15.82)"/><path class="cls-5" d="M17.3,178.4v-.56l.46.26,0,0Zm0,0" transform="translate(-15.82)"/><path class="cls-5" d="M17.3,292.82v-.56l.48.28Zm0,0" transform="translate(-15.82)"/><path class="cls-5" d="M20.19,180l-2.83-1.6.46-.28.5.26,1.88,1.06Zm-.11,0" transform="translate(-15.82)"/><path class="cls-5" d="M20.08,180v-.56l.49.28Zm0,0" transform="translate(-15.82)"/><path class="cls-5" d="M29.19,318.63l-4,2.1v-7.38l4,2.1Zm-.38,0" transform="translate(-15.82)"/><path class="cls-5" d="M234.19,437.38l-3,2.1V432.1l3,2.1Zm.29,0" transform="translate(-15.82)"/><path class="cls-5" d="M241.44,301l-1.85-1.07.24-.14,1.85,1.07Zm0,0" transform="translate(-15.82)"/><path class="cls-5" d="M174.19,397.11l-1,.5v-14l1,.5Zm-.44,0" transform="translate(-15.82)"/><path class="cls-5" d="M173.74,384.15l-.87-.5.87-.5.87.5Zm0,0" transform="translate(-15.82)"/><path class="cls-5" d="M173.74,383.15l-.87.5-16.07-9.28-12.1-7,.87-.5Zm0,0" transform="translate(-15.82)"/><path class="cls-5" d="M145.19,380.35l-1,.5v-14l1,.5Zm-.48,0" transform="translate(-15.82)"/><path class="cls-5" d="M144.71,367.39l-.87-.5.87-.5.87.5Zm0,0" transform="translate(-15.82)"/><path class="cls-5" d="M144.71,366.38l-.87.5-16.07-9.28-12.1-7,.87-.5Zm0,0" transform="translate(-15.82)"/><path class="cls-5" d="M115.19,363.59v0Zm.49,0" transform="translate(-15.82)"/><path class="cls-5" d="M115.67,350.62l-.87-.5.87-.5.87.5Zm0,0" transform="translate(-15.82)"/><path class="cls-5" d="M115.67,349.62l-.87.5-16.07-9.28-12.1-7,.87-.5Zm0,0" transform="translate(-15.82)"/><path class="cls-5" d="M86.19,346.82v0Zm.45,0" transform="translate(-15.82)"/><path class="cls-5" d="M86.64,333.86l-.87-.5.87-.5.87.5Zm0,0" transform="translate(-15.82)"/><path class="cls-5" d="M86.64,332.85l-.87.5L69.7,324.08l-12.1-7,.87-.5Zm0,0" transform="translate(-15.82)"/><path class="cls-5" d="M239.58,304.05l-.87.5v-1l.87-.5Zm0,0" transform="translate(-15.82)"/><path class="cls-5" d="M239.19,303.55v1l-12.33-7,1-.5Zm-.47,0" transform="translate(-15.82)"/><path class="cls-5" d="M239.19,303v-7.11l.18-.36-.18.41V303Zm.4,0" transform="translate(-15.82)"/><path class="cls-5" d="M239.19,299.9V297.1l1,.14v2.51Zm.4,0" transform="translate(-15.82)"/><path class="cls-5" d="M239.33,295.58l-.62.36-2.91-4.67-.55-.88-.53-.85.62-.36.63,1Zm0,0" transform="translate(-15.82)"/><path class="cls-5" d="M235.34,289.18l-.62.36-.12-.19-.53-.85.62-.36Zm0,0" transform="translate(-15.82)"/><path class="cls-5" d="M234.69,288.13l-.62.36-.49-.79.62-.36Zm0,0" transform="translate(-15.82)"/><path class="cls-5" d="M234.16,287.29l-.58.42-4.69,3.39-5.83,3.36,12.35-8.91.36.58Zm0,0" transform="translate(-15.82)"/><path class="cls-5" d="M235.77,286.13l-.36-.58,1-.55.36.58Zm0,0" transform="translate(-15.82)"/><path class="cls-5" d="M223.42,295l-.36-.58,5.83-3.36-5.14,3.71Zm0,0" transform="translate(-15.82)"/><path class="cls-5" d="M233.58,287.7l2.19-1.58,1.45,2.32,1-.55.3.48-2.35,1.69-.16.12-.63-1-.65-1-.49-.79Zm.58-.42" transform="translate(-15.82)"/><path class="cls-5" d="M223.19,295l.6-.2.4.23v95.45l-1,.28V295Zm.23,0" transform="translate(-15.82)"/><path class="cls-5" d="M223.42,390.79l.48-.28v.15l-.34.2Zm0,0" transform="translate(-15.82)"/><path class="cls-5" d="M235.77,286.13l1-.55,1.39,2.22-.9.65-1.34-2.15Zm0,0" transform="translate(-15.82)"/><path class="cls-5" d="M236.36,285l-1,.55-13.49-21.64-4.1-6.57L215.09,253l-11.76-18.86L188,209.46l-1.14-1.83-1.43-2.29-3-4.75L172.7,185l-6.56-10.53-1.07-1.72,1-.55Zm0,0" transform="translate(-15.82)"/><path class="cls-5" d="M166,172.35l-1,.55-.22-.35,0-.06-.11-.17,1-.55Zm0,0" transform="translate(-15.82)"/><path class="cls-5" d="M166.08,172.26l-1,.6L163.27,170l1-.6Zm-.4-.49" transform="translate(-15.82)"/><path class="cls-5" d="M163.51,170.24l1.45,2.32-1.61,1.16-.61-1-1.2-1.92,2.67-1.54.2.31Zm0,0" transform="translate(-15.82)"/><path class="cls-5" d="M163.35,173.72l1.61-1.16.11.17Zm0,0" transform="translate(-15.82)"/><path class="cls-5" d="M163.51,170.24l.9-.65.06.1Zm0,0" transform="translate(-15.82)"/><path class="cls-5" d="M163.35,173.72l1.71-1,0,.06-2.33,1.35Zm0,0" transform="translate(-15.82)"/><path class="cls-5" d="M163.35,173.72l-.58.42-.12-.19-.53-.85.62-.36Zm0,0" transform="translate(-15.82)"/><path class="cls-5" d="M162.77,174.14l2.33-1.35.22.35-4.76,3.43-5.83,3.36Zm0,0" transform="translate(-15.82)"/><path class="cls-5" d="M162.77,174.14l-8,5.8-.65-1,8.57-4.95Zm0,0" transform="translate(-15.82)"/><path class="cls-5" d="M154.08,178.89l.65,1-.58.42-23-36.92-1.3-2.09.62-.36Zm0,0" transform="translate(-15.82)"/><path class="cls-5" d="M154.15,180.36l.58-.42,5.83-3.36L160,177Zm0,0" transform="translate(-15.82)"/><path class="cls-5" d="M130.45,141l-.62.36L57.9,173.65l-2,.92-15,6.73-6.95,3.12,10.49-6.06L129.83,140Zm0,0" transform="translate(-15.82)"/><path class="cls-5" d="M44.41,178.36l-10.49,6.06-.1-.06-.77-.45,3.52-2Zm0,0" transform="translate(-15.82)"/><path class="cls-5" d="M36.71,181.88l-3.52,2v-.45Zm-.14,0" transform="translate(-15.82)"/><path class="cls-5" d="M154.15,180.36,160,177l-1.22.88-5.83,3.36Zm0,0" transform="translate(-15.82)"/><path class="cls-5" d="M152.93,181.24l5.83-3.36-.32.23-5.83,3.36Zm0,0" transform="translate(-15.82)"/><path class="cls-5" d="M152.93,181.24l-.32.23-7.88-12.64L138.62,159l-8.79-14.09.34-.2Zm0,0" transform="translate(-15.82)"/><path class="cls-5" d="M130.17,144.74l-.34.2L57.38,177.47l-.48.22-9.39,4.22-.48.22-1,.46-4.36,2L36.24,187l5.83-3.36,87.76-39.41Zm0,0" transform="translate(-15.82)"/><path class="cls-5" d="M42.26,183.6,36.19,187v-.53Zm-.19,0" transform="translate(-15.82)"/><path class="cls-5" d="M152.61,181.47l5.83-3.36L153,182Zm0,0" transform="translate(-15.82)"/><path class="cls-5" d="M35.76,187.38l.48-.28v.56Zm0,0" transform="translate(-15.82)"/><path class="cls-5" d="M35.73,187.38l.46.28v.56l-7.91-4.58-.47-.28-1.54-.89-.48-.28.49-.28L33,185.81Zm0,0" transform="translate(-15.82)"/><path class="cls-5" d="M162.65,174l-8.57,4.95,8-5.8Zm0,0" transform="translate(-15.82)"/><path class="cls-5" d="M162.73,172.74l-.62.36-23.49-37.67L130.27,122l.62-.36,30.66,49.16Zm0,0" transform="translate(-15.82)"/><path class="cls-5" d="M130.88,121.66l-.62.36v-.45l.41-.24Zm0,0" transform="translate(-15.82)"/><path class="cls-5" d="M33.19,184.81v1l-6.85-3.91-.52-.28.92-.5Zm-.14,0" transform="translate(-15.82)"/><path class="cls-5" d="M227.49,297.07l-.87.5v-1Zm0,0" transform="translate(-15.82)"/><path class="cls-5" d="M226.19,296.57v-1.39l.18-.36-.18.41Zm.43,0" transform="translate(-15.82)"/><path class="cls-5" d="M229.19,292l-5.28,3-.14-.23,0,0,7.9-4.56Zm0,0" transform="translate(-15.82)"/><path class="cls-5" d="M231.64,290.24l-7.9,4.56,5.14-3.71,4.69-3.39.49.79Zm0,0" transform="translate(-15.82)"/><path class="cls-5" d="M20.19,172.74v0Zm-.35,0" transform="translate(-15.82)"/><path class="cls-5" d="M18.81,169.82l-.16-.3,3.07-1.38Zm0,0" transform="translate(-15.82)"/><path class="cls-5" d="M19.83,172.74l.24-.14v.56l-1.84-1.06.24-.14Zm0,0" transform="translate(-15.82)"/><path class="cls-5" d="M18.27,172.1l1.92,1.06v4.16l-2,1.06v-.56Zm0,0" transform="translate(-15.82)"/><path class="cls-5" d="M129.67,119.67l.16.3L31.44,164.15l-2.65,1.19-8.71,3.91L23,167.57Zm0,0" transform="translate(-15.82)"/><path class="cls-5" d="M129.83,120l.17-.1,31.7,50.83-.16.12-30.66-49.16-.2-.33-.23-.37-.23-.37Zm0,0" transform="translate(-15.82)"/><path class="cls-5" d="M23,167.57l-2.91,1.68-1.27.57,2.91-1.68Zm0,0" transform="translate(-15.82)"/><path class="cls-5" d="M129.83,117.72l-1,.43,1.25-.72.06.09Zm0,0" transform="translate(-15.82)"/><path class="cls-5" d="M128.87,118.16l-3.62,1.62,4-2.31.69-.31.17.28Zm0,0" transform="translate(-15.82)"/><path class="cls-5" d="M129.94,117.16l-.69.31.48-.28.17-.08Zm0,0" transform="translate(-15.82)"/><path class="cls-5" d="M129.74,117.19l-.48.28-4,2.31-.22-.41,0-.05-.07-.14,4.9-2.2.07.12Zm0,0" transform="translate(-15.82)"/><path class="cls-5" d="M134.73,124.84l-.32.23-3.56-5.72-.05-.09.34-.2Zm0,0" transform="translate(-15.82)"/><path class="cls-5" d="M241,297.9l-.16.12-.63-1-.13-.21-.51-.82.17-.1Zm0,0" transform="translate(-15.82)"/><path class="cls-5" d="M239.76,295.89l-.17.1-.25-.41L236,290.19l.17-.1Zm0,0" transform="translate(-15.82)"/><path class="cls-5" d="M164.2,169.26l-2.5,1.44L164,169Zm0,0" transform="translate(-15.82)"/><path class="cls-5" d="M243.19,301.94v-2.51l1,.14v2.24Zm.41,0" transform="translate(-15.82)"/><path class="cls-5" d="M243.6,301.94l.24-.14v.56l-1.92-1.11.24-.14Zm0,0" transform="translate(-15.82)"/><path class="cls-5" d="M17.75,171.82l.24-.14.48.28-.24.14Zm0,0" transform="translate(-15.82)"/><path class="cls-5" d="M18,171.82l.38.28.16,5.72-.32.28v-.53Zm-.22,0" transform="translate(-15.82)"/><path class="cls-5" d="M17.76,178.11l.48-.28v.56l-.46-.26Zm0,0" transform="translate(-15.82)"/><path class="cls-5" d="M18.29,292.83l-.48.28-.5-.29.48-.28Zm0,0" transform="translate(-15.82)"/><path class="cls-5" d="M18.29,293.39l.48-.28,1.31.75v.56Zm0,0" transform="translate(-15.82)"/><path class="cls-5" d="M20.08,294.43v-.56l.49-.28.48.28Zm0,0" transform="translate(-15.82)"/><path class="cls-5" d="M18.29,178.38l1.89-1.06v1l.82.5.07.06-.52.29-.45.27Zm-.05,0" transform="translate(-15.82)"/><path class="cls-5" d="M20.54,179.18l.41-.29,2.23,1.34v1.12L23,181.2l-.44-.28-2.06-1.2-.47-.28Zm0,0" transform="translate(-15.82)"/><path class="cls-5" d="M20.95,178.83l-.87-.5.87-.5Zm0,0" transform="translate(-15.82)"/><path class="cls-5" d="M20.95,178.83v-1l.87.5Zm0,0" transform="translate(-15.82)"/><path class="cls-5" d="M23.37,181.34v-1.12l1,.56Zm0,0" transform="translate(-15.82)"/><path class="cls-5" d="M20.95,178.83l.87-.5,2.42,1.4-.87.5L21,178.89Zm0,0" transform="translate(-15.82)"/><path class="cls-5" d="M21.19,177.82l-1,.5v-5.16l1-.5Zm-.24,0" transform="translate(-15.82)"/><path class="cls-5" d="M21.19,172.66l-1,.5v-2.79l8.66-5,2.74-1.19-10.4,6.06Zm-.24,0" transform="translate(-15.82)"/><path class="cls-5" d="M20.95,170.21l10.49-6.06L129.83,120l.28.62-.93.47v.45L42,160.71Zm0,0" transform="translate(-15.82)"/><path class="cls-5" d="M28.9,165.34l-8.71,5v-1.12Zm-.11,0" transform="translate(-15.82)"/><path class="cls-5" d="M242,440.76l-.64.28-.16-3.52V436l.1-135.07.56.28Zm0,0" transform="translate(-15.82)"/><path class="cls-5" d="M241.92,301.25l-.48-.28.24-.14.48.28Zm0,0" transform="translate(-15.82)"/><path class="cls-5" d="M23.37,180.23l.87-.5,2.42,1.4-.87.5-1.45-.84Zm0,0" transform="translate(-15.82)"/><path class="cls-5" d="M23.37,181.34l1.17-.56,1.65.84v1.12l-.49-.17L24.58,182Zm0,0" transform="translate(-15.82)"/><path class="cls-5" d="M25.79,182.18v-.56l.48.28Zm0,0" transform="translate(-15.82)"/><path class="cls-5" d="M20.19,180l.43-.28,2.11,1.2-2.54,1.48Zm-.11,0" transform="translate(-15.82)"/><path class="cls-5" d="M20.08,182.41l2.56-1.48.48.28-2.56,1.48Zm0,0" transform="translate(-15.82)"/><path class="cls-5" d="M20.56,182.68l2.56-1.48.24.14,1.11.64-2.56,1.48Zm0,0" transform="translate(-15.82)"/><path class="cls-5" d="M20.19,182.68l2,.78V289.84l-2,.78V182.68Zm.37,0" transform="translate(-15.82)"/><path class="cls-5" d="M20.56,290.63l1.35-.78v1.56Zm0,0" transform="translate(-15.82)"/><path class="cls-5" d="M20.62,290.63l1.33.78.77.42-2.52,1.48v-3Zm-.05,0" transform="translate(-15.82)"/><path class="cls-5" d="M22,183.47,24.52,182l1.08.59-.42.28v2.4Zm-.09,0" transform="translate(-15.82)"/><path class="cls-5" d="M25,182.85l.48-.28.22.17,1.47.89v.56l-.17-.14Zm0,0" transform="translate(-15.82)"/><path class="cls-5" d="M20.08,293.31l2.65-1.48,2.46,1.37v1.06l-1.73.95-1.5-.84-.89-.5-.5-.28Zm0,0" transform="translate(-15.82)"/><path class="cls-5" d="M23.45,295.21l1.73-.95v1.34l1.17.73-.53.28-1.43-.84Zm-.09,0" transform="translate(-15.82)"/><path class="cls-5" d="M25.79,296.6l.48-.28,1.06.61v.56l-.58-.34Zm0,0" transform="translate(-15.82)"/><path class="cls-5" d="M222.19,410.15v-5.59l1,.56v4.47Zm.27,0" transform="translate(-15.82)"/><path class="cls-5" d="M224.19,410.43l-1,.28v-5.59l1-.28Zm-.28,0" transform="translate(-15.82)"/><path class="cls-5" d="M226.19,392.2v0Zm-.39,0" transform="translate(-15.82)"/><path class="cls-5" d="M223.59,390.86l.6-.2h0l-1,.22v.06l1,.22v3.53l-1,.28v-4.19Zm0,0" transform="translate(-15.82)"/><path class="cls-5" d="M223.42,395l.48-.28v.05l-.39.22V395Zm0,0" transform="translate(-15.82)"/><path class="cls-5" d="M223.52,395V395l.05,0Zm0,0" transform="translate(-15.82)"/><path class="cls-5" d="M223.52,395l.39-.22v.45l-.29-.17,0,0Zm0,0" transform="translate(-15.82)"/><path class="cls-5" d="M223.52,390.89l.39-.22v.45l-.34-.19Zm0,0" transform="translate(-15.82)"/><path class="cls-5" d="M223.52,395l.05,0,0,0-.05,0Zm0,0" transform="translate(-15.82)"/><path class="cls-5" d="M223.52,390.95l.05,0,.34.19v.06Zm0,0" transform="translate(-15.82)"/><path class="cls-5" d="M223.57,395.06l.05,0,.29.17v.06Zm0,0" transform="translate(-15.82)"/><path class="cls-5" d="M224.19,404.84l-1,.28V395l.21.06.25,0,.54.2Zm-.28,0" transform="translate(-15.82)"/><path class="cls-5" d="M129.39,121.06l.82-.47.23.37-.62.36,0,0Zm0,0" transform="translate(-15.82)"/><path class="cls-5" d="M129.83,121.31l.62-.36.23.37-.41.24Zm0,0" transform="translate(-15.82)"/><path class="cls-5" d="M129.83,117.72l.34-.2,1,1.55-.34.2-.12-.19-.19-.3Zm0,0" transform="translate(-15.82)"/><path class="cls-5" d="M27.79,311l1.4.7v2.79l-2.95-1.59-.87-.5Zm-.19,0" transform="translate(-15.82)"/><path class="cls-5" d="M27.61,311l-2.42,1.4v-2.79Zm0,0" transform="translate(-15.82)"/><path class="cls-5" d="M233.12,429.69l1.06.7v2.79l-2.61-1.59-.87-.5Zm.15,0" transform="translate(-15.82)"/><path class="cls-5" d="M233.61,429.69l-2.42,1.4V428.3Zm-.34,0" transform="translate(-15.82)"/><path class="cls-5" d="M226.61,295.22l-.25-.41,0-.06,5.83-3.36-4.42,3.19Zm0,0" transform="translate(-15.82)"/><path class="cls-5" d="M232.15,291.39l-5.83,3.36-.29-.46,8.57-4.95.12.19Zm0,0" transform="translate(-15.82)"/><path class="cls-5" d="M234.6,289.34,226,294.29l-.2-.34,5.81-3.71,2.43-1.75Zm0,0" transform="translate(-15.82)"/><path class="cls-5" d="M225.79,396.29l0,0v-.06l0,0Zm0,0" transform="translate(-15.82)"/><path class="cls-5" d="M226.19,396.23v0Zm-.39,0" transform="translate(-15.82)"/><path class="cls-5" d="M226.19,394.14v2.12l-2-1,.06,0Zm-.44,0" transform="translate(-15.82)"/><path class="cls-5" d="M226.19,394.14l-2,1.06v-4l2,1.06Zm-.44,0" transform="translate(-15.82)"/><path class="cls-5" d="M225.74,392.23l-1.84-1.06.05,0,1.79,1Zm0,0" transform="translate(-15.82)"/><path class="cls-5" d="M223.19,390.61v.23L223,391h.16v-.41Zm-.15,0" transform="translate(-15.82)"/><path class="cls-5" d="M223.42,392.07l-.32.18v-.35l.19-.11.13.08Zm0,0" transform="translate(-15.82)"/><path class="cls-5" d="M223.29,391.8l-.19.11V391l.32-.18v.49Zm0,0" transform="translate(-15.82)"/><path class="cls-5" d="M223.42,391.88l-.13-.08.13-.47Zm0,0" transform="translate(-15.82)"/><path class="cls-5" d="M223,394.76l.39-.22V395Zm0,0" transform="translate(-15.82)"/><path class="cls-5" d="M130.27,121.56V122l-.44-.7Zm0,0" transform="translate(-15.82)"/><path class="cls-5" d="M129.83,140l-.44-.25.87-.5v.5Zm0,0" transform="translate(-15.82)"/><path class="cls-5" d="M129.83,140l.44-.25v.5Zm0,0" transform="translate(-15.82)"/><path class="cls-5" d="M130.19,139.25l-1,.5V121.51l.5-.2.5.7Zm.08,0" transform="translate(-15.82)"/><path class="cls-5" d="M129.78,121.29l-.39.22v-.45Zm0,0" transform="translate(-15.82)"/><path class="cls-5" d="M230.85,432.1v-1l.87.5Zm0,0" transform="translate(-15.82)"/><path class="cls-5" d="M230.7,432.1l.8-.5,2.69,1.59v1Zm.15,0" transform="translate(-15.82)"/><path class="cls-5" d="M225.74,396.32l-1.84-1.06.05,0,1.79,1Zm0,0" transform="translate(-15.82)"/><path class="cls-5" d="M224,395.23l-.05,0v-.06Zm0,0" transform="translate(-15.82)"/><polygon class="cls-5" points="17.37 183.92 17.37 185.81 18.37 186.32 18.37 184.42 17.37 183.92"/><polygon class="cls-5" points="148.19 263.94 148.06 263.44 147.93 262.93 147.39 260.66 147.25 260.18 147.08 259.71 146.88 259.27 146.64 258.83 146.38 258.42 144.96 256.44 144.69 256.09 144.39 255.77 144.06 255.47 143.72 255.2 141.68 253.67 135.61 249.46 135.41 249.33 135.2 249.23 134.45 248.9 134.3 248.84 134.13 248.81 133.97 248.8 133.33 248.64 133.42 248.64 132.65 248.58 131.88 248.64 131.16 248.81 131 248.84 130.84 248.9 130.1 249.23 129.89 249.33 129.27 249.8 129.03 249.96 129.69 249.46 123.61 253.67 121.58 255.2 121.23 255.47 120.91 255.77 120.61 256.09 120.34 256.44 118.92 258.42 118.65 258.83 118.42 259.27 118.22 259.71 118.06 260.18 117.93 260.66 117.41 262.93 117.31 263.44 117.32 263.94 117.37 264.45 117.37 268.4 117.83 270.7 119.33 272.85 121.77 274.69 124.95 276.1 128.66 276.99 132.65 277.3 136.64 276.99 140.35 276.1 143.55 274.69 146 272.85 147.69 270.7 148.37 268.4 148.37 264.45 148.19 263.94"/><line class="cls-59" x1="132.87" y1="249.8" x2="132.87" y2="176.8"/><path d="M0,250.73" transform="translate(-15.82)"/></g></g></g></svg>