<svg xmlns="http://www.w3.org/2000/svg" viewBox="0 0 493.36 385.84"><defs><style>.cls-1{isolation:isolate;}.cls-2{fill:#020000;}.cls-3{fill:#fff;}.cls-4{fill:#a0a0a0;}.cls-5{fill:#646464;}.cls-6{fill:#cbcbcb;}.cls-7{fill:#9e9e9e;}.cls-8{fill:#7f7f7f;}.cls-9{fill:#979797;}.cls-10{fill:#515151;}.cls-11{fill:#4f4f4f;}.cls-12{fill:#444;}.cls-13{fill:#212121;}.cls-14{fill:#3e3e3e;}.cls-15{fill:#d6d3bd;}.cls-16{fill:#1d1d1d;}.cls-17{fill:#272727;}.cls-18{fill:#d2d1c2;}.cls-19{fill:#a9a89c;}.cls-20{fill:#080201;}.cls-21{fill:#edf3f9;}.cls-22{fill:#b3b3b3;}.cls-23{fill:#949494;}.cls-24{fill:gray;}.cls-25{fill:#565656;}.cls-26{fill:#d8d5c5;}.cls-27{fill:#edecda;}.cls-28{fill:#dedede;}.cls-29{opacity:0.3;mix-blend-mode:multiply;}.cls-30{fill:#a6a6a6;}.cls-31{fill:#d2d2d2;}</style></defs><title>Asset 5</title><g class="cls-1"><g id="Layer_2" data-name="Layer 2"><g id="content"><path d="M14.9,276.67v-.32l0-.06.07-.06h0l.14-.08h0v.47h0v.17h0l0,0,0,0,0,0h.08l.42.24h-.08l-.16.08-.07,0h-.05l-.28-.16-.06-.07-.08-.12h0l-.06-.13Zm0,0"/><path class="cls-2" d="M15,276.35v.32l0,.08,0,.13h.18l-.19.21v-1h0l-.06.08h0v.06Zm-.1,0"/><path class="cls-3" d="M15.13,277.07l.28.16h.05l.07,0,.34-.08L72,309.44V310L14.8,277.1l.28-.21,0,.12Zm0,0"/><path class="cls-4" d="M15,210.71V277.1L72,310v.16L43.52,293.92,43,294v-.26L14.24,277.2l-.24.13V210.69l.48-.09Zm-.38,0"/><path class="cls-3" d="M72,309.44l-56.13-32.3h-.1l0-.14,0-.14h0V277l28.46,16.36,27.77,16Zm-.36,0"/><path class="cls-5" d="M72,309.37,44,293.45V227.7l27.79,16.06.21-.13v.26l.17.13-.17.06v65.29Zm-26-80v63.25l25,15V244.3Zm-.47,0"/><path class="cls-5" d="M44,227.7v65.74L15.74,277.12l-.4-.24-.24-.09H15v-.65h0V211l27.75,16,.25-.13v.26Zm-27-15v63.25l26,15V227.63Zm-.35,0"/><path class="cls-6" d="M14.5,277.2l28.74,16.59-.22.13L14.28,277.33Zm0,0"/><path class="cls-7" d="M14,277.33l29,16.59v12.3L22.54,294.4l-1.4-.81-1.26-.73-2.24-1.29-1.37-.71L14,289.63v-12.3Zm.28,0"/><path class="cls-8" d="M43,293.92v0Zm0,0"/><path class="cls-9" d="M309.69,21.44l2.39-1.38L364.35,3.81,362,5.19Zm0,0"/><path class="cls-5" d="M364.35,3.81,312.08,20.06l0-.09,53.4-16.78Zm0,0"/><path class="cls-9" d="M368.95,1.15,372.65,0,63.7,178.37,60,179.52l1.32-.76,8.32-4.8,3.83-2.21.31-.18,10.27-5.93,3.83-2.21.31-.18,10.27-5.93,3.83-2.21.31-.18L112.87,149l3.83-2.21.31-.18,10.27-5.93,3.83-2.21.31-.18,10.27-5.93,3.83-2.21.31-.18L156.1,124l3.83-2.21.31-.18,10.21-5.9,3.83-2.21.31-.18,10.33-6,3.83-2.21.31-.18,10.27-5.93,3.83-2.21.31-.18,10.27-5.93,3.83-2.21.31-.18,10.27-5.93L232,80.23l.31-.18,10.27-5.93,3.83-2.21.31-.18L257,65.81l3.83-2.21.31-.18,10.27-5.93,3.83-2.21.31-.18,10.27-5.93L289.61,47l.31-.18,10.27-5.93L304,38.64l.31-.18,10.27-5.93,3.83-2.21.31-.18L329,24.21,332.83,22l.31-.18,10.27-5.93,3.83-2.21.31-.18,10.27-5.93,3.83-2.21.31-.18,2.39-1.38,1.08-.62.78-.45,2.1-1.21Zm0,0"/><path class="cls-10" d="M63.7,178.37,372.65,0l.19.27,4,5.81L67.85,184.45Zm0,0"/><path class="cls-5" d="M63.7,178.37l4.15,6.08-.09.08-4-5.83-.09-.13-.09,0h0l-3.46,1.09-.06,0-.09-.18Zm0,0"/><path class="cls-9" d="M60,179.52l.09.18-57.3,18,2.1-1.21,3.49-1.1,52.94-16.64Zm0,0"/><path class="cls-11" d="M67.85,184.45,376.8,6.08l-.09.08-2,1.14-.1.06-4.15,2.4-.31.18-.5.29-13.6,7.85-.31.18-.5.29-13.6,7.85-.31.18-.5.29-13.6,7.85-.31.18-.5.29L312.86,43l-.31.18-.5.29-13.6,7.85-.31.18-.5.29L284,59.67l-.31.18-.5.29L269.63,68l-.31.18-.5.29-13.6,7.85-.31.18-.5.29-13.6,7.85-.31.18-.5.29-13.6,7.85-.31.18-.5.29L212,101.26l-.31.18-.5.29-13.6,7.85-.31.18-.5.29-13.6,7.85-.31.18-.5.29-13.6,7.85-.31.18-.5.29-13.6,7.85-.31.18-.5.29L140,142.86l-.31.18-.5.29-13.6,7.85-.31.18-.5.29-13.6,7.85-.31.18-.5.29-13.6,7.85-.31.18-.5.29-13.6,7.85-.31.18-.5.29-11.65,6.72-2.1,1.21Zm0,0"/><path class="cls-10" d="M182.87,118.08l.31-.18,56.94,83.45-.31.18Zm0,0"/><path class="cls-10" d="M197.28,109.76l.31-.18L254.52,193l-.31.18Zm0,0"/><path class="cls-10" d="M168.46,126.4l.31-.18,56.94,83.45-.31.18Zm0,0"/><path class="cls-10" d="M226.1,93.12l.31-.18,56.94,83.45-.31.18Zm0,0"/><path class="cls-10" d="M211.69,101.44l.31-.18,56.94,83.45-.31.18Zm0,0"/><path class="cls-10" d="M240.51,84.8l.31-.18,56.94,83.45-.31.18Zm0,0"/><path class="cls-10" d="M254.92,76.48l.31-.18,56.94,83.45-.31.18Zm0,0"/><path class="cls-10" d="M283.73,59.84l.31-.18L341,143.11l-.31.18Zm0,0"/><path class="cls-10" d="M269.32,68.16l.31-.18,56.94,83.45-.31.18Zm0,0"/><path class="cls-10" d="M298.14,51.53l.31-.18,56.94,83.45-.31.18Zm0,0"/><path class="cls-10" d="M312.55,43.21l.31-.18,56.94,83.45-.31.18Zm0,0"/><path class="cls-10" d="M341.37,26.57l.31-.18,56.94,83.45-.31.18Zm0,0"/><path class="cls-10" d="M327,34.89l.31-.18,56.94,83.45-.31.18Zm0,0"/><path class="cls-10" d="M355.78,18.25l.31-.18L413,101.52l-.31.18Zm0,0"/><path class="cls-10" d="M370.19,9.93l.31-.18L427.43,93.2l-.31.18Zm0,0"/><path class="cls-10" d="M96.42,168l.31-.18,56.94,83.45-.31.18Zm0,0"/><path class="cls-10" d="M110.83,159.67l.31-.18,56.94,83.45-.31.18Zm0,0"/><path class="cls-10" d="M125.24,151.35l.31-.18,56.94,83.45-.31.18Zm0,0"/><path class="cls-10" d="M139.64,143l.31-.18,56.94,83.45-.31.18Zm0,0"/><path class="cls-10" d="M154.05,134.71l.31-.18L211.3,218l-.31.18Zm0,0"/><path class="cls-11" d="M239.81,201.52l.31-.18-.43.39-.09.08-14.41,8.32.09-.08,14.1-8.14Zm0,0"/><path class="cls-10" d="M239.38,201.92l-14.1,8.14.43-.39-56.94-83.45,13.6-7.85Zm0,0"/><path class="cls-12" d="M225.19,210.14l14.41-8.32L254,193.5l10-5.78v2l-84,48.55v-2l2-1.18,14.39-8.32,14.4-8.32Zm0,0"/><path class="cls-5" d="M239.81,201.52l-.43.39-57-83.55.5-.29Zm0,0"/><path class="cls-11" d="M225.28,210.06l-.09.08-14.41,8.32.09-.08,14.1-8.14.43-.39.31-.18Zm0,0"/><path class="cls-10" d="M240.11,201.34,183.18,117.9l13.6-7.85,57,83.55-14.1,8.14Zm0,0"/><path class="cls-11" d="M239.69,201.74l14.1-8.14.43-.39.31-.18-.43.39-.09.08-14.41,8.32Zm0,0"/><path class="cls-5" d="M254.22,193.2l-.43.39-57-83.55.5-.29Zm0,0"/><path class="cls-10" d="M254.52,193l-56.94-83.45,13.6-7.85,57,83.55-14.1,8.14Zm0,0"/><path class="cls-10" d="M225,210.24l-14.1,8.14.43-.39-56.94-83.45,13.6-7.85Zm0,0"/><path class="cls-5" d="M225.4,209.84l-.43.39-57-83.55.5-.29Zm0,0"/><path class="cls-11" d="M210.87,218.38l-.09.08-14.41,8.32.09-.08,14.1-8.14.43-.39.31-.18Zm0,0"/><path class="cls-11" d="M283,176.57l.31-.18-.43.39-.09.08-14.41,8.32.09-.08,14.1-8.14Zm0,0"/><path class="cls-10" d="M282.61,177l-14.1,8.14.43-.39L212,101.26l13.6-7.85Zm0,0"/><path class="cls-12" d="M268.41,185.18l14.42-8.32,14.41-8.32,14.41-8.32,14.41-8.32,14.35-8.32,7.6-4.42v2l-84,48.55v-2Zm0,0"/><path class="cls-5" d="M283,176.57l-.43.39-57-83.55.5-.29Zm0,0"/><path class="cls-11" d="M268.51,185.1l-.09.08L264,187.72l-10,5.78.09-.08,14.1-8.14.43-.39.31-.18Zm0,0"/><path class="cls-10" d="M283.34,176.39,226.4,92.94,240,85.09l57,83.55-14.1,8.14Zm0,0"/><path class="cls-5" d="M268.63,184.88l-.43.39-57-83.55.5-.29Zm0,0"/><path class="cls-11" d="M282.91,176.78l14.1-8.14.43-.39.31-.18-.43.39-.09.08-14.41,8.32Zm0,0"/><path class="cls-5" d="M297.44,168.25l-.43.39L240,85.09l.5-.29Zm0,0"/><path class="cls-10" d="M297.75,168.07,240.81,84.62l13.6-7.85,57,83.55-14.1,8.14Zm0,0"/><path class="cls-11" d="M297.32,168.46l14.1-8.14.43-.39.31-.18-.43.39-.09.08-14.41,8.32Zm0,0"/><path class="cls-5" d="M311.85,159.93l-.43.39-57-83.55.5-.29Zm0,0"/><path class="cls-10" d="M312.16,159.75,255.22,76.31l13.6-7.85,57,83.55-14.1,8.14Zm0,0"/><path class="cls-11" d="M340.46,143.59l-14.41,8.32.09-.08,14.1-8.14.43-.39.31-.18-.43.39Zm0,0"/><path class="cls-10" d="M340.24,143.68l-14.1,8.14.43-.39L269.63,68l13.6-7.85Zm0,0"/><path class="cls-5" d="M340.67,143.29l-.43.39-57-83.55.5-.29Zm0,0"/><path class="cls-11" d="M326.14,151.83l-.09.08-14.41,8.32.09-.08,14.1-8.14.43-.39.31-.18Zm0,0"/><path class="cls-10" d="M341,143.11,284,59.67l13.6-7.85,57,83.55-14.1,8.14Zm0,0"/><path class="cls-5" d="M326.26,151.61l-.43.39-57-83.55.5-.29Zm0,0"/><path class="cls-11" d="M340.55,143.51l14.1-8.14.43-.39.31-.18-.43.39-.09.08-6.75,3.9-7.66,4.42Zm0,0"/><path class="cls-5" d="M355.08,135l-.43.39-57-83.55.5-.29Zm0,0"/><path class="cls-10" d="M355.39,134.79,298.45,51.35l13.6-7.85,57,83.55L355,135.19Zm0,0"/><path class="cls-11" d="M355,135.19l14.1-8.14.43-.39.31-.18-.43.39-.09.08-14.41,8.32Zm0,0"/><path class="cls-12" d="M354.81,135.27l14.44-8.32,14.42-8.32,14.42-8.32L412.5,102l14.3-8.32,5.2-3.06v2l-84,48.55v-2Zm.06,0"/><path class="cls-5" d="M369.49,126.65l-.43.39-57-83.55.5-.29Zm0,0"/><path class="cls-10" d="M369.79,126.47,312.86,43l13.6-7.85,57,83.55-14.1,8.14Zm0,0"/><path class="cls-11" d="M398.1,110.31l-14.41,8.32.09-.08,14.1-8.14.43-.39.31-.18-.43.39Zm0,0"/><path class="cls-10" d="M397.88,110.41l-14.1,8.14.43-.39L327.27,34.71l13.6-7.85Zm0,0"/><path class="cls-5" d="M398.3,110l-.43.39-57-83.55.5-.29Zm0,0"/><path class="cls-11" d="M383.78,118.55l-.09.08-14.41,8.32.09-.08,14.1-8.14.43-.39.31-.18Zm0,0"/><path class="cls-10" d="M398.61,109.84,341.68,26.39l13.6-7.85,57,83.55-14.1,8.14Zm0,0"/><path class="cls-5" d="M383.9,118.33l-.43.39-57-83.55.5-.29Zm0,0"/><path class="cls-11" d="M398.18,110.23l14.1-8.14.43-.39.31-.18-.43.39-.09.08-14.41,8.32Zm0,0"/><path class="cls-5" d="M412.71,101.7l-.43.39-57-83.55.5-.29Zm0,0"/><path class="cls-10" d="M413,101.52,356.08,18.07l13.6-7.85,57,83.55-14.1,8.14Zm0,0"/><path class="cls-11" d="M412.59,101.91l14.1-8.14.43-.39.31-.18-.43.39-.09.08L412.51,102Zm0,0"/><path class="cls-5" d="M427.12,93.38l-.43.39-57-83.55.5-.29Zm0,0"/><path class="cls-10" d="M427.43,93.2,370.49,9.75l4.15-2.4L431.52,90.9l1.66-1,0,.06h0L427,93.59Zm0,0"/><path class="cls-5" d="M433.22,90l0-.06.3-.17Zm0,0"/><path class="cls-11" d="M426.92,93.67l.09-.08L433.23,90l-.09.08h0l-.88.51,0,0Zm0,0"/><path class="cls-11" d="M433.14,90.08l.09-.08h0l.26-.24-.3.17-1.66,1,.09-.08,2.1-1.21-1.5,1.26-.21,0v0l1-.81Zm0,0"/><path class="cls-10" d="M376.72,6.16l.09-.08-4-5.81,0,0L433.71,89.6l-2.1,1.21L374.75,7.3Zm0,0"/><path class="cls-12" d="M4.89,196.49l-2.1,1.21.6.77L1,200v-3l56-32.64v2.92l-6.71,3.9L46,172.5l-.3.18.43.89L35.92,179.5l-4.26,1.32-.31.18.43.89-10.27,5.93-4.26,1.32-.31.18.43.89-9,5.19Zm0,0"/><path class="cls-9" d="M35.92,179.5l10.27-5.93,52.27-16.25-10.27,5.93Zm0,0"/><path class="cls-9" d="M45.76,172.68l.31-.18,4.26-1.32,52.27-16.25-.31.18Zm0,0"/><path class="cls-5" d="M46.19,173.57l-.43-.89,56.53-17.57-3.83,2.21Zm0,0"/><path class="cls-9" d="M21.51,187.82l10.27-5.93,52.27-16.25-10.27,5.93Zm0,0"/><path class="cls-9" d="M31.35,181l.31-.18,4.26-1.32,52.27-16.25-.31.18Zm0,0"/><path class="cls-5" d="M31.78,181.89l-.43-.89,56.53-17.57-3.83,2.21Zm0,0"/><path class="cls-9" d="M8.38,195.4l9-5.19L69.64,174l-8.32,4.8Zm0,0"/><path class="cls-9" d="M16.94,189.32l.31-.18,4.26-1.32,52.27-16.25-.31.18Zm0,0"/><path class="cls-5" d="M17.37,190.21l-.43-.89,56.53-17.57L69.64,174Zm0,0"/><path class="cls-5" d="M374.75,7.3,431.6,90.82l-.09.08L374.65,7.36Zm0,0"/><path class="cls-5" d="M433.13,90.08l-.88.81v-.3Zm0,0"/><path class="cls-5" d="M309.86,20.65l-.09-.18L366.21,2.73l-.78.45L312,20Zm0,0"/><path class="cls-9" d="M366.21,2.73,309.77,20.47l2.1-1.21L368.31,1.52Zm0,0"/><path class="cls-6" d="M43.64,293.92,72,310.18v.26L43.51,294Zm-.18,0"/><path class="cls-7" d="M43,294l29,16.4v12.49L43,306.35V294Zm.24,0"/><path class="cls-8" d="M72,322.94v0Zm0,0"/><path class="cls-7" d="M72,322.81V311.15l17,9.9V333l-17-9.9Zm.2,0"/><path class="cls-8" d="M43,226.91v0Zm.13,0"/><path class="cls-7" d="M43,188.37V227L15.23,211l-.58-.32-.2-.11-.24-.09-.2-.06v-13Zm-.1,0"/><path class="cls-7" d="M43,226.91V188.3l20.7-6.46,8.3,12v49.93L44.06,227.7,43,227.17Zm.13,0"/><path class="cls-8" d="M72,243.76v0Zm-.14,0"/><path class="cls-7" d="M72,243.63V194.16l17,25.2v34.43L72.15,244l-.15-.13Zm.09,0"/><path class="cls-8" d="M89,253.79v0Zm.24,0"/><path class="cls-7" d="M89,253.66v-34l34,49.09v4.44L89.75,254.05l-.37-.06-.37-.06v-.26Zm.47,0"/><path class="cls-8" d="M123,273.22v0Zm-.12,0"/><path class="cls-7" d="M123,273.09v-4l.19.21-.1,0-.1,0v3.81Zm.1,0"/><path class="cls-11" d="M123.3,269.28l0,0,0,0,.05,0Zm0,0"/><path class="cls-13" d="M122.88,273.22l.22-.13v.26Zm0,0"/><path class="cls-8" d="M14,197.4v0Zm.17,0"/><path class="cls-7" d="M14,197.47v12.85L4.83,205,4.71,205l.09-.06H5v-4.49Zm-.06,0"/><path class="cls-6" d="M72.2,244.09l.11-.06,16.93,9.77-.12-.06-.12.06v.13l.12.06Zm0,0"/><path class="cls-13" d="M89.47,253.79l-.11-.06.11-.06Zm0,0"/><path class="cls-7" d="M72,244.09,89,254v.13l-17-9.9Zm.2,0"/><path class="cls-8" d="M89.35,254l.11-.06.11.06v.13l-.11.06-.11-.06Zm0,0"/><path class="cls-8" d="M89,333v0Zm.35,0"/><path class="cls-13" d="M89.58,254.12V254l.11.06Zm0,0"/><path class="cls-6" d="M71.86,244.28l.22-.13.11.06,17.15,9.9.11.06,11.36,6.56-.22.13Zm0,0"/><path class="cls-6" d="M71.86,244.28l28.74,16.59-.22.13L71.64,244.41Zm0,0"/><path class="cls-8" d="M101,260.87v0Zm-.4,0"/><path class="cls-7" d="M100.69,327.29l.31-.13V260.74l22,12.73v79l-1-.53-1.52-.86-2.09-1.2-.51-.29-1.36-.65L89,333.16v-12l11.19,6.3Zm-.09,0"/><path class="cls-8" d="M123,352.46v0Zm-.12,0"/><path class="cls-14" d="M122.83,352.46l.17-.13v.26l.28.13,1.84-1,.89.42v3.24l-5-2.83,1-.65Zm.05,0"/><path class="cls-7" d="M123,352.72v0Zm.33,0"/><path class="cls-6" d="M123.33,273.73l-.22-.13.22-.13,2.16-1.25.22.13Zm0,0"/><path class="cls-8" d="M123,273.73l2.43-1.38.57.31v66.72l-2,1.36V351.1l.9.65-1.9,1Zm.33,0"/><path class="cls-13" d="M123.33,273.48l-.22.13v-.26Zm0,0"/><path class="cls-15" d="M126,339.38v0Zm.24,0"/><path class="cls-6" d="M123.1,273.35l-.22.13-22.06-12.73-11.36-6.56.11-.06.11-.06,33.19,19.16Zm0,0"/><path class="cls-8" d="M101,260.87v66.42l-1,.13V261Zm-.4,0"/><path class="cls-7" d="M100,261v66.42l-10.72-6.3,0-.06-17.11-9.9,0-.13-.13-.19V244.41Zm.38,0"/><path class="cls-8" d="M123,273.48V271l2.16,1.25Zm.33,0"/><path class="cls-7" d="M4,204.79v-4.28l-.09,0,.09-.06Zm.36,0"/><path class="cls-8" d="M4,204.79v-4.3l1-.07v4.25Zm.36,0"/><path class="cls-6" d="M4.36,204.79l.21-.12v.25h0l-.22.13-.22-.13Zm0,0"/><path class="cls-8" d="M4,205l.56-.13L5,205v.12H5v78.73L4,284Zm.36,0"/><path class="cls-13" d="M4.69,205.1V205l.1.06Zm0,0"/><path class="cls-7" d="M4,204.92v0Zm.13,0"/><path class="cls-15" d="M14.43,210.6l-.15.09v-.17Zm0,0"/><path class="cls-16" d="M133.58,356.62,126,361.07v-1.62l6.24-3.64Zm-.13,0"/><path class="cls-14" d="M132,355.81l-6.31,3.64-12.44-7.28,2.7-1.46v1.46l9.92,5.83,5-2.91Zm0,0"/><path class="cls-17" d="M126,359.45v1.62l-13-7.28v-1.62Zm-.26,0"/><path class="cls-16" d="M130.92,355.08,126,358V355.4l2.74-1.62Zm-.13,0"/><path class="cls-17" d="M126,358l-10-5.83v-2.59l2,1.59v.42l2.27,1.2.59-.21L126,355.4Zm-.26,0"/><path class="cls-14" d="M118,351.16l-2.35-1.32h2.24l.11,0Zm.4,0"/><path class="cls-14" d="M128.8,353.78,126,355.4v-3.24Zm-.26,0"/><path class="cls-14" d="M115.65,349.84l1.12-.65,1.12.65Zm0-.27"/><path class="cls-18" d="M120,352.78l-2-1.2v-1.72l2,1.2Zm.47,0"/><path class="cls-19" d="M120.47,352.78v-1.72l1.49.86-1.12.65Zm0,0"/><path class="cls-16" d="M22.35,294.4,16,297.95v-1.62l4.84-2.74Zm.21,0"/><path class="cls-14" d="M21.15,293.59l-4.74,2.74L3.64,289,6,287.59V289l10.25,5.83,3.56-2Zm0,0"/><path class="cls-17" d="M16,296.33v1.62L4,290.66V289Zm.41,0"/><path class="cls-16" d="M19.68,292.86l-3.68,2v-2.59l1.34-.71Zm.21,0"/><path class="cls-17" d="M16,294.87,6,289v-2.59L9,288v.42l2.11,1.2.18-.21L16,292.28Zm.41,0"/><path class="cls-14" d="M9,288l-2.68-1.2H8.79l.21-.23Zm.07,0"/><path class="cls-14" d="M16,292.28l-4.7-2.83,1.34-.71,1.23.76.14-.13v.26l2,1.23Zm.41,0"/><path class="cls-8" d="M14,289.37v0Zm.28,0"/><path class="cls-7" d="M14,210.51v79l-1.29-.76-1.58-.92-2.07-1.2-.28-.16-1.07-.71L5,284.09v-79Zm.05,0"/><path class="cls-6" d="M14,210.45l0,.06-9.33-5.41h0l.11-.06,9.15,5.28,0-.06,0,.06Zm.17,0"/><path class="cls-15" d="M14.17,210.32l-.11-.06.11-.06Zm0,0"/><path class="cls-14" d="M17.65,291.57l-1.23.71v-1.42Zm0,0"/><path class="cls-14" d="M6.32,286.84l1.23-.71,1.23.71Zm0-.39"/><path class="cls-18" d="M11,289.66l-2-1.2v-1.85l2,1.2Zm.14,0"/><path class="cls-19" d="M11.14,289.66v-1.85l1.6.92-1.23.71Zm0,0"/><path class="cls-15" d="M15.18,276.76v-.17h0Zm0,0"/><path class="cls-20" d="M15.35,276.88h-.08l0,0,0,0,0,0Zm0,0"/><path class="cls-11" d="M182.17,234.8l.31-.18-.43.39-.09.08-2,1.18-12.37,7.14.09-.08,14.1-8.14Zm0,0"/><path class="cls-10" d="M181.75,235.19l-14.1,8.14.43-.39-56.94-83.45,13.6-7.85Zm0,0"/><path class="cls-5" d="M182.17,234.8l-.43.39-57-83.55.5-.29Zm0,0"/><path class="cls-11" d="M167.64,243.33l-.09.08-14.41,8.32.09-.08,14.1-8.14.43-.39.31-.18Zm0,0"/><path class="cls-10" d="M182.48,234.62l-56.94-83.45,13.6-7.85,57,83.55L182.05,235Zm0,0"/><path class="cls-11" d="M182.05,235l14.1-8.14.43-.39.31-.18-.43.39-.09.08L182,235.09Zm0,0"/><path class="cls-5" d="M196.58,226.48l-.43.39-57-83.55.5-.29Zm0,0"/><path class="cls-10" d="M196.89,226.3,140,142.86l13.6-7.85,57,83.55-14.1,8.14Zm0,0"/><path class="cls-5" d="M211,218.16l-.43.39-57-83.55.5-.29Zm0,0"/><path class="cls-7" d="M126,339.31V272.73l1,.13v66.33Zm.36,0"/><path class="cls-8" d="M127,339.18V272.86l.16.21L160,254v66.36l-.54-.16L155,322.61v.32l0-.16-4,2.43v.32l-.54-.16L146,327.79v.32l0-.16-4,2.43v.32l-.54-.16L137,333v.32l0-.16-4,2.43v.32l-.54-.16L128,338.15v.32l.12-.16Zm-.42,0"/><path class="cls-7" d="M160,319.89v0Zm0,0"/><path class="cls-8" d="M160,319.76V253.85l23.56-13.43L194,234.56v65.91l-3,1.42v.32l0-.16-4,2.43v.32l-.54-.16L182,307.07v.32l0-.16-4,2.43V310l-.54-.16L173,312.25v.32l0-.16-4,2.43v.32l-.54-.16L164,317.43v.32l-.26-.16Zm.22,0"/><path class="cls-7" d="M194,300.47v0Zm-.37,0"/><path class="cls-8" d="M194,300.34V234.43l5-3.2v65l.29.13,27.71-16v1.1l0-.16-4,2.43v.32l-.54-.16L218,286.36v.32l0-.16-4,2.43v.32l-.54-.16L209,291.54v.32l0-.16-4,2.43v.32l-.54-.16L200,296.72V297l0-.16-4,2.43v.32l-.38-.16Zm-.14,0"/><path class="cls-7" d="M227.27,281v-.65l.22-.13v.65Zm0,0"/><path class="cls-8" d="M227,280.92v-.65l3-1.47v.65Zm.5,0"/><path class="cls-7" d="M230,279.45v-.65l.22-.13v.65Zm0,0"/><path class="cls-8" d="M230,279.32v-.65L261,261v.65l-3,1.42v.32l0-.16-4,2.43V266l-.54-.16L249,268.23v.32l0-.16-4,2.43v.32l0-.16-4,2.43v.32l-.54-.16L236,276v.32l0-.16-4,2.43v.32l-.65-.16Zm.27,0"/><path class="cls-7" d="M260.91,261.63v-.91l.22.13v.65Zm0,0"/><path class="cls-6" d="M260.78,261,230,278.67v-.26l27.3-15.68.21-.08,3.08-1.8Zm.14,0"/><path class="cls-11" d="M261,261l-.06-.13-2.94,1.8v-65l4-2.75v65l-1,.83Zm-.09,0"/><path class="cls-5" d="M258,197.65v65l-1,.08v-65Zm-.42,0"/><path class="cls-11" d="M257,197.73V262.5l-27,15.68V213.41l1-.19v63.06l25-14.63V198.58Zm.44,0"/><path class="cls-21" d="M231,276.27V213.22l25-14.63v63.06Zm-.39,0"/><path class="cls-22" d="M230,278.18l27-15.68v.23l-27,15.68Zm.27,0"/><path class="cls-11" d="M262,259.9v-65l2-.78v63.71l26-15.28V178.84l2-.86v65.1l-.44,0Zm.34,0"/><path class="cls-5" d="M290,178.84v63.71l-1-.49V179.32Zm.15,0"/><path class="cls-11" d="M289,179.32v62.74l-25,14.79V194.12l3.59-2.25Zm-12.78,19,.07-.07.06-.09,0-.09,0-.09v-.17l0-.06,0,0-.06,0h-.07l-.07,0-.07.05-.07.07-.06.09,0,.09,0,.09v.17l0,.06,0,0,.06,0h.07l.07,0Zm0,0"/><path class="cls-23" d="M264,256.85l25.47-14.79.92.49L264,257.82Zm-.31,0"/><path class="cls-15" d="M292,243.08v0Zm-.36,0"/><path class="cls-8" d="M261,261.5v-.65l31-17.69v.65l-2,1.12v.32l-.54-.16L285,247.51v.32l0-.16-4,2.43v.32l-.54-.16L276,252.69V253l0-.16-4,2.43v.32l-.54-.16L267,257.87v.32l0-.16-4,2.43v.32l-.38-.16Zm.14,0"/><path class="cls-7" d="M292,243.81v0Zm-.22,0"/><path class="cls-6" d="M291.78,243.16l-30.64,17.69-.22-.13,1.43-.83L291.55,243l.08,0Zm0,0"/><path class="cls-7" d="M200,296.36l-1-.13v-65l1-.13Zm-.37,0"/><path class="cls-8" d="M200,296.36V231.1l30-17.69v65.26l-.09.13-2.48,1.47v.13Zm-.37,0"/><path class="cls-7" d="M292,242.77v0Zm0,0"/><path class="cls-8" d="M292,242.77l.45.13,2.55-1.34v.65l-1,.13v.32l-.12-.16L292,243.68Zm0,0"/><path class="cls-7" d="M294.55,242.21v-.65l.22-.13v.65Zm0,0"/><path class="cls-8" d="M295,242.08v-.65l28-16.22V160l5-3.08v65.91l-2,1.42v.32l-.54-.16L321,226.8v.32l0-.16-4,2.43v.32l-.54-.16L312,232v.32l0-.16-4,2.43v.32l-.54-.16L303,237.16v.32l0-.16-4,2.43v.32l-.26-.16Zm-.22,0"/><path class="cls-7" d="M328,222.78v0Zm.19,0"/><path class="cls-8" d="M328,222.66V156.75l23.56-13.43L362,137.45v66.36l-.54-.16L357,206.08v.32l0-.16-4,2.43V209l-.54-.16L348,211.26v.32l0-.16-4,2.43v.32l-.54-.16L339,216.44v.32l0-.16L335,219v.32l-.54-.16L330,221.62v.32l-.38-.16Zm.42,0"/><path class="cls-7" d="M362,203.36v0Zm-.17,0"/><path class="cls-8" d="M362,203.23V137.33L395,118v65.91l-2,1.42v.32l0-.16L389,188v.32l-.54-.16L384,190.54v.32l0-.16-4,2.43v.32l-.54-.16L375,195.72V196l0-.16-4,2.43v.32l-.54-.16L366,200.9v.32l-.26-.16Zm.06,0"/><path class="cls-7" d="M395,183.94V118l1-.13v65.91Zm.47,0"/><path class="cls-8" d="M396,183.81V117.9l33-19.29V165.1l-.65-.29L424,167.24v.32l0-.16-4,2.43v.32l-.54-.16L415,172.42v.32l0-.16L411,175v.32l-.54-.16L406,177.6v.32l0-.16-4,2.43v.32l-.54-.16L397,182.78v.32l.12-.16Zm-.31,0"/><path class="cls-8" d="M292,242.9V177.64L323,160v65.26l-28.16,16.22-.37.13Zm.23,0"/><path class="cls-11" d="M153.35,251.44l.31-.18-.43.39-.09.08-14.41,8.32.09-.08,14.1-8.14Zm0,0"/><path class="cls-10" d="M152.93,251.83,138.83,260l.43-.39L82.32,176.13l13.6-7.85Zm0,0"/><path class="cls-10" d="M82.32,176.13l56.94,83.45-.31.18L82,176.31Zm0,0"/><path class="cls-11" d="M138.95,259.75l.31-.18-.43.39-.09.08-14.41,8.32.09-.08,14.1-8.14Zm0,0"/><path class="cls-10" d="M138.52,260.15l-14.1,8.14h0l.26-.24,2-1.13.09-.08L69.86,183.32l11.65-6.72Zm0,0"/><path class="cls-10" d="M69.86,183.32l56.86,83.52-2.1,1.21L63.79,178.7l4,5.83Zm0,0"/><path class="cls-11" d="M126.72,266.84l-.09.08-2,1.13-.26.24-.89.82-.14.08,1.23-1.13Zm0,0"/><path class="cls-12" d="M123,269.19l.33-.08,1-.82h0l-.06.08,14.42-8.32,14.41-8.32,14.45-8.32L180,236.27v2l-57,32.64Zm.38,0"/><path class="cls-5" d="M63.79,178.7l60.64,89.36L123,269.19v.08l.1,0-.07-.21-.19-.33-33.4-49.09-.21-.33-17.15-25.2-.22-.33-8.17-12,1.29-.4-1.28-2.65Zm0,0"/><path class="cls-5" d="M138.95,259.75l-.43.39-57-83.55.5-.29Zm0,0"/><path class="cls-5" d="M153.35,251.44l-.43.39-57-83.55.5-.29Zm0,0"/><path class="cls-10" d="M153.66,251.26,96.73,167.81l13.6-7.85,57,83.55-14.1,8.14Zm0,0"/><path class="cls-5" d="M167.76,243.12l-.43.39-57-83.55.5-.29Zm0,0"/><path class="cls-24" d="M264,189.71l84.1-48.55.9.52L267.5,188.74l-2.58,1.49Zm0,0"/><path class="cls-24" d="M264,189.71l.9.52L183.4,237.3l-2.58,1.49-.9-.52Zm0,0"/><path class="cls-24" d="M349,141.68l-.9-.52,84.1-48.55,0,0,.87.5L351.6,140.19Zm0,0"/><path class="cls-10" d="M179.93,238.27l1,.52L127,269.94v3l-3.55-2Zm0,0"/><path class="cls-12" d="M434,96v71.67l-3-1.29V97.32Zm-.4,0"/><path class="cls-25" d="M431,97.32V166.4l-2-1.29V98.61Zm.35,0"/><path class="cls-8" d="M432,92.61v0Zm.22,0"/><path class="cls-24" d="M435.7,91.64l.08,0-84.1,48.55-.08,0,81.52-47.07Zm0,0"/><path class="cls-24" d="M351.6,140.19l.08,0-84.1,48.55-.08,0L349,141.68Zm0,0"/><path class="cls-12" d="M268,188.79l84-48.55v3.08l-23.43,13.43-.3.13L322.91,160l-30.66,17.69-.23.13-.23.13-.14.08-1.49.86-.63.49L268,191.87Zm-.41,0"/><path class="cls-12" d="M352,143.31v-3.08l84-48.55v3.08L433.71,96l-2.3,1.29-2.27,1.29L395.71,117.9l-.23.13-33.42,19.29-.07.13Zm-.32,0"/><path class="cls-12" d="M268,188.79v3.08l-4.1,2.25-1.45.78-4.82,2.75-.17.08-1.5.86-25.35,14.63-.34.19L199.64,231.1l-.23.13-5.55,3.2-.47.13L183,240.42v-3.08Zm-.41,0"/><path class="cls-24" d="M267.5,188.74l.08,0-84.1,48.55-.08,0,81.52-47.07Zm0,0"/><path class="cls-12" d="M183,237.35v3.08l-23,13.43-.08.13L127,273.07V270Zm.49,0"/><path class="cls-24" d="M183.4,237.3l.08,0L126.95,270l-.08,0,54-31.16Zm0,0"/><path class="cls-25" d="M123,270.91l4,2v.15l-.39-.21-.24-.13-.12-.06-.53-.31-.23-.13L123.18,271l-.18,0v-1.69h0v1.65Zm.38,0"/><path class="cls-5" d="M123.38,269.19l-.08.08v-1.38l.08,0Zm0,0"/><path class="cls-24" d="M141.09,115.76l84.1-48.55.08,0-84.1,48.55Zm0,0"/><path class="cls-24" d="M225.27,67.26l-.08,0,84.1-48.55.08,0Zm0,0"/><path class="cls-12" d="M141,115.81l84-48.55v2.92l-1.64,1L213,74.44,180.25,93.37l.5,1,.6,1.23-1.11.64-4.49,1.4-.31.18.43.89-10.27,5.93L161.34,106l-.31.18.43.89-10.27,5.93-4.26,1.32-.31.18.34.89-6,3.39Zm.18,0"/><path class="cls-9" d="M151.19,112.95,161.46,107l52.27-16.25L203.46,96.7Zm0,0"/><path class="cls-9" d="M161,106.13l.31-.18,4.26-1.32,52.27-16.25-.31.18Zm0,0"/><path class="cls-5" d="M161.46,107l-.43-.89,56.53-17.57-3.83,2.21Zm0,0"/><path class="cls-9" d="M165.6,104.63l10.27-5.93,6.07-1.89L182,97l40.33-12.54,1-.55,4.81-1.5-10.27,5.93Zm0,0"/><path class="cls-5" d="M222.37,84.49,182,97l-.11-.22-.43-.89,0-.07-.1-.2,0-.06-.59-1.23,40.33-12.54Zm0,0"/><path class="cls-5" d="M223.33,83.94l-1,.55-1.28-2.66,32.8-18.94v0L255,65.3l-3,.94-.31.18.43.89-10.27,5.93-4.26,1.32-.31.18.43.89-10.27,5.93-4.26,1.32-.31.18Zm0,0"/><path class="cls-9" d="M222.9,83.05l.31-.18,4.26-1.32,4.81-1.5-.31.18Zm0,0"/><path class="cls-5" d="M223.33,83.94l-.43-.89L232,80.23l-3.83,2.21Zm0,0"/><path class="cls-9" d="M175.44,97.81l.31-.18,4.49-1.4.28-.09,1-.3,0,.07Zm0,0"/><path class="cls-5" d="M175.87,98.7l-.43-.89,6.07-1.89.43.89Zm0,0"/><path class="cls-9" d="M146.62,114.45l.31-.18,4.26-1.32L203.46,96.7l-.31.18Zm0,0"/><path class="cls-5" d="M147.05,115.33l-.43-.89,56.53-17.57-3.83,2.21Zm0,0"/><path class="cls-9" d="M147.05,115.33l52.27-16.25L189.05,105l-52.27,16.25,4.4-2.54Zm0,0"/><path class="cls-9" d="M227.47,81.55l10.27-5.93,4.81-1.5-10.27,5.93Zm0,0"/><path class="cls-9" d="M237.31,74.74l.31-.18,4.26-1.32,4.81-1.5-.31.18Zm0,0"/><path class="cls-5" d="M237.74,75.62l-.43-.89,9.07-2.82-3.83,2.21Zm0,0"/><path class="cls-9" d="M241.87,73.23l10.27-5.93,4.81-1.5-10.27,5.93Zm0,0"/><path class="cls-9" d="M251.72,66.42l.31-.18,3-.94,6-1.88-.31.18Zm0,0"/><path class="cls-5" d="M252.15,67.31l-.43-.89,9.07-2.82L257,65.81Zm0,0"/><path class="cls-5" d="M221.09,81.83,180.76,94.37l-.48-1,40.33-12.54Zm0,0"/><path class="cls-5" d="M253.89,62.89l-32.8,18.94-.48-1,32.8-18.94,0,.06,0,.07Zm0,0"/><path class="cls-3" d="M253.41,61.9l-32.8,18.94L180.28,93.37l32.8-18.94L223.5,71.2Zm0,0"/><path class="cls-12" d="M141,115.81v2.92l-4.31,2.54-4.21,1.32-.28.18.44.89-10.06,5.81-10.41,3.24-32.8,18.94.48,1,.59,1.23-1.06.61-4.49,1.4-.31.18.43.89-10.27,5.93-4.26,1.32-.31.18.39.89-3.56,2v-2.92Zm.18,0"/><path class="cls-9" d="M122.58,129.46l10.06-5.81,52.27-16.25-10.33,6-22.06,6.86,0-.06Zm0,0"/><path class="cls-9" d="M132.22,122.77l.31-.18,4.26-1.32L189.05,105l-.31.18Zm0,0"/><path class="cls-5" d="M132.64,123.65l-.43-.89,56.53-17.57-3.83,2.21Zm0,0"/><path class="cls-9" d="M60.17,164.36l.31-.18,4.26-1.32L117,146.61l-.31.18Zm0,0"/><path class="cls-5" d="M60.6,165.25l-.43-.89,56.53-17.57L112.87,149Zm0,0"/><path class="cls-9" d="M60.6,165.25,112.87,149l-10.27,5.93L50.33,171.18l6.75-3.9Zm0,0"/><path class="cls-9" d="M64.74,162.86,75,156.93l6-1.87.11.23,40.33-12.54,1-.58,4.81-1.5L117,146.61Zm0,0"/><path class="cls-5" d="M121.46,142.76,81.13,155.3l-.11-.23-.43-.89,0-.07-.09-.19,0-.06-.59-1.23,40.33-12.54Zm0,0"/><path class="cls-5" d="M122.47,142.18l-1,.58-1.28-2.66L153,121.16v0l1.14,2.37-3,.92-.31.18.43.89L141,131.47l-4.26,1.32-.31.18.43.89-10.27,5.93-4.26,1.32-.31.18Zm0,0"/><path class="cls-9" d="M122,141.29l.31-.18,4.26-1.32,4.81-1.5-.31.18Zm0,0"/><path class="cls-5" d="M122.47,142.18l-.43-.89,9.07-2.82-3.83,2.21Zm0,0"/><path class="cls-9" d="M141,131.47l10.27-5.93,4.81-1.5L145.83,130Zm0,0"/><path class="cls-9" d="M150.86,124.65l.31-.18,3-.92,6.11-1.9-.31.18Zm0,0"/><path class="cls-5" d="M151.28,125.54l-.43-.89,9.07-2.82L156.1,124Zm0,0"/><path class="cls-9" d="M126.6,139.79l10.27-5.93,4.81-1.5-10.27,5.93Zm0,0"/><path class="cls-9" d="M136.45,133l.31-.18,4.26-1.32,4.81-1.5-.31.18Zm0,0"/><path class="cls-5" d="M136.87,133.86l-.43-.89,9.07-2.82-3.83,2.21Zm0,0"/><path class="cls-9" d="M74.58,156l.31-.18,4.49-1.4.28-.09.9-.28,0,.07Zm0,0"/><path class="cls-5" d="M75,156.93l-.43-.89,6-1.87.43.89Zm0,0"/><path class="cls-5" d="M120.17,140.09,79.85,152.63l-.48-1,40.33-12.54Zm0,0"/><path class="cls-5" d="M153,121.16l-32.8,18.94-.48-1,32.8-18.94,0,.06,0,.07Zm0,0"/><path class="cls-3" d="M152.49,120.16l-32.8,18.94L79.37,151.64l32.8-18.94,10.42-3.24Zm0,0"/><path class="cls-9" d="M152.52,120.23l22.06-6.86-.31.18-21.72,6.75Zm0,0"/><path class="cls-5" d="M152.56,120.3l21.72-6.75-3.83,2.21L153,121.18v0Zm0,0"/><path class="cls-9" d="M153,121.18l17.46-5.43-10.21,5.9-6.11,1.9Zm0,0"/><path class="cls-12" d="M225,70.17V67.26L309,18.7v2.83l-3.76,1.23-.21.18.47.89-10.25,5.93L291,31.08l-.3.18.43.89-10.27,5.93-4.26,1.32-.31.18.43.89-10.27,5.93-4.26,1.32-.31.18.43.89-10.27,5.93L247.79,56l-.31.18.43.89L237.64,63l-4.26,1.32-.31.18.29.89Zm.27,0"/><path class="cls-9" d="M266.46,46.39l10.27-5.93L329,24.21l-10.27,5.93Zm0,0"/><path class="cls-9" d="M276.3,39.58l.31-.18,4.26-1.32,52.27-16.25-.31.18Zm0,0"/><path class="cls-5" d="M276.73,40.46l-.43-.89L332.83,22,329,24.21Zm0,0"/><path class="cls-9" d="M252.05,54.71l10.27-5.93,52.27-16.25-10.27,5.93Zm0,0"/><path class="cls-9" d="M261.89,47.9l.31-.18,4.26-1.32,52.27-16.25-.31.18Zm0,0"/><path class="cls-5" d="M262.32,48.78l-.43-.89,56.53-17.57-3.83,2.21Zm0,0"/><path class="cls-9" d="M280.87,38.08l10.27-5.93L343.41,15.9l-10.27,5.93Zm0,0"/><path class="cls-9" d="M290.71,31.26l.31-.18,4.26-1.32,52.27-16.25-.31.18Zm0,0"/><path class="cls-5" d="M291.14,32.15l-.43-.89,56.53-17.57-3.83,2.21Zm0,0"/><path class="cls-9" d="M237.64,63l10.27-5.93,52.27-16.25-10.27,5.93Zm0,0"/><path class="cls-9" d="M247.49,56.21l.31-.18,4.26-1.32,52.27-16.25-.31.18Zm0,0"/><path class="cls-5" d="M247.91,57.1l-.43-.89L304,38.64l-3.83,2.21Zm0,0"/><path class="cls-9" d="M233.08,64.53l.31-.18L237.64,63l52.27-16.25-.31.18Zm0,0"/><path class="cls-5" d="M233.5,65.42l-.43-.89L289.61,47l-3.83,2.21Zm0,0"/><path class="cls-9" d="M233.5,65.42l52.27-16.25L275.5,55.1,253.44,62l0-.06L223.5,71.2l1.78-1Zm0,0"/><path class="cls-9" d="M253.44,62,275.5,55.1l-.31.18L253.47,62Zm0,0"/><path class="cls-5" d="M253.47,62l21.72-6.75-3.83,2.21L253.9,62.92v0Zm0,0"/><path class="cls-9" d="M253.9,62.92l17.46-5.43L261.1,63.42l-6,1.88Zm0,0"/><path class="cls-9" d="M295.28,29.76l10.27-5.93L357.82,7.58l-10.27,5.93Zm0,0"/><path class="cls-9" d="M305.12,22.94l.31-.18,3.94-1.23.31-.1L362,5.19l-.31.18Zm0,0"/><path class="cls-5" d="M305.55,23.83l-.43-.89L361.65,5.36l-3.83,2.21Zm0,0"/><path class="cls-24" d="M180.24,96.24l1.11-.64,0,.06-.86.5Zm0,0"/><path class="cls-9" d="M180.52,96.15l.86-.5.1.2Zm0,0"/><path class="cls-24" d="M141.09,115.76l.08,0-84.1,48.55-.08,0Zm0,0"/><path class="cls-24" d="M79.38,154.47l1.06-.61,0,.06-.81.47Zm0,0"/><path class="cls-9" d="M79.66,154.38l.81-.47.09.19Zm0,0"/><path class="cls-24" d="M57,164.32l.08,0L.54,197l-.08,0Zm0,0"/><path class="cls-25" d="M1,197v3l3,2v.15L0,200V197Zm-.46,0"/><path class="cls-24" d="M4,202,.53,200l2.61-1.51L4,200.25Zm0,0"/><path class="cls-12" d="M4.13,202.12l0,0v-1.71l0,.08Zm0,0"/><path class="cls-26" d="M245,270.82l4.2-2.43.28.16,55.79,32.21-4.2,2.43Zm0,0"/><path class="cls-27" d="M245,270.82l56,32.37v.16l-56-32.21Zm0,0"/><path class="cls-3" d="M300.78,303.68l.28.16-.28.16Zm0,0"/><path class="cls-15" d="M301,303.19l4-2.43v.65l-4,2.43Zm.06,0"/><path class="cls-15" d="M301.06,303.84l4.2-2.43.28-.16,4.2-2.43.28-.16,4.2-2.43.28-.16,4.2-2.43.28-.16,4.2-2.43.28-.16,4.2-2.43.28-.16,4.2-2.43.28-.16,4.2-2.43.28-.16,4.2-2.43.28-.16,4.2-2.43.28-.16,4.2-2.43.28-.16,4.2-2.43.28-.16,4.2-2.43.28-.16,4.2-2.43.28-.16,4.2-2.43.28-.16,4.2-2.43.28-.16L377,260l.28-.16,4.2-2.43.28-.16,4.2-2.43.28-.16,4.2-2.43.28-.16,4.2-2.43.28-.16,4.2-2.43.28-.16,4.2-2.43.28-.16,4.2-2.43.28-.16,4.2-2.43.28-.16,4.2-2.43.28-.16,4.2-2.43.28-.16,4.2-2.43.28-.16,4.2-2.43.28-.16,4.2-2.43.28-.16,4.2-2.43.28-.16,4.2-2.43.28-.16,4.2-2.43.28-.16,4.2-2.43.28-.16,4.2-2.43.28-.16,4.2-2.43.28-.16,4.2-2.43L467,208l4.2-2.43.28-.16,4.2-2.43.28-.16,4.2-2.43.23-.16,3.59-2.1V203L181,378.29v-4.86l3.4-2.1.16-.16,4.14-2.43.25-.16,4.19-2.43.27-.16,4.2-2.43.28-.16,4.2-2.43.28-.16,4.2-2.43.28-.16,4.2-2.43.28-.16,4.2-2.43.28-.16,4.2-2.43.28-.16,4.2-2.43.28-.16,4.2-2.43.28-.16,4.2-2.43.28-.16,4.2-2.43.28-.16,4.2-2.43.28-.16,4.2-2.43.28-.16,4.2-2.43.28-.16,4.2-2.43.28-.16,4.2-2.43.28-.16,4.2-2.43.28-.16,4.2-2.43.28-.16,4.2-2.43.28-.16,4.2-2.43.28-.16,4.2-2.43.28-.16,4.2-2.43.28-.16,4.2-2.43.28-.16,4.2-2.43.28-.16,4.2-2.43Zm0,0"/><path class="cls-26" d="M155.29,322.61l4.2-2.43.28.16,55.79,32.21-4.2,2.43Zm0,0"/><path class="cls-27" d="M155,322.61,211,355v.16l-56-32.21Zm.29,0"/><path class="cls-3" d="M211.07,355.47l.28.16-.28.16Zm0,0"/><path class="cls-15" d="M211,355l5-2.43v.65l-5,2.43Zm.35,0"/><path class="cls-26" d="M164.26,317.43l4.2-2.43.28.16,55.79,32.21-4.2,2.43Zm0,0"/><path class="cls-27" d="M164,317.43l56,32.37V350l-56-32.21Zm.26,0"/><path class="cls-3" d="M220,350.29l.28.16-.28.16Zm0,0"/><path class="cls-15" d="M220,349.8l5-2.43V348l-5,2.43Zm.32,0"/><path class="cls-26" d="M209.11,291.54l4.2-2.43.28.16,55.79,32.21-4.2,2.43Zm0,0"/><path class="cls-27" d="M209,291.54l56,32.37v.16l-56-32.21Zm.11,0"/><path class="cls-3" d="M264.89,324.39l.28.16-.28.16Zm0,0"/><path class="cls-15" d="M265,323.91l4-2.43v.65l-4,2.43Zm.17,0"/><path class="cls-26" d="M195.65,299.31l4.2-2.43.28.16,55.79,32.21-4.2,2.43Zm0,0"/><path class="cls-27" d="M196,299.31l56,32.37v.65l-1-.16v-.32l-55-32.21Zm-.35,0"/><path class="cls-3" d="M251.44,332.16l.28.16-.28.16Zm0,0"/><path class="cls-15" d="M252,331.68l4-2.43v.65l-4,2.43Zm-.28,0"/><path class="cls-26" d="M204.62,294.13l4.2-2.43.28.16,55.79,32.21-4.2,2.43Zm0,0"/><path class="cls-27" d="M205,294.13l56,32.37v.65l-1-.16v-.32l-55-32.21Zm-.38,0"/><path class="cls-3" d="M260.41,327l.28.16-.28.16Zm0,0"/><path class="cls-15" d="M261,326.5l4-2.43v.65l-4,2.43Zm-.31,0"/><path class="cls-15" d="M251,332.48l-4,2.43v-.65l4-2.43v.65Zm.44,0"/><path class="cls-26" d="M251.44,331.84l-4.2,2.43L191.17,301.9l2.47-1.42.22-.13,1.51-.87.28.16Zm0,0"/><path class="cls-27" d="M191,301.9l56,32.37v.16l-56-32.21Zm.17,0"/><path class="cls-3" d="M247,334.75l.28.16-.28.16Zm0,0"/><path class="cls-26" d="M182.2,307.07l4.2-2.43.28.16L242.47,337l-4.2,2.43Zm0,0"/><path class="cls-27" d="M182,307.07l56,32.37v.16L182,307.4Zm.2,0"/><path class="cls-3" d="M238,339.93l.28.16-.28.16Zm0,0"/><path class="cls-15" d="M238,339.44l4-2.43v.65l-4,2.43Zm.26,0"/><path class="cls-26" d="M168.74,314.84l4.2-2.43.28.16L229,344.78l-4.2,2.43Zm0,0"/><path class="cls-27" d="M169,314.84l56,32.37v.16l-56-32.21Zm-.26,0"/><path class="cls-3" d="M224.53,347.7l.28.16-.28.16Zm0,0"/><path class="cls-15" d="M225,347.21l4-2.43v.65l-4,2.43Zm-.19,0"/><path class="cls-26" d="M186.68,304.48l4.2-2.43.28.16L247,334.43l-4.2,2.43Zm0,0"/><path class="cls-27" d="M187,304.48l56,32.37v.65l-1-.16V337l-55-32.21Zm-.32,0"/><path class="cls-3" d="M242.47,337.34l.28.16-.28.16Zm0,0"/><path class="cls-15" d="M243,336.85l4-2.43v.65l-4,2.43Zm-.25,0"/><path class="cls-26" d="M173.23,312.25l4.2-2.43.28.16L233.5,342.2l-4.2,2.43Zm0,0"/><path class="cls-27" d="M173,312.25l56,32.37v.16l-56-32.21Zm.23,0"/><path class="cls-3" d="M229,345.11l.28.16-.28.16Zm0,0"/><path class="cls-15" d="M229,344.62l4-2.43v.65l-4,2.43Zm.29,0"/><path class="cls-26" d="M200.14,296.72l4.2-2.43.28.16,55.79,32.21-4.2,2.43Zm0,0"/><path class="cls-27" d="M200,296.72l56,32.37v.16L200,297Zm.14,0"/><path class="cls-3" d="M255.92,329.57l.28.16-.28.16Zm0,0"/><path class="cls-15" d="M256,329.09l4-2.43v.65l-4,2.43Zm.2,0"/><path class="cls-27" d="M124,346.24v-4.86l56,32.37v4.86Zm-.11,0"/><path class="cls-27" d="M124,346.24l56,32.37v4.86l-46.53-26.85-1.41-.81-1.27-.73-2.25-1.29-2.8-1.62-.67-.42L124,351.1Zm-.11,0"/><path class="cls-15" d="M180,378.61v-4.86l1-.32v4.86Zm0,0"/><path class="cls-27" d="M180,373.76l-56-32.37v-.65l56,32.37Zm0,0"/><path class="cls-15" d="M180,378.61l1-.32v4.86l-1,.32Zm0,0"/><path class="cls-15" d="M180.46,373.43l-.46.32v-.65l4-2.43v.65Zm.06,0"/><path class="cls-26" d="M177.71,309.66l4.2-2.43.28.16L238,339.61l-4.2,2.43Zm0,0"/><path class="cls-27" d="M178,309.66,234,342v.65l-1-.16v-.32L178,310Zm-.29,0"/><path class="cls-3" d="M233.5,342.52l.28.16-.28.16Zm0,0"/><path class="cls-15" d="M234,342l4-2.43v.65l-4,2.43Zm-.22,0"/><path class="cls-15" d="M422,234.08l-4,2.43v-.65l4-2.43v.65Zm-.12,0"/><path class="cls-26" d="M421.88,233.43l-4.2,2.43-56.07-32.37.22-.13.22-.13,3.76-2.17.28.16Zm0,0"/><path class="cls-27" d="M362,203.49l56,32.37v.65l-1-.16V236l-55-32.21Zm-.39,0"/><path class="cls-3" d="M417.39,236.35l.28.16-.28.16Zm0,0"/><path class="cls-26" d="M357.12,206.08l4.2-2.43.28.16L417.39,236l-4.2,2.43Zm0,0"/><path class="cls-27" d="M357,206.08l56,32.37v.16l-56-32.21Zm.12,0"/><path class="cls-3" d="M412.91,238.94l.28.16-.28.16Zm0,0"/><path class="cls-15" d="M413,238.45l4-2.43v.65l-4,2.43Zm.19,0"/><path class="cls-26" d="M339.18,216.44l4.2-2.43.28.16,55.79,32.21-4.2,2.43Zm0,0"/><path class="cls-27" d="M339,216.44l56,32.37V249l-56-32.21Zm.18,0"/><path class="cls-3" d="M395,249.3l.28.16-.28.16Zm0,0"/><path class="cls-15" d="M395,248.81l4-2.43V247l-4,2.43Zm.25,0"/><path class="cls-26" d="M316.91,229.23l4.2-2.43.28.16,55.79,32.21L373,261.6Zm0,0"/><path class="cls-27" d="M317,229.39l56,32.37v.16l-56-32.21Zm-.25,0"/><path class="cls-3" d="M372.54,262.24l.28.16-.28.16Zm0,0"/><path class="cls-15" d="M373,261.76l4-2.43V260l-4,2.43Zm-.18,0"/><path class="cls-15" d="M485,197.83v4.86l-1,.32v-4.86Zm-.33,0"/><path class="cls-15" d="M485,197.83l-1,.32-4,2.1v-.65l5-2.43Zm-.33,0"/><path class="cls-15" d="M484,203l1-.32v4.86l-1,.32Zm.11,0"/><path class="cls-26" d="M132.86,335.56l4.2-2.43.28.16,55.79,32.21-4.2,2.43Zm0,0"/><path class="cls-27" d="M133,335.56l56,32.37v.16l-56-32.21Zm-.14,0"/><path class="cls-3" d="M188.64,368.41l.28.16-.28.16Zm0,0"/><path class="cls-15" d="M189,367.93l4-2.43v.65l-4,2.43Zm-.07,0"/><path class="cls-26" d="M312.43,231.82l4.2-2.43.28.16,55.79,32.21-4.2,2.43Zm0,0"/><path class="cls-27" d="M312,232l56,32.37v.16L312,232.3Zm.27,0"/><path class="cls-3" d="M368.05,264.83l.28.16-.28.16Zm0,0"/><path class="cls-15" d="M368,264.35l5-2.43v.65L368,265Zm.33,0"/><path class="cls-26" d="M141.83,330.38,146,328l.28.16,55.79,32.21-4.2,2.43Zm0,0"/><path class="cls-27" d="M142,330.38l56,32.37v.16L142,330.7Zm-.17,0"/><path class="cls-3" d="M197.62,363.24l.28.16-.28.16Zm0,0"/><path class="cls-15" d="M198,362.75l4-2.43V361l-4,2.43Zm-.1,0"/><path class="cls-26" d="M128.37,338.15l4.2-2.43.28.16,55.79,32.21-4.2,2.43Zm0,0"/><path class="cls-27" d="M128,338.15l56,32.37v.16l-56-32.21Zm.37,0"/><path class="cls-3" d="M184.16,371l.28.16-.28.16Zm0,0"/><path class="cls-15" d="M184,370.52l5-2.43v.65l-5,2.43Zm.44,0"/><path class="cls-26" d="M272.06,255.13l4.2-2.43.28.16,55.79,32.21-4.2,2.43Zm0,0"/><path class="cls-27" d="M272,255.28l56,32.37v.16l-56-32.21Zm-.1,0"/><path class="cls-3" d="M327.69,288.14l.28.16-.28.16Zm0,0"/><path class="cls-15" d="M328,287.65l4-2.43v.65l-4,2.43Zm0,0"/><path class="cls-15" d="M319,293.64l-4,2.43v-.65l4-2.43v.65Zm-.28,0"/><path class="cls-26" d="M318.87,292.84l-4.2,2.43L258.6,262.89l2.47-1.42.22-.13,1.51-.87.28.16Zm0,0"/><path class="cls-27" d="M258,263.05l57,32.37v.65l-1-.16v-.32l-56-32.21Zm.45,0"/><path class="cls-3" d="M314.23,295.91l.28.16-.28.16Zm0,0"/><path class="cls-26" d="M276.54,252.54l4.2-2.43.28.16,55.79,32.21-4.2,2.43Zm0,0"/><path class="cls-27" d="M276,252.69l56,32.37v.16L276,253Zm.39,0"/><path class="cls-3" d="M332.17,285.55l.28.16-.28.16Zm0,0"/><path class="cls-15" d="M332,285.06l5-2.43v.65l-5,2.43Zm.45,0"/><path class="cls-26" d="M263.09,260.31l4.2-2.43.28.16,55.79,32.21-4.2,2.43Zm0,0"/><path class="cls-27" d="M263,260.46l56,32.37V293l-56-32.21Zm-.07,0"/><path class="cls-3" d="M318.72,293.32l.28.16-.28.16Zm0,0"/><path class="cls-15" d="M319,292.83l4-2.43v.65l-4,2.43Zm0,0"/><path class="cls-15" d="M350,275.51l-4,2.43v-.65l4-2.43v.65Zm.11,0"/><path class="cls-26" d="M350.27,274.71l-4.2,2.43L290,244.77l1.93-1.12.22-.13,2-1.18.28.16Zm0,0"/><path class="cls-27" d="M290,244.93l56,32.37v.16l-56-32.21Zm-.16,0"/><path class="cls-3" d="M345.63,277.78l.28.16-.28.16Zm0,0"/><path class="cls-26" d="M267.57,257.72l4.2-2.43.28.16,55.79,32.21-4.2,2.43Zm0,0"/><path class="cls-27" d="M267,257.87l56,32.37v.16L267,258.2Zm.42,0"/><path class="cls-3" d="M323.2,290.73l.28.16-.28.16Zm0,0"/><path class="cls-15" d="M323,290.24l5-2.43v.65l-5,2.43Zm.48,0"/><path class="cls-26" d="M222.56,283.77l4.2-2.43.28.16,55.79,32.21-4.2,2.43Zm0,0"/><path class="cls-27" d="M223,283.77l56,32.37v.65l-1-.16v-.32l-55-32.21Zm-.44,0"/><path class="cls-3" d="M278.35,316.62l.28.16-.28.16Zm0,0"/><path class="cls-15" d="M279,316.14l4-2.43v.65l-4,2.43Zm-.37,0"/><path class="cls-26" d="M231.54,278.59l4.2-2.43.28.16,55.79,32.21L287.6,311Zm0,0"/><path class="cls-27" d="M232,278.59,288,311v.65l-1-.16v-.32l-55-32.21Zm-.46,0"/><path class="cls-3" d="M287.32,311.44l.28.16-.28.16Zm0,0"/><path class="cls-15" d="M288,311l4-2.43v.65l-4,2.43Zm-.4,0"/><path class="cls-26" d="M218.08,286.36l4.2-2.43.28.16,55.79,32.21-4.2,2.43Zm0,0"/><path class="cls-27" d="M218,286.36l56,32.37v.16l-56-32.21Zm.08,0"/><path class="cls-3" d="M273.86,319.21l.28.16-.28.16Zm0,0"/><path class="cls-15" d="M274,318.73l4-2.43v.65l-4,2.43Zm.14,0"/><path class="cls-26" d="M240.51,273.41l4.2-2.43.28.16,55.79,32.21-4.2,2.43Zm0,0"/><path class="cls-27" d="M241,273.41l56,32.37v.65l-1-.16v-.32l-55-32.21Zm-.49,0"/><path class="cls-3" d="M296.29,306.27l.28.16-.28.16Zm0,0"/><path class="cls-15" d="M297,305.78l4-2.43V304l-4,2.43Zm-.43,0"/><path class="cls-26" d="M249.48,268.23l4.2-2.43.28.16,55.79,32.21-4.2,2.43Zm0,0"/><path class="cls-27" d="M249,268.23l57,32.37v.65l-1-.16v-.32l-56-32.21Zm.48,0"/><path class="cls-3" d="M305.26,301.09l.28.16-.28.16Zm0,0"/><path class="cls-15" d="M306,300.6l4-2.43v.65l-4,2.43Zm-.46,0"/><path class="cls-26" d="M236,276l4.2-2.43.28.16,55.79,32.21-4.2,2.43Zm0,0"/><path class="cls-27" d="M236,276l56,32.37v.16l-56-32.21Zm0,0"/><path class="cls-3" d="M291.81,308.85l.28.16-.28.16Zm0,0"/><path class="cls-15" d="M292,308.37l4-2.43v.65L292,309Zm.09,0"/><path class="cls-15" d="M287,311.77l-4,2.43v-.65l4-2.43v.65Zm.32,0"/><path class="cls-26" d="M287.32,311.12l-4.2,2.43L227,281.18l.22-.13.22-.13,2.55-1.47.22-.13,1-.57.28.16Zm0,0"/><path class="cls-27" d="M227,281.18l56,32.37v.16L227,281.5Zm0,0"/><path class="cls-3" d="M282.83,314l.28.16-.28.16Zm0,0"/><path class="cls-26" d="M213.59,288.95l4.2-2.43.28.16,55.79,32.21-4.2,2.43Zm0,0"/><path class="cls-27" d="M214,288.95l56,32.37V322l-1-.16v-.32l-55-32.21Zm-.41,0"/><path class="cls-3" d="M269.38,321.8l.28.16-.28.16Zm0,0"/><path class="cls-15" d="M270,321.32l4-2.43v.65L270,322Zm-.34,0"/><path class="cls-26" d="M352.64,208.67l4.2-2.43.28.16,55.79,32.21L408.7,241Zm0,0"/><path class="cls-27" d="M353,208.67,409,241v.65l-1-.16v-.32L353,209Zm-.36,0"/><path class="cls-3" d="M408.42,241.53l.28.16-.28.16Zm0,0"/><path class="cls-15" d="M409,241l4-2.43v.65l-4,2.43Zm-.3,0"/><path class="cls-26" d="M330.21,221.62l4.2-2.43.28.16,55.79,32.21-4.2,2.43Zm0,0"/><path class="cls-27" d="M330,221.62,386,254v.16l-56-32.21Zm.21,0"/><path class="cls-3" d="M386,254.47l.28.16-.28.16Zm0,0"/><path class="cls-15" d="M386,254l4-2.43v.65l-4,2.43Zm.28,0"/><path class="cls-26" d="M307.94,234.41l4.2-2.43.28.16,55.79,32.21-4.2,2.43Zm0,0"/><path class="cls-27" d="M308,234.57l56,32.37v.16l-56-32.21Zm-.22,0"/><path class="cls-3" d="M363.57,267.42l.28.16-.28.16Zm0,0"/><path class="cls-15" d="M364,266.94l4-2.43v.65l-4,2.43Zm-.15,0"/><path class="cls-26" d="M334.7,219l4.2-2.43.28.16L395,249l-4.2,2.43Zm0,0"/><path class="cls-27" d="M335,219l56,32.37V252l-1-.16v-.32l-55-32.21Zm-.3,0"/><path class="cls-3" d="M390.48,251.88l.28.16-.28.16Zm0,0"/><path class="cls-15" d="M391,251.4l4-2.43v.65L391,252Zm-.24,0"/><path class="cls-26" d="M303.46,237l4.2-2.43.28.16,55.79,32.21-4.2,2.43Zm0,0"/><path class="cls-27" d="M303,237.16l56,32.37v.16l-56-32.21Zm.3,0"/><path class="cls-3" d="M359.08,270l.28.16-.28.16Zm0,0"/><path class="cls-15" d="M359,269.53l5-2.43v.65l-5,2.43Zm.36,0"/><path class="cls-26" d="M343.67,213.85l4.2-2.43.28.16,55.79,32.21-4.2,2.43Zm0,0"/><path class="cls-27" d="M344,213.85l56,32.37v.65l-1-.16v-.32l-55-32.21Zm-.33,0"/><path class="cls-3" d="M399.45,246.71l.28.16-.28.16Zm0,0"/><path class="cls-15" d="M400,246.22l4-2.43v.65l-4,2.43Zm-.27,0"/><path class="cls-26" d="M321.24,226.8l4.2-2.43.28.16,55.79,32.21-4.2,2.43Zm0,0"/><path class="cls-27" d="M321,226.8l56,32.37v.16l-56-32.21Zm.24,0"/><path class="cls-3" d="M377,259.65l.28.16L377,260Zm0,0"/><path class="cls-15" d="M377,259.17l5-2.43v.65l-5,2.43Zm.31,0"/><path class="cls-26" d="M348.15,211.26l4.2-2.43.28.16,55.79,32.21-4.2,2.43Zm0,0"/><path class="cls-27" d="M348,211.26l56,32.37v.16l-56-32.21Zm.15,0"/><path class="cls-3" d="M403.94,244.12l.28.16-.28.16Zm0,0"/><path class="cls-15" d="M404,243.63l4-2.43v.65l-4,2.43Zm.22,0"/><path class="cls-15" d="M386,254.8l-4,2.43v-.65l4-2.43v.65Zm0,0"/><path class="cls-26" d="M386,254.15l-4.2,2.43-56.07-32.37,2.47-1.42.22-.13,1.51-.87.28.16Zm0,0"/><path class="cls-27" d="M326,224.21l56,32.37v.16l-56-32.21Zm-.28,0"/><path class="cls-3" d="M381.51,257.06l.28.16-.28.16Zm0,0"/><path class="cls-26" d="M254,265.64l4.2-2.43.28.16,55.79,32.21L310,298Zm0,0"/><path class="cls-27" d="M254,265.64,310,298v.16L254,266Zm0,0"/><path class="cls-3" d="M309.75,298.5l.28.16-.28.16Zm0,0"/><path class="cls-15" d="M310,298l4-2.43v.65l-4,2.43Zm0,0"/><path class="cls-26" d="M299,239.59l4.2-2.43.28.16,55.79,32.21L355,272Zm0,0"/><path class="cls-27" d="M299,239.75l56,32.37v.16l-56-32.21Zm-.19,0"/><path class="cls-3" d="M354.6,272.6l.28.16-.28.16Zm0,0"/><path class="cls-15" d="M355,272.12l4-2.43v.65l-4,2.43Zm-.12,0"/><path class="cls-26" d="M285.52,247.36l4.2-2.43.28.16,55.79,32.21-4.2,2.43Zm0,0"/><path class="cls-27" d="M285,247.51l56,32.37V280l-56-32.21Zm.36,0"/><path class="cls-3" d="M341.14,280.37l.28.16-.28.16Zm0,0"/><path class="cls-15" d="M341,279.88l5-2.43v.65l-5,2.43Zm.42,0"/><path class="cls-15" d="M355,272.92l-5,2.43v-.65l5-2.43v.65Zm-.4,0"/><path class="cls-26" d="M354.76,272.12l-4.2,2.43-56.07-32.37.22-.13.22-.13,3.76-2.17.28.16Zm0,0"/><path class="cls-27" d="M294,242.34l56,32.37v.16l-56-32.21Zm.33,0"/><path class="cls-3" d="M350.11,275.19l.28.16-.28.16Zm0,0"/><path class="cls-26" d="M281,249.95l4.2-2.43.28.16,55.79,32.21-4.2,2.43Zm0,0"/><path class="cls-27" d="M281,250.1l56,32.37v.16l-56-32.21Zm-.13,0"/><path class="cls-3" d="M336.66,283l.28.16-.28.16Zm0,0"/><path class="cls-15" d="M337,282.47l4-2.43v.65l-4,2.43Zm-.06,0"/><path class="cls-26" d="M150.8,325.2l4.2-2.43.28.16,55.79,32.21-4.2,2.43Zm0,0"/><path class="cls-27" d="M151,325.2l56,32.37v.16l-56-32.21Zm-.2,0"/><path class="cls-3" d="M206.59,358.06l.28.16-.28.16Zm0,0"/><path class="cls-15" d="M207,357.57l4-2.43v.65l-4,2.43Zm-.13,0"/><path class="cls-15" d="M220,350.61,216,353v-.65l4-2.43v.65Zm0,0"/><path class="cls-26" d="M220,350l-4.2,2.43L159.77,320l.22-.13.22-.13,3.76-2.17.28.16Zm0,0"/><path class="cls-27" d="M160,320l56,32.37v.16l-56-32.21Zm-.23,0"/><path class="cls-3" d="M215.56,352.88l.28.16-.28.16Zm0,0"/><path class="cls-26" d="M146.32,327.79l4.2-2.43.28.16,55.79,32.21-4.2,2.43Zm0,0"/><path class="cls-27" d="M146,327.79l56,32.37v.16l-56-32.21Zm.32,0"/><path class="cls-3" d="M202.1,360.65l.28.16-.28.16Zm0,0"/><path class="cls-15" d="M202,360.16l5-2.43v.65l-5,2.43Zm.38,0"/><path class="cls-26" d="M137.35,333l4.2-2.43.28.16,55.79,32.21-4.2,2.43Zm0,0"/><path class="cls-27" d="M137,333l56,32.37v.16l-56-32.21Zm.35,0"/><path class="cls-3" d="M193.13,365.82l.28.16-.28.16Zm0,0"/><path class="cls-15" d="M193,365.34l5-2.43v.65L193,366Zm.41,0"/><path class="cls-26" d="M180,373.11l-56.07-32.37,2.35-1.36.11-.06.22-.13,1.51-.87.28.16,55.79,32.21Zm0,0"/><path class="cls-15" d="M181,383.14v-4.86L484,203v4.86Zm-.48,0"/><path class="cls-26" d="M397.49,182.78l4.2-2.43.28.16,55.79,32.21-4.2,2.43Zm0,0"/><path class="cls-27" d="M397,182.78l57,32.37v.65l-1-.16v-.32L397,183.1Zm.49,0"/><path class="cls-3" d="M453.27,215.63l.28.16-.28.16Zm0,0"/><path class="cls-15" d="M454,215.15l4-2.43v.65l-4,2.43Zm-.45,0"/><path class="cls-26" d="M384,190.54l4.2-2.43.28.16,55.79,32.21-4.2,2.43Zm0,0"/><path class="cls-27" d="M384,190.54l56,32.37v.16l-56-32.21Zm0,0"/><path class="cls-3" d="M439.82,223.4l.28.16-.28.16Zm0,0"/><path class="cls-15" d="M440,222.91l4-2.43v.65l-4,2.43Zm.1,0"/><path class="cls-15" d="M453,216l-4,2.43v-.65l4-2.43V216Zm.27,0"/><path class="cls-26" d="M453.27,215.31l-4.2,2.43L393,185.37l2.47-1.42.22-.13,1.51-.87.28.16Zm0,0"/><path class="cls-27" d="M393,185.37l56,32.37v.16l-56-32.21Zm0,0"/><path class="cls-3" d="M448.79,218.22l.28.16-.28.16Zm0,0"/><path class="cls-26" d="M375.06,195.72l4.2-2.43.28.16,55.79,32.21-4.2,2.43Zm0,0"/><path class="cls-27" d="M375,195.72l56,32.37v.16L375,196Zm.06,0"/><path class="cls-3" d="M430.85,228.58l.28.16-.28.16Zm0,0"/><path class="cls-15" d="M431,228.09l4-2.43v.65l-4,2.43Zm.13,0"/><path class="cls-26" d="M410.94,175l4.2-2.43.28.16,55.79,32.21-4.2,2.43Zm0,0"/><path class="cls-27" d="M411,175l56,32.37v.16l-56-32.21Zm-.06,0"/><path class="cls-3" d="M466.73,207.86l.28.16-.28.16Zm0,0"/><path class="cls-15" d="M467,207.38l4-2.43v.65L467,208Zm0,0"/><path class="cls-26" d="M402,180.19l4.2-2.43.28.16,55.79,32.21-4.2,2.43Zm0,0"/><path class="cls-27" d="M402,180.19l56,32.37v.16l-56-32.21Zm0,0"/><path class="cls-3" d="M457.76,213l.28.16-.28.16Zm0,0"/><path class="cls-15" d="M458,212.56l4-2.43v.65l-4,2.43Zm0,0"/><path class="cls-26" d="M388.52,188l4.2-2.43.28.16,55.79,32.21-4.2,2.43Zm0,0"/><path class="cls-27" d="M389,188l56,32.37V221l-1-.16v-.32l-55-32.21Zm-.48,0"/><path class="cls-3" d="M444.3,220.81l.28.16-.28.16Zm0,0"/><path class="cls-15" d="M445,220.32l4-2.43v.65L445,221Zm-.42,0"/><path class="cls-26" d="M419.91,169.83l4.2-2.43.28.16,55.79,32.21L476,202.2Zm0,0"/><path class="cls-27" d="M420,169.83l56,32.37v.16l-56-32.21Zm-.09,0"/><path class="cls-3" d="M475.7,202.68l.28.16-.28.16Zm0,0"/><path class="cls-15" d="M476,202.2l4-2.43v.65l-4,2.43Zm0,0"/><path class="cls-26" d="M415.43,172.42l4.2-2.43.28.16,55.79,32.21-4.2,2.43Zm0,0"/><path class="cls-27" d="M415,172.42l56,32.37v.16l-56-32.21Zm.43,0"/><path class="cls-3" d="M471.21,205.27l.28.16-.28.16Zm0,0"/><path class="cls-15" d="M471,204.79l5-2.43V203l-5,2.43Zm.5,0"/><path class="cls-26" d="M370.58,198.31l4.2-2.43.28.16,55.79,32.21-4.2,2.43Zm0,0"/><path class="cls-27" d="M371,198.31l56,32.37v.65l-1-.16v-.32l-55-32.21Zm-.42,0"/><path class="cls-3" d="M426.36,231.17l.28.16-.28.16Zm0,0"/><path class="cls-15" d="M427,230.68l4-2.43v.65l-4,2.43Zm-.36,0"/><path class="cls-26" d="M379.55,193.13l4.2-2.43.28.16,55.79,32.21-4.2,2.43Zm0,0"/><path class="cls-27" d="M380,193.13l56,32.37v.65l-1-.16v-.32l-55-32.21Zm-.45,0"/><path class="cls-3" d="M435.33,226l.28.16-.28.16Zm0,0"/><path class="cls-15" d="M436,225.5l4-2.43v.65l-4,2.43Zm-.39,0"/><path class="cls-26" d="M406.46,177.6l4.2-2.43.28.16,55.79,32.21-4.2,2.43Zm0,0"/><path class="cls-27" d="M406,177.6,463,210v.65l-1-.16v-.32l-56-32.21Zm.46,0"/><path class="cls-3" d="M462.24,210.45l.28.16-.28.16Zm0,0"/><path class="cls-15" d="M463,210l4-2.43v.65l-4,2.43Zm-.48,0"/><path class="cls-26" d="M366.09,200.9l4.2-2.43.28.16,55.79,32.21-4.2,2.43Zm0,0"/><path class="cls-27" d="M366,200.9l56,32.37v.16l-56-32.21Zm.09,0"/><path class="cls-3" d="M421.88,233.76l.28.16-.28.16Zm0,0"/><path class="cls-15" d="M422,233.27l4-2.43v.65l-4,2.43Zm.16,0"/><path class="cls-26" d="M424.4,167.24l4.2-2.43.51.29,2.24,1.29,2.24,1.29,51.07,29.49-4.2,2.43Zm0,0"/><path class="cls-27" d="M424,167.24l56,32.37v.16l-56-32.21Zm.4,0"/><path class="cls-3" d="M480.19,200.09l.28.16-.28.16Zm0,0"/><path class="cls-5" d="M63.62,178.6l.09,0,.09.13-.09.08Zm0,0"/><path class="cls-5" d="M63.61,178.59h0l-3.47,1.08Zm0,0"/><path class="cls-5" d="M60.15,179.68l3.47-1.08.09.18L62.42,180l1.28,1.88L43.13,188.3l-.22.07-28.74,9-.22.07-9.37,2.94-.21.07-.2.06-.07,0L4,200.43v-.17l-.85-1.78-.37-.77,57.3-18Zm0,0"/><path class="cls-5" d="M4,199l.08,0v1.36L4,200.25Zm0,0"/><path class="cls-5" d="M62.42,180l1.28-1.18L65,181.43l-1.29.4Zm0,0"/><path class="cls-11" d="M276.28,198.29l-.07.07-.07.05-.07,0H276l-.06,0,0,0,0-.06v-.17l0-.09,0-.09.06-.09.07-.07.07-.05.07,0h.07l.06,0,0,0,0,.06V198l0,.09,0,.09Zm0,0"/><path class="cls-21" d="M17,275.91V212.66l26,15v63.25Zm-.35,0"/><path class="cls-21" d="M46,292.58V229.33l25,15v63.25Zm-.47,0"/><path class="cls-28" d="M161.49,21.92l0,.08v.21l0,.06,0,.05,0,0,0,0,0,0,0,0h-.17l-.06,0-.06,0v-.57l-.49-.28v-.1l0-.06,0-.05,0,0,0,0,0,0,0,0h.17l.06,0,.06,0,.06,0,.06,0,.06.06.06.06.05.07,0,.07,0,.08,0,.08,0,.08Zm0,0"/><path class="cls-28" d="M160.69,22l0-.08,0-.08,0-.08,0-.08,0-.08v-.11l.49.28v.57l-.06,0-.06,0-.06-.06-.06-.06-.05-.07Zm0,0"/><g class="cls-29"><path class="cls-30" d="M100.61,260.7H101a.4.4,0,0,0,.12.36,10.35,10.35,0,0,1,.62,3.59q0,31,0,62c0,2.53-.06,2.57-2.22,1.34-2.83-1.62-5.64-3.27-8.46-4.91a2.31,2.31,0,0,0-1.31-.54c-.49.32-.32.83-.32,1.27,0,2.38.08,4.76,0,7.14A2.67,2.67,0,0,0,91,333.7c5.91,3.35,11.79,6.76,17.69,10.14l14,8c.33.26.66.29.74-.18a10,10,0,0,0,.06-1.62q0-38.25,0-76.5c0-1.63.08-3.26.12-4.89a6.18,6.18,0,0,1,1.83-1.56c4.11-2.29,8.2-4.63,12.28-7,4.32-2.48,8.62-5,12.93-7.48l16.08-9.27c3.44-2,6.88-3.95,10.31-5.94,5-2.9,10-5.81,15-8.7,4.66-2.69,9.33-5.35,14-8,5-2.89,10-5.82,15-8.7,4-2.31,8.07-4.58,12.09-6.89,4.6-2.65,9.19-5.33,13.78-8l12-7,17.11-9.89,11.89-6.85,17-9.77,12-7,17-9.77,12-7,17.11-9.9,11.89-6.84,16.95-9.77,12-7,16.95-9.77c3.15-1.81,6.31-3.59,9.45-5.42a7.71,7.71,0,0,1,1.77-.64,6.05,6.05,0,0,0,.12.81c.33,1.16.61,1.28,1.71.86.55-.21,1.14-.87,1.67-.44s.28,1.39.27,2.12c0,.55-.47.78-.89,1a2.35,2.35,0,0,0-1.2,2.37q0,21.33,0,42.66a2.13,2.13,0,0,0,1.53,2.29c4.63,1.89,9.23,3.83,13.84,5.75,2.62,1.09,5.24,2.19,7.88,3.24a6.47,6.47,0,0,1,2.42,1.8c3.62,4,7.26,8.06,10.88,12.1,4.16,4.65,8.28,9.32,12.44,14,1,1.06,2,2,3,3.09.37.4.83.63.35,1.49s.72.55,1.21.71l.14.84c-3.5,2-7,4-10.5,6.07a1.9,1.9,0,0,1-2.05.05,48.06,48.06,0,0,1-5.55-3.28c-3.45-2.3-7.18-4.13-10.7-6.32a1.5,1.5,0,0,0-1.71.14c-3.7,2.16-7.41,4.3-11.11,6.44l-15.52,9-21,12.12c-3.83,2.21-7.66,4.4-11.48,6.61-5.23,3-10.43,6.1-15.66,9.12-6.35,3.66-12.74,7.27-19.09,10.94-5.59,3.22-11.16,6.49-16.75,9.72s-11.2,6.43-16.79,9.65q-20.4,11.76-40.8,23.53c-12.41,7.18-24.79,14.43-37.22,21.57q-15.47,8.88-30.89,17.84c-11.45,6.66-23,13.21-34.46,19.82-4.89,2.81-9.78,5.62-14.63,8.51a2.84,2.84,0,0,1-3.26,0c-2.52-1.77-5.35-2.09-8.29-2.35-4-.37-8.08-1-12.12-1.45-4.25-.49-8.5-.89-12.75-1.37-2.76-.31-5.51-.7-8.27-1-.27,0-.54-.08-.81-.1-2-.17-2.08-.09-2.08,1.89,0,2.31,0,4.63,0,6.94a2.17,2.17,0,0,0,1.27,2.26c7.57,4.3,15.08,8.69,22.62,13l30.59,17.61c.39.23.72.66,1.28.49.4-.39.25-.89.25-1.34,0-1.7,0-3.4,0-5.1,0-3.35,0-3.34,2.93-5l13.38-7.71,13.56-7.83L236,340.46l18.34-10.59,13.38-7.71,13.55-7.82q6.41-3.71,12.82-7.42,11.71-6.75,23.43-13.48c4.35-2.51,8.64-5.12,13-7.54,3.5-1.92,7-3.92,10.41-5.92s6.9-4,10.34-6c2.56-1.51,5.13-3,7.78-4.41,1.61-.84,3.17-1.81,4.73-2.74,5.92-3.53,11.95-6.89,17.91-10.35,4-2.31,7.93-4.65,11.91-6.93,5-2.85,9.94-5.78,14.95-8.6,3.84-2.16,7.61-4.45,11.44-6.65,3.57-2,7.16-4.07,10.72-6.12,2.27-1.31,4.54-2.66,6.81-4,3.79-2.21,7.66-4.31,11.43-6.55s7.52-4.26,11.19-6.55c4.41-2.75,9-5.29,13.5-7.81,3.28-1.81,6.3-4,9.63-5.77,1.25-.65,1.51-.56,1.52.87,0,2.52.06,5,0,7.55a2.28,2.28,0,0,0,1.36,2.42c2.17,1.11,4.26,2.37,6.37,3.58.29.16.64.26.77.8a31.86,31.86,0,0,1-5.06,3.11q-14.35,8.37-28.76,16.64l-34.79,20.07q-18.37,10.6-36.73,21.21-19,11-38,21.88-14.84,8.56-29.66,17.14-20.21,11.69-40.41,23.37Q262,346.5,244.09,356.81L216.92,372.5c-7.41,4.28-14.82,8.45-22.23,12.74-.35.2-.75.6-1,.6H178.61c-2.38-2-5.17-3-7.76-4.54-5-3-10-5.82-15-8.71-4.66-2.69-9.35-5.29-14-8q-5-2.87-9.94-5.78a2.15,2.15,0,0,0-2.46-.14c-.8.5-1.68.86-2.45,1.44-.48.36-1.15.32-1.08-.53s-.35-1.1-1-1.46c-3.44-1.85-6.83-3.79-10.23-5.72a5.14,5.14,0,0,1-.88-.83c1.92-1.63,1.89-1.57-.38-2.83-3.06-1.7-6.05-3.52-9.08-5.28s-5.87-3.55-8.9-5.14c-2.63-1.38-5-3.09-7.64-4.51-3.12-1.71-6.16-3.57-9.25-5.35s-6.07-3.47-9.1-5.22q-4.8-2.76-9.6-5.55c-4-2.33-8-4.7-12-7s-8.06-4.57-12.08-6.88c-4.55-2.61-9.1-5.22-13.61-7.91a2.12,2.12,0,0,0-2.24-.17,30.48,30.48,0,0,0-3.25,1.78c.14-1.9-1.07-2.57-2.29-3.25q-2.74-1.51-5.44-3.1c-.3-.18-.71-.29-.61-.88a3,3,0,0,0-2.23-3.57c-.17-.06-.28-.28-.42-.43,1.61-1.22,1.6-1.21,3.15-.29s2.94,1.71,4.41,2.56c.3.41.76.35,1.18.38,1.42,1.52,3.36,2.23,5.09,3.25,7,4.08,13.94,8.09,20.94,12.1.86.49,1.66,1.24,2.79,1h0c.21,1,1.17,1.28,1.89,1.7,4.79,2.8,9.61,5.55,14.42,8.32,3.22,1.86,6.43,3.76,9.67,5.58.92.51,1.75,1.34,3,1.12l.06,0c.09.8.74,1.08,1.32,1.42L79.74,327c2.64,1.53,5.27,3.06,7.92,4.58,1.47.84,1.66.73,1.68-1,0-2.17,0-4.34,0-6.51A2.34,2.34,0,0,0,88,321.62c-2.86-1.55-5.69-3.16-8.47-4.85-2.45-1.49-5.17-2.58-7.24-4.67l-.07-.05c-.09-.65,0-1.19.82-.74q2.6,1.4,5.15,2.88,10.06,5.79,20.11,11.6a3.79,3.79,0,0,0,1.81.83,4.69,4.69,0,0,0,.19-2.22q0-30.58,0-61.16c0-.81.07-1.62.11-2.44A.54.54,0,0,0,100.61,260.7Zm130.11,14.93a3.8,3.8,0,0,0,2-.77c2.42-1.38,4.81-2.79,7.22-4.19,4.93-2.86,9.82-5.78,14.8-8.54a2.64,2.64,0,0,0,1.48-2.75q0-29.27,0-58.54c0-.41,0-.82,0-1.22,0-.84-.42-1.14-1.18-.75s-1.29.76-1.93,1.13c-6.93,4-13.83,8.07-20.81,12a3.11,3.11,0,0,0-1.78,3.22q.06,29.17,0,58.34A4.45,4.45,0,0,0,230.72,275.63Zm-106.19-4.58a3,3,0,0,0,2.47,1.22V270C127,272.36,125.24,270.43,124.53,271.05Z"/><path class="cls-31" d="M42.63,229.71q0,14,0,27.9c0,.54,0,1.09,0,1.63s-.23,1.1-.93,1c-1.39-.12-1.51.68-1.49,1.77,0,3.67,0,7.33,0,11,0,.85,0,1.73.87,2.12,1.43.66,1.71,1.79,1.56,3.18a6.07,6.07,0,0,1-.2,2.1c-2.59,0-5.17-.48-7.76-.72-.73-.07-1.47-.16-2.21-.25A9.94,9.94,0,0,1,27.68,278a10.91,10.91,0,0,0-6.13-1.84c-1.68-.05-3.34-.52-5-.35q0-30.08,0-60.17a6.76,6.76,0,0,1,.37-2c.18-.6.47-.79,1-.49.84.45,1.68.88,2.51,1.36,2.06,1.18,4.1,2.39,6.15,3.58,4.75,2.75,9.48,5.56,14.29,8.21A3,3,0,0,1,42.63,229.71Z"/><path class="cls-31" d="M71.68,244.07l-.12,47.76c-2.78-1.6-5.26-3-7.68-4.44a3.27,3.27,0,0,0-3-.66c-.95.31-2-.38-3-.33-1.63.09-3.2-.54-4.85-.45a2.52,2.52,0,0,1-1.47-.65,7.48,7.48,0,0,0-2.34-1.19,14.94,14.94,0,0,0-.32,5.72,2.51,2.51,0,0,0,2.1,1.43c2.68.33,5.38.58,8.07.88s5.23.71,7.85,1c1.08.11,2.16.15,3.24.25,1.3.13,1.49.42,1.45,2.13,0,1.43-.1,1.59-1.49,1.52-2.16-.11-4.32-.31-6.47-.58a17.47,17.47,0,0,0-2-.24,9.37,9.37,0,0,1-5.36-1.64,9.16,9.16,0,0,0-5.36-1.66,27.4,27.4,0,0,1-4.23-.46,1.25,1.25,0,0,1-1.19-1.4c0-.54,0-1.09,0-1.63q0-28,0-55.92A3.59,3.59,0,0,0,45,231c.67-.3.23-1.17.91-1.62,2.1,1.2,4.24,2.45,6.4,3.66.93.52,1.79,1.25,3,1.15l0,0c0,.7.54.87,1,1.13q6.13,3.57,12.27,7.12a3.47,3.47,0,0,0,2.27.75l0,0C70.78,243.72,71.21,243.92,71.68,244.07Z"/><path class="cls-30" d="M183.45,117.32c3.35-2,6.68-4,10-6q7.14-4.17,14.32-8.28c4-2.32,8.06-4.61,12.08-6.93,5-2.89,10-5.86,15-8.68,4.58-2.56,9.08-5.25,13.61-7.89,5.81-3.38,11.6-6.81,17.47-10.09,3.23-1.81,6.42-3.68,9.63-5.53l14.16-8.15c4-2.32,8-4.67,12-7,4.66-2.69,9.34-5.35,14-8,4-2.32,8-4.68,12-7l17.28-10,14.69-8.45L372,8.28a18.11,18.11,0,0,1,1.61-.84,1.39,1.39,0,0,1,2.06,1.1c0,.31-.1.47-.37.62-.9.48-1.78,1-2.66,1.5s-1.31-.33-2.16-1.1c.78,1.91-.24,2.5-1.41,3.16-3.36,1.88-6.67,3.85-10,5.77-.9.52-1.8,1-2.79-.26a1.71,1.71,0,0,1-1,2.41c-3.89,2.17-7.7,4.49-11.55,6.75a1.45,1.45,0,0,1-1,.06c-.17-.27-.34-.63-.69-.54s-.19.41-.12.66c.09.67-.41,1-.86,1.26-3.74,2.18-7.5,4.31-11.23,6.5a2,2,0,0,1-2.26,0,.51.51,0,0,0,0-.17s-.08,0-.12,0l.17.2a1.76,1.76,0,0,1-1,2c-3.88,2.18-7.71,4.45-11.55,6.72a1.15,1.15,0,0,1-1.13.16c-.16-.07-.44-.28-.51,0-.41,1.88-2.32,1.95-3.53,2.75-2.93,1.93-6.08,3.52-9.14,5.25-.66.38-1.33.91-1.75-.59-.53.81,0,1.75-.87,2.12a21.26,21.26,0,0,0-1.89,1.17l-10,5.71c-.06,0-.14.07-.15.13-.34,1.1-1.47-1.29-1.7.39-.13,1-1.11,1.08-1.73,1.54a17.83,17.83,0,0,1-1.88,1.2c-.71.4-1.46.72-2.16,1.13-2.22,1.27-4.45,2.54-6.64,3.87-.59.36-1.2.06-1.67.22s-.42,1-1,1.35c-3.77,2.12-7.51,4.29-11.26,6.46-.91.53-1.76.84-2.51-.47a2.42,2.42,0,0,1-1.31,2.77c-3.88,2.19-7.74,4.41-11.61,6.61a1.68,1.68,0,0,1-.59.08c-.12-.37-.22-.92-.66-.83s-.21.62-.18,1c-.19,1.35-1.52,1.44-2.36,2-3.19,2-6.5,3.74-9.73,5.65a1.63,1.63,0,0,1-2.27-.29.62.62,0,0,0-.07-.14s-.07,0-.1,0l.19.14a2.18,2.18,0,0,1-1.21,2.28c-3.77,2.08-7.46,4.3-11.17,6.48-.9.53-1.53.23-2.14-.66.17,1.64-.7,2.34-2,3-3.43,1.85-6.76,3.88-10.14,5.82-.45.26-.89.64-1.49.52-.18-.36-.15-1-.78-.8-.28.1-.16.56,0,.84.25.62-.2.83-.61,1.08-2.2,1.3-4.39,2.61-6.6,3.89-1.69,1-3.4,1.91-5.09,2.89a1.83,1.83,0,0,1-1.32.38,1.16,1.16,0,0,0-.81-.82h0ZM313.18,43.21l-.07.1.09,0Z"/><path class="cls-30" d="M111.22,159.43a.72.72,0,0,1,.46-.79c3.49-2,7-4.06,10.45-6.09q8.54-5,17.1-9.88c4-2.31,8.05-4.6,12.07-6.91,5-2.89,10-5.8,15-8.7l13.78-8c1-.57,2-1.12,3-1.68.06.31.05.65.44.77h0l0,1.25c-.59,1.21-1.92,1.47-2.91,2.1-2.73,1.73-5.58,3.27-8.41,4.85a3.72,3.72,0,0,1-2.45.84c-.12,0-.32,0-.37.08-1.28,2.2-3.79,2.65-5.71,3.92-2.13,1.41-4.49,2.48-6.64,3.87-1,.65-1.68.78-2.46-.41.3,1.57-.6,2.16-1.63,2.79-3.05,1.86-6.25,3.47-9.27,5.4-.89.57-2,1.75-3.39.29a2.34,2.34,0,0,1-1.3,2.35q-5.73,3.22-11.35,6.63c-.93.56-1.15-.39-1.74-.5a.61.61,0,0,0-.06-.17s-.12,0-.12,0,0,.19.21.17a2,2,0,0,1-1.17,2.11c-3.76,2.14-7.43,4.47-11.29,6.41-1.55.78-2.84,1.88-4.33,2.69s-3,1.63-4.45,2.46c-1.82,1-3.67,2-5.44,3.13-.86.54-1.49.45-2.47-.68a2.09,2.09,0,0,1-1.16,2.87c-3.68,2.14-7.41,4.19-11.06,6.37-.94.56-1.33-.13-1.94-.42a.56.56,0,0,0-.05-.16s-.08,0-.12,0l.19.16c.17,1.16-.38,1.78-1.4,2.34-3,1.65-5.89,3.43-8.82,5.17-1.2.72-1.27.71-2.46-.55l.06-.76c2.36-1.67,5-2.93,7.44-4.39,4.79-2.84,9.61-5.6,14.43-8.38s9.76-5.62,14.64-8.42c.58-.33,1.17-.64,1.75-1a5.07,5.07,0,0,1,2.94-1.17,2.64,2.64,0,0,0,.1.56c0,.1.22,0,.19-.1A1.57,1.57,0,0,0,111.22,159.43Zm57.87-32.84-.09-.07,0,.12Z"/><path class="cls-30" d="M214,73.23l94.82-54.75c.94,2.19.76,2.66-1.11,3.3-1.12.38-2.35.51-2.77,2-.16.58-1,.62-1.52.93q-3.39,2-6.78,4c-1.65,1-3.92,1-5.18,2.16A21.14,21.14,0,0,1,287.26,34c-1.81,1-3.56,2.16-5.37,3.18a11.61,11.61,0,0,1-2.59,1.1c-1.28.35-2.41.6-3.19,2-.49.88-1.8,1.35-2.81,1.88-3.4,1.78-6.48,4.21-10.36,5-.19,0-.47.14-.52.29-1,2.54-3.65,2.82-5.55,4.09a25.2,25.2,0,0,1-8.35,4c-.2,0-.49.06-.57.19-1.71,3.07-5.22,3.56-7.75,5.44a17.49,17.49,0,0,1-5.9,2.6c-.32.09-.78.08-.84.45-.24,1.47-1.61,1.76-2.56,2.39C229,67.88,227,68.82,225.1,70a22.85,22.85,0,0,1-4.67,1.9c-1.53.54-3.09,1-4.62,1.54A1.67,1.67,0,0,1,214,73.23Z"/><path class="cls-30" d="M.57,197.85c-.21-1,.33-1.59,1.37-2.17,5.28-3,10.5-6,15.73-9.05,5.58-3.24,11.14-6.51,16.73-9.73,4-2.32,8.07-4.58,12.08-6.89,4.6-2.65,9.18-5.33,13.78-8L72.48,155c1.86-1.08,3.7-2.19,5.59-3.23,1.13-.62,1.34-.45,1.93.81.43.91.2,1.37-.76,1.64s-1.8.6-2.69.92-1.63.34-1.75,1.41c0,.37-.46.46-.74.64-3,1.9-6.13,3.43-9.11,5.31a18,18,0,0,1-3.62,1.27c-.44.16-1.09.06-.93,1,.09.54-.7.8-1.11,1.05-2.9,1.72-5.85,3.38-8.8,5a13.44,13.44,0,0,1-2.08.8c-1,.37-2.15.42-2.69,1.79-.26.67-1.33,1.1-2.11,1.49-2.55,1.26-4.91,2.84-7.38,4.24a10.41,10.41,0,0,1-1.51.56c-1.32.51-2.93.46-3.54,2.18-.13.37-.71.6-1.12.83-2.71,1.54-5.44,3-8.12,4.61a29,29,0,0,1-4,1.43c-.4.16-1,.06-.74.85.12.37-.24.61-.54.77-3.34,1.75-6.34,4.14-10,5.37a17.14,17.14,0,0,0-2.85,1.06c-.59.32-.92.62-.71,1.42.33,1.27.09,1.55-.93,1.65-1.26.13-1.56-.14-1.62-1.4C.56,198.29.57,198.15.57,197.85Z"/><path class="cls-30" d="M55.31,234.15c-1.17.1-2-.62-3-1.15-2.16-1.22-4.3-2.46-6.4-3.66-.68.44-.24,1.32-.91,1.62-.85-.33-1.48-1.09-2.41-1.25a3,3,0,0,0-1.82-3.38c-4.81-2.65-9.53-5.46-14.29-8.21-2.05-1.19-4.1-2.4-6.15-3.58-.82-.47-1.67-.91-2.51-1.36-.56-.3-.85-.11-1,.49a6.76,6.76,0,0,0-.37,2q0,30.08,0,60.17a3.43,3.43,0,0,0,.31,1.9c-1,.21-1.58-.58-2.33-.65a2.05,2.05,0,0,0-.4,0c0-2.65,0-5.31,0-8q0-28.17,0-56.35c0-.88,0-1.77-.05-2.65l.38.06q9.82,5.7,19.65,11.4c2.86,1.65,5.75,3.27,8.63,4.9l.69.44,10.73,6.32C54.53,233.45,55.07,233.61,55.31,234.15Z"/><path class="cls-30" d="M113.74,131.19c1.24-.74,2.48-1.5,3.73-2.23l14.48-8.39,11.71-6.75,14.16-8.14L170,98.61l7.33-4.25c.47-.27,1-.46,1.44-.73.77-.44,1.49-.73,2,.35s.39,1.5-.83,2c-.93.39-1.93.62-2.89.94a2.15,2.15,0,0,0-1.46,1.19c-.57,1.19-2,1.5-3.07,2.17-2,1.26-4.07,2.42-6.12,3.61a24.51,24.51,0,0,1-3.6,1.3c-.64.25-1.39.28-1.59,1.29-.14.73-1.08,1-1.7,1.35-2.46,1.27-4.79,2.76-7.15,4.21a20.28,20.28,0,0,1-4,1.51,2.5,2.5,0,0,0-1.77,1.39c-.48,1.06-1.82,1.35-2.78,1.93-1.85,1.11-3.74,2.15-5.6,3.26a18.3,18.3,0,0,1-4.51,1.83c-.6.17-1.26.24-1.44,1.18s-1.17,1.11-1.84,1.47c-2.51,1.34-4.89,2.88-7.37,4.26a7.8,7.8,0,0,1-2.41,1,41.92,41.92,0,0,0-4.86,1.42A2.31,2.31,0,0,1,113.74,131.19Z"/><path class="cls-31" d="M123.6,268.65c0,1.63-.12,3.26-.12,4.89q0,38.25,0,76.5a10,10,0,0,1-.06,1.62c-.08.47-.41.44-.74.18q0-39.28,0-78.56c0-1.29,0-2.58,0-3.88C122.71,268.81,123,268.51,123.6,268.65Z"/><path class="cls-31" d="M4.59,283.56a4,4,0,0,1-.36-2.49q0-23.68,0-47.36,0-13.27,0-26.54c0-.61,0-1.23.06-1.83s.46-.64.9-.53.55.43.19.85c-.6.7-.32,1.56-.32,2.35q0,36.54,0,73.08A3.39,3.39,0,0,1,4.59,283.56Z"/><path class="cls-30" d="M311.61,19.7,364,3.23A4.14,4.14,0,0,1,361.48,5c-3.22,1-6.51,1.86-9.7,3-3.51,1.24-7.09,2.22-10.63,3.34-6.91,2.18-13.85,4.23-20.75,6.44-2.31.74-4.64,1.43-6.95,2.16A1.9,1.9,0,0,1,311.61,19.7Z"/><path class="cls-31" d="M71.63,243.15c.06-16.37,0-32.74.25-49.13.66.4.53.95.53,1.44q0,22.94,0,45.87c0,.64.24,1.39-.54,1.82A.27.27,0,0,1,71.63,243.15Z"/><path class="cls-31" d="M43.34,226.86l-.69-.44q0-17.73,0-35.46c0-.34,0-.68,0-1-.09-1.1-.35-1.29-1.44-1a15.11,15.11,0,0,1-2.31.53,12.93,12.93,0,0,1,5-1.8,3.67,3.67,0,0,0-.43,2.52q0,17.12,0,34.23C43.41,225.24,43.37,226.05,43.34,226.86Z"/><path class="cls-31" d="M90.82,254.57A4.83,4.83,0,0,1,88,252.94h0c.65,0,1.25-.07,1.23-1,0-.54,0-1.09,0-1.63q0-14.46,0-28.92a3.81,3.81,0,0,1,.19-2,3.56,3.56,0,0,1,.2,2q0,14.36,0,28.72c0,1.6-.17,3.23,1.22,4.44Z"/><path class="cls-31" d="M14.37,210.13l-.38-.06a2.08,2.08,0,0,1-1.86-.84c.39-.54,1.15.24,1.37-.29a3.7,3.7,0,0,0,.16-1.39q0-4,0-7.95c0-1.79,0-1.79-1.79-1.44a3.53,3.53,0,0,1-.64,0,12,12,0,0,1,6.05-1.83c-.23.39-.68.41-1,.49-1.88.43-1.8.51-1.81,2.51Q14.41,204.73,14.37,210.13Z"/><path class="cls-30" d="M70.83,243.13a3.47,3.47,0,0,1-2.27-.75q-6.15-3.55-12.27-7.12c-.46-.27-1-.43-1-1.13,1.8.47,3.24,1.66,4.83,2.53,3.38,1.85,6.68,3.83,10,5.77A4,4,0,0,1,70.83,243.13Z"/><path class="cls-31" d="M14.08,277a2.05,2.05,0,0,1,.4,0q-.05,5.93-.1,11.86c-.43,0-.88,0-1.18-.37.66-.5.47-1.22.48-1.88,0-2.58,0-5.16,0-7.74C13.69,278.29,13.47,277.56,14.08,277Z"/><path class="cls-31" d="M47.33,295.15a93.41,93.41,0,0,1,10.16,5.59C56,300.79,48.88,296.87,47.33,295.15Z"/><path class="cls-31" d="M57.94,301.39a24.14,24.14,0,0,1,7,4A26.31,26.31,0,0,1,57.94,301.39Z"/><path class="cls-31" d="M43.25,305.33h0c-.35-3.62-.1-7.24-.14-10.87a.83.83,0,0,1,.39-.67l0,0c0,3.12,0,6.23,0,9.35A6.11,6.11,0,0,1,43.25,305.33Z"/><path class="cls-31" d="M72.26,322l-.06,0a59.46,59.46,0,0,1,0-10l.08.05A66,66,0,0,1,72.26,322Z"/><path class="cls-31" d="M33,287a7.75,7.75,0,0,1-4.13-2.32C30.59,284.85,31.8,285.92,33,287Z"/><path class="cls-31" d="M53.19,184.92a13,13,0,0,1,5-1.7A12.79,12.79,0,0,1,53.19,184.92Z"/><path class="cls-31" d="M43.34,293.05c-1.59-.23-2.64-1.34-3.82-2.25a7.82,7.82,0,0,1,4,2.07Z"/><path class="cls-31" d="M43.45,293.79l-.11-.74.18-.18a6.35,6.35,0,0,1,3.29,2c-1.47.07-2.23-1.1-3.38-1.07Z"/><path class="cls-31" d="M68.56,307.53a4.43,4.43,0,0,1,3.07,1.65C70.1,309.22,69.38,308.27,68.56,307.53Z"/><path class="cls-31" d="M19.21,279.12c1.66.06,2.37,1.06,3.29,1.67A4.45,4.45,0,0,1,19.21,279.12Z"/><path class="cls-31" d="M28.11,284.18a3.76,3.76,0,0,1-2.21-1C27.05,283,27.05,283,28.11,284.18Z"/><path class="cls-31" d="M50.82,185.61a7.43,7.43,0,0,1-3.05,1.16C48.75,185.85,48.79,185.83,50.82,185.61Z"/><path class="cls-31" d="M33.48,287.26a8.38,8.38,0,0,1,2.88,1.2C34.85,288.54,34.85,288.54,33.48,287.26Z"/><path class="cls-31" d="M38.72,290.31a3.73,3.73,0,0,1-2.21-1C37.67,289.17,37.67,289.17,38.72,290.31Z"/><path class="cls-31" d="M23.13,281.48c1.29.06,1.29.06,2.32,1.08A2.9,2.9,0,0,1,23.13,281.48Z"/><path class="cls-31" d="M68.06,307.16a4.32,4.32,0,0,1-2.8-1.35A3.09,3.09,0,0,1,68.06,307.16Z"/><path class="cls-31" d="M112.46,266.82a2.74,2.74,0,0,1-2.45-1.23v0a2.79,2.79,0,0,1,2.45,1.22Z"/><path class="cls-31" d="M4,203.93v-3.34A2.24,2.24,0,0,1,4,203.93Z"/><path class="cls-31" d="M70,182.77l-.06.76c-.74-.21-.92,1.07-1.9.58C68.44,183.19,69.33,183.09,70,182.77Z"/><path class="cls-31" d="M8.33,206.8a2.24,2.24,0,0,1-2.06-1,2,2,0,0,1,2.06,1Z"/><path class="cls-31" d="M19.82,195.21c.65-.31,1.25-.89,2-.46A1.92,1.92,0,0,1,19.82,195.21Z"/><path class="cls-31" d="M119.81,271.31a2.81,2.81,0,0,1-2-1.22h0c.88.08,1.78.11,2,1.23Z"/><path class="cls-31" d="M8.87,207.4c1.08,0,1.49.15,1.8.76C9.95,208.42,9.63,208,8.87,207.4Z"/><path class="cls-31" d="M107.55,264c.71.19,1.49.28,1.63,1.23v0c-.71-.19-1.49-.28-1.63-1.23Z"/><path class="cls-31" d="M44.92,187.44c.49-.39.89-.73,1.56-.44C46.08,187.63,45.58,187.63,44.92,187.44Z"/><path class="cls-31" d="M34.78,190.66a.51.51,0,0,1,.47-.51c.3-.06.63-.17.89.13a5.43,5.43,0,0,1-.64.43C35.27,190.82,35,190.91,34.78,190.66Z"/><path class="cls-31" d="M114.5,268a1.51,1.51,0,0,1-1.63-.81h0a1.51,1.51,0,0,1,1.63.81Z"/><path class="cls-31" d="M74.08,244.77c-.53,0-1.07,0-1.42-.65.73-.25,1.11.1,1.41.66Z"/><path class="cls-30" d="M71.63,243.15a.27.27,0,0,0,.23,0,.6.6,0,0,1-.18.9c-.48-.15-.9-.34-.88-1Z"/><path class="cls-31" d="M75.29,245.6a1.46,1.46,0,0,1,1.63.81h0a1.46,1.46,0,0,1-1.63-.81Z"/><path class="cls-31" d="M106.74,263.55a1.51,1.51,0,0,1-1.63-.82v0a1.51,1.51,0,0,1,1.63.82Z"/><path class="cls-31" d="M103.89,261.92a1.5,1.5,0,0,1-1.63-.82l0,0a1.51,1.51,0,0,1,1.63.81Z"/><path class="cls-31" d="M100.61,260.7a.54.54,0,0,1-.19.1l-1-1.33,0,0C100.25,259.43,100.71,259.78,100.61,260.7Z"/><path class="cls-31" d="M99,259.06a1.51,1.51,0,0,1-1.63-.81l0,0a1.53,1.53,0,0,1,1.63.81Z"/><path class="cls-31" d="M83,250.09a1.45,1.45,0,0,1,1.63.82v0a1.47,1.47,0,0,1-1.63-.81Z"/><path class="cls-31" d="M94.48,256.63a1.51,1.51,0,0,1,1.63.82v0a1.51,1.51,0,0,1-1.63-.82Z"/><path class="cls-31" d="M85.91,251.72a1.48,1.48,0,0,1,1.63.82l0,0c-.67,0-1.32-.07-1.64-.81Z"/><path class="cls-31" d="M91.63,255a1.51,1.51,0,0,1,1.63.82h0a1.5,1.5,0,0,1-1.63-.82Z"/><path class="cls-31" d="M115.72,268.88a1.51,1.51,0,0,1,1.63.81l0,0a1.5,1.5,0,0,1-1.63-.82Z"/><path class="cls-31" d="M120.62,271.73c.51,0,1.06,0,1.42.64-.72.24-1.1-.12-1.4-.66Z"/><path class="cls-31" d="M59.37,183c.24-.35.5-.55.85-.49.07,0,.18.22.15.28C60.12,183.22,59.71,183,59.37,183Z"/><path class="cls-31" d="M241.14,86c0-.35-.34-.87.18-1s.54.46.66.83Z"/><path class="cls-31" d="M376.8,6.23a1.43,1.43,0,0,1-.4.3.26.26,0,0,1-.36-.29.37.37,0,0,1,.38-.33C376.61,5.9,376.79,5.94,376.8,6.23Z"/><path class="cls-31" d="M197.95,110.77c-.19-.28-.32-.74,0-.84.63-.22.61.43.78.8Z"/><path class="cls-31" d="M183.55,119.44l0-1.25a1.16,1.16,0,0,1,.81.82A1.12,1.12,0,0,1,183.55,119.44Z"/><path class="cls-31" d="M101.14,261.06a.4.4,0,0,1-.12-.36c.7-.74.9,0,1.22.41l0,0Z"/><path class="cls-31" d="M487.43,185.23l-.14-.84c.26,0,.58,0,.67.22C488.11,185,487.74,185.13,487.43,185.23Z"/><path class="cls-31" d="M342,27.57c-.07-.25-.13-.59.12-.66s.52.27.69.54Z"/><path class="cls-31" d="M105.12,262.73a.88.88,0,0,1-.82-.4h0a.82.82,0,0,1,.82.41Z"/><path class="cls-31" d="M106.73,263.57a.92.92,0,0,1,.82.41v0a.84.84,0,0,1-.82-.41Z"/><path class="cls-31" d="M110,265.59a.92.92,0,0,1-.82-.41v0a.84.84,0,0,1,.82.41Z"/><path class="cls-31" d="M96.94,257.83a.85.85,0,0,1-.82-.41v0a.92.92,0,0,1,.82.41Z"/><path class="cls-31" d="M120.63,271.72a.93.93,0,0,1-.82-.41v0a.85.85,0,0,1,.82.41Z"/><path class="cls-31" d="M115.73,268.86a.89.89,0,0,1-.82-.4h0c.33,0,.65.06.82.41Z"/><path class="cls-31" d="M93.67,256.22a.84.84,0,0,1,.82.41v0a.91.91,0,0,1-.82-.41Z"/><path class="cls-31" d="M310.8,20.6l-.1.13s-.07-.1-.07-.15.06-.09.1-.13Z"/><path class="cls-31" d="M183.51,118.18c-.38-.12-.38-.47-.44-.77l.38-.09Z"/><path class="cls-31" d="M51.69,185.26l0,.15a.61.61,0,0,1-.18,0s0-.09,0-.14Z"/><path class="cls-31" d="M37.43,189.9a.61.61,0,0,1-.18,0s-.06-.13,0-.13S37.45,189.73,37.43,189.9Z"/><path class="cls-31" d="M74.89,245.18c-.34,0-.66,0-.82-.41h0a.82.82,0,0,1,.82.41Z"/><path class="cls-31" d="M78.16,247.22a.82.82,0,0,1-.82-.41h0c.34,0,.66,0,.81.41Z"/><path class="cls-31" d="M78.15,247.23a.76.76,0,0,1,.82.41h0a.77.77,0,0,1-.82-.41Z"/><path class="cls-31" d="M79,247.64a.81.81,0,0,1,.82.41h0c-.34,0-.66,0-.82-.41Z"/><path class="cls-31" d="M91.64,255a.93.93,0,0,1-.82-.41v0a.85.85,0,0,1,.82.41Z"/><path class="cls-31" d="M84.68,250.91a.83.83,0,0,1,.82.41h0c-.34,0-.66,0-.82-.41Z"/><path class="cls-31" d="M82.65,249.67c-.34,0-.66,0-.81-.41v0a.82.82,0,0,1,.81.41Z"/><path class="cls-31" d="M80.19,248.46a.75.75,0,0,1,.82.41h0a.81.81,0,0,1-.81-.41Z"/><path class="cls-31" d="M81.84,249.26a.76.76,0,0,1-.82-.41h0a.76.76,0,0,1,.82.41Z"/><polygon class="cls-31" points="18.31 278.54 18.27 278.43 18.39 278.45 18.31 278.54"/><path class="cls-31" d="M103.87,261.93l.41.41h0l-.41-.41Z"/><path class="cls-31" d="M85.5,251.31a.54.54,0,0,1,.41.41h0a.52.52,0,0,1-.41-.41Z"/><path class="cls-31" d="M88,252.94a.53.53,0,0,1-.41-.41l0,0a.52.52,0,0,1,.41.41Z"/><path class="cls-31" d="M93.68,256.2l-.41-.41h0l.41.41Z"/><path class="cls-31" d="M79.78,248a.52.52,0,0,1,.41.41h0a.53.53,0,0,1-.41-.41Z"/><path class="cls-31" d="M99,259.07l.41.41,0,0-.41-.41Z"/><path class="cls-31" d="M76.92,246.41a.52.52,0,0,1,.41.41h0a.53.53,0,0,1-.41-.41Z"/><path class="cls-31" d="M74.88,245.19a.53.53,0,0,1,.41.41h0a.51.51,0,0,1-.41-.41Z"/><path class="cls-31" d="M112.45,266.83l.41.41h0l-.41-.41Z"/><path class="cls-31" d="M83.06,250.08a.52.52,0,0,1-.41-.41h0a.54.54,0,0,1,.41.41Z"/><path class="cls-31" d="M114.49,268.06l.41.41h0l-.41-.41Z"/><path class="cls-31" d="M117.77,270.09l-.41-.41,0,0,.41.41Z"/><path class="cls-31" d="M8.32,206.8l.19.18s-.1,0-.12,0a.54.54,0,0,1-.06-.16Z"/><path class="cls-31" d="M97.36,258.24l-.41-.41h0l.41.41Z"/><polygon class="cls-31" points="17.53 277.97 17.58 278.09 17.45 278.07 17.53 277.97"/><path class="cls-31" d="M230.72,275.63a4.45,4.45,0,0,1-.21-2.11q0-29.17,0-58.34a3.11,3.11,0,0,1,1.78-3.22c7-3.9,13.88-8,20.81-12,.65-.37,1.27-.79,1.93-1.13s1.16-.09,1.18.75c0,.41,0,.82,0,1.22q0,29.27,0,58.54a2.64,2.64,0,0,1-1.48,2.75c-5,2.76-9.88,5.68-14.8,8.54-2.4,1.4-4.8,2.81-7.22,4.19A3.8,3.8,0,0,1,230.72,275.63Z"/></g></g></g></g></svg>