<svg xmlns="http://www.w3.org/2000/svg" xmlns:xlink="http://www.w3.org/1999/xlink" viewBox="0 0 496.09 328.01"><defs><style>.cls-1,.cls-18,.cls-40{fill:none;}.cls-2{fill:#1d1d1b;}.cls-3{isolation:isolate;}.cls-4{fill:#d6d3bd;}.cls-10,.cls-5,.cls-9{fill:#edecda;}.cls-17,.cls-6{fill:#c1beaa;}.cls-41,.cls-7{fill:#fff;}.cls-7{stroke:#edecda;}.cls-10,.cls-18,.cls-40,.cls-7,.cls-9{stroke-miterlimit:10;}.cls-8{fill:#efefef;}.cls-10,.cls-9{stroke:#d6d3bd;}.cls-10{stroke-width:0.5px;}.cls-11{fill:#fffffb;}.cls-12{fill:#f8f8e7;}.cls-13{fill:#bbbaad;}.cls-14{fill:#dcdccc;}.cls-15{fill:#e4e4d4;}.cls-16{opacity:0.3;fill:url(#_10_dpi_20_);}.cls-17{font-size:18.48px;font-family:LHLineSans-Thin, LH Line1 Sans;}.cls-18{stroke:#c1beaa;}.cls-19{opacity:0.7;mix-blend-mode:multiply;}.cls-20{fill:#a6a6a6;}.cls-21{fill:#a8a8a8;}.cls-22{fill:#a7a7a7;}.cls-23{fill:#a9a9a9;}.cls-24{fill:#ababab;}.cls-25{fill:#afafaf;}.cls-26{fill:#aeaeae;}.cls-27{fill:#b3b3b3;}.cls-28{fill:#b1b1b1;}.cls-29{fill:#c4c4c4;}.cls-30{fill:#c3c3c3;}.cls-31{fill:#bfbfbf;}.cls-32{fill:#b4b4b4;}.cls-33{fill:#c1c1c1;}.cls-34{fill:#bbb;}.cls-35{fill:#bebebe;}.cls-36{fill:#b5b5b5;}.cls-37{fill:#b6b6b6;}.cls-38{fill:#b8b8b8;}.cls-39{fill:#f4f4f4;}.cls-40{stroke:#fff;}</style><pattern id="_10_dpi_20_" data-name="10 dpi 20%" width="28.8" height="28.8" patternTransform="translate(-22.58 13.6) scale(0.75)" patternUnits="userSpaceOnUse" viewBox="0 0 28.8 28.8"><rect class="cls-1" width="28.8" height="28.8"/><circle class="cls-2" cx="28.8" cy="28.8" r="1.44"/><circle class="cls-2" cx="14.4" cy="28.8" r="1.44"/><circle class="cls-2" cx="28.8" cy="14.4" r="1.44"/><circle class="cls-2" cx="14.4" cy="14.4" r="1.44"/><circle class="cls-2" cx="7.2" cy="21.6" r="1.44"/><circle class="cls-2" cx="21.6" cy="21.6" r="1.44"/><circle class="cls-2" cx="7.2" cy="7.2" r="1.44"/><circle class="cls-2" cx="21.6" cy="7.2" r="1.44"/><circle class="cls-2" cy="28.8" r="1.44"/><circle class="cls-2" cy="14.4" r="1.44"/><circle class="cls-2" cx="28.8" r="1.44"/><circle class="cls-2" cx="14.4" r="1.44"/><circle class="cls-2" r="1.44"/></pattern></defs><title>parts_1</title><g class="cls-3"><g id="Layer_2" data-name="Layer 2"><g id="menu_bar" data-name="menu bar"><path class="cls-4" d="M239.93,203.82l1.2.69-1.2.69Zm0,0"/><path class="cls-5" d="M241,204.51l-1-.69v-1.39l1-.69v-15.8l4.3,2.49.7.42v-5l-.7-.42L241,181v-5l20,11.23v6.38l2,1.39v-1.39l2,1v3.95l0,.2h0v5.54h-.13l0,.22v.23l0,.23,0,.23,0,.24.06.24.07.24.08.24.08.24.09.24.1.24.11.24.11.23.12.23.13.23.13.23.14.22.15.22.15.21.16.21.16.2.17.19.17.19.17.18.18.17.18.16.18.15.18.14.18.13.18.13,13.22,7.63.18.13.18.13.18.14.18.15.18.16.18.17.17.18.17.19.17.19.16.2.16.21.15.21.15.22.14.22.13.23.13.23.12.23.11.23.11.24.1.24.09.24.08.24.08.24.07.24.06.24.05.24,0,.23,0,.23-.07.23-.08.22v5.54l.08.2,0,.2v.19l0,.18,0,.18-.06.17-.07.16-.08.15-.08.14-.09.13-.1.12-.11.11-.11.1-.12.09-.13.08-.13.07-.14.06-.15,0-.15,0-.16,0h-.5l-.17,0-.18,0-.18,0-.18-.06-.18-.07-.18-.08-.18-.09-13.22-7.63-.17-.08-.18-.08-.18-.07-.18-.06-.18,0-.18,0-.17,0h-.5l-.16,0-.15,0-.15,0-.14.06-.13.07-.13.08-.12.09-.11.1-.11.11-.1.12-.09.13-.08.14-.08.15-.07.16-.06.17-.05.18,0,.18,0,.19.08.2.09.2V232l-.09.22,0,.23v.23l0,.23,0,.24.06.24.07.24.08.24.08.24.09.24.1.24.11.24.11.23.12.23.13.23.13.23.14.22.15.22.15.21.16.21.16.2.17.19.17.19.17.18.18.17.18.16.18.15.18.14.18.13.18.13,13.2,7.63.18.13.18.13.18.14.18.15.18.16.18.17.17.18.17.19.17.19.16.2.16.21.15.21.15.22.14.22.13.23.13.23.12.23.11.23.11.24.1.24.09.24.08.24.08.24.07.24.06.24.05.24,0,.23,0,.23-.07.23-.08.22v5.54l.08.2,0,.2v.19l0,.18,0,.18-.06.17-.07.16-.08.15-.08.14-.09.13-.1.12-.11.11-.11.1-.12.09-.13.08-.13.07-.14.06-.15,0-.15,0-.16,0h-.5l-.17,0-.18,0-.18,0-.18-.06-.18-.07-.18-.08-.18-.09-11.88-6.87-.39-.21-.24-.13-.24-.12-.24-.1-.23-.08-.23-.07-.23-.05-.22,0-.22,0H267l-.2,0-.2,0-.19.06-.18.07-.17.09-.16.1-.15.12-.14.13-.13.15-.12.16-.11.18-.1.19-.09.2-.08.21-.07.22-.06.23,0,.24,0,.25.09.26.1.27v8.62l-2-1v-1.39l-2-1.39v6.38l-24-13.72,4.22-2.49,4.18,2.5.58.42v-5l-.7-.42-4.3-2.5V238h0v-8.56l-1-.69v-1.39l1-.7,1,.7v-2.77l-1-.69V207.29l1,.69v-2.77Zm.13,0"/><path class="cls-6" d="M241,238h0v12.22l-4.25,2.49-5.49,3.19-4.3,2.49-4.31,2.49-5.52,3.19-13.2,7.62-4.32,2.49-4.32,2.49-32,18.57L137,310.54v-69.3l94-54.61V188l3-1.39v-6.38l7-4.3v25.78l-1,.69v2.77l1-.69,1,.69v1.39l-1,.69v16.63l1,.69V226l-1,.69-1,.7v2.77l1-.69Zm.13,0"/><path class="cls-4" d="M241.14,226.69l1.19-.69v1.39Zm0,0"/><path class="cls-4" d="M231,188v-1.39l-3-1.8,1.27-.69,4.21,2.49Zm.29,0"/><path class="cls-4" d="M241.13,229.46l-1.2.69v-1.39Zm0,0"/><path class="cls-5" d="M234,180.26v6.38l-5-2.49v-6.38Zm-.31,0"/><path class="cls-4" d="M241.13,176l-7.44,4.3-4.32-2.49,2.4-1.39.72-.42,4.32-2.49Zm0,0"/><path class="cls-4" d="M231.29,186.64l-94.58,54.61-4.32-2.49,2.85-1.64,0,0,35.53-20.51L203,198l7.68-4.44,2.64-1.52.72-.42,13-7.48,1.2.69Zm0,0"/><path class="cls-5" d="M229,184.14l-1,.69-1.11-.69L214,191.63l-2.8-1.73-.16-.21v3.88L203,198V158.92l12,6.93v1.39l2,1.39v-6.38l19.63,11.23L232.51,176l-.51-.42v.83l-3,1.39Zm-20.54-8.35-.14-.48-.23-.48-.3-.44-.35-.37-.37-.27-.37-.16-.35,0-.3.09-.23.21-.14.32,0,.4,0,.46.14.48.23.48.3.44.35.37.37.27.37.16.35,0,.3-.09.23-.21.14-.32,0-.4Zm0,0"/><path class="cls-5" d="M211,193.57v-3l2.64,1.52Zm-.35,0"/><path class="cls-4" d="M213.29,192l-2.64-1.52.36-.62,3,1.73Zm0,0"/><path class="cls-6" d="M211,189.89l-.36.62v-.83Zm0,0"/><path class="cls-4" d="M241.13,176l-4.32-2.5-19.44-11.23,4.32-2.49L264.9,184.7l-4.32,2.49Zm0,0"/><path class="cls-4" d="M132.39,238.75l4.32,2.49L132.15,244,130,242.63v-2.22l1.18-.82h-.11Zm0,0"/><path class="cls-6" d="M137,302.23v8.32l-5,2.77v-1.39l-1,.69-1,.69v6.38L115,328V314.7Zm-.29,0"/><path class="cls-6" d="M137,302.23,115,314.7V262l22-12.47Zm-.29,0"/><path class="cls-5" d="M131.91,311.93v1.39l-1.2-.69Zm0,0"/><path class="cls-4" d="M119.19,151.29l7.44-4.3,4.32,2.49,4.32,2.49,13.68,7.9-1.2.69,1.2.69,1.2.69,1.2-.69,19.2,11.09-1.2.69,2.4,1.39,1.2-.69,13.68,7.9,4.32,2.49L86.54,244.43l-7.2-4.16L33.72,213.94l-7.2-4.16,92.66-53.5,1.92-1.11,1.2.69,2.4-1.39Zm0,0"/><path class="cls-6" d="M171.78,174.44l-2.41-1.39,1.19-.69,1.22-.69,1.22.69v1.39Zm0,0"/><path class="cls-5" d="M122.31,155.87l-1.29-.69-2,1.11v-5l5.61,3.19Zm0,0"/><path class="cls-6" d="M147.75,160.58l1.2-.69v1.39Zm0,0"/><path class="cls-6" d="M151,161.27l-1,.69-1-.69V158.5l2,1.39Zm.35,0"/><path class="cls-6" d="M87,244.43l104-60.29v5l-4.34,2.49-29.54,17-30.26,17.6L87,249.42Zm-.46,0"/><path class="cls-6" d="M87,244.43v5l-3,1.66L82,250V247.2Zm-.46,0"/><path class="cls-5" d="M191,189.13v-5l0-5v-.83L187,176l-.36-.21v.83l0,5L173,173.75v-1.39l-1-.69-1-.69v1.39l-20-11.09v-1.39l-2-1.39v1.39L135,152v-5l.13-.83-3.89-2.29-.33-.21,0,.83.19,5L127,147V124.54l5,3.19V125l-1-.69V110.41l28,16.08v37.37l4,2.49V129l28,16.08v8.32l2,1.39v-1.39l10,5.54V198l-32.19,18.57-13.51-7.9,29.7-17v.83l4.14,2.49-.07-.83Zm0,0"/><path class="cls-4" d="M79.34,240.27l7.2,4.16-4.8,2.77-1.2-.69-2.4,1.39,2.4,1.39,1.2.69,1.92,1.11-14.4,8.32-11.52-6.65Zm0,0"/><path class="cls-4" d="M79.34,240.27,57.73,252.75,12.12,226.41l21.61-12.47Zm0,0"/><path class="cls-5" d="M82,247.2V250l-1-.69v-2.77Zm-.26,0"/><path class="cls-6" d="M81,246.51v2.77l-2.4-1.39Zm-.46,0"/><path class="cls-6" d="M69,259.4l15-8.32v5l-15,8.32Zm.25,0"/><path class="cls-4" d="M15,211.44l5.52,3.19,1.2-.69,1.2-.69-1.2-.69,4.8-2.77,7.2,4.16L12.12,226.41.6,219.76Zm0,0"/><path class="cls-5" d="M21.72,213.94v-1.39l1.2.69Zm0,0"/><path class="cls-7" d="M.5,219.76l11.69,6.65,57.31,33v5L.5,224.75Zm.1,0"/><path class="cls-5" d="M130,242.63l2,1.39v1.39L130,244Zm-.49,0"/><path class="cls-4" d="M130,244l2.4,1.39-2.4,1.39Zm-.49,0"/><path class="cls-6" d="M130,246.79l2-1.39V244l5-2.77v8.32L115,262V248.73l15-8.32v6.38Zm-.49,0"/><path class="cls-4" d="M129.51,240.41l-14.4,8.32-4.32-2.49,14.4-8.32,1.44.83Zm0,0"/><path class="cls-7" d="M115.5,248.73v66l-5-2.49v-66Zm-.4,0"/><path class="cls-5" d="M115,314.7V328l-4-2.49V312.21Zm.1,0"/><path class="cls-4" d="M131,124.27l1,.69v2.77l-5.42-3.19L131,122Zm-.05,0"/><path class="cls-6" d="M170.56,172.36V171l1.2.69Zm0,0"/><path class="cls-5" d="M157.3,208.67l13.45,7.9L135,237.08v-6.93l.08,0,.06-.83L131.27,227l-.4-.24.06,12.79-1.24.82L127,238.75V226.27Zm-.19,0"/><path class="cls-4" d="M203,158.92l-9.6-5.54,3.12-1.8,1.2-.69,9.6,5.54Zm0,0"/><path class="cls-6" d="M191,153.37v-8.32l4-2.49v8.32Zm0,0"/><path class="cls-4" d="M163,166.35l-4.32-2.49,4.32-2.49Zm.12,0"/><path class="cls-6" d="M159,163.85V126.48l4,2.49v32.38Zm-.21,0"/><path class="cls-4" d="M193,153.37v1.39l-2.22-1.39,4.41-2.49,1.06.69Zm.36,0"/><path class="cls-6" d="M195,150.88v-8.32l5-2.49v8.32Zm.28,0"/><path class="cls-4" d="M207.29,156.42l-9.6-5.54,3.12-1.8,1.2-.69,9.6,5.54Zm0,0"/><path class="cls-4" d="M196.48,151.57l-1.2-.69,4.32-2.49,1.2.69-3.12,1.8Zm0,0"/><path class="cls-4" d="M203,158.92l4.14-2.49,9.9,5.82v2.22l-2.22,1.39Zm0,0"/><path class="cls-5" d="M163.13,129l-4.3-2.49L131,110.41V96.55l1,.69V94.47l-5-3.19V41.39l5,3.19V41.8l-1-.69V27.25L191,61.9V75.76l-1-.69v2.77L195,81v49.9l-1.78-1.11-1-.69L190,127.73v2.77l1,.69v13.86ZM131,77.14l4,2.49V63.84l.08,0,.06-.83-3.87-2.25-.38-.24.1,15.84Zm55.64,32.15,4.34,2.49,0-.83V96l-.08,0v-.83L187,92.87l-.42-.24.06,15.84Zm0,0"/><path class="cls-6" d="M195,142.56l-4,2.49V131.2l2.24-1.39,1.76,1.11Zm.28,0"/><path class="cls-4" d="M191,195l-4.32-2.49.72-.42,3.6,2.08Zm0,0"/><path class="cls-6" d="M186.64,192.46v-.83l.72.42Zm0,0"/><path class="cls-4" d="M131,41.11l1,.69v2.77l-5.42-3.19L131,38.89Zm-.05,0"/><path class="cls-4" d="M132.15,97.24l-1.2-.69,1.2-.69Zm0,0"/><path class="cls-6" d="M190,130.5v-2.77l2.4,1.39Zm-.24,0"/><path class="cls-4" d="M191,131.2l-1.2-.69,2.4-1.39,1.2.69Zm0,0"/><path class="cls-6" d="M191,75.76V61.9l4-2.49V73.26L194,74Zm0,0"/><path class="cls-6" d="M190,75.06l1,.69,3-1.8v1.39l-4,2.49Zm-.24,0"/><path class="cls-4" d="M195.28,81l-5.52-3.19,4.32-2.49,5.52,3.19Zm0,0"/><path class="cls-6" d="M195,130.92V81l5-2.49v49.89Zm.28,0"/><path class="cls-6" d="M195,142.56V130.92l5-2.49v11.64Zm.28,0"/><path class="cls-6" d="M200,128.42V78.53L204,76v49.9Zm-.4,0"/><path class="cls-4" d="M199.6,78.53l-5.52-3.19,4.32-2.49,1.2.69L203.93,76Zm0,0"/><path class="cls-6" d="M194,75.34V74l1-.69,3-1.8v1.39Zm.08,0"/><path class="cls-7" d="M195.28,59.4,191,61.9l-60-34.65,4.32-2.49,4.32,2.5L191,56.91Zm0,0"/><path class="cls-6" d="M195,308.88l-4,2.49V297.51l2.24-1.39,1.76,1.11v11.64Zm.28,0"/><path class="cls-5" d="M191,297.51v13.86L163,295.3l32-18.57v20.51l-1.78-1.11-1-.69L190,294v2.77Zm0,0"/><path class="cls-6" d="M190,296.82V294l2.4,1.39Zm-.24,0"/><path class="cls-4" d="M191,297.51l-1.2-.69,2.4-1.39,1.2.69Zm0,0"/><path class="cls-6" d="M195,297.24V276.72l5-2.49v20.51Zm.28,0"/><path class="cls-6" d="M200,294.74V274.23l4-2.49v20.51Zm-.4,0"/><path class="cls-6" d="M195,297.24l5-2.49v.55l-1.4.69-1.44.69L195,297.79Zm.28,0"/><path class="cls-6" d="M131,239.59l-.06-12.79.44.24-.34.62v11.92Zm0,0"/><path class="cls-5" d="M284.19,232.09l.12-.09.11-.1.11-.11.1-.12.09-.13.08-.14.08-.15.07-.16.06-.17.05-.18,0-.18,0-.19-.07-.2-.08-.2v-5.54l.08-.22,0-.23v-.23l0-.23,0-.24L285,223l-.07-.24-.08-.24-.08-.24-.09-.24-.1-.24-.11-.24-.11-.23-.12-.23-.13-.23-.13-.23-.14-.22-.15-.22-.15-.21-.16-.21-.16-.2-.17-.19-.17-.19-.17-.18-.18-.17-.18-.16-.18-.15-.18-.14-.18-.13-.18-.13-13.22-7.63-.18-.13-.18-.13-.18-.14-.18-.15-.18-.16-.18-.17-.17-.18-.17-.19-.17-.19-.16-.2-.16-.21-.15-.21-.15-.22L266,208l-.13-.23-.13-.23-.12-.23-.11-.23-.11-.24-.1-.24-.09-.24-.08-.24-.08-.24-.07-.24-.06-.24-.05-.24,0-.23,0-.23,0-.23.09-.22H265v-5.54h0l0-.2v-3.95l3.48,2.07L287,207.43v1.39l2,1.39V206l.4-2.22L333,228.77v6.38l2,1.39v-1.39l12,6.93v69.3l-10.08-5.82L335,304.45v-1.39l-2-1.39v6.38L289,283.1v-6.38l-1-.69-1-.69v1.39L265,264l0-.07v-8.62l-.1-.27,0-.26v-.25l0-.24,0-.23.06-.22.08-.21.09-.2.1-.19.11-.18.12-.16.13-.15.14-.13.15-.12.16-.1.17-.09.18-.07.19-.06.2,0,.2,0h.42l.22,0,.22,0,.23.05.23.07.23.08.24.1.24.12.24.13.39.21,11.88,6.87.18.09.18.08.18.07.18.06.18,0,.18,0,.17,0h.5l.16,0,.15,0,.15,0,.14-.06.13-.07.13-.08.12-.09.11-.1.11-.11.1-.12.09-.13.08-.14.08-.15.07-.16.06-.17.05-.18,0-.18,0-.19-.07-.2-.08-.2v-5.54l.08-.22,0-.23v-.23l0-.23,0-.24-.06-.24-.07-.24-.08-.24-.08-.24-.09-.24-.1-.24-.11-.24-.11-.23-.12-.23-.13-.23-.13-.23-.14-.22-.15-.22-.15-.21-.16-.21-.16-.2-.17-.19-.17-.19-.17-.18-.18-.17-.18-.16-.18-.15-.18-.14-.18-.13-.18-.13-13.2-7.63-.18-.13L268,238l-.18-.14-.18-.15-.18-.16-.18-.17-.17-.18L267,237l-.17-.19-.16-.2-.16-.21-.15-.21-.15-.22-.14-.22-.13-.23-.13-.23-.12-.23-.11-.23-.11-.24-.1-.24-.09-.24-.08-.24-.08-.24-.07-.24-.06-.24-.05-.24,0-.23,0-.23.08-.23L265,232v-5.54l-.09-.2,0-.2v-.19l0-.18,0-.18.06-.17.07-.16.08-.15.08-.14.09-.13.1-.12.11-.11.11-.1.12-.09.13-.08.13-.07.14-.06.15,0,.15,0,.16,0h.5l.17,0,.18,0,.18,0,.18.06.18.07.18.08.17.08L281.58,232l.18.09.18.08.18.07.18.06.18,0,.18,0,.17,0h.5l.16,0,.15,0,.15,0,.14-.06.13-.07Zm-15.83-35.41-.18-.09-.18-.08-.18-.07-.18-.06-.18,0h0l1,.55Zm36.25,25.86L317.43,230l.57.42v-5l-.62-.42-12.81-7.48-.57-.41v5ZM304,281.44v5l.61.41,12.81,7.48.57.42v-5l-.62-.42-12.81-7.48Zm-.21,0"/><path class="cls-6" d="M261,193.57v-6.38l4-2.49v6.38Zm-.42,0"/><path class="cls-4" d="M263,193.57V195l-2.41-1.39,4.32-2.49,1.21.69Zm0,0"/><path class="cls-4" d="M264.78,194.61l-1.8-1,3.12-1.8,1.2-.69,1.8,1Zm0,0"/><path class="cls-6" d="M261,260.09l2,1.39v1.39l1.79,1,.33.07L261,266.47Zm-.42,0"/><path class="cls-4" d="M217,168.62l-2.4-1.39,2.4-1.39Zm.37,0"/><path class="cls-6" d="M215,167.23v-1.39l2-1.39v1.39Zm0,0"/><path class="cls-6" d="M231.77,176.38v-.83l.72.42Zm0,0"/><path class="cls-4" d="M269.1,192.11l-1.8-1,3.12-1.8,1.2-.69L274,190l-2.4,1.39-1.92,1.11Zm0,0"/><path class="cls-4" d="M266.1,191.76l-1.2-.69,4.32-2.49,1.2.69-3.12,1.8Zm0,0"/><path class="cls-6" d="M265,191.07V184.7l4-2.5v6.38Zm-.1,0"/><path class="cls-4" d="M264.9,184.7l-43.21-24.95,4.32-2.49,43.21,24.95Zm0,0"/><path class="cls-4" d="M217.37,162.24l-10.08-5.82,4.32-2.49,10.08,5.82Zm0,0"/><path class="cls-4" d="M264.78,194.61l4.32-2.49.6.35,9.6,5.54,10.08,5.82V206l-2.4,1.39-18.62-10.75Zm0,0"/><path class="cls-4" d="M242.33,208l-1.2-.69,1.2-.69Zm0,0"/><path class="cls-8" d="M267.46,196.35l.18,0,.18.06.18.07.18.08.18.09v.21l-1-.55Zm0,0"/><path class="cls-6" d="M227,124.27v8.32l-4,2.49v-8.32Zm0,0"/><path class="cls-6" d="M223,126.76v8.32l-3.46,1.8-1.54-.69v-6.93Zm-.35,0"/><path class="cls-4" d="M229.37,132.58l9.6,5.54-4.32,2.49-9.6-5.54,3.12-1.8Zm0,0"/><path class="cls-4" d="M225.05,135.08l9.6,5.54-4.32,2.49-9.6-5.54,3.12-1.8Zm0,0"/><path class="cls-4" d="M227,132.58l1.2.69-3.12,1.8-1.2.69-1.2-.69Zm0,0"/><path class="cls-4" d="M222.65,135.08l1.2.69-3.12,1.8-1.2-.69Zm0,0"/><path class="cls-4" d="M234.65,140.62l4.32-2.49,10.08,5.82-4.32,2.49Zm0,0"/><path class="cls-6" d="M227,124.27l-4,2.49V115.12l4-2.5Zm0,0"/><path class="cls-6" d="M223,115.12v11.64l-5,2.5V115.4l2.74-1.39Zm-.35,0"/><path class="cls-6" d="M231,60.23v49.9l-4,2.49V62.73Zm.29,0"/><path class="cls-6" d="M227,62.73v49.9l-4,2.5V65.22Zm0,0"/><path class="cls-4" d="M225.77,57l5.52,3.19L227,62.73l-5.52-3.19Zm0,0"/><path class="cls-4" d="M221.45,59.54,227,62.73l-4.32,2.5-4.32-2.49V61.34Zm0,0"/><path class="cls-6" d="M226,55.66V57l-5,2.49V58.16l1.54-.69Zm-.23,0"/><path class="cls-6" d="M221,58.16v1.39l-2.9,1.8L218,60Zm.45,0"/><path class="cls-6" d="M227,41.11V55l-1,.69-3,1.8V43.6Zm0,0"/><path class="cls-7" d="M227,41.11l-4.32,2.49-4.32-2.49L167,11.45,162.64,9,167,6.46Zm0,0"/><path class="cls-7" d="M162.64,9l4.32,2.5-27.36,15.8-4.32-2.5Zm0,0"/><path class="cls-8" d="M139.59,27.25,167,11.45l51.37,29.66L191,56.91Zm0,0"/><path class="cls-7" d="M191,56.91l27.37-15.8,4.32,2.49L195.28,59.4Zm0,0"/><path class="cls-6" d="M227,290.58l-4,2.49V281.44l4-2.5Zm0,0"/><path class="cls-6" d="M231,255.93v20.51l-4,2.49V258.43Zm.29,0"/><path class="cls-6" d="M227,258.43v20.51l-4,2.5V260.92Zm0,0"/><path class="cls-4" d="M234.79,140.62,245,146.44v2.22L242.47,150l-12-6.93Zm-.13,0"/><path class="cls-4" d="M299,172.78l1.8,1-4.32,2.49-1.8-1,3.12-1.8Zm0,0"/><path class="cls-4" d="M294.67,175.27l1.8,1,.6.35-1.92,1.11-2.4,1.39-2.4-1.39,3.12-1.8Zm0,0"/><path class="cls-4" d="M296.59,172.78l1.2.69-3.12,1.8-1.2.69-1.2-.69Zm0,0"/><path class="cls-4" d="M292.27,175.27l1.2.69-3.12,1.8-1.2-.69Zm0,0"/><path class="cls-6" d="M297,166.4v6.38l-5,2.49V168.9Zm-.41,0"/><path class="cls-6" d="M292,168.9v6.38l-3,1.8-1-.69v-5Zm.27,0"/><path class="cls-4" d="M253.38,141.45l43.21,24.95-4.32,2.49-43.21-24.95Zm0,0"/><path class="cls-4" d="M249.06,143.95l43.21,24.95-4.32,2.49-43.21-24.95Zm0,0"/><path class="cls-4" d="M296.47,176.31l4.28-2.49L321,185.53v2.22l-2.36,1.39-12-6.93-9.59-5.54Zm0,0"/><path class="cls-6" d="M218,115.4v13.86l-18,10.81V128.42l4-2.49V76l-4.16-2.49.16-2.77V66.61l-1.5.69L197,68v1.39l-2,1.11V59.4l28-15.8V54.69l-2,1.11V54.42l-1.34.69-1.43.69L218,57.19V60l.16,1.39.08,1.39,0,13.86-1.22.69v2.77l1-.69V96l-1,.69v2.77l1.26-.69,0,13.86-.15,1.39Zm.33,0"/><path class="cls-5" d="M218.5,62.73l4.5,2.49v49.9L220.9,114l-1.29-.69-1.24-.69,0-13.86-.27-.12L217,98.07V96.69l1-.69V79.36l-1-.69V77.28l1.35-.69Zm-.17,0"/><path class="cls-4" d="M217.13,98.07l1,.58.2.12-1.2.69Zm0,0"/><path class="cls-4" d="M220.73,114l-2.4,1.39V114l1.2-.69Zm0,0"/><path class="cls-6" d="M219.53,113.32l-1.2.69v-1.39Zm0,0"/><path class="cls-4" d="M217.13,78.67l1.2.69-1.2.69Zm0,0"/><path class="cls-6" d="M218,60V57.19l2.74-1.38L223,54.69v2.77l-1.54.69Zm.33,0"/><path class="cls-5" d="M223,260.92v20.51l-2.1-1.11-1.29-.69-1.24-.69,0-13.86-.28-.12-1.07-.58v-.28Zm-.35,0"/><path class="cls-4" d="M217.13,264.39l1,.58.2.12-1.2.69Zm0,0"/><path class="cls-6" d="M223,281.44V282l-2.09,1.11-1.29.69-1.25.69,0-2.77,2.56-1.38Zm-.35,0"/><path class="cls-4" d="M220.56,280.33,218,281.71v-1.39l1.28-.69Zm.17,0"/><path class="cls-6" d="M219.53,279.64l-1.2.69v-1.38Zm0,0"/><path class="cls-6" d="M218,281.71l.16,2.77.22,1.39,2.62-1.39V283.1l2-1.11v11.09l-28,15.8V297.79l2-1.11v1.39l2.7-1.39.3-1.39v-.55l4-2.49V271.73l13-7.62v1.66l1.27-.69-.13,13.86-.13,1.38Zm.33,0"/><path class="cls-4" d="M220.73,137.57l9.6,5.54-18.72,10.81-9.6-5.54L199.6,147l18.72-10.81,1.2.69Zm0,0"/><path class="cls-6" d="M218,129.26v6.93L200,147v-6.93Zm.33,0"/><path class="cls-5" d="M288,171.39v5l-12-6.93-1,.69-1-.69v-1.39l-14.63-8.32-1.18.69-1.18-.69v-1.39l-12-6.93v-5Zm-.05,0"/><path class="cls-4" d="M230.33,143.12l12,6.93,1.2.69,1.2.69,12,6.93-1.2.69,1.2.69,1.2.69,1.2-.69,14.4,8.32-1.2.69,1.2.69,1.2.69,1.2-.69,12,6.93,1.2.69,1.2.69,2.4,1.39,1.2.69,1.2-.69,1.2-.69-1.2-.69,1.92-1.11,9.6,5.54L279.3,198l-9.6-5.54,1.92-1.11,1.2.69,1.2-.69,1.2-.69L274,190l-2.51-1.39L269,187.19v-5l-43.1-24.95-4.27,2.49-10.05-5.82Zm0,0"/><path class="cls-6" d="M242.47,150l2.53-1.39V150l-1.27.69Zm-.13,0"/><path class="cls-4" d="M243.54,150.74l1.2-.69v1.39Zm0,0"/><path class="cls-6" d="M273.54,168.06v1.39l-1.2-.69Zm0,0"/><path class="cls-6" d="M383,285.6v5l-4,2.49v-5Zm0,0"/><path class="cls-6" d="M383,280.61v5l-4,2.49v-5Zm0,0"/><path class="cls-5" d="M379,283.1v5l-26.72-15.25-1.28.55V244.57l28-15.8V283.1Zm-.31,0"/><path class="cls-6" d="M379,233.76v-5l4-2.49v5Zm-.31,0"/><path class="cls-4" d="M371,214.36l12,6.93-4.32,2.49-12-6.93,3.12-1.8Zm0,0"/><path class="cls-4" d="M366.69,216.85l12,6.93-27.37,15.8-12-6.93L337,231.26v-5l-43.25-24.95-4.34,2.49L279.31,198l27.36-15.8,12,6.93,1.2.69,1.2.69,12,6.93-1.2.69,1.2.69,1.2.69,1.2-.69,14.4,8.31-1.2.69,1.2.69,1.2.69,1.2-.69,12,6.93,1.2.7Zm0,0"/><path class="cls-4" d="M368.61,214.36l1.2.69-3.12,1.8-1.2-.69Zm0,0"/><path class="cls-6" d="M369,208v6.38l-3.46,1.8-1.54-.7v-5Zm-.39,0"/><path class="cls-5" d="M364,210.48v5l-11.86-6.93-1.07.69-1.07-.69v-1.39l-14.46-8.31-1.27.69-1.27-.69v-1.39l-12-6.93v-5Zm.29,0"/><path class="cls-6" d="M333.08,197.68v1.15l-1.2-.69,1.2-.69Zm0,0"/><path class="cls-4" d="M364.29,210.48l-43.21-24.95L325.4,183,368.61,208Zm0,0"/><path class="cls-6" d="M349.88,207.15v1.39l-1.2-.69Zm0,0"/><path class="cls-6" d="M318.64,189.13l2.36-1.39v1.39l-1.18.69Zm0,0"/><path class="cls-4" d="M319.88,189.82l1.2-.69v1.38Zm0,0"/><path class="cls-5" d="M135,230.16v6.93l.1,0-.09-7Zm.27,0"/><path class="cls-4" d="M130.95,227.66l.36-.62,3.9,2.25v.83Zm0,0"/><path class="cls-9" d="M130.5,239.58V227.66l4.49,2.46.14,7-3,1.64Zm.45,0"/><path class="cls-9" d="M135.5,147v5l-4.44-2.49.06-5Zm-.23,0"/><path class="cls-4" d="M135.27,147l-4.32-2.49.36-.62,4,2.29Zm0,0"/><path class="cls-6" d="M131.31,143.88l-.36.62v-.83Zm0,0"/><path class="cls-5" d="M198,72.85V71.46l1.4-.69-.1,2.77Zm.4,0"/><path class="cls-6" d="M195,73.26V70.49l2.26-1.11L200,68v2.77l-1.54.69Zm.28,0"/><path class="cls-5" d="M201,149.08l-1-.69V147l2.3,1.39Zm-.2,0"/><path class="cls-5" d="M270.31,189.27l-1.31-.69v-1.39l2.46,1.39Zm.11,0"/><path class="cls-9" d="M245.5,188.44l-4-2.49v-5l4,2.5Zm0,0"/><path class="cls-6" d="M272.81,192l-1.21-.69L274,190v1.39Zm0,0"/><path class="cls-5" d="M274,191.35V190l1.2.69Zm0,0"/><path class="cls-6" d="M255.54,159.05l1.2-.69v1.39Zm0,0"/><path class="cls-6" d="M293.87,179.84l-1.24-.69,2.36-1.39v1.39Zm.07,0"/><path class="cls-5" d="M295.15,177.77l1.2.69-1.2.69Zm0,0"/><path class="cls-5" d="M245,188.28v-4.83l1,.42v4.42Zm.46.16"/><path class="cls-4" d="M245.46,188.44h.72v.42Zm0,0"/><path class="cls-6" d="M351,239.58v5l-4,2.5v-5Zm.32,0"/><path class="cls-4" d="M218.33,285.87v-1.39l1.2-.69,1.2.69Zm0,0"/><path class="cls-4" d="M199.5,296.68l-2.5,1.39v-1.39l1.25-.69Zm.1,0"/><path class="cls-5" d="M220.73,283.1v1.39l-1.2-.69Zm0,0"/><path class="cls-5" d="M199.6,295.3v1.39l-1.2-.69Zm0,0"/><path class="cls-10" d="M191,194.12l-3.6-2.08-.72-.42,4.32-2.49Zm0,0"/><path class="cls-10" d="M186.64,181.65v-5l4.32,2.49v5Zm0,0"/><path class="cls-4" d="M191,179.15l-4.32-2.49L187,176l4,2.29Zm0,0"/><path class="cls-6" d="M187,176l-.36.62v-.83Zm0,0"/><path class="cls-6" d="M333,235.15v-6.38l4-2.49v6.38Zm-.4,0"/><path class="cls-6" d="M347,252.06v-5l4-2.5v5Zm0,0"/><path class="cls-6" d="M347,306.39v-5l4-2.49v5Zm0,0"/><path class="cls-4" d="M347,242.08l-12-6.93,3.12-1.8,1.2-.69,12,6.93Zm0,0"/><path class="cls-6" d="M287,208.81v-1.39l2-1.39v1.39Zm0,0"/><path class="cls-4" d="M335,235.15v1.39l-2.4-1.39,4.32-2.49,1.2.69Zm0,0"/><path class="cls-6" d="M335,303.06v1.39l2.12,1.11L333,308.05v-6.38Zm0,0"/><path class="cls-4" d="M332.6,228.77l-43.21-24.95,4.32-2.49,43.21,24.95Zm0,0"/><path class="cls-6" d="M347,311.38v-5l4-2.49v5Zm0,0"/><path class="cls-6" d="M287,276.73v-1.39l1.2.69Zm0,0"/><path class="cls-4" d="M289,210.2l-2.4-1.39,2.4-1.39Zm.39,0"/><path class="cls-4" d="M351,303.89V273.4l1.12-.55,26.33,15.25Zm.32,0"/><path class="cls-5" d="M338.16,233.35l-1.16-.69v-1.39l2.38,1.39Zm0,0"/><path class="cls-5" d="M199.6,66.61V68l-1.2-.69Zm0,0"/><path class="cls-4" d="M198.3,67.3l1.15.69L197,69.38V68Zm.1,0"/><path class="cls-5" d="M220.73,54.42V55.8l-1.2-.69Zm0,0"/><path class="cls-4" d="M218.33,57.19V55.8l1.2-.69,1.2.69Zm0,0"/><path class="cls-9" d="M245.5,252.75l-4-2.5v-5l4,2.5Zm0,0"/><path class="cls-5" d="M245,252.28v-4.52l1,.42v4.11Zm.46.47"/><path class="cls-4" d="M245.46,252.75h.72v.42Zm0,0"/><path class="cls-5" d="M367,140.26v-1.39l3-1.39v7.76l-5-2.49v-1.39Zm.31,0"/><path class="cls-4" d="M369.56,145.25,367,146.64v-1.39l-3-1.8,1.2-.69Zm.15,0"/><path class="cls-5" d="M361,149.13v1.39l-3-1.39v-1.39Zm-.41,0"/><path class="cls-4" d="M360.4,150.52,358,151.9v-2.77Zm.19,0"/><path class="cls-4" d="M367.31,145.25l-6.82,3.88L358,147.75v-2.22l2.49-1.39,2.45-1.39,1.22.69Zm0,0"/><path class="cls-5" d="M360.59,142.76v1.39l-1.2-.69Zm0,0"/><path class="cls-4" d="M365,141.37v1.39l-1,.69-1.3-.69Zm.39,0"/><path class="cls-4" d="M360.49,144.14,358,145.53v-1.39l1.25-.69Zm.09,0"/><path class="cls-6" d="M371,154.54v-2.77l-2.45,1.39-1.22.69L365.45,155,353,162.16V140l18-10.39v-2.77l-1,.69V101.73l7-4.3v6.38l3-1.39V101l94-54.61v69.3L370,176V155.23Zm-4-15.66v1.39l-1.77,1.11-2.12,1.39L361,144.14v-1.39l-1.5.69-1.5.69v7.76l3-1.39v-1.39l6-3.88v1.39l3-1.39v-7.76Zm.31,0"/><path class="cls-5" d="M371,151.76v2.77l-2.4-1.39Zm-.09,0"/><path class="cls-5" d="M371,126.82v2.77l-4-2.49v-1.39l3,1.8Zm-.09,0"/><path class="cls-5" d="M380,101v1.39L377,101V99.65Zm-.45,0"/><path class="cls-5" d="M353,140v22.18l-4-2.49V137.49Zm-.09,0"/><path class="cls-4" d="M370.91,154.54l-1.2.69-2.4-1.39,1.2-.69Zm0,0"/><path class="cls-5" d="M370,101.73v25.78l-3.46-1.8L365,125V99.24Zm-.29,0"/><path class="cls-4" d="M379.4,102.42l-2.4,1.39V101Zm.15,0"/><path class="cls-4" d="M370.91,129.59l-18,10.39-4.32-2.49,18-10.39Zm0,0"/><path class="cls-4" d="M377.15,97.43l-7.44,4.3-4.32-2.49,7.44-4.3Zm0,0"/><path class="cls-5" d="M370,155.23V176l-5-2.49V155l2.26-1.11Zm-.29,0"/><path class="cls-4" d="M474.14,46.43,379.48,101,377,99.65V97.43l92.74-53.5Zm0,0"/><path class="cls-4" d="M474.14,46.43l-4.32-2.49,4.8-2.77,1.2.69,3.12,1.8Zm0,0"/><path class="cls-6" d="M474,115.73v-8.32l22-12.47v13.31l-15,8.32v-6.38l-2,1.39V113l-2,1.11Zm.14,0"/><path class="cls-6" d="M496,94.94l-22,12.47V54.75l22-12.47Zm-.26,0"/><path class="cls-5" d="M479,113v-1.39l2-1.39v6.38l-4.12-2.49Zm-.06,0"/><path class="cls-4" d="M475.85,41.86l1.18-.69,4.34,2.49L479,45V43.66Zm0,0"/><path class="cls-6" d="M479,45l2-1.39V37.28L496,29V42.27L474,54.75V46.43l5-2.77Zm-.06,0"/><path class="cls-5" d="M481,43.66l-4-2.49V34.79l4,2.49Zm.34,0"/><path class="cls-4" d="M481.34,37.28,477,34.79l14.4-8.32L495.74,29Zm0,0"/><path class="cls-4" d="M300.33,97.43l-18,10.39-19.2-11.09,12.48-7.21,1.92-1.11,1.2-.69,2.4-1.39L278.73,85l-1.2.69L255.2,72.76l7.44-4.3,5.52,3.19,1.2-.69,1.2-.69-1.2-.69L363.95,15l7.2,4.16,45.61,26.33,7.2,4.16L319.54,109.91l-18-10.39,1.2-.69ZM283.77,92l1.2.69-6.72,3.88-1.2-.69-2.4,1.39,2.4,1.39,1.2.69,1.92,1.11,1.2.69,1.2-.69,1.2-.69-1.2-.69,2.4-1.39,2.4-1.39,1.92-1.11,1.2.69,2.4-1.39-6.72-3.88Zm0,0"/><path class="cls-6" d="M282,107.83l18-10.39v5l-18,10.39Zm.33,0"/><path class="cls-5" d="M300,97.43l2.8,1.39-.8.69v3.6l-2-.69Zm.33,0"/><path class="cls-5" d="M279,85l2.4,1.39L279,87.73Zm-.27,0"/><path class="cls-5" d="M269.37,69.58l1.2.69-1.2.69Zm0,0"/><path class="cls-5" d="M263,96.74l19,11.09v5l-19-11.09Zm.12,0"/><path class="cls-6" d="M278,85.65l1-.69v2.77l-1,.69Zm-.47,0"/><path class="cls-5" d="M255,72.76l23,12.89v2.77l-2.26,1.11L255,77.75Zm.2,0"/><path class="cls-5" d="M302,99.51l18,10.39v5L302,104.5v-5Zm-.47,0"/><path class="cls-6" d="M320,109.91,424,49.62v5L320,114.9Zm-.46,0"/><path class="cls-6" d="M424,54.61v-5l5-2.77v5Zm0,0"/><path class="cls-4" d="M424,49.62l-7.2-4.16L438.37,33l11.52,6.65L435.49,48,430,44.77l-2.4,1.39,1.2.69Zm0,0"/><path class="cls-4" d="M438.37,33,416.76,45.46,371.15,19.13,392.76,6.65Zm0,0"/><path class="cls-6" d="M429,46.85l-1.3-.69,2.3-1.39v5l-1,.69Zm-.24,0"/><path class="cls-6" d="M435,48l15-8.32v5l-15,8.32Zm.49,0"/><path class="cls-5" d="M430,44.77,435,48v5l-5-3.19Zm0,0"/><path class="cls-5" d="M367,13.31v-5l5.44,3.19L370,12.89l-1.14-.69Zm-.17,0"/><path class="cls-4" d="M369.95,12.89l2.4-1.39-5.52-3.19L381.23,0l11.52,6.65L371.15,19.13,363.95,15l2.88-1.66,1.92-1.11Zm0,0"/><path class="cls-6" d="M285,92.72,283.7,92l2.3-1.39v5l-1,.69Zm0,0"/><path class="cls-6" d="M274.6,97.3l2.4-1.39v2.77Zm0,0"/><path class="cls-5" d="M292.81,94.52l-2.36,1.39-1.18-.69-2,1.11L286,95.63v-5Zm.08,0"/><path class="cls-5" d="M282.57,99.1l1.2.69-1.2.69Zm0,0"/><path class="cls-6" d="M278,96.6l7-3.88v5l-2.42,1.39-2.53,1.39L278,99.37Zm.25,0"/><path class="cls-5" d="M277,95.91l1,.69v2.77l-1-.69Zm0,0"/><path class="cls-4" d="M286.18,95.63l1.21.69L285,97.71V96.33Zm0,0"/><path class="cls-4" d="M283,99.1v1.39l-1.42.69-1.09-.69Zm-.43,0"/><path class="cls-4" d="M135,79.64l-4.19-2.49.65-.41L135,78.81Zm.27,0"/><path class="cls-6" d="M131.67,76.73l-.72.41v-.83Zm0,0"/><path class="cls-5" d="M135,63.84v15l-.06-15Zm.27,0"/><path class="cls-9" d="M135.27,78.81l-3.83-2.08-.94-.42v-15L135,63.81Zm0,0"/><path class="cls-6" d="M131,61.35v15l-.09-15.84.43.24Zm-.05,0"/><path class="cls-4" d="M130.95,61.35l.36-.62,3.9,2.25v.83Zm0,0"/><path class="cls-4" d="M191,111.79l-4.32-2.49.72-.41L191,111Zm0,0"/><path class="cls-6" d="M187.36,108.88l-.72.41v-.83Zm0,0"/><path class="cls-5" d="M191,96v15l-.06-15Zm0,0"/><path class="cls-9" d="M191,111l-3.67-2.08-.79-.42v-15L190.83,96Zm0,0"/><path class="cls-6" d="M187,93.5v15l-.24-15.84.51.24Zm-.36,0"/><path class="cls-4" d="M186.64,93.5l.36-.62,3.9,2.25V96Zm0,0"/><path class="cls-11" d="M208.32,175.31l.14.48-1.76,1-.35-.37Zm0,0"/><path class="cls-6" d="M205.82,173.87l.23-.21.3-.09Zm0,0"/><path class="cls-4" d="M207.07,177.09l-.37-.27,1.76-1,0,.46Zm0,0"/><path class="cls-6" d="M205.68,174.19l.14-.32.53-.3.35,0Zm0,0"/><path class="cls-6" d="M206.7,173.6l.37.16-1.44.83,0-.4Zm0,0"/><path class="cls-12" d="M208.09,174.83l.23.48-2,1.14-.3-.44Zm0,0"/><path class="cls-13" d="M207.44,174l.35.37-2,1.14-.14-.48Zm0,0"/><path class="cls-4" d="M207.79,177.28l-.35,0,1-.59-.14.32Zm0,0"/><path class="cls-6" d="M205.68,175l0-.46,1.44-.83.37.27Zm0,0"/><path class="cls-14" d="M206.05,176l-.23-.48,2-1.14.3.44Zm0,0"/><path class="cls-4" d="M208.51,176.25l0,.4-1,.59-.37-.16Zm0,0"/><path class="cls-4" d="M208.32,177l-.23.21-.3.09Zm0,0"/><path class="cls-6" d="M64,115.68v23.67L57.94,143,56.4,123.85l-3.86,2.26-7.37,4.27-1.78,21L37,155V131.34l-4.3,2.49L23,139.45v-9.7L78,97.87v9.7Zm.42,0"/><path class="cls-4" d="M74.14,95.38l4.32,2.49L23.25,129.75l-4.32-2.49Zm0,0"/><path class="cls-5" d="M19,127.25l4,2.49v9.7L19,137Zm-.07,0"/><path class="cls-5" d="M33,152.51V133.84l4-2.49V155Zm0,0"/><path class="cls-15" d="M53.83,140.47,52.6,126.11l3.91-2.26L58.15,143Zm0,0"/><path class="cls-9" d="M317.5,230l-13-7.48v-5l13,7.48Zm0,0"/><path class="cls-5" d="M317,230.28V225l1,.42v4.84Zm.47-.26"/><path class="cls-4" d="M317.47,230h.72v.42Zm0,0"/><path class="cls-6" d="M305,217.54v4.16l-1,.42v-5Zm-.49,0"/><path class="cls-4" d="M303.79,222.12l.72-.42v.83Zm0,0"/><path class="cls-6" d="M304,286.43v-5l1,.41V286Zm-.21,0"/><path class="cls-4" d="M303.79,286.43l.72-.42v.83Zm0,0"/><path class="cls-9" d="M317.5,294.33l-13-7.48v-5l13,7.48Zm0,0"/><path class="cls-5" d="M317,294.28v-4.94l1,.42v4.53Zm.47,0"/><path class="cls-4" d="M317.47,294.33h.72v.42Zm0,0"/><polygon class="cls-16" points="166.95 11.44 139.58 27.25 190.97 56.91 218.34 41.11 166.95 11.44"/><path class="cls-6" d="M154,221.08a.83.83,0,0,0-.49-.66c-.29-.17-.51-.11-.51.17v6.63l1-.49Z"/><path class="cls-6" d="M153.78,214.91c-.18-.1-.32-.09-.38,0s0,.29.06.49l1.84,3.16c.14.26.42.43.59.37s.19-.31,0-.56l-1.23-2.1,8.79,5.07.73-.42Z"/><text class="cls-17" transform="matrix(0.75, 0.43, -0.87, 0.5, 286.45, 192.51)">S1</text><path class="cls-18" d="M265.5,265.28v-9l-.11-.27,0-.26v-.25l0-.24,0-.23.06-.22.08-.21.09-.2.1-.19.11-.18.12-.16.13-.15.14-.13.15-.12.16-.1.17-.09.18-.07.19-.06.2,0,.2,0H268l.22,0,.22,0,.23.05.23.07.23.08.24.1.24.12.24.13,12.27,7.08.18.09.18.08.18.07.18.06.18,0,.18,0,.17,0h.5l.16,0,.15,0,.15,0,.14-.06.13-.07.13-.08.12-.09.11-.1.11-.11.1-.12.09-.13.08-.14.08-.15.07-.16.06-.17.05-.18,0-.18,0-.19-.07-.2-.08-.2v-5.54l.08-.22,0-.23v-.23l0-.23,0-.24-.06-.24-.07-.24-.08-.24-.08-.24-.09-.24-.1-.24-.11-.24-.11-.23-.12-.23-.13-.23-.13-.23-.14-.22-.15-.22-.15-.21-.16-.21-.16-.2-.17-.19-.17-.19-.17-.18-.18-.17-.18-.16-.18-.15-.18-.14-.18-.13-.18-.13-13.21-7.63-.18-.13-.18-.13-.18-.14-.18-.15-.18-.16-.18-.17-.17-.18-.17-.19-.17-.19-.16-.2-.16-.21-.15-.21-.15-.22-.14-.22-.13-.23-.13-.23-.12-.23-.11-.23-.11-.24-.1-.24-.09-.24-.08-.24-.08-.24-.07-.24-.06-.24-.05-.24,0-.23,0-.23.09-.23.1-.22V227.5l-.1-.2,0-.2v-.19l0-.18,0-.18.06-.17.07-.16.08-.15.08-.14.09-.13.1-.12.11-.11.11-.1.12-.09.13-.08.13-.07.14-.06.15,0,.15,0,.16,0h.5l.17,0,.18,0,.18,0,.18.06.18.07.18.08.17.08L282.09,233l.18.09.18.08.18.07.18.06.18,0,.18,0,.17,0h.5l.16,0,.15,0,.15,0,.14-.06.13-.07.13-.08.12-.09.11-.1.11-.11.1-.12.09-.13.08-.14.08-.15.07-.16.06-.17.05-.18,0-.18,0-.19-.07-.2-.08-.2v-5.54l.08-.22,0-.23v-.23l0-.23,0-.24-.06-.24-.07-.24-.08-.24-.08-.24-.09-.24-.1-.24-.11-.24-.11-.23-.12-.23-.13-.23-.13-.23-.14-.22-.15-.22L284,221l-.16-.21-.16-.2-.17-.19-.17-.19-.17-.18-.18-.17-.18-.16-.18-.15-.18-.14-.18-.13-.18-.13-13.22-7.64-.18-.13-.18-.13-.18-.14-.18-.15-.18-.16-.18-.17-.17-.18-.17-.19-.17-.19-.16-.2-.16-.21-.15-.21-.15-.22-.14-.22-.13-.23-.13-.23-.12-.23-.11-.23-.11-.24-.1-.24-.09-.24-.08-.24-.08-.24-.07-.24-.06-.24-.05-.24,0-.23,0-.23,0-.23.1-.22h.13v-5.54h0l0-.2v-4.28"/><path class="cls-6" d="M305.73,261.1c0,.31-.12.41-.36.27a.76.76,0,0,1-.35-.51l-1-4.23-5.13-3-1,3.06c-.06.17-.18.21-.36.11a.74.74,0,0,1-.36-.69.55.55,0,0,1,0-.17L301,244.19c.06-.19.18-.23.35-.11a.75.75,0,0,1,.33.51l4,16.29A1.1,1.1,0,0,1,305.73,261.1Zm-2-5.62-2.33-9.53-2.23,6.9Z"/><path class="cls-6" d="M307.53,262.63l3.9-11.66c.08-.23.24-.23.44,0a.65.65,0,0,1,.19.69l-3.9,11.67c-.06.17-.17.2-.32.11A.79.79,0,0,1,307.53,262.63Z"/><path class="cls-6" d="M321,255.9c0,.31,0,.41-.21.27L315,252.75v5.6l4.54,2.71a.7.7,0,0,1,.3.7c0,.31,0,.41-.26.26L315,259.31v7c0,.31-.26.39-.51.25a.84.84,0,0,1-.49-.67v-14c0-.33.11-.43.35-.29l6.29,3.63A.75.75,0,0,1,321,255.9Z"/><path class="cls-6" d="M330.2,275.21c0,.31-.12.41-.36.27l-6.28-3.63a.77.77,0,0,1-.36-.63,5.36,5.36,0,0,1,.1-1.37,4.38,4.38,0,0,1,1.18-2.35,2.77,2.77,0,0,1,1-.62,11.24,11.24,0,0,1,1.19-.42,6.11,6.11,0,0,0,1.93-.81,1.89,1.89,0,0,0,.73-1.59,6,6,0,0,0-.36-1.8,5.06,5.06,0,0,0-2.07-2.58l-.46-.26a1.43,1.43,0,0,0-2.08.24c-.15.17-.32.11-.51-.19s-.24-.54-.08-.73c.64-.83,1.55-.92,2.67-.27l.46.26a6.56,6.56,0,0,1,2.67,3.37,7.44,7.44,0,0,1,.47,2.38,2.59,2.59,0,0,1-1,2.16,6.52,6.52,0,0,1-2,.85,5.27,5.27,0,0,0-2.05.94,3.87,3.87,0,0,0-1.1,2.64l5.92,3.42A.76.76,0,0,1,330.2,275.21Z"/><g class="cls-19"><path class="cls-20" d="M234,185.51v-5.74a22.12,22.12,0,0,1,7.42-4.17c.27,1.13.58,2.26.79,3.4.63,3.4,1.28,6.8,1.77,10.23a27.88,27.88,0,0,1,.15,5,30,30,0,0,0,.84,7.05q1.12,5.67,2.16,11.36,1.32,7.15,2.58,14.31c.52,2.92,1,5.84,1.53,8.76q1.3,7.45,2.6,14.9c.65,3.69,1.3,7.38,1.94,11-.51.64-1,.28-1.38.07q-2.35-1.28-4.66-2.63Q244.47,256,239.22,253c-.59-.35-1.11-.8-1.76-1.28a24.79,24.79,0,0,0-5.8,3.68c-.11,3.33,0,6.7-.06,10.07s.1,6.53-.1,9.9l-3.78,2.52c-.6,1.92-.23,3.91-.3,5.87s-.05,3.75-.07,5.68c-3.84,2.66-7.93,4.66-11.82,7s-8,4.69-12.08,7-7.9,4.53-12,6.88c-.85-.41-1.76-.78-2.6-1.27-4.3-2.46-8.58-5-12.87-7.44l-12.48-7.18c-1.63.88-3.29,1.74-4.9,2.67q-8.88,5.12-17.74,10.29-3,1.72-5.89,3.47c-1.9,1.13-2.13,1.2-4.54,1.22-1.39,2,0,4.44-1,6.77-3.83,2.47-8,4.75-12.11,7.11a9.6,9.6,0,0,1-1.46.53,6.61,6.61,0,0,1-.35-1.24c-.05-.89,0-1.78,0-2.68q0-35.57,0-71.13c0-1.18,0-2.36.07-3.57,4.55-2.87,9.13-5.38,13.68-7.94,1.19,1.81,1.19,1.81,3.22,2.69a16.54,16.54,0,0,0,4.19-2c4.9-2.8,9.78-5.64,14.67-8.48l15.43-9,10.55-6.1,13.64-7.88L204,201.61c4.46-2.57,8.94-5.13,13.4-7.71,4.11-2.38,8.21-4.8,12.32-7.19a2.2,2.2,0,0,1,2-.37C232.52,186.63,233,186.21,234,185.51Z"/><path class="cls-20" d="M370.1,174.52c-1.18-6.86-2.19-13.65-3.67-20.52-2.53.65-4.4,2.18-6.45,3.3s-4.11,2.35-6.35,3.64c-.2-.44-.48-.76-.48-1.09q0-10.11.06-20.23a3.2,3.2,0,0,1,.24-.61c5.47-3.54,11.62-6.52,17.17-10.2.27-1.13-.76-1.2-1.06-1.82,0-.15-.08-.4,0-.51.83-1,.69-2.24.69-3.42q0-9.52,0-19c0-1.08.05-2.15.08-3.25,1.2-.77,2.26-1.48,3.36-2.13s2.06-1.14,3.27-1.8a10.56,10.56,0,0,0,.64,1.32c1.06,1.57,2.17,1.89,3.79,1s3.11-1.74,4.65-2.64c4.28-2.5,8.53-5,12.82-7.51s8.78-5,13.16-7.53c7.29-4.21,14.56-8.46,21.86-12.67,5.84-3.36,11.71-6.67,17.54-10,6.69-3.86,13.36-7.78,20-11.65,2.31-1.34,4.65-2.63,6.85-3.87l2,.24a5.26,5.26,0,0,0,1.08-1.35,6.77,6.77,0,0,0,.21-2c0-1.18,0-2.36,0-3.49,2.21-1.86,4.68-2.93,7-4.27s4.39-3,7.18-3.8c.06.94.15,1.71.15,2.49.26,31.43.11,73.67-.29,76.32-4.49,2.85-9.28,5.41-14,8.16a15.59,15.59,0,0,1-3.88-2.42c-2.45.76-4.5,2.36-6.72,3.61-4.84,2.72-9.62,5.53-14.42,8.31-4.37,2.54-8.72,5.1-13.09,7.63-4.55,2.63-9.12,5.21-13.67,7.83-7.29,4.21-14.56,8.46-21.85,12.67-6.78,3.91-13.57,7.8-20.36,11.7-4.89,2.82-9.77,5.66-14.67,8.48A6.35,6.35,0,0,1,370.1,174.52Zm-11-31.59a2.37,2.37,0,0,0-.25,2.94l5.12-3.15,2.31.34a2.11,2.11,0,0,0,.08-2.62,5.78,5.78,0,0,0-2.89,1.19C361.26,142.88,361.28,142.9,359.07,142.93Z"/><path class="cls-20" d="M207.81,146.77c-2.44.65-4.67,1.14-6.82,1.85a20.32,20.32,0,0,0-3.73,1.79,8.68,8.68,0,0,1-5.73,1.47,7.71,7.71,0,0,1-.35-1.62c0-6,0-12.1,0-18.15a3,3,0,0,1,1.2-2.7l-1.83-.12c-.68-.58-.65-1.19-.11-2,1.78.09,2.88,2,4.62,2a1.22,1.22,0,0,0,.76-1.28c0-.89.12-1.78.12-2.68,0-13.78.09-27.57.09-41.35V80.48c2-2.41,5.36-2.93,7.43-5.15-.17-.58-.61-.59-1-.5l-8.29,2.09-3.9-.44a1,1,0,0,1,0-1.31,4.19,4.19,0,0,0,1-3.3c0-2.78,0-5.55,0-8.33,0-.78.1-1.57.16-2.51C203,54.2,214.73,47.38,226.71,40.61c.28.58.64,1,.64,1.39.05,3.47.12,6.94,0,10.41a12.66,12.66,0,0,1-1.07,3.22,7.71,7.71,0,0,0,1.05,1.14c.86.65,1.78,1.21,2.83,1.9a7.54,7.54,0,0,1-2.51,1.66c-.93.57-1.88,1.11-2.8,1.68s-1.66,1.06-2.5,1.6a3.69,3.69,0,0,0,.7,3.69l.3-2.83a30,30,0,0,1,7.9-4.45,7.76,7.76,0,0,1,.33,1.33c.06.79,0,1.59,0,2.38q0,20.83,0,41.65c0,1.18,0,2.36-.07,3.59l-4,2.88c-.16,6.31-.09,12.64,0,19a3.54,3.54,0,0,0,.34,1,7.7,7.7,0,0,1,4.79,1.43c3.51,2.05,7,4.07,10.53,6.13a18,18,0,0,1,1.57,1.2,10.9,10.9,0,0,1-1.54.71q-11.65,3-23.3,6c-1.92.49-3.83,1-5.73,1.56a3.72,3.72,0,0,1-3.37-.54A28.31,28.31,0,0,0,207.81,146.77Z"/><path class="cls-20" d="M347.64,310.05a6.52,6.52,0,0,1-.44-1.34c0-22.4,0-44.8,0-67.34,3.77-2.55,7.81-4.65,11.69-7s8-4.7,12.1-7,7.83-4.55,12-6.91a12.33,12.33,0,0,1,.38,1.67c.05.79,0,1.59,0,2.38q0,30.64,0,61.27c0,1.18,0,2.36-.07,3.59-3.85,2.64-7.94,4.65-11.83,7s-7.83,4.66-11.83,6.85S351.94,307.94,347.64,310.05Z"/><path class="cls-20" d="M191,183.88c1,1.78,1.06,3.85,1.37,5.86s.74,3.89,1.08,5.83.69,4.09,1,6a4.16,4.16,0,0,1-.17.4.61.61,0,0,1-.18.23l-47.86,27.69a8.81,8.81,0,0,1-1.22.47,56,56,0,0,1-1.5-6.95c-.46-2.19-.44-4.49-1.46-6.77-3.05,1.73-6,3.37-8.88,5q-6.83,3.92-13.65,7.88l-13.13,7.58-13.9,8c-1.63.94-3.23,1.93-4.86,2.87a23.69,23.69,0,0,1-2.89,1.52c-1.41.57-2.53-.25-2.59-1.83a9.11,9.11,0,0,1,.21-1.54c1-.64,2-1.31,3-1.9q52.42-30.22,104.86-60.41C190.39,183.81,190.63,183.88,191,183.88Z"/><path class="cls-20" d="M78.39,97.21a61.11,61.11,0,0,1,.13,9.41c-4.34,3-9,5.21-13.18,7.91a5,5,0,0,0-.47,3c0,5.75,0,11.51,0,17.26,0,1.08,0,2.17-.07,3.3a26.67,26.67,0,0,1-6.31,3.65,7,7,0,0,1-.67-1.3c-1.23-4.69-2.43-9.39-3.66-14.09a11.09,11.09,0,0,0-.59-1.4,62.61,62.61,0,0,0-7.42,4.19c-1,1.18-.74,2.42-.9,3.58-.54,3.92-.35,7.9-1,11.81a21.65,21.65,0,0,0-.13,2.67c0,1-.1,2-.14,2.76a16.9,16.9,0,0,1-6.12,3.58c-1.17-6.9-2.35-13.77-3.61-20.47-.76-.43-1.13,0-1.55.21-2.4,1.39-4.79,2.79-7.2,4.17a14.05,14.05,0,0,1-1.53.63,82.27,82.27,0,0,1,0-9.44Z"/><path class="cls-20" d="M428.19,46.35c.48-1.76.48-1.76,2-1.71l.87,3.83a8.4,8.4,0,0,0-1.7,1.09,10.2,10.2,0,0,0-1.14,1.89C392.33,71.89,356.72,93,320.61,113.27c-.06,0-.18,0-.28-.08-.63-1.46-.63-1.46-.37-4.18,8.83-5.38,18-10.43,27.06-15.75s18-10.42,27-15.62,18.19-10.5,27.29-15.74S419.39,51.59,428.19,46.35Z"/><path class="cls-21" d="M163,161.89c-1.33.29-2.36.92-3.61.7a2.64,2.64,0,0,1-.35-.85q0-17.37,0-34.75a3,3,0,0,1,.37-.9,10.15,10.15,0,0,1,3.49,1.65,16.27,16.27,0,0,1,.27,2.08q0,15,0,30C163.19,160.41,163.1,161,163,161.89Z"/><path class="cls-22" d="M300.22,96.76c1,2.47,1,2.47.8,4.55-5.63,3.21-11.38,6.49-17.14,9.75a2.79,2.79,0,0,1-.93.11,10.28,10.28,0,0,1,.07-4.3,5.87,5.87,0,0,1,.83-.69C289.25,103.07,294.64,100,300.22,96.76Z"/><path class="cls-21" d="M269.34,181.4l.59,1.9,2.46,1.83c0,1.12-1.16,1.06-1.6,1.77l-.24,1.49c-2.89,1.66-5.66,3.75-9.35,4-.69-2-.35-4-.26-6C263.48,184.5,266.34,183.19,269.34,181.4Z"/><path class="cls-22" d="M69.78,262.86a12.66,12.66,0,0,1,.06-4.42c4.44-2.75,8.9-5.43,13.69-7.9.74,1.5.23,2.85.41,4.14a6.38,6.38,0,0,1-1.12,1.12c-4.2,2.4-8.42,4.76-12.64,7.12C70.12,263,70,262.9,69.78,262.86Z"/><path class="cls-22" d="M449.88,39.25a10,10,0,0,1,0,4.47c-4.4,2.81-9,5.37-13.82,8.09a12.23,12.23,0,0,1-.08-4.73c3.71-2.55,7.79-4.55,11.68-6.87A18.66,18.66,0,0,1,449.88,39.25Z"/><path class="cls-22" d="M289.87,176.49a7.23,7.23,0,0,0-1.87-1.33v-4.51c1-.48,1.38-1.05,2.08-1.36,2-.92,3.8-2.56,6.13-3.16.72,2.24-.4,4.64,1.19,6.69C295,174.23,292.8,175.8,289.87,176.49Z"/><path class="cls-21" d="M336.52,225.77a20.11,20.11,0,0,0,1.78,2.19,14.57,14.57,0,0,0,2.11,1.35,13.62,13.62,0,0,0-1.64,1.46,12.18,12.18,0,0,0-1,1.77c-1.23,1.13-2.86,1.08-4.47,1.57-.83-2.12-.4-4.12-.3-6.19.59-.4,1.14-.79,1.71-1.14S335.89,226.12,336.52,225.77Z"/><path class="cls-23" d="M284.66,92.08c.33-.62,0-1.55,1.21-1.71,1.41,1,.91,2.73,1.36,4.17-.89.53-1.82.86-2.23,1.89a3.05,3.05,0,0,1-1.23,1.23c-1.08.68-2.22,1.26-3.29,1.85-1.9-.68-2.06-2-1.66-3.75C280.57,94.29,282.8,93.4,284.66,92.08Z"/><path class="cls-24" d="M364.81,209.45c1.16-.58,2.16-1.59,3.44-1.87.83.35.8,1,.83,1.56.08,1.66.14,3.33.22,5.23a3.49,3.49,0,0,1-4.54.16A8.74,8.74,0,0,1,364.81,209.45Z"/><path class="cls-25" d="M261,265.12a20.55,20.55,0,0,1-.09-5.28c1.59.26,1.59.26,3.67,3.4A8.73,8.73,0,0,1,261,265.12Z"/><path class="cls-26" d="M333.17,306.78a13.13,13.13,0,0,1-.21-5.27,1.08,1.08,0,0,1,1.65.36c.73.91,1.34,1.91,2.07,3A19.26,19.26,0,0,1,333.17,306.78Z"/><path class="cls-27" d="M150.54,161l-2.16-1.22,1.41-1.68,1.71.87C151.88,159.89,151.57,160.42,150.54,161Z"/><path class="cls-28" d="M173,171.42a1.35,1.35,0,0,1-.84,2l-1.9-.83c-.15-1,.6-1.28,1.18-1.88Z"/><path class="cls-29" d="M287,206.66l2.38-1.44c.52,1.55.52,1.55-1.62,2.59Z"/><path class="cls-30" d="M278.54,84.26c1,2,.86,2.38-.62,2.71C277.21,86,277.46,85.2,278.54,84.26Z"/><path class="cls-31" d="M217.69,164.46c-.2,1.37-1.29,1.42-2.21,1.86-.58-1.09.07-1.48.58-1.88A1.15,1.15,0,0,1,217.69,164.46Z"/><path class="cls-27" d="M275.18,96.26l1.93-1.09.83,2.39C276.72,97.78,276.19,97,275.18,96.26Z"/><path class="cls-27" d="M207.79,174.75l-2.23-1.22c.65-.27.91-.47,1.17-.47C207.9,173.06,208.17,173.45,207.79,174.75Z"/><path class="cls-32" d="M80.48,247.82,79,247.26c.11-1,.78-1.13,1.48-1.25C81.2,246.54,81,247.11,80.48,247.82Z"/><path class="cls-33" d="M243.08,149l1.52-.92c.65.47.68.9.28,1.29S244.25,149.82,243.08,149Z"/><path class="cls-34" d="M321.29,187.29c-.45,1.8-.64,1.85-1.76.92C319.67,187.29,320.35,187.37,321.29,187.29Z"/><path class="cls-35" d="M272.49,190.17l1.71-.88C274.18,190.69,274.18,190.69,272.49,190.17Z"/><path class="cls-36" d="M304,220.47V217C305,218.3,305,218.3,304,220.47Z"/><path class="cls-37" d="M304,284.7v-3.31A2.21,2.21,0,0,1,304,284.7Z"/><path class="cls-38" d="M293.79,178.4c-.1-.77.47-.9.87-1.12.55.31.57.67.3,1S294.24,178.87,293.79,178.4Z"/><path class="cls-39" d="M359.07,142.93c2.21,0,2.19-.05,4.37-1.3a5.78,5.78,0,0,1,2.89-1.19,2.11,2.11,0,0,1-.08,2.62l-2.31-.34-5.12,3.15A2.37,2.37,0,0,1,359.07,142.93Z"/></g><line class="cls-40" x1="313.81" y1="175.86" x2="347.78" y2="155.29"/><polygon class="cls-41" points="318.77 177.64 318.97 176.66 314.14 175.66 315.49 170.92 314.53 170.65 312.89 176.42 318.77 177.64"/><line class="cls-40" x1="233.94" y1="131.64" x2="273.17" y2="107.48"/><polygon class="cls-41" points="238.9 133.39 239.1 132.41 234.27 131.44 235.58 126.69 234.62 126.42 233.02 132.21 238.9 133.39"/><polyline class="cls-40" points="49.5 130.28 49.5 206.85 153.66 148.03"/><polygon class="cls-41" points="152.5 153.11 151.55 152.81 153.04 148.11 148.24 146.97 148.47 145.99 154.31 147.39 152.5 153.11"/><path class="cls-7" d="M378.5,288.09v5l-27,15.8v-5Zm.19,0"/><path class="cls-7" d="M378.5,293.08v-69.3l5-2.49v69.3Zm.19-10"/><path class="cls-7" d="M378.5,223.78v5l-27,15.8v-5Zm.19,0"/><path class="cls-7" d="M346.5,311.38v-69.3l5-2.49v69.3Zm.5-10"/></g></g></g></svg>