<svg xmlns="http://www.w3.org/2000/svg" viewBox="0 0 91.2 91.2"><defs><style>.cls-1{fill:#699;}.cls-2{fill:#fff;}</style></defs><title>Asset 7</title><g id="Layer_2" data-name="Layer 2"><g id="content"><circle class="cls-1" cx="45.6" cy="45.6" r="45.6"/><path class="cls-2" d="M40,56.32h0V67.78a3.39,3.39,0,0,0,3.33,3.45h5.11a3.39,3.39,0,0,0,3.33-3.45V56.32h0a3.43,3.43,0,0,0,3.42-3.45V36.71a3.43,3.43,0,0,0-1.77-3V51.09H47.68V39.27l2.77-6h0a2.72,2.72,0,0,0,.17-.94V25.08H53l-1.52-2.23v-.47A2.4,2.4,0,0,0,49.14,20H43.64a2.4,2.4,0,0,0-2.39,2.41v2.7h.91v7.25a2.63,2.63,0,0,0,.18.94l2.78,6V51.09h-5.8V33.35a3.44,3.44,0,0,0-2.69,3.36V52.88A3.44,3.44,0,0,0,40,56.32"/></g></g></svg>