<svg xmlns="http://www.w3.org/2000/svg" viewBox="0 0 91.6 91.2"><defs><style>.cls-1{fill:#69c;}.cls-2{fill:#fff;}.cls-3{fill:none;stroke:#fff;stroke-width:3.34px;}</style></defs><title>Asset 12</title><g id="Layer_2" data-name="Layer 2"><g id="content"><circle class="cls-1" cx="46" cy="45.6" r="45.6"/><polygon class="cls-2" points="21.94 49.74 21.94 57.62 30.23 57.62 30.23 54.19 41.16 54.19 41.16 50.87 30.23 50.87 30.23 43.25 41.16 43.25 41.16 39.93 30.23 39.93 30.23 36.99 21.94 36.99 21.94 44.86 21.94 49.74"/><line class="cls-3" x1="24.14" y1="47.3" y2="47.3"/><polygon class="cls-2" points="47 36.39 47 39.39 58 39.39 58 43.39 47 43.39 47 50.39 58 50.39 58 54.39 47 54.39 47 57.39 66 57.39 66 36.39 47 36.39"/><line class="cls-3" x1="91.57" y1="46.89" x2="64.33" y2="46.89"/></g></g></svg>