<svg xmlns="http://www.w3.org/2000/svg" viewBox="0 0 91.2 90.66"><defs><style>.cls-1{fill:#ff7300;}</style></defs><title>Asset 15</title><g id="Layer_2" data-name="Layer 2"><g id="content"><path class="cls-1" d="M91.2,45.6A45.6,45.6,0,1,0,37.6,90.49V56.54c0-2.19-2.72-5.15-2.72-5.15h0A17.86,17.86,0,0,1,27.38,37c0-9.85,8.29-17.64,18.15-17.64a17.86,17.86,0,0,1,5.62.91L40.29,31.17l.56,11.28L52.12,43,62.75,32.35a17.71,17.71,0,0,1-7.83,20h0s-2.32,1.82-2.32,3.88V90.66A45.61,45.61,0,0,0,91.2,45.6Z"/></g></g></svg>