<svg xmlns="http://www.w3.org/2000/svg" viewBox="0 0 91.2 91.2"><defs><style>.cls-1{fill:#9c3;}.cls-2{fill:none;stroke:#fff;stroke-width:2.5px;}.cls-3{fill:#fff;}</style></defs><title>Asset 13</title><g id="Layer_2" data-name="Layer 2"><g id="content"><circle class="cls-1" cx="45.6" cy="45.6" r="45.6"/><path class="cls-2" d="M22.71,61.74A28.18,28.18,0,0,1,36.92,18.81"/><polygon class="cls-3" points="33.21 31.71 30.94 30.66 36.13 19.48 24.6 15.12 25.49 12.78 39.53 18.09 33.21 31.71"/><path class="cls-2" d="M68.14,62.67a28.17,28.17,0,0,1-39.49,5.26"/><polygon class="cls-3" points="41.39 63.71 41.8 66.18 29.64 68.2 32.55 80.18 30.12 80.77 26.58 66.18 41.39 63.71"/><path class="cls-2" d="M45.77,17.39A28.19,28.19,0,0,1,72.24,55.2"/><polygon class="cls-3" points="64.42 44.3 66.65 43.17 72.21 54.18 82.78 47.83 84.06 49.98 71.19 57.7 64.42 44.3"/></g></g></svg>