<svg xmlns="http://www.w3.org/2000/svg" viewBox="0 0 91.2 91.2"><defs><style>.cls-1{fill:#69c;}.cls-2{fill:#fff;}</style></defs><title>Asset 4</title><g id="Layer_2" data-name="Layer 2"><g id="content"><circle class="cls-1" cx="45.6" cy="45.6" r="45.6"/><path class="cls-2" d="M43.49,49.88a9.07,9.07,0,0,1-3.05,6.51,10.72,10.72,0,0,1-7.26,2.38,9.64,9.64,0,0,1-7.75-3.32q-2.82-3.32-2.82-9.11V44.77a15.35,15.35,0,0,1,1.3-6.51,9.76,9.76,0,0,1,3.72-4.32,10.42,10.42,0,0,1,5.62-1.5,10.44,10.44,0,0,1,7.14,2.38,9.74,9.74,0,0,1,3.13,6.67H38.24a5.35,5.35,0,0,0-1.38-3.6,5.12,5.12,0,0,0-3.62-1.12,4.49,4.49,0,0,0-4,1.89Q28,40.55,27.95,44.53v1.94q0,4.15,1.26,6.07a4.4,4.4,0,0,0,4,1.92,5.21,5.21,0,0,0,3.65-1.12,5,5,0,0,0,1.38-3.46Z"/><path class="cls-2" d="M67.06,49.88A9.07,9.07,0,0,1,64,56.39a10.72,10.72,0,0,1-7.26,2.38A9.64,9.64,0,0,1,49,55.44q-2.82-3.32-2.82-9.11V44.77a15.35,15.35,0,0,1,1.3-6.51,9.76,9.76,0,0,1,3.72-4.32,10.42,10.42,0,0,1,5.62-1.5A10.44,10.44,0,0,1,64,34.81a9.74,9.74,0,0,1,3.13,6.67H61.82a5.35,5.35,0,0,0-1.38-3.6,5.12,5.12,0,0,0-3.62-1.12,4.49,4.49,0,0,0-4,1.89q-1.31,1.89-1.35,5.87v1.94q0,4.15,1.26,6.07a4.4,4.4,0,0,0,4,1.92,5.21,5.21,0,0,0,3.65-1.12,5,5,0,0,0,1.38-3.46Z"/></g></g></svg>