<svg xmlns="http://www.w3.org/2000/svg" viewBox="0 0 91.2 91.2"><defs><style>.cls-1{fill:#ff7300;}.cls-2{fill:none;stroke:#fff;stroke-miterlimit:10;stroke-width:3px;}.cls-3{fill:#fff;}</style></defs><title>Asset 2</title><g id="Layer_2" data-name="Layer 2"><g id="content"><circle class="cls-1" cx="45.6" cy="45.6" r="45.6"/><polygon class="cls-2" points="30.74 41.18 35.66 17.93 41.43 25.89 49.91 25.89 55.01 16.89 60.48 41.71 45.61 50.11 44.69 49.45 30.74 41.18"/><path class="cls-3" d="M43.34,45.18l2.27,4.69L30.74,41.18a5.51,5.51,0,0,1,7.44-1.63C43,42,43.34,45.18,43.34,45.18Z"/><path class="cls-3" d="M47.7,45.18l-2.21,4.69,14.87-8.69a5.51,5.51,0,0,0-7.44-1.63C48.1,42,47.7,45.18,47.7,45.18Z"/><path class="cls-2" d="M56.8,25c10.79,4.42,18.41,9,18.41,21.38a29.61,29.61,0,1,1-58.82-4.84s10.11,1.41,19,13l-.18-10.77"/><path class="cls-3" d="M16.39,41.55A29.81,29.81,0,0,0,16,46.39a29.5,29.5,0,0,0,2.43,11.74L29.79,48.6C22.75,42.45,16.39,41.55,16.39,41.55Z"/></g></g></svg>