<svg xmlns="http://www.w3.org/2000/svg" viewBox="0 0 91.2 91.2"><defs><style>.cls-1{fill:#69c;}.cls-2{fill:#fff;}</style></defs><title>Asset 11</title><g id="Layer_2" data-name="Layer 2"><g id="content"><circle class="cls-1" cx="45.6" cy="45.6" r="45.6"/><path class="cls-2" d="M45.44,20.82A24.63,24.63,0,0,0,35.26,23.1l.38,0s4.45.39,6.57-.47,3.82,1.46,3,1.47-1.89,2.56-1,2.56,1.06,1.26,2.32-.23,1.06-.85,3.41.62-1.48,1.49-1.48,1.49-.83,1.71-1.89,1.71S42.91,33.06,42.29,35s-.83,1.92-1.7.44S38.47,35,37,36.92s2.78,3.8,2.78,3.8l2.14,1.89a16.32,16.32,0,0,0,2.54-.86c.84-.43.64.85,3.62,2.1s.44,1.48,3.19,2.31a5,5,0,0,1,3.41,3l-.84,1.7L53,53.35a3.58,3.58,0,0,0-1.89,2.56C50.5,58,49,58.47,48,59.53s.24,3.39.88,4.66-1.27-.2-2.12-.41-1.3-2.75-1.73-4,.19-4.24.18-5.73-.86-1.9-1.93-3.17-1.07-1.47-1.72-3.8-.24-3,.39-3.39-1.7-1.26-2.77-1.68a20.44,20.44,0,0,1-3.62-2.3c-1.49-1.05-1.93-2.74-2.57-3.59s-.88-4.66-.89-5.93,1.46-2.77.82-3.83c-.29-.46-1.16-.55-2.16-.53a24.66,24.66,0,0,0-6.2,32.82,16.89,16.89,0,0,0,3.66.94c1.09,0,4.08-.27,4.89,1.91s2.18,2.45.27,4.62c-.23.27-.44.49-.62.67A24.77,24.77,0,1,0,45.44,20.82"/></g></g></svg>