<svg xmlns="http://www.w3.org/2000/svg" viewBox="0 0 91.2 91.2"><defs><style>.cls-1{fill:#699;}.cls-2{fill:#fff;}.cls-3{fill:none;stroke:#fff;stroke-width:2px;}</style></defs><title>Asset 10</title><g id="Layer_2" data-name="Layer 2"><g id="content"><circle class="cls-1" cx="45.6" cy="45.6" r="45.6"/><path class="cls-2" d="M30,57.3h0v11a3.29,3.29,0,0,0,3.27,3.31h5a3.29,3.29,0,0,0,3.27-3.31v-11h0A3.33,3.33,0,0,0,44.93,54V38.48a3.33,3.33,0,0,0-3.37-3.3H40.19a2.59,2.59,0,0,0,.17-.9v-8.2a2,2,0,0,0-1.78-2.14H33.83A2,2,0,0,0,32,26.08v8.2a2.44,2.44,0,0,0,.18.9H30a3.34,3.34,0,0,0-3.37,3.3V54A3.34,3.34,0,0,0,30,57.3"/><path class="cls-2" d="M26.6,38.48A3.34,3.34,0,0,1,30,35.18h2.26a2.45,2.45,0,0,1-.18-.9v-8.2a2,2,0,0,1,1.78-2.14h4.75a2,2,0,0,1,1.78,2.14v8.2a2.57,2.57,0,0,1-.17.9h1.38a3.33,3.33,0,0,1,3.37,3.3V54a3.33,3.33,0,0,1-3.37,3.31h0v11a3.29,3.29,0,0,1-3.27,3.31h-5A3.29,3.29,0,0,1,30,68.29v-11h0A3.34,3.34,0,0,1,26.6,54Z"/><line class="cls-3" x1="58.6" y1="36.39" x2="58.6" y2="52.39"/><line class="cls-3" x1="66.6" y1="44.39" x2="50.6" y2="44.39"/></g></g></svg>