<svg xmlns="http://www.w3.org/2000/svg" viewBox="0 0 92.2 92.2"><defs><style>.cls-1{fill:none;}.cls-2,.cls-4{fill:none;}.cls-2{stroke:none;}.cls-3{fill:#fff;}.cls-4{stroke:#fff;stroke-width:3px;}</style></defs><title>Asset 12</title><g id="Layer_2" data-name="Layer 2"><g id="content"><circle class="cls-1" cx="46.1" cy="46.1" r="45.6"/><circle class="cls-2" cx="46.1" cy="46.1" r="45.6"/><polygon class="cls-3" points="22.1 50.24 22.1 57.89 30.1 57.89 30.1 54.89 41.1 54.89 41.1 50.89 30.1 50.89 30.1 43.89 41.1 43.89 41.1 40.89 30.1 40.89 30.1 37.89 22.1 37.89 22.1 45.36 22.1 50.24"/><line class="cls-4" x1="24.1" y1="47.39" x2="0.1" y2="47.39"/><polygon class="cls-3" points="47.1 36.89 47.1 39.89 58.1 39.89 58.1 43.89 47.1 43.89 47.1 50.89 58.1 50.89 58.1 54.89 47.1 54.89 47.1 57.89 66.1 57.89 66.1 36.89 47.1 36.89"/><line class="cls-4" x1="92.1" y1="47.39" x2="64.1" y2="47.39"/></g></g></svg>
