<svg xmlns="http://www.w3.org/2000/svg" viewBox="0 0 91.2 91.2"><defs><style>.cls-1{fill:none;}.cls-2{fill:#fff;}.cls-3{fill:none;stroke:#fff;stroke-width:2px;}</style></defs><title>Asset 10</title><g id="Layer_2" data-name="Layer 2"><g id="content"><circle class="cls-1" cx="45.6" cy="45.6" r="45.6"/><path class="cls-2" d="M29.6,57.39h0v10.9c0,1.82,1.85,3.1,3.65,3.1h5a3.17,3.17,0,0,0,3.32-3.1V57.39h0a3.14,3.14,0,0,0,3-3.4V38.48a2.89,2.89,0,0,0-3-3.09H40.19a2.24,2.24,0,0,0,.41-1.12v-8.2c0-1.18-1-1.68-2-1.68H33.83c-1,0-2.23.5-2.23,1.68v8.2a2.16,2.16,0,0,0,.63,1.12H30a3.16,3.16,0,0,0-3.37,3.09V54A3.42,3.42,0,0,0,30,57.39"/><path class="cls-2" d="M26.6,38.48A3.16,3.16,0,0,1,30,35.39h2.26a2.16,2.16,0,0,1-.62-1.12v-8.2c0-1.18,1.25-1.68,2.23-1.68h4.75c1,0,2,.5,2,1.68v8.2a2.23,2.23,0,0,1-.41,1.12h1.38a2.89,2.89,0,0,1,3,3.09V54a3.14,3.14,0,0,1-3,3.4h0v10.9a3.17,3.17,0,0,1-3.32,3.1h-5c-1.81,0-3.65-1.28-3.65-3.1V57.39H30A3.42,3.42,0,0,1,26.6,54Z"/><line class="cls-3" x1="58.6" y1="36.39" x2="58.6" y2="52.39"/><line class="cls-3" x1="66.6" y1="44.39" x2="50.6" y2="44.39"/></g></g></svg>
