<svg xmlns="http://www.w3.org/2000/svg" viewBox="0 0 91.2 91.2"><defs><style>.cls-1{fill:none;}.cls-2,.cls-3{fill:none;stroke:#fff;stroke-miterlimit:10;}.cls-2{stroke-width:2.5px;}.cls-3{stroke-width:3px;}.cls-4{fill:#fff;}</style></defs><title>Asset 14</title><g id="Layer_2" data-name="Layer 2"><g id="content"><circle class="cls-1" cx="45.6" cy="45.6" r="45.6"/><circle class="cls-2" cx="45.43" cy="45.23" r="19.83"/><line class="cls-3" x1="45.1" y1="65.39" x2="45.1" y2="83.39"/><polygon class="cls-4" points="35.38 75.4 37.21 73.69 45.6 82.72 53.99 73.69 55.82 75.4 45.6 86.39 35.38 75.4"/><line class="cls-2" x1="64.61" y1="50.65" x2="82.01" y2="56.3"/><polygon class="cls-4" points="70.97 63.47 69.91 61.2 81.09 56.01 75.1 45.23 77.29 44.02 84.58 57.14 70.97 63.47"/><line class="cls-2" x1="58.43" y1="30.39" x2="69.18" y2="15.59"/><polygon class="cls-4" points="72.58 28.3 70.1 28.61 68.62 16.37 56.52 18.74 56.04 16.29 70.77 13.4 72.58 28.3"/><line class="cls-2" x1="31.77" y1="30.39" x2="21.02" y2="15.59"/><polygon class="cls-4" points="34.16 16.28 33.68 18.74 21.59 16.37 20.11 28.61 17.62 28.3 19.43 13.4 34.16 16.28"/><line class="cls-2" x1="27.59" y1="50.65" x2="10.19" y2="56.3"/><polygon class="cls-4" points="14.91 44.02 17.1 45.23 11.1 56 22.29 61.19 21.23 63.46 7.61 57.14 14.91 44.02"/></g></g></svg>
