<svg id="Layer_1" data-name="Layer 1" xmlns="http://www.w3.org/2000/svg" viewBox="0 0 2010.2 1000"><defs><style>.cls-1{fill:#fff;}</style></defs><title>BBC</title><path class="cls-1" d="M234.68,724.95V281H1781.27V724.95Zm1541.64-4.08v-437H1311.85v437Zm-536.79-437.3H774.82v437h464.71ZM702.15,720.91v-437H237.74v437Z"/><path d="M1776.32,720.86H1311.85v-437h464.47Zm-91.63-145.94-10.4,6c-43.21,24.7-88.42,39.16-139.18,30.19-77.84-13.76-118.24-90.54-82.95-159.85,20.47-40.21,56.84-56.09,99.25-60.16,33.06-3.17,64.47,5.42,94.88,17.65,11.5,4.62,22.62,10.2,35.46,16,0-17.3-.3-33.27.15-49.23.18-6.31-2.3-9.36-7.91-11.18-12.52-4.07-24.8-8.93-37.45-12.55-58-16.58-115.4-16.51-169.67,12.4-58.51,31.18-88.5,81.59-84.49,147.62,4,66.57,39.35,114.41,102.18,138.16,66.1,25,131.4,17.63,194.55-12.38,2.62-1.24,5.24-5.58,5.33-8.55C1684.95,611.72,1684.69,594.35,1684.69,574.93Z"/><path d="M1239.53,283.56v437H774.82v-437Zm-177.35,208.8a24.79,24.79,0,0,1,3.2-2.64c49.43-27.63,44.52-97.78,1.21-125.79-15.16-9.81-31.75-16.44-49.53-17.25-33-1.5-66.18-1.29-99.27-1.75-6.67-.09-13.34,0-20.44,0V659.78h10.05c37.63,0,75.3,1.07,112.87-.46a186.17,186.17,0,0,0,54.44-10.24c33.06-11.84,52.71-35.91,54.15-72.24,1.42-35.68-15.37-60.71-46.67-76.53C1076,497.16,1069.21,495.11,1062.18,492.37Z"/><path d="M702.15,720.91H237.74v-437H702.15Zm-177-228.36a22.36,22.36,0,0,1,3.2-2.75c51.07-28,46-105.3-7.87-130.9-12.55-6-26.6-11-40.27-12-31.69-2.15-63.57-1.54-95.38-2-8-.11-15.92,0-24.43,0V659.78h11c37.3,0,74.65,1.08,111.89-.46a195.84,195.84,0,0,0,54.45-10.19c35.78-12.21,54.57-40.85,54.46-78-.1-33.37-21.43-61.88-55.71-74.49C532.86,495.34,529.26,494,525.14,492.55Z"/><path class="cls-1" d="M1684.69,574.93c0,19.42.26,36.79-.25,54.14-.09,3-2.71,7.3-5.33,8.55C1616,667.62,1550.66,675,1484.56,650c-62.83-23.75-98.13-71.6-102.18-138.16-4-66,26-116.44,84.49-147.62,54.26-28.92,111.64-29,169.67-12.4,12.65,3.61,24.93,8.48,37.45,12.55,5.62,1.83,8.09,4.87,7.91,11.18-.45,16-.15,31.93-.15,49.23-12.84-5.85-24-11.42-35.46-16-30.41-12.23-61.82-20.82-94.88-17.65-42.42,4.07-78.78,19.95-99.25,60.16-35.29,69.31,5.1,146.09,82.95,159.85,50.76,9,96-5.49,139.18-30.19Z"/><path class="cls-1" d="M1062.18,492.37c7,2.75,13.8,4.79,20,7.93,31.31,15.82,48.09,40.86,46.67,76.53-1.44,36.33-21.09,60.41-54.15,72.24a186.17,186.17,0,0,1-54.44,10.24c-37.57,1.53-75.24.46-112.87.46H897.35V344.92c7.1,0,13.77-.08,20.44,0,33.1.46,66.22.25,99.27,1.75,17.79.81,34.38,7.44,49.53,17.25,43.3,28,48.22,98.17-1.21,125.79A24.79,24.79,0,0,0,1062.18,492.37Zm-109,118.31c24.47,0,48.21,1.11,71.79-.36,18.09-1.13,34.81-7.79,43-26.19,10.85-24.47-3-50.86-31.5-55.56-21-3.47-42.79-2.32-64.24-3.1-6.25-.23-12.52,0-19,0Zm-.27-135.41c15.25,0,29.45,1.08,43.37-.38a76.5,76.5,0,0,0,27.2-8.76,37.15,37.15,0,0,0,19.32-38.92c-2.85-16.89-13.24-27.92-29.56-30.22-19.53-2.75-39.47-2.58-59.39-3.69a46.82,46.82,0,0,0-.91,5.54C952.87,423.93,952.87,449,952.87,475.27Z"/><path class="cls-1" d="M525.14,492.55c4.12,1.5,7.72,2.79,11.31,4.11,34.29,12.61,55.61,41.12,55.71,74.49.11,37.14-18.68,65.78-54.46,78a195.84,195.84,0,0,1-54.45,10.19c-37.24,1.54-74.59.46-111.89.46h-11V344.92c8.51,0,16.47-.1,24.43,0,31.8.45,63.68-.15,95.38,2,13.67.93,27.71,6,40.27,12,53.85,25.6,58.94,102.89,7.87,130.9A22.36,22.36,0,0,0,525.14,492.55ZM416.27,611.17c20.62,0,40.2,0,59.78,0,3.54,0,7.25.46,10.57-.45,9.54-2.6,19.76-4.27,28.19-9a38.28,38.28,0,0,0-1-67.66,75.55,75.55,0,0,0-29.4-7.85c-20.84-1.28-41.8-.63-62.71-.69a28.32,28.32,0,0,0-5.41,1Zm.19-217.95v83.47c18.43-1.22,36.29-1.92,54-3.85,5.78-.63,11.6-3.84,16.74-7,14.34-8.7,20.49-22,18.45-38.44-2.12-17-12.9-28-29.17-30.4C457,394.21,437,394.39,416.46,393.22Z"/><path d="M953.15,610.67V525.42c6.5,0,12.77-.19,19,0,21.44.78,43.23-.37,64.24,3.1,28.47,4.7,42.35,31.09,31.5,55.56-8.16,18.4-24.88,25.06-43,26.19C1001.36,611.78,977.62,610.67,953.15,610.67Z"/><path d="M952.87,475.27c0-26.26,0-51.34,0-76.43a46.82,46.82,0,0,1,.91-5.54c19.93,1.1,39.87.93,59.39,3.69,16.33,2.3,26.72,13.34,29.56,30.22a37.15,37.15,0,0,1-19.32,38.92,76.5,76.5,0,0,1-27.2,8.76C982.32,476.34,968.13,475.27,952.87,475.27Z"/><path d="M416.27,611.17V526.54a28.32,28.32,0,0,1,5.41-1c20.91.05,41.87-.59,62.71.69A75.55,75.55,0,0,1,513.8,534a38.28,38.28,0,0,1,1,67.66c-8.43,4.75-18.66,6.42-28.19,9-3.32.9-7,.44-10.57.45C456.47,611.19,436.89,611.17,416.27,611.17Z"/><path d="M416.46,393.22c20.54,1.17,40.5,1,60,3.82,16.27,2.37,27.05,13.36,29.17,30.4,2,16.45-4.11,29.75-18.45,38.44-5.14,3.12-11,6.33-16.74,7-17.72,1.93-35.57,2.63-54,3.85Z"/></svg>