<svg id="Layer_1" data-name="Layer 1" xmlns="http://www.w3.org/2000/svg" viewBox="0 0 2010.2 1000"><defs><style>.cls-1{fill:#fefefe;}.cls-2{fill:#696969;}.cls-3{fill:#8b8b8b;}</style></defs><title>Forbes</title><path class="cls-1" d="M93.37,287c0-3-1.19-7.27.33-8.79s5.75-.33,8.79-.33H1128.31c.09,3.25-2.61,2.91-4.49,3.27q-26.44,5-52.9,9.93c-22.13,4.1-44.18,8.56-66.29,12.75a58,58,0,0,0-7.53,1.85c-2.7.9-4.49,2.59-4.56,5.58a6.91,6.91,0,0,0,3.81,6.75,12,12,0,0,0,4.33,1.37c21.27,2.23,30.3,16.24,34.11,35.34a66.51,66.51,0,0,1,1.56,13.11c0,10.35,1,20.64,1.18,31,1.49,71.31,1,142.63.65,213.94-.13,26.59-.12,53.21-.93,79.79-.38,12.61-.55,25.22-.66,37.83-.06,7,1.12,8.44,8,9.94a581.31,581.31,0,0,0,69.28,11.33,379.14,379.14,0,0,0,53.73.75c16.55-.79,32.69-3,48.44-7.89,41.11-12.9,72.47-37.84,92.34-76.33,14.41-27.91,21-57.84,21.25-89.23.12-16.13.21-32.28-2.79-48.18-6.31-33.46-20.06-63.25-45.77-86.27-24.11-21.59-52.4-31.77-85.14-28.7-9.39.88-18.77,1.43-28,3.38-10.36,2.18-20.06,6.14-29.57,10.59-6.84,3.2-8.89-.12-9.26-5.74a155.94,155.94,0,0,1,.12-24.61c.29-3.19.53-6.36.53-9.55q0-51.79,0-103.57c0-2.84-.47-5.81,1.32-8.4q392.15,0,784.3-.11c3.94,0,4.31,1.1,4.31,4.56q-.15,234.74,0,469.48c0,3.79-.87,4.39-4.48,4.39q-908.86-.15-1817.71,0c-3.43,0-4.6-.75-4.17-4.2a63.05,63.05,0,0,0,.06-7.75,2.48,2.48,0,0,1,1.57-.47,51.25,51.25,0,0,0,10.88,1h214c.76,0,1.52,0,2.28,0,6.24-.13,8.3-1.58,8.88-6.21.79-6.44-1.3-9.75-7.25-11.14a166.21,166.21,0,0,0-17.5-3.15c-20.33-2.5-30.75-15.36-36.36-33.66C266,678,264.67,665,263.71,651.93c-2.74-36.86-3.19-73.79-2.85-110.74.11-11.89.07-12.28,11.93-11.71,14.86.71,29.75,1.07,44.57,2.74,16.29,1.83,26.59,11.51,34.15,25.11,4.77,8.59,7.77,17.81,10.11,27.29,2.15,8.7,5.24,10.64,14.08,9.42,3.38-.47,5.17-2.28,5.49-5.63.16-1.67.13-3.34.13-5q0-65.48,0-131c0-.61,0,.15,0-.46,0-9.36-5.45-13-14.29-9.64-3.12,1.18-4.14,3.85-4.85,6.71a136,136,0,0,1-6.55,20.87C350.89,481,344.39,490.71,334,497.5c-8.28,5.43-17.66,6.46-27.06,7-12.74.67-25.49,1.66-38.28,1.11-6.81-.29-7.73-1-7.76-7.7-.14-29.81-.54-59.63.12-89.43.45-20.5.87-41,1.79-61.51.33-7.25.31-14.58,1.7-21.79.6-3.09,2.2-4.46,5.21-4.61,2.13-.1,4.26-.15,6.39-.15q29.89,0,59.78,0a141.11,141.11,0,0,1,20,1.46c25.78,3.72,45.16,17.7,60.07,38.47,10.28,14.32,17.52,30.22,23.83,46.58.71,1.84,1.37,3.71,2.14,5.53,3.61,8.61,15.21,10.25,21.5,3,1.86-2.13,1.75-4.76,1.84-7.35.47-12.93-1.37-25.8-.94-38.74.74-22.5-1.19-45-1-67.49.11-12.25-1.53-13.5-13.74-13.5H108.3a68.12,68.12,0,0,0-10.48.37A4.5,4.5,0,0,1,93.37,287Z"/><path class="cls-2" d="M1131,277.91c1.37,2.55,1,5.32,1,8q-.34,67.06-.66,134.12c0,12.72.44,10.07,9.38,6,28.62-13,58.7-16.77,89.11-10.46,40.07,8.32,66.78,34.34,84.69,70.18,12.78,25.58,17,52.93,17.52,81.28.61,31.31-3.7,61.69-16.07,90.44-22.47,52.21-63,82.49-118,94-23.25,4.84-46.9,4-70.45,3.23-29.9-1-59.07-7.19-88.29-13-4.27-.85-5.16-2.68-5.1-6.69,1.05-73.59,2.28-147.18,2.18-220.78-.06-47.44-.48-94.88-2.07-142.3-.39-11.5-2.33-22.62-7.24-33.17-3.58-7.68-9.09-12.77-17.42-14.71-4.74-1.1-9.47-2.21-14.16-3.48-4.9-1.33-5.75-3.21-5.61-10.37.08-4.13,1.72-6.06,6-6.91,43.36-8.62,86.76-17.08,130.32-24.65a13.17,13.17,0,0,0,2.13-.75Z"/><path class="cls-2" d="M93.37,287c17.14-1.71,34.34-.88,51.5-.88q156.5-.07,313,.16c6.62,0,6.54,0,7.12,6.83,1.24,14.57.84,29.18,1.25,43.77.72,25.54.81,51.09,1.3,76.64.06,3.28-.83,5-4.16,5.76-3.71.8-7.29,2.15-11,3.08-6.64,1.68-8.39.91-11-5.28-4.07-9.5-7.7-19.19-11.94-28.61C423,374.3,415.11,361,404.28,349.63c-17.83-18.69-40-26.91-65.56-26.87-22.66,0-45.32-.08-68-.23-2.84,0-3.95.85-4.24,3.79-1.7,16.82-1.71,33.71-2.24,50.57-1.27,40.13-1.61,80.29-1.4,120.44,0,6,0,6,5.94,6.07,15.22.05,30.4-.66,45.56-1.89,14.85-1.2,25.52-8.93,33.33-21.16,6.82-10.69,10.26-22.7,12.88-34.9,1-4.72,3.15-6.32,7.71-6a72.49,72.49,0,0,0,10.94-.2c3.51-.3,4.75,1.15,4.34,4.46a11.25,11.25,0,0,0,0,1.37q0,72.78,0,145.55c0,5.94,0,5.94-6,5.83-3.35-.06-6.7-.37-10-.19-4,.22-5.94-1.3-6.77-5.4a120.92,120.92,0,0,0-8-26.1,79.37,79.37,0,0,0-7.4-13.08c-6.83-9.66-15.7-15.83-27.79-17.12-17-1.81-34-2.2-51-2.93-2.86-.12-3.67,1.1-3.67,3.74-.06,30,0,59.92,1.64,89.85.9,16.54,1.48,33.12,4.17,49.51,1.58,9.64,3.93,19.06,8.56,27.77,5.13,9.67,12.66,16.17,23.72,18.15,9,1.6,17.9,3.48,26.89,5,3.66.62,5.29,2.58,5.56,6q0,.23,0,.45c1.64,13.43.59,14.78-12.7,14.78q-109.73,0-219.47-.18c-2.44,0-5.69,1.31-7-2.42-.89-4.75-.18-9.54-.41-14.3-.16-4.36,2.56-6.19,6.27-7.14,5.9-1.51,11.87-2.69,17.86-3.69C132.86,716.73,142,707.82,147,694c4.44-12.28,5.93-25.12,7-38,2.87-34.41,2.3-68.92,3-103.4.48-22.35.79-44.69.5-67-.29-22.64-.26-45.3-1-67.92-.6-19.25-1.16-38.57-4.36-57.67-1.54-9.2-3.86-18.09-8.11-26.48a33.36,33.36,0,0,0-19.83-17.08C117.06,313.93,109.53,313,102,312c-3.2-.44-6.87-.22-8.62-4Z"/><path class="cls-1" d="M93.37,308c5.19,2,10.77,1.57,16.11,2.65,1.34.27,2.7.42,4.06.58,21.37,2.53,33.11,15.37,38.29,35.46,4.28,16.6,5.55,33.58,6.17,50.57,2.58,69.88,2,139.79.75,209.68-.42,23.83-1.14,47.7-5.17,71.3a86.78,86.78,0,0,1-5,18.44c-5.53,13.49-15,22.18-29.71,24.76-6.28,1.1-12.53,2.4-18.74,3.83-2.43.56-5.19,1.08-6,4.18l-.22.85-.58-.65Z"/><path class="cls-3" d="M93.37,729.67a2.45,2.45,0,0,1,.8-.19q0,7.43.07,14.87l-.43-.08h-.44Z"/><path class="cls-2" d="M574.67,755c-21.51.71-44.4-2.39-66.13-11.93-35.57-15.62-61-41.41-74.93-77.6-20.52-53.34-22.31-107.66-.47-160.65,22.4-54.34,64.23-86.13,122.88-94.64,30.61-4.44,60.75-2.18,89.86,8.58,41.86,15.47,68.65,45.71,83.66,87.12,11.19,30.88,13.34,62.77,11.22,95.28-2,30.57-10.79,58.85-27.4,84.49-25.63,39.56-62.73,61.35-108.88,68.25C595.33,755.31,586,755.27,574.67,755Z"/><path class="cls-2" d="M1552.86,569q-46.07,0-92.15,0c-2.67,0-4.64,0-4.53,3.73.7,23.87,3.43,47.38,13.45,69.36,15,33,39.33,55,76,60.48,28.91,4.3,56.77,1.09,81.67-16.05.75-.52,1.55-1,2.34-1.42,7.68-4.43,10-3.73,14.5,3.92,1.87,3.15,1.93,6-.28,8.86s-4.25,5.56-6.64,8.1c-25.32,27-56.54,43.15-93.06,47.67-44.61,5.52-86.77-1.46-123.62-29.42-30.32-23-49.85-53.6-57.83-90.33-11.88-54.71-7.38-107.88,23.67-156.27,24.87-38.75,61.16-60.41,106.39-67.32,25.31-3.87,50.46-3,74.71,5.82,36.47,13.21,59,40.08,71.71,75.86,7.62,21.38,10.91,43.59,11.7,66.19.35,10.12.23,10.13-9.57,10.13h-88.49Q1552.86,568.69,1552.86,569Z"/><path class="cls-2" d="M1668.76,686.78c0-14.75.14-29.5-.1-44.24-.06-3.72,1.18-5.72,4.58-6.66.73-.2,1.45-.46,2.18-.67,10.09-2.8,10.76-2.48,14.68,7.17,7.7,18.94,16.51,37.24,30,52.94,18.49,21.57,42,29.15,69.6,24.87,17.52-2.72,32.24-17.32,36.32-35,4.6-19.94-1.06-35.73-17.14-47.34-12.93-9.34-27.58-15.37-42.2-21.39-14.47-6-29.33-11-43-18.78-37.57-21.28-52.31-52.39-47.83-93.56,4.75-43.71,31.24-70.9,70.86-86.42,16.7-6.54,34.37-9,52.28-9.27,30.31-.4,60.07,3.3,89,12.72,12.35,4,12.22,4.21,12.51,17.22q.79,35.11,1.8,70.22c.1,3.36-.76,5.15-4.13,6.36-11.93,4.28-12.89,4-17.42-7.74-6.12-15.94-12.74-31.62-23.49-45.12-13.61-17.09-31.3-26.27-53.26-26.22-20.58,0-37.56,16.47-40.62,36.84s4.93,35.06,21.11,46.41c13.28,9.32,27.87,16.12,42.68,22.51,17.87,7.71,35.86,15.13,52.24,25.86,20,13.1,34.17,30.54,37.77,54.56,5.4,36-.82,69.15-27.25,96.28-16.54,17-37.35,26.15-59.83,32.36-14.62,4-29.52,3.22-44.37,4-34,1.67-67-3.6-99.42-13.11-15.27-4.47-15.34-4.6-15.6-20.53-.18-11.4,0-22.8,0-34.2Z"/><path class="cls-2" d="M882.34,475.52c5.61-7.94,10.18-16.15,15.67-23.81,13.88-19.35,31.51-33.83,54.49-40.81,16.89-5.12,33.94-4.27,50.75,1a39.76,39.76,0,0,1,5.42,2.36c4,2,5.22,4.82,3.65,9.31q-14.34,40.89-30.64,81c-1.55,3.81-3.69,3.7-6.77,2.37-10.73-4.63-21.19-10-32.82-12.26-16.79-3.27-32.93-1.61-48.5,5.69-7.44,3.49-11.44,8.56-11.64,17.23-1,45-1.55,90,.56,135,.71,15.18,1.05,30.4,4,45.37a40.49,40.49,0,0,0,5.29,14,23.63,23.63,0,0,0,17.5,11.09c8.13,1.15,16.21,2.72,24.43,2.95,3.33.09,4.7,1.48,4.59,4.69-.13,3.8-.3,7.6-.22,11.4s-1.62,4.8-5.26,4.78c-24.49-.1-49,.06-73.46,0q-54.07,0-108.14-.2c-11,0-11.15-.23-10.66-11.33.47-10.52,0-8.06,8.49-10.11,2.06-.5,4.18-.79,6.27-1.17,16-3,24.13-10.74,27.13-26.66,3-15.75,3.09-31.77,3.45-47.71,1-43.18,1.3-86.38.06-129.56-.38-13.22-.89-26.44-3.53-39.47-2.86-14.08-10.3-23.43-25.42-25.21-4.21-.49-8.34-1.7-12.53-2.4-2.71-.45-4-1.9-4.06-4.59,0-1.22,0-2.43,0-3.65,0-7.39.2-7.78,7.57-9.37q64.85-14,130.1-26c6.17-1.15,6.62-.74,6.41,5.38Q883.48,445.24,882.34,475.52Z"/><path class="cls-1" d="M1132.14,590.5c-1.12-42.89-1.41-85.78-.45-128.66.09-3.9,1.34-5.47,5-6.59,11-3.32,22.18-4.73,33.36-3,13.49,2.11,24,10,32.47,20.41,12.75,15.61,19,34.14,23.3,53.43,5.57,25,5.25,50.45,3.76,75.84-1.72,29.26-8.24,57.42-21,84a98.21,98.21,0,0,1-18.21,26.61c-12.2,12.47-27.07,17.49-44.31,15.91-13.18-1.21-12.17-.72-12.76-13-.65-13.52-1.09-27.05-1.17-40.58C1132,646.77,1132.14,618.63,1132.14,590.5Z"/><path class="cls-1" d="M639,587.63c.2,29-.32,58.12-7.28,86.55-3.93,16.07-9.23,31.57-21.43,43.63-17.11,16.92-39.9,16.75-56.54-.67-11.68-12.23-17.62-27.54-22.36-43.37-7.38-24.66-10.31-50-10.68-75.63-.42-28.6-.65-57.2,3.44-85.6,2.83-19.63,7-39,17.21-56.34,6.22-10.58,14.44-18.9,27-21.38,12.9-2.53,24.36.31,34.13,9.52,14.36,13.53,22.09,30.68,27.3,49.22C635.62,514,638,535,639,556.16,639.45,566.63,639,577.14,639,587.63Z"/><path class="cls-1" d="M1504,538.82c-14.28,1.91-28.57,1.86-42.86,2.05-2.92,0-4.64-.48-4.35-3.94,2.51-29.48,7.86-58.15,24.2-83.61a46,46,0,0,1,14.72-14.71c13.08-8,26.68-5.58,36,6.59,7.47,9.78,10.89,21.3,13.62,33,4.32,18.6,5.12,37.6,6.32,56.56.22,3.54-1.48,4-4.32,4C1532.91,538.79,1518.48,538.82,1504,538.82Z"/></svg>