<svg id="Layer_1" data-name="Layer 1" xmlns="http://www.w3.org/2000/svg" viewBox="0 0 2010.2 1000"><defs><style>.cls-1{fill:#fff;}</style></defs><title>TED</title><path class="cls-1" d="M1453.51,523.33V985.6H472.27V409.94H573V670.67H681.19V407.83h96.74V318.36H472.27V4.56h981.24V466.63c-1.38-5.46-3.14-10.85-4.09-16.39-14.5-84.57-69.11-131.51-154.33-132-50.81-.31-101.61-.06-152.42-.07H1116v353.3c61.23,0,120.84,2.52,180.16-.61,82.41-4.35,134.4-48.43,151.62-122.41C1449.7,540.06,1451.59,531.69,1453.51,523.33ZM799.44,318.89V670.55h295.08V580.72H907.39V536.28h187.45V452.91H907V407.73h187.29V318.89Z"/><path d="M1453.51,523.33c-1.91,8.36-3.8,16.74-5.75,25.09-17.22,74-69.21,118.07-151.62,122.41-59.32,3.13-118.93.61-180.16.61V318.14h26.68c50.81,0,101.62-.25,152.42.07,85.21.53,139.83,47.47,154.33,132,.95,5.53,2.71,10.93,4.09,16.39ZM1224,408.91V580.77c38.76,0,80,10.28,105.11-29.13,22-34.65,23.41-73.42,1.47-109C1305.78,402.38,1264.55,408.42,1224,408.91Z"/><path d="M472.27,318.36H777.93v89.47H681.19V670.67H573V409.94H472.27Z"/><path d="M799.44,318.89h294.88v88.84H907v45.18h187.8v83.37H907.39v44.44h187.14v89.82H799.44Z"/><path class="cls-1" d="M1224,408.91c40.56-.48,81.79-6.52,106.57,33.7,21.95,35.61,20.56,74.39-1.47,109-25.06,39.41-66.34,29.13-105.11,29.13Z"/></svg>