<svg id="Layer_1" data-name="Layer 1" xmlns="http://www.w3.org/2000/svg" viewBox="0 0 2010.2 1000"><defs><style>.cls-1{fill:#fefefe;}.cls-2{fill:silver;}.cls-3{fill:#565656;}</style></defs><title>The Guardian</title><path class="cls-1" d="M226.28,359h1221c-.34,4.48-4.31,3.62-6.8,4.11-10.78,2.11-21.69,3.54-32.53,5.34-8.71,1.45-17.44,2.71-26.14,4.21-3.74.65-7.24,1.6-7.87,6.27s.85,7.74,5.36,10.22a92.21,92.21,0,0,0,10.38,4.93,7.21,7.21,0,0,1,5,7.27c.12,12.33.27,24.66-.07,37-.15,5.52-2.26,7.07-6.85,5-17.92-8-36.2-6.44-54.26-1.41-32.14,8.93-48.92,31.85-55,63.43-4.6,23.85-4.36,47.7,2.63,71.19,10.09,33.86,41.57,53.64,76.44,48,11.44-1.87,21.69-6.36,30-14.67.47-.47,1-.9,1.47-1.35,1.55-1.41,3.2-2.43,5.41-1.6,2.41.91,2.89,2.94,3.14,5.2,1.44,12.88,1.46,12.87,14.5,11.19,16.51-2.13,33.06-3.91,49.6-5.78,3.46-.39,6.77-1.08,7.67-5.11s-.13-7.64-3.73-10.09c-3.45-2.34-7.27-4-10.87-6.14-3.4-2-5.12-4.56-4.91-8.49.08-1.49,0-3,0-4.5q0-107,0-213.9c0-3.54-1-7.46,2.43-10.26h69c.57,3.68-2.5,3.74-4.66,4.52A30,30,0,0,0,1497.83,401a29.45,29.45,0,0,0,29.22,20.67c14-.33,25.31-9.15,28.6-22.2,3.86-15.32-3.68-29.86-18.55-36.11-2-.83-5.37-.61-4.82-4.4q236.72,0,473.43-.09c3.62,0,4.68.6,4.68,4.51q-.2,170.72,0,341.45c0,3.16-.28,4.23-4,4.23q-996.6-.17-1993.21,0c-3.59,0-4-.94-4-4.19q.15-171,0-341.95c0-3.49.77-4.07,4.13-4.06q103,.18,206,.09c-.21,4.3-4,3.61-6.35,4-11.18,1.83-22.33,3.84-33.53,5.5-7.75,1.14-15.47,2.45-23.17,3.85-3.51.64-6.45,1.94-7.11,5.91s.29,7.65,3.95,10a55.28,55.28,0,0,0,10.71,5.36c3.46,1.31,4.94,3.63,4.89,7.23,0,2.16.08,4.33.08,6.5,0,60.16-.15,120.32.18,180.47,0,8.33-2.08,13.56-10.17,16.3-4.41,1.5-8.68,3.79-8.86,9.59-.14,4.78,1.78,7.2,6.55,7.63,3.49.32,7,.13,10.49.13,23,0,46,.07,69,0,7.3,0,10.37-4.13,8.21-10.53a8,8,0,0,0-3.33-4.24,31.82,31.82,0,0,0-4-2.12c-11.2-5.26-11-2.86-11-17.94q0-49.24,0-98.49c0-2.33.12-4.67.05-7-.12-4.24,1.63-6.92,5.83-8.09,9.2-2.58,18.41-4.46,28.07-2.75,12.69,2.25,19.64,10,19.92,22.92.27,12.49.07,25,.08,37.49,0,19-.38,38,.18,57,.24,8.25-1.78,13.85-10.07,16.31a19.05,19.05,0,0,0-4.44,2.28,9.08,9.08,0,0,0-4.28,10.28c1.08,4.41,4.54,4.88,8.19,4.88q39,.08,78,0c3.45,0,6.77-.42,8-4.49a9.2,9.2,0,0,0-4-10.44,36,36,0,0,0-8.51-4.17c-5.14-1.71-7.14-5-7.08-10.49.19-17.16.08-34.33.07-51.49q0-29.75,0-59.49a60.27,60.27,0,0,0-2.68-17.72c-4.28-14.06-14-21.91-28.18-24.42-19.64-3.48-38.08.5-55.67,9.36A86.13,86.13,0,0,0,235,457.35c-2.46,1.92-4.89,4.62-8.4,2.9s-2.73-5.44-2.75-8.48c-.15-21-.06-42-.07-63,0-7.5-.06-15,0-22.5C223.89,363.61,223.85,360.88,226.28,359Z"/><path class="cls-2" d="M226.28,359q.06,44.49.11,89c0,2-.06,4,0,6,.07,1.6-.47,3.62,1.45,4.41,1.57.65,2.82-.68,4-1.63,14.62-12.23,31.5-19.05,50.36-21.24a72.86,72.86,0,0,1,28.72,2c17,4.88,27.25,20,27.36,40.88.19,36.16.32,72.32-.08,108.47-.09,7.86,1.37,13.25,9.67,15a4.32,4.32,0,0,1,.9.42c10.22,4.92,11,6.53,9.53,18-.32,2.52-1.52,3.53-3.87,3.54q-6,0-12,0-38.74,0-77.48,0c-6.53,0-6.18-.25-6.85-6.76-.79-7.7,1.22-12.81,9.29-14.75,8.31-2,10.43-7.35,10.24-15.83-.61-27.65-.23-55.31-.23-83,0-2.33,0-4.67,0-7-.15-16.7-7.36-24.13-24.08-24.43-6.68-.12-13.21,1.29-19.72,2.84-4.52,1.08-5.48,3.79-5.46,8,.12,30.16.06,60.32.07,90.48,0,6.66.11,13.33,0,20-.07,3.3,1.23,5.28,4.32,6.44s5.8,2.54,8.67,3.87c2.21,1,5.38,1.33,5.82,4.15.74,4.74,1.17,9.7-.25,14.34-.76,2.47-3.74,1.61-5.81,1.62q-40.74.07-81.48,0c-2.67,0-5.33,0-8,0a4.29,4.29,0,0,1-3.26-1c-3.14-3.21-.67-17.24,3.65-18.39,11.88-3.16,15-10.19,14.84-22.49-.78-59.14-.4-118.3-.25-177.45,0-5-.89-8.39-6.12-9.73-1.74-.45-3.24-1.84-5-2.29-7.86-2.07-10-7.13-9.34-14.89.38-4.77,1.72-6.74,6.4-7.45,17.12-2.58,34.22-5.38,51.29-8.27,5.23-.88,10.62-.94,15.65-2.93Z"/><path class="cls-3" d="M1452.28,359c.15,2.66.42,5.31.42,8q0,109.5-.08,219c0,4.57,1,7.65,5.5,9.25,1.55.55,2.85,1.89,4.41,2.31,9.74,2.62,10.73,9.75,9.79,18.14-.25,2.22-.86,3.18-3.18,3.45q-34,3.85-68,7.92c-4.6.55-6.94-.61-6.37-5.76a74.47,74.47,0,0,0,0-10c0-1.07.31-2.54-1.25-2.88-1.12-.25-1.77.76-2.42,1.49-19.54,22.35-58.82,23.05-83,7.44-18.91-12.23-28.47-30.5-32.46-51.87-4.63-24.74-4.1-49.46,3.6-73.64,10.55-33.1,37.07-53.49,71.75-55.9,14-1,27.64-.68,40.16,6.31,1.54-1,1-2.25,1-3.3,0-12.33-.07-24.67.1-37,0-3-1-4.53-3.67-5.63-4.77-2-9.37-4.35-14.15-6.28-2.59-1-3.3-2.62-3.35-5.3-.2-12.82-.29-12.87,12.18-14.9q30.32-4.95,60.67-9.77c1.14-.18,2.35-.12,3.25-1.05Z"/><path class="cls-3" d="M1532.28,359c1.22.47,2.42,1,3.66,1.4,15.68,5,25.46,20.15,23.06,35.86a32.81,32.81,0,0,1-32.45,28.25c-15.92,0-30.05-11.84-32.31-27.15-2.49-16.91,6.73-31.57,23-36.68,1.37-.43,3-.26,4-1.67Z"/><path class="cls-3" d="M695.44,461.43c.57,2.49,1.94,3.29,3,4.23,25.64,22.4,17,63-4.2,79.42-13.71,10.6-29.47,15.27-46.31,16.76-13.8,1.22-27.63,1.3-41.18-2.47a4.45,4.45,0,0,0-3.82.32c-4.45,2.72-7.77,10.29-6.57,15.27s6.26,9,12.43,9c14.16.13,28.33.07,42.49.06,11.31,0,22.61-.15,33.92-.08a59.67,59.67,0,0,1,15.24,2.52c20.55,5.58,32,19.46,34,40.71,1,10.42.52,20.66-2.52,30.67-6.53,21.46-22.05,33.83-42.31,41.24-17.61,6.44-36,8.25-54.55,8.38-21.07.14-42-1.45-62.07-8.42-8.88-3.07-17.24-7.1-24.26-13.53-14.54-13.31-12.9-34,3.59-44.82,7.95-5.2,17-7.58,26.07-9.71,1.38-.32,3.54-.15,3.62-1.9s-2.11-1.68-3.44-2.13c-25.2-8.69-32.42-32.59-16.23-53.82,5.1-6.69,11.48-12,18.14-17.08,5.15-3.89,5.16-3.88-.11-7.34C551.74,530,544.9,488.9,566.15,462.09c12.07-15.22,28.91-21.85,47.48-25.07,19.87-3.45,39.17-1.14,58,5.56a21.66,21.66,0,0,0,12.21.76c13.19-2.79,26.47-5.2,39.66-8,4.24-.89,6.07-.18,5.87,4.7-.35,8.65-.09,17.33-.1,26,0,6.45-.56,6.84-6.89,4.65-7.08-2.45-14.13-5-21.2-7.48C699.52,462.64,697.78,462.16,695.44,461.43Z"/><path class="cls-3" d="M1961.65,534.88c0,19.33.11,38.66-.09,58,0,3.94,1,6.33,4.89,7.42a32.87,32.87,0,0,1,4.55,2.06c11.41,5.25,11.78,6.05,10.42,18.76-.27,2.54-1.46,3-3.55,3-4.83,0-9.67,0-14.5,0-25.66,0-51.33-.09-77,.09-4.22,0-4.86-1.42-5.4-5.35-1.17-8.65,1.61-13.93,10.25-15.94,7.87-1.83,10-6.64,9.86-14.76-.59-28.48-.21-57-.25-85.48,0-5.16,0-10.33-1.29-15.4-2-8-7.17-12.64-15.1-14.14-10.23-1.93-20.21-.4-30.06,2.63-2.52.77-3.35,2.19-3.34,4.73q.07,57,0,114a4.65,4.65,0,0,0,3.26,4.9c4.45,1.88,8.75,4.09,13.18,6,2.12.92,2.85,2.28,3,4.59.66,13.82.72,13.82-12.78,13.82-27.16,0-54.33-.08-81.49.08-4.39,0-5.59-1.09-6.09-5.72-1-8.85,1.73-14.25,10.6-16.27,7.1-1.62,9-6,8.88-13.33-.47-36.32-.33-72.65-.08-109,0-5-1.37-7.8-6.07-9.12-1.43-.4-2.68-1.45-4.11-1.8-8.83-2.12-11.63-7.59-10.54-16.42.49-4,1.7-5.35,5.4-5.91,19.75-3,39.48-6.2,59.22-9.31q6.17-1,12.34-1.88c2.93-.42,4.3.73,4.21,3.85-.14,5.16-.08,10.33,0,15.5,0,1.58-.78,3.71.91,4.61,1.84,1,2.88-1.14,4.1-2.11,19.6-15.66,41.86-23,66.93-21.14,24.6,1.87,38.39,15.78,39.29,40.59.7,19.47.14,39,.14,58.48Z"/><path class="cls-3" d="M924.39,513.74c0,24.32.11,48.65-.1,73,0,4.14,1.29,6.41,5,8s7,3.91,10.69,5.41c4,1.64,5.17,4.27,5.06,8.49-.27,10.17-.07,10.16-9.81,11.22q-31.28,3.43-62.56,6.9c-7.36.81-7.39.8-7.41-6.35,0-4.67,0-9.33-.06-14,0-1.24.62-2.94-.94-3.57s-2.3,1-3.15,1.91C850,616.87,836.15,623.92,820,626.5a73.11,73.11,0,0,1-24.38.05c-22.63-4-37.46-20.82-40.35-45.34a169.09,169.09,0,0,1-.87-20c0-27.66-.08-55.31.1-83,0-3.93-1-6.32-4.81-7.44a33.4,33.4,0,0,1-4.55-2c-11.16-5.19-11.05-5.19-10.89-17.48,0-3.12,1-4.28,4.12-4.75,20.25-3.07,40.46-6.34,60.68-9.55,3.78-.6,7.57-1.18,11.34-1.82,4-.69,5.95.26,5.89,5.08-.25,21.82-.11,43.65-.11,65.48q0,28.24,0,56.48a76.7,76.7,0,0,0,.28,8.49c1.19,10.54,6.29,16.37,16.4,17.85,9,1.31,17.92,1,26.65-2,2.91-1,4.26-2.42,4.25-5.7q-.15-51.73,0-103.46c0-3.14-1.09-4.87-3.94-6-4.46-1.85-8.73-4.13-13.19-6-2.48-1-3.43-2.45-3.49-5.23-.26-13.25-.34-13.12,13-15.17,19.74-3,39.46-6.29,59.18-9.45.49-.08,1-.2,1.47-.28,7.28-1.09,7.58-.83,7.58,6.56Q924.39,477.76,924.39,513.74Z"/><path class="cls-3" d="M1745.37,539.36c0,17.83.12,35.65-.09,53.48,0,3.76,1.13,5.78,4.59,7.09,3.88,1.47,7.51,3.6,11.38,5.13,3,1.17,4.36,3.07,3.71,6.11-.78,3.7,2.54,8.74-3.14,10.88-16.29,6.14-32.94,8.26-49.92,3.32-10.14-2.95-17.09-9.4-19.7-20-.28-1.12-.31-2.54-1.45-3s-1.69.74-2.22,1.55c-10.5,16.1-26.59,22-44.59,23.92a62.75,62.75,0,0,1-26.19-2.45c-22.28-7.16-35.06-27-34.17-51.18.76-20.75,10.63-34,30-40.76,17.7-6.19,36.11-9.15,54.46-12.41,4.1-.73,8.19-1.46,12.31-2.11,2.09-.33,3.38-1.22,3.34-3.53-.25-11.8,1-23.68-1.26-35.39-2.4-12.23-8.66-18.22-20.83-20.39-.82-.15-1.64-.31-2.46-.41-16.29-1.86-17.08-1.37-22.38,13.91-2.29,6.61-4.66,13.19-6.77,19.85-.93,3-2.35,4.31-5.65,4.21-7.49-.23-15-.22-22.49,0-3.56.1-5.07-.87-5-4.72.18-13.16.09-26.32.06-39.48,0-2.3.29-4.05,3-5,32.38-11.73,65.42-16.65,99.64-10a84.81,84.81,0,0,1,13.92,3.91c20.09,7.6,31.38,23,31.83,44.54.37,17.65.07,35.32.07,53Z"/><path class="cls-3" d="M1111.25,540.38c0,17.66.1,35.32-.08,53,0,3.37,1,5.26,4.11,6.36,2.35.82,4.54,2.07,6.81,3.12,9.18,4.28,9.74,5.44,8.54,15.52-.27,2.26-1.48,3.15-3.3,3.82-16,6-32.34,8-49,3.34-10.33-2.89-17.52-9.35-20.1-20.17-.27-1.12-.27-2.55-1.46-3s-1.67.81-2.2,1.62C1044,620,1028,625.9,1010,627.86a63.79,63.79,0,0,1-24.77-2.06C965,620,951.51,603,950.36,581.82a86.53,86.53,0,0,1,.24-14c1.63-15,9.54-25.61,23.33-31.79,15.66-7,32.44-9.86,49.12-13,7.85-1.48,15.74-2.77,23.62-4.08,2.17-.36,3.83-.91,3.74-3.63-.36-11.64,1-23.34-1.12-34.91-2.23-12.34-8.66-18.66-21-20.84-.66-.12-1.31-.26-2-.34-16.91-2.18-18.76-1-24.2,14.87-2.26,6.62-4.64,13.2-6.79,19.85-.79,2.44-2.09,3.47-4.68,3.43-8.16-.11-16.33-.09-24.49,0-2.7,0-3.88-.93-3.86-3.79.09-13.83.07-27.66,0-41.49a3.69,3.69,0,0,1,2.77-4.06c34.21-12.33,69.07-17.49,105-9,20.25,4.8,35.1,15.8,39.71,37.41a88.28,88.28,0,0,1,1.46,18.89C1111.2,510.39,1111.25,525.39,1111.25,540.38Z"/><path class="cls-2" d="M471.73,536.95c-16.17,0-32.33,0-48.5,0-5.75,0-6.47.89-5.56,6.44a75,75,0,0,0,6.23,21c7.29,15,19.68,22.62,35.82,24.54,17.88,2.12,35.55.3,53-3.78,6.27-1.47,5.95-1.17,6.8,5.08,1.38,10.08-3.09,16.19-11.22,21.23-21.67,13.43-45.24,18-70.35,16.13-14.25-1.09-28.06-4.12-40.79-10.81-19.87-10.45-32.33-27.08-38.14-48.46-7-25.81-7.37-51.84,1.5-77.28C372,458.2,396,440.49,430.14,436c18.08-2.37,35.95-1.32,53.2,5,16.87,6.23,27.77,18.53,34.1,35,6.9,18,8.74,36.84,8.9,55.94,0,4.23-2.1,4.94-5.62,4.92C504.39,536.9,488.06,536.95,471.73,536.95Z"/><path class="cls-2" d="M38.33,529.9c0-20-.11-36.47.08-53,.05-4.52-1.44-6.34-6-6.11-5.65.28-11.33,0-17,.09-3.53.08-5.22-1.16-5.12-4.92.17-6.16.15-12.33,0-18.49-.08-3.55,1.47-5.12,4.93-5.47,5.8-.58,11.55-1.58,17.35-2.08,4.39-.38,6-2.38,5.86-6.78-.26-8,0-16-.12-24-.07-3.49,1.2-5.17,4.7-5.64,17.32-2.37,34.62-4.85,51.93-7.33,3.94-.56,4.39,1.8,4.38,4.83,0,10.66.16,21.33-.09,32-.11,4.6,1.51,6.16,6.07,6,9.49-.26,19,.05,28.49-.13,4-.08,5.78,1.22,5.65,5.44-.22,7-.21,14,0,21,.12,4.06-1.34,5.69-5.49,5.61-9.49-.19-19,.1-28.49-.12-4.37-.1-6.25,1.12-6.22,5.9.17,31.16-.17,62.33.2,93.48.23,19.12,8.17,25.5,28.19,24.49,3.32-.17,6.64-.49,9.94-.93,2.52-.33,3.82.45,3.8,3.13,0,5.67,0,11.33,0,17,0,2.58-1.56,3.89-3.72,4.75-21,8.28-42.62,11-64.71,6.58-20.6-4.13-31.75-18.53-33.66-40.39C37.5,565.39,39,545.91,38.33,529.9Z"/><path class="cls-3" d="M1214.86,473c2-.51,2.09-2.45,2.78-3.82,4.67-9.14,10.31-17.51,18.52-23.88a43.87,43.87,0,0,1,30.35-9.25c4,.23,5.83,1.48,5.73,6-.29,13.65-.1,27.31-.1,41,0,7.5,0,7.21-7.27,6.57-14.87-1.31-29.57-.4-44,4.11-3.6,1.13-4.88,3-4.86,6.78q.22,46.47,0,92.94c0,3.77,1.07,5.69,4.76,6.79,5.73,1.71,11.27,4.08,17,6,2.64.87,3.48,2.34,3.53,5.1.25,12.85.33,12.85-12.68,12.85-29.15,0-58.3-.09-87.44.09-4.31,0-5.27-1.18-5.82-5.5-1.14-8.95,2-14.26,10.65-16.32,7.86-1.86,9.49-6.79,9.39-14.55-.47-36.14-.31-72.28-.08-108.42,0-4.66-1.4-7.14-5.64-8.42a32.85,32.85,0,0,1-4.09-1.86c-11.48-5.31-11.35-5.31-11.25-17.77,0-3.41,1.29-4.64,4.45-5.14,20.87-3.32,41.72-6.82,62.59-10.14,12.45-2,12.47-1.87,12.47,10.82,0,7.16,0,14.32,0,21.49C1213.94,469.88,1213.29,471.66,1214.86,473Z"/><path class="cls-3" d="M1558.33,516.78c0,25.15.14,50.3-.13,75.45,0,4.63,1.38,7,5.6,8.48,3.13,1.08,6,3,9.1,4.07,4.24,1.38,5.28,4,5.18,8.26-.27,10.91-.07,10.92-11.2,10.92-28,0-56-.08-83.94.09-4.12,0-5.44-1.12-5.4-5.31.11-11.67-.28-12.21,10.79-16.49,7.22-2.79,9.25-6.68,9.15-14.32-.48-36.47-.28-72.95-.12-109.42,0-3.87-.84-6.31-4.71-7.48a46.58,46.58,0,0,1-5.91-2.68c-10.71-5-11.57-6.82-10.06-18.55.46-3.58,3.09-3.08,5.11-3.42,17.41-2.87,34.84-5.6,52.26-8.37,5.92-.94,11.82-2,17.75-2.84,6.19-.89,6.53-.54,6.54,5.65Q1558.34,478.81,1558.33,516.78Z"/><path class="cls-1" d="M1391.55,528.83c0,19-.15,38,.11,57,.06,4.43-1.67,6.08-5.59,7.2-21.9,6.24-38.33-2.7-44.6-24.85-5.34-18.88-5-38.23-3.59-57.56.85-12,2.84-23.86,8.61-34.66,7.95-14.86,24.17-20,39.34-12.79,4,1.89,5.94,4.31,5.85,9.18C1391.36,491.17,1391.55,510,1391.55,528.83Z"/><path class="cls-1" d="M631.78,640c10.67,0,21.34-.21,32,0,15.59.38,21,7.58,17.49,22.68-1.94,8.28-7.15,13.85-14.84,17-13.62,5.59-27.94,5.71-42.32,4.79-7.51-.48-14.88-1.76-21.78-5-14.66-7-18.57-24.83-8.31-37.55,1.5-1.86,3.21-2.06,5.26-2.06q16.25,0,32.5,0Z"/><path class="cls-1" d="M612.43,498.84c.36-9.32.42-18.67,3-27.75,2.92-10.44,8-14.28,18.68-14.43,10.17-.14,16,3.67,18.62,13.83a114,114,0,0,1,.25,55.87c-2.44,10-8.45,13.58-19.45,13.29s-15.56-3.81-18.33-14C612.77,516.84,612.77,507.82,612.43,498.84Z"/><path class="cls-1" d="M1684.39,564c0,6.82-.14,13.64.06,20.45.09,3.07-1.13,4.9-3.59,6.49-15.07,9.79-32.69,2.11-35.75-15.39-3.12-17.78,5.16-34.4,27-36.08,12.35-1,12.31-1.46,12.31,11.05Q1684.39,557.31,1684.39,564Z"/><path class="cls-1" d="M1050.28,564c0,7-.1,14,.05,21a6.48,6.48,0,0,1-3.17,6.21c-15.28,10.16-33.49,1.91-36-16.18-3.21-22.75,10.57-34.69,27.95-35.51,11.24-.53,11.21-1.22,11.21,10Q1050.28,556.75,1050.28,564Z"/><path class="cls-1" d="M467.24,499.08c.1,12.21.11,12.3-9.64,13.08-12.24,1-24.5,1.75-36.75,2.68-3.2.24-4.68-1-4.51-4.27.7-13.59.74-27.27,5.33-40.34s20.62-19.59,33.2-13.28c4.45,2.23,6.71,6.29,8.21,10.84C466.66,478.68,466.46,490.05,467.24,499.08Z"/></svg>