<svg id="Layer_1" data-name="Layer 1" xmlns="http://www.w3.org/2000/svg" viewBox="0 0 1872.89 322.64"><defs><style>.cls-1{fill:#fdfdfd;}.cls-2{fill:#4b4b4b;}.cls-3{fill:#0f0f0f;}.cls-4{fill:#101010;}.cls-5{fill:#212121;}.cls-6{fill:#444;}.cls-7{fill:#fefefe;}.cls-8{fill:#6d6d6d;}.cls-9{fill:#acacac;}.cls-10{fill:#7c7c7c;}.cls-11{fill:#c7c7c7;}.cls-12{fill:#797979;}.cls-13{fill:#e2e2e2;}.cls-14{fill:#4a4a4a;}.cls-15{fill:#575757;}.cls-16{fill:#565656;}.cls-17{fill:#585858;}.cls-18{fill:#545454;}.cls-19{fill:gray;}.cls-20{fill:#535353;}.cls-21{fill:#6c6c6c;}.cls-22{fill:#737373;}.cls-23{fill:#686868;}.cls-24{fill:#7b7b7b;}.cls-25{fill:#717171;}.cls-26{fill:#727272;}.cls-27{fill:#858585;}.cls-28{fill:#8a8a8a;}.cls-29{fill:#6f6f6f;}.cls-30{fill:#676767;}.cls-31{fill:#818181;}.cls-32{fill:#707070;}.cls-33{fill:#8b8b8b;}.cls-34{fill:#8f8f8f;}.cls-35{fill:#646464;}</style></defs><title>The Independent</title><path class="cls-1" d="M987.57,662q-466.5,0-933,.07c-2.81,0-3.45-.63-3.45-3.44q.13-157.87,0-315.75c0-2.81.63-3.44,3.45-3.44q933,.11,1866,0c2.81,0,3.45.63,3.45,3.44q-.13,157.87,0,315.75c0,2.81-.63,3.45-3.45,3.44Q1454.07,662,987.57,662Z" transform="translate(-51.12 -339.43)"/><path class="cls-2" d="M361,505.13c-.16,72.09-60,131.8-132.34,131.21-68.93-.56-127.08-57.76-126.9-129.72A129.81,129.81,0,0,1,232.11,377C302.73,377.22,361.14,435.27,361,505.13Z" transform="translate(-51.12 -339.43)"/><path class="cls-3" d="M1629.52,453.65c0,8.39,0,15.48,0,22.57q.17,25.3.43,50.61a77.06,77.06,0,0,0,2.12,17.43c2.33,9.56,7.8,16,17.62,18.35a13.58,13.58,0,0,1,4.58,1.92h-50.77c2-1.51,4-1.7,5.85-2.18,8.42-2.19,13.46-7.73,16.06-15.77a66.58,66.58,0,0,0,2.8-20.35c.1-23.49,0-47,.08-70.48a7.25,7.25,0,0,0-2.1-5.33c-7.36-8-15.11-15.31-26.26-17.65-.13,0-.19-.39-.31-.64.68-.75,1.6-.4,2.39-.4q20.06,0,40.11,0c1.47,0,2.86-.18,3.88,1.48,9.08,14.76,20.91,27.38,32,40.59,14.91,17.83,30,35.51,45,53.26.87,1,1.81,2,2.73,3,1.22-.87.69-2,.69-2.86q-.21-30.18-.5-60.36a65.05,65.05,0,0,0-2.25-17.78c-2.74-9.4-9-14.72-18.71-15.84-1.07-.12-2.25,0-3.35-1.22h49.94c-.32,1.06-1.19,1-1.86,1.08-15.37,1.34-20,11.32-21.55,23.46a111.91,111.91,0,0,0-.65,13.84q0,46.68,0,93.35c0,.62,0,1.25,0,1.87s.23,1.69-.77,1.82c-.47.06-1.13-.47-1.51-.9-2.48-2.81-4.91-5.67-7.33-8.52l-86.08-101.49C1631.23,455.86,1630.71,455.17,1629.52,453.65Z" transform="translate(-51.12 -339.43)"/><path class="cls-3" d="M1308.19,436.25c-6.21,4.77-9,11.35-9.08,18.9-.25,25.49-.26,51-.34,76.46,0,10.75,0,21.49,0,32.24,0,1.17.68,2.83-.64,3.4s-2-1.14-2.75-2q-31.82-37.4-63.57-74.85-14.43-17-28.86-34a13.29,13.29,0,0,1-1.1-1.77c-1.5,1-1.1,2-1.09,2.75.1,22,.19,44,.39,66a95.12,95.12,0,0,0,2,20.09c2.25,10,7.76,16.85,18.06,19.29a11.26,11.26,0,0,1,4.22,1.82h-50.26L1175,564c1.21-.37,2.4-.83,3.63-1.09,11.34-2.42,17.12-10,19.26-20.85a82.15,82.15,0,0,0,1.56-16q0-35.05,0-70.1a7.8,7.8,0,0,0-2.37-5.95c-6.54-6.76-13-13.55-22.49-16.24-1.3-.37-2.59-.76-3.91-1.15.37-1.48,1.46-.89,2.15-.9q20.43-.06,40.86,0c1.36,0,2.59-.1,3.52,1.41,9.49,15.4,21.86,28.54,33.39,42.32,14.92,17.82,30,35.5,45,53.23.4.47.84.9,1.26,1.34,1.24-.55.72-1.55.71-2.3-.2-22.74-.38-45.48-.68-68.22-.1-7.63-1.6-14.89-6.79-20.91-.75-2.08-2.67-2.82-4.38-3.8-.68-.39-1.27-.88-1.08-1.74s1-.94,1.78-.94c7,0,13.91-.07,20.86,0C1309.89,432.2,1310,432.94,1308.19,436.25Z" transform="translate(-51.12 -339.43)"/><path class="cls-3" d="M622.69,567.49c-1.65-.09-2.16-1.58-3-2.57q-45.86-54-91.67-108c-.64-.75-1.31-1.48-2-2.22-1.38.67-.78,1.81-.77,2.65q.29,35.79.69,71.58a64.41,64.41,0,0,0,2.45,17c2.42,8.44,7.59,14.18,16.3,16.4a19.91,19.91,0,0,1,5.59,2.25H499.7c.22-1.4,1.48-1.13,2.22-1.27,13.52-2.49,19.31-11.58,21.11-24.28,1.65-11.69.92-23.44,1-35.17.12-15.87,0-31.73.08-47.6a8.52,8.52,0,0,0-2.49-6.31c-7.35-8-15.16-15.16-26.66-17.26,1-1.28,1.9-1,2.66-1q20.24,0,40.48,0c1.49,0,2.85-.12,3.85,1.55,7.05,11.73,16.18,21.87,24.93,32.29Q594,497.85,621.19,530a2.71,2.71,0,0,1,1.88,2.88c-.13,11.41.27,22.83-.21,34.25C622.85,567.27,622.75,567.38,622.69,567.49Z" transform="translate(-51.12 -339.43)"/><path class="cls-3" d="M1308.19,436.25c.67-2.71-.22-3.86-3.17-3.79-6.32.16-12.64,0-19.89,0,2,2.58,5.26,3.07,5,6.1-4.92-4.18-11.16-4.87-17.78-6.12,1.82-1.09,3.06-.73,4.23-.73q56.74,0,113.48,0c7.35,0,14.69.18,21.86,2.15a6.31,6.31,0,0,1-2.3,4.09,2.79,2.79,0,0,1-2.51.14c-5.4-2.15-11.1-2.66-16.82-3-5,0-9.92-1.09-14.95-.3-2.91.46-4.37,1.66-4.84,4.66a114.44,114.44,0,0,0-1.23,18.28c.09,21.12.21,42.25,0,63.37-.11,9.65.74,19.19,1.54,28.75.54,8.05,4.34,11.71,12.27,12.05,13.17.57,25.64-1.39,36.53-9.51a3.74,3.74,0,0,1,3.15-.87c2.64,2.46,2.52,3.74-.24,5.75s-5.88,2.95-8.48,5c-6.84,2.25-14,2.54-21.05,2.6-21.35.15-42.71.06-64.07,0-.95,0-2,.32-3.09-.76,2.86-.66,5.56-1.14,8.17-1.92,7.71-2.32,11.7-7,11.74-15,.13-30.84.37-61.7-.14-92.53-.29-17.88-17.44-27.44-34.34-19.95C1310.2,435.26,1309.2,435.77,1308.19,436.25Z" transform="translate(-51.12 -339.43)"/><path class="cls-3" d="M999.21,438.43c-7.13-4.38-14.94-5.92-23.24-6-3.12,0-4,.85-3.95,4,.11,32.24.07,64.48.08,96.72,0,4.37,0,8.75.08,13.12.25,8.41,3.39,12.57,11.45,15,3.53,1.08,7.17,1.83,10.72,3.27H929.94l-.13-.52c2.37-.6,4.76-1.11,7.11-1.8,8.64-2.54,12.73-7.71,12.75-16.66q.1-47.23,0-94.47c0-9.16-4.35-14.44-13.44-16.94a23.84,23.84,0,0,1-6.31-2.25c1-.07,2-.21,3-.21q26.43,0,52.86,0c4.61,0,9.21.09,13.69,1.37C999.22,434.87,1001.87,436.79,999.21,438.43Z" transform="translate(-51.12 -339.43)"/><path class="cls-3" d="M428.48,431.91h61.68c0,1.37-1.07,1.16-1.83,1.3a34.66,34.66,0,0,0-9.25,2.89c-6.26,3.11-8.48,8.59-8.56,15.09-.14,11.74-.07,23.49-.07,35.24q0,27.55,0,55.11c0,14.34,3.26,18.46,17.26,21.79a5.53,5.53,0,0,1,2.65,1.26H428.29l-.05-.55c2.62-.64,5.27-1.15,7.85-1.93,7.63-2.32,11.41-7,12-14.88.27-3.36.26-6.74.26-10.11q0-40.49,0-81c0-1.87,0-3.75-.17-5.62-.74-9.3-4.93-14.19-14.06-16.49-1.91-.48-3.84-.88-5.76-1.32Z" transform="translate(-51.12 -339.43)"/><path class="cls-3" d="M744.22,560.81c-8.4,3.2-17.23,4-26.08,4.05-21.73.18-43.46.07-65.19.06a2.51,2.51,0,0,1-2.42-.85c1.91-.39,3.59-.76,5.27-1.09,10-1.92,14.71-7.42,14.8-17.64.13-14.74,0-29.47.05-44.21q0-20.61,0-41.21A42.79,42.79,0,0,0,668.86,447c-1.91-6.11-6.06-10.17-11.71-12.87-.71-1.63.22-2,1.56-2,11.27.12,22.55-.3,33.82.21,1.59,1.53,1,3.51,1,5.32,0,30.06.09,60.11,0,90.17,0,6.14,1.83,12.09,1.5,18.22a41.81,41.81,0,0,0,.21,4.48c1,7.56,5.16,11,12.78,11.41a71.25,71.25,0,0,0,27.93-4.16,3.56,3.56,0,0,0,2.44-1.33A58.4,58.4,0,0,0,749,547.92c.94-1,2-1.87,3.56-1.49,2.83,1.49,2.49,3.62,1.12,5.88-1.19,2-3.22,2.91-5.11,4.08A11.35,11.35,0,0,0,744.22,560.81Z" transform="translate(-51.12 -339.43)"/><path class="cls-3" d="M1513.77,433.4q0,30.9,0,61.81a2.05,2.05,0,0,1,0,2.08q.08,21.88.18,43.75c0,2.49.11,5,.33,7.47.88,9.73,5.38,14.29,15.07,15.36-.08,1.46-1.23,1-2,1q-26.49,0-53,0c-.73,0-1.88.47-1.93-1,15.59-2.42,19.45-6.94,19.45-22.76q0-44.73,0-89.46c0-9.51-3.2-13.8-12.16-17a12.23,12.23,0,0,1-1.33-.66c-.43-.39-1.45-.27-1.36-1,.15-1.27,1.3-.8,2-.81,8.11,0,16.22,0,24.33,0,2.74,0,5.49,0,8.23,0C1512.54,432.17,1513.86,431.68,1513.77,433.4Z" transform="translate(-51.12 -339.43)"/><path class="cls-3" d="M805.69,562.23c7.84-3.2,10.84-9.36,10.83-17.47,0-31.19.09-62.37-.09-93.56-.06-10.14-4-14.53-13.87-17.14-1-.25-1.9-.58-2.85-.87,0-1.44,1.16-1.05,1.92-1.05,11.36,0,22.72.06,34.07-.08,2.72,0,2.63,1.39,2.63,3.28q0,26.4,0,52.8,0,27.5,0,55a11.72,11.72,0,0,0,.25,4.08c.74,6.86,2.86,12.85,9.87,15.79.43.39,1.33.24,1.39,1s-.74.8-1.29.81c-3,0-6,0-9,0q-16.6,0-33.19,0c-.89,0-2.16.43-2.41-1C803.77,562.6,805.11,562.77,805.69,562.23Z" transform="translate(-51.12 -339.43)"/><path class="cls-3" d="M1052.44,562.26c8.63-3.42,11.06-10.42,11-18.92,0-9.36,0-18.71,0-28.07q0-29.56,0-59.13c0-1,0-2,0-3,.31-8.52-2.56-15.13-11-18.39-.59-.53-1.9-.37-1.71-1.62s1.25-1,2.07-1c10,0,20,0,30,0,1.88,0,2.31.8,2.29,2.48-.27,20.36.3,40.72-.28,61.08-.15,5.07.27,10.21.25,15.32-.07,12.24.17,24.49-.08,36.73a13.2,13.2,0,0,0,1.95,7c2.11,5.06,6.18,7.69,11.27,9-.14,1.67-1.46,1.05-2.28,1.06q-21.35.06-42.71,0c-.89,0-2.17.46-2.45-1C1050.5,562.62,1051.83,562.76,1052.44,562.26Z" transform="translate(-51.12 -339.43)"/><path class="cls-3" d="M1829.36,545.75c1.89,12,5,15.25,16.83,17.62a8,8,0,0,1,3.23,1.16h-61.95l-.05-.4c2.82-.64,5.7-1.12,8.46-1.95,6.49-1.95,10.29-6.3,11.13-13.11a37,37,0,0,0,.5-4.46q0-56-.06-112c6.65-1.08,13.35-.22,20-.46,1.66-.06,1.6,1.19,1.6,2.34,0,7.1.17,14.2-.1,21.28-.11,2.74.4,5.45.09,8.17-1.32,5.9-.61,11.88-.64,17.82a10.41,10.41,0,0,1,.23,1.19c-.15,3.32-.81,6.65.4,9.92-.28,9.22-.2,18.45-.59,27.68a60.94,60.94,0,0,0,.57,10.73c-1.36,4.12-.51,8.34-.62,12.52A4.54,4.54,0,0,0,1829.36,545.75Z" transform="translate(-51.12 -339.43)"/><path class="cls-3" d="M1414,562.28c1.18-3.59,4.82-4.45,7.37-6.47,1.34-1.06,2.29-1.81,1.48-3.55s.4-2.81,1.35-3.9c10.57-12.16,14.84-26.66,15.62-42.4.53-10.63.27-21.22-2.58-31.59-4-14.67-11.42-26.83-25.37-34.12-1.34-.7-2.72-1.43-2.43-3.34a3,3,0,0,1,2.5-3c23.25,4.44,40.72,16.58,50.06,38.77A65.7,65.7,0,0,1,1438.63,552,59.77,59.77,0,0,1,1414,562.28Z" transform="translate(-51.12 -339.43)"/><path class="cls-3" d="M744.22,560.81c-1-2.68.8-5.43,4.41-6.86,3.07-1.21,5.06-3,3.82-6.69-1.1-1.56-.24-2.88.6-4.12,7.05-10.44,10-22.14,11.23-34.53,1.35-13.51.3-26.71-4.07-39.55-4.13-12.12-11.29-21.92-22.77-28.17-1.33-.73-2.71-1.43-2.58-3.3.14-2.78,1.58-3.28,4-2.37a18.48,18.48,0,0,0,6.88,1c24.6,7.92,40.26,24.29,44.64,49.85,4.12,24-2.69,45-21.3,61.45A58.21,58.21,0,0,1,744.22,560.81Z" transform="translate(-51.12 -339.43)"/><path class="cls-3" d="M999.21,438.43a5,5,0,0,0-1.1-2.69c-1.47-1.86-.08-2.28,1.39-2.63,18.2,2.35,34.61,14.74,37.52,32.42,2.65,16.16-5.67,31.94-21.66,39.76-11.45,5.6-23.62,6.62-36.16,5.38,2.7-.38,5.43-.59,8.09-1.18,13.34-3,21.18-11.61,24.47-24.52a54.4,54.4,0,0,0-.35-28.14A35.29,35.29,0,0,0,999.21,438.43Z" transform="translate(-51.12 -339.43)"/><path class="cls-3" d="M1828.69,531.5c-.24-6.32-2.93-12.55-.38-19,.63-1.59.16-3.68-.06-5.52-.58-4.86.6-9.65.43-14.48-2-3.12-.31-6.51-.75-9.75-.11-6-1.37-12.08.75-18,0-9.21-.09-18.42,0-27.62.05-3.3-1-4.81-4.47-4.67-5.6.22-11.22.12-16.83.16a130.52,130.52,0,0,0-13.46.4c-9.59,1.07-16.46,6-21.3,14.1-4.5,7.55-7.23,15.88-10.61,23.92-.51,1.22-.65,2.64-1.82,3.59-1.07-.59-.63-1.57-.63-2.33,0-12.37.05-24.74-.11-37.1,0-2.85.84-3.52,3.59-3.52q55.47.13,110.94,0c2,0,3.52-.08,3.48,2.83-.15,12.87-.06,25.74-.07,38.6a19.41,19.41,0,0,1-.29,2,13,13,0,0,1-2.74-5.94,6,6,0,0,0,.64-2.47c-.47-8.59-.1-17.19-.23-25.79-.09-5.38-1.25-6.63-6.67-6.6a136.16,136.16,0,0,1-22.2-1.19c-4.23-.21-8.47-.28-12.67-.69-3.21-.31-3.9.92-3.89,4q.16,52.77.07,105.54c0,1.25-.07,2.49-.1,3.74l-1.41-.75C1827.62,540.47,1826.6,535.9,1828.69,531.5Z" transform="translate(-51.12 -339.43)"/><path class="cls-4" d="M838.58,547.23c-.88-1.76-.63-3.66-.63-5.52q0-51.84,0-103.69c0-5.39-.12-5.51-5.4-5.52q-14,0-28.07,0c-1.61,0-3.26-.15-4.76.69-1.11.05-2.24.18-3.18-.91.77-.92,1.81-.54,2.69-.54,35.21,0,70.42,0,105.63-.09,3,0,3.74.93,3.7,3.8-.16,10.49,0,21-.1,31.46,0,.69.61,1.89-.82,2-.23,0-.5-.73-.75-1.12-1.68-8.67-.85-17.44-1-26.18-.13-5.92-1.36-7.34-7.32-7.2-10.22.25-20.38-.5-30.55-1.23-8.6-.51-17.2-.63-25.82-.68-2.82,0-3.57.8-3.55,3.59q.18,28.1,0,56.2c0,2.62.69,3.45,3.34,3.32,6.48-.3,13-.07,19.45-.82,7.55-.88,13.08-4.43,16.54-11.24,2.11-4.14,3.41-8.57,4.89-12.93a7.25,7.25,0,0,1,1.79-3.18V525l-.66.11c-1.07-3.14-2.22-6.26-3.2-9.43-3.48-11.32-10.41-18.24-22.9-18.32q-8.42-.06-16.84-.45c-2.58-.12-2.36,1.47-2.36,3.13q0,22.1,0,44.21C838.65,545.24,838.6,546.24,838.58,547.23Z" transform="translate(-51.12 -339.43)"/><path class="cls-3" d="M1086.91,554.74a9.83,9.83,0,0,1-2.51-7.19c.62-10,.23-20,.26-29.93.09-26.62,0-53.23,0-79.85,0-5.09-.18-5.26-5.27-5.27-8.36,0-16.72,0-25.08,0-1.14,0-3.78-.65-1.89,2.21l-9-2V432a22.54,22.54,0,0,1,2.61-.3c35.25,0,70.5,0,105.74-.08,2.85,0,3.56.82,3.52,3.58-.15,11.2-.06,22.41-.06,33.66-1.69,0-1.8-1.2-2.23-2-2.53-4.45-5.1-8.88-7.45-13.43-6.8-13.16-18-19.09-32.35-20.31-7.74-.66-15.48-.49-23.22-.74-3.52-.11-4.66.71-4.62,4.46.2,19.5.09,39,.09,58.5a1.23,1.23,0,0,1,0,1.65c0,14.8,0,29.6,0,44.4A48.69,48.69,0,0,0,1086.91,554.74Z" transform="translate(-51.12 -339.43)"/><path class="cls-3" d="M805.69,562.23c-1.76,3.24,1.16,2.2,2.24,2.21,8.68.1,17.37.06,26.06.06,4.22,0,8.44.06,12.65-.06.64,0,2.76,1,1.81-1.41a85.79,85.79,0,0,0,27.56-.2c11.67-1.92,20.34-8.43,26.44-18.45,3.42-5.61,6.79-11.25,10.2-16.9,1.46.91.95,2,1,2.91,0,10.36,0,20.73.07,31.09,0,2.46-.48,3.52-3.24,3.52q-55.82-.12-111.64-.07c-.8,0-1.76.33-2.36-.75Z" transform="translate(-51.12 -339.43)"/><path class="cls-3" d="M1052.44,562.26c-1.76,3.29,1.23,2.16,2.26,2.17,9.93.1,19.87.17,29.81,0,4.56-.07,9.18.82,13.67-.66,8.84-.06,17.7.61,26.48-1.36a36.26,36.26,0,0,0,23.13-15.93c3.38-5.09,6.38-10.43,9.6-15.64.69-1.12,1-2.53,2.4-3.17,1,.62.62,1.6.62,2.38,0,10.49-.06,21,.07,31.48,0,2.58-.7,3.43-3.34,3.42q-55.65-.11-111.3-.06c-.83,0-1.77.29-2.56-.73Z" transform="translate(-51.12 -339.43)"/><path class="cls-3" d="M1513.77,433.4a6.43,6.43,0,0,0-3.94-.9c-9.73,0-19.46,0-29.19.06-.74,0-2.86-1.16-2.2,1.41a11.31,11.31,0,0,1-6.3-2c1-.07,2-.19,3.06-.19,35,0,69.9,0,104.86-.07,3.11,0,4,.85,4,4-.19,10-.06,20-.09,30,0,1.08.3,2.23-.4,3.31-1.37.13-1.48-1.11-1.9-1.85-2.71-4.77-5.39-9.56-8-14.39-6.41-11.92-16.75-17.73-29.82-19.24-9.32-1.07-18.69-.91-28.05-.84A2.46,2.46,0,0,0,1513.77,433.4Z" transform="translate(-51.12 -339.43)"/><path class="cls-3" d="M1541.51,563.89a56,56,0,0,0,16.88-3c8.79-3.13,15-9.26,19.72-17,3.3-5.4,6.54-10.84,10.51-16.1v36.69a2.32,2.32,0,0,1-1.4.4q-21.87,0-43.73,0C1542.75,564.85,1541.61,565.33,1541.51,563.89Z" transform="translate(-51.12 -339.43)"/><path class="cls-4" d="M1085.47,497.08q0-.83,0-1.65a163.9,163.9,0,0,0,23.17-.71c7.39-.9,12.78-4.51,16.12-11.23a98.2,98.2,0,0,0,4.9-12.92c.37-1.1.41-2.38,1.86-3.48v58.2c-1.38-1.05-1.5-2.28-1.86-3.36a88.19,88.19,0,0,0-5.48-13.9c-3.25-6.12-8.44-9.37-15.17-10.22A145.51,145.51,0,0,0,1085.47,497.08Z" transform="translate(-51.12 -339.43)"/><path class="cls-3" d="M1513.79,497.29v-2.08a106.78,106.78,0,0,0,25.7-.94c7.21-1.23,11.75-5.79,14.48-12.24,2-4.77,3.64-9.71,5.93-14.51v57.26c-1.24.16-1-1-1.29-1.72a123.14,123.14,0,0,0-5.28-14c-3.43-7-9.08-10.66-16.79-11.39A121.9,121.9,0,0,0,1513.79,497.29Z" transform="translate(-51.12 -339.43)"/><path class="cls-4" d="M868,433.17a17.33,17.33,0,0,1,3.26-.64c10.85,0,21.7,0,32.55,0,2.29,0,3.92.51,3.91,3.26,0,9.85,0,19.7-.06,29.55a9.2,9.2,0,0,1-.74,2.47c-2.59-4.54-5.31-9-7.73-13.64-6.12-11.66-15.44-18.7-28.65-20.34A20.89,20.89,0,0,1,868,433.17Z" transform="translate(-51.12 -339.43)"/><path class="cls-3" d="M1846,433.2c1.74-1,3.65-.68,5.51-.69,7.12,0,14.24,0,21.35,0,2.63,0,3.91.92,3.89,3.7-.07,10.11,0,20.23,0,30.35,0,1.39.35,3.34-2.24,2.73-2.39-5.59-4.69-11.22-7.19-16.76C1863,443,1856.58,435.73,1846,433.2Z" transform="translate(-51.12 -339.43)"/><path class="cls-3" d="M692.74,432.63,661,432.51c-1.51,0-3,0-3.87,1.61-4.87-1-9.67-2-14.75-1.11-10.21,1.8-16.24,7.45-18.14,17.6-.32,1.71-.59,3.43-.88,5.15-.7,7.46-.08,14.94-.35,22.4,0,1,.94,2.58-1,3.07-.46-8.35,0-16.72-.7-25.07-1.33-15-6.62-20.77-21.48-23a3.48,3.48,0,0,1-2.1-1.13,24.48,24.48,0,0,1,2.57-.26q59.56,0,119.12,0c2.1,0,4.25-.22,6.29.58a2.92,2.92,0,0,1-1.07,2.64c-3.28,1.18-6.59.34-9.9.11-6.61,0-13-2.05-19.69-1.54A2.64,2.64,0,0,1,692.74,432.63Z" transform="translate(-51.12 -339.43)"/><path class="cls-5" d="M622,481.23c1.41-6.12.31-12.34.67-18.5.13-2.33-.42-4.73.68-7q0,36.55.09,73.1c0,11.62,0,23.24,0,34.87,0,1.25.74,2.76-.73,3.77,0-10.48,0-21,0-31.44,0-2.16-.11-4.24-1.52-6,1.63-.9.87-2.44.88-3.68C622.09,511.31,622.05,496.27,622,481.23Z" transform="translate(-51.12 -339.43)"/><path class="cls-6" d="M1541.51,563.89c2.06.71,4.2.48,6.31.48q20.4.08,40.8.1c-1.18,1.06-2.62.6-3.93.6q-54.58,0-109.16,0c-1.2,0-2.5.41-3.58-.51a.35.35,0,0,1,0-.34,3.33,3.33,0,0,1,.53-.37,26.16,26.16,0,0,0,3.65.51q24.78,0,49.55,0a27.78,27.78,0,0,0,3.67-.48Z" transform="translate(-51.12 -339.43)"/><path class="cls-3" d="M724.69,433.93c-.3-.34-.93-.84-.86-1,.4-.74,1.25-.41,1.9-.59a60,60,0,0,1,20,3.87,8.39,8.39,0,0,1-6.85,0c-1.55-.65-2.68-.43-2.92,1.49a1.8,1.8,0,0,1-1.11.88C731.89,439.11,725.75,436.27,724.69,433.93Z" transform="translate(-51.12 -339.43)"/><path class="cls-7" d="M186.22,551.77,172.64,567.3c-1.27-1.28-.16-2,.27-2.69,5-7.92,10.08-15.8,15.08-23.72a7,7,0,0,1,3.8-2.81q13.16-4.91,26.27-10c1.35-.52,2.92-.79,3.8-2.33-1.81-.52-3.1.8-4.62,1.09-1.28.24-2.62,1.63-3.82.36s-1.89-2.69-.57-4.43c-1.49.9-3,1.85-4.48,2.68-1.06.58-2.16,2.12-3.31,0-.89-1.65-1.61-3,.58-4.39a11.46,11.46,0,0,0,4.5-4c-4.05,1.36-6.87,3.9-10.19,5.45-1.09.51-2.26,2.72-3.68.42-1.21-2-1.09-3.55,1.25-4.86,2.8-1.57,5.38-3.53,8.06-5.32l-.53-.93c-3.64,2-7.21,4.13-11,5.91-1.43.68-3.09,3.24-4.68,1.14-2.19-2.91.8-4,2.71-5.26,3.19-2.07,6.41-4.09,9.61-6.12l-.49-.88c-4.62,2.33-9.19,4.76-13.89,6.92-1,.45-2.4,2.82-3.54.22-.77-1.77-1-3.51,1.42-4.66,3.8-1.84,7.45-4,11.16-6l-.39-.94-9.2,3.8c-1.73.72-3.42,1.56-5.2,2.12-1,.31-2.39,1.91-3.14,0-.63-1.61-.78-3.48,1.52-4.34,3.39-1.26,6.76-2.6,10.12-3.94a16.56,16.56,0,0,0,1.78-1.06c-3.62-.36-6.25,1.14-9,1.75-1.95.43-3.83,1.16-5.79,1.53-1,.19-2.72,1.42-3-.66-.2-1.53-.83-3.68,1.71-4.3s4.86-1.15,7.29-1.72a4.72,4.72,0,0,1,1.92-.9c-1.35.57-2.83-.52-4.24.16-3,.34-5.91.74-8.88,1-1,.08-2.73,1.21-2.81-1-.06-1.62.17-3.3,2.44-3.49,3.34-.27,6.67-.63,10-.95.77-.93-.14-1-.61-1-2.51.08-5-.36-7.52.24-2.5,0-5,.14-7.5.06-1.2,0-3,.69-3.07-1.61s1.34-2.31,2.95-2.31c4.87,0,9.74,0,14.62-.11-10.54-1.84-21.25-1.81-32.09-3,.82-1.62,2.84-1.07,3.92-2.71l-13.14-5.22c1.39-1.33,3.13-.19,4.55-1.6l-11.81-7.4h9l-9.7-9.21c1.2-1.1,2.41,0,3.83-.8-3.13-3.68-5.87-7.58-6.15-12.74,3.18,4.9,8.28,7,13.38,9.39-3.7-5.8-7.69-11.44-7.5-19.67,3.61,6.76,8.57,11.09,14.55,14.59-4.08-6.78-6.78-13.91-6.46-22.17,3.49,8.58,10,14.25,17.74,19.07-5.36-8-10.12-16.14-9.09-26.36,1.94.54,2,2.46,2.33,3.82,1.4,5.12,4.58,8.75,8.25,12.53,9.45,9.71,20.93,16,32.95,21.68a14.57,14.57,0,0,1,5.87,5c7.14,10.1,14.43,20.1,21.6,30.17,2.42,3.4,5.76,5.7,9,8.33-1.31-7.13,5.92-3.26,7.5-6.5l-4.4-.37c1.91-2.06,4.37-1.31,6.54-2.51-3.75-1.95-7.84-.79-12.38-2.36,9.53-.72,17.86-4.8,27.28-1.55-4.78-4.26-10.05-3.83-15.94-3.5,4.53-2.37,7.71-2.57,15.78-1.33-2.09-2.5-2.09-2.5-11.36-4.54a14.25,14.25,0,0,1,14.14,1.59c-1.77-4.89-3.71-5.87-10.94-6.42,2.58-1.19,5.52-2.58,8.13-1.72s4.61,3.28,7.1,4.77c-2.47-4.47-4.22-9.71-11.58-9.11,8.87-4,11.66,2.89,16.27,7a91.85,91.85,0,0,1-3.83-8.4c-1.36-3.91-5.37-3.12-7.87-4.93,5-.58,8.53,0,9.7,1.9a52.08,52.08,0,0,0,6.11,8.69c-1-3.17-2.37-6.28-3-9.52-.78-4.38-4.87-4-7.84-5.82,7.39-.44,8.56.26,11.15,6.38a43.87,43.87,0,0,0,2.92,6c.27-3.65-1.36-6.93-1.79-10.4-.57-4.58-5.12-4.62-7.59-7,3.25-.1,8.57,1.91,9.32,3.77,1.29,3.23,2.34,6.55,3.74,10.55,1.14-3.1.1-5.41-.39-7.63s0-5.13-2.41-6.84c-2-1.44-4-2.9-6.27-4.57,10.88,1.18,11.3,10,13.69,17.38.44-4.32-.63-8.46-1.41-12.56-.86-4.54-5.77-5.87-8.2-9.24,10.22,2.22,11.8,10.57,13.24,19.06.54-8.23.05-16-7.13-21.51-.17-.7,0-1,.8-.8,1.43,1.19,2.77,2.51,4.3,3.56a8.83,8.83,0,0,1,4.18,7.43,37.77,37.77,0,0,0,1.12,5.57c1.6-5.65.32-10.23-4.37-17.26-.22-.78.11-1,.85-.86,3.87,3.08,6.92,6.62,6.83,12a2.1,2.1,0,0,1,.54,1,5.29,5.29,0,0,1,.1,1.15c.19-2.52.79-5.38.12-8.25-.49-3.06-3.16-4.95-4.35-8.12,3.05,1.14,4.15,3.77,5.72,5.8s.81,5.06,2,7.57c1.71-6.93-2.18-12.35-4.1-18.33,2.94,4.41,6.8,8.31,7,14.15a13,13,0,0,0,.3-8c-.68-2.48-1.31-5-2.11-8,3.07,1.73,2.43,5.15,4.75,7.07l2.19-7.2c1,2.54.26,4.75.85,7.59l6.45-9.19.62.36-3.29,7.23.45.46,11.43-8.05a5,5,0,0,1-1.51,3.44c-1.31,1.83-2.56,3.71-4,5.41A104.19,104.19,0,0,0,294.77,474c-.88,3.17-2.93,4.84-5.95,6.12-6.37,2.7-13.44,4.06-18.66,9.2-.75.74-2.34.72-3.56.89-2.81.39-5.64.69-8.78,1.06a4.74,4.74,0,0,0,3.57.58c6.9-.87,13,1.66,19.08,4.32,2.47,1.08,4.29,2.72,4.57,5.45.23,2.32,2.12,3.28,3.33,4.8,1.46,1.84,2.64,3.71,1.52,6.14-.6,1.3-1.55,2.5-3,2.49s-.6-1.6-1-2.38c-.63-1.09-1.18-2.51-2.69-2.11-1.87.5-.66,1.68-.27,2.63.22.53.86,1.16.24,1.64a2.62,2.62,0,0,1-2.87.06c-3.73-2.26-7.74-.76-12.12-1.45,1.59,1.59,3.27,1.22,5.07,2.2l-18.74,22.08c1.93.68,2.26-1.4,4-1.17.78,3.91-1.49,8.43.44,12.11s5.89,5.6,9.16,8c1.29-.62-.8-2.13.61-2.42,2.22-.46,2.79,1.92,4.14,3,.85-1.55-1-2.37-.58-3.91,6-1.25,12.07-2.58,18.19-3.75,3.09-.59,17.74,8.14,18.8,11,1.26,3.42-.84,6.44-5.13,6.87-6.21.63-12.45,1-18.68,1.49-2.6.22-5.18.58-7.73.88-.63-1.46,1-1.73,1.05-3.44-8.17,5.43-16.84,9-26.48,12.83l1.92-3c-.67-.68-1.18-.18-1.62.16-7.55,5.88-16,10.18-24.68,14.06-4.73,2.11-9.26,2.62-14.1.6-3.69-1.53-7.5-2.76-11.25-4.14-1.76-.65-3.06-1.7-3.06-3.79s1.64-2.84,3.31-3.53c4.21-1.76,8.31-2.4,12.44.37a4.71,4.71,0,0,0,4.53.86l-16-9.27c10.53-3.56,20.45-6.26,31-9.12-5-3.54-9.41-7.39-11-13.55-.29,2.66,1.25,5.59-2.45,7-1.86.7-2.78,1-2.66-1.47a16.25,16.25,0,0,0-.56-5.61c-.32,2.37-.74,4.72-.94,7.1-.13,1.54-.9,2.1-2.28,2.45-4.74,1.22-5,1-4.12-3.76a7.23,7.23,0,0,0,.06-3.78,9.35,9.35,0,0,0-2,5c-.53,3.41-2.66,4.07-5.6,4-1.75,0-2.25-.6-1.69-2.24.75-2.21,1.44-4.44,2.48-7.65a10.44,10.44,0,0,0-3.64,5.6c-1.41,4.19-4.19,5.53-8.76,4.55L196,551c-2.91,1.65-4.39,4.37-5.86,6.93-2,3.42-4.75,3.9-8.43,3.48,1.28-3.42,3.84-5.77,5.32-8.75a6.71,6.71,0,0,1,.7-1.78A4.78,4.78,0,0,1,186.22,551.77Z" transform="translate(-51.12 -339.43)"/><path class="cls-8" d="M294.3,441.3c1,4.26.56,8.58,0,13l-.76-6.84C294.55,445.49,293.86,443.32,294.3,441.3Z" transform="translate(-51.12 -339.43)"/><path class="cls-9" d="M173.4,489.4c4-1,8.1-.36,12.21-.31-1.14,1.23-2.58,1.23-4.09,1C178.9,488.94,176.07,490,173.4,489.4Z" transform="translate(-51.12 -339.43)"/><path class="cls-10" d="M180.77,494.61l8.61-1.58c-1.87,1.68-4.1,1.93-6.29,2.31Z" transform="translate(-51.12 -339.43)"/><path class="cls-11" d="M280.64,437l-.8.8-5.25-4.93.73-.75Z" transform="translate(-51.12 -339.43)"/><path class="cls-12" d="M186.22,551.77l4.28-5.36.7.51-4.15,5.7Z" transform="translate(-51.12 -339.43)"/><path class="cls-13" d="M286.72,435.48l-.85.86-4.31-5.19A11.06,11.06,0,0,1,286.72,435.48Z" transform="translate(-51.12 -339.43)"/><path class="cls-7" d="M1409.44,436.9c21.43,10,29.78,28.42,32,50.45,1.45,14.11.63,28.15-4,41.77a56.12,56.12,0,0,1-14.62,23.14c-12.22,10.17-26.6,12.48-41.87,11.49-7.06-.46-11.42-5-12.1-12.34a9.07,9.07,0,0,1-.31-3.7q0-55.43,0-110.86c0-4,0-4,4.1-4,6.35.13,12.71-.41,19.05.29C1397.88,433.22,1403.67,435,1409.44,436.9Z" transform="translate(-51.12 -339.43)"/><path class="cls-1" d="M1391.72,433.18l-16.48.07c-6.28,0-6.29,0-6.29,6.14q0,53,0,106c0,2,0,4-.05,6-1.06-1.85-.73-3.9-.73-5.87q-.05-54.71-.1-109.42c0-2.73.61-3.81,3.51-3.61C1378.27,433,1385,431.86,1391.72,433.18Z" transform="translate(-51.12 -339.43)"/><path class="cls-7" d="M724.69,433.93,736,437.72c20,10.42,27.87,28.18,30.09,49.39,1.72,16.37.31,32.34-6.12,47.68-1.9,4.53-4.78,8.44-7.48,12.47a69.85,69.85,0,0,1-12.69,10.51c-.48,1.57-1.59,1.92-3.06,1.57a69.26,69.26,0,0,1-28.18,4.57c-10.65-.35-15.61-5.48-15.36-16.23-.57-1.32-.33-2.71-.33-4.08q0-53.24,0-106.48c0-4.25,0-4.33,4.21-4.24,6.36.14,12.73-.44,19.07.31Z" transform="translate(-51.12 -339.43)"/><path class="cls-1" d="M716.1,433.2l-17.58.05c-5.14,0-5.32.17-5.32,5.21q0,29,0,58,0,25.62,0,51.24a23,23,0,0,1-.47-3.31q0-55.87.05-111.74C700.53,432.84,708.34,431.84,716.1,433.2Z" transform="translate(-51.12 -339.43)"/><path class="cls-3" d="M736.69,559.34a6.68,6.68,0,0,1,3.06-1.57c1.44,1.28.43,1.84-.7,2.32C738.08,560.5,736.91,561.36,736.69,559.34Z" transform="translate(-51.12 -339.43)"/><path class="cls-3" d="M1828.69,464.75c-1.35,6-.1,12-.75,18C1827,476.7,1826,470.65,1828.69,464.75Z" transform="translate(-51.12 -339.43)"/><path class="cls-3" d="M1828.69,531.5c-1.29,4.44-.56,9-.75,13.5C1827.08,540.44,1826,535.87,1828.69,531.5Z" transform="translate(-51.12 -339.43)"/><path class="cls-3" d="M1827.94,482.75l.75,9.75C1826.09,489.43,1827.57,486,1827.94,482.75Z" transform="translate(-51.12 -339.43)"/><path class="cls-14" d="M250.58,558.72c.22,1.14,1.5,1.92,1.28,3.44-1.83-.77-2.32-3.63-5.14-2.68l1.59,3.4c-7.27-4.13-10-10.21-9.3-18.31,3.26,6.58,9.57,9.11,15.76,11.78C253.64,558.2,251.88,557.49,250.58,558.72Z" transform="translate(-51.12 -339.43)"/><path class="cls-15" d="M164.33,467.85c-4.76-1-9.53-1.92-14.26-3-4.06-.93-5.55-4.9-8.31-7.62,6.78,6.55,15.77,7.4,24.1,9.89C165.93,468.54,165.07,468.07,164.33,467.85Z" transform="translate(-51.12 -339.43)"/><path class="cls-16" d="M162.16,438.17a34.86,34.86,0,0,0,20.7,16.77C174.07,455.2,166.35,449,162.16,438.17Z" transform="translate(-51.12 -339.43)"/><path class="cls-17" d="M167.3,473.89c-8.76-1.33-17.76-1.6-25.77-6.3l26.6,5.51C168.29,473.81,168.12,474.18,167.3,473.89Z" transform="translate(-51.12 -339.43)"/><path class="cls-18" d="M168.05,462.68c-4.45-1.09-8.92-2.12-13.36-3.3-3.44-.91-4.65-4.26-6.83-6.55-.18-.77.13-1.06.89-.88,5.15,6.47,13,7.34,20.11,9.9C169,462.54,168.86,462.92,168.05,462.68Z" transform="translate(-51.12 -339.43)"/><path class="cls-16" d="M171.43,456.51c-6.89-.8-13.58-2-16.21-9.68,3.42.74,4.33,4.78,7.42,6S168.5,455.27,171.43,456.51Z" transform="translate(-51.12 -339.43)"/><path class="cls-19" d="M239.15,566.85l-20.35,6.71A51,51,0,0,1,239.15,566.85Z" transform="translate(-51.12 -339.43)"/><path class="cls-20" d="M164.23,479.11c-4.32.24-8.26-1.17-12.09-3.27l16,2.53C167.16,480.35,165.58,479.15,164.23,479.11Z" transform="translate(-51.12 -339.43)"/><path class="cls-21" d="M230.81,573.5,246.09,568l.37,1-15.37,5.55Z" transform="translate(-51.12 -339.43)"/><path class="cls-22" d="M201.53,479.4c-2.93,1.79-5,3.12-7.16,4.35-.79.45-1.65,1.59-2.59.76-.74-.66-.46-1.84-.24-2.69C195.22,483.45,197.33,479.46,201.53,479.4Z" transform="translate(-51.12 -339.43)"/><path class="cls-23" d="M213.29,586.14c-1.89.15-3.39-.75-5-1.22-.88-.27-2.31-.29-2.16-1.52s1.72-1.2,2.72-1.5c2-.6.73.85,1,1.5C210.32,584.87,212.51,584.44,213.29,586.14Z" transform="translate(-51.12 -339.43)"/><path class="cls-24" d="M276.48,557a31.07,31.07,0,0,1,12.14-2.21A32,32,0,0,1,276.48,557Z" transform="translate(-51.12 -339.43)"/><path class="cls-25" d="M191.76,469.39c-2.11,1.3-4.21,2.62-6.33,3.9-.61.37-1.36,1-1.94.14a2.74,2.74,0,0,1-.22-1.8c.24-1.61,1-.16,1.48-.18C187.3,471.35,189.06,469.14,191.76,469.39Z" transform="translate(-51.12 -339.43)"/><path class="cls-24" d="M190.84,462.11c-2.89,1.86-5,3.24-7.17,4.59-.51.32-1.25.76-1.63.09a2.94,2.94,0,0,1-.25-2.12c.39-1.23.85.13,1.31.12C185.64,464.72,187.34,462.39,190.84,462.11Z" transform="translate(-51.12 -339.43)"/><path class="cls-25" d="M164.23,479.11c1.3-.23,2.69,0,3.89-.74l9.49,1.38-.1.92Z" transform="translate(-51.12 -339.43)"/><path class="cls-26" d="M205.29,485c-1.9,1.22-3.78,2.45-5.7,3.63-.58.36-1.36,1-1.89.05a2.53,2.53,0,0,1-.13-1.79c.48-1.67.95.28,1.47.05l5.94-2.51Z" transform="translate(-51.12 -339.43)"/><path class="cls-27" d="M260.71,564.12c2.78-1.82,6-2.36,10.29-2.69C267.19,563.6,264,563.75,260.71,564.12Z" transform="translate(-51.12 -339.43)"/><path class="cls-28" d="M164.33,467.85l1.53-.75,9.49,2.44A29,29,0,0,1,164.33,467.85Z" transform="translate(-51.12 -339.43)"/><path class="cls-29" d="M246.8,515.93c-.26,1.74-1.4,2.59-2.13,3.76C242.44,516.68,242.44,516.68,246.8,515.93Z" transform="translate(-51.12 -339.43)"/><path class="cls-30" d="M211.21,489.53c-1.65,1-3.29,2.09-5,3.09-.58.35-1.31,1.05-1.89.15a2.33,2.33,0,0,1-.15-1.79c.55-1.56.9.38,1.46.14,1.68-.74,3.38-1.44,5.08-2.15Z" transform="translate(-51.12 -339.43)"/><path class="cls-31" d="M148.75,451.95l-.89.88-4.57-5.06.92-.89Z" transform="translate(-51.12 -339.43)"/><path class="cls-32" d="M216.81,493.88c-1.83,1.2-3.19,2.12-4.58,3-.56.35-1.25.45-1.45-.37-.16-.65-.3-1.63.89-1.46C213.35,495.29,214.46,493.61,216.81,493.88Z" transform="translate(-51.12 -339.43)"/><path class="cls-33" d="M168.05,462.68l.81-.83,7.31,2.19A15.63,15.63,0,0,1,168.05,462.68Z" transform="translate(-51.12 -339.43)"/><path class="cls-31" d="M167.3,473.89l.83-.8a14.77,14.77,0,0,1,7.12,2.28Z" transform="translate(-51.12 -339.43)"/><path class="cls-34" d="M220.7,498.38c-.81,1.38-2.13,1.79-3.19,2.51-.67.45-1.43.63-1.55-.51-.07-.64-.11-1.89.81-1.55C218.2,499.38,219.25,498,220.7,498.38Z" transform="translate(-51.12 -339.43)"/><path class="cls-25" d="M224.71,502.36c-1.22,1.44-2.73,3.64-4.32,2.83-1.43-.73-.05-1.53,1.25-1.7A14.61,14.61,0,0,0,224.71,502.36Z" transform="translate(-51.12 -339.43)"/><path class="cls-35" d="M280.68,502.25c-.27,1.31-.95,1.56-1.74,1.52a1.82,1.82,0,0,1-2-2.15c0-.52.77-1.1.82-1A3,3,0,0,0,280.68,502.25Z" transform="translate(-51.12 -339.43)"/></svg>