<svg id="Layer_1" data-name="Layer 1" xmlns="http://www.w3.org/2000/svg" viewBox="0 0 2010.2 1000"><defs><style>.cls-1{fill:#fefefe;}</style></defs><title>Wired</title><path class="cls-1" d="M1008.27,689.2q-435.88,0-871.77.26c-8.81,0-9.77-2.36-9.75-10.24q.44-176.82,0-353.64c0-7.78,2-8.78,9.1-8.78q872.28.27,1744.57,0c6.62,0,9.32.34,9.3,8.58q-.58,177.85,0,355.7c0,7.31-1.82,8.27-8.57,8.27Q1444.66,689.07,1008.27,689.2Z"/><path d="M1006.1,328.33c54.48,0,109,.19,163.45-.18,8.4-.06,11,2,10.94,10.72q-.44,163.45,0,326.9c0,8.57-2.41,10.83-10.88,10.81q-164-.42-327.92,0c-7.72,0-9.74-2.1-9.72-9.79q.37-164.48,0-329c0-7.72,2-9.7,9.68-9.66C896.45,328.48,951.28,328.32,1006.1,328.33Z"/><path d="M309,676.41c-53.8,0-107.61-.23-161.41.24-9.55.08-12.67-1.78-12.63-12.09q.62-163,.12-325.91c0-7.42,1-10.57,9.75-10.54q165,.5,330,.05c7.4,0,9.13,2.29,9.12,9.31q-.28,165,0,330c0,7.39-2.45,9.09-9.46,9.06C419.31,676.28,364.14,676.4,309,676.41Z"/><path d="M1702.27,328.32c54.49,0,109,.17,163.47-.17,8.74-.06,11.57,2,11.54,11.34q-.54,163-.09,325.91c0,8.06-1.43,11.23-10.51,11.2q-163.47-.52-326.94-.05c-9,0-11.49-2.13-11.46-11.31q.51-163,0-325.91c0-9.41,2.83-11.26,11.56-11.2C1594,328.51,1648.12,328.32,1702.27,328.32Z"/><path d="M1347.33,622.59c-30.84,0-61.68-.22-92.52.14-7.72.09-11.48-1.54-10.63-10.18.74-7.47.35-15.07.09-22.6-.18-5.25,1.78-7.74,7.16-7.21a40.19,40.19,0,0,0,4.11,0c21-.11,21-.11,21-20.69,0-43.52-.19-87,.18-130.56.06-7.59-1.73-9.86-9.57-9.74-22.87.37-22.88,0-22.83-22.81,0-16.31,0-16.31,16.17-16.31,59.28,0,118.56.16,177.84-.18,8.18,0,11.35,1.46,11,10.49-.75,19.5-.43,39.06-.1,58.58.1,5.85-1.7,7.9-7.55,7.69-9.92-.36-19.88-.31-29.81,0-5,.14-6.66-1.74-6.5-6.56.25-7.87-.14-15.77.16-23.64.2-5.28-1.67-7.21-7.08-7.15-23,.23-45.92.19-68.87,0-4.51,0-7.08.91-7,6.11.18,15.08.25,30.16,0,45.23-.1,6.18,3.47,6.3,8,6.28,16.45-.09,32.9.25,49.34-.18,6.8-.18,8.64,2.1,8.75,8.76.52,30,.72,30-28.65,30-9.94,0-19.88.16-29.81-.06-4.89-.11-7.65.89-7.57,6.69.24,17.13.12,34.27,0,51.4,0,4.71,1.51,6.77,6.51,6.73q36-.24,72,0c5.35,0,7.26-1.81,7.06-7.15-.32-8.9.21-17.83-.18-26.72-.26-5.91,1.07-8.84,7.82-8.44a259.13,259.13,0,0,0,27.74,0c6.55-.32,8,2.37,8,8.43-.31,21.58-.44,43.18,0,64.76.17,7.63-2.8,9-9.59,9C1410.38,622.44,1378.85,622.6,1347.33,622.59Z"/><path d="M658.55,382.66c24.32,0,48.65.26,73-.16,7.36-.13,10.8,1.37,9.93,9.5-1,9.46,3.8,21.65-1.83,27.85-5.78,6.37-18.1,1.53-27.54,2a185.57,185.57,0,0,1-22.6,0c-6.52-.45-8,2.15-8,8.25.2,48,.26,95.92-.08,143.88-.05,7.55,2.66,9.12,9.5,8.9,14-.45,28.09.12,42.13-.22,6.19-.15,8.67,1.77,8.3,8.19a195.85,195.85,0,0,0,.08,23.62c.42,6.56-2.48,8.2-8.41,8.19q-75.54-.19-151.07,0c-5.24,0-7.41-1.62-7.19-7.07.32-8.21.35-16.45-.06-24.66-.3-6.15,1.69-8.46,8.13-8.28,14.38.41,28.78-.21,43.15.24,6.92.22,8.68-2.33,8.64-8.9q-.34-71.94,0-143.88c0-6.14-1.66-8.46-8.08-8.29-14.72.39-29.46-.11-44.18.21-5.72.13-8.08-1.52-7.62-7.48.78-10.18-4-23.13,1.83-29.85,5.61-6.45,18.74-1.76,28.55-2C622.92,382.4,640.74,382.66,658.55,382.66Z"/><path class="cls-1" d="M1069,510.85c5,1.69,7.49,2.84,10.12,3.38,17,3.53,24.9,15.09,26.27,31.21,2,23.54,2.92,47.17,4.5,70.75.3,4.47-1,6.12-5.62,6-9.93-.23-19.93-.73-29.79.19s-13.39-3.08-13.74-12.33c-.6-16.08-1.7-32.14-2.59-48.2,0-.34,0-.69,0-1-.75-27.77-5.06-32-32.73-32-19.53,0-39.07.29-58.59-.14-6.79-.15-8.81,1.94-8.72,8.66.34,25-.15,50,.31,75,.14,7.53-1.68,10.45-9.6,9.94a256.15,256.15,0,0,0-30.82,0c-7.92.45-9.53-2.65-9.5-10.07.3-59.62.17-119.25.17-178.87,0-14.39.26-28.79-.12-43.17-.16-5.88,1.74-7.57,7.54-7.55,49.69.2,99.37-.12,149.06.24,21.43.16,35.92,11.91,40.42,32.54,4.43,20.26,4.33,40.85,1,61.3C1103.32,496.45,1090.77,507,1069,510.85Z"/><path class="cls-1" d="M243.4,570.22q14.82-68.11,29.59-136,4.25-19.55,8.42-39.11c1.81-8.51,6.69-13.15,15.69-13.07s17.82.13,26.72-.12c10.42-.28,15.19,4.91,17.27,14.88,7.82,37.47,16.17,74.83,24.33,112.23,4.36,20,8.73,39.91,13.42,61.3,4.42-6.88,4.1-13.52,5.16-19.62q14-80.37,27.46-160.84c.91-5.46,3-7.42,8.58-7.19,10.26.42,20.56.33,30.83,0,5.65-.16,7.79.73,6.4,7.38-15.18,72.63-30,145.33-45,218-2.61,12.67-5.49,15.05-18.86,15.27-9.59.15-19.19.11-28.78,0-13.2-.13-16.27-2.5-19-15.13q-13.73-63.15-27.31-126.33c-2.5-11.55-5.17-23.05-9.73-34.48q-10.53,48.72-21.06,97.44c-4.7,21.71-9.7,43.36-14.07,65.13-1.88,9.38-6.93,13.51-16.28,13.37-11-.17-21.93-.27-32.89,0-10.43.3-15.24-4.68-17.27-14.69C195,549.4,182.55,490.16,170.27,430.89c-3.26-15.71-6.47-31.44-9.9-48.1,15,0,29.32.24,43.65-.11,6.3-.15,6.2,4.37,6.84,8.09,5,29.34,9.84,58.72,14.8,88.08q7.34,43.5,14.83,87C240.78,567.5,241,569.23,243.4,570.22Z"/><path class="cls-1" d="M1605.44,503.12c0-37,.25-74-.19-111-.09-7.83,2.17-9.63,9.74-9.56,40.06.38,80.13.24,120.2.13a124.59,124.59,0,0,1,24.43,2.83c26.57,5.23,43.52,21.36,49.41,47.51,10,44.65,9.89,89.78,1,134.5-6.69,33.67-29.21,51.91-63.39,53.63-44.82,2.25-89.7.45-134.54,1.12-6.83.1-6.73-3.37-6.72-8.26C1605.48,577.09,1605.44,540.1,1605.44,503.12Z"/><path d="M1004.47,489.82c-12.67,0-25.34-.25-38,.13-6,.18-8.54-1.41-8.39-7.94.38-16.76.32-33.55,0-50.31-.12-6,1.48-8.49,8-8.4q38.5.51,77,.11c9.9-.12,14.1,4.79,15.67,13.77a102,102,0,0,1,0,36.72c-2.3,12.32-6.08,15.8-18.38,15.9C1028.43,489.89,1016.45,489.81,1004.47,489.82Z"/><path d="M1654.89,502c0-23.3.2-46.59-.14-69.89-.09-6.5,1.51-9,8.48-8.86,22.26.4,44.54-.09,66.8.19,22.76.28,31.46,6.87,34.49,29.37a357.36,357.36,0,0,1-.69,103.38c-2.4,15.34-10.45,22.47-26.11,24.43-25.58,3.2-51.33.63-77,1.49-6.6.22-5.84-4.05-5.84-8.16Q1654.9,538,1654.89,502Z"/></svg>