<svg xmlns="http://www.w3.org/2000/svg" viewBox="0 0 103.18 106"><defs><style>.cls-1{fill:none;stroke:#fff;stroke-miterlimit:10;stroke-width:8px;}</style></defs><title>Asset 9</title><g id="Layer_2" data-name="Layer 2"><g id="content"><path class="cls-1" d="M32.84,47.55a21.73,21.73,0,1,1,.34-41L70,20.43a21.69,21.69,0,0,0,7.44,1.31A21.73,21.73,0,0,0,99.18,0"/><path class="cls-1" d="M32.84,100.55a21.73,21.73,0,1,1,.34-41L70,73.43a21.73,21.73,0,1,0,.34-41L32.84,47.55a21.7,21.7,0,0,1-7.1,1.19"/><path class="cls-1" d="M99.18,106A21.75,21.75,0,0,0,70.34,85.45l-37.51,15.1a21.7,21.7,0,0,1-7.1,1.19"/></g></g></svg>