<svg xmlns="http://www.w3.org/2000/svg" viewBox="0 0 134.3 77.22"><defs><style>.cls-1{fill:none;stroke:#fff;stroke-miterlimit:10;stroke-width:8px;}.cls-2{fill:#fff;}</style></defs><title>Asset 16</title><g id="Layer_2" data-name="Layer 2"><g id="page"><path class="cls-1" d="M7.3,73.22H22c10.29,0,24.66-6,31.93-13.26l25.8-25.69C87,27,101.37,21.22,111.67,21.22H125.3"/><polygon class="cls-2" points="111.94 42.41 106.34 36.69 122.56 21.12 104 5.99 109.31 0 134.3 20.83 111.94 42.41"/><path class="cls-1" d="M127.3,73.22h-15c-10.29,0-24.66-6-31.93-13.26L54.56,34.28C47.3,27,32.93,21.22,22.63,21.22H9.3"/><polygon class="cls-2" points="22.36 42.41 27.96 36.69 11.74 21.12 30.3 5.99 24.99 0 0 20.83 22.36 42.41"/></g></g></svg>
