<svg xmlns="http://www.w3.org/2000/svg" viewBox="0 0 195 112.93"><defs><style>.cls-1{isolation:isolate;}.cls-2{fill:#f1f1f1;}.cls-3{fill:#81817f;}.cls-4{fill:#c0beb3;}.cls-5{fill:#a3a198;}.cls-6{fill:#d7d7d7;}.cls-7{fill:#7d8288;}.cls-8{fill:#a7a7a7;}.cls-9{opacity:0.29;}.cls-11,.cls-9{mix-blend-mode:multiply;}.cls-10{fill:#a6a6a6;}.cls-11{fill:#acacac;opacity:0.33;}</style></defs><title>0</title><g class="cls-1"><g id="Layer_2" data-name="Layer 2"><g id="menu_bar" data-name="menu bar"><path class="cls-2" d="M98,52.89l5.63-9.75,15,8.66,1.88,1.08-5.63,9.75-8.44-4.87-2.81-1.62Zm0,0"/><path class="cls-3" d="M98,59.38v-6.5l5.63,3.25Zm0,0"/><path class="cls-3" d="M126,62.63l-11,6.5v-6.5l6-9.75v-2.6l1-1.08V54l4,2.17Zm.18,0"/><path class="cls-4" d="M115,62.63v6.5l-9-4.87v-6.5Zm-.07,0"/><path class="cls-4" d="M121,50.29v2.6l-2-1.08V49.2Zm-.45,0"/><path class="cls-5" d="M122.43,49.2l-1.88,1.08-1.88-1.08,1.88-1.08Zm0,0"/><path class="cls-3" d="M167,23.19v6.5l-8,4.87v-6.5Zm.42,0"/><path class="cls-3" d="M139,26.44l5.77-3.25,2.74,4.87L139,32.94Zm.29,0"/><path class="cls-6" d="M161.8,13.45l5.63,9.75L159,28.07l-5.63,3.25-2.81,1.62-2.81-4.87-2.81-4.87L158,15.61l1.88-1.08Zm0,0"/><path class="cls-3" d="M162,10.85v2.6l-2,1.08v-2.6Zm-.2,0"/><path class="cls-5" d="M159.92,9.76l1.88,1.08-1.88,1.08L158,10.85Zm0,0"/><path class="cls-4" d="M158,15.61V10.85l2,1.08v2.6Zm0,0"/><path class="cls-5" d="M159,28.07v6.5l-5.63-3.25Zm0,0"/><path class="cls-2" d="M166.7,63.17l5.63-9.75,15,8.66,1.88,1.08-5.63,9.75L175.15,68l-2.81-1.62Zm0,0"/><path class="cls-7" d="M167,69.67v-6.5l5.63,3.25Zm-.3,0"/><path class="cls-3" d="M195,72.92l-11,6.5v-6.5l5-9.75v-2.6l2-1.08v4.77l4,2.17Zm-.16,0"/><path class="cls-4" d="M184,72.92v6.5l-9-4.87V68Zm-.41,0"/><path class="cls-4" d="M189,60.57v2.6l-2-1.08v-2.6Zm.21,0"/><path class="cls-5" d="M191.09,59.49l-1.88,1.08-1.88-1.08,1.88-1.08Zm0,0"/><path class="cls-4" d="M61.5,20.37,66,28.79v3l-9-5.61v-3Zm0,0"/><path class="cls-6" d="M66.46,28.79l-4.92-8.42,14.34-8.3,1.65,2.69-.53.37v7.64Zm-.11,0"/><path class="cls-2" d="M66,37.4l-9-5.61V26.17l9,5.61Zm.35,0"/><path class="cls-3" d="M66,37.4V28.79l11-6v8.61Zm.35,0"/><path class="cls-6" d="M80.62,20.33l.09.16-.09.05Zm0,0"/><path class="cls-3" d="M80.62,20.55l.09-.05v1.2l-.09-.12Zm0,0"/><path class="cls-3" d="M83,24.12v6.07l-4,2.27V16.22l2-1.14v6.5l.11.12Zm-.41,0"/><path class="cls-5" d="M78.75,14l1.88,1.08-2,1.14-1.88-1.08.63-.37Zm0,0"/><path class="cls-4" d="M77,15.13l2,1.08V32.46l-2-1.08V15.13Zm-.22,0"/><path class="cls-4" d="M33.61,94.47l5.63-3.25L44.87,101Zm0,0"/><path class="cls-4" d="M34,101v-6.5L45,101v6.5Zm-.39,0"/><path class="cls-8" d="M44.87,101l-5.63-9.75,15-8.66,1.88,3.25L58,84.73l3.75,6.5L53.31,96.1l-5.63,3.25Zm0,0"/><path class="cls-3" d="M53,96.1l9-4.87v6.5l-9,4.87Zm.31,0"/><path class="cls-5" d="M56.12,78.88,58,80,56.12,81,54.25,80Zm0,0"/><path class="cls-3" d="M58,80v4.77l-2,1.08V81Zm0,0"/><path class="cls-4" d="M56,81v4.77l-2-3.25V80Zm.12,0"/><path class="cls-5" d="M53,102.59l-5.63-3.25L53,96.1Zm.31,0"/><path class="cls-4" d="M141,90.15v-6.5l2,1.14v7.64l-2.59-1.49Zm.14,0"/><path class="cls-5" d="M141.14,83.65,143,82.57l2,1.14-1.88,1.08Zm0,0"/><path class="cls-3" d="M143,84.79l2-1.08v9.8l-2-1.08Zm.11,0"/><path class="cls-3" d="M149,95.64l5,2.81v8.61l-10,5.61v-8.61Zm-.32,0"/><path class="cls-2" d="M148.68,95.64l-4.86,8.42-14.37-8.3,4.86-8.42,6.22,3.59,2.58,1.49L145,93.5Zm0,0"/><path class="cls-4" d="M129,95.76l15,8.3v8.61l-15-8.3Zm.45,0"/><path class="cls-4" d="M0,57.33v-6.5l6-3.25V45l2,1.08v4.77l4,6.5v6.5Zm.34,0"/><path class="cls-8" d="M20,52.46l-8.44,4.87L8,50.83l2-1.08V45.42l13-7.58,5.56,9.75Zm0,0"/><path class="cls-3" d="M28,47.58v6.5L20,59v-6.5Zm.47,0"/><path class="cls-5" d="M7.84,46.07,6,45,7.84,43.9,9.71,45Zm0,0"/><path class="cls-3" d="M8,50.83V46.07L10,45v4.77Zm-.16,0"/><g class="cls-9"><path class="cls-10" d="M78.32,28.78a2.52,2.52,0,0,0,.08-1c0-3.41,0-6.83,0-10.24,0-.37-.12-.79.16-1.08A4.31,4.31,0,0,1,80,15.63c.2-.09.34,0,.36.23s0,.46,0,.69a47.29,47.29,0,0,0,.12,4.9,1.56,1.56,0,0,0,.4,1,5,5,0,0,1,1.52,4.43,22.75,22.75,0,0,0,0,2.92,1,1,0,0,1-.55,1c-1,.54-1.94,1.11-2.91,1.68a.93.93,0,0,1-1.05,0c-1.6-1-1.33-.75-2.76.06-2.7,1.52-5.37,3.09-8.05,4.64-.15.09-.29.18-.45.26s-.43,0-.45-.28c0-.14,0-.29,0-.43,0-2.24,0-4.47,0-6.71a1.38,1.38,0,0,1,.78-1.38c3-1.68,5.91-3.4,8.87-5.1.69-.39.77-.36,1,.41.39,1.32.77,2.64,1.16,4A2.15,2.15,0,0,0,78.32,28.78Z"/><path class="cls-10" d="M115,66.1v-1c0-2.15-.11-2.15,1-4,1.4-2.41,2.72-4.82,4.12-7.22a2.49,2.49,0,0,0,.36-1.47c0-.2,0-.41,0-.6A1.57,1.57,0,0,1,121.56,50c.63-.27.72-.24.74.48a23.85,23.85,0,0,1,0,2.67A1.68,1.68,0,0,0,123.4,55c.75.35,1.44.83,2.17,1.23a.93.93,0,0,1,.52.91c0,1.72,0,3.44,0,5.16a1.19,1.19,0,0,1-.76,1.13l-5.66,3.27-4,2.28c-.12.07-.24.15-.37.22-.46.22-.57.18-.58-.32,0-.92,0-1.75,0-2.75Z"/><path class="cls-10" d="M194.83,70.07c0,.83,0,1.66,0,2.5a1.1,1.1,0,0,1-.62,1.11c-3.26,1.86-6.51,3.75-9.77,5.63a3,3,0,0,1-.38.19c-.23.09-.4,0-.43-.24a4,4,0,0,1,0-.51c0-1.61,0-3.21,0-4.82a2.49,2.49,0,0,1,.36-1.3c1.57-2.7,3.12-5.42,4.71-8.11a3.53,3.53,0,0,0,.6-2.2,3.94,3.94,0,0,1,0-.43,1.63,1.63,0,0,1,1.34-1.72c.25-.07.39,0,.43.27a4.68,4.68,0,0,1,0,.6c0,.86,0,1.72,0,2.58a1.44,1.44,0,0,0,.88,1.5c.74.38,1.43.86,2.17,1.23a1.23,1.23,0,0,1,.73,1.31C194.8,68.46,194.83,69.27,194.83,70.07Z"/><path class="cls-10" d="M143.69,108.65c0-1.15,0-2.3,0-3.44a2.17,2.17,0,0,1,.3-1.15q2.08-3.57,4.14-7.15l.22-.37a.46.46,0,0,1,.72-.19l1.2.68c.87.5,1.73,1,2.61,1.5a1,1,0,0,1,.62,1c0,2.44,0,4.88,0,7.32a1,1,0,0,1-.57,1l-8.5,4.9c-.57.33-.7.26-.71-.38C143.68,111.12,143.69,109.88,143.69,108.65Z"/><path class="cls-10" d="M61.51,95.1c0,1,0,1.64,0,2.47a.91.91,0,0,1-.52.89q-3.73,2.14-7.45,4.3a.91.91,0,0,1-1,0c-1.43-.85-2.88-1.67-4.32-2.5a2.63,2.63,0,0,1-.36-.24c-.21-.17-.18-.34,0-.49s.29-.18.44-.27l12.22-7c1-.56,1-.52,1,.63,0,.75,0,1.26,0,2.26Z"/><path class="cls-10" d="M157.89,29.1c0-.24.25-.3.41-.39l8.26-4.76.38-.21c.28-.14.45,0,.46.26s0,.86,0,1.29c0,1.29,0,2.58,0,3.87a1.17,1.17,0,0,1-.65,1.18c-2.37,1.34-4.71,2.72-7.08,4.07-.58.33-.72.25-.73-.48,0-1.15,0-2.29,0-3.44S159,29.34,157.89,29.1Z"/><path class="cls-10" d="M28.12,51.23c0,.77,0,1.55,0,2.32a1.27,1.27,0,0,1-.74,1.31c-2.05,1.15-4.08,2.34-6.12,3.51-.35.2-.69.41-1,.59s-.49.06-.52-.3c0-.14,0-.29,0-.43,0-1.55,0-3.1,0-4.65a1.19,1.19,0,0,1,.65-1.19c2.34-1.33,4.67-2.69,7-4l.31-.16c.28-.13.44,0,.46.27s0,.34,0,.52Q28.12,50.11,28.12,51.23Z"/><path class="cls-10" d="M22.58,48.78a4.86,4.86,0,0,1-2.43,1.09c-2.6.23-5.19.52-7.78.79-1.31.13-2.62.29-3.93.4-.87.07-1,0-1-.88s0-2,0-2.92A1.2,1.2,0,0,1,8.21,46c.18-.08.34-.21.52-.3.44-.22.49-.19.61.31s.19.65.8.59l4-.42a2.16,2.16,0,0,1,.93.06L22.2,48.5A.49.49,0,0,1,22.58,48.78Z"/><path class="cls-10" d="M139.2,30.1c0-1,0-1.77,0-2.6a1.07,1.07,0,0,1,.55-1c1.52-.86,3-1.78,4.55-2.64.49-.28.55-.27.87.26.71,1.21,1.41,2.42,2.11,3.64.34.6.33.66-.26,1l-4.77,2.75c-.82.47-1.63,1-2.46,1.41-.44.24-.56.28-.57-.23,0-.89,0-1.56,0-2.56Z"/><path class="cls-10" d="M144.81,93.68a.34.34,0,0,1-.37,0l-3.43-2c-.37-.21-.53-.49-.19-.81s0-.84.53-.88.62.27.92.43c.1.05.2.12.3.17s.39,0,.41-.23,0-.4,0-.6c0-1.23,0-2.46,0-3.7a1.15,1.15,0,0,1,.74-1.29c.34-.13.65-.59,1-.41s.17.73.17,1.11c0,2.43,0,4.87,0,7.31A2,2,0,0,1,144.81,93.68Z"/><path class="cls-10" d="M103.22,56.48c-.06.21-.22.28-.37.36l-4.17,2.41a3.31,3.31,0,0,1-.38.2c-.23.1-.39,0-.42-.24a2.26,2.26,0,0,1,0-.26c0-1.63,0-3.27,0-4.9,0-.67.11-.74.69-.41,1.42.8,2.83,1.63,4.25,2.45C103,56.19,103.17,56.28,103.22,56.48Z"/><path class="cls-10" d="M172.06,66.82c0,.05-.08.14-.15.18-1.54.89-3.07,1.79-4.61,2.67-.45.25-.57.19-.57-.32q0-2.54,0-5.07c0-.47.15-.58.5-.39,1.62.91,3.26,1.79,4.81,2.83C172,66.73,172,66.77,172.06,66.82Z"/><path class="cls-8" d="M57.72,83.21a6.67,6.67,0,0,0,.22,2.42c.09.19,0,.34-.24.37-.45.06-.91.12-1.36.16s-.48-.17-.48-.47q0-1.93,0-3.86c0-.41.32-.6.62-.75s.66-.63,1.05-.4.16.68.17,1S57.72,82.63,57.72,83.21Z"/><path class="cls-8" d="M159.86,13.38a3.76,3.76,0,0,0,0-.43,1,1,0,0,1,.67-1.15c.36-.15.69-.63,1-.43s.13.73.16,1.12a4.26,4.26,0,0,0,.19,1.6c.13.28,0,.43-.29.47l-.34.05C159.89,14.85,159.86,14.83,159.86,13.38Z"/></g><path class="cls-11" d="M162.41,6.58A2.21,2.21,0,0,0,162,5.4a3,3,0,1,0-3.79,0,2.21,2.21,0,0,0-.38,1.18,2.23,2.23,0,0,0,.94,1.79,1.57,1.57,0,0,0-.29.86,1.62,1.62,0,1,0,3.23,0,1.57,1.57,0,0,0-.29-.86A2.23,2.23,0,0,0,162.41,6.58Z"/><path class="cls-11" d="M58.39,76.42A2.21,2.21,0,0,0,58,75.24a3,3,0,1,0-3.79,0,2.12,2.12,0,0,0,.56,3,1.57,1.57,0,0,0-.29.86,1.62,1.62,0,0,0,3.23,0,1.57,1.57,0,0,0-.29-.86A2.23,2.23,0,0,0,58.39,76.42Z"/><path class="cls-11" d="M145.78,80a2.21,2.21,0,0,0-.38-1.18,3,3,0,1,0-3.79,0,2.12,2.12,0,0,0,.56,3,1.57,1.57,0,0,0-.29.86,1.62,1.62,0,0,0,3.23,0,1.57,1.57,0,0,0-.29-.86A2.23,2.23,0,0,0,145.78,80Z"/></g></g></g></svg>