<svg xmlns="http://www.w3.org/2000/svg" viewBox="0 0 93.23 137.74"><defs><style>.cls-1{isolation:isolate;}.cls-2{fill:#b2b1a6;}.cls-3{fill:#bdbbb0;}.cls-4{fill:#a3a198;}.cls-5{fill:#8e8d85;}.cls-6{fill:#c2c0b5;}.cls-7{fill:#81817f;}.cls-8{fill:#7c7b74;}.cls-9{fill:#8f8e86;}.cls-10{fill:#9b9b9b;}.cls-11{fill:#7b7b73;}.cls-12{fill:#c1c0b5;}.cls-13{fill:#bcbbb0;}.cls-14{fill:#bcbab0;}.cls-15{fill:#c0beb3;}.cls-16{fill:#f1f1f1;}.cls-17{opacity:0.32;}.cls-17,.cls-20{mix-blend-mode:multiply;}.cls-18{fill:#a3a3a3;}.cls-19{fill:#a4a4a4;}.cls-20{fill:#acacac;opacity:0.33;}</style></defs><title>1</title><g class="cls-1"><g id="Layer_2" data-name="Layer 2"><g id="menu_bar" data-name="menu bar"><path class="cls-2" d="M62.84,66.15,63,34l.94.22-.61,32.22Zm0,0"/><path class="cls-3" d="M63,34l-.2,32.13-.5-.29Zm0,0"/><path class="cls-3" d="M63,34l-.7,31.85-.46-.26.35-31.94Zm0,0"/><path class="cls-2" d="M63.37,66.45,64,34.24l0,32.55Zm0,0"/><path class="cls-4" d="M64,66.79l0-32.55,1,.07-.48,32.81Zm0,0"/><path class="cls-4" d="M64.52,67.12,65,34.31l.16,33.17Zm0,0"/><path class="cls-4" d="M65,34.31l-1-.07L63,34l-.81-.36-.62-.47-.39-.54-.13-.59.14-.59.4-.55.63-.47.82-.36.95-.23,1-.08,1,.07.94.22.81.36.62.47.38.54L69,32l-.14.59-.4.55-.63.47L67,34l-.95.23Zm0,0"/><path class="cls-5" d="M65,34.31l1-.08.35,34-.56-.32Zm0,0"/><path class="cls-6" d="M61.62,33.19l.62.47-.73,31.72-.35-.2Zm0,0"/><path class="cls-6" d="M61.62,33.19l-.46,32L60.91,65Zm0,0"/><path class="cls-6" d="M61.51,65.38l.73-31.72L61.89,65.6Zm0,0"/><path class="cls-7" d="M68.81,32.61,69,32l.52,19.66L70,70.26l-.08,0Zm0,0"/><path class="cls-8" d="M66.37,68.18l-.35-34,1,34.32Zm0,0"/><path class="cls-9" d="M65,34.31l.81,33.55-.65-.38Zm0,0"/><path class="cls-10" d="M65.06,29.78l-1,.08-.95.23-.82.36-.63.47-.4.55-.14.59-.44,24.71-7,4.06L24.74,44.15,67.15,19.66,79.27,46l-9.8,5.66L69,32l-.13-.59-.38-.54-.62-.47L67,30.07l-.94-.22Zm0,0"/><path class="cls-11" d="M66,34.23,67,34l.54,34.84-.51-.3Zm0,0"/><path class="cls-7" d="M67.51,68.84,67,34l1.1,35.17Zm0,0"/><path class="cls-7" d="M68.42,33.16l.4-.55,1,37.54L69.57,70Zm0,0"/><path class="cls-7" d="M69.78,70.15l-1-37.54,1.07,37.6Zm0,0"/><path class="cls-7" d="M67.79,33.63l.63-.47.86,36.7-.33-.19Zm0,0"/><path class="cls-7" d="M67.79,33.63l1.16,36-.44-.26Zm0,0"/><path class="cls-12" d="M61.62,33.19,60.91,65l-.22-.13.54-32.26Zm0,0"/><path class="cls-13" d="M61.23,32.65l-.54,32.26-.09-.05Zm0,0"/><path class="cls-14" d="M61.23,32.65,60.6,64.85l-.08,0,.14-8,.44-24.71Zm0,0"/><path class="cls-7" d="M67,34l.82-.36.72,35.78-.44-.25Zm0,0"/><path class="cls-7" d="M68.42,33.16,69.57,70l-.29-.17Zm0,0"/><path class="cls-7" d="M63.46,124.07,54,129.53V118.61Zm-.14,0"/><path class="cls-15" d="M54,118.61v10.92l-54-31V63.68l68,39.18v34.87l-3-1.65V125.17l-1.73-1.11ZM4.47,79l-.24-.1L4,78.86l-.23-.05-.38,0H3v7.53l3,1.61V80.4l-.16-.25-.2-.24-.22-.22-.23-.2L5,79.32l-.24-.15ZM6,98.7V91.17l-.16-.25-.2-.24-.22-.22-.23-.2L5,90.08l-.24-.15-.24-.13-.24-.1L4,89.62l-.23-.05-.38,0H3v7.53Zm6-18.3V72.87l-.36-.25-.3-.24-.27-.22-.26-.2-.25-.18-.25-.15-.25-.13-.24-.1-.24-.08-.23-.05-.18,0H9v7.53Zm0,10.76V83.63l-.36-.25-.3-.24-.27-.22-.26-.2-.25-.18-.25-.15-.25-.13-.24-.1-.24-.08L9.35,82l-.18,0H9v7.53Zm0,10.76V94.4l-.36-.25-.3-.24-.27-.22-.26-.2-.25-.18-.25-.15L10.06,93l-.24-.1-.24-.08-.23-.05-.18,0H9v7.53Zm5-18.3V76.1l-.07-.25-.15-.24-.2-.22-.22-.2L16.13,75l-.24-.15-.24-.13-.24-.1-.24-.08-.23-.05-.48,0H14V82ZM17,94.4V86.86l-.07-.25-.15-.24-.2-.22-.22-.2-.23-.18-.24-.15-.24-.13-.24-.1-.24-.08-.23-.05-.48,0H14v7.53Zm0,10.76V97.63l-.07-.25-.15-.24-.2-.22-.22-.2-.23-.18-.24-.15-.24-.13-.24-.1-.24-.08L14.94,96l-.48,0H14v7.53Zm6-18.3V79.33l-.27-.25-.25-.24-.25-.22-.25-.2-.25-.18-.25-.15L21.25,78l-.24-.1-.24-.08-.23-.05-.27,0H20v7.53Zm0,10.76V90.09l-.27-.25-.25-.24-.25-.22-.25-.2L21.74,89l-.25-.15-.24-.13-.24-.1-.24-.08-.23-.05-.27,0H20V96Zm0,10.76v-7.53l-.27-.25-.25-.24-.25-.22-.25-.2-.25-.18-.25-.15-.24-.13-.24-.1-.24-.08-.23-.05-.27,0H20v7.53Zm5-18.3V82.56l0-.25-.1-.24-.17-.22-.21-.2-.23-.18-.24-.15-.24-.13-.24-.1L26.36,81,26.13,81l-.07,0H26v7.53Zm0,10.76V93.32l0-.25-.1-.24-.17-.22-.21-.2-.23-.18-.24-.15L26.84,92l-.24-.1-.24-.08-.23-.05-.07,0H26v7.53Zm0,10.76v-7.53l0-.25-.1-.24-.17-.22-.21-.2-.23-.18-.24-.15-.24-.13-.24-.1-.24-.08-.23-.05-.07,0H26V110Zm6-18.3V85.79l-.18-.25-.21-.24-.22-.22-.23-.2-.24-.18-.24-.15-.24-.13-.24-.1L32,84.24l-.23-.05-.37,0H31v7.53Zm0,10.76V96.55l-.18-.25-.21-.24-.22-.22-.23-.2-.24-.18-.24-.15-.24-.13-.24-.1L32,95,31.72,95l-.37,0H31v7.53Zm0,10.76v-7.53l-.18-.25-.21-.24-.22-.22-.23-.2-.24-.18-.24-.15-.24-.13-.24-.1-.24-.08-.23-.05-.37,0H31v7.53Zm6-18.3V89l-.38-.25-.31-.24L39,88.3l-.26-.2-.25-.18-.25-.15L38,87.65l-.24-.1-.24-.08-.23-.05-.16,0H37v7.53Zm0,10.76V99.78l-.38-.25-.31-.24L39,99.07l-.26-.2-.25-.18-.25-.15L38,98.41l-.24-.1-.24-.08-.23-.05-.16,0H37v7.53Zm0,10.76v-7.53l-.38-.25-.31-.24-.27-.22-.26-.2-.25-.18-.25-.15-.25-.13-.24-.1-.24-.08-.23-.05-.16,0H37v7.53Zm5-18.3V92.24L44.91,92l-.16-.24-.2-.22-.22-.2-.23-.18L43.86,91l-.24-.13-.24-.1-.24-.08-.23-.05-.46,0H42v7.53Zm0,10.76V103l-.09-.25-.16-.24-.2-.22-.22-.2-.23-.18-.24-.15-.24-.13-.24-.1-.24-.08-.23-.05-.46,0H42v7.53Zm0,10.76v-7.53l-.09-.25-.16-.24-.2-.22-.22-.2-.23-.18-.24-.15-.24-.13-.24-.1-.24-.08-.23-.05-.46,0H42v7.53ZM51,103V95.47l-.29-.25L50.45,95l-.25-.22-.25-.2-.25-.18-.25-.15-.24-.13L49,94l-.24-.08-.23-.05-.25,0H48v7.53Zm0,10.76v-7.53l-.29-.25-.26-.24-.25-.22-.25-.2-.25-.18-.25-.15-.24-.13-.24-.1-.24-.08-.23-.05-.25,0H48v7.53Zm11-4.31v-7.53l-.2-.25-.22-.24-.23-.22-.24-.2-.24-.18-.24-.15-.24-.13-.24-.1-.24-.08-.23-.05-.35,0H59v7.53Zm0,10.76v-7.53l-.2-.25-.22-.24-.23-.22-.24-.2-.24-.18-.24-.15-.24-.13-.24-.1-.24-.08-.23-.05-.35,0H59v7.53Zm-6-14V98.45l-.11-.24L55.72,98l-.21-.2-.23-.18L55,97.46l-.24-.13-.24-.1-.24-.08-.23-.05-.05,0h0v7.53ZM56,117v-7.79l-.11-.24-.18-.22-.21-.2-.23-.18-.24-.15-.24-.13-.24-.1-.24-.08-.23-.05-.05,0h0v7.53Zm-5,7.53V117l-.29-.25-.26-.24-.25-.22-.25-.2-.25-.18-.25-.15-.24-.13-.24-.1-.24-.08-.23-.05-.25,0H48v7.53ZM3,68v7.53l3,1.61V69.64l-.16-.25-.2-.24-.22-.22-.23-.2L5,68.56l-.24-.15-.24-.13-.24-.1L4,68.09,3.76,68l-.38,0Zm.32,0"/><path class="cls-7" d="M93,123.42,68,137.74V102.86L80.5,76.33,93,88.55Zm-.12,0"/><path class="cls-16" d="M.23,63.68,24.74,44.15l28.9,16.68,6.89,4,.08,0,.09.05.22.13.24.14.35.2.38.22.46.26.5.29.53.31.58.34.56.33.64.37.65.38.56.32.63.36.51.3.56.32.44.25.44.26.33.19.29.17.21.12.11.06.08,0,9.31,5.37,1.21.7-12.4,26.53Zm0,0"/><path class="cls-7" d="M79,46v29.6l-9.17-5.37-.56-18.57Zm.27,0"/><path class="cls-7" d="M53.64,60.83l7-4.06-.14,8Zm0,0"/><path class="cls-16" d="M4.23,78.93l.24.1.24.13.24.15.24.18.24.2.23.22.17.24L6,80.4v7.53L3,86.32V78.79h.37l.3,0,.27.05Zm0,0"/><path class="cls-16" d="M6,91.17V98.7L3,97.09V89.55h.37l.3,0,.27.05.26.08.25.1.25.13.25.15.24.18.24.2.23.22.17.24Zm.11,0"/><path class="cls-16" d="M12,72.87V80.4L9,78.79V71.25h.17l.2,0,.22.05.23.08.24.1.24.13.24.15.24.18.24.2.23.22.37.24Zm-.3,0"/><path class="cls-16" d="M12,83.63v7.53L9,89.55V82h.17l.2,0,.22.05.23.08.24.1.24.13.24.15.24.18.24.2.23.22.37.24Zm-.3,0"/><path class="cls-16" d="M12,94.4v7.53l-3-1.61V92.78h.17l.2,0,.22.05.23.08.24.1.24.13.24.15.24.18.24.2.23.22.37.24Zm-.3,0"/><path class="cls-16" d="M17,76.1v7.53L14,82V74.48h.47l.35,0,.3.05.27.08.26.1.25.13.25.15.24.18.24.2.23.22.08.24Zm.3,0"/><path class="cls-16" d="M17,86.86V94.4l-3-1.61V85.25h.47l.35,0,.3.05.27.08.26.1.25.13.25.15.24.18.24.2.23.22.08.24Zm.3,0"/><path class="cls-16" d="M17,97.63v7.53l-3-1.61V96h.47l.35,0,.3.05.27.08.26.1.25.13.25.15.24.18.24.2.23.22.08.24Zm.3,0"/><path class="cls-16" d="M23,79.33v7.53l-3-1.61V77.71h.26l.25,0,.24.05.24.08.24.1.25.13.24.15.24.18.24.2.23.22.28.24Zm-.11,0"/><path class="cls-16" d="M23,90.09v7.53L20,96V88.48h.26l.25,0,.24.05.24.08.24.1.25.13.24.15.24.18.24.2.23.22.28.24Zm-.11,0"/><path class="cls-16" d="M23,100.85v7.53l-3-1.61V99.24h.26l.25,0,.24.05.24.08.24.1.25.13.24.15.24.18.24.2.23.22.28.24Zm-.11,0"/><path class="cls-16" d="M28,82.56v7.53l-2-1.61V80.94h.06l.15,0,.19.05.22.08.23.1.24.13.24.15.24.18.24.2.23.22,0,.24Zm.48,0"/><path class="cls-16" d="M28,93.32v7.53l-2-1.61V91.71h.06l.15,0,.19.05.22.08.23.1.24.13.24.15.24.18.24.2.23.22,0,.24Zm.48,0"/><path class="cls-16" d="M28,104.08v7.53L26,110v-7.53h.06l.15,0,.19.05.22.08.23.1.24.13.24.15.24.18.24.2.23.22,0,.24Zm.48,0"/><path class="cls-16" d="M34,85.79v7.53l-3-1.61V84.17h.36l.3,0,.27.05.26.08.25.1.25.13.25.15.24.18.24.2.23.22.19.24Zm.08,0"/><path class="cls-16" d="M34,96.55v7.53l-3-1.61V94.93h.36l.3,0,.27.05.26.08.25.1.25.13.25.15.24.18.24.2.23.22.19.24Zm.08,0"/><path class="cls-16" d="M34,107.31v7.53l-3-1.61V105.7h.36l.3,0,.27.05.26.08.25.1.25.13.25.15.24.18.24.2.23.22.19.24Zm.08,0"/><path class="cls-16" d="M40,89v7.53l-3-1.61V87.4h.15l.19,0,.22.05.23.08.24.1.24.13.24.15.24.18.24.2.23.22.39.24Zm-.33,0"/><path class="cls-16" d="M40,99.78v7.53l-3-1.61V98.16h.15l.19,0,.22.05.23.08.24.1.24.13.24.15.24.18.24.2.23.22.39.24Zm-.33,0"/><path class="cls-16" d="M40,110.54v7.53l-3-1.61v-7.53h.15l.19,0,.22.05.23.08.24.1.24.13.24.15.24.18.24.2.23.22.39.24Zm-.33,0"/><path class="cls-16" d="M45,92.24v7.53l-3-1.61V90.63h.45l.34,0,.29.05.27.08.26.1.25.13.25.15.24.18.24.2.23.22.09.24Zm.26,0"/><path class="cls-16" d="M45,103v7.53l-3-1.61v-7.53h.45l.34,0,.29.05.27.08.26.1.25.13.25.15.24.18.24.2.23.22.09.24Zm.26,0"/><path class="cls-16" d="M45,113.77v7.53l-3-1.61v-7.53h.45l.34,0,.29.05.27.08.26.1.25.13.25.15.24.18.24.2.23.22.09.24Zm.26,0"/><path class="cls-16" d="M51,95.47V103l-3-1.61V93.86h.25l.24,0,.24.05L49,94l.24.1.24.13.24.15.24.18.24.2.23.22.3.24Zm-.14,0"/><path class="cls-16" d="M51,106.24v7.53l-3-1.61v-7.53h.25l.24,0,.24.05.24.08.24.1.24.13.24.15.24.18.24.2.23.22.3.24Zm-.14,0"/><path class="cls-16" d="M62,101.93v7.53l-3-1.61v-7.53h.34l.29,0,.26.05.25.08.25.1.25.13.25.15.24.18.24.2.23.22.21.24Zm0,0"/><path class="cls-16" d="M62,112.69v7.53l-3-1.61v-7.53h.34l.29,0,.26.05.25.08.25.1.25.13.25.15.24.18.24.2.23.22.21.24Zm0,0"/><path class="cls-16" d="M56,98.7v7.53l-2-1.61V97.09h0l.14,0,.19.05.22.08.23.1.24.13.24.15.24.18.24.2.23.22v.49Zm.45,0"/><path class="cls-16" d="M56,109.47V117l-2-1.61v-7.53h0l.14,0,.19.05.22.08.23.1.24.13.24.15.24.18.24.2L56,109v.49Zm.45,0"/><path class="cls-16" d="M51,117v7.53l-3-1.61v-7.53h.25l.24,0,.24.05.24.08.24.1.24.13.24.15.24.18.24.2.23.22.3.24Zm-.14,0"/><path class="cls-16" d="M3,75.56V68h.37l.3,0,.27.05.26.08.25.1.25.13.25.15.24.18.24.2.23.22.17.24.16.25v7.53Zm.32,0"/><g class="cls-17"><path class="cls-18" d="M69,137.15v-.88c0-10.93-.18-21.86-.19-32.79a3.42,3.42,0,0,1,.23-1.55c2.06-4.36,4.05-8.74,6.09-13.11,1.7-3.66,3.38-7.32,5.08-11,.21-.46.43-.9.69-1.41.68.62,1.31,1.17,1.91,1.76,3.29,3.26,6.57,6.53,9.87,9.78a1.7,1.7,0,0,1,.55,1.34q0,16.52,0,33a1.21,1.21,0,0,1-.7,1.19L73.6,134.46c-1.42.82-2.65,1.64-4.07,2.46A2,2,0,0,1,69,137.15Z"/><path class="cls-19" d="M79.6,75.65,26.27,44.86a.74.74,0,0,1,.64,0l20,5.9,13.72,4c.74.22.79.32.7,1.08a39.32,39.32,0,0,0-.08,4,1,1,0,0,0,.49.84c.4.26.79.55,1.21.77A23.71,23.71,0,0,0,67,63.13c.84.26.95.21.89-.7-.19-3-.07-6-.16-9.06-.12-4.26-.12-8.52-.2-12.79,0-1.83-.09-3.67-.12-5.5,0-.5.08-.84.62-1a2.44,2.44,0,0,0,1.31-1.28c.15.07.08.23.08.34,0,2.82.16,5.64.22,8.46.05,2.37.08,4.74.17,7.11,0,1,.07,2,.14,3.18l9.5-5.46C79.71,47.1,79.78,74.24,79.6,75.65Z"/><path class="cls-19" d="M63.83,123.8l-9.17,5.3c-.27-.15-.2-.34-.2-.5q0-4.7,0-9.41c0-.82.05-.85.8-.42,1.08.61,2.15,1.24,3.23,1.86l4.62,2.66C63.31,123.41,63.5,123.57,63.83,123.8Z"/></g><path class="cls-20" d="M71.67,19.78a6.63,6.63,0,0,0-1.13-3.54,9.14,9.14,0,1,0-11.38,0A6.63,6.63,0,0,0,58,19.78a6.7,6.7,0,0,0,2.83,5.38,4.72,4.72,0,0,0-.86,2.6,4.86,4.86,0,0,0,9.71,0,4.72,4.72,0,0,0-.86-2.6A6.7,6.7,0,0,0,71.67,19.78Z"/></g></g></g></svg>