<svg xmlns="http://www.w3.org/2000/svg" viewBox="0 0 145.22 98.47"><defs><style>.cls-1{isolation:isolate;}.cls-2{fill:#f1f1f1;}.cls-3{fill:#c9c9c9;}.cls-4{fill:#d2d2d2;}.cls-5{fill:#f6f6f6;}.cls-6{fill:#eff6f6;}.cls-7{fill:#e9e9e9;}.cls-8{fill:#c5c5c5;}.cls-9{fill:#e2e2e2;}.cls-10{fill:#bdbdbd;}.cls-11{fill:#868686;}.cls-12{fill:#9b9b9b;}.cls-13{opacity:0.48;mix-blend-mode:multiply;}.cls-14{fill:#a6a6a6;}.cls-15{fill:#a9a9a9;}.cls-16{fill:#aaa;}.cls-17{fill:#ababab;}.cls-18{fill:#acacac;}.cls-19,.cls-20{fill:none;stroke:#fff;stroke-miterlimit:10;}.cls-20{stroke-width:0.48px;}</style></defs><title>2</title><g class="cls-1"><g id="Layer_2" data-name="Layer 2"><g id="menu_bar" data-name="menu bar"><path class="cls-2" d="M84.83,51.06l.64.37-1.24.72V51.4Zm0,0"/><path class="cls-2" d="M85.47,51.43l-.64-.37-.77-.44-1.14-3.78-2.71-1.7v0l7,4.28v3L87,52.28Zm0,0"/><path class="cls-3" d="M84.22,52.14l1.25-.72,1.48.86-2.73,1.57Zm0,0"/><path class="cls-4" d="M84.22,53.86,87,52.28l.19.11,1.12-.64,0-.23L91,49.93l.19.11,3.71-2.14,0-.23,2.76-1.59.16.11.34-.21v-.21l3.18-1.82.2.11,1.12-.64,0-.23,2.76-1.59.36.11,1.36-.68v-.21l2.21-1.38.1.11L112,38.06l0-.47.14-.5.23-.49.3-.45h.19l6.32,3.55v9l-5,2.47V52.4l2,.94,5-2.72V38.5l-6-3.24V33.13l-1.51-4.24-7.47-4.28-1,.56v3.46l-.69.44L87.86,19.43l7.95-4.58,49,28.31L49.05,98.47.12,70.16l79.1-45.61v1.14l-4,2.47V29.4l1.46.94,4.54-2.72V23.36l4.68-2.74,16.77,9.65-.45.3v3L99.55,32,96.18,34l-2,2.79v.51l-5-2.82-1,.56v3.46l-6.37,3.85-1.63,2.79v0l-4.71-2.58-5.38,3-.14.17h-.06l-.22,0-.19.05-.16.08-.12.1,0,.11v.49L69,46.54l-.21,0h-.21l-.21,0-.19.05-.16.08-.12.1.11.11.16.12v.37l-.32-.06-.28,0h-.25l-.22,0-.2.05-.16.08-.12.1-.25.11-.2.12v.37l0-.06-.1,0H66l-.18,0-.17.05-.15.08-.11.1-.11.11-.05.12v.37l-.1-.06-.17,0h-.19l-.2,0-.18.05-.15.08-.12.1,0,.11.09.12v.49l-.07.12,0,.11.11.09.16.07.19,0h.2l.2,0,.18-.05.16-.08.12-.1-.11-.11-.17-.12v-.37l.33.06.28,0h.25l.22,0,.2-.05.16-.08.12-.1L67,49l.19-.12v-.37l0,.06.11,0h.16l.18,0,.17-.05.15-.08.11-.1.1-.11,0-.12v-.37l.11.06.18,0h.2l.18,0-1.49,2.55-2.17,2.79v0L61,50.65l-5.14,3-2.55,4.84-2.09,2.79v1.14l-4.28-2.6.43-.08.49-.19.36-.25.07-.29-.06-.31V55.52l.08-.31-.13-.29-.3-.25-.42-.19-.5-.12-.54,0-.54,0-.5.12-.65.19-.5.21V53.29l.15-.31-.1-.29L44,52.43l-.41-.19-.49-.12-.54,0-.54,0-.5.12-.43.19-.33.25-.33.29-.19.31V56.5l.19.31.27.29.36.25.45.19.51.12.55,0,.54,0,.51-.12.38-.19.23-.21v1.58l.12.31.24.29.35.25.44.19h0L41,62.35l-2.6,4.84L36.22,70v3l2,1-1,.78v1.71l.52.37,2.77-1.63,1.18.76-1.47.78v1.71l.74.37,2.87-1.63.21.11.54-.31.1.09.93.54.31.09.36,0,.38-.16.38-.28.36-.38.31-.45.24-.49.15-.5.05-.47,3.12-1.8.09.09.93.54.31.09.36,0,.38-.16.38-.28.36-.38.31-.45.24-.49.15-.5.06-.47.38-.21v-.21l3.68-2.13.18.11L60.19,68l0-.23L63,66.13l.18.11,3.71-2.14,0-.23,2.76-1.59.2.11.38-.21V62l2.71-1.57.18.11,1.11-.64,0-.23L77,58l.18.11L80.9,56l0-.23,2.76-1.59.18.11.36-.21ZM69.39,73.64l.51.12.54,0,.54,0,.51-.12.45-.19.29-.21v1.58l.06.31.2.29.33.25.43.19.51.12.54,0,.54,0,.51-.12.43-.19.33-.25.12-.29V71.29L76.07,71l-.31-.25-.42-.19-.5-.12-.54,0-.54,0-.51.12-.59.19-.43.21V69.38l.08-.31-.13-.29-.29-.25-.41-.19-.5-.12-.54,0-.54,0-.5.12-.43.19-.33.25-.27.29-.13.31v3.21l.13.31.24.29.35.25Zm6.67-3.85.51.12.54,0,.54,0,.51-.12.61-.19.45-.21V71l-.1.31.12.29.29.25.41.19.49.12.54,0,.54,0L82,72l.43-.19.33-.25.29-.29.15-.31V67.75l-.15-.31-.25-.29-.35-.25L82,66.7l-.51-.12-.55,0-.54,0-.51.12-.43.19-.27.21V65.53l-.08-.31-.21-.29-.34-.25-.44-.19-.51-.12-.54,0-.54,0-.51.12-.43.19-.33.25-.11.29,0,.31v3.21l0,.31.16.29.31.25ZM53.64,50.49l-.54,0-.54,0-.51.12-.49.19-.34.21V49.12L51,48.83l-.32-.25-.43-.19-.5-.12-.54,0-.54,0-.51.12-.43.19-.33.25-.17.29,0,.31v3.21l0,.31.19.29.32.25.43.19.5.12.54,0,.54,0,.51-.12.55-.19.39-.21v1.58l0,.31.15.29.31.25.42.19.5.12.54,0,.54,0,.51-.12.43-.19.33-.25.22-.29.08-.31V51.66l-.08-.31-.22-.29-.34-.25-.44-.19Zm31.88,11.9,0-.12-.09-.11-.13-.09L85.09,62l-.19,0h-.2l-.2,0L84.3,62l-.16.08-.12.1-.07.11,0,.12v.49l0,.12.09.11.13.09.17.07.19,0h.2l.2,0,.19-.05.16-.08.12-.1L85.5,63l0-.12Zm0-1-.18.11-.13.12v.49l.15.12.14.11.16.09.18.07.2,0h.21l.2,0,.19-.05.16-.08.12-.1.17-.11.12-.12v-.37l0,.06.14,0h.18l.19,0,.18-.05.15-.08.11-.1,0-.11,0-.12v-.37l.19.06.21,0h.21L89,61l.19-.05.16-.08.12-.1-.12-.11-.17-.12v-.37l.33.06.29,0h.25l.22,0,.2-.05.16-.08.12-.1.24-.11.19-.12v-.37l0,.06.11,0h.16l.18,0,.17-.05.15-.08.11-.1.1-.11,0-.12v-.49l-.07-.12-.1-.11-.14-.09-.17-.07-.2,0h-.21l-.2,0-.19.05-.16.08-.12.1-.25.11-.2.12V59l0-.06-.1,0H90l-.18,0-.17.05L89.5,59l-.11.1-.11.11-.06.12v.37l-.1-.06-.17,0h-.19l-.2,0-.18.05-.15.08-.12.1,0,.11.09.12v.37L88,60.4l-.24,0H87.5l-.21,0-.19.05-.16.08-.12.1.18.11.23.12v.37l-.39-.06-.32,0h-.27l-.23,0-.2.05-.16.08Zm1.5.87.07.11.12.12v.49l-.1.12,0,.11.1.09.15.07.19,0h.2l.2,0,.18-.05.16-.08.12-.1L88.35,63l-.13-.12v-.37l.29.06.27,0H89l.22,0,.19-.05.16-.08.12-.1.28-.11.23-.12v-.37l-.06.06.09,0h.15l.18,0,.17-.05.15-.08.11-.1.13-.11.08-.12V61l.08.06.16,0h.19l.19,0,.18-.05.15-.08.12-.1v-.11l-.06-.12v-.37l.22.06.23,0h.22l.21,0,.19-.05.16-.08.12-.1L93.42,60l-.2-.12v-.49l.18-.12,0-.11-.08-.09L93.2,59,93,59h-.2l-.2,0-.18.05-.15.08-.12.1v.11l0,.12v.37L92,59.78l-.23,0h-.22l-.21,0-.19.05-.16.08-.12.1.14.11.19.12v.37l-.35-.06-.3,0h-.26l-.23,0-.2.05-.16.08-.12.1-.22.11-.17.12v.31l-.12,0h-.17l-.18,0-.18.05-.15.08-.11.1-.07.11,0,.12v.37L88.08,62l-.19,0h-.2l-.2,0L87.3,62l-.16.08Zm0,1,0-.12L86.89,63l-.13-.09-.17-.07-.19,0h-.2l-.2,0-.19.05-.16.08-.12.1-.07.11,0,.12v.49l0,.12.09.11.13.09.17.07.19,0h.2l.2,0,.19-.05.16-.08.12-.1.07-.11,0-.12ZM69.22,45.31l0-.12-.09-.11L69,45l-.17-.07-.19,0h-.2l-.2,0L68,45l-.16.08-.12.1-.29.11-.23.12v.37l.07-.06-.08,0h-.15l-.17,0-.17.05-.15.08-.11.1-.14.11-.09.12v.37l-.07-.06-.16,0h-.19l-.19,0-.18.05-.13.08-.09.1v.6L65,47.16l-.23,0h-.22l-.21,0-.19.05-.16.08-.12.1.14.11.19.12V48l-.35-.06-.3,0h-.26l-.23,0-.2.05-.16.08-.12.1-.22.11-.16.12v.49l.18.12.16.11.17.09.19.07.2,0h.21l.2,0,.19-.05.16-.08L64,49l.14-.11.08-.12v-.37l.08.06.16,0h.19l.19,0,.18-.05.15-.08.12-.1v-.11L65.22,48v-.37l.22.06.23,0h.22l.21,0,.19-.05.16-.08.12-.1-.15-.11-.2-.12v-.37l.36.06.3,0h.26l.23,0,.2-.05.16-.08.12-.1.21-.11.16-.12v-.31l.12,0h.17l.18,0,.18-.05.15-.08.11-.1.06-.11v-.61ZM64.08,50l0-.12L64,49.79l-.13-.09-.17-.07-.19,0h-.2l-.2,0-.19.05-.16.08-.12.1-.07.11,0,.12v.49l0,.12.09.11.13.09.17.07.19,0h.2l.2,0,.19-.05.16-.08.12-.1.07-.11,0-.12Zm-1.5-.87,0-.12-.09-.11-.13-.09-.17-.07-.19,0h-.2l-.2,0-.19.05-.16.08-.12.1-.07.11,0,.12v.49l0,.12.09.11.13.09.17.07.19,0h.2l.2,0,.19-.05.16-.08.12-.1.07-.11,0-.12ZM103.35,59l6.87-3.85V51.72l-7.61-4.28-4.38,2.48-2.34,4.84Zm-.19,0"/><path class="cls-5" d="M145.22,18.41V43.16l-49-28.31V0l24,4.26v9.9Zm-.36,0"/><path class="cls-3" d="M.22,70.16V55.31L96.22,0V14.85l-8.13,4.58-8.44-4.88-.43.25v9.75Zm-.2,0"/><path class="cls-3" d="M86,20.62l-4.75,2.74V17.87Zm-.14,0"/><path class="cls-2" d="M37.22,76.8v0Zm.4,0"/><path class="cls-2" d="M37.62,75.09,37,74.71l1.34-.78.64.37Zm0,0"/><path class="cls-2" d="M39,74.31l-.86-.37-1.89-1V70l8,4.28v3L44,77.15l-1.52-.86-.66-.37-1.32-.76Zm4.45.32-.12-.16-.14-.13-.14-.1-.14-.05h-.13l-.11,0-.08.09,0,.13v.16l0,.18.06.19.09.18.12.16.14.13.14.1.14.05h.13l.11,0,.08-.09,0-.13v-.16l0-.18-.06-.19ZM37.9,72.35l.08-.09,0-.13V72l0-.18-.06-.19-.09-.18-.12-.16-.14-.13-.14-.1L37.31,71h-.13l-.11,0-.08.09,0,.13v.16l0,.18.06.19.09.18.12.16.14.13.14.1.14.05h.13Zm0,0"/><path class="cls-2" d="M41.76,75.92l.64.37-1.34.78-.64-.37Zm0,0"/><path class="cls-3" d="M41.22,77.07l1.26-.78,1.52.86-2.79,1.63Zm-.16,0"/><path class="cls-3" d="M58.9,68.49l-3.68,2.13V68.91l2.2-1.28Zm0,0"/><path class="cls-2" d="M57.42,67.63l-2.2,1.28v-.74l1.56-.91Zm0,0"/><path class="cls-2" d="M57.4,67.63l-.64-.37-1.31-.76L54.51,66l-.86-2.36L53,63.24l0-.11L53,62.94l-.09-.18-.12-.16-.14-.13-.14-.1-.14-.05h-.13l-.11,0-.08.09,0,.13-.22,0-.5-.16V61.32l8,4.28v3L59,68.49Zm1-1.66-.12-.16-.14-.13-.14-.1-.14-.05h-.13l-.11,0-.08.09,0,.13v.16l0,.18.06.19.09.18.12.16.14.13.14.1.14.05h.13l.11,0,.08-.09,0-.13v-.16l0-.18-.06-.19Zm0,0"/><path class="cls-3" d="M63,66.13l-2.76,1.59,0-.24.15-.5.24-.49.31-.45.36-.38.38-.28Zm0,0"/><path class="cls-3" d="M69.64,62.28l-2.76,1.59,0-.24.15-.5.24-.49.31-.45.36-.38.38-.28Zm0,0"/><path class="cls-3" d="M72.93,60.39,70.22,62V60.25l1.24-.72Zm0,0"/><path class="cls-2" d="M71.44,59.53l-1.24.72v-.74l.6-.35Zm0,0"/><path class="cls-2" d="M71.44,59.53l-.64-.37L70,58.72l-1.62-3.78-3.19-1.7v0l8,4.28v3L73,60.39Zm0,0"/><path class="cls-3" d="M77,58l-2.76,1.59,0-.24.15-.5.24-.49.31-.45.36-.38.38-.28Zm0,0"/><path class="cls-3" d="M83.68,54.18l-2.76,1.59,0-.24.15-.5.24-.49.31-.45.36-.38.38-.28Zm0,0"/><path class="cls-3" d="M91,49.93l-2.76,1.59,0-.24.15-.5.24-.49.31-.45.36-.38.38-.28Zm0,0"/><path class="cls-3" d="M97.71,46.07,95,47.66l0-.24.15-.5.24-.49.31-.45L96,45.6l.38-.28Zm0,0"/><path class="cls-3" d="M101.4,43.93l-3.18,1.82V44l1.68-1Zm0,0"/><path class="cls-2" d="M99.94,43.08l-1.67,1V43.3l1-.59Zm0,0"/><path class="cls-2" d="M99.94,43.08l-.64-.37L98,41.95l-.12-.07-1.14-3.15-2.51-1.46v-.51l7,4.28v2.89Zm0,0"/><path class="cls-3" d="M105.5,41.58l-2.76,1.59,0-.24.15-.5.24-.49.31-.45.36-.38.38-.28Zm0,0"/><path class="cls-3" d="M109.43,39.41l-2.21,1.38V39.07l.82-.52Zm-.17,0"/><path class="cls-2" d="M107.78,38.55l-.9.52v-.74l.26-.15Zm0,0"/><path class="cls-2" d="M107.78,38.55l-.47-.37-.09-.15v-1.7l-5-2.8v-3l7,4.28v4.67l-.07-.11Zm0,0"/><path class="cls-2" d="M41.22,77.07v1.71l-1-.37V76.7Zm-.16,0"/><path class="cls-3" d="M37.22,76.8V75.09l1.54-.78,1.38.86Zm.4,0"/><path class="cls-4" d="M56.76,67.26l-1.57.91v-.33l-.36-1,.62-.36Zm0,0"/><path class="cls-3" d="M55.45,66.51l-.62.36-.33-.9Zm0,0"/><path class="cls-4" d="M70.8,59.16l-.6.35v-.33L70,58.72Zm0,0"/><path class="cls-4" d="M84.83,51.06l-.6.35v-.33l-.17-.46Zm0,0"/><path class="cls-4" d="M99.29,42.71l-1,.59V43l-.36-1,.08,0Zm0,0"/><path class="cls-3" d="M98,41.95l-.08,0,0-.11Zm0,0"/><path class="cls-4" d="M107.13,38.18l-.26.15V38Zm0,0"/><path class="cls-6" d="M38.58,67.19,41,62.35l7.42,4.28L46,71.47Zm0,0"/><path class="cls-2" d="M44.07,74.26,36.65,70l1.93-2.79L46,71.47Zm0,0"/><path class="cls-2" d="M48.39,66.63,41,62.35l4.44-2.57.47-.27.35-.2.2.11.54.31.19.11,4.5,2.6.28.16,1.09.63.61.35-1,.56Zm0,0"/><path class="cls-3" d="M52.22,64.16l1.19-.56,1,2.36.4.9.43,1v3l-.38.21-.06-.41-.15-.33-.24-.22L54.09,70l-.36,0-.38.16-.38.28-.36.38-.31.45-.24.49-.15.5-.05.47-.33.19-.21.12,0,0-3.12,1.8-.05-.41L48,74.16l-.24-.22-.31-.09-.36,0-.38.16-.38.28-.36.38-.31.45-.24.49-.15.5-.05.47-.33.19-.21.12,0,0-.45.31v-3l1.63-2.79,6.37-3.85Zm.45,0"/><path class="cls-3" d="M52.22,67.62l-6.45,3.85L48,66.63l4.17-2.48Zm.45,0"/><path class="cls-3" d="M45.19,76.61l.05-.47.15-.5.24-.49.31-.45.36-.38.38-.28.38-.16.36,0,.31.09.24.22.15.33.05.41-.05.47-.15.5-.24.49-.31.45-.36.38-.38.28-.38.16-.36,0-.31-.09-.24-.22L45.24,77Zm0,0"/><path class="cls-3" d="M51.86,72.76l.05-.47.15-.5.24-.49.31-.45.36-.38.38-.28.38-.16.36,0,.31.09.24.22.15.33.05.41-.05.47-.15.5-.24.49-.31.45-.36.38-.38.28-.38.16-.36,0-.31-.09-.24-.22-.15-.33Zm0,0"/><path class="cls-7" d="M52.06,73.5l.24.22-.93-.54-.09-.09,0,0Zm0,0"/><path class="cls-2" d="M45.24,77l.15.33-.74-.43.21-.12Zm0,0"/><path class="cls-2" d="M45.24,77l-.38-.22.33-.19Zm0,0"/><path class="cls-7" d="M44.64,76.93l.74.43.24.22L44.69,77,44.6,77Zm0,0"/><path class="cls-2" d="M51.91,73.17l.15.33-.74-.43.21-.12Zm0,0"/><path class="cls-2" d="M51.91,73.17,51.53,73l.33-.19Zm0,0"/><path class="cls-6" d="M53.59,58.53,56,53.69,63.39,58,61,62.81Zm0,0"/><path class="cls-2" d="M59.07,65.6l-7.42-4.28,1.93-2.79L61,62.81Zm0,0"/><path class="cls-2" d="M56,53.69l5.26-3,4.46,2.58,3,1.7-1,.56L63.39,58Zm0,0"/><path class="cls-2" d="M52.07,62.36l.11,0h.13l.14.05.14.1.14.13.12.16.09.18.06.19,0,.11-1.09-.63v0l0-.13Zm0,0"/><path class="cls-3" d="M67.22,55.49l1.2-.56,1.51,3.78.29.46v3l-.38.21L69.78,62l-.15-.33-.24-.22-.31-.09-.36,0-.38.16-.38.28-.36.38-.31.45-.24.49-.15.5,0,.24,0,.23-3.71,2.14-.05-.41L63,65.5l-.24-.22-.31-.09-.36,0-.38.16-.38.28-.36.38-.31.45-.24.49-.15.5,0,.24,0,.23-1,.64v-3l1.63-2.79L67.22,59Zm.46,0"/><path class="cls-3" d="M67.22,59l-6.45,3.85L63,58l4.17-2.48Zm.46,0"/><path class="cls-2" d="M61.67,65.38l.38-.16,1,.61.05.41L63,66.13Zm0,0"/><path class="cls-2" d="M63.1,65.83l-1-.61.36,0,.54.31Zm0,0"/><path class="cls-7" d="M63,65.5l-.54-.31.31.09Zm0,0"/><path class="cls-2" d="M68.35,61.53l.38-.16,1,.61.05.41-.19-.11Zm0,0"/><path class="cls-2" d="M69.78,62l-1-.61.36,0,.54.31Zm0,0"/><path class="cls-7" d="M69.63,61.64l-.54-.31.31.09Zm0,0"/><path class="cls-2" d="M47.91,54.66l.33.25.21.29.07.31-.07.31-.21.29-.33.25-.43.19-.51.12-.54,0-.54,0-.51-.12-.43-.19-.33-.25-.21-.29-.07-.31.06-.25,0-.07.19-.27,0,0,.06,0,.28-.21.43-.19.51-.12.54,0,.54,0,.51.12Zm0,0"/><path class="cls-3" d="M47.91,56.37l.33-.25v1.07l-.33.25Zm0,0"/><path class="cls-3" d="M47.91,56.37v1.07l-.43.19V56.56Zm0,0"/><path class="cls-3" d="M47.91,57.44l.33-.25v1.07l-.33.25Zm0,0"/><path class="cls-3" d="M48.24,57.19V56.12l.21-.29V56.9Zm0,0"/><path class="cls-3" d="M48.52,55.52v1.07l-.07.31V55.83Zm0,0"/><path class="cls-2" d="M45.37,56.56l.51.12v1.07l-.51-.12Zm0,0"/><path class="cls-2" d="M45.37,56.56v1.07l-.43-.19V56.37Zm0,0"/><path class="cls-2" d="M45.37,57.63l.51.12v1.07l-.51-.12Zm0,0"/><path class="cls-2" d="M45.88,57.76V56.69l.54,0V57.8Zm0,0"/><path class="cls-3" d="M48.45,56.9l.07-.31v1.07l-.07.31Zm0,0"/><path class="cls-3" d="M48.24,57.19l.21-.29V58l-.21.29Zm0,0"/><path class="cls-3" d="M47.47,57.63l.43-.19v1.07l-.43.19Zm0,0"/><path class="cls-7" d="M46.42,57.8V56.73l.54,0v1.07Zm0,0"/><path class="cls-7" d="M46.42,57.8l.54,0v1.07l-.54,0Zm0,0"/><path class="cls-2" d="M45.88,57.76l.54,0v1.07l-.54,0Zm0,0"/><path class="cls-2" d="M44.94,56.37v1.07l-.33-.25V56.12Zm0,0"/><path class="cls-2" d="M44.61,56.12v1.07l-.21-.29V55.83Zm0,0"/><path class="cls-2" d="M44.4,55.83V56.9l-.07-.31V55.52Zm0,0"/><path class="cls-2" d="M44.94,57.44l.43.19v1.07l-.43-.19Zm0,0"/><path class="cls-2" d="M44.61,57.19l.33.25v1.07l-.33-.25Zm0,0"/><path class="cls-2" d="M44.32,56.59l.07.31V58l-.07-.31V56.59Zm0,0"/><path class="cls-8" d="M47,56.69l.51-.12v1.07l-.51.12Zm0,0"/><path class="cls-8" d="M47,57.76l.51-.12v1.07l-.51.12Zm0,0"/><path class="cls-2" d="M44.4,56.9l.21.29v1.07L44.4,58Zm0,0"/><path class="cls-3" d="M44.32,57.15l-.28.21V56.29l.28-.21v1.07Zm0,0"/><path class="cls-3" d="M44.32,56.08l-.28.21V55.21l.33-.25v.31l-.06.25Zm0,0"/><path class="cls-3" d="M44,56.29v1.07l-.43.19V56.48Zm0,0"/><path class="cls-2" d="M42,57.67l-.51-.12V56.48l.51.12Zm0,0"/><path class="cls-2" d="M41.52,56.48v1.07l-.43-.19V56.29Zm0,0"/><path class="cls-2" d="M42,56.6l-.51-.12V55.41l.51.12Zm0,0"/><path class="cls-2" d="M42,57.67V56.6l.54,0v1.07Zm0,0"/><path class="cls-7" d="M43.11,57.67l-.54,0V56.64l.54,0Zm0,0"/><path class="cls-8" d="M43.61,57.55l-.51.12V56.6l.51-.12Zm0,0"/><path class="cls-2" d="M41.52,56.48l-.43-.19V55.21l.43.19Zm0,0"/><path class="cls-2" d="M41.08,56.29v1.07l-.33-.25V56Zm0,0"/><path class="cls-2" d="M40.75,56V57.1l-.21-.29V55.74Zm0,0"/><path class="cls-2" d="M40.54,55.74v1.07l-.07-.31V55.43Zm0,0"/><path class="cls-8" d="M43.61,56.48l-.51.12V55.53l.51-.12Zm0,0"/><path class="cls-3" d="M44,56.29l-.43.19V55.41l.43-.19Zm0,0"/><path class="cls-7" d="M43.11,56.6l-.54,0V55.57l.54,0Zm0,0"/><path class="cls-2" d="M40.54,55.74l-.07-.31V54.36l.07.31Zm0,0"/><path class="cls-2" d="M40.75,56l-.21-.29V54.67l.21.29Zm0,0"/><path class="cls-2" d="M41.08,56.29,40.75,56V55l.33.25Zm0,0"/><path class="cls-2" d="M42.56,56.64l-.54,0V55.53l.54,0Zm0,0"/><path class="cls-3" d="M44.38,55l-.33.25V54.14l.33-.25Zm0,0"/><path class="cls-3" d="M44.38,55.27V55l.21-.29v.26l-.19.27Zm0,0"/><path class="cls-3" d="M44.66,54.36v.51l-.06,0,0,0v-.26Zm0,0"/><path class="cls-2" d="M42,55.53l-.51-.12V54.34l.51.12Zm0,0"/><path class="cls-2" d="M41.52,55.41l-.43-.19V54.14l.43.19Zm0,0"/><path class="cls-3" d="M44.66,54.36l-.07.31V53.6l.07-.31Zm0,0"/><path class="cls-8" d="M43.61,55.41l-.51.12V54.46l.51-.12Zm0,0"/><path class="cls-3" d="M44.59,54.67l-.21.29V53.89l.21-.29Zm0,0"/><path class="cls-3" d="M44,55.21l-.43.19V54.34l.43-.19Zm0,0"/><path class="cls-7" d="M43.11,55.53l-.54,0V54.5l.54,0Zm0,0"/><path class="cls-2" d="M40.54,54.67l-.07-.31V53.29l.07.31Zm0,0"/><path class="cls-2" d="M40.75,55l-.21-.29V53.6l.21.29Zm0,0"/><path class="cls-2" d="M41.08,55.21,40.75,55V53.89l.33.25Zm0,0"/><path class="cls-2" d="M42.56,55.57l-.54,0V54.46l.54,0Zm0,0"/><path class="cls-3" d="M47.91,58.51l.33-.25v1.07l-.33.25Zm0,0"/><path class="cls-2" d="M45.37,58.71l.51.12v.69l-.47.27h0Zm0,0"/><path class="cls-3" d="M48.45,58l.07-.31v1.07l-.07.31Zm0,0"/><path class="cls-3" d="M48.24,58.26l.21-.29V59l-.21.29Zm0,0"/><path class="cls-3" d="M47.47,58.71l.43-.19v1.07l-.43.19Zm0,0"/><path class="cls-7" d="M46.42,58.87l.54,0v.92l-.54-.31Zm0,0"/><path class="cls-8" d="M47,58.83l.51-.12v1.07l-.32.08L47,59.74Zm0,0"/><path class="cls-2" d="M45.88,58.83l.54,0v.56l-.2-.11-.35.2Zm0,0"/><path class="cls-2" d="M44.94,58.51l.43.19v1.07l-.43-.19Zm0,0"/><path class="cls-2" d="M44.61,58.26l.33.25v1.07l-.33-.25Zm0,0"/><path class="cls-2" d="M44.32,57.66l.07.31V59l-.07-.31Zm0,0"/><path class="cls-2" d="M44.4,58l.21.29v1.07L44.4,59Zm0,0"/><path class="cls-2" d="M44,52.43l.33.25.21.29.07.31-.07.31-.21.29-.33.25-.43.19-.51.12-.54,0-.54,0-.51-.12-.43-.19-.33-.25-.21-.29-.07-.31.07-.31.21-.29.33-.25.43-.19.51-.12.54,0,.54,0,.51.12Zm0,0"/><path class="cls-2" d="M73.11,57.49l-7.42-4.28,1.93-2.79L75,54.71Zm0,0"/><path class="cls-2" d="M70,45.59l5.26-3,4.46,2.58,3,1.7-1,.56-4.29,2.48Zm0,0"/><path class="cls-6" d="M70,45.59l7.42,4.28L75,54.71l-7.42-4.28,1.26-2.55,0,0,.19-.38.08-.17.24-.48v0l.1-.2.41-.83Zm0,0"/><path class="cls-3" d="M81.22,47.39l1.21-.56,1.5,3.78.29.46v3l-.36.21,0-.41-.15-.33-.23-.22-.31-.09-.36,0-.38.16-.38.28-.36.38-.31.45L81.1,55l-.15.5,0,.24,0,.23-3.71,2.14-.05-.41L77,57.39l-.24-.22-.31-.09-.36,0-.38.16-.38.28-.36.38-.31.45-.24.49-.15.5,0,.24,0,.23-1.06.64v-3l1.63-2.79,6.37-3.85Zm.49,0"/><path class="cls-3" d="M81.22,50.85l-6.43,3.85,2.26-4.84,4.17-2.48Zm.49,0"/><path class="cls-2" d="M75.71,57.28l.38-.16,1,.61.05.41L77,58Zm0,0"/><path class="cls-2" d="M77.14,57.72l-1-.61.36,0,.54.31Zm0,0"/><path class="cls-7" d="M77,57.39l-.54-.31.31.09Zm0,0"/><path class="cls-2" d="M82.38,53.43l.38-.16,1,.61.05.41-.19-.11Zm0,0"/><path class="cls-2" d="M83.81,53.87l-1-.61.36,0,.54.31Zm0,0"/><path class="cls-7" d="M83.66,53.54l-.54-.31.31.09Zm0,0"/><path class="cls-2" d="M66.6,47.6l.07-.11.12-.1.16-.08.19-.05.2,0h.2l.19,0,.14.06h0l.09.06,0,0,.09.11v0l0,.08,0,.12-.07.11L68,48l-.16.08-.19.05-.2,0h-.2l-.19,0L66.84,48l-.13-.09-.09-.11,0-.12Zm0,0"/><path class="cls-3" d="M68,48l.12-.1v.49l-.12.1Zm0,0"/><path class="cls-9" d="M67.61,48.62l-.2,0v-.49l.2,0Zm0,0"/><path class="cls-10" d="M67.61,48.62v-.49l.19-.05v.49Zm0,0"/><path class="cls-2" d="M67.41,48.14v.49h-.2v-.49Zm0,0"/><path class="cls-3" d="M67.8,48.57v-.49L68,48v.49Zm0,0"/><path class="cls-3" d="M68.14,48.28l-.07.11V47.9l.07-.11Zm0,0"/><path class="cls-3" d="M68.14,48.28v-.49l0-.12v.49Zm0,0"/><path class="cls-2" d="M67.21,48.63l-.19,0v-.49l.19,0Zm0,0"/><path class="cls-2" d="M67,48.59l-.14-.06v-.12l0-.08V48l.17.07Zm0,0"/><path class="cls-2" d="M68.12,47.55,68,47.44l0,0V47.2l.13.09v.26Zm0,0"/><path class="cls-2" d="M66.62,47.83l.09.11v.23l-.09-.06Zm0,0"/><path class="cls-2" d="M66.71,47.94l.13.09v.26l-.09-.11,0,0Zm0,0"/><path class="cls-2" d="M66.59,48.08v-.37l0,.12v.27h0Zm0,0"/><path class="cls-2" d="M67.89,46.85l.07-.11.12-.1.16-.08.19-.05.2,0h.2l.19,0,.14.06h0l.09.06,0,0,.09.11h0l-.24.48-.08,0-.19.05-.2,0h-.2l-.19,0-.17-.07L68,47.2l-.09-.11,0-.12Zm0,0"/><path class="cls-2" d="M69.4,46.81h0l-.09-.11,0,0v-.23l.13.09v.27Zm0,0"/><path class="cls-9" d="M68.88,47.88l-.18,0V47.4l.2,0v.45Zm0,0"/><path class="cls-10" d="M68.9,47.83v-.45l.19-.05v.13Zm0,0"/><path class="cls-2" d="M68.7,47.4v.49h-.2v-.49Zm0,0"/><path class="cls-3" d="M69.09,47.46v-.13l.08,0Zm0,0"/><path class="cls-2" d="M68.49,47.89l-.19,0v-.49l.19,0Zm0,0"/><path class="cls-2" d="M68.3,47.85l-.14-.06v-.12l0-.08v-.3l.17.07Zm0,0"/><path class="cls-2" d="M67.91,47.09l.09.11v.23l-.09-.06Zm0,0"/><path class="cls-2" d="M67.87,47.34V47l0,.12v.27h0Zm0,0"/><path class="cls-2" d="M69.17,46.11l.07-.11.12-.1.16-.08.19-.05.2,0h0l-.41.83-.1,0-.13-.09-.09-.11,0-.12Zm0,0"/><path class="cls-2" d="M69.19,46.35l.09.11v.23l-.09-.06Zm0,0"/><path class="cls-2" d="M69.42,46.78v-.24l.1,0Zm0,0"/><path class="cls-2" d="M69.16,46.6v-.37l0,.12v.27h0Zm0,0"/><path class="cls-2" d="M65.32,48.34l.07-.11.12-.1.16-.08.19-.05.2,0h.2l.19,0,.14.06h0l.09.06,0,0,.09.11v0l0,.08,0,.12-.07.11-.12.1-.16.08-.19.05-.2,0h-.2l-.19,0-.17-.07-.13-.09-.09-.11,0-.12Zm0,0"/><path class="cls-3" d="M66.67,48.74l.12-.1v.49l-.12.1Zm0,0"/><path class="cls-9" d="M66.33,49.36l-.2,0v-.5l.2,0Zm0,0"/><path class="cls-10" d="M66.33,49.36v-.49l.19-.05v.49Zm0,0"/><path class="cls-2" d="M66.13,48.89v.5h-.2v-.49Zm0,0"/><path class="cls-3" d="M66.51,49.31v-.49l.16-.08v.49Zm0,0"/><path class="cls-3" d="M66.85,49l-.07.11v-.49l.07-.11Zm0,0"/><path class="cls-3" d="M66.85,49v-.49l0-.12v.49Zm0,0"/><path class="cls-2" d="M65.92,49.37l-.19,0v-.49l.19,0Zm0,0"/><path class="cls-2" d="M65.73,49.33l-.14-.06v-.12l0-.08v-.3l.17.07Zm0,0"/><path class="cls-2" d="M65.34,48.57l.09.11v.23l-.09-.06Zm0,0"/><path class="cls-2" d="M65.43,48.68l.13.09V49l-.09-.11,0,0Zm0,0"/><path class="cls-2" d="M65.3,48.83v-.37l0,.12v.27h0Zm0,0"/><path class="cls-2" d="M64,49.08,64.1,49l.12-.1.16-.08.19-.05.2,0H65l.19,0,.14.06h0l.09.06,0,0,.09.11v0l0,.08,0,.12-.07.11-.12.1-.16.08-.19.05-.2,0h-.2l-.19,0-.17-.07-.13-.09-.09-.11,0-.12Zm0,0"/><path class="cls-3" d="M65.38,49.48l.12-.1v.49l-.12.1Zm0,0"/><path class="cls-9" d="M65,50.1l-.2,0v-.49l.2,0Zm0,0"/><path class="cls-10" d="M65,50.1v-.49l.19-.05v.49Zm0,0"/><path class="cls-2" d="M64.84,49.63v.49h-.2v-.49Zm0,0"/><path class="cls-3" d="M65.23,50.05v-.49l.16-.08V50Zm0,0"/><path class="cls-3" d="M65.57,49.76l-.07.11v-.49l.07-.11Zm0,0"/><path class="cls-3" d="M65.57,49.76v-.49l0-.12v.49Zm0,0"/><path class="cls-2" d="M64.64,50.11l-.19,0v-.49l.19,0Zm0,0"/><path class="cls-2" d="M64.44,50.07,64.27,50v-.49l.17.07Zm0,0"/><path class="cls-2" d="M64.27,50l-.13-.09v-.49l.13.09Zm0,0"/><path class="cls-2" d="M64.14,49.92l-.09-.11v-.49l.09.11Zm0,0"/><path class="cls-2" d="M64.05,49.81l0-.12V49.2l0,.12Zm0,0"/><path class="cls-2" d="M87.14,49.39l-7.42-4.28,1.93-2.79,7.42,4.28Zm0,0"/><path class="cls-2" d="M88.33,35l1-.56,4.89,2.82,2.52,1.46-1,.56Zm0,0"/><path class="cls-3" d="M96.22,39.29l.73-.56,1,3.15,0,.11.28,1v3l-.34.21,0-.41-.14-.33-.23-.22-.31-.09-.36,0-.38.16L96,45.6l-.36.38-.31.45-.24.49-.15.5,0,.24,0,.23L91.22,50l-.05-.41L91,49.29l-.24-.22L90.48,49l-.36,0-.38.16-.38.28-.36.38-.31.45-.24.49-.15.5,0,.24v.23l-1.08.64v-3l2.13-2.79,6.87-3.85Zm-.47,0"/><path class="cls-2" d="M95.75,42.75,89.07,46.6l-7.42-4.28,6.67-3.85Zm0,0"/><path class="cls-2" d="M89.74,49.18l.38-.16,1,.61.05.41L91,49.93Zm0,0"/><path class="cls-2" d="M91.17,49.62l-1-.61.36,0,.54.31Zm0,0"/><path class="cls-7" d="M91,49.29,90.48,49l.31.09Zm0,0"/><path class="cls-2" d="M96.41,45.32l.38-.16,1,.61.05.41-.19-.11Zm0,0"/><path class="cls-2" d="M97.85,45.77l-1-.61.36,0,.54.31Zm0,0"/><path class="cls-7" d="M97.7,45.44l-.54-.31.31.09Zm0,0"/><path class="cls-2" d="M96.22,39.29v3.46l-8-4.28V35Zm-.47,0"/><path class="cls-2" d="M105.37,25.17l1-.56,7.42,4.28-1,.56Zm0,0"/><path class="cls-3" d="M113.22,29.45l.71-.56,1.29,4.24v2.12l-3-1.9,1-.44Zm-.44,0"/><path class="cls-3" d="M112,37.59l-.16.47-2.63,1.46V34.84l.63-.3,2.81,1.59h0l-.29.45-.23.49Zm0,0"/><path class="cls-2" d="M113.22,29.45v3.46l-8-4.28V25.17Zm-.44,0"/><path class="cls-2" d="M105.37,28.63l7.42,4.28-.76.44-7.42-4.28Zm0,0"/><path class="cls-2" d="M110,34.55l-.51.3L102,30.56l.51-.3Zm0,0"/><path class="cls-3" d="M103.46,41.48l-.31.45-.24.49-.15.5,0,.24-.22.23-1.31.64V41l2.3-2.79,3.7-1.93V41l-1.36.68-.14-.41-.19-.33-.26-.22-.32-.09-.36,0-.39.16-.39.28Zm0,0"/><path class="cls-2" d="M106.87,36.33l-3.34,1.93L96.12,34,99.46,32,102,33.53Zm0,0"/><path class="cls-2" d="M103.54,38.25,101.61,41l-7.42-4.28L96.12,34Zm0,0"/><path class="cls-2" d="M104.2,40.83l.38-.16,1,.61.05.41-.19-.11Zm0,0"/><path class="cls-2" d="M104.59,40.66l.36,0,.54.31.15.33Zm0,0"/><path class="cls-7" d="M104.95,40.63l.31.09.24.22Zm0,0"/><path class="cls-11" d="M79,14.8l.43-.25,8.44,4.88,16.71,9.65L112,33.36l3.28,1.9,5.62,3.24-.43.25Zm0,0"/><path class="cls-12" d="M79.22,14.8l41,23.94V49.63l-1-.94v-9l-6.32-3.55L110,34.55l-7.46-4.28L85.85,20.62l-5-2.74-.65-.25v9l-1-.94V14.8Zm-.2,0"/><path class="cls-11" d="M80.22,26.63v-9l1,.25v9.75l-5,2.72V29.11Zm.43,0"/><path class="cls-11" d="M120.22,38.74l1-.25V50.62l-5,2.72V52.11l4-2.47Zm.27,0"/><path class="cls-12" d="M118.86,48.69l1.63.94-4.29,2.47-1.63-.94Zm0,0"/><path class="cls-12" d="M79,25.69l1.63.94-4.29,2.47-1.63-.94Zm0,0"/><path class="cls-12" d="M116.22,52.11v1.24l-2-.94V51.16Zm0,0"/><path class="cls-12" d="M76.22,29.11v1.24l-1-.94V28.16Zm.14,0"/><path class="cls-2" d="M43.3,74.47l.12.16.09.18.06.19,0,.18v.16l0,.13-.08.09-.11,0h-.13l-.14-.05-.14-.1-.14-.13-.12-.16L42.58,75l-.06-.19,0-.18v-.16l0-.13.08-.09.11,0h.13l.14.05.14.1Zm0,0"/><path class="cls-2" d="M38,72.26l-.08.09-.11,0h-.13l-.14-.05-.14-.1-.14-.13-.12-.16L37,71.77,37,71.58l0-.18v-.16l0-.13.08-.09.11,0h.13l.14.05.14.1.14.13.12.16.09.18.06.19L38,72v.16Zm0,0"/><path class="cls-2" d="M58.3,65.81l.12.16.09.18.06.19,0,.18v.16l0,.13-.08.09-.11,0h-.13l-.14-.05-.14-.1-.14-.13-.12-.16-.09-.18-.06-.19,0-.18v-.16l0-.13.08-.09.11,0h.13l.14.05.14.1Zm0,0"/><path class="cls-2" d="M69.39,72.57v1.07L69,73.45V72.38Zm0,0"/><path class="cls-2" d="M69.39,73.64V72.57l.51.12v1.07Zm0,0"/><path class="cls-2" d="M69.89,72.69l-.51-.12V71.5l.51.12Zm0,0"/><path class="cls-3" d="M72.19,73.24l-.28.21V72.38l.28-.21v1.07Zm0,0"/><path class="cls-3" d="M72.19,72.17l-.28.21V71.31l.33-.25v.31l-.06.25Zm0,0"/><path class="cls-3" d="M71.92,72.38v1.07l-.43.19V72.57Zm0,0"/><path class="cls-2" d="M69.89,73.76V72.69l.54,0V73.8Zm0,0"/><path class="cls-7" d="M71,73.76l-.54,0V72.73l.54,0Zm0,0"/><path class="cls-8" d="M71.48,73.64l-.51.12V72.69l.51-.12Zm0,0"/><path class="cls-2" d="M69.39,72.57,69,72.38V71.31l.43.19Zm0,0"/><path class="cls-2" d="M69,72.38v1.07l-.33-.25V72.13Zm0,0"/><path class="cls-2" d="M68.62,72.13V73.2l-.21-.29V71.83Zm0,0"/><path class="cls-2" d="M68.41,71.83V72.9l-.07-.31V71.52Zm0,0"/><path class="cls-8" d="M71.48,72.57l-.51.12V71.62l.51-.12Zm0,0"/><path class="cls-3" d="M71.92,72.38l-.43.19V71.5l.43-.19Zm0,0"/><path class="cls-7" d="M71,72.69l-.54,0V71.66l.54,0Zm0,0"/><path class="cls-2" d="M68.41,71.83l-.07-.31V70.45l.07.31Zm0,0"/><path class="cls-2" d="M68.62,72.13l-.21-.29V70.76l.21.29Zm0,0"/><path class="cls-2" d="M69,72.38l-.33-.25V71.05l.33.25Zm0,0"/><path class="cls-2" d="M70.43,72.73l-.54,0V71.62l.54,0Zm0,0"/><path class="cls-3" d="M72.25,71.05l-.33.25V70.24l.33-.25Zm0,0"/><path class="cls-3" d="M72.25,71.36v-.31l.21-.29V71l-.19.27Zm0,0"/><path class="cls-3" d="M72.53,70.45V71l-.06,0,0,0v-.26Zm0,0"/><path class="cls-2" d="M69.89,71.62l-.51-.12V70.43l.51.12Zm0,0"/><path class="cls-2" d="M69.39,71.5,69,71.31V70.24l.43.19Zm0,0"/><path class="cls-3" d="M72.53,70.45l-.07.31V69.69l.07-.31Zm0,0"/><path class="cls-8" d="M71.48,71.5l-.51.12V70.55l.51-.12Zm0,0"/><path class="cls-3" d="M72.46,70.76l-.21.29V70l.21-.29Zm0,0"/><path class="cls-3" d="M71.92,71.31l-.43.19V70.43l.43-.19Zm0,0"/><path class="cls-7" d="M71,71.62l-.54,0V70.59l.54,0Zm0,0"/><path class="cls-2" d="M68.41,70.76l-.07-.31V69.38l.07.31Zm0,0"/><path class="cls-2" d="M68.62,71.05l-.21-.29V69.69l.21.29Zm0,0"/><path class="cls-2" d="M69,71.31l-.33-.25V70l.33.25Zm0,0"/><path class="cls-2" d="M70.43,71.66l-.54,0V70.55l.54,0Zm0,0"/><path class="cls-2" d="M71.92,68.52l.33.25.21.29.07.31-.07.31-.21.29-.33.25-.43.19-.51.12-.54,0-.54,0-.51-.12L69,70.24,68.62,70l-.21-.29-.07-.31.07-.31.21-.29.33-.25.43-.19.51-.12.54,0,.54,0,.51.12Zm0,0"/><path class="cls-2" d="M75.78,70.75l.33.25.21.29.07.31-.07.31-.21.29-.33.25-.43.19-.51.12-.54,0-.54,0-.51-.12-.43-.19-.33-.25-.21-.29-.07-.31.06-.25,0-.07.19-.27,0,0,.06,0,.28-.21.43-.19.51-.12.54,0,.54,0,.51.12Zm0,0"/><path class="cls-3" d="M75.78,72.46l.33-.25v1.07l-.33.25Zm0,0"/><path class="cls-3" d="M75.78,72.46v1.07l-.43.19V72.66Zm0,0"/><path class="cls-3" d="M75.78,73.53l.33-.25v1.07l-.33.25Zm0,0"/><path class="cls-3" d="M76.11,73.28V72.21l.21-.29V73Zm0,0"/><path class="cls-3" d="M76.39,71.61v1.07l-.07.31V71.92Zm0,0"/><path class="cls-2" d="M73.24,72.66l.51.12v1.07l-.51-.12Zm0,0"/><path class="cls-2" d="M73.24,72.66v1.07l-.43-.19V72.46Zm0,0"/><path class="cls-2" d="M73.24,73.73l.51.12v1.07l-.51-.12Zm0,0"/><path class="cls-2" d="M73.75,73.85V72.78l.54,0v1.07Zm0,0"/><path class="cls-3" d="M76.32,73l.07-.31v1.07l-.07.31Zm0,0"/><path class="cls-3" d="M76.11,73.28l.21-.29v1.07l-.21.29Zm0,0"/><path class="cls-3" d="M75.34,73.73l.43-.19V74.6l-.43.19Zm0,0"/><path class="cls-7" d="M74.29,73.89V72.82l.54,0v1.07Zm0,0"/><path class="cls-7" d="M74.29,73.89l.54,0v1.07l-.54,0Zm0,0"/><path class="cls-2" d="M73.75,73.85l.54,0V75l-.54,0Zm0,0"/><path class="cls-2" d="M72.81,72.46v1.07l-.33-.25V72.21Zm0,0"/><path class="cls-2" d="M72.48,72.21v1.07L72.27,73V71.92Zm0,0"/><path class="cls-2" d="M72.27,71.92V73l-.07-.31V71.61Zm0,0"/><path class="cls-2" d="M72.81,73.53l.43.19V74.8l-.43-.19Zm0,0"/><path class="cls-2" d="M72.48,73.28l.33.25V74.6l-.33-.25Zm0,0"/><path class="cls-2" d="M72.19,72.68l.07.31v1.07l-.07-.31V72.68Zm0,0"/><path class="cls-8" d="M74.84,72.78l.51-.12v1.07l-.51.12Zm0,0"/><path class="cls-8" d="M74.84,73.85l.51-.12V74.8l-.51.12Zm0,0"/><path class="cls-2" d="M72.27,73l.21.29v1.07l-.21-.29Zm0,0"/><path class="cls-3" d="M75.78,74.6l.33-.25v1.07l-.33.25Zm0,0"/><path class="cls-3" d="M75.78,74.6v1.07l-.43.19V74.8Zm0,0"/><path class="cls-3" d="M76.11,75.42V74.35l.21-.29v1.07Zm0,0"/><path class="cls-3" d="M76.39,73.75v1.07l-.07.31V74.06Zm0,0"/><path class="cls-2" d="M73.24,74.8l.51.12V76l-.51-.12Zm0,0"/><path class="cls-2" d="M73.24,74.8v1.07l-.43-.19V74.6Zm0,0"/><path class="cls-2" d="M73.75,76V74.92l.54,0V76Zm0,0"/><path class="cls-7" d="M74.84,76l-.54,0V75l.54,0Zm0,0"/><path class="cls-8" d="M75.34,75.87l-.51.12V74.92l.51-.12Zm0,0"/><path class="cls-2" d="M72.81,74.6v1.07l-.33-.25V74.35Zm0,0"/><path class="cls-2" d="M72.48,74.35v1.07l-.21-.29V74.06Zm0,0"/><path class="cls-2" d="M72.27,74.06v1.07l-.07-.31V73.75Zm0,0"/><path class="cls-2" d="M77.11,68.88l-.54,0V67.77l.54,0Zm0,0"/><path class="cls-2" d="M76.57,68.84l.54,0v1.07l-.54,0Zm0,0"/><path class="cls-2" d="M76.57,68.84v1.07l-.51-.12V68.72Zm0,0"/><path class="cls-2" d="M76.06,68.72v1.07l-.43-.19V68.52Zm0,0"/><path class="cls-2" d="M76.57,68.84l-.51-.12V67.64l.51.12Zm0,0"/><path class="cls-8" d="M78.16,69.79l-.51.12V68.84l.51-.12Zm0,0"/><path class="cls-8" d="M78.16,68.72l-.51.12V67.77l.51-.12Zm0,0"/><path class="cls-7" d="M77.65,68.84v1.07l-.54,0V68.88Zm0,0"/><path class="cls-3" d="M78.16,69.79V68.72l.43-.19v1.07Zm0,0"/><path class="cls-2" d="M75.29,69.34l-.21-.29V68l.21.29Zm0,0"/><path class="cls-2" d="M75.29,68.27,75.08,68V66.91l.21.29Zm0,0"/><path class="cls-2" d="M75.08,68v1.07L75,68.74V67.67Zm0,0"/><path class="cls-2" d="M75.29,69.34V68.27l.33.25v1.07Zm0,0"/><path class="cls-3" d="M78.87,69.38l-.28.21V68.52l.28-.21v1.07Zm0,0"/><path class="cls-3" d="M78.59,68.52l-.43.19V67.64l.43-.19Zm0,0"/><path class="cls-3" d="M78.87,68.31l-.28.21V67.45l.33-.25v.31l-.06.25Zm0,0"/><path class="cls-2" d="M76.06,68.72l-.43-.19V67.45l.43.19Zm0,0"/><path class="cls-2" d="M75.08,68,75,67.67V66.6l.07.31Zm0,0"/><path class="cls-2" d="M75.63,68.52l-.33-.25V67.2l.33.25Zm0,0"/><path class="cls-7" d="M77.65,68.84l-.54,0V67.81l.54,0Zm0,0"/><path class="cls-2" d="M77.11,67.81l-.54,0V66.7l.54,0Zm0,0"/><path class="cls-8" d="M78.16,67.64l-.51.12V66.7l.51-.12Zm0,0"/><path class="cls-2" d="M75.29,67.2l-.21-.29V65.84l.21.29Zm0,0"/><path class="cls-3" d="M78.59,67.45l-.43.19V66.57l.43-.19Zm0,0"/><path class="cls-3" d="M78.92,67.51V67.2l.21-.29v.26l-.19.27Zm0,0"/><path class="cls-3" d="M79.13,66.91l-.21.29V66.13l.21-.29Zm0,0"/><path class="cls-3" d="M79.13,67.17v-.26l.07-.31v.51l-.06,0Zm0,0"/><path class="cls-2" d="M76.57,67.77l-.51-.12V66.57l.51.12Zm0,0"/><path class="cls-3" d="M78.92,67.2l-.33.25V66.38l.33-.25Zm0,0"/><path class="cls-2" d="M76.06,67.64l-.43-.19V66.38l.43.19Zm0,0"/><path class="cls-3" d="M79.21,66.6l-.07.31V65.84l.07-.31Zm0,0"/><path class="cls-2" d="M75.08,66.91,75,66.6V65.53l.07.31Zm0,0"/><path class="cls-2" d="M75.63,67.45l-.33-.25V66.13l.33.25Zm0,0"/><path class="cls-7" d="M77.65,67.77l-.54,0V66.74l.54,0Zm0,0"/><path class="cls-2" d="M77.11,64.31l.54,0,.51.12.43.19.33.25.21.29.07.31-.07.31-.21.29-.33.25-.43.19-.51.12-.54,0-.54,0-.51-.12-.43-.19-.33-.25-.21-.29L75,65.53l.07-.31.21-.29.33-.25.43-.19.51-.12Zm0,0"/><path class="cls-2" d="M81,66.54l.54,0,.51.12.43.19.33.25.21.29.07.31-.07.31-.21.29-.33.25L82,68.8l-.51.12L81,69l-.54,0-.51-.12-.43-.19-.33-.25-.21-.29-.07-.31.06-.25,0-.07.19-.27,0,0,.06,0,.28-.21.43-.19.51-.12Zm0,0"/><path class="cls-2" d="M80.42,68.92,81,69V70l-.54,0Zm0,0"/><path class="cls-8" d="M81.51,68.92,82,68.8v1.07l-.51.12Zm0,0"/><path class="cls-7" d="M81.51,68.92V70L81,70V69Zm0,0"/><path class="cls-8" d="M81.51,70l.51-.12v1.07l-.51.12Zm0,0"/><path class="cls-3" d="M82,69.87V68.8l.43-.19v1.07Zm0,0"/><path class="cls-2" d="M78.94,68.07l.21.29v1.07l-.21-.29Zm0,0"/><path class="cls-2" d="M78.94,68.07v1.07l-.07-.31V67.75Zm0,0"/><path class="cls-2" d="M78.94,69.14l.21.29V70.5l-.21-.29Zm0,0"/><path class="cls-2" d="M79.15,69.43V68.36l.33.25v1.07Zm0,0"/><path class="cls-3" d="M82,69.87l.43-.19v1.07l-.43.19Zm0,0"/><path class="cls-3" d="M82.45,69.68V68.61l.33-.25v1.07Zm0,0"/><path class="cls-3" d="M82.45,69.68l.33-.25V70.5l-.33.25Zm0,0"/><path class="cls-3" d="M82.78,68.36l.21-.29v1.07l-.21.29Zm0,0"/><path class="cls-3" d="M82.78,69.43l.21-.29v1.07l-.21.29Zm0,0"/><path class="cls-3" d="M83,69.14V68.07l.07-.31v1.07Zm0,0"/><path class="cls-2" d="M79.92,68.8l.51.12V70l-.51-.12Zm0,0"/><path class="cls-2" d="M79.92,68.8v1.07l-.43-.19V68.61Zm0,0"/><path class="cls-2" d="M79.92,69.87l.51.12v1.07l-.51-.12Zm0,0"/><path class="cls-7" d="M81,70l.54,0v1.07l-.54,0Zm0,0"/><path class="cls-2" d="M80.42,70,81,70V71.1l-.54,0Zm0,0"/><path class="cls-2" d="M79.48,69.68l.43.19v1.07l-.43-.19Zm0,0"/><path class="cls-2" d="M79.15,69.43l.33.25v1.07l-.33-.25Zm0,0"/><path class="cls-2" d="M78.87,68.82l.07.31v1.07l-.07-.31V68.82Zm0,0"/><path class="cls-3" d="M83,69.14l.07-.31v1.07l-.07.31Zm0,0"/><path class="cls-2" d="M80.42,71.06l.54,0v1.07l-.54,0Zm0,0"/><path class="cls-8" d="M81.51,71.06l.51-.12V72l-.51.12Zm0,0"/><path class="cls-7" d="M81.51,71.06v1.07l-.54,0V71.1Zm0,0"/><path class="cls-3" d="M82,72V70.94l.43-.19v1.07Zm0,0"/><path class="cls-2" d="M78.94,70.21l.21.29v1.07l-.21-.29Zm0,0"/><path class="cls-2" d="M78.94,70.21v1.07L78.87,71V69.89Zm0,0"/><path class="cls-2" d="M79.15,71.57V70.5l.33.25v1.07Zm0,0"/><path class="cls-3" d="M82.78,71.57l-.33.25V70.75l.33-.25Zm0,0"/><path class="cls-3" d="M82.78,70.5l.21-.29v1.07l-.21.29Zm0,0"/><path class="cls-3" d="M83,71.28V70.21l.07-.31V71Zm0,0"/><path class="cls-2" d="M79.92,70.94l.51.12v1.07L79.92,72Zm0,0"/><path class="cls-2" d="M79.92,70.94V72l-.43-.19V70.75Zm0,0"/><path class="cls-2" d="M53.1,50.45l.54,0,.51.12.43.19.33.25.21.29.07.31-.07.31-.21.29-.33.25-.43.19-.51.12-.54,0-.54,0L52,52.71l-.43-.19-.33-.25L51.07,52,51,51.66l.06-.25,0-.07.19-.27,0,0,.06,0,.28-.21.43-.19.51-.12Zm0,0"/><path class="cls-2" d="M52.55,52.83l.54,0v1.07l-.54,0Zm0,0"/><path class="cls-8" d="M53.64,52.83l.51-.12v1.07l-.51.12Zm0,0"/><path class="cls-7" d="M53.64,52.83V53.9l-.54,0V52.87Zm0,0"/><path class="cls-8" d="M53.64,53.9l.51-.12v1.07l-.51.12Zm0,0"/><path class="cls-3" d="M54.15,53.78V52.71l.43-.19v1.07Zm0,0"/><path class="cls-2" d="M51.07,52l.21.29v1.07L51.07,53Zm0,0"/><path class="cls-2" d="M51.07,52V53L51,52.73V51.66Zm0,0"/><path class="cls-2" d="M51.07,53l.21.29v1.07l-.21-.29Zm0,0"/><path class="cls-2" d="M51.28,53.34V52.27l.33.25v1.07Zm0,0"/><path class="cls-3" d="M54.15,53.78l.43-.19v1.07l-.43.19Zm0,0"/><path class="cls-3" d="M54.58,53.59V52.52l.33-.25v1.07Zm0,0"/><path class="cls-3" d="M54.58,53.59l.33-.25v1.07l-.33.25Zm0,0"/><path class="cls-3" d="M54.91,52.27l.21-.29V53l-.21.29Zm0,0"/><path class="cls-3" d="M54.91,53.34l.21-.29v1.07l-.21.29Zm0,0"/><path class="cls-3" d="M55.12,53V52l.07-.31v1.07Zm0,0"/><path class="cls-2" d="M52,52.71l.51.12V53.9L52,53.78Zm0,0"/><path class="cls-2" d="M52,52.71v1.07l-.43-.19V52.52Zm0,0"/><path class="cls-2" d="M52,53.78l.51.12V55L52,54.85Zm0,0"/><path class="cls-7" d="M53.1,53.94l.54,0V55l-.54,0Zm0,0"/><path class="cls-2" d="M52.55,53.9l.54,0V55l-.54,0Zm0,0"/><path class="cls-2" d="M51.61,53.59l.43.19v1.07l-.43-.19Zm0,0"/><path class="cls-2" d="M51.28,53.34l.33.25v1.07l-.33-.25Zm0,0"/><path class="cls-2" d="M51,52.73l.07.31v1.07L51,53.8V52.73Zm0,0"/><path class="cls-3" d="M55.12,53l.07-.31V53.8l-.07.31Zm0,0"/><path class="cls-8" d="M50.29,53.69l-.51.12V52.75l.51-.12Zm0,0"/><path class="cls-8" d="M50.29,52.62l-.51.12V51.68l.51-.12Zm0,0"/><path class="cls-7" d="M49.78,52.75v1.07l-.54,0V52.79Zm0,0"/><path class="cls-3" d="M50.29,53.69V52.62l.43-.19V53.5Zm0,0"/><path class="cls-2" d="M47.42,53.25,47.21,53V51.89l.21.29Zm0,0"/><path class="cls-2" d="M47.42,52.18l-.21-.29V50.82l.21.29Zm0,0"/><path class="cls-2" d="M47.21,51.89V53l-.07-.31V51.58Zm0,0"/><path class="cls-2" d="M47.42,53.25V52.18l.33.25V53.5Zm0,0"/><path class="cls-3" d="M51,53.29l-.28.21V52.43l.28-.21v1.07Zm0,0"/><path class="cls-3" d="M50.72,52.43l-.43.19V51.55l.43-.19Zm0,0"/><path class="cls-2" d="M48.7,53.82l-.51-.12V52.62l.51.12Zm0,0"/><path class="cls-2" d="M48.19,52.62v1.07l-.43-.19V52.43Zm0,0"/><path class="cls-2" d="M48.7,52.75l-.51-.12V51.55l.51.12Zm0,0"/><path class="cls-2" d="M48.7,53.82V52.75l.54,0v1.07Zm0,0"/><path class="cls-2" d="M49.24,52.79l-.54,0V51.68l.54,0Zm0,0"/><path class="cls-3" d="M51,52.22l-.28.21V51.36l.33-.25v.31l-.06.25Zm0,0"/><path class="cls-2" d="M48.19,52.62l-.43-.19V51.36l.43.19Zm0,0"/><path class="cls-2" d="M47.21,51.89l-.07-.31V50.51l.07.31Zm0,0"/><path class="cls-2" d="M47.76,52.43l-.33-.25V51.11l.33.25Zm0,0"/><path class="cls-7" d="M49.78,52.75l-.54,0V51.72l.54,0Zm0,0"/><path class="cls-2" d="M49.24,51.72l-.54,0V50.6l.54,0Zm0,0"/><path class="cls-8" d="M50.29,51.55l-.51.12V50.6l.51-.12Zm0,0"/><path class="cls-2" d="M47.42,51.11l-.21-.29V49.75l.21.29Zm0,0"/><path class="cls-3" d="M50.72,51.36l-.43.19V50.48l.43-.19Zm0,0"/><path class="cls-3" d="M51.06,51.42v-.31l.21-.29v.26l-.19.27Zm0,0"/><path class="cls-3" d="M51.26,50.82l-.21.29V50l.21-.29Zm0,0"/><path class="cls-3" d="M51.26,51.08v-.26l.07-.31V51l-.06,0Zm0,0"/><path class="cls-2" d="M48.7,51.68l-.51-.12V50.48l.51.12Zm0,0"/><path class="cls-3" d="M51.06,51.11l-.33.25V50.29l.33-.25Zm0,0"/><path class="cls-2" d="M48.19,51.55l-.43-.19V50.29l.43.19Zm0,0"/><path class="cls-3" d="M51.34,50.51l-.07.31V49.75l.07-.31Zm0,0"/><path class="cls-2" d="M47.21,50.82l-.07-.31V49.44l.07.31Zm0,0"/><path class="cls-2" d="M47.76,51.36l-.33-.25V50l.33.25Zm0,0"/><path class="cls-7" d="M49.78,51.68l-.54,0V50.65l.54,0Zm0,0"/><path class="cls-8" d="M53.64,55l.51-.12v1.07l-.51.12Zm0,0"/><path class="cls-2" d="M51.07,54.12l.21.29v1.07l-.21-.29Zm0,0"/><path class="cls-3" d="M54.58,54.66l.33-.25v1.07l-.33.25Zm0,0"/><path class="cls-3" d="M54.15,54.85l.43-.19v1.07l-.43.19Zm0,0"/><path class="cls-3" d="M54.91,54.41l.21-.29v1.07l-.21.29Zm0,0"/><path class="cls-2" d="M52,54.85l.51.12V56L52,55.92Zm0,0"/><path class="cls-7" d="M53.1,55l.54,0V56l-.54,0Zm0,0"/><path class="cls-2" d="M52.55,55l.54,0v1.07l-.54,0Zm0,0"/><path class="cls-2" d="M51.61,54.66l.43.19v1.07l-.43-.19Zm0,0"/><path class="cls-2" d="M51.28,54.41l.33.25v1.07l-.33-.25Zm0,0"/><path class="cls-2" d="M51,53.8l.07.31v1.07L51,54.87Zm0,0"/><path class="cls-3" d="M55.12,54.12l.07-.31v1.07l-.07.31Zm0,0"/><path class="cls-2" d="M49.24,48.22l.54,0,.51.12.43.19.33.25.21.29.07.31-.07.31-.21.29-.33.25-.43.19-.51.12-.54,0-.54,0-.51-.12-.43-.19L47.42,50l-.21-.29-.07-.31.07-.31.21-.29.33-.25.43-.19.51-.12Zm0,0"/><path class="cls-2" d="M85.43,62.62l-.12.1-.16.08-.19.05-.2,0h-.2l-.19,0-.17-.07-.13-.09L84,62.56l0-.12,0-.12.07-.11.12-.1L84.3,62l.19-.05.2,0h.2l.19,0,.17.07.13.09.09.11,0,.12,0,.12Zm0,0"/><path class="cls-3" d="M85.32,62.72l.12-.1v.49l-.12.1Zm0,0"/><path class="cls-3" d="M85.52,62.39v.49l0,.12v-.49Zm0,0"/><path class="cls-9" d="M85,63.34l-.2,0v-.49l.2,0Zm0,0"/><path class="cls-10" d="M85,63.34v-.49l.19-.05v.5Zm0,0"/><path class="cls-2" d="M84.77,62.87v.49h-.2v-.49Zm0,0"/><path class="cls-3" d="M85.16,63.29v-.5l.16-.08v.49Zm0,0"/><path class="cls-3" d="M85.5,62.51V63l-.07.11v-.49Zm0,0"/><path class="cls-2" d="M84.57,63.35l-.19,0v-.49l.19,0Zm0,0"/><path class="cls-2" d="M84.37,63.31l-.17-.07v-.49l.17.07Zm0,0"/><path class="cls-2" d="M84.21,63.25l-.13-.09v-.49l.13.09Zm0,0"/><path class="cls-2" d="M84.07,63.16,84,63.05v-.49l.09.11Zm0,0"/><path class="cls-2" d="M84,63.05l0-.12v-.49l0,.12Zm0,0"/><path class="cls-2" d="M86.93,61.75l-.12.1-.16.08-.19.05-.2,0h-.2l-.19,0-.17-.07-.13-.09-.09-.11,0-.12,0-.12.07-.11.12-.1.16-.08.19-.05.2,0h.2l.19,0,.14.06h0l.09.06,0,0,.09.11v0l0,.08,0,.12Zm0,0"/><path class="cls-3" d="M86.82,61.85l.12-.1v.49l-.12.1Zm0,0"/><path class="cls-9" d="M86.48,62.48l-.2,0V62l.2,0Zm0,0"/><path class="cls-10" d="M86.48,62.48V62l.19-.05v.49Zm0,0"/><path class="cls-2" d="M86.27,62v.49h-.2V62Zm0,0"/><path class="cls-3" d="M86.66,62.42v-.49l.16-.08v.49Zm0,0"/><path class="cls-3" d="M87,62.14l-.07.11v-.49l.07-.11Zm0,0"/><path class="cls-3" d="M87,62.14v-.49l0-.12V62Zm0,0"/><path class="cls-2" d="M86.07,62.49l-.19,0V62l.19,0Zm0,0"/><path class="cls-2" d="M85.87,62.45l-.17-.07v-.49l.17.07Zm0,0"/><path class="cls-2" d="M85.71,62.38l-.13-.09V61.8l.13.09Zm0,0"/><path class="cls-2" d="M85.57,62.29l-.09-.11v-.49l.09.11Zm0,0"/><path class="cls-2" d="M85.48,62.18l0-.12v-.49l0,.12Zm0,0"/><path class="cls-2" d="M87,61.41l-.09-.11,0,0v-.23l.13.09v.26Zm0,0"/><path class="cls-2" d="M86.75,60.71l.07-.11.12-.1.16-.08.19-.05.2,0h.2l.19,0,.14.06h0l.09.06,0,0,.09.11v0l0,.08,0,.12-.07.11-.12.1-.16.08-.19.05-.2,0h-.2l-.19,0L87,61.14l-.13-.09-.09-.11,0-.12Zm0,0"/><path class="cls-3" d="M88.1,61.11l.12-.1v.49l-.12.1Zm0,0"/><path class="cls-9" d="M87.76,61.73l-.2,0v-.49l.2,0Zm0,0"/><path class="cls-10" d="M87.76,61.73v-.49l.19-.05v.49Zm0,0"/><path class="cls-2" d="M87.56,61.26v.49h-.2v-.49Zm0,0"/><path class="cls-3" d="M87.95,61.68v-.49l.16-.08v.49Zm0,0"/><path class="cls-3" d="M88.29,61.4l-.07.11V61l.07-.11Zm0,0"/><path class="cls-3" d="M88.29,61.4V60.9l0-.12v.49Zm0,0"/><path class="cls-2" d="M87.35,61.75l-.19,0v-.49l.19,0Zm0,0"/><path class="cls-2" d="M87.16,61.71,87,61.65v-.12l0-.08v-.3l.17.07Zm0,0"/><path class="cls-2" d="M88.26,60.67l-.09-.11,0,0v-.23l.13.09v.26Zm0,0"/><path class="cls-2" d="M86.77,60.95l.09.11v.23l-.09-.06Zm0,0"/><path class="cls-2" d="M86.73,61.2v-.37l0,.12v.27h0Zm0,0"/><path class="cls-2" d="M88,60l.07-.11.12-.1.16-.08.19-.05.2,0H89l.19,0,.14.06h0l.09.06,0,0,.09.11v0l0,.08,0,.12-.07.11-.12.1-.16.08L89,60.5l-.2,0h-.2l-.19,0-.17-.07-.13-.09-.09-.11,0-.12Zm0,0"/><path class="cls-3" d="M89.39,60.37l.12-.1v.49l-.12.1Zm0,0"/><path class="cls-9" d="M89,61l-.2,0v-.49l.2,0Zm0,0"/><path class="cls-10" d="M89,61V60.5l.19-.05v.5Zm0,0"/><path class="cls-2" d="M88.84,60.52V61h-.2v-.49Zm0,0"/><path class="cls-3" d="M89.23,60.94v-.5l.16-.08v.49Zm0,0"/><path class="cls-3" d="M89.57,60.65l-.07.11v-.49l.07-.11Zm0,0"/><path class="cls-3" d="M89.57,60.65v-.49l0-.12v.49Zm0,0"/><path class="cls-2" d="M88.64,61l-.19,0v-.49l.19,0Zm0,0"/><path class="cls-2" d="M88.45,61l-.14-.06v-.12l0-.08v-.3l.17.07Zm0,0"/><path class="cls-2" d="M89.55,59.92l-.09-.11,0,0v-.23l.13.09v.26Zm0,0"/><path class="cls-2" d="M88.06,60.2l.09.11v.23l-.09-.06Zm0,0"/><path class="cls-2" d="M88,60.46v-.37l0,.12v.27h0Zm0,0"/><path class="cls-2" d="M89.32,59.23l.07-.11.12-.1.16-.08.19-.05.2,0h.2l.19,0,.14.06h0l.09.06,0,0,.09.11v0l0,.08,0,.12-.07.11-.12.1-.16.08-.19.05-.2,0h-.2l-.19,0-.17-.07-.13-.09-.09-.11,0-.12Zm0,0"/><path class="cls-3" d="M90.67,59.63l.12-.1V60l-.12.1Zm0,0"/><path class="cls-9" d="M90.33,60.25l-.2,0v-.49l.2,0Zm0,0"/><path class="cls-10" d="M90.33,60.25v-.49l.19-.05v.49Zm0,0"/><path class="cls-2" d="M90.13,59.78v.49h-.2v-.49Zm0,0"/><path class="cls-3" d="M90.52,60.2V59.7l.16-.08v.49Zm0,0"/><path class="cls-3" d="M90.86,59.91l-.07.11v-.49l.07-.11Zm0,0"/><path class="cls-3" d="M90.86,59.91v-.49l0-.12v.49Zm0,0"/><path class="cls-2" d="M89.93,60.26l-.19,0v-.49l.19,0Zm0,0"/><path class="cls-2" d="M89.73,60.22l-.14-.06V60l0-.08v-.3l.17.07Zm0,0"/><path class="cls-2" d="M90.84,59.18l-.09-.11,0,0v-.23l.13.09v.26Zm0,0"/><path class="cls-2" d="M89.34,59.46l.09.11v.23l-.09-.06Zm0,0"/><path class="cls-2" d="M89.3,59.72v-.37l0,.12v.27h0Zm0,0"/><path class="cls-2" d="M92.12,58.44l0,.12,0,.12-.07.11-.12.1L91.8,59l-.19.05-.2,0h-.2L91,59l-.17-.07-.13-.09-.09-.11,0-.12,0-.12.07-.11.12-.1.16-.08.19-.05.2,0h.2l.19,0,.17.07.13.09Zm0,0"/><path class="cls-3" d="M92,58.88l.12-.1v.49l-.12.1Zm0,0"/><path class="cls-3" d="M92.16,58.55V59l0,.12v-.49Zm0,0"/><path class="cls-9" d="M91.62,59.51l-.2,0V59l.2,0Zm0,0"/><path class="cls-10" d="M91.62,59.51V59L91.8,59v.49Zm0,0"/><path class="cls-2" d="M91.42,59v.49h-.2V59Zm0,0"/><path class="cls-3" d="M91.8,59.45V59l.16-.08v.49Zm0,0"/><path class="cls-3" d="M92.14,58.67v.49l-.07.11v-.49Zm0,0"/><path class="cls-2" d="M91.21,59.52l-.19,0V59l.19,0Zm0,0"/><path class="cls-2" d="M91,59.48l-.14-.06V59.3l0-.08v-.3L91,59Zm0,0"/><path class="cls-2" d="M90.63,58.72l.09.11v.23L90.63,59Zm0,0"/><path class="cls-2" d="M90.59,59V58.6l0,.12V59h0Zm0,0"/><path class="cls-2" d="M88.43,62.62l-.12.1-.16.08-.19.05-.2,0h-.2l-.19,0-.17-.07-.13-.09L87,62.56l0-.12,0-.12.07-.11.12-.1L87.3,62l.19-.05.2,0h.2l.19,0,.14.06h0l.09.06,0,0,.09.11v0l0,.08,0,.12Zm0,0"/><path class="cls-3" d="M88.32,62.72l.12-.1v.49l-.12.1Zm0,0"/><path class="cls-9" d="M88,63.34l-.2,0v-.49l.2,0Zm0,0"/><path class="cls-10" d="M88,63.34v-.49l.19-.05v.5Zm0,0"/><path class="cls-2" d="M87.77,62.87v.49h-.2v-.49Zm0,0"/><path class="cls-3" d="M88.16,63.29v-.5l.16-.08v.49Zm0,0"/><path class="cls-3" d="M88.5,63l-.07.11v-.49l.07-.11Zm0,0"/><path class="cls-3" d="M88.5,63v-.49l0-.12v.49Zm0,0"/><path class="cls-2" d="M87.57,63.35l-.19,0v-.49l.19,0Zm0,0"/><path class="cls-2" d="M87.38,63.31l-.17-.07v-.49l.17.07Zm0,0"/><path class="cls-2" d="M87.21,63.25l-.13-.09v-.49l.13.09Zm0,0"/><path class="cls-2" d="M87.07,63.16,87,63.05v-.49l.09.11Zm0,0"/><path class="cls-2" d="M87,63.05l0-.12v-.49l0,.12Zm0,0"/><path class="cls-2" d="M88.48,62.27l-.09-.11,0,0v-.23l.13.09v.26Zm0,0"/><path class="cls-2" d="M93.62,59.3l0,.12,0,.12-.07.11-.12.1-.16.08-.19.05-.2,0h-.2l-.19,0-.17-.07-.13-.09-.09-.11,0-.12,0-.12.07-.11.12-.1.16-.08.19-.05.2,0H93l.19,0,.17.07.13.09Zm0,0"/><path class="cls-3" d="M93.46,59.75l.12-.1v.49l-.12.1Zm0,0"/><path class="cls-3" d="M93.66,59.42v.49l0,.12v-.5Zm0,0"/><path class="cls-9" d="M93.12,60.37l-.2,0V59.9l.2,0Zm0,0"/><path class="cls-10" d="M93.12,60.37v-.49l.19-.05v.49Zm0,0"/><path class="cls-2" d="M92.92,59.9v.49h-.2v-.49Zm0,0"/><path class="cls-3" d="M93.3,60.32v-.49l.16-.08v.49Zm0,0"/><path class="cls-3" d="M93.64,59.54V60l-.07.11v-.49Zm0,0"/><path class="cls-2" d="M92.71,60.38l-.19,0v-.49l.19,0Zm0,0"/><path class="cls-2" d="M92.52,60.35l-.14-.06v-.12l0-.08v-.3l.17.07Zm0,0"/><path class="cls-2" d="M92.13,59.59l.09.11v.23l-.09-.06Zm0,0"/><path class="cls-2" d="M92.22,59.69l.13.09V60l-.09-.11,0,0Zm0,0"/><path class="cls-2" d="M92.09,59.84v-.37l0,.12v.27h0Zm0,0"/><path class="cls-2" d="M90.82,60.09l.07-.11.12-.1.16-.08.19-.05.2,0h.2l.19,0,.14.06h0l.09.06,0,0,.09.11v0l0,.08,0,.12-.07.11-.12.1-.16.08-.19.05-.2,0h-.2l-.19,0-.17-.07-.13-.09-.09-.11,0-.12Zm0,0"/><path class="cls-3" d="M92.17,60.49l.12-.1v.49l-.12.1Zm0,0"/><path class="cls-9" d="M91.83,61.11l-.2,0v-.5l.2,0Zm0,0"/><path class="cls-10" d="M91.83,61.11v-.49l.19-.05v.49Zm0,0"/><path class="cls-2" d="M91.63,60.64v.5h-.2v-.49Zm0,0"/><path class="cls-3" d="M92,61.06v-.49l.16-.08V61Zm0,0"/><path class="cls-3" d="M92.36,60.78l-.07.11v-.49l.07-.11Zm0,0"/><path class="cls-3" d="M92.36,60.78v-.49l0-.12v.49Zm0,0"/><path class="cls-2" d="M91.43,61.13l-.19,0v-.49l.19,0Zm0,0"/><path class="cls-2" d="M91.23,61.09,91.09,61v-.12l0-.08v-.3l.17.07Zm0,0"/><path class="cls-2" d="M90.84,60.33l.09.11v.23l-.09-.06Zm0,0"/><path class="cls-2" d="M90.93,60.44l.13.09v.26L91,60.68l0,0Zm0,0"/><path class="cls-2" d="M90.8,60.58v-.37l0,.12v.27h0Zm0,0"/><path class="cls-2" d="M88.25,61.58l.07-.11.12-.1.16-.08.19-.05.2,0h.2l.19,0,.14.06h0l.09.06,0,0,.09.11v0l0,.08,0,.12-.07.11-.12.1-.16.08-.19.05-.2,0h-.2l-.19,0L88.49,62l-.13-.09-.09-.11,0-.12Zm0,0"/><path class="cls-3" d="M89.6,62l.12-.1v.49l-.12.1Zm0,0"/><path class="cls-9" d="M89.26,62.6l-.2,0v-.49l.2,0Zm0,0"/><path class="cls-10" d="M89.26,62.6V62.1l.19-.05v.49Zm0,0"/><path class="cls-2" d="M89.06,62.13v.49h-.2v-.49Zm0,0"/><path class="cls-3" d="M89.45,62.55v-.49L89.6,62v.49Zm0,0"/><path class="cls-3" d="M89.79,62.26l-.07.11v-.49l.07-.11Zm0,0"/><path class="cls-3" d="M89.79,62.26v-.49l0-.12v.49Zm0,0"/><path class="cls-2" d="M88.85,62.61l-.19,0v-.49l.19,0Zm0,0"/><path class="cls-2" d="M88.66,62.57l-.14-.06v-.12l0-.08V62l.17.07Zm0,0"/><path class="cls-2" d="M89.76,61.53l-.09-.11,0,0v-.23l.13.09v.26Zm0,0"/><path class="cls-2" d="M88.27,61.81l.09.11v.23l-.09-.06Zm0,0"/><path class="cls-2" d="M88.23,62.07V61.7l0,.12v.27h0Zm0,0"/><path class="cls-2" d="M89.53,60.84l.07-.11.12-.1.16-.08.19-.05.2,0h.2l.19,0,.14.06h0l.09.06,0,0,.09.11v0l0,.08,0,.12-.07.11-.12.1-.16.08-.19.05-.2,0h-.2l-.19,0-.17-.07-.13-.09-.09-.11,0-.12Zm0,0"/><path class="cls-3" d="M90.89,61.23l.12-.1v.49l-.12.1Zm0,0"/><path class="cls-9" d="M90.55,61.86l-.2,0v-.49l.2,0Zm0,0"/><path class="cls-10" d="M90.55,61.86v-.49l.19-.05v.49Zm0,0"/><path class="cls-2" d="M90.35,61.38v.49h-.2v-.49Zm0,0"/><path class="cls-3" d="M90.73,61.81v-.49l.16-.08v.49Zm0,0"/><path class="cls-3" d="M91.07,61.52l-.07.11v-.49l.07-.11Zm0,0"/><path class="cls-3" d="M91.07,61.52V61l0-.12v.49Zm0,0"/><path class="cls-2" d="M90.14,61.87l-.19,0v-.49l.19,0Zm0,0"/><path class="cls-2" d="M89.95,61.83l-.14-.06v-.12l0-.08v-.3l.17.07Zm0,0"/><path class="cls-2" d="M89.56,61.07l.09.11v.23l-.09-.06Zm0,0"/><path class="cls-2" d="M89.52,61.32V61l0,.12v.27h0Zm0,0"/><path class="cls-2" d="M86.93,63.49l-.12.1-.16.08-.19.05-.2,0h-.2l-.19,0-.17-.07-.13-.09-.09-.11,0-.12,0-.12.07-.11.12-.1.16-.08.19-.05.2,0h.2l.19,0,.17.07.13.09.09.11,0,.12,0,.12Zm0,0"/><path class="cls-3" d="M86.82,63.58l.12-.1V64l-.12.1Zm0,0"/><path class="cls-3" d="M87,63.26v.49l0,.12v-.49Zm0,0"/><path class="cls-9" d="M86.48,64.21l-.2,0v-.49l.2,0Zm0,0"/><path class="cls-10" d="M86.48,64.21v-.49l.19-.05v.49Zm0,0"/><path class="cls-2" d="M86.27,63.73v.49h-.2v-.49Zm0,0"/><path class="cls-3" d="M86.66,64.16v-.49l.16-.08v.49Zm0,0"/><path class="cls-3" d="M87,63.38v.49l-.07.11v-.49Zm0,0"/><path class="cls-2" d="M86.07,64.22l-.19,0v-.49l.19,0Zm0,0"/><path class="cls-2" d="M85.87,64.18l-.17-.07v-.49l.17.07Zm0,0"/><path class="cls-2" d="M85.71,64.11,85.57,64v-.49l.13.09Zm0,0"/><path class="cls-2" d="M85.57,64l-.09-.11v-.49l.09.11Zm0,0"/><path class="cls-2" d="M85.48,63.92l0-.12v-.49l0,.12Zm0,0"/><path class="cls-2" d="M69.14,45.54l-.12.1-.16.08-.19.05-.2,0h-.2l-.19,0-.17-.07-.13-.09-.09-.11,0-.12,0-.12.07-.11.12-.1L68,45l.19-.05.2,0h.2l.19,0L69,45l.13.09.09.11,0,.12,0,.12Zm0,0"/><path class="cls-3" d="M69,45.64l.12-.1V46l-.12.1Zm0,0"/><path class="cls-3" d="M69.23,45.31v.5l0,.12v-.49Zm0,0"/><path class="cls-9" d="M68.69,46.27l-.2,0v-.49l.2,0Zm0,0"/><path class="cls-10" d="M68.69,46.27v-.49l.19-.05v.49Zm0,0"/><path class="cls-2" d="M68.48,45.79v.49h-.2v-.49Zm0,0"/><path class="cls-3" d="M68.87,46.21v-.49l.16-.08v.49Zm0,0"/><path class="cls-3" d="M69.21,45.43v.49l-.07.11v-.49Zm0,0"/><path class="cls-2" d="M68.28,46.28l-.19,0v-.49l.19,0Zm0,0"/><path class="cls-2" d="M68.09,46.24l-.14-.06v-.12l0-.08v-.3l.17.07Zm0,0"/><path class="cls-2" d="M67.69,45.48l.09.11v.23l-.09-.06Zm0,0"/><path class="cls-2" d="M67.78,45.59l.13.09v.26l-.09-.11,0,0Zm0,0"/><path class="cls-2" d="M67.66,45.73v-.37l0,.12v.27h0Zm0,0"/><path class="cls-2" d="M63.81,47.47l.07-.11.12-.1.16-.08.19-.05.2,0h.2l.19,0,.14.06h0l.09.06,0,0,.09.11v0l0,.08,0,.12-.07.11-.12.1-.16.08-.19.05-.2,0h-.2l-.19,0-.17-.07-.13-.09-.09-.11,0-.12Zm0,0"/><path class="cls-3" d="M65.17,47.87l.12-.1v.5l-.12.1Zm0,0"/><path class="cls-9" d="M64.83,48.49l-.2,0V48l.2,0Zm0,0"/><path class="cls-10" d="M64.83,48.49V48l.19-.05v.49Zm0,0"/><path class="cls-2" d="M64.63,48v.49h-.2V48Zm0,0"/><path class="cls-3" d="M65,48.44v-.49l.16-.08v.49Zm0,0"/><path class="cls-3" d="M65.35,48.16l-.07.11v-.5l.07-.11Zm0,0"/><path class="cls-3" d="M65.35,48.16v-.49l0-.12V48Zm0,0"/><path class="cls-2" d="M64.42,48.51l-.19,0V48l.19,0Zm0,0"/><path class="cls-2" d="M64.23,48.47l-.14-.06v-.12l0-.08v-.3l.17.07Zm0,0"/><path class="cls-2" d="M65.33,47.43l-.09-.11,0,0v-.23l.13.09v.26Zm0,0"/><path class="cls-2" d="M63.84,47.71l.09.11V48L63.84,48Zm0,0"/><path class="cls-2" d="M63.93,47.81l.13.09v.26L64,48.06l0,0Zm0,0"/><path class="cls-2" d="M63.8,48v-.37l0,.12V48h0Zm0,0"/><path class="cls-2" d="M65.1,46.73l.07-.11.12-.1.16-.08.19-.05.2,0H66l.19,0,.14.06h0l.09.06,0,0,.09.11v0l0,.08,0,.12-.07.11-.12.1-.16.08-.19.05-.2,0h-.2l-.19,0-.17-.07-.13-.09L65.12,47l0-.12Zm0,0"/><path class="cls-3" d="M66.46,47.13l.12-.1v.49l-.12.1Zm0,0"/><path class="cls-9" d="M66.11,47.75l-.2,0v-.49l.2,0Zm0,0"/><path class="cls-10" d="M66.11,47.75v-.49l.19-.05v.49Zm0,0"/><path class="cls-2" d="M65.91,47.28v.49h-.2v-.49Zm0,0"/><path class="cls-3" d="M66.3,47.7V47.2l.16-.08v.49Zm0,0"/><path class="cls-3" d="M66.64,47.41l-.07.11V47l.07-.11Zm0,0"/><path class="cls-3" d="M66.64,47.41v-.49l0-.12v.49Zm0,0"/><path class="cls-2" d="M65.71,47.76l-.19,0v-.49l.19,0Zm0,0"/><path class="cls-2" d="M65.51,47.72l-.14-.06v-.12l0-.08v-.3l.17.07Zm0,0"/><path class="cls-2" d="M66.62,46.68l-.09-.11,0,0v-.23l.13.09v.26Zm0,0"/><path class="cls-2" d="M65.12,47l.09.11v.23l-.09-.06Zm0,0"/><path class="cls-2" d="M65.08,47.22v-.37l0,.12v.27h0Zm0,0"/><path class="cls-2" d="M62.53,48.21l.07-.11.12-.1.16-.08.19-.05.2,0h.2l.19,0,.14.06h0l.09.06,0,0,.09.11v0l0,.08,0,.12-.07.11-.12.1-.16.08-.19.05-.2,0h-.2l-.19,0-.17-.07-.13-.09-.09-.11,0-.12Zm0,0"/><path class="cls-3" d="M63.88,48.61l.12-.1V49l-.12.1Zm0,0"/><path class="cls-9" d="M63.54,49.24l-.2,0v-.49l.2,0Zm0,0"/><path class="cls-10" d="M63.54,49.24v-.49l.19-.05v.49Zm0,0"/><path class="cls-2" d="M63.34,48.76v.49h-.2v-.49Zm0,0"/><path class="cls-3" d="M63.73,49.18v-.49l.16-.08v.49Zm0,0"/><path class="cls-3" d="M64.07,48.9,64,49v-.49l.07-.11Zm0,0"/><path class="cls-3" d="M64.07,48.9V48.4l0-.12v.49Zm0,0"/><path class="cls-2" d="M63.14,49.25l-.19,0v-.49l.19,0Zm0,0"/><path class="cls-2" d="M62.94,49.21l-.17-.07v-.49l.17.07Zm0,0"/><path class="cls-2" d="M62.77,49.14l-.13-.09v-.49l.13.09Zm0,0"/><path class="cls-2" d="M62.64,49.05l-.09-.11v-.49l.09.11Zm0,0"/><path class="cls-2" d="M62.55,48.94l0-.12v-.49l0,.12Zm0,0"/><path class="cls-2" d="M66.39,46l.07-.11.12-.1.16-.08.19-.05.2,0h.2l.19,0,.14.06h0l.09.06,0,0,.09.11v0l0,.08,0,.12-.07.11-.12.1-.16.08-.19.05-.2,0H67l-.19,0-.17-.07-.13-.09-.09-.11,0-.12Zm0,0"/><path class="cls-3" d="M67.74,46.38l.12-.1v.49l-.12.1Zm0,0"/><path class="cls-9" d="M67.4,47l-.2,0v-.49l.2,0Zm0,0"/><path class="cls-10" d="M67.4,47v-.49l.19-.05V47Zm0,0"/><path class="cls-2" d="M67.2,46.53V47H67v-.49Zm0,0"/><path class="cls-3" d="M67.59,47v-.49l.16-.08v.49Zm0,0"/><path class="cls-3" d="M67.93,46.67l-.07.11v-.49l.07-.11Zm0,0"/><path class="cls-3" d="M67.93,46.67v-.49l0-.12v.49Zm0,0"/><path class="cls-2" d="M67,47l-.19,0v-.49l.19,0Zm0,0"/><path class="cls-2" d="M66.8,47l-.14-.06V46.8l0-.08v-.3l.17.07Zm0,0"/><path class="cls-2" d="M66.41,46.22l.09.11v.23l-.09-.06Zm0,0"/><path class="cls-2" d="M66.37,46.48v-.37l0,.12v.27h0Zm0,0"/><path class="cls-2" d="M64,50.25l-.12.1-.16.08-.19.05-.2,0h-.2l-.19,0-.17-.07-.13-.09-.09-.11,0-.12,0-.12.07-.11.12-.1.16-.08.19-.05.2,0h.2l.19,0,.17.07.13.09.09.11,0,.12,0,.12Zm0,0"/><path class="cls-3" d="M63.88,50.34l.12-.1v.49l-.12.1Zm0,0"/><path class="cls-3" d="M64.08,50v.49l0,.12v-.49Zm0,0"/><path class="cls-9" d="M63.54,51l-.2,0v-.49l.2,0Zm0,0"/><path class="cls-10" d="M63.54,51v-.49l.19-.05v.49Zm0,0"/><path class="cls-2" d="M63.34,50.49V51h-.2v-.49Zm0,0"/><path class="cls-3" d="M63.73,50.92v-.49l.16-.08v.49Zm0,0"/><path class="cls-3" d="M64.07,50.14v.49l-.07.11v-.49Zm0,0"/><path class="cls-2" d="M63.14,51l-.19,0v-.49l.19,0Zm0,0"/><path class="cls-2" d="M62.94,50.94l-.17-.07v-.49l.17.07Zm0,0"/><path class="cls-2" d="M62.77,50.87l-.13-.09v-.49l.13.09Zm0,0"/><path class="cls-2" d="M62.64,50.78l-.09-.11v-.49l.09.11Zm0,0"/><path class="cls-2" d="M62.55,50.68l0-.12v-.49l0,.12Zm0,0"/><path class="cls-2" d="M62.5,49.38l-.12.1-.16.08-.19.05-.2,0h-.2l-.19,0-.17-.07-.13-.09-.09-.11,0-.12,0-.12L61.1,49l.12-.1.16-.08.19-.05.2,0H62l.19,0,.17.07.13.09.09.11,0,.12,0,.12Zm0,0"/><path class="cls-3" d="M62.38,49.48l.12-.1v.49l-.12.1Zm0,0"/><path class="cls-3" d="M62.58,49.15v.49l0,.12v-.49Zm0,0"/><path class="cls-9" d="M62,50.1l-.2,0v-.49l.2,0Zm0,0"/><path class="cls-10" d="M62,50.1v-.49l.19-.05v.49Zm0,0"/><path class="cls-2" d="M61.84,49.63v.49h-.2v-.49Zm0,0"/><path class="cls-3" d="M62.23,50.05v-.49l.16-.08V50Zm0,0"/><path class="cls-3" d="M62.57,49.27v.49l-.07.11v-.49Zm0,0"/><path class="cls-2" d="M61.64,50.11l-.19,0v-.49l.19,0Zm0,0"/><path class="cls-2" d="M61.44,50.07,61.27,50v-.49l.17.07Zm0,0"/><path class="cls-2" d="M61.27,50l-.13-.09v-.49l.13.09Zm0,0"/><path class="cls-2" d="M61.14,49.92l-.09-.11v-.49l.09.11Zm0,0"/><path class="cls-2" d="M61.05,49.81l0-.12V49.2l0,.12Zm0,0"/><path class="cls-3" d="M110.22,55.18,103.35,59l2.48-4.84,4.38-2.48Zm-.38,0"/><path class="cls-6" d="M103.16,59l-7.42-4.28,2.39-4.84,7.42,4.28Zm0,0"/><path class="cls-2" d="M102.42,47.44l7.42,4.28-4.29,2.48-7.42-4.28Zm0,0"/><g class="cls-13"><path class="cls-14" d="M16.51,46c.9-.43,1.74-1,2.6-1.46L33,36.5,46.07,29l7.24-4.18a1.29,1.29,0,0,0,.41-.28l5.63-3.25,6-3.46,6.24-3.58,5.2-3,4.43-2.55,4.08-2.36,4.86-2.8L94.89.73c.91-.53.82-.53,1.1.44q1.62,5.61,3.26,11.21l1.56,5.34c.11.37.11.38-.24.59l-3.65,2.12-1.28.76c0,.13-.18.15-.27.23.12-.11.27-.06.41-.09,1.24-.41,2.48-.82,3.72-1.25a.81.81,0,0,1,.75.05L106.86,24l7.41,4.26c1.15.66,2.3,1.32,3.44,2a.82.82,0,0,0,.71.1c.63-.19,1.27-.36,1.91-.55.21-.06.48-.07.53-.37s0-.35.08-.51.13-.27.34-.15c.73.43,1.47.84,2.2,1.26,1.37.78,2.73,1.58,4.1,2.35.47.27.93.52,1,1.11a1,1,0,0,1,0,.7l-2.38.81c0,.22.15.26.26.32l5.9,3.4,6,3.46,2.33,1.34.61.38a1.67,1.67,0,0,1-.65.35L135.42,46l-10.59,3.6c-.69.23-1.37.49-2.07.71a6.83,6.83,0,0,0-1.28.66c-1,.54-1.91,1.12-2.88,1.67a11.92,11.92,0,0,1-2.22.86c-.19.06-.29,0-.3-.21s0-.43,0-.65a.53.53,0,0,1,.31-.52l2.45-1.42L120,50a.58.58,0,0,0,.32-.57c0-.15,0-.3,0-.45q0-4.7,0-9.41a1.11,1.11,0,0,1,.05-.54.28.28,0,0,1,.32-.17c.12,0,.28.16.29.26s.19.27.19.4v9.11c0,.72-.18.72.5.49,4.21-1.43,8.32-2.86,12.53-4.29l1.22-.44c.13,0,.27-.06.35-.21s-.26-.23-.4-.31l-7.5-4.33c-1.62-.94-3.26-1.86-4.87-2.82a.87.87,0,0,0-1,0c-.62.39-1.27.72-1.9,1.08a1,1,0,0,1-1.06,0c-1.19-.71-2.4-1.4-3.6-2.1l-4.17-2.4-4.08-2.37L105,29.64a2,2,0,0,1-.21-.12c-.18-.14-.18-.25,0-.39s.31-.19.47-.28a5,5,0,0,0,.05-1c0-.13-.09-.31.13-.36.57.41,1.19.71,1.79,1.06,1.64,1,3.29,1.9,4.94,2.85a1.26,1.26,0,0,0,.45.2c.14-.63,0-1.27.09-1.9.19-.13.39-.25.58-.38s.2-.21,0-.34l-2.06-1.19-3.61-2.08c-.27-.16-.55-.31-.81-.48a.85.85,0,0,0-1.1,0c-.11.09-.27.13-.34.27a2.09,2.09,0,0,0,0,.67c0,.1,0,.24-.14.26L103,25.22,98.2,22.44a.75.75,0,0,0-.66-.06c-.88.3-1.76.57-2.63.9a1.24,1.24,0,0,1-1.14-.08L89,20.43l-4.86-2.79-4.07-2.37c-.16-.09-.33-.16-.49-.25a.49.49,0,0,0-.56,0,22.78,22.78,0,0,0,0,3.27,17.69,17.69,0,0,0,.6,2.2c.26.89.48,1.79.8,2.66.27-.07.13-.29.14-.44,0-1.47,0-2.94,0-4.41,0-.13-.17-.36.14-.4l4,2.35,5.34,3.08,1.29.74c.07,0,.16.08.16.17s-.11.15-.2.18c-.81.28-1.62.59-2.45.83a12,12,0,0,0-2.59,1.23l-3.52,2L79.14,30.7,75,33.08l-4.12,2.39-3.62,2.07-3.39,2-3.66,2.11-3.44,2-3.61,2.08L49.08,48l-3.65,2.11-3.48,2L39.2,53.76l-2.93,1.67-3.61,2.09c-2,1.16-4,2.27-6,3.48a21.2,21.2,0,0,1-4.44,1.85L10,67l-9.7,3.3c-.11,0-.2,0-.23-.11a2,2,0,0,1,0-.4q0-6.94,0-13.87c0-.16-.07-.33.07-.47l2.4-1.4,8.59-5Z"/><path class="cls-14" d="M95.26,37.55l.88-.72c.36-.31.36-.3.77-.07l5,2.9c.43.25.48.24.76-.16A5.09,5.09,0,0,0,103,39a2.45,2.45,0,0,1,1-.93l2.15-1.23.21-.13c.19-.15.19-.24,0-.37-.51-.3-1-.59-1.55-.89l-1.93-1.12a.68.68,0,0,1-.26-.22,4,4,0,0,1,0-.79c0-.09,0-.21.15-.18l2.78,1.63,3.09,1.78a2.21,2.21,0,0,0,.58.27c.26,0,.16-.2.16-.32,0-.49,0-1,0-1.47a.63.63,0,0,1,.85-.07c2.31,1.34,4.63,2.64,6.92,4l.13.07c.25.16.25.21,0,.36s-.74.45-1.11.66c-.61.34-1.2.71-1.81,1s-1.27.58-1.9.85a1,1,0,0,0-.48.29c.32.39.87.46,1.22.85a3.17,3.17,0,0,1-1.14.67c-1.6.55-3.19,1.12-4.8,1.63a12.75,12.75,0,0,0-2.4,1.19L103,47.71a.66.66,0,0,1-.56.11.72.72,0,0,0-.57.11L98.31,50a1.1,1.1,0,0,0-.47.55c-.29.65-.62,1.28-.93,1.92a.66.66,0,0,1-.25.3c-.94.56-1.86,1.15-2.85,1.62s-1.87.77-2.8,1.16c-2.05.84-4.12,1.65-6.15,2.54a2.7,2.7,0,0,0-.86.44c.31.38.84.45,1.16.84a5.51,5.51,0,0,1-1.22.77c-1.25.75-2.51,1.47-3.78,2.19a5.26,5.26,0,0,1-.64.28c-2.5,1-5,2-7.5,3.06-1,.42-2,.87-3,1.3a.18.18,0,0,0-.12.17c.35.37.92.47,1.29.86a2.22,2.22,0,0,1-.78.53c-1.35.73-2.65,1.57-4,2.31a23,23,0,0,1-2.37,1c-2.19.9-4.4,1.76-6.57,2.7L52,76.46c-.38.16-.78.28-1.17.41-1.11.38-2.23.76-3.34,1.15a1.61,1.61,0,0,1-1.07,0,4,4,0,0,1-1.24-.47.46.46,0,0,0-.56,0,7.63,7.63,0,0,1-2,.87L41.2,79s-.12,0-.12-.05a5.84,5.84,0,0,1,0-1.74,9.34,9.34,0,0,0,.84-.5.58.58,0,0,1,.72,0l1,.58a.44.44,0,0,0,.27.09A22.77,22.77,0,0,0,44,75a2.66,2.66,0,0,1,0-.64c.36-.54.71-1.08,1.08-1.61a12.2,12.2,0,0,0,1-1.56c.68-1.37,1.37-2.73,2-4.09a1.17,1.17,0,0,1,.49-.53c1.45-.83,2.9-1.67,4.34-2.51.13-.07.28-.11.35-.3-.1-.19-.34-.21-.48-.37a.63.63,0,0,1,0-.59v-.2c.1-.12,0-.27.08-.39.19-.31.53-.44.77-.69s.28,0,.41,0l3.18,1.85,2,1.16c.29.16.4.15.58-.13a17.3,17.3,0,0,0,1.3-2.05c.6-1.29,1.28-2.55,1.9-3.83a1.6,1.6,0,0,1,.67-.71l4.13-2.37,0,0c.15-.1.38-.15.37-.35s-.23-.21-.37-.29l-1.15-.68c-.17-.1-.19-.21,0-.35l1.12-1a.44.44,0,0,1,.59,0l3.23,1.86,2,1.17c.33.19.43.17.67-.14a6.67,6.67,0,0,0,.78-1.21c.63-1.31,1.27-2.62,1.9-3.94a1.52,1.52,0,0,1,.65-.71c1.43-.8,2.84-1.63,4.26-2.45a2.32,2.32,0,0,0,.22-.12c.21-.15.2-.25,0-.39l-1.2-.7c-.35-.21-.36-.3,0-.58s.68-.53,1-.81a.48.48,0,0,1,.63,0l2.71,1.57,2.54,1.46c.3.17.42.17.58-.12a4.18,4.18,0,0,1,1.77-1.53C92,45.1,93.75,44,95.56,43c.11-.81,0-1.61.05-2.42a5.41,5.41,0,0,1,0-1,3.18,3.18,0,0,1,.61-.41c.16-.09.17-.19,0-.29l-.79-.49c-.16-.09-.31-.19-.31-.4S95.15,37.66,95.26,37.55Z"/><path class="cls-14" d="M103.17,59.18c-.06-.09,0-.16,0-.23.63-1.41,1.33-2.78,2-4.16a1.42,1.42,0,0,1,.61-.63c1.07-.6,2.12-1.22,3.18-1.83l.52-.33c-.08-.22-.28-.29-.44-.38l-2.62-1.52c-.1-.06-.22-.1-.23-.26a2.48,2.48,0,0,1,.81-.32c1.35-.44.93-.48,2.1.19l6.16,3.54a.29.29,0,0,1,.18.19,6,6,0,0,1-1.12.69c-1.06.61-2.1,1.27-3.2,1.81s-2.17.91-3.25,1.36l-4.41,1.81C103.39,59.15,103.29,59.24,103.17,59.18Z"/><path class="cls-14" d="M76.25,71.59a2.08,2.08,0,0,0-1.39-.89,3.25,3.25,0,0,0-1.22,0,4.72,4.72,0,0,0-.89.29,1,1,0,0,0-.6.94c0,.38,0,.76,0,1.14s-.1.64-.5.73c-.14.07-.24,0-.24-.13a27.2,27.2,0,0,1,.05-3.06,2,2,0,0,0,.89-.72c.15,0,.14.1.15.2s-.05.36,0,.53a3.5,3.5,0,0,0,.7-.21c.15-.11.29-.25.5-.18l1.39-.42a.48.48,0,0,1,.5-.18,6.37,6.37,0,0,1,1.72.58.81.81,0,0,1,.15,1.44l-.2.14-.37.24c-.22.4-.22.4.21.41a3.32,3.32,0,0,0,.5,0L79.13,72c.24-.23.52-.15.8-.09s.57.25.86.34a1.67,1.67,0,0,1,.94.67.72.72,0,0,1,0,.59,2,2,0,0,1-1,.75l-1.92.66-3.42,1.17c-.11.06-.12,0-.1-.09,0-.86,0-1.72,0-2.58a.74.74,0,0,1,.43-.8,1,1,0,0,0,.57-.59A.44.44,0,0,0,76.25,71.59Z"/><path class="cls-14" d="M78.16,66.72A1.93,1.93,0,0,0,79,66a1.78,1.78,0,0,0,1.5.29l1.38-.41c.17-.23.39-.1.6-.08h0c.19.11.41,0,.6.09l.54.22a1.35,1.35,0,0,1,1,1.07c-.09.12,0,.35-.21.4a4.13,4.13,0,0,1-.69.51c-.12.21-.32.17-.51.18s-.2.34-.16.55.11.11.2.09l.33-.1,1.91-.63a2,2,0,0,1,.53-.1,1.57,1.57,0,0,1,.78,0l.78.29a1.63,1.63,0,0,1,.8.62.69.69,0,0,1,0,.59,2.39,2.39,0,0,1-1.28.89l-3.57,1.2c-.39.13-.78.28-1.17.41s-.44.07-.44-.28c0-.83,0-1.65,0-2.48a.51.51,0,0,1,.28-.48,2.07,2.07,0,0,0,.51-.39.69.69,0,0,0,0-1,2.31,2.31,0,0,0-1.5-.67,1,1,0,0,0-.63,0,2.51,2.51,0,0,0-1.46.52.91.91,0,0,0-.33.74c0,.33,0,.66,0,1,0,.71,0,.71-.67.95a10.55,10.55,0,0,1-.06-2.12A2.79,2.79,0,0,1,78.16,66.72Z"/><path class="cls-14" d="M48.57,56.76l2.49-.8c.2,0,.36-.23.6-.19a7.93,7.93,0,0,1,1.6.51,1.09,1.09,0,0,1,.26.14.79.79,0,0,1,0,1.34,3.09,3.09,0,0,1-1,.51L47.67,60c-.19.08-.24,0-.24-.18,0-1-.05-2,0-3a1.83,1.83,0,0,0,.93-.79c.08,0,.12,0,.15.09A1.56,1.56,0,0,0,48.57,56.76Z"/><path class="cls-14" d="M56.54,52.48c.46-.14.92-.13,1.38-.27.22-.17.46.07.71.07h.17s.3-.19.2,0c-.73.34-1.4.73-2.11,1.11l-.21.09a2.08,2.08,0,0,0-1.23,1.37l0,.08a1.57,1.57,0,0,1-1.24,1.19c-.15-.17-.07-.38-.07-.56,0-.75,0-1.51,0-2.26,0-.15-.07-.33.07-.47a2,2,0,0,0,.88-.68.94.94,0,0,0,0-.62,2.31,2.31,0,0,0-1.29-.79,3.9,3.9,0,0,0-1.32,0,2,2,0,0,0-1.1.46.62.62,0,0,0-.28.44,9.93,9.93,0,0,0,0,1.47c0,.18.05.36-.05.53l-.5.21c-.14.06-.24,0-.23-.14a24.51,24.51,0,0,1,.06-3.05,2.67,2.67,0,0,0,.88-.67c.16-.07.13.07.14.14s0,.35.05.51a2.51,2.51,0,0,0,.7-.19c.21-.26.53-.2.81-.29l1.09-.32a.77.77,0,0,1,.89-.1c.24.06.48.1.72.18a2.84,2.84,0,0,1,.59.25.88.88,0,0,1,0,1.63c-.14.09-.29.16-.43.24-.14.25-.26.48.22.41C56.15,52.47,56.34,52.51,56.54,52.48Z"/><path class="cls-14" d="M48.48,56.08,48.39,56a.91.91,0,0,0-.57-1c-.2-.11-.42-.19-.63-.28s-.28,0-.41-.09a3.39,3.39,0,0,0-.81,0c-.12.09-.28,0-.4.09a2.32,2.32,0,0,0-.7.25.83.83,0,0,0-.49.64,10.42,10.42,0,0,0,0,1.48c0,.18.06.36-.06.53a2.77,2.77,0,0,1-.66.2,1.66,1.66,0,0,1-.07-.86,22.79,22.79,0,0,1,0-2.31c.31-.24.7-.36.91-.72a2.19,2.19,0,0,0,1.61.22l1.28-.4c.2-.22.44-.17.69-.12s.67.27,1,.37a1.52,1.52,0,0,1,1,.74.42.42,0,0,1,0,.39,2.17,2.17,0,0,1-1.41,1A.16.16,0,0,1,48.48,56.08Z"/><path class="cls-14" d="M37.6,75.29a7.31,7.31,0,0,1,1-.66.4.4,0,0,1,.46,0c.54.32,1.09.62,1.63.94.22.13.2.2,0,.33a2.3,2.3,0,0,1-.36.17c-.9.32-1.8.66-2.73.9A5.57,5.57,0,0,1,37.6,75.29Z"/><path class="cls-15" d="M93.34,60l.13-.13c.13-.14,0-.35.13-.48a4.27,4.27,0,0,1,.55.21c.3.17.31.41,0,.62a2.92,2.92,0,0,1-.91.36A.5.5,0,0,1,93.34,60Z"/><path class="cls-15" d="M86.62,63.83c.17-.13.32-.27.26-.51s.1-.16.22-.09.35.19.51.3.17.26,0,.41a2.11,2.11,0,0,1-.84.4C86.36,64.29,86.57,64,86.62,63.83Z"/><path class="cls-15" d="M63.72,50.59c.13-.11.28-.2.27-.41s-.06-.2.1-.21.38.19.56.3.24.27,0,.46a2.37,2.37,0,0,1-.8.36C63.47,51,63.68,50.79,63.72,50.59Z"/><path class="cls-16" d="M88.39,62.34a2.07,2.07,0,0,0,.79.39c.08,0,.15.08.11.19a2.51,2.51,0,0,1-1.17.6c-.16-.15-.07-.32,0-.49s.42-.3.22-.6C88.27,62.34,88.28,62.29,88.39,62.34Z"/><path class="cls-16" d="M93.16,60.65c-.2.41-.65.41-1,.6-.44,0-.19-.31-.21-.49.17-.14.35-.27.21-.57.32,0,.52.24.78.27C93,60.53,93.22,60.43,93.16,60.65Z"/><path class="cls-17" d="M66.39,49.59a.64.64,0,0,1-.47.46c-.23.09-.47.16-.7.23-.14-.15-.07-.32,0-.49s.33-.32.33-.6l.77.3S66.38,49.52,66.39,49.59Z"/><path class="cls-15" d="M66.78,48.39a3.51,3.51,0,0,0,.89.42h0a.7.7,0,0,1-.48.51c-.16.07-.34.12-.51.19s-.3-.11-.18-.51c.17-.13.34-.25.19-.5C66.65,48.4,66.69,48.37,66.78,48.39Z"/><path class="cls-15" d="M91.18,61a1.39,1.39,0,0,0,.59.29s.1,0,.1.09a1,1,0,0,1-.67.52l-.51.16a.53.53,0,0,1,0-.47c.1-.17.31-.28.29-.52S91.05,60.83,91.18,61Z"/><path class="cls-17" d="M89.78,61.66a1.43,1.43,0,0,0,.59.28c.06.08.27,0,.22.19-.24.43-.71.46-1.11.61-.27-.12-.12-.32-.11-.5s.36-.25.28-.51C89.67,61.66,89.68,61.57,89.78,61.66Z"/><path class="cls-15" d="M91.74,59.17a.73.73,0,0,0,.23-.59c.12-.13.26-.08.39,0l.5.3a.25.25,0,0,1-.11.4,1.25,1.25,0,0,0-.89.41C91.59,59.56,91.78,59.34,91.74,59.17Z"/><path class="cls-16" d="M62.51,49.1l.62.29c.11,0,.22.11.19.25a.24.24,0,0,1-.19.21c-.37,0-.6.31-.91.44-.13-.15-.06-.32,0-.48s.33-.27.3-.52C62.45,49.22,62.44,49.15,62.51,49.1Z"/><path class="cls-15" d="M68.85,45.93c.08-.1.2-.17.23-.32s.08-.29.28-.27.54.19.57.35-.08.28-.24.32a1.63,1.63,0,0,0-.72.42C68.7,46.31,68.87,46.1,68.85,45.93Z"/><path class="cls-16" d="M85.5,62.33l.56.3c.18.09.24.21.14.39s-.29,0-.4.11c-.29,0-.4.34-.67.4-.14-.15-.07-.32,0-.49s.31-.28.3-.52S85.32,62.32,85.5,62.33Z"/><path class="cls-16" d="M68.76,46.51c0,.06-.09.18-.15.19-.44,0-.71.44-1.13.51h0c0-.27,0-.57.29-.73.14-.09-.08-.36.19-.39a1.69,1.69,0,0,0,.68.33A.08.08,0,0,1,68.76,46.51Z"/><path class="cls-18" d="M87,61.52a2.46,2.46,0,0,0,.68.33c.09,0,.16.06.13.18s-.09.12-.15.12a3,3,0,0,0-1,.48c-.13-.15-.07-.32,0-.49s.32-.27.3-.51C86.87,61.55,86.9,61.51,87,61.52Z"/><path class="cls-15" d="M67.76,48.31c.09-.15.26-.24.31-.42s-.06-.2.1-.21l.33.22c.32.21.31.49,0,.66a6,6,0,0,1-.66.22C67.68,48.64,67.74,48.47,67.76,48.31Z"/><path class="cls-18" d="M64.09,48.29a1.32,1.32,0,0,0,.59.31c.05.06.15,0,.2.1a.32.32,0,0,1-.29.28,1.61,1.61,0,0,0-.8.43c-.27-.11-.1-.33-.11-.5.15-.15.33-.28.29-.52C64,48.3,64,48.26,64.09,48.29Z"/><path class="cls-17" d="M89.16,60.66c.08-.16.26-.24.31-.42s-.07-.2.11-.18a1.35,1.35,0,0,0,.59.29c0,.06.15,0,.19.1a.33.33,0,0,1-.31.28,1.55,1.55,0,0,0-.77.42C89,61,89.19,60.83,89.16,60.66Z"/><path class="cls-18" d="M67.48,47.2c-.08.14-.16.28-.35.3a1.46,1.46,0,0,0-.75.41c-.27-.12-.1-.33-.11-.5.2-.16.34-.34.21-.61a.06.06,0,0,1,.1,0,3.12,3.12,0,0,0,.91.42Z"/><path class="cls-17" d="M89.09,61.24l-.1.19c-.11.13-.29,0-.41.11s-.33.21-.49.32c-.42-.05-.21-.31-.17-.51s.34-.25.18-.5c0-.09,0-.13.1-.1a2,2,0,0,0,.8.4S89.08,61.18,89.09,61.24Z"/><path class="cls-16" d="M66.18,48l-.09.19c-.11.13-.29,0-.4.11-.29,0-.4.34-.67.39a.51.51,0,0,1,0-.59c.13-.11.27-.21.25-.41s.09-.2.22-.07a1.33,1.33,0,0,0,.59.29S66.18,47.93,66.18,48Z"/><path class="cls-15" d="M91.17,60a.72.72,0,0,0-.49.32c-.42-.05-.21-.31-.17-.51l.18-.13c.1-.39.1-.39.3-.35a1.32,1.32,0,0,0,.59.29.11.11,0,0,1,.09.1l-.08.18C91.46,60.06,91.28,59.94,91.17,60Z"/></g><line class="cls-19" x1="24.72" y1="69.29" x2="24.72" y2="59.29"/><line class="cls-20" x1="49.06" y1="73.72" x2="24.54" y2="69.47"/><line class="cls-19" x1="48.72" y1="98.29" x2="48.72" y2="73.29"/><line class="cls-20" x1="24.54" y1="59.57" x2="0.03" y2="55.94"/></g></g></g></svg>