<svg xmlns="http://www.w3.org/2000/svg" viewBox="0 0 301 59"><defs><style>.cls-1{fill:#fff;}.cls-2{fill:none;stroke:#fff;stroke-miterlimit:10;stroke-width:8px;}</style></defs><title>Asset 14</title><g id="Layer_2" data-name="Layer 2"><g id="content"><polygon class="cls-1" points="88 37.2 88 59 112 59 112 50 142 50 142 40 112 40 112 19 142 19 142 10 112 10 112 2 88 2 88 23.55 88 37.2"/><line class="cls-2" x1="95" y1="30" y2="30"/><polygon class="cls-1" points="158 0 158 8 189 8 189 19 158 19 158 39 189 39 189 50 158 50 158 59 212 59 212 0 158 0"/><line class="cls-2" x1="301" y1="29" x2="207" y2="29"/></g></g></svg>