<svg xmlns="http://www.w3.org/2000/svg" viewBox="0 0 131.43 94"><defs><style>.cls-1{fill:none;stroke:#fff;stroke-miterlimit:10;stroke-width:8px;}</style></defs><title>Asset 13</title><g id="Layer_2" data-name="Layer 2"><g id="content"><path class="cls-1" d="M118.83,55.19a8.62,8.62,0,0,1,8.6,8.6h0a8.62,8.62,0,0,1-8.6,8.6M119,72H12.6A8.79,8.79,0,0,0,4,80.79v.3A8.89,8.89,0,0,0,12.6,90H127m-8-52H12.6A8.62,8.62,0,0,0,4,46.6v-.1A8.54,8.54,0,0,0,12.6,55H119m-.13-17a8.62,8.62,0,0,0,8.6-8.6h0a8.62,8.62,0,0,0-8.6-8.6M127,4H12.6A8.45,8.45,0,0,0,4,12.4H4A8.63,8.63,0,0,0,12.6,21H119"/></g></g></svg>