<svg xmlns="http://www.w3.org/2000/svg" viewBox="0 0 37.02 36.32"><defs><style>.cls-1{fill:none;stroke:#000;stroke-miterlimit:10;stroke-width:3px;}</style></defs><title>exclamation</title><g id="Layer_2" data-name="Layer 2"><g id="menu_bar" data-name="menu bar"><polygon class="cls-1" points="35.52 24.02 11.71 24.02 1.5 33 1.5 1.5 35.52 1.5 35.52 24.02"/><path d="M17.45,17.62a1.47,1.47,0,0,1,.1-.54,1.26,1.26,0,0,1,.28-.44,1.28,1.28,0,0,1,.45-.29,1.68,1.68,0,0,1,.6-.1,1.65,1.65,0,0,1,.59.1,1.28,1.28,0,0,1,.45.29,1.32,1.32,0,0,1,.29.44,1.41,1.41,0,0,1,.1.54,1.39,1.39,0,0,1-.1.53,1.22,1.22,0,0,1-.29.43,1.35,1.35,0,0,1-.45.28,1.65,1.65,0,0,1-.59.1,1.68,1.68,0,0,1-.6-.1,1.35,1.35,0,0,1-.45-.28,1.17,1.17,0,0,1-.28-.43A1.44,1.44,0,0,1,17.45,17.62ZM20,14.31H17.77L17.62,5.9h2.53Z"/></g></g></svg>