<svg xmlns="http://www.w3.org/2000/svg" viewBox="0 0 91.2 91.2"><defs><style>.cls-1{fill:#6696c9;}.cls-2{fill:#fff;}</style></defs><title>Asset 4</title><g id="Layer_2" data-name="Layer 2"><g id="content"><circle class="cls-1" cx="45.6" cy="45.6" r="45.6"/><path class="cls-2" d="M43.49,49.39a9.18,9.18,0,0,1-3.05,6.75,10.78,10.78,0,0,1-7.26,2.5,9.6,9.6,0,0,1-7.75-3.26c-1.88-2.21-2.82-5.19-2.82-9V44.77a15.35,15.35,0,0,1,1.3-6.51,9.77,9.77,0,0,1,3.72-4.32,10.42,10.42,0,0,1,5.62-1.5,10.42,10.42,0,0,1,7.14,2.33,9.36,9.36,0,0,1,3.13,6.62H38.24c-.13-2-.59-2.81-1.38-3.55a5.11,5.11,0,0,0-3.62-1.09,4.81,4.81,0,0,0-4.12,1.9,10.33,10.33,0,0,0-1.52,5.88v1.94A11.17,11.17,0,0,0,29,52.53a4.56,4.56,0,0,0,4.06,1.92,5.38,5.38,0,0,0,3.69-1.36c.8-.74,1.31-1.7,1.42-3.7Z"/><path class="cls-2" d="M67.06,49.39A9.18,9.18,0,0,1,64,56.14a10.78,10.78,0,0,1-7.26,2.5,9.17,9.17,0,0,1-7.54-3.26c-1.88-2.21-2.61-5.19-2.61-9V44.77a15.38,15.38,0,0,1,1.09-6.51,9.56,9.56,0,0,1,3.62-4.32,10.24,10.24,0,0,1,5.57-1.5A10.35,10.35,0,0,1,64,34.77a9.34,9.34,0,0,1,3.11,6.62H61.82c-.13-2-.59-2.81-1.38-3.55a5.11,5.11,0,0,0-3.62-1.09,4.43,4.43,0,0,0-3.91,1.9c-.87,1.26-1.31,3.23-1.31,5.88v1.94c0,2.77.38,4.79,1.22,6.07a4.37,4.37,0,0,0,3.95,1.92,5.24,5.24,0,0,0,3.64-1.36c.8-.74,1.26-1.7,1.37-3.7Z"/></g></g></svg>