<svg xmlns="http://www.w3.org/2000/svg" viewBox="0 0 194.4 100.67"><defs><style>.cls-1{isolation:isolate;}.cls-2,.cls-68,.cls-69{fill:none;stroke-miterlimit:10;}.cls-2{stroke:#a8a8a8;stroke-width:0.33px;stroke-dasharray:2.6 1.3;}.cls-3{fill:#8e8e8e;}.cls-4{fill:#fbfbfb;}.cls-5{fill:#d5d5d5;}.cls-6{fill:#fffb51;}.cls-7{fill:#fffb43;}.cls-8{fill:#b3b129;}.cls-9{fill:#d2d2d2;}.cls-10{fill:#f6f6f6;}.cls-11{fill:#8c8c8c;}.cls-12{fill:#f4f4f4;}.cls-13{fill:#ccc;}.cls-14{fill:#f4f4e3;}.cls-15{fill:#898989;}.cls-16{fill:#a3a397;}.cls-17{fill:#fffb52;}.cls-18{fill:#b6b42b;}.cls-19{fill:#fffb4e;}.cls-20{fill:#fffb48;}.cls-21{fill:#ddda36;}.cls-22{fill:#fffb3f;}.cls-23{fill:#e7e438;}.cls-24{fill:#c3c02d;}.cls-25{fill:#fffb40;}.cls-26{fill:#9c9c9c;}.cls-27{fill:#636363;}.cls-28{fill:#818181;}.cls-29{fill:#d9d735;}.cls-30{fill:#e2df37;}.cls-31{fill:#efec3b;}.cls-32{fill:#b7b52b;}.cls-33{fill:#f5f23c;}.cls-34{fill:#c9c630;}.cls-35{fill:#fffb42;}.cls-36{fill:#e8e538;}.cls-37{fill:#fbf73e;}.cls-38{fill:#e9e638;}.cls-39{fill:#dad735;}.cls-40{fill:#d3d032;}.cls-41{fill:#dedb36;}.cls-42{opacity:0.57;mix-blend-mode:multiply;}.cls-43{fill:#a6a6a6;}.cls-44{fill:#a7a7a7;}.cls-45{fill:#a8a8a8;}.cls-46{fill:#a9a9a9;}.cls-47{fill:#aaa;}.cls-48{fill:#bababa;}.cls-49{fill:#b6b6b6;}.cls-50{fill:#dedede;}.cls-51{fill:#afafaf;}.cls-52{fill:#b0b0b0;}.cls-53{fill:#d3d3d3;}.cls-54{fill:#c9c9c9;}.cls-55{fill:silver;}.cls-56{fill:#b9b9b9;}.cls-57{fill:#dadada;}.cls-58{fill:#f0f0f0;}.cls-59{fill:#d6d6d6;}.cls-60{fill:#e7e7e7;}.cls-61{fill:#e2e2e2;}.cls-62{fill:#d7d7d7;}.cls-63{fill:#f3f3f3;}.cls-64{fill:#e1e1e1;}.cls-65{fill:#e6e6e6;}.cls-66{fill:#dfdfdf;}.cls-67{fill:#d9d9d9;}.cls-68,.cls-69{stroke:#fff;}.cls-68{stroke-width:0.2px;}</style></defs><title>Asset 24</title><g class="cls-1"><g id="Layer_2" data-name="Layer 2"><g id="menu_bar" data-name="menu bar"><line class="cls-2" x1="28.87" y1="58.58" x2="70.88" y2="91.65"/><line class="cls-2" x1="70.88" y1="91.65" x2="99.68" y2="54.48"/><line class="cls-2" x1="99.68" y1="54.48" x2="23.83" y2="53.93"/><line class="cls-2" x1="23.83" y1="53.93" x2="62.7" y2="20.8"/><line class="cls-2" x1="62.23" y1="19.7" x2="115.43" y2="11.97"/><line class="cls-2" x1="115.43" y1="11.97" x2="172.37" y2="32.65"/><line class="cls-2" x1="172.37" y1="32.65" x2="108.47" y2="49.16"/><line class="cls-2" x1="108.47" y1="49.16" x2="158.26" y2="82.66"/><line class="cls-2" x1="64.09" y1="19.13" x2="108.47" y2="49.16"/><path class="cls-3" d="M71.11,18.91l-2,1.18V18.57l2-1.18Zm.35,0"/><path class="cls-4" d="M69.11,20.09l-5-2.78V15.79l5,2.78Zm.3,0"/><path class="cls-5" d="M69.41,18.57l-5-2.78.72-.54v.63l1,.42,1-.42v-1l-.46-.23,0,0,1.77,1.06-1.33.73v.51l1.72,1,1.28-.76v-.45l1.26.68Zm0,0"/><path class="cls-6" d="M66.25,16.3l-.73-.42v-1l.73.42Zm-.12-.94-.48-.28v.55l.48.28Zm0,0"/><path class="cls-7" d="M66.25,15.29l-.73-.42.73-.42.33.19.4.23Zm0,0"/><path class="cls-8" d="M66.25,15.29l.73-.42v1l-.73.42Zm0,0"/><path class="cls-6" d="M69,17.92l-1.75-1V16.4l1.75,1Zm0,0"/><path class="cls-8" d="M69,17.92v-.51l1.31-.76v.51Zm0,0"/><path class="cls-7" d="M69,17.41l-1.75-1,1.27-.73,0,0,1.75,1Zm0,0"/><path class="cls-6" d="M105.08,52.21V51.7l1,.59v1.35l-.44-.25v-.84l-.44-.26Zm0,0"/><path class="cls-8" d="M105.08,51.7v.51l.15.08v.17l-.44.25v-1l.44-.25v.17Zm0,0"/><path class="cls-7" d="M105.08,51.7l.15-.08,1,.59-.15.08Zm0,0"/><path class="cls-7" d="M105.67,53.39l.44.25-.58.34-.44-.25Zm0,0"/><path class="cls-9" d="M106.11,53.39l-.8.34-2.59,1.43-3-1.69,2-1.18.42-.25.58-.34.14-.08.58-.34.15.08L100,53.47,102.82,55l3.28-1.77Zm-.43,0"/><path class="cls-10" d="M100.11,53.47l2,1.69v1l-2-1.69Zm-.42,0"/><path class="cls-11" d="M102.11,56.17v-1l3-1.43v.67l0,.17Zm.5,0"/><path class="cls-5" d="M102.82,56.17l2.67-1.6,0,.08.6-.42v-.17l1-.42v-1l-.85-.42-1.15-.59v-.17l-.35-.24-.12.08-1.81-1.05,4.79-2.76,8.69,5L103.9,59.67l-8.79-5,7-4.1v1.74l-2,1.18v1Zm8.84-5.38-.15-.08.15-.08-.15-.08.15-.08-3.51-2-1.75,1,.15.08-.15.08.15.08-.15.08.15.08-.15.08.15.08-.15.08.15.08-.15.08,3.51,2,1.75-1-.15-.08.15-.08-.15-.08.15-.08-.15-.08Zm0,0"/><path class="cls-12" d="M116.11,52.5l-8-5v-8l8,5Zm.21,0"/><path class="cls-13" d="M95.11,46.62l13-7.17v8l-5,2.76-.61-.23-.37.08v.45l-7,4.1Zm.11,0"/><path class="cls-11" d="M107,53.64l-.73.42v-1l.73-.42Zm0,0"/><path class="cls-9" d="M107,52.63l-.73.42v-.17l.44-.25-.44-.25v-.17Zm0,0"/><path class="cls-9" d="M106.11,53.22,102.82,55l-2.74-1.52,3.6-2.11.32.2-3.35,1.93,2,1,3.49-1.89Zm-.43,0"/><path class="cls-9" d="M106.69,52.63l-.44.25v-.51Zm0,0"/><path class="cls-7" d="M101.73,51.79l.58-.34.44.25-.58.34Zm0,0"/><path class="cls-6" d="M101.73,51.79l.44.25-.44.25Zm0,0"/><path class="cls-6" d="M105.09,54.4v-.67l.44.25v.67l-.15-.08Zm0,0"/><path class="cls-6" d="M103.11,51.7l-1-.25V50.1l2.18,1.28-.18.08v.34l-.27-.23-.28-.2-.11-.08-.39-.34,0-.08Zm-.36,0"/><path class="cls-8" d="M102.75,51.7v-.84l.15.08v.67Zm0,0"/><path class="cls-8" d="M106.11,53.64v.59l-1,.42V54Zm0,0"/><path class="cls-7" d="M104.53,51.38l-2.22-1.28.15-.08.39.23,1.82,1.05Zm0,0"/><path class="cls-5" d="M102.9,51.62v-.67l.58.34Zm0,0"/><path class="cls-14" d="M104.59,52.71l.51-.25v-.17l1,.26v.07l-3.5,1.89-1.86-1,3.15-1.93.21.23v.67Zm.2,0"/><path class="cls-7" d="M104.82,51.21l.41.24-.44.25-.41-.24.15-.08.15-.08Zm0,0"/><path class="cls-6" d="M104.38,51.46l.41.24v1l-.41-.24v-1Zm0,0"/><path class="cls-6" d="M71.16,93.84v-.51l1,.59v1.35L71.74,95v-.84l-.44-.26Zm0,0"/><path class="cls-8" d="M71.16,93.33v.51l.15.08v.17l-.44.25v-1l.44-.25v.17Zm0,0"/><path class="cls-7" d="M71.16,93.33l.15-.08,1,.59-.15.08Zm0,0"/><path class="cls-7" d="M71.74,95l.44.25-.58.34-.44-.25Zm0,0"/><path class="cls-9" d="M72.11,95l-.76.34-2.57,1.43-3-1.69,2-1.18.43-.25.58-.34.14-.08.58-.34.15.08L66,95.11l2.81,1.52,3.25-1.77Zm-.36,0"/><path class="cls-8" d="M72.11,95.28v.59l-1,.42v-.67Zm.08,0"/><path class="cls-6" d="M71.6,95.61v.67l-.15-.08L71.16,96v-.67Zm0,0"/><path class="cls-11" d="M71.11,95.36V96l.53.17-2.53,1.6v-1Zm.05,0"/><path class="cls-7" d="M67.8,93.42l.58-.34.44.25-.58.34Zm0,0"/><path class="cls-6" d="M67.8,93.42l.44.25-.44.25Zm0,0"/><path class="cls-6" d="M68.11,93.08V91.73L70.29,93l-.18.08v.34l-.23-.23-.26-.2-.1-.08-.42-.34,0-.08v.84Zm.28,0"/><path class="cls-8" d="M68.82,93.34v-.84l.15.08v.67Zm0,0"/><path class="cls-7" d="M70.6,93l-2.22-1.28.15-.08,2.22,1.28Zm0,0"/><path class="cls-12" d="M69,93.25v-.67l.58.34Zm0,0"/><path class="cls-11" d="M73.06,95.28l-.73.42v-1l.73-.42Zm0,0"/><path class="cls-9" d="M73.06,94.26l-.73.42v-.17l.44-.25L72.33,94v-.17Zm0,0"/><path class="cls-10" d="M69.11,96.79v1l-3-1.69v-1Zm-.43,0"/><path class="cls-9" d="M72.11,94.85l-3.25,1.77-2.72-1.52L69.75,93l.33.2-3.35,1.93,1.93,1,3.45-1.89Zm-.36,0"/><path class="cls-14" d="M72.11,94.25l-3.46,1.89-1.84-1,3.12-1.93.18.23v.67l.49.24.51-.25v-.17l1,.26Zm-.36,0"/><path class="cls-9" d="M72.77,94.26l-.44.25V94Zm0,0"/><path class="cls-7" d="M70.89,92.84l.41.24-.44.25-.41-.24L70.6,93l.15-.08Zm0,0"/><path class="cls-6" d="M70.45,93.1l.41.24v1l-.41-.24v-1Zm0,0"/><path class="cls-7" d="M58.59,21.7l.15-.08,1,.59-.15.08Zm0,0"/><path class="cls-8" d="M58.74,21.62l-.15.08v.51l.15.08v.17l-.44.25v-1l.44-.25Zm0,0"/><path class="cls-6" d="M58.59,22.21V21.7l1,.59v1.35l-.44-.25v-.84l-.44-.26Zm0,0"/><path class="cls-14" d="M58.59,22.71l.51-.25v.16l-3.24,1.89-1.73-1,3.46-1.93.52.23v.67Zm-.29,0"/><path class="cls-7" d="M58.74,21.45l-.44.25-.41-.24.15-.08.15-.08.15-.08Zm0,0"/><path class="cls-5" d="M59.11,21.45l-.59-.24-.24.08-2.09-1.18,11-6.39L76,18.79,57.27,29.59l-8.62-5.06,7.46-4.22v1.15l-1,.34v.51l-2,1.18v1l3,1.69,2.8-1.6.33.08.91-.42v-1.6l-.35-.42-.65-.59ZM69,20.09l2.11-1.18V17.39l-1-.68v-.06l-1.67-1v0l-1.82-1.06,0,0L66,14.45l-.93.42v.38l-1,.54v1.52Zm-3.83.71L65,20.71l.15-.08L65,20.55l.15-.08-3.51-2-1.75,1,.15.08-.15.08.15.08-.15.08.15.08-.15.08.15.08-.15.08.15.08-.15.08,3.51,2,1.75-1L65,21.22l.15-.08L65,21.05l.15-.08L65,20.88Zm0,0"/><path class="cls-13" d="M67.11,13.73l-11,6.39V20l0,.08v.2l-8,4.22V17.78L67.11,7Zm.09,0"/><path class="cls-12" d="M67.11,13.73V7l9,1.35V18.79Zm.09,0"/><path class="cls-11" d="M60.49,23.64l-.73.42v-1l.73-.42Zm0,0"/><path class="cls-11" d="M58.64,24.57l-2.53,1.6v-1l2-1.43v.67Zm.25,0"/><path class="cls-9" d="M60.49,22.63l-.73.42v-.17l.44-.25-.44-.25v-.17Zm0,0"/><path class="cls-10" d="M56.11,25.16v1l-3-1.69v-1Zm0,0"/><path class="cls-9" d="M56.11,25.16l-2.92-1.69,2-1.18.44-.25.58-.34.15-.08.58-.34.15.08-3.65,2.11L56.08,25l3-1.77v.17l-.55.34Zm0,0"/><path class="cls-9" d="M59.11,23.22l-3,1.77-2.61-1.52,3.66-2.11.36.2L54.14,23.5l1.72,1,3.24-1.89Zm.07,0"/><path class="cls-9" d="M60.2,22.63l-.44.25v-.51Zm0,0"/><path class="cls-6" d="M57.89,21.47l.41.24v1l-.41-.24v-1Zm0,0"/><path class="cls-7" d="M55.24,21.79l.58-.34.44.25-.58.34Zm0,0"/><path class="cls-7" d="M59.18,23.39l.44.25L59,24l-.44-.25Zm0,0"/><path class="cls-6" d="M55.24,21.79l.44.25-.44.25Zm0,0"/><path class="cls-6" d="M58.59,24.4v-.67L59,24v.67l-.15-.08Zm0,0"/><path class="cls-6" d="M56.11,21.7V20.1l2.18,1.28-.18.08v.34l-.51-.23-.41-.2L57,21.28l-.67-.34-.24-.08Zm.15,0"/><path class="cls-8" d="M56.26,21.7v-.84l.15.08v.67Zm0,0"/><path class="cls-8" d="M60.11,23.64v.59l-1,.42V24Zm-.49,0"/><path class="cls-7" d="M58,21.38,55.82,20.1,56,20l.17.1,2,1.18Zm0,0"/><path class="cls-5" d="M56.4,21.62v-.67l.58.34Zm0,0"/><path class="cls-6" d="M151.25,78.45v-.51l1,.59v1.35l-.44-.25v-.84l-.44-.26Zm0,0"/><path class="cls-8" d="M151.25,77.94v.51l.15.08v.17L151,79v-1l.44-.25v.17Zm0,0"/><path class="cls-7" d="M151.25,77.94l.15-.08,1,.59-.15.08Zm0,0"/><path class="cls-14" d="M150.59,79l.51-.25v-.17l1,.26v.07l-3.41,1.89-1.82-1L150,77.81l.15.23v.67Zm.36,0"/><path class="cls-7" d="M151.39,77.69l-.44.25-.41-.24.15-.08.15-.08.15-.08Zm0,0"/><path class="cls-5" d="M151.11,77.69l-.27-.24-.07.08-2-1.15,4.65-2.68,3.39,2-.29.17.15.08-.14.08.15.08-.15.08.15.08-.15.08.15.08-.15.08.15.08-.15.08.73.42-.73.42.15.08-.15.08.15.08-.15.08.15.08-.15.08.15.08-.15.08.15.08-.15.08,3.51,2,1.46-.84.15.08-.73.42.15.08-.15.08.15.08-.15.08.15.08-.15.08.15.08-.15.08.15.08-.15.08,3.51,2,1.46-.84.15.08-.73.42.15.08-.15.08.15.08-.15.08.15.08-.15.08.15.08-.15.08.15.08-.15.08,3.51,2,1.75-1-.15-.08.15-.08-.15-.08.15-.08-.15-.08.15-.08-.15-.08.15-.08-.15-.08.15-.08,5.24,3-14.9,8.6-22.53-12.9,9.72-5.72v1.94l-2,1.18v1l2.79,1.69,2.71-1.6,0,.08.54-.42V80.3l1-.42v-1l-.85-.42-1.15-.59Zm4.72,8.69,2.68-1.6v.08l.59-.42v-.17l1-.42v-1l-.85-.42-1.15-.59v-.17l-.33-.24-.11.08-2.31-1.28-.24.08V82.5l-2,1.18v1Zm6.43,4,2.89-1.6.18.08.77-.42v-.17l1-.42v-1l-.85-.42-1.15-.59v-.17l-.4-.24-.14.08-2.26-1.28-.19.08v2.19l-3,1.18v1Zm.24,0"/><path class="cls-13" d="M153.11,73.71l-4.45,2.68-.31-.12-.24.08v.25l-10,5.72V73.56l15-8.6Zm.37,0"/><path class="cls-12" d="M176.11,86.61l-5.38-3-.8-.42.69-.42-.16-.08.14-.08-.15-.08.14-.08-.15-.08.15-.08-.15-.08.15-.08-.15-.08.15-.08-3.51-2-1.46.84-.15-.08.73-.42-.15-.08.15-.08-.15-.08.15-.08-.15-.08.15-.08-.15-.08.15-.08-.15-.08.15-.08-3.51-2-1.46.84-.15-.08.73-.42-.15-.08.15-.08-.15-.08.15-.08-.15-.08.15-.08-.15-.08.15-.08-.15-.08.15-.08-3.51-2-1.64.84-3.57-2V65l23,12.9Zm-.29,0"/><path class="cls-11" d="M153.15,79.88l-.73.42v-1l.73-.42Zm0,0"/><path class="cls-11" d="M151.64,80.81l-2.53,1.6v-1l2-1.43v.67Zm-.1,0"/><path class="cls-9" d="M153.15,78.87l-.73.42v-.17l.44-.25-.44-.25v-.17Zm0,0"/><path class="cls-10" d="M149.11,81.4v1l-3-1.69v-1Zm-.34,0"/><path class="cls-9" d="M148.77,81.4l-2.92-1.69,2-1.18.44-.25.58-.34.15-.08.58-.34.15.08-3.65,2.11,2.76,1.52,3.2-1.77v.17l-.72.34Zm0,0"/><path class="cls-9" d="M152.11,79.46l-3.2,1.77-2.7-1.52,3.62-2.11.33.2-3.35,1.93,1.88,1,3.41-1.89Zm-.27,0"/><path class="cls-9" d="M152.86,78.87l-.44.25v-.51Zm0,0"/><path class="cls-6" d="M150.55,77.7l.41.24v1l-.41-.24v-1Zm0,0"/><path class="cls-7" d="M147.89,78l.58-.34.44.25-.58.34Zm0,0"/><path class="cls-7" d="M151.84,79.63l.44.25-.58.34-.44-.25Zm0,0"/><path class="cls-6" d="M147.89,78l.44.25-.44.25Zm0,0"/><path class="cls-6" d="M151.25,80.64V80l.44.25v.67l-.15-.08Zm0,0"/><path class="cls-6" d="M149.11,77.94l-1-.25V76.34l2.18,1.28-.18.08V78l-.18-.23-.24-.2-.09-.08-.46-.34,0-.08Zm-.19,0"/><path class="cls-8" d="M148.92,77.94V77.1l.15.08v.67Zm0,0"/><path class="cls-8" d="M152.11,79.88v0Zm.17,0"/><path class="cls-7" d="M150.69,77.62l-2.22-1.28.15-.08.22.12,2,1.15Zm0,0"/><path class="cls-5" d="M149.06,77.86v-.67l.58.34Zm0,0"/><path class="cls-14" d="M170.44,83.84l.15.08-.15.08-1.61.93L165.47,83l-.15-.08.15-.08,3.36,1.94Zm0,0"/><path class="cls-14" d="M165.33,83.08l.15-.08,3.36,1.94,1.61-.93.15.08-.15.08-1.61.93-3.36-1.94Zm0,0"/><path class="cls-14" d="M170.44,83.67l.15.08-.15.08-1.61.93-3.36-1.94-.15-.08.15-.08,3.36,1.94Zm0,0"/><path class="cls-14" d="M170.44,84.18l.15.08-.15.08-1.61.93-3.36-1.94-.15-.08.15-.08,3.36,1.94Zm0,0"/><path class="cls-5" d="M168.83,85.44l-3.51-2,.15-.08,3.36,1.94,1.61-.93.15.08Zm0,0"/><path class="cls-14" d="M169.85,83.16l.73.42-.15.08-1.61.93-3.36-1.94-.15-.08.73-.42,2.78,1.6Zm0,0"/><path class="cls-14" d="M160.95,80.38l.15-.08,3.36,1.94.88-.51.15.08-1,.59-3.36-1.94Zm0,0"/><path class="cls-14" d="M164.45,82.41l1-.59.15.08-1.17.67-3.36-1.94-.15-.08.15-.08Zm0,0"/><path class="cls-14" d="M164.45,82.57l1.17-.67.15.08-1.31.76-3.36-1.94-.15-.08.15-.08Zm0,0"/><path class="cls-5" d="M164.45,82.74l1.31-.76.15.08-1.46.84-3.51-2,.15-.08Zm0,0"/><path class="cls-14" d="M160.95,80.21l.15-.08,3.36,1.94.88-.51.15.08-.15.08-.88.51-3.36-1.94Zm0,0"/><path class="cls-14" d="M165.47,80.63l.15.08-.29.17.15.08-.15.08.15.08-.15.08.15.08-.15.08.15.08-.15.08-.88.51-3.36-1.94-.15-.08.73-.42,2.78,1.6Zm0,0"/><path class="cls-14" d="M156.56,77.85l.15-.08,3.36,1.94.88-.51.15.08-1,.59-3.36-1.94Zm0,0"/><path class="cls-14" d="M160.07,79.88l1-.59.15.08-1.17.67-3.36-1.94-.15-.08.15-.08Zm0,0"/><path class="cls-14" d="M160.07,80l1.17-.67.15.08-1.31.76-3.36-1.94-.15-.08.15-.08Zm0,0"/><path class="cls-5" d="M160.07,80.21l1.31-.76.15.08-1.46.84-3.51-2,.15-.08Zm0,0"/><path class="cls-14" d="M156.56,77.68l.15-.08,3.36,1.94.88-.51.15.08-.15.08-.88.51-3.36-1.94Zm0,0"/><path class="cls-14" d="M161.09,78.1l.15.08-.29.17.15.08-.15.08.15.08-.15.08.15.08-.15.08.15.08-.15.08-.88.51-3.36-1.94-.15-.08.73-.42,2.78,1.6Zm0,0"/><path class="cls-14" d="M161.68,77.09l.15.08-.15.08-1.61.93-3.36-1.94-.15-.08.15-.08L160.07,78Zm0,0"/><path class="cls-14" d="M156.56,76.33l.15-.08,3.36,1.94,1.61-.93.15.08-.15.08-1.61.93-3.36-1.94Zm0,0"/><path class="cls-14" d="M161.68,76.92l.15.08-.15.08-1.61.93-3.36-1.94-.15-.08.15-.08,3.36,1.94Zm0,0"/><path class="cls-14" d="M161.68,77.43l.15.08-.15.08-1.61.93-3.36-1.94-.15-.08.15-.08,3.36,1.94Zm0,0"/><path class="cls-14" d="M156.56,76.67l.15-.08,3.36,1.94,1.61-.93.15.08-.73.42-1,.59-2.78-1.6Zm0,0"/><path class="cls-14" d="M158.32,74.82l3.51,2-.15.08-1.61.93-3.36-1.94-.15-.08.29-.17Zm0,0"/><path class="cls-14" d="M170.44,82.15l.15.08-.15.08-1.61.93-3.36-1.94-.15-.08.15-.08,3.36,1.94Zm0,0"/><path class="cls-14" d="M165.33,81.39l.15-.08,3.36,1.94,1.61-.93.15.08-.15.08-1.61.93-3.36-1.94Zm0,0"/><path class="cls-14" d="M170.44,82l.15.08-.15.08-1.61.93-3.36-1.94-.15-.08.15-.08,3.36,1.94Zm0,0"/><path class="cls-14" d="M170.44,82.49l.15.08-.15.08-1.61.93-3.36-1.94-.15-.08.15-.08,3.36,1.94Zm0,0"/><path class="cls-14" d="M165.33,81.73l.15-.08,3.36,1.94,1.61-.93.15.08-.73.42-1,.59-2.78-1.6-.15-.08-.15-.08-.15-.08-.15-.08Zm0,0"/><path class="cls-14" d="M167.08,79.88l3.51,2-.15.08-1.61.93L165.47,81l-.15-.08.29-.17Zm0,0"/><path class="cls-14" d="M166.06,79.62l.15.08-.15.08-1.61.93-3.36-1.94-.15-.08.15-.08,3.36,1.94Zm0,0"/><path class="cls-14" d="M160.95,78.86l.15-.08,3.36,1.94,1.61-.93.15.08-.15.08-1.61.93-3.36-1.94Zm0,0"/><path class="cls-14" d="M166.06,79.45l.15.08-.15.08-1.61.93-3.36-1.94-.15-.08.15-.08,3.36,1.94Zm0,0"/><path class="cls-14" d="M166.06,80l.15.08-.15.08-1.61.93-3.36-1.94-.15-.08.15-.08,3.36,1.94Zm0,0"/><path class="cls-14" d="M160.95,79.2l.15-.08,3.36,1.94,1.61-.93.15.08-.73.42-1,.59-2.78-1.6-.15-.08-.15-.08-.15-.08-.15-.08Zm0,0"/><path class="cls-14" d="M162.7,77.35l3.51,2-.15.08-1.61.93-3.36-1.94-.15-.08.29-.17Zm0,0"/><path class="cls-6" d="M158.11,82.41V81.9l1,.59v1.35l-.44-.25v-.84l-.44-.26Zm0,0"/><path class="cls-8" d="M158.11,81.9v.51l.15.08v.17l-.44.25v-1l.44-.25v.17Zm0,0"/><path class="cls-7" d="M158.11,81.9l.15-.08,1,.59-.15.08Zm0,0"/><path class="cls-7" d="M158.7,83.59l.44.25-.58.34-.44-.25Zm0,0"/><path class="cls-9" d="M159.11,83.59l-.79.34-2.58,1.43-3-1.69,2-1.18.43-.25.58-.34.14-.08.58-.34.15.08L153,83.68l2.83,1.52,3.27-1.77Zm-.4,0"/><path class="cls-10" d="M153.11,83.68l3,1.69v1l-3-1.69Zm-.39,0"/><path class="cls-11" d="M156.11,86.38v-1l2-1.43v.67l.53.17Zm-.47,0"/><path class="cls-11" d="M160,83.85l-.73.42v-1l.73-.42Zm0,0"/><path class="cls-9" d="M160,82.83l-.73.42v-.17l.44-.25-.44-.25v-.17Zm0,0"/><path class="cls-9" d="M159.11,83.42l-3.27,1.77-2.73-1.52,3.6-2.11.33.2-3.35,1.93,1.95,1,3.48-1.89Zm-.4,0"/><path class="cls-9" d="M159.72,82.83l-.44.25v-.51Zm0,0"/><path class="cls-14" d="M159.11,82.82l-3.48,1.89-1.85-1,3.14-1.93.2.23v.67l.49.24.51-.25v-.17l1,.26Zm-.4,0"/><path class="cls-7" d="M154.76,82l.58-.34.44.25-.58.34Zm0,0"/><path class="cls-6" d="M154.76,82l.44.25-.44.25Zm0,0"/><path class="cls-6" d="M158.12,84.61v-.67l.44.25v.67l-.15-.08Zm0,0"/><path class="cls-6" d="M155.11,81.65V80.3l2.18,1.28-.18.08V82l-.25-.23-.28-.2-.11-.08-.4-.34,0-.08v.84Zm.24,0"/><path class="cls-8" d="M155.78,81.91v-.84l.15.08v.67Zm0,0"/><path class="cls-8" d="M159.11,83.85v.59l-1,.42v-.67Zm0,0"/><path class="cls-7" d="M157.56,81.58l-2.22-1.28.15-.08,2.22,1.28Zm0,0"/><path class="cls-5" d="M155.93,81.82v-.67l.58.34Zm0,0"/><path class="cls-7" d="M157.85,81.41l.41.24-.44.25-.41-.24.15-.08.15-.08Zm0,0"/><path class="cls-6" d="M157.41,81.67l.41.24v1l-.41-.24v-1Zm0,0"/><path class="cls-6" d="M165,86.37v-.51l1,.59v1.35l-.44-.25v-.84l-.44-.26Zm0,0"/><path class="cls-8" d="M165,85.87v.51l.15.08v.17l-.44.25v-1l.44-.25v.17Zm0,0"/><path class="cls-7" d="M165,85.87l.15-.08,1,.59-.15.08Zm0,0"/><path class="cls-7" d="M165.57,87.56l.44.25-.58.34-.44-.25Zm0,0"/><path class="cls-9" d="M165.11,87.56l-.35.34-2.37,1.43-2.86-1.69,2.07-1.18.45-.25.59-.34.15-.08.59-.34.15.08-3.65,2.11,2.4,1.52,2.84-1.77Zm.46,0"/><path class="cls-10" d="M159.11,87.64l3,1.69v1l-3-1.69Zm.47,0"/><path class="cls-11" d="M162.11,90.34v-1l3-1.43v.67l0,.17Zm.39,0"/><path class="cls-11" d="M166.88,87.81l-.73.42v-1l.73-.42Zm0,0"/><path class="cls-9" d="M166.88,86.8l-.73.42v-.17l.44-.25-.44-.25v-.17Zm0,0"/><path class="cls-9" d="M165.11,87.39l-2.84,1.77-2.51-1.52,3.71-2.11.38.2-3.32,1.93,1.53,1,3.06-1.89Zm.46,0"/><path class="cls-9" d="M166.59,86.8l-.44.25v-.51Zm0,0"/><path class="cls-7" d="M161.62,86l.58-.34.44.25-.58.34Zm0,0"/><path class="cls-6" d="M161.62,86l.44.25-.44.25Zm0,0"/><path class="cls-6" d="M165,88.57v-.67l.44.25v.67l-.15-.08Zm0,0"/><path class="cls-6" d="M162.11,85.62V84.27l2.18,1.28-.18.08V86l-.32-.23-.31-.2-.12-.08-.34-.34.1-.08v.84Zm.1,0"/><path class="cls-8" d="M162.65,85.87V85l.15.08v.67Zm0,0"/><path class="cls-8" d="M166.11,87.81v.59l-1,.42v-.67Zm-.1,0"/><path class="cls-7" d="M164.42,85.55l-2.22-1.28.15-.08,2.22,1.28Zm0,0"/><path class="cls-5" d="M162.79,85.79v-.67l.58.34Zm0,0"/><path class="cls-14" d="M164.59,86.88l.51-.25v.16l-3,1.89-1.64-1,3.31-1.93.38.23v.67Zm.09,0"/><path class="cls-7" d="M164.71,85.38l.41.24-.44.25-.41-.24.15-.08.15-.08Zm0,0"/><path class="cls-6" d="M164.28,85.63l.41.24v1l-.41-.24v-1Zm0,0"/><path class="cls-6" d="M173,34v-.51l1,.59V35.4l-.44-.25V34.3l-.44-.26Zm0,0"/><path class="cls-8" d="M173,33.46V34l.15.08v.17l-.44.25v-1l.44-.25v.17Zm0,0"/><path class="cls-7" d="M173,33.46l.15-.08,1,.59L174,34Zm0,0"/><path class="cls-7" d="M173.56,35.15l.44.25-.58.34-.44-.25Zm0,0"/><path class="cls-9" d="M173.11,35.15l-.36.34-2.37,1.43-2.86-1.69L169.59,34l.45-.25.59-.34.15-.08.59-.34.15.08-3.65,2.11,2.4,1.52L173.11,35Zm.45,0"/><path class="cls-8" d="M174.11,35.4V36l-1,.42v-.67Zm-.11,0"/><path class="cls-6" d="M173.41,35.74v.67l-.15-.08-.29-.17v-.67Zm0,0"/><path class="cls-11" d="M173.11,35.48v.67l0,.17-3,1.6v-1Zm-.13,0"/><path class="cls-7" d="M169.62,33.54l.58-.34.44.25-.58.34Zm0,0"/><path class="cls-6" d="M169.62,33.54l.44.25-.44.25Zm0,0"/><path class="cls-6" d="M170.11,33.21V31.86l2.18,1.28-.18.08v.34l-.32-.23-.31-.2-.13-.08L171,32.7l.1-.08v.84Zm.09,0"/><path class="cls-8" d="M170.64,33.46v-.84l.15.08v.67Zm0,0"/><path class="cls-7" d="M172.42,33.14l-2.22-1.28.15-.08,2.22,1.28Zm0,0"/><path class="cls-5" d="M170.78,33.37V32.7l.58.34Zm0,0"/><path class="cls-11" d="M174.87,35.4l-.73.42v-1l.73-.42Zm0,0"/><path class="cls-9" d="M174.87,34.39l-.73.42v-.17l.44-.25-.44-.25V34Zm0,0"/><path class="cls-10" d="M170.11,36.92v1l-3-1.69v-1Zm.39,0"/><path class="cls-9" d="M173.11,35l-2.84,1.77-2.52-1.52,3.71-2.11.38.2-3.32,1.93,1.53,1,3.06-1.89Zm.45,0"/><path class="cls-9" d="M174.58,34.39l-.44.25v-.51Zm0,0"/><path class="cls-14" d="M172.59,34.47l.51-.25v.16l-3.05,1.89-1.64-1,3.31-1.93.38.23v.67Zm.09,0"/><path class="cls-7" d="M172.71,33l.41.24-.44.25-.41-.24.15-.08.15-.08Zm0,0"/><path class="cls-6" d="M172.27,33.22l.41.24v1l-.41-.24v-1Zm0,0"/><path class="cls-9" d="M29,50.82l2-1.13.1,0V52Zm0,0"/><path class="cls-13" d="M31,49.69l-1.85,1.13,0,.08V50l1.44-.88.56.37v.17Zm0,0"/><path class="cls-9" d="M29,50.82,31.11,52v.15l-2.18-1.24Zm0,0"/><path class="cls-9" d="M31,49.73l-.07,0,.07,0Zm0,0"/><path class="cls-12" d="M30.39,49.11,28.87,50l-1-.59,1.3-.75.13-.08.09-.05Zm0,0"/><path class="cls-12" d="M27.85,49.4l1,.59v.9l-1-.59v-.9Zm0,0"/><path class="cls-10" d="M27.7,50.3l1.14.59,2.27,1.24V53l-6-3.25v-.9Zm.15,0"/><path class="cls-5" d="M25.11,48.89v.9l6,3.25v1.9l-3,1.5v.75l1.06.57,2.94-1.65V53.17l2-1v-.9l-2-1v-1L39,53.23,19.54,64.49,0,53.23l11.1-6.43v.47l1.06.57,2.94-1.65V44.57l3.71-2.15,10.55,6.1-.09.05-1.81-1Zm-16,.91-1,.3v.45l-1,1.05v.9l5.28,3.15,2.38-1.43-.09.08.43-.38v-.15l8-4.23v-.9l-5.62-3.15-6.76,3.86-1.46-.83-.16.08ZM16.87,55l-1.77,1.16V57l5.2,3.15,7.8-4.65v-.9l-5.45-3.15-2,1.16-1.89,1.16Zm-.25,0"/><path class="cls-12" d="M29.11,33.64l10,10.47v9.12l-7-3.93v-.54l-13-7.33V32.85Zm.23,0"/><path class="cls-13" d="M18.83,42.42l-3.72,2.15v-4.3Zm0,0"/><path class="cls-13" d="M11.11,46.8l-11,6.43V44.11l19-11.26v8.58L14,38.26l.12.15V45l-3,1.5Zm.12,0"/><path class="cls-6" d="M14.11,45v-6.6l18,10.5v6.6l-1-.57V49.48l-.68-.37-1-.59-10.57-6.1-3.59-2.15-.12-.15v5.46Zm-.28,0"/><path class="cls-8" d="M15.11,45.58v.6l-3,1.65v-.75Zm-.29,0"/><path class="cls-7" d="M32,48.91,13.83,38.41l.26-.15,5.49,3.17,12.69,7.33Zm0,0"/><path class="cls-8" d="M32.11,48.91v7.2l-3,1.65V57l3-1.5Zm-.09,0"/><path class="cls-7" d="M31,54.94l1,.57L29.41,57l-1-.57Zm0,0"/><path class="cls-7" d="M13.83,45l1,.57-2.6,1.5-1-.57Zm0,0"/><path class="cls-6" d="M29.41,57v.75l-1-.57v-.75Zm0,0"/><path class="cls-6" d="M12.22,47.09v.75l-1-.57v-.75Zm0,0"/><path class="cls-9" d="M32.27,50.3l1.71,1-1.71,1v-.15l1.44-.83-1.44-.83Zm0,0"/><path class="cls-9" d="M27.61,47.61l1.67,1-.13.08-1.54-.89-1.82,1.13,2.32,1.26v.15l-2.58-1.41Zm0,0"/><path class="cls-11" d="M34,51.29v.9l-1.71,1v-.9Zm0,0"/><path class="cls-9" d="M28.11,50.15l-2.32-1.26,1.88-1.13,1.63.89-1.2.75Zm-.26,0"/><path class="cls-9" d="M33.72,51.29l-1.44.83V50.45Zm0,0"/><path class="cls-12" d="M83.27,92.11l-14.61,8.43L59.9,95.48l14.61-8.43ZM71.49,96.29l.62-.42V95.7l1-.42v-1l-.85-.42-1.15-.59v-.17l-.31-.24-.1.08-2.33-1.28-.26.08v2.19l-2,1.18v1l2.75,1.69,2.63-1.6Zm6.24-3.86-.15-.08.15-.08-.15-.08.15-.08-3.51-2-1.75,1,.15.08-.15.08.15.08-.15.08.15.08-.15.08.15.08-.15.08.15.08-.15.08,3.51,2,1.75-1-.15-.08.15-.08-.15-.08.15-.08-.15-.08Zm0,0"/><path class="cls-12" d="M83.11,85.36v6.75l-9-5.06V76.59Zm.16,0"/><path class="cls-13" d="M74.11,76.59V87.05l-14,8.43V85Zm.4,0"/><path class="cls-12" d="M182.11,33.92l-2.76-1.69h.11l-3.46-2h0l-1.86-1.07v-6l4-1.16,4,5.94Zm.35,0"/><path class="cls-5" d="M179.53,32.23l2.93,1.69-11.83,6.83L162.34,36l11.83-6.83L176,30.2l-1.73,1,.15.08-.15.08.15.08-.15.08.15.08-.15.08.15.08-.15.08.15.08-.15.08,3.51,2,1.75-1L179.4,33l.15-.08-.15-.08.15-.08-.15-.08.15-.08-.15-.08.15-.08-.15-.08Zm-6.13,4.18.71-.42v-.17l1-.42v-1l-.85-.42-1.15-.59V33.2l-.4-.24-.14.08-2.26-1.28-.19.08V34l-3,1.18v1l3.15,1.69,2.88-1.6Zm0,0"/><path class="cls-13" d="M162.11,36V30l12-6.83v6Zm.24,0"/><path class="cls-14" d="M179.4,32.47l.15.08-.15.08-1.61.93-3.36-1.94-.15-.08.15-.08,3.36,1.94Zm0,0"/><path class="cls-14" d="M174.29,31.71l.15-.08,3.36,1.94,1.61-.93.15.08-.15.08-1.61.93-3.36-1.94Zm0,0"/><path class="cls-14" d="M179.4,32.3l.15.08-.15.08-1.61.93-3.36-1.94-.15-.08.15-.08,3.36,1.94Zm0,0"/><path class="cls-14" d="M179.4,32.81l.15.08-.15.08-1.61.93L174.43,32l-.15-.08.15-.08,3.36,1.94Zm0,0"/><path class="cls-14" d="M177.79,34.07l-3.51-2,.15-.08,3.36,1.94L179.4,33l.15.08Zm0,0"/><path class="cls-14" d="M176,30.19l3.51,2h0l-.13.07-1.61.93-3.36-1.94-.15-.08,1.73-1Zm0,0"/><path class="cls-14" d="M111.51,50.71l.15.08-.15.08-1.61.93-3.36-1.94-.15-.08.15-.08,3.36,1.94Zm0,0"/><path class="cls-14" d="M106.4,50l.15-.08,3.36,1.94,1.61-.93.15.08-.15.08-1.61.93L106.55,50Zm0,0"/><path class="cls-14" d="M111.51,50.54l.15.08-.15.08-1.61.93-3.36-1.94-.15-.08.15-.08,3.36,1.94Zm0,0"/><path class="cls-14" d="M111.51,51l.15.08-.15.08-1.61.93-3.36-1.94-.15-.08.15-.08L109.91,52Zm0,0"/><path class="cls-5" d="M109.91,52.31l-3.51-2,.15-.08,3.36,1.94,1.61-.93.15.08Zm0,0"/><path class="cls-14" d="M108.15,48.43l3.51,2-.15.08-1.61.93-3.36-1.94-.15-.08Zm0,0"/><path class="cls-14" d="M77.59,92.35l.15.08-.15.08L76,93.44,72.62,91.5l-.15-.08.15-.08L76,93.27Zm0,0"/><path class="cls-14" d="M72.47,91.59l.15-.08L76,93.44l1.61-.93.15.08-.15.08L76,93.61l-3.36-1.94Zm0,0"/><path class="cls-14" d="M77.59,92.18l.15.08-.15.08L76,93.27l-3.36-1.94-.15-.08.15-.08L76,93.1Zm0,0"/><path class="cls-14" d="M77.59,92.68l.15.08-.15.08L76,93.78l-3.36-1.94-.15-.08.15-.08L76,93.61Zm0,0"/><path class="cls-12" d="M76,93.95l-3.51-2,.15-.08L76,93.78l1.61-.93.15.08Zm0,0"/><path class="cls-14" d="M74.23,90.07l3.51,2-.15.08L76,93.1l-3.36-1.94-.15-.08Zm0,0"/><path class="cls-14" d="M65,20.71l.15.08-.15.08-1.61.93-3.36-1.94-.15-.08.15-.08,3.36,1.94Zm0,0"/><path class="cls-14" d="M59.91,20l.15-.08,3.36,1.94L65,20.88l.15.08-.15.08L63.41,22,60.05,20Zm0,0"/><path class="cls-14" d="M65,20.55l.15.08-.15.08-1.61.93L60.05,19.7l-.15-.08.15-.08,3.36,1.94Zm0,0"/><path class="cls-14" d="M65,21.05l.15.08-.15.08-1.61.93-3.36-1.94-.15-.08.15-.08L63.41,22Zm0,0"/><path class="cls-5" d="M63.41,22.32l-3.51-2,.15-.08,3.36,1.94L65,21.22l.15.08Zm0,0"/><path class="cls-14" d="M61.66,18.44l3.51,2-.15.08-1.61.93-3.36-1.94-.15-.08Zm0,0"/><path class="cls-15" d="M65.64,15.09l.48.28v.55l-.48-.28Zm0,0"/><path class="cls-7" d="M8.57,50.1l.52-.3.39.23-.52.3Zm0,0"/><path class="cls-6" d="M8.57,50.1l.39.23-.39.23Zm0,0"/><path class="cls-6" d="M9.11,49.8V48.6l6,3.6v.23l-.32-.13-4.18-2.39-.33-.18-.14-.08-.71-.3-.32-.08v.53Zm0,0"/><path class="cls-7" d="M14.94,53.18l.39.23-.52.3-.39-.23Zm0,0"/><path class="cls-9" d="M15.11,53.18l-.6.3-2.25,1.28L6.77,51.6l1.81-1.05L9,50.32l.52-.3.13-.08.52-.3.13.08L7,51.6l5.28,3L15.11,53Zm-.17,0"/><path class="cls-8" d="M9.48,50v-.75l.13.08v.6Zm0,0"/><path class="cls-8" d="M15.11,53.4v0Zm.22,0"/><path class="cls-7" d="M15.33,52.2,9.09,48.6l.13-.08,1.43.83.13.08.31.18L15.22,52l.23.13Zm0,0"/><path class="cls-6" d="M14.81,53.7v.6l-.13-.08-.26-.15v-.6Zm0,0"/><path class="cls-11" d="M14.11,53.48v.6l.36.15-2.36,1.43v-.9Zm.31,0"/><path class="cls-5" d="M9.61,49.95v-.6l.52.3Zm0,0"/><path class="cls-11" d="M23.11,49.54l-8,4.23v-.9l8-4.23Zm-.32,0"/><path class="cls-9" d="M22.61,48.64l-7.51,4.23v-.15l7.25-4.08-5.11-3-6.51,3.78-.11-.08,6.61-3.86Zm.18,0"/><path class="cls-10" d="M12.11,54.75v.9l-5-3.15v-.9Zm.1,0"/><path class="cls-9" d="M15.11,53,12.29,54.6,7,51.6l3.23-1.88.3.18-3,1.72L11.73,54l3.05-1.72.32.13Zm-.17,0"/><path class="cls-14" d="M14.7,52.29l-3,1.72L7.6,51.62l3-1.72Zm0,0"/><path class="cls-9" d="M22.35,48.64l-7.25,4.08v-.6L15,52l6.48-3.69-4.09-2.39-6.37,3.69-.3-.18,6.47-3.78Zm.18,0"/><path class="cls-14" d="M21.61,48.3,15.22,52l-4.13-2.39,6.39-3.69Zm0,0"/><path class="cls-12" d="M14.61,56.14l2-1.16,5.46,3.15-2,1.16Zm2-1-1.75,1,.78.45,4.42,2.55,1-.56.78-.45Zm0,0"/><path class="cls-12" d="M16.62,55l2-1.16L24.1,57l-2,1.16Zm2-1-1.75,1,.78.45L22.08,58l1-.56.78-.45Zm0,0"/><path class="cls-13" d="M22.1,58.13l2-1.16,2-1.16,2-1.16v.9l-8,4.65v-.9Zm0,0"/><path class="cls-12" d="M28.13,54.64l-2,1.16-5.46-3.15,2-1.16Zm-.26,0-5.2-3-1.75,1,.78.45,4.42,2.55,1-.56Zm0,0"/><path class="cls-12" d="M24.1,57l-5.46-3.15,2-1.16,5.46,3.15Zm1.76-1.16-5.2-3-1.75,1,.78.45,4.42,2.55,1-.56Zm0,0"/><path class="cls-12" d="M15.11,57v-.9l5,3.15v.9Zm-.5,0"/><path class="cls-12" d="M21.11,52.8l5,3-.67.45L21.11,53.7Zm-.45,0"/><path class="cls-13" d="M18.9,53.81l1.75-1v.9l-1,.56Zm0,0"/><path class="cls-5" d="M20.65,53.7l4.42,2.55-1,.56-4.42-2.55Zm0,0"/><path class="cls-13" d="M16.88,55l1.75-1v.9l-1,.56Zm0,0"/><path class="cls-12" d="M19.11,54l5,3-.66.45-4.3-2.55Zm-.47,0"/><path class="cls-5" d="M18.64,54.86l4.42,2.55-1,.56-4.42-2.55Zm0,0"/><path class="cls-12" d="M23.11,51.64l5,3-.67.45-4.31-2.55Zm-.44,0"/><path class="cls-13" d="M20.91,52.65l1.75-1v.9l-1,.56Zm0,0"/><path class="cls-5" d="M21.69,53.1l1-.56,4.42,2.55-1,.56Zm0,0"/><path class="cls-13" d="M16.62,56l-1,.56-.78-.45,1.75-1Zm0,0"/><path class="cls-5" d="M15.65,56.59l1-.56L21,58.58l-1,.56Zm0,0"/><path class="cls-12" d="M17.11,56v-.9l5,3-.66.45Zm-.48,0"/><path class="cls-12" d="M127.11,13l-6-3.37V9.35l-.8-.42-.76-.42-.3.16L118.11,8V0l9,5Zm-.3,0"/><path class="cls-5" d="M121.11,9.68,126.87,13l-12.45,7.17-8.71-5,7.66-4.43.15.14.57,1.25,0,.25.47,1-.25.08-.29.16-.21.2.07.23.18.23v.51l-.09.23.11.2.24.17.33.12.38.06h.4l.39-.06.35-.11.29-.16.21-.2.25-.23.15-.23v-.51l-.24-.23-.27-.2-.32-.17-.37-.12h-.09l-.68-1.45-.2-.17-.57-1.24,0-.28,0,0,.51-.3.14,0,.34-.14.74.21.23.29.14,0,0,.05,0,.09.72,1.43v0l0,0,0,0,0,0,0,0,0,0,0,0,0,0,0,0h.11l.16-.07.14.5.33,0,.5-.22-.35-1.25.52.3.73.42.73.42.37-.21.75.42.75-.42V10.62l-1-.42Zm-.13,0"/><path class="cls-5" d="M118.12,8l1.28.64-.29.26v.84l-1,.42v.74l-.21,0-.2.08-.16-.4.39-.17.07-.16-.13-.62-.17-.23-1.2-.32-.28.12-.11,0Zm0,0"/><path class="cls-13" d="M106.11,7.17l12-7.17V8l-2,1.17L115.41,9l-.21-.24-1.28-.34-.42.18-.64.28-.23.12v.2l.72,1.55.22,0-7.46,4.43Zm-.4,0"/><path class="cls-13" d="M114.85,9.91l-.51.3-.23-.49Zm0,0"/><path class="cls-12" d="M118.78,11.46l-.52-.3-.06-.21-.15,0V10.2l.73.42Zm0,0"/><path class="cls-12" d="M118.78,11.46v-.84l.73.42v.84Zm0,0"/><path class="cls-14" d="M118.78,10.62l-.73-.42.73-.42.73.42Zm0,0"/><path class="cls-14" d="M118.78,10.62l.73-.42.73.42-.73.42Zm0,0"/><path class="cls-12" d="M119.51,10.2l-.73-.42V8.93l.73.42Zm0,0"/><path class="cls-12" d="M119.51,11.88V11l.73.42v.84Zm0,0"/><path class="cls-14" d="M119.51,11l.73-.42L121,11l-.37.21-.37.21Zm0,0"/><path class="cls-12" d="M120.24,10.62l-.73-.42V9.35l.73.42Zm0,0"/><path class="cls-16" d="M120.24,12.3v-.84l.37-.21v.84Zm0,0"/><path class="cls-14" d="M121,11l-.73-.42.73-.42.73.42-.37.21Zm0,0"/><path class="cls-12" d="M121.34,12.52l-.73-.42v-.84l.73.42Zm0,0"/><path class="cls-16" d="M122.07,11.25v.84l-.73.42v-.84Zm0,0"/><path class="cls-14" d="M121.34,11.67l-.73-.42L121,11l.37-.21.37.21.37.21Zm0,0"/><path class="cls-16" d="M121.71,10.62V11l-.37-.21Zm0,0"/><path class="cls-16" d="M121,10.2l-.73.42V9.77l.73-.42v.84Zm0,0"/><path class="cls-14" d="M119.51,9.35l-.73-.42.45-.26.28-.16.73.42Zm0,0"/><path class="cls-14" d="M119.51,9.35l.73-.42.73.42-.73.42Zm0,0"/><path class="cls-17" d="M114,15.27l-.2-.2v-.51l.2.2Zm0,0"/><path class="cls-6" d="M114,15.27v-.51l.28.17v.51Zm0,0"/><path class="cls-7" d="M114,14.76l-.2-.2-.1-.23V14.1l.11-.23.21-.2.29-.16.24-.08.3.64.19.15.64-.28.2-.11v-.22l-.11-.24h.08l.35.12.28.17.2.2.1.23v.23l-.11.23-.21.2-.29.16-.35.11-.39.06h-.41l-.39-.06-.35-.12Zm0,0"/><path class="cls-18" d="M115.85,15.06l.35-.11v.51l-.35.11Zm0,0"/><path class="cls-6" d="M113.83,14.56v.51l-.1-.23v-.51Zm0,0"/><path class="cls-8" d="M116.21,15.46v-.51l.29-.16v.51Zm0,0"/><path class="cls-19" d="M114.66,15.56l-.35-.12v-.51l.35.12Zm0,0"/><path class="cls-20" d="M114.66,15.56v-.51l.39.06v.51Zm0,0"/><path class="cls-8" d="M116.82,14.87l-.11.23v-.51l.11-.23Zm0,0"/><path class="cls-8" d="M116.82,14.87v0Zm0,0"/><path class="cls-8" d="M116.71,14.58v.51l-.21.2v-.51Zm0,0"/><path class="cls-21" d="M115.85,15.06v.51l-.39.06v-.51Zm0,0"/><path class="cls-22" d="M115.46,15.12v.51h-.41v-.51Zm0,0"/><path class="cls-8" d="M114.36,10.26l0,.28-.64.28,0-.28Zm0,0"/><path class="cls-7" d="M114.95,11.78l.2.17-.64.28-.2-.17Zm0,0"/><path class="cls-17" d="M114.31,12.05l.2.17.78,1.68v.22l-.2.11-.19-.15-.3-.64-.47-1,0-.25-.57-1.25-.16-.14,0,0-.72-1.55V9l.23-.12L113,9l.72,1.55,0,.28Zm0,0"/><path class="cls-8" d="M115.92,13.84l-.2.11-.64.28.2-.11Zm0,0"/><path class="cls-8" d="M115.92,13.84l-.64.28V13.9l.64-.28Zm0,0"/><path class="cls-23" d="M115.29,13.9l-.78-1.68.64-.28.67,1.45.11.24Zm0,0"/><path class="cls-23" d="M114.31,12.05l-.57-1.24.64-.28.57,1.24Zm0,0"/><path class="cls-23" d="M113.72,10.53,113,9l.64-.28.47,1,.23.49,0,0Zm0,0"/><path class="cls-7" d="M113,9l-.14-.11.64-.28.14.11Zm0,0"/><path class="cls-17" d="M113.64,8.71l-.14-.11,1.28.34.21.24,1,.27.11-.17,1.2.32.17.23.13.62-.05.12-.24-.62-.05-.08-.06-.06-.06,0-.06,0H117l-.5.22,0,0,0,0,0,.07v.21l-.14,0-.23-.29-.74-.21-.22-.06L115,10l-.15,0-.74-.2Zm0,0"/><path class="cls-7" d="M116.49,9.1l1.2.32-.42.18-1.2-.32.14-.06Zm0,0"/><path class="cls-22" d="M117.69,9.42l.17.23-.42.18-.17-.23Zm0,0"/><path class="cls-8" d="M118,10.28l-.07.16-.39.17v0l.05-.12Zm0,0"/><path class="cls-24" d="M117.86,9.66l.13.62-.42.18-.13-.62Zm0,0"/><path class="cls-7" d="M113.92,8.42l1.28.34-.42.18L113.5,8.6Zm0,0"/><path class="cls-25" d="M115.21,8.76l.21.24-.42.18-.21-.24Zm0,0"/><path class="cls-8" d="M115,10l.11-.21.22.06Zm0,0"/><path class="cls-7" d="M116.07,9.28l-.11.17-1-.27.42-.18.68.19.11,0Zm0,0"/><path class="cls-26" d="M117.79,12.59l-.14-.5.29-.13.19.66Zm0,0"/><path class="cls-27" d="M118.12,12.62l-.19-.66,0,0h0v-.21l0,0,0,0-.07-.07h0l-.13-.34.47-.2.06.21.35,1.25Zm0,0"/><path class="cls-28" d="M118.21,11l-.47.2-.06-.15.19-.08.18,0Zm0,0"/><path class="cls-29" d="M118,11.67l0,0-.5.22,0,0Zm0,0"/><path class="cls-8" d="M118,11.93h0l0,0-.29.13-.16.07h0Zm0,0"/><path class="cls-8" d="M118,11.84v0l-.5.22v0Zm0,0"/><path class="cls-30" d="M117.88,11.51h0l-.5.22h0Zm0,0"/><path class="cls-7" d="M117.11,9.78l.06,0-.5.22-.06,0Zm0,0"/><path class="cls-31" d="M117.89,11.53h0l-.5.22h0Zm0,0"/><path class="cls-7" d="M117,9.76l.06,0-.5.22-.06,0Zm0,0"/><path class="cls-32" d="M118,11.76v0l-.5.22v0Zm0,0"/><path class="cls-33" d="M117.89,11.53h0l-.5.22h0Zm0,0"/><path class="cls-34" d="M118,11.71v0l-.5.22v0Zm0,0"/><path class="cls-35" d="M117.17,9.82l.06.06-.5.22-.06-.06Zm0,0"/><path class="cls-22" d="M117.22,9.88l.05.08-.5.22-.05-.08Zm0,0"/><path class="cls-36" d="M118,11.63l0,0-.5.22,0,0Zm0,0"/><path class="cls-35" d="M117.91,11.56l.07.07-.5.22-.07-.07Zm0,0"/><path class="cls-25" d="M117.9,11.55h0l-.5.22h0Zm0,0"/><path class="cls-22" d="M117.9,11.55h0l-.5.22h0Zm0,0"/><path class="cls-37" d="M117.9,11.54h0l-.5.22h0Zm0,0"/><path class="cls-38" d="M117.88,11.52h0l-.5.22h0Zm0,0"/><path class="cls-39" d="M117.88,11.5h0l-.5.22h0Zm0,0"/><path class="cls-40" d="M117.88,11.5h0l-.5.22h0Zm0,0"/><path class="cls-35" d="M117,9.77H117l-.5.22h-.05Zm0,0"/><path class="cls-8" d="M118,11.9v0l-.5.22v0Zm0,0"/><path class="cls-8" d="M118,11.88v0l-.5.22v0Zm0,0"/><path class="cls-8" d="M118,11.8v0l-.5.22v0Zm0,0"/><path class="cls-17" d="M117.48,11.84l0,0,0,0-.2,0-.21,0v0l.21,0,.1,0,0,0h-.07l0,0,0,0,0,0,0,0,0,0,0,0,0,0,0,0v0l-.72-1.43,0-.09,0-.05v-.21l0-.07,0,0,0,0h.05l.06,0,.06,0,.06.06.05.08.6,1.54h0Zm0,0"/><path class="cls-41" d="M117.38,11.71l-.6-1.54.5-.22.24.62v0l.15.4.06.15.13.34Zm0,0"/><g class="cls-42"><path class="cls-43" d="M15.21,52.17c-2-1.1-3.93-2.23-5.86-3.39-.3,0-.2.2-.23.35s.12.61-.11.88c-.12.05-.3.07-.35.16-.25.44-.69.52-1.11.66L.1,53.36C0,53.23,0,53.07,0,52.92q0-4.19,0-8.38c0-.14-.07-.32.11-.42L8.5,39.27,16,35l2.94-1.71c.55-.32.64-.3.83.33.59,2,1.19,4,1.75,6a1.78,1.78,0,0,0,.91,1.15c2.42,1.38,4.82,2.79,7.24,4.18l6.55,3.77,2.37,1.38a3.18,3.18,0,0,0,.43.17,10.58,10.58,0,0,1,0,3.08,18.55,18.55,0,0,1-5,2.39,7,7,0,0,0-1.86.87,10.18,10.18,0,0,1-2.69,1.29.76.76,0,0,1,0-.8c.68-.39,1.35-.79,2-1.15a1.06,1.06,0,0,0,.6-1.09c0-1.67,0-3.35,0-5a5,5,0,0,1,0-.6.27.27,0,0,1,.32-.26.87.87,0,0,1,.78,1.13c-.1.28,0,.36.2.47.56.33,1.12.64,1.67,1,.33.2.34.31,0,.5a11.62,11.62,0,0,1-2.31,1.2.62.62,0,0,0-.49.7c0,.31,0,.62,0,.94s.17.35.42.28l.38-.12,5.07-1.73c.57-.2.57-.24.62-.87A1.31,1.31,0,0,0,38,51.07c-4.75-2.71-9.47-5.45-14.2-8.19-.25-.15-.5-.29-.76-.43s-.37-.14-.44.2c-.12.53-.14.55-.63.26l-5.33-3.08-2-1.14c-.13-.07-.28-.2-.43-.09s-.09.33,0,.49c.16.58.34,1.15.53,1.78.22-.56.23-.57.64-.33l6,3.48.06,0c.5.31.5.36,0,.64s-1,.6-1.56.91c-.24.14-.63.2-.62.52s.38.34.61.47l3.7,2.15.35.2c.2.13.22.27,0,.41s-.3.19-.46.27l-4.63,2.68a1.1,1.1,0,0,0-.43.32c0,.31.41.27.4.56s-.38.2-.58.27a14.7,14.7,0,0,0-2.12.82,1.41,1.41,0,0,1-.56.2,3.76,3.76,0,0,0-1.65.67,10.39,10.39,0,0,1-1.62.61,1.69,1.69,0,0,1-.05-.91,17.63,17.63,0,0,1,2.05-1.25c.16,0,.21.05.24.18a.3.3,0,0,0,0,.1c.17.12.2-.09.3-.13l.37-.29A2.65,2.65,0,0,0,15.21,52.17Z"/><path class="cls-43" d="M75.08,90.52a.52.52,0,0,1-.19,0c-.75-.37-1.32.06-1.9.43l-.32.22c-.06.12-.08.27-.26.27l-2.54.84a.63.63,0,0,1-.51,0l-.82-.42c-.19.28.09.66-.17.93l-7.69,2.59-.69.23c-.11-.13-.08-.3-.08-.45q0-4.85,0-9.7c0-.15-.06-.32.1-.43l9-5.2,4.49-2.62.29-.16c.69-.37.69-.36.92.41l3.22,11c.25.85.2.95-.66,1.26l-1.52.52C75.6,90.55,75.34,90.53,75.08,90.52Z"/><path class="cls-43" d="M156.38,75.75c-1,.5-2,1.13-3,1.68-.22.12-.22.28,0,.4a5.16,5.16,0,0,0,1.77.89.46.46,0,0,1,.43.26c.07.19.23.26.38.35s.27.11.24.28-.19.18-.31.23a5.78,5.78,0,0,1-.63.21,26.67,26.67,0,0,0-2.66,1.06c-.22.15-.49,0-.71.12a2.35,2.35,0,0,0-.76.4,10.84,10.84,0,0,1-2,.84c-.3.1-.33-.1-.32-.31s-.1-.56.16-.78a24.7,24.7,0,0,1,2.19-1.24c.15,0,.2.07.25.18a.68.68,0,0,0,.13.42c.24-.26.28-.68.68-.72a3.83,3.83,0,0,0,0-1.56l-.41-.17c-.29-.13-.4,0-.38.28s.27.17.39.27h0a.35.35,0,0,1-.12.54c-.81.36-1.53.89-2.31,1.31a1.15,1.15,0,0,1-.59.23c-.07-.21.09-.25.19-.31.63-.37,1.27-.72,1.89-1.1.12-.07.43-.13.18-.4A1.56,1.56,0,0,1,151,78l.15-.16c0-.35-.3-.09-.39-.24a8.32,8.32,0,0,1-1.1-.62,1.65,1.65,0,0,0-.79-.32.57.57,0,0,0-.05.45c.16.94.13,1-.73,1.14-.2.58-.8.67-1.22,1-1.54,1.14-3.4,1.49-5.15,2.13q-1.26.45-2.52.87c-.52.17-.61.11-.61-.41,0-2.56,0-5.13,0-7.69a.83.83,0,0,1,.46-.81c1.39-.79,2.77-1.6,4.16-2.4l5.6-3.23,3.81-2.2.36-.19c.45-.21.55-.16.71.34s.25.81.37,1.21l2.24,7.76c.06.19.14.37.22.56A.35.35,0,0,1,156.38,75.75Z"/><path class="cls-43" d="M66.27,15.4c.09-.18.3-.26.44-.4-.13-.31-.38-.3-.62-.27a.58.58,0,0,0-.54.34,1,1,0,0,1-.49.59.57.57,0,0,0-.27.79c.1.27.15.56.24.84a.51.51,0,0,1-.28.67c-.39.22-.76.46-1.14.69s-.39.32,0,.54,1,.6,1.56.91a6.73,6.73,0,0,1,1.33.86,8.51,8.51,0,0,1-2.56,1.28c-.28.07-.36-.06-.38-.3a.75.75,0,0,1,.44-.76l.89-.54a.79.79,0,0,0-.45-.46c-.75-.43-1.52-.84-2.26-1.3a.88.88,0,0,0-.94,0c-.31.17-.61.36-.92.53s-.17.38-.13.59c.1.63.09.66-.49.88l-1.13.42a.67.67,0,0,1-.51,0,17.7,17.7,0,0,1-1.76-.92c-.32-.14-.38-.12-.42.22a.46.46,0,0,0,0,.13,1.19,1.19,0,0,1-.53,1.19c-.12.17,0,.46-.28.54-1.94.57-3.82,1.31-5.74,1.93l-.77.22c-.13-.1-.1-.24-.1-.37q0-3.05,0-6.11c0-.12-.05-.27.11-.35L57,12.91l8.45-4.86c.42-.24.84-.51,1.27-.75s.52-.19.66.28c.41,1.39.81,2.78,1.21,4.17.26.9.53,1.8.78,2.7a1.31,1.31,0,0,1,.11.78c-.09.28.13.34.31.42a.55.55,0,0,0,.55,0c.34.13.73.16.75.69,0,.18.29.3.53.33a2.87,2.87,0,0,1,2.11,1.26c.16.24.14.32-.08.45-.52.29-1,.65-1.57.88-.73.32-1.5.55-2.25.82-.25.09-.39,0-.4-.29s0-.53,0-.8a.62.62,0,0,1,.36-.59c.39-.21.78-.43,1.16-.66.11-.07.25-.15.19-.31a.32.32,0,0,0-.34-.16,1.31,1.31,0,0,0-.61.26,3,3,0,0,1-.77.38c-.4.15-.53,0-.42-.39s.54-.37.82-.55.21-.3,0-.42c-.43-.27-.88-.52-1.34-.74a.82.82,0,0,0-.65.06c-.41.16-.84.3-1.26.45-.18.08-.3,0-.31-.17A2.3,2.3,0,0,1,66.27,15.4Z"/><path class="cls-3" d="M175.8,78l-6.22-3.61c-1.61-.94-3.22-1.88-4.84-2.81-.52-.3-1-.57-1.52-.88,0-.23.13-.28.25-.32,1.47-.5,3-1,4.42-1.51a1,1,0,0,1,.87.11c2.21,1.28,4.44,2.55,6.66,3.83l7.4,4.28,7.11,4.11a2.32,2.32,0,0,1,.66.5c-4.92,1.71-9.78,3.34-14.64,5-.19-.19-.09-.42-.09-.63,0-2.44,0-4.89,0-7.33A1.41,1.41,0,0,0,175.8,78Z"/><path class="cls-43" d="M102.27,51.66a.31.31,0,0,0-.24.11c-.3.14-.08.51-.3.69-2,1-4.07,1.44-6.09,2.2-.3.11-.42,0-.42-.28,0-.65,0-1.29,0-1.94,0-1.7,0-3.39,0-5.09a1,1,0,0,1,.57-1c3.65-2.09,7.29-4.2,10.93-6.31.91-.53.92-.53,1.22.49.8,2.74,1.62,5.47,2.36,8.22a1.63,1.63,0,0,0,.88,1.12c.45.24.9.5,1.34.75s.5.36,0,.65a7.27,7.27,0,0,1-1.85.91,2.7,2.7,0,0,0-.36.16c-.4-.11-.45-.37-.16-.94l1-.63c.22-.14.19-.3,0-.41q-1-.61-2.09-1.18a.61.61,0,0,0-.64,0,9.84,9.84,0,0,0-1.2.72c-.21.27.15.73-.29.92l-.51.15a1.36,1.36,0,0,1-1.87.4l-2.15-1.2C102.24,50.67,102.54,51.2,102.27,51.66Z"/><path class="cls-43" d="M105.84,7.13l7.39-4.28L117.57.36c.47-.27.6-.21.76.32q1.1,3.75,2.18,7.51a3.55,3.55,0,0,0,.29.82c.17.32,0,.39-.29.4a.9.9,0,0,1-.44-.13c-.5-.23-.85-.13-1,.44a.77.77,0,0,1-.24.39,1.51,1.51,0,0,1-.41.27h-.2a.42.42,0,0,1-.25-.16,1.34,1.34,0,0,0-1.47-.93A2.32,2.32,0,0,1,115.17,9,2.08,2.08,0,0,0,113,9c-.26.17-.34.32-.2.59.23.43.44.88.68,1.3a7.25,7.25,0,0,1,.57,1.2.36.36,0,0,1-.23.53l-.44.16-7.52,2.56c-.11-.11-.08-.25-.08-.38q0-3.71,0-7.43C105.73,7.37,105.68,7.22,105.84,7.13Z"/><path class="cls-43" d="M162.4,30.12a16.37,16.37,0,0,1,2.22-1.35q4.21-2.45,8.43-4.88l.71-.38c.4-.21.45-.19.61.25s.29.94.43,1.41l1.31,4.49c.17.59.16.56-.35.88a7.4,7.4,0,0,0-1.49,1.07,7,7,0,0,1-1.88,1.11.8.8,0,0,1-.83-.09c-.28-.19-.57-.35-.86-.5s-.34,0-.37.2c0,.09,0,.18,0,.27,0,.79-.08.86-.86,1.13L162.67,36c-.25.09-.32-.06-.32-.27C162.37,33.88,162.28,32,162.4,30.12Z"/><path class="cls-3" d="M82.09,10.56h.12c.16.13.38,0,.54.12a16.73,16.73,0,0,0,2.93.56c.17.13.39,0,.55.12h.12c.16.13.38,0,.55.12a17.24,17.24,0,0,0,2.93.55c.17.13.39,0,.55.12h.12c.16.13.38,0,.55.12h.12c.16.13.38,0,.54.12a5,5,0,0,0,1.58.29c0,.12.4-.05.24.26-2.15.65-4.27,1.42-6.4,2.14L76.71,18.66l-.26.08c-.41.11-.46.07-.5-.34,0-.11,0-.22,0-.33q0-3.25,0-6.49c0-.73,0-.73.66-1,2-.71,2-.71,4.2-.25a3,3,0,0,0,.73.08C81.7,10.57,81.93,10.43,82.09,10.56Z"/><path class="cls-3" d="M126.82,12.64q0-3.34,0-6.68c0-.79,0-.81.72-1.06l3.79-1.29a.92.92,0,0,1,.82.1l5,2.9,3,1.76c0,.28-.22.3-.38.35l-5.24,1.79-7,2.38c-.25.08-.48.25-.76.08A.21.21,0,0,1,126.82,12.64Z"/><path class="cls-3" d="M116.42,44.57c1.34-.45,2.7-.88,4-1.36a1.52,1.52,0,0,1,1.44.1c2.18,1.29,4.39,2.54,6.58,3.81a6,6,0,0,1,1.31.83c-.14.26-.41.26-.62.33l-10,3.38c-.93.31-1.84.67-2.78.93-.14-.09-.1-.23-.1-.36q0-3.67,0-7.33C116.3,44.78,116.24,44.63,116.42,44.57Z"/><path class="cls-3" d="M189.71,25.94l1.05,0A17.74,17.74,0,0,0,193,26a1.85,1.85,0,0,1,.72.06c.79.07.79.07.49.78-.45,1.06-.91,2.13-1.35,3.19a1.19,1.19,0,0,1-.78.74c-3,1-5.9,2-8.85,3l-.38.11a.23.23,0,0,1-.33-.22,4.89,4.89,0,0,1,0-.53c0-1.4,0-2.81,0-4.21a2.19,2.19,0,0,0-.55-1.59,3,3,0,0,1-.25-.32c-.12-.18-.11-.33.13-.41l1.07-.38,1.32-.46a4.34,4.34,0,0,1,1.45,0l1.05,0a17.53,17.53,0,0,0,2.24.06A2.08,2.08,0,0,1,189.71,25.94Z"/><path class="cls-43" d="M126.82,12.64V13a5.45,5.45,0,0,1-1.93,1.25c-.13,0-.25.08-.38.1s-.34,0-.41-.13.13-.26.25-.34c.39-.27.87-.46,1-1-.25-.29-.64-.19-.91-.39a1.8,1.8,0,0,0-1.67-.27l-1.28.42c-.18-.18-.08-.41-.09-.62,0-.5-.22-.55-.61-.32,0,.09,0,.18,0,.26s-.1.37-.31.37-.19-.26-.19-.41a.57.57,0,0,0-.53-.64c-.17-.05-.35-.13-.32.18a.36.36,0,0,0,0,.11.48.48,0,0,1,0,.53,1,1,0,0,0-.47.53,5.12,5.12,0,0,1-1.12,1.6c-.13.16,0,.37-.11.53a2.18,2.18,0,0,1-1.36.82c-.35-.09-.17-.33-.15-.53l.15-.13c.18-.15.48-.29.32-.56s-.39,0-.6,0a1.24,1.24,0,0,1-.79,0c-.1-.44.28-.53.53-.71s.22-.24.39-.11.4.07.58-.09.61-.49.92-.74c.17-.08.37,0,.53-.1l.1,0c0-.37-.44,0-.52-.3,0-.11-.34-.14-.19-.26.37-.28.17-.54.05-.82a3.65,3.65,0,0,1-.18-.5c0-.13.08-.19.17-.25s.14-.09.17-.06c.34.31.24-.16.37-.21h0c.13-.1.3-.08.43-.19a3.13,3.13,0,0,1,1.64-.51,1.16,1.16,0,0,0,.78-.49c.32.19.63.39,1,.55a1.29,1.29,0,0,1,.62.64c.13.15,0,.44.26.52a.79.79,0,0,0,.4.15,6.45,6.45,0,0,0,1.61.39,2.83,2.83,0,0,0,.88.27.81.81,0,0,1,.72.67A.55.55,0,0,0,126.82,12.64Z"/><path class="cls-44" d="M26.43,55.66a7,7,0,0,0,1.3-.69c.27-.15.27-.27,0-.42-.59-.36-1.19-.7-1.79-1l-1.85-1.07c-.09-.05-.22-.11-.17-.24s.21-.14.34-.1a1.25,1.25,0,0,1,.24.11l4.58,2.64c.13.08.29.14.34.33a1.26,1.26,0,0,1-.55.44l-6.94,4a6.79,6.79,0,0,1-1.42.58c-.27.08-.48,0-.46-.27,0-.52-.25-.75-.64-1-1.34-.75-2.66-1.53-4-2.29a2.67,2.67,0,0,1-.34-.21c-.17-.14-.21-.28,0-.42s.57-.34.87-.5.47-.3.65,0a.8.8,0,0,1,.15.87c-.06.11-.23.15-.2.39l2.61,1.52,1,.56a.67.67,0,0,0,.75,0c.32-.2.66-.37,1-.55.1-.1.13-.26.27-.32l.16-.05a1,1,0,0,0,.47-.14,4.73,4.73,0,0,1,1.27-.67.43.43,0,0,1,.1-.25c.13-.1.3-.07.44-.13a5.46,5.46,0,0,0,1.61-1A.22.22,0,0,1,26.43,55.66Z"/><path class="cls-44" d="M58.65,23.83a1,1,0,0,0,.16.52c.26.08.16-.17.23-.25a1.31,1.31,0,0,0,.6-1.09c0-.5-.13-.86-.6-1.06-.35,0-.36,0-.24.51.47.34.48.46,0,.73L56.4,24.6a1.4,1.4,0,0,1-.24.09c-.13-.18,0-.26.11-.33l1.72-1a.55.55,0,0,0,.32-.72c-.18-.76,0-.91.75-1.22a1.52,1.52,0,0,1,1.62.16,6.46,6.46,0,0,0,1.46.8c.21.15.48,0,.68.13h0c.2.07.15.3.26.43l.57.41a3,3,0,0,1-1.05.45c-.74.3-1.5.53-2.22.89a2.09,2.09,0,0,1-1,.26,1.46,1.46,0,0,0-.79.31,9.17,9.17,0,0,1-2.24,1c-.18.09-.31,0-.32-.16a1.87,1.87,0,0,1,0-.77,10.38,10.38,0,0,1,2.53-1.47Z"/><path class="cls-44" d="M68.62,96.18c.59-.42,1.23-.77,1.85-1.13.24-.14.53-.21.64-.52-.42-.36-.27-.78-.13-1.19l.17-.1c1.21-.51,1.31-.51,2.43.18a9.87,9.87,0,0,0,1.1.59c.2.15.47,0,.67.12h0c.18.09.18.28.25.43s.46.19.55.51a7.85,7.85,0,0,1-1.17.44,8.88,8.88,0,0,0-1.73.69,1.63,1.63,0,0,1-.75.26,3.93,3.93,0,0,0-1.89.77,8.7,8.7,0,0,1-1.55.61c-.28.11-.4,0-.41-.32a.86.86,0,0,1,.51-1,18.78,18.78,0,0,1,2-1c.17.08,0,.28.15.38a.43.43,0,0,0,0,.12c.25.08.14-.18.24-.25.61-.31.58-.86.57-1.42s-.51-.6-.82-.83a.54.54,0,0,0,0,.54,1.73,1.73,0,0,1,.2.17c.23.26.23.39-.06.58-.52.33-1.06.63-1.59.95l-1,.57C68.77,96.38,68.67,96.36,68.62,96.18Z"/><path class="cls-44" d="M165.22,86.61l.2.17c.23.2.19.38-.06.53-.59.35-1.17.71-1.78,1-.32.17-.57.49-1,.48-.09-.2.07-.25.17-.31l1.78-1c.17-.1.46-.15.3-.47a1.87,1.87,0,0,1-.06-1,3.5,3.5,0,0,1,1.22-.51.78.78,0,0,1,.64.08c.25.14.51.26.76.41a4.69,4.69,0,0,0,1.94.8c.11.13.13.33.28.43.42.39.42.45-.08.63a16.08,16.08,0,0,0-2.47,1,3,3,0,0,1-1.21.36,1.63,1.63,0,0,0-.74.28,9.26,9.26,0,0,1-2.57,1.08,1.25,1.25,0,0,1,0-1.07A21.21,21.21,0,0,1,165,88.06c.27-.14.53.24.81,0,.47-.39.26-.91.24-1.37s-.47-.47-.78-.62A.5.5,0,0,0,165.22,86.61Z"/><path class="cls-44" d="M177.53,34.68c.13.15.37.18.45.39s-.2.22-.34.27a23,23,0,0,0-2.62,1,2.78,2.78,0,0,1-1.15.32,1.07,1.07,0,0,0-.55.22A10.32,10.32,0,0,1,170.7,38c-.37-.33-.2-.71-.09-1.08.79-.44,1.54-1,2.37-1.33,0-.06.07-.06.1,0a1.25,1.25,0,0,0,.19.64c.37,0,0-.44.29-.52l.23-.15c.31-.17.16-.47.19-.72a2.62,2.62,0,0,1,.05-.73,3.91,3.91,0,0,0-.79-.54c-.11.25-.14.48.13.66s.34.43,0,.63L171,36.23c-.16.09-.33.24-.55.14,0-.23.18-.25.3-.32.44-.26.89-.5,1.34-.75a3.1,3.1,0,0,0,.67-.43c.23-.23-.06-.49,0-.75,0-.6,0-.69.59-.89.21-.08.43-.12.63-.21a.79.79,0,0,1,.82.1c.32.21.65.39,1,.57a2.9,2.9,0,0,0,1.53.56C177.46,34.34,177.46,34.53,177.53,34.68Z"/><path class="cls-44" d="M159.07,82.46l-.44-.27c-.13-.13-.23-.07-.28.07a.42.42,0,0,0,.18.49c.21.18.36.4,0,.59-1,.55-1.92,1.08-3,1.67.05-.38.28-.46.48-.57l1.67-1c.2-.11.3-.21.19-.47a1.88,1.88,0,0,1-.05-.66A.51.51,0,0,1,158,82a2.06,2.06,0,0,1,1.91-.34c.49.26,1,.54,1.45.82a.89.89,0,0,0,.36.15c.2.16.49-.06.68.16a.61.61,0,0,0,.31.48c.16.07.38.15.36.35s-.3.23-.48.29c-.82.28-1.61.7-2.43.91-1.3.34-2.42,1.08-3.68,1.48-.25.08-.51.14-.77.21a1.34,1.34,0,0,1,0-1.07l2.11-1.22a.32.32,0,0,1,.39,0,.84.84,0,0,0,.15.52c.35,0,.09-.29.24-.38a.79.79,0,0,1,.42-.31A3.84,3.84,0,0,0,159.07,82.46Z"/><path class="cls-43" d="M106.06,52.22,105.5,52c-.11,0-.23-.05-.3.05a.25.25,0,0,0,0,.31c.46.66.46.65-.26,1s-1.33.79-2,1.18c-.16.11-.33.2-.37-.11.55-.32,1.11-.64,1.66-1,.29-.18.65-.29.82-.64-.51-.26-.26-.69-.24-1.07h0a2.78,2.78,0,0,1,1.61-.66,18.59,18.59,0,0,0,2.14,1.21c.2.17.48,0,.68.15a1.57,1.57,0,0,0,.68.69c.2.09.16.24,0,.33l-.13,0-3.47,1.34c-.21.13-.46,0-.67.12A12.06,12.06,0,0,1,103,56.22c-.14.08-.3,0-.3-.1a1.48,1.48,0,0,1,.08-1l2.11-1.22c.2-.11.3,0,.39.17s0,.27.17.39c.16-.28.24-.66.64-.71A3.84,3.84,0,0,0,106.06,52.22Z"/><path class="cls-44" d="M168.18,80.32l2.65,1.54c.28.17.66.27.77.6a5.32,5.32,0,0,1,.42,1.67c0,.19-.08.41-.27.4-.63,0-1,.46-1.6.61l-.51.17c-.21.06-.46.16-.58-.11a.55.55,0,0,1,.17-.72c.09-.07.19-.11.29-.17s.18-.29,0-.42-.25-.1-.35-.18a.59.59,0,0,1,.09-.92c.27-.19.57-.34.85-.52s.28-.3,0-.48c-.6-.37-1.22-.73-1.83-1.09C168.16,80.59,168,80.49,168.18,80.32Z"/><path class="cls-44" d="M114,10.48c.28-.1.17-.37.25-.6.51.15,1-.08,1.56.15a1.93,1.93,0,0,1,1,1.15.3.3,0,0,1-.21.42c-.39.15-.79.29-1.19.42a.42.42,0,0,1-.54-.27c-.1-.2-.22-.39-.3-.59-.15-.38-.41-.42-.75-.28C113.67,10.67,113.83,10.58,114,10.48Z"/><path class="cls-45" d="M21.9,58.06a48.31,48.31,0,0,1-5-3,4.5,4.5,0,0,1,1.4-.85.23.23,0,0,1,.33.12c.1.32.37.61,0,1s0,.38.23.49l2.71,1.56c.25.14.51.27.76.4s0,.18-.1.26h0A.37.37,0,0,1,21.9,58.06Z"/><path class="cls-45" d="M75.89,90.69,79,92.58A7.44,7.44,0,0,1,76.19,94a1.11,1.11,0,0,1,0-.94c.31-.18.62-.35.91-.54s.4-.38,0-.63a19.09,19.09,0,0,1-1.66-1c-.16-.11-.1-.24,0-.31A.36.36,0,0,1,75.89,90.69Z"/><path class="cls-45" d="M24.16,57l-.1.09a2.65,2.65,0,0,0-1-.66c-1.26-.75-2.53-1.46-3.8-2.19-.13-.07-.32-.11-.31-.3s.2-.22.33-.3l.93-.51c.26-.15.41-.07.51.19s.24.72-.28,1c1.31.81,2.57,1.55,3.85,2.23C24.46,56.78,24.27,56.88,24.16,57Z"/><path class="cls-46" d="M177,30.8a.55.55,0,0,1,.57.1c.85.48,1.69,1,2.53,1.47.54.32.53.5,0,.84a5.83,5.83,0,0,1-1.75.78c-.17,0-.35.1-.47-.11a.52.52,0,0,1,0-.5c.13-.33.46-.4.71-.57.78-.5.77-.47,0-1A6.48,6.48,0,0,1,177,30.8Z"/><path class="cls-45" d="M26.43,55.66l-.22.1A5.84,5.84,0,0,1,24.86,55q-1.74-1-3.46-2c-.42-.25-.42-.33,0-.57l.93-.53c.23-.13.36-.05.45.19.18.45.17.58-.2,1.12l1.26.73,2,1.17C26.07,55.28,26.33,55.38,26.43,55.66Z"/><path class="cls-46" d="M162.64,77.62a7.48,7.48,0,0,0-1.44.8c-.14.13.08.59-.39.44a.79.79,0,0,0-.52-.15,1.09,1.09,0,0,1,0-.78c.37-.38.93-.51,1.32-1-.69-.63-1.61-.9-2.34-1.54.26-.17.4,0,.54,0l3.05,1.76C163,77.45,162.81,77.54,162.64,77.62Z"/><path class="cls-46" d="M165.23,81.4a.89.89,0,0,0-.53-.15,1,1,0,0,1,0-.93,7.07,7.07,0,0,0,1.25-.8c-.71-.64-1.65-.88-2.27-1.58a6.17,6.17,0,0,1,1.77.86c.58.32,1.15.66,1.73,1,.24.35-.14.28-.26.4a6.52,6.52,0,0,0-1.34.78C165.48,81.09,165.7,81.54,165.23,81.4Z"/><path class="cls-44" d="M28.87,50.45a.5.5,0,0,1,.25-.48c.35-.2.68-.42,1-.6a.6.6,0,0,1,.78.29.51.51,0,0,1-.27.67,5.27,5.27,0,0,1-1.37.52C29,50.95,28.86,50.83,28.87,50.45Z"/><path class="cls-47" d="M161.2,79.39c.42.39.42.4,0,.68a2.07,2.07,0,0,1-.89.36,1,1,0,0,1,0-.93l.51-.29C161,79.11,161.12,79.23,161.2,79.39Z"/><path class="cls-47" d="M165.21,82.84l-.5.14a1.33,1.33,0,0,1-.05-.92,1.49,1.49,0,0,1,.57-.31c.21-.09.31,0,.38.19.41.34.41.34,0,.66C165.54,82.78,165.37,82.8,165.21,82.84Z"/><path class="cls-48" d="M11.9,54.07a8.69,8.69,0,0,1,2.73-1.56A7.21,7.21,0,0,1,11.9,54.07Z"/><path class="cls-49" d="M103.62,51.4c-.1.23-.36.25-.53.39l-.12,0c-.08.06-.16.07-.23,0,0-.81,0-.81.7-.44A1.23,1.23,0,0,0,103.62,51.4Z"/><path class="cls-50" d="M118.25,10.21a1.57,1.57,0,0,0,.27,1c.06.11.11.27-.06.33s-.24-.08-.32-.18-.07-.29-.06-.44a.36.36,0,0,0-.37-.44l.25-.25Z"/><path class="cls-51" d="M149.79,77.64c-.09.24-.34.25-.51.39l-.14,0c-.42-.15-.45-.33-.11-.81A2.16,2.16,0,0,0,149.79,77.64Z"/><path class="cls-51" d="M56.28,21a1.85,1.85,0,0,1,.69.43c-.11.27-.36.3-.57.38C56,21.59,56.22,21.29,56.28,21Z"/><path class="cls-52" d="M9.69,50.13l-.11,0c-.36-.11-.19-.4-.16-.6s.17-.18.3-.05l.52.36C10.18,50.19,9.86,50,9.69,50.13Z"/><path class="cls-53" d="M163.21,85.93c-.65,0-.68,0-.41-.8a3.36,3.36,0,0,0,.28.54.34.34,0,0,1,.52.12C163.52,86,163.33,85.85,163.21,85.93Z"/><path class="cls-9" d="M69.07,93.2a.57.57,0,0,1,.54,0c-.23.22-.48.35-.7.16s-.12-.44,0-.65C69.07,92.83,68.92,93,69.07,93.2Z"/><path class="cls-54" d="M171.25,33.19a.39.39,0,0,0-.4.4h-.13c-.05-.29-.23-.59.11-.83A.76.76,0,0,1,171.25,33.19Z"/><path class="cls-55" d="M155.86,82v-.79H156a2.87,2.87,0,0,0,.12.79Z"/><path class="cls-54" d="M171.63,33.3a1.59,1.59,0,0,1-.31.09c-.28,0-.14-.11-.07-.21A.61.61,0,0,1,171.63,33.3Z"/><path class="cls-56" d="M15.88,51.75c1.12-.77,2.34-1.37,3.5-2.08.53-.33,1.08-.63,1.62-.93a1.16,1.16,0,0,1,.64-.25c-.06.25-.27.3-.42.4l-4.33,2.51c-.28.16-.62.27-.74.63Z"/><path class="cls-57" d="M17.52,53.18a.48.48,0,0,1-.53.24A.53.53,0,0,1,17.52,53.18Z"/><path class="cls-58" d="M15.73,52.72c0,.06,0,.1-.1.12a.1.1,0,0,1-.12-.1.13.13,0,0,1,.06-.1C15.63,52.6,15.7,52.62,15.73,52.72Z"/><path class="cls-59" d="M154.89,79.61A1.13,1.13,0,0,1,154,80,1,1,0,0,1,154.89,79.61Z"/><path class="cls-60" d="M152.81,79.12a.13.13,0,0,1-.1.15c-.07,0-.13,0-.13-.09a.15.15,0,0,1,.07-.1A.11.11,0,0,1,152.81,79.12Z"/><path class="cls-50" d="M118.66,10v.12a.62.62,0,0,1-.41.13A1.08,1.08,0,0,1,118.66,10Z"/><path class="cls-61" d="M62,23.42c-.09.19-.26.2-.43.22C61.76,23.45,61.76,23.45,62,23.42Z"/><path class="cls-57" d="M74.15,95.27a.41.41,0,0,1,.56-.21A.49.49,0,0,1,74.15,95.27Z"/><path class="cls-62" d="M168.51,87.63a.2.2,0,0,1-.19.13c-.07,0-.14,0-.11-.1a.25.25,0,0,1,.15-.1C168.42,87.54,168.49,87.54,168.51,87.63Z"/><path class="cls-63" d="M166.44,87s.09,0,.08.06-.06.11-.13.12-.09,0-.09-.07S166.36,87,166.44,87Z"/><path class="cls-64" d="M176,35.42c.12-.25.29-.26.52-.33C176.41,35.4,176.21,35.38,176,35.42Z"/><path class="cls-65" d="M174.56,34.67a.2.2,0,0,1-.2.13c-.07,0-.12,0-.1-.12a.18.18,0,0,1,.19-.13C174.53,34.55,174.57,34.58,174.56,34.67Z"/><path class="cls-66" d="M161.62,83.65c-.09.19-.26.2-.43.23C161.34,83.68,161.34,83.68,161.62,83.65Z"/><path class="cls-65" d="M159.7,83.13a.21.21,0,0,1-.2.13c-.08,0-.12,0-.1-.12a.18.18,0,0,1,.2-.13C159.67,83,159.71,83,159.7,83.13Z"/><path class="cls-67" d="M108.64,53.4a.53.53,0,0,1-.58.22A.51.51,0,0,1,108.64,53.4Z"/><path class="cls-60" d="M106.54,52.79s.07.06.08.09a.12.12,0,0,1-.12.13c-.08,0-.13,0-.11-.12A.14.14,0,0,1,106.54,52.79Z"/></g><line class="cls-68" x1="102.39" y1="54.51" x2="105.67" y2="52.61"/><line class="cls-68" x1="114.03" y1="14.76" x2="114.32" y2="14.93"/><line class="cls-68" x1="0.09" y1="44.11" x2="9.84" y2="44.9"/><line class="cls-68" x1="9.84" y1="44.9" x2="19.59" y2="55.37"/><line class="cls-69" x1="19.61" y1="64.67" x2="19.61" y2="55.67"/><line class="cls-69" x1="68.61" y1="100.67" x2="68.61" y2="95.67"/><line class="cls-68" x1="59.9" y1="85.03" x2="68.66" y2="93.8"/><line class="cls-69" x1="68.61" y1="95.67" x2="68.61" y2="93.67"/><line class="cls-69" x1="103.61" y1="59.67" x2="103.61" y2="55.67"/><line class="cls-68" x1="95.22" y1="46.62" x2="103.91" y2="51.64"/><line class="cls-68" x1="138.58" y1="73.56" x2="149.75" y2="80.01"/><line class="cls-69" x1="160.61" y1="95.67" x2="160.61" y2="89.67"/><line class="cls-68" x1="149.75" y1="80.01" x2="160.92" y2="86.47"/><line class="cls-69" x1="160.61" y1="89.67" x2="160.61" y2="86.67"/><line class="cls-69" x1="57.61" y1="29.67" x2="57.61" y2="24.67"/><line class="cls-68" x1="48.5" y1="17.78" x2="57.27" y2="19.13"/><line class="cls-69" x1="170.61" y1="40.67" x2="170.61" y2="34.67"/><line class="cls-68" x1="162.34" y1="30.01" x2="166.48" y2="28.84"/><line class="cls-68" x1="166.48" y1="28.84" x2="170.63" y2="34.79"/><line class="cls-69" x1="114.61" y1="20.67" x2="114.61" y2="15.67"/><line class="cls-68" x1="105.7" y1="7.17" x2="114.39" y2="12.19"/><line class="cls-69" x1="57.61" y1="18.67" x2="57.61" y2="24.67"/><line class="cls-69" x1="103.61" y1="55.67" x2="103.61" y2="51.67"/></g></g></g></svg>