<svg xmlns="http://www.w3.org/2000/svg" viewBox="0 0 187.39 101.61"><defs><style>.cls-1{isolation:isolate;}.cls-2{opacity:0.29;mix-blend-mode:multiply;}.cls-3{fill:#a6a6a6;}.cls-4{fill:#a7a7a7;}</style></defs><title>Asset 20</title><g class="cls-1"><g id="Layer_2" data-name="Layer 2"><g id="menu_bar" data-name="menu bar"><g class="cls-2"><path class="cls-3" d="M70.87,17.46a2.52,2.52,0,0,0,.08-1c0-3.41,0-6.83,0-10.24,0-.37-.12-.79.16-1.08a4.31,4.31,0,0,1,1.38-.85c.2-.09.34,0,.36.23s0,.46,0,.69a47.29,47.29,0,0,0,.12,4.9,1.56,1.56,0,0,0,.4,1,5,5,0,0,1,1.52,4.43,22.75,22.75,0,0,0,0,2.92,1,1,0,0,1-.55,1c-1,.54-1.94,1.11-2.91,1.68a.93.93,0,0,1-1.05,0c-1.6-1-1.33-.75-2.76.06-2.7,1.52-5.37,3.09-8.05,4.64-.15.09-.29.18-.45.26s-.43,0-.45-.28c0-.14,0-.29,0-.43,0-2.24,0-4.47,0-6.71a1.38,1.38,0,0,1,.78-1.38c3-1.68,5.91-3.4,8.87-5.1.69-.39.77-.36,1,.41.39,1.32.77,2.64,1.16,4A2.15,2.15,0,0,0,70.87,17.46Z"/><path class="cls-3" d="M107.55,54.78v-1c0-2.15-.11-2.15,1-4,1.4-2.41,2.72-4.82,4.12-7.22A2.49,2.49,0,0,0,113,41.1c0-.2,0-.41,0-.6a1.57,1.57,0,0,1,1.12-1.86c.63-.27.72-.24.74.48a23.85,23.85,0,0,1,0,2.67A1.68,1.68,0,0,0,116,43.66c.75.35,1.44.83,2.17,1.23a.93.93,0,0,1,.52.91c0,1.72,0,3.44,0,5.16a1.19,1.19,0,0,1-.76,1.13l-5.66,3.27-4,2.28c-.12.07-.24.15-.37.22-.46.22-.57.18-.58-.32,0-.92,0-1.75,0-2.75Z"/><path class="cls-3" d="M187.38,58.75c0,.83,0,1.66,0,2.5a1.1,1.1,0,0,1-.62,1.11c-3.26,1.86-6.51,3.75-9.77,5.63a3,3,0,0,1-.38.19c-.23.09-.4,0-.43-.24a4,4,0,0,1,0-.51c0-1.61,0-3.21,0-4.82a2.49,2.49,0,0,1,.36-1.3c1.57-2.7,3.12-5.42,4.71-8.11a3.53,3.53,0,0,0,.6-2.2,3.94,3.94,0,0,1,0-.43,1.63,1.63,0,0,1,1.34-1.72c.25-.07.39,0,.43.27a4.68,4.68,0,0,1,0,.6c0,.86,0,1.72,0,2.58a1.44,1.44,0,0,0,.88,1.5c.74.38,1.43.86,2.17,1.23a1.23,1.23,0,0,1,.73,1.31C187.35,57.14,187.38,57.94,187.38,58.75Z"/><path class="cls-3" d="M136.24,97.33c0-1.15,0-2.3,0-3.44a2.17,2.17,0,0,1,.3-1.15q2.08-3.57,4.14-7.15l.22-.37a.46.46,0,0,1,.72-.19l1.2.68c.87.5,1.73,1,2.61,1.5a1,1,0,0,1,.62,1c0,2.44,0,4.88,0,7.32a1,1,0,0,1-.57,1l-8.5,4.9c-.57.33-.7.26-.71-.38C136.23,99.8,136.24,98.56,136.24,97.33Z"/><path class="cls-3" d="M54.06,83.78c0,1,0,1.64,0,2.47a.91.91,0,0,1-.52.89q-3.73,2.14-7.45,4.3a.91.91,0,0,1-1,0c-1.43-.85-2.88-1.67-4.32-2.5a2.63,2.63,0,0,1-.36-.24c-.21-.17-.18-.34,0-.49s.29-.18.44-.27l12.22-7c1-.56,1-.52,1,.63,0,.75,0,1.26,0,2.26Z"/><path class="cls-3" d="M150.44,17.78c0-.24.25-.3.41-.39l8.26-4.76.38-.21c.28-.14.45,0,.46.26s0,.86,0,1.29c0,1.29,0,2.58,0,3.87a1.17,1.17,0,0,1-.65,1.18c-2.37,1.34-4.71,2.72-7.08,4.07-.58.33-.72.25-.73-.48,0-1.15,0-2.29,0-3.44S151.5,18,150.44,17.78Z"/><path class="cls-3" d="M20.67,39.91c0,.77,0,1.55,0,2.32a1.27,1.27,0,0,1-.74,1.31c-2.05,1.15-4.08,2.34-6.12,3.51-.35.2-.69.41-1,.59s-.49.06-.52-.3c0-.14,0-.29,0-.43,0-1.55,0-3.1,0-4.65a1.19,1.19,0,0,1,.65-1.19c2.34-1.33,4.67-2.69,7-4l.31-.16c.28-.13.44,0,.46.27s0,.34,0,.52Q20.67,38.79,20.67,39.91Z"/><path class="cls-3" d="M15.12,37.46a4.86,4.86,0,0,1-2.43,1.09c-2.6.23-5.19.52-7.78.79-1.31.13-2.62.29-3.93.4-.87.07-1,0-1-.88s0-2,0-2.92a1.2,1.2,0,0,1,.75-1.3c.18-.08.34-.21.52-.3.44-.22.49-.19.61.31s.19.65.8.59l4-.42a2.16,2.16,0,0,1,.93.06l7.12,2.31A.49.49,0,0,1,15.12,37.46Z"/><path class="cls-3" d="M131.75,18.78c0-1,0-1.77,0-2.6a1.07,1.07,0,0,1,.55-1c1.52-.86,3-1.78,4.55-2.64.49-.28.55-.27.87.26.71,1.21,1.41,2.42,2.11,3.64.34.6.33.66-.26,1l-4.77,2.75c-.82.47-1.63,1-2.46,1.41-.44.24-.56.28-.57-.23,0-.89,0-1.56,0-2.56Z"/><path class="cls-3" d="M137.36,82.35a.34.34,0,0,1-.37,0l-3.43-2c-.37-.21-.53-.49-.19-.81s0-.84.53-.88.62.27.92.43c.1.05.2.12.3.17s.39,0,.41-.23,0-.4,0-.6c0-1.23,0-2.46,0-3.7a1.15,1.15,0,0,1,.74-1.29c.34-.13.65-.59,1-.41s.17.73.17,1.11c0,2.43,0,4.87,0,7.31A2,2,0,0,1,137.36,82.35Z"/><path class="cls-3" d="M95.77,45.16c-.06.21-.22.28-.37.36l-4.17,2.41a3.31,3.31,0,0,1-.38.2c-.23.1-.39,0-.42-.24a2.26,2.26,0,0,1,0-.26c0-1.63,0-3.27,0-4.9,0-.67.11-.74.69-.41,1.42.8,2.83,1.63,4.25,2.45C95.52,44.87,95.72,45,95.77,45.16Z"/><path class="cls-3" d="M164.6,55.5c0,.05-.08.14-.15.18-1.54.89-3.07,1.79-4.61,2.67-.45.25-.57.19-.57-.32q0-2.54,0-5.07c0-.47.15-.58.5-.39,1.62.91,3.26,1.79,4.81,2.83C164.6,55.4,164.59,55.45,164.6,55.5Z"/><path class="cls-4" d="M50.27,71.88a6.67,6.67,0,0,0,.22,2.42c.09.19,0,.34-.24.37-.45.06-.91.12-1.36.16s-.48-.17-.48-.47q0-1.93,0-3.86c0-.41.32-.6.62-.75s.66-.63,1.05-.4.16.68.17,1S50.27,71.31,50.27,71.88Z"/><path class="cls-4" d="M152.41,2.06a3.76,3.76,0,0,0,0-.43,1,1,0,0,1,.67-1.15c.36-.15.69-.63,1-.43s.13.73.16,1.12a4.26,4.26,0,0,0,.19,1.6c.13.28,0,.43-.29.47l-.34.05C152.44,3.53,152.41,3.51,152.41,2.06Z"/></g></g></g></g></svg>