<svg xmlns="http://www.w3.org/2000/svg" viewBox="0 0 150.39 102.15"><defs><style>.cls-1{isolation:isolate;}.cls-2{fill:#f4f4f4;}.cls-3{fill:#636363;}.cls-4{fill:#ccc;}.cls-5{fill:#e5e5e5;}.cls-6{fill:#d5d5d5;}.cls-7{fill:silver;}.cls-8{fill:#c8c8c8;}.cls-9{fill:#ececec;}.cls-10{fill:#f2f9f9;}.cls-11{fill:#d9d635;}.cls-12{fill:#fffb43;}.cls-13{fill:#b3b129;}.cls-14{fill:#fbf73e;}.cls-15{fill:#fffb4c;}.cls-16{fill:#fffb47;}.cls-17{fill:#fffb52;}.cls-18{fill:#fffb51;}.cls-19{fill:#fffb45;}.cls-20{fill:#fffb44;}.cls-21{fill:#e0dd36;}.cls-22{fill:#fffb4f;}.cls-23{fill:#e2df37;}.cls-24{fill:#fffb4b;}.cls-25{fill:#9b9b9b;}.cls-26{fill:#818181;}.cls-27{fill:#666;}.cls-28{fill:#fffb49;}.cls-29{fill:#fffb4e;}.cls-30{fill:#fffb40;}.cls-31{fill:#e6e338;}.cls-32{fill:#c3c02e;}.cls-33{fill:#fffb48;}.cls-34{fill:#fffb3f;}.cls-35{fill:#e7e438;}.cls-36{fill:#c3c02d;}.cls-37{fill:#9c9c9c;}.cls-38{fill:#d9d735;}.cls-39{fill:#efec3b;}.cls-40{fill:#b7b52b;}.cls-41{fill:#f5f23c;}.cls-42{fill:#c9c630;}.cls-43{fill:#fffb42;}.cls-44{fill:#e8e538;}.cls-45{fill:#e9e638;}.cls-46{fill:#dad735;}.cls-47{fill:#d3d032;}.cls-48{fill:#dedb36;}.cls-49{fill:#fffb50;}.cls-50{fill:#bab72c;}.cls-51{fill:#d5d233;}.cls-52{fill:#ccc931;}.cls-53{fill:#e9e639;}.cls-54{fill:#757575;}.cls-55{fill:#797979;}.cls-56{fill:#bdbb2c;}.cls-57{fill:#eeeb3b;}.cls-58{fill:#f5f23d;}.cls-59{fill:#f3ef3c;}.cls-60{fill:#cfcd31;}.cls-61{fill:#fdfa3e;}.cls-62{fill:#c7c430;}.cls-63{fill:#faf73e;}.cls-64{fill:#f9f63e;}.cls-65{fill:#dcd935;}.cls-66{fill:#6f6f6f;}.cls-67{fill:#7c7c7c;}.cls-68{fill:#f6f33d;}.cls-69{fill:#d2cf32;}.cls-70{fill:#c1be2d;}.cls-71{fill:#f2ef3c;}.cls-72{fill:#cfcc31;}.cls-73{fill:#bbb82c;}.cls-74{fill:#fffb58;}.cls-75{fill:#c8c530;}.cls-76{fill:#fffb59;}.cls-77{fill:#595959;}.cls-78{fill:#828282;}.cls-79{fill:#c9c730;}.cls-80{fill:#bebc2c;}.cls-81{fill:#fffb54;}.cls-82{fill:#fffb57;}.cls-83{opacity:0.54;mix-blend-mode:multiply;}.cls-84{fill:#a6a6a6;}.cls-85{fill:#a7a7a7;}.cls-86{fill:#a8a8a8;}.cls-87{fill:#b3b3b3;}.cls-88{fill:#afafaf;}.cls-89{fill:#b5b5b5;}.cls-90{fill:#b0b0b0;}.cls-91{fill:#bbb;}.cls-92{fill:#b1b1b1;}.cls-93{fill:#b2b2b2;}.cls-94{fill:#d3d3d3;}.cls-95{fill:#c3c3c3;}.cls-96{fill:#c9c9c9;}.cls-97{fill:#bebebe;}.cls-98,.cls-99{fill:none;stroke:#fff;stroke-miterlimit:10;}.cls-99{stroke-width:0.49px;}</style></defs><title>Asset 23</title><g class="cls-1"><g id="Layer_2" data-name="Layer 2"><g id="menu_bar" data-name="menu bar"><path class="cls-2" d="M91.86,36.16l.2-.09v0l.44-.25,5.06,2.92,2.61,1.51-1,.58-7.68-4.43Zm0,0"/><path class="cls-3" d="M92.06,36.07l-.25.09-.42.21v.12l.52,1.36-.44.2-.14.07-.43-1.55.11,0,0,0,0-.05,0-.07V36.1l0-.1,0-.1,0-.1-.15-.16h0v-.12l-.31-.8,1.09-.47L92.05,36Zm0,0"/><path class="cls-2" d="M91.85,37.85l-.47-1.36v-.12l8,4.43v3.59l-8-4.43v-1.9Zm.1,0"/><path class="cls-2" d="M67.66,50.18l.07-.12.12-.1.16-.08.19-.05.21,0h.21l.2,0,.15.06h0l.09.06,0,0,.09.11v0l0,.08,0,.12-.07.12-.12.1-.16.08-.19.05-.21,0h-.21l-.2,0-.18-.07-.14-.09-.09-.11,0-.12Zm0,0"/><path class="cls-4" d="M69.06,50.59l.12-.1V51l-.12.1Zm0,0"/><path class="cls-5" d="M68.5,50.74l.21,0v.51l-.21,0Zm0,0"/><path class="cls-6" d="M68.5,51.26l.21,0,.19-.05.16-.08.12-.1.13-.12.08-.12v-.38l.09.06.17,0h.2l.2,0,.19-.05.16-.08.12-.1,0-.12L70.39,50v-.38l.26.06.25,0h.24l.2,0-1.12,2.64-1.82,2.89v0L63.6,52.57l-1.72.95-.94-2.74-.36-.43-1-3,0-.66-.44-1.33,1.53.75.71-.2,1.14.58.15.27V47l0,.21,0,.23.07.22,1.05,3h-.05l-.19.05-.16.08-.12.1,0,.12.08.12v.51l-.05.12,0,.11.12.09.16.07.19,0h.21l.21,0,.19-.05.16-.08.12-.1.06-.11.19-.05,0,0-.12.1-.26.12-.2.12v.51l.22.12.18.11.18.09.2.07.21,0h.25L66,53l1.3-.37L67.19,52l.18,0,.19-.05.16-.08.12-.1.3-.12.24-.12v-.38l-.08.06.09,0Zm0,0"/><path class="cls-7" d="M68.71,51.23v-.51l.19-.05v.51Zm0,0"/><path class="cls-2" d="M68.5,50.74v.51h-.21v-.51Zm0,0"/><path class="cls-4" d="M68.9,51.18v-.51l.16-.08v.51Zm0,0"/><path class="cls-4" d="M69.25,50.88l-.07.12v-.51l.07-.12Zm0,0"/><path class="cls-4" d="M69.25,50.88v-.51l0-.12v.51Zm0,0"/><path class="cls-2" d="M68.28,51.25l-.2,0v-.51l.2,0Zm0,0"/><path class="cls-2" d="M68.08,51.21l-.15-.06V51l0-.08v-.31l.18.07Zm0,0"/><path class="cls-2" d="M69.23,50.13,69.14,50l0,0v-.23l.14.09v.27Zm0,0"/><path class="cls-2" d="M67.68,50.42l.09.11v.23l-.09-.06Zm0,0"/><path class="cls-2" d="M67.77,50.53l.14.09v.27l-.09-.11,0,0Zm0,0"/><path class="cls-2" d="M67.64,50.68V50.3l0,.12v.28h0Zm0,0"/><path class="cls-2" d="M64.77,51.84l.07-.12.12-.1,0,0,.18-.05.17.83-.14,0L65,52.29l-.14-.09-.09-.11,0-.12Zm0,0"/><path class="cls-5" d="M65.64,52.92h0Zm0,0"/><path class="cls-2" d="M65.61,52.91H65.4v-.23l0,.18Zm0,0"/><path class="cls-2" d="M65.4,52.91l-.2,0v-.51l.14,0,.06.3Zm0,0"/><path class="cls-2" d="M65.2,52.87,65,52.8v-.51l.18.07Zm0,0"/><path class="cls-2" d="M65,52.8l-.14-.09V52.2l.14.09Zm0,0"/><path class="cls-2" d="M64.89,52.71l-.09-.11v-.51l.09.11Zm0,0"/><path class="cls-2" d="M64.79,52.6l0-.12V52l0,.12Zm0,0"/><path class="cls-4" d="M50.26,58.72v1.11l-.07.32V59Zm0,0"/><path class="cls-4" d="M50.19,60.15l.07-.32v1.11l-.07.32Zm0,0"/><path class="cls-4" d="M50.19,59v1.11l-.22.3V59.34Zm0,0"/><path class="cls-4" d="M50,59.34v1.11l-.35.26V59.6Zm0,0"/><path class="cls-4" d="M50,59.34l-.35.26V58.5l.35-.26Zm0,0"/><path class="cls-4" d="M49.63,59.6v1.11l-.45.2V59.8Zm0,0"/><path class="cls-4" d="M49.63,60.71l.35-.26v1.11l-.35.26Zm0,0"/><path class="cls-4" d="M50,60.45l.22-.3v1.11l-.22.3Zm0,0"/><path class="cls-4" d="M49.18,60.91l.45-.2v1.11l-.45.2Zm0,0"/><path class="cls-4" d="M57.18,54.73v1.09l-.06.17v-.94Zm0,0"/><path class="cls-4" d="M57.1,55.05v1.11l-.22.3V55.35Zm0,0"/><path class="cls-4" d="M57.1,55.05l-.22.3V54.25l.22-.3Zm0,0"/><path class="cls-4" d="M56.88,55.35v1.11l-.35.26V55.61Zm0,0"/><path class="cls-4" d="M56.54,56.72l.35-.26v1.11l-.35.26Zm0,0"/><path class="cls-4" d="M56.54,55.61v1.11l-.45.2V55.81Zm0,0"/><path class="cls-8" d="M56.09,55.81v1.11l-.52.13V55.94Zm0,0"/><path class="cls-8" d="M56.09,55.81l-.52.13V54.83l.52-.13Zm0,0"/><path class="cls-9" d="M55.57,55.94V57l-.56,0V56Zm0,0"/><path class="cls-8" d="M55.57,57l.52-.13V58l-.52.13Zm0,0"/><path class="cls-4" d="M56.54,55.61l-.45.2V54.7l.45-.2Zm0,0"/><path class="cls-4" d="M56.09,56.92l.45-.2v1.11l-.45.2Zm0,0"/><path class="cls-4" d="M56.88,56.46l.22-.3v1.11l-.22.3Zm0,0"/><path class="cls-4" d="M56.88,55.35l-.35.26V54.51l.35-.26Zm0,0"/><path class="cls-4" d="M50.26,58.72l-.07.32V57.93l.07-.32Zm0,0"/><path class="cls-9" d="M55,57.09l.56,0v1.11l-.56,0Zm0,0"/><path class="cls-4" d="M57.1,56.16v1l0,.07Zm0,0"/><path class="cls-8" d="M49.18,59.8v1.11l-.52.13V59.93Zm0,0"/><path class="cls-8" d="M48.66,61l.52-.13V62l-.33.08-.2-.11Zm0,0"/><path class="cls-8" d="M49.18,59.8l-.52.13V58.82l.52-.13Zm0,0"/><path class="cls-9" d="M48.66,59.93V61l-.56,0V60Zm0,0"/><path class="cls-9" d="M48.09,61.08l.56,0V62l-.56-.32Zm0,0"/><path class="cls-2" d="M48.09,60v1.11l-.56,0V59.93Zm0,0"/><path class="cls-2" d="M47.53,59.93V61L47,60.91V59.8Zm0,0"/><path class="cls-2" d="M47,59.8v1.11l-.45-.2V59.6Zm0,0"/><path class="cls-2" d="M47.53,59.93,47,59.8V58.69l.52.13Zm0,0"/><path class="cls-2" d="M47,60.91l.52.13v.71L47,62h0Zm0,0"/><path class="cls-2" d="M47.53,61l.56,0v.58l-.2-.12-.36.21Zm0,0"/><path class="cls-2" d="M47,59.8l-.45-.2V58.5l.45.2Zm0,0"/><path class="cls-2" d="M46.56,59.6v1.11l-.35-.26V59.34Zm0,0"/><path class="cls-2" d="M46.21,59.34v1.11l-.22-.3V59Zm0,0"/><path class="cls-2" d="M46,59v1.11l-.07-.32V58.72Zm0,0"/><path class="cls-2" d="M46.56,60.71l.45.2V62l-.45-.2Zm0,0"/><path class="cls-2" d="M46.21,60.45l.35.26v1.11l-.35-.26Zm0,0"/><path class="cls-2" d="M45.92,59.83l.07.32v1.11l-.07-.32Zm0,0"/><path class="cls-4" d="M57.18,54.73l-.07.32V53.94l.07-.32Zm0,0"/><path class="cls-4" d="M50.19,59l-.22.3V58.24l.22-.3Zm0,0"/><path class="cls-4" d="M49.63,59.6l-.45.2V58.69l.45-.2Zm0,0"/><path class="cls-2" d="M55,56v1.11l-.56,0V55.94Zm0,0"/><path class="cls-2" d="M55,56l-.56,0V54.83l.56,0Zm0,0"/><path class="cls-2" d="M54.44,55.94V57l-.52-.13V55.81Zm0,0"/><path class="cls-2" d="M53.92,55.81v1.11l-.45-.2V55.61Zm0,0"/><path class="cls-2" d="M54.44,55.94l-.52-.13V54.7l.52.13Zm0,0"/><path class="cls-2" d="M53.92,56.92l.52.13v1.11L53.92,58Zm0,0"/><path class="cls-2" d="M53.47,55.61v1.11l-.35-.26V55.35Zm0,0"/><path class="cls-2" d="M53.12,55.35v1.11l-.22-.3V55.05Zm0,0"/><path class="cls-2" d="M53.12,55.35l-.22-.3V53.94l.22.3Zm0,0"/><path class="cls-2" d="M52.91,55.05v1.11l-.07-.32V54.73Zm0,0"/><path class="cls-2" d="M52.91,56.16l.22.3v1.11l-.22-.3Zm0,0"/><path class="cls-2" d="M54.44,57l.56,0V58.2l-.56,0Zm0,0"/><path class="cls-2" d="M53.47,56.72l.45.2V58l-.45-.2Zm0,0"/><path class="cls-2" d="M53.12,56.46l.35.26v1.11l-.35-.26Zm0,0"/><path class="cls-2" d="M52.83,55.84l.07.32v1.11l-.07-.32Zm0,0"/><path class="cls-2" d="M53.92,55.81l-.45-.2V54.51l.45.2Zm0,0"/><path class="cls-2" d="M52.91,55.05l-.07-.32V53.62l.07.32Zm0,0"/><path class="cls-9" d="M48.66,59.93l-.56,0V58.86l.56,0Zm0,0"/><path class="cls-2" d="M46,59l-.07-.32V57.61l.07.32Zm0,0"/><path class="cls-2" d="M46.21,59.34,46,59V57.93l.22.3Zm0,0"/><path class="cls-2" d="M46.56,59.6l-.35-.26V58.24l.35.26Zm0,0"/><path class="cls-2" d="M48.09,60l-.56,0V58.82l.56,0Zm0,0"/><path class="cls-2" d="M46,60.15l.22.3v1.11l-.22-.3Zm0,0"/><path class="cls-2" d="M53.47,55.61l-.35-.26V54.25l.35.26Zm0,0"/><path class="cls-9" d="M55.57,55.94,55,56V54.87l.56,0Zm0,0"/><path class="cls-4" d="M46.27,56.41v.53l-.06,0,0,0v-.27Zm0,0"/><path class="cls-4" d="M46.2,56.73V57l-.2.28,0,.07V57Zm0,0"/><path class="cls-4" d="M46,57v.32l-.06.25v.58l-.29.22V57.3Zm0,0"/><path class="cls-4" d="M46,57l-.35.26V56.19l.35-.26Zm0,0"/><path class="cls-4" d="M45.63,57.3v1.11l-.45.2V57.5Zm0,0"/><path class="cls-4" d="M45.63,58.41l.29-.22V59.3l-.29.22Zm0,0"/><path class="cls-4" d="M45.18,58.6l.45-.2v1.11l-.45.2Zm0,0"/><path class="cls-4" d="M53.18,52.42v.53l-.06,0,0,0v-.27Zm0,0"/><path class="cls-4" d="M53.11,52.74V53l-.2.28,0,.07V53Zm0,0"/><path class="cls-4" d="M53.11,52.74l-.22.3V51.94l.22-.3Zm0,0"/><path class="cls-4" d="M52.89,53v.32l-.06.25v.58l-.29.22V53.31Zm0,0"/><path class="cls-4" d="M52.54,54.42l.29-.22v1.11l-.29.22Zm0,0"/><path class="cls-4" d="M52.54,53.31v1.11l-.45.2V53.51Zm0,0"/><path class="cls-8" d="M52.1,53.51v1.11l-.52.13V53.63Zm0,0"/><path class="cls-8" d="M52.1,53.51l-.52.13V52.52l.52-.13Zm0,0"/><path class="cls-9" d="M51.57,53.63v1.11l-.56,0V53.67Zm0,0"/><path class="cls-8" d="M51.57,54.74l.52-.13v1.11l-.52.13Zm0,0"/><path class="cls-4" d="M52.54,53.31l-.45.2V52.4l.45-.2Zm0,0"/><path class="cls-4" d="M52.1,54.61l.45-.2v1.11l-.45.2Zm0,0"/><path class="cls-2" d="M48.84,53.53V52.42l.07.32v1.11Zm0,0"/><path class="cls-2" d="M48.91,53.85V52.74l.22.3v1.11Zm0,0"/><path class="cls-2" d="M49.13,53l-.22-.3V51.64l.22.3Zm0,0"/><path class="cls-2" d="M48.91,53.85l.22.3v1.11l-.22-.3Zm0,0"/><path class="cls-2" d="M49.13,54.16V53l.35.26v1.11Zm0,0"/><path class="cls-2" d="M49.47,54.42V53.31l.45.2v1.11Zm0,0"/><path class="cls-2" d="M49.92,54.61V53.51l.52.13v1.11Zm0,0"/><path class="cls-2" d="M50.45,53.63l-.52-.13V52.4l.52.13Zm0,0"/><path class="cls-2" d="M49.92,54.61l.52.13v1.11l-.52-.13Zm0,0"/><path class="cls-2" d="M50.45,54.74V53.63l.56,0v1.11Zm0,0"/><path class="cls-2" d="M51,53.67l-.56,0V52.52l.56,0Zm0,0"/><path class="cls-4" d="M52.89,53l-.35.26V52.2l.35-.26Zm0,0"/><path class="cls-4" d="M46.27,56.41l-.07.32V55.63l.07-.32Zm0,0"/><path class="cls-9" d="M51,54.78l.56,0v1.11l-.56,0Zm0,0"/><path class="cls-2" d="M50.45,54.74l.56,0v1.11l-.56,0Zm0,0"/><path class="cls-2" d="M49.47,54.42l.45.2v1.11l-.45-.2Zm0,0"/><path class="cls-2" d="M49.13,54.16l.35.26v1.11l-.35-.26Zm0,0"/><path class="cls-2" d="M48.84,53.53l.07.32V55l-.07-.32Zm0,0"/><path class="cls-2" d="M41.93,57.52V56.41l.07.32v1.11Zm0,0"/><path class="cls-2" d="M42,57.84V56.73l.22.3v1.11Zm0,0"/><path class="cls-2" d="M42.22,58.15V57l.35.26v1.11Zm0,0"/><path class="cls-2" d="M42.56,58.41V57.3l.45.2V58.6Zm0,0"/><path class="cls-2" d="M43,58.6V57.5l.52.13v1.11Zm0,0"/><path class="cls-2" d="M43.54,57.62,43,57.5V56.39l.52.13Zm0,0"/><path class="cls-2" d="M43,58.6l.52.13v1.11L43,59.71Zm0,0"/><path class="cls-2" d="M43.54,58.73V57.62l.56,0v1.11Zm0,0"/><path class="cls-9" d="M44.1,58.77V57.66l.56,0v1.11Zm0,0"/><path class="cls-9" d="M44.1,58.77l.56,0v1.11l-.56,0Zm0,0"/><path class="cls-2" d="M43.54,58.73l.56,0v1.11l-.56,0Zm0,0"/><path class="cls-2" d="M43,57.5l-.45-.2V56.19l.45.2Zm0,0"/><path class="cls-2" d="M42.56,58.41l.45.2v1.11l-.45-.2Zm0,0"/><path class="cls-2" d="M42.22,58.15l.35.26v1.11l-.35-.26Zm0,0"/><path class="cls-2" d="M41.93,57.52l.07.32V59l-.07-.32Zm0,0"/><path class="cls-8" d="M44.66,58.73V57.62l.52-.13V58.6Zm0,0"/><path class="cls-8" d="M44.66,58.73l.52-.13v1.11l-.52.13Zm0,0"/><path class="cls-8" d="M45.18,57.5l-.52.13V56.51l.52-.13Zm0,0"/><path class="cls-2" d="M49.92,53.51l-.45-.2V52.2l.45.2Zm0,0"/><path class="cls-4" d="M53.18,52.42l-.07.32V51.64l.07-.32Zm0,0"/><path class="cls-4" d="M46.2,56.73,46,57V55.93l.22-.3Zm0,0"/><path class="cls-2" d="M48.91,52.74l-.07-.32V51.31l.07.32Zm0,0"/><path class="cls-4" d="M45.63,57.3l-.45.2V56.39l.45-.2Zm0,0"/><path class="cls-9" d="M44.66,57.62l-.56,0V56.56l.56,0Zm0,0"/><path class="cls-2" d="M42,56.73l-.07-.32V55.3l.07.32Zm0,0"/><path class="cls-2" d="M42.22,57l-.22-.3V55.63l.22.3Zm0,0"/><path class="cls-2" d="M42.56,57.3,42.22,57V55.93l.35.26Zm0,0"/><path class="cls-2" d="M44.1,57.66l-.56,0V56.51l.56,0Zm0,0"/><path class="cls-2" d="M42,57.84l.22.3v1.11L42,59Zm0,0"/><path class="cls-2" d="M49.47,53.31,49.13,53V51.94l.35.26Zm0,0"/><path class="cls-9" d="M51.57,53.63l-.56,0V52.57l.56,0Zm0,0"/><path class="cls-2" d="M82.39,46.85v0l8,4.43v3.11l-.26-.11-1.57-.89L87.88,53l-.8-.46-1.53-3.91Zm.19,0"/><path class="cls-2" d="M87.86,53l.67.38-1.29.74v-.77Zm0,0"/><path class="cls-2" d="M90.26,51.27l-7.68-4.43,1.22-1.76.37-.53.41-.59h0l7.68,4.43Zm0,0"/><path class="cls-4" d="M99.39,40.8l.89-.58,1.14,3.26-.18.12.15,1v3.11l-.18.22,0-.43-.1-.34-.22-.23-.31-.1-.36,0-.39.17-.4.29-.37.39-.32.47-.24.51-.15.52,0,.25,0,.24-3.84,2.22-.05-.43-.15-.34L94,50.94l-.32-.1-.37,0-.4.17-.4.29-.37.39-.32.47-.24.51-.15.52,0,.25,0,.24-1.09.67V51.27l2-2.89,7-4Zm-.22,0"/><path class="cls-2" d="M99.17,44.39l-6.91,4-7.68-4.43L88.3,41.8h0L91.49,40Zm0,0"/><path class="cls-4" d="M91.47,53.22l.15-.52.24-.51.32-.47.37-.39.4-.29,1.34.78-2.85,1.65Zm0,0"/><path class="cls-2" d="M92.95,51l.4-.17,1.09.63.05.43-.19-.11Zm0,0"/><path class="cls-2" d="M94.43,51.5l-1.09-.63.37,0,.56.32Zm0,0"/><path class="cls-9" d="M94.28,51.16l-.56-.32.32.1Zm0,0"/><path class="cls-4" d="M98.38,49.23l.15-.52.24-.51.32-.47.37-.39.4-.29,1.34.78-2.85,1.65Zm0,0"/><path class="cls-2" d="M99.86,47.06l.4-.17,1.09.63.05.43-.19-.11Zm0,0"/><path class="cls-2" d="M101.34,47.51l-1.09-.63.37,0,.56.32Zm0,0"/><path class="cls-9" d="M101.19,47.17l-.56-.32.32.1Zm0,0"/><path class="cls-6" d="M91.39,38.05V40l-3,1.84v-.17l-.27-.53-.48-.48L87,40.22l-.82-.28-.18,0-1.58-3.39-.46-.39-1.33-2.89,0-.65L82,31.32l2.08.55.78-.34,1.72.48.54.67.32.09,0,.12.09.21,1.68,3.34,0,.07,0,.07,0,.07,0,.06,0,.06,0,.05,0,0,0,0,0,0,0,0,0,0,0,0h.11l.38-.16L90.55,38l.73.08Zm.1,0"/><path class="cls-2" d="M67.43,48.51l.07-.12.12-.1.16-.08.19-.05.21,0h.21l.2,0,.15.06h0l.09.06,0,0,.09.11v0l0,.08,0,.12-.07.12-.12.1-.16.08-.19.05-.21,0h-.21l-.2,0L67.69,49l-.14-.09-.09-.11,0-.12Zm0,0"/><path class="cls-4" d="M68.84,48.92l.12-.1v.51l-.12.1Zm0,0"/><path class="cls-5" d="M68.48,49.57l-.21,0v-.51l.21,0Zm0,0"/><path class="cls-7" d="M68.48,49.57v-.51l.19-.05v.51Zm0,0"/><path class="cls-2" d="M68.27,49.08v.51h-.21v-.51Zm0,0"/><path class="cls-4" d="M68.68,49.51V49l.16-.08v.51Zm0,0"/><path class="cls-4" d="M69,49.22l-.07.12v-.51l.07-.12Zm0,0"/><path class="cls-4" d="M69,49.22v-.51l0-.12v.51Zm0,0"/><path class="cls-2" d="M68.06,49.58l-.2,0V49l.2,0Zm0,0"/><path class="cls-2" d="M67.86,49.54l-.15-.06v-.13l0-.08V49l.18.07Zm0,0"/><path class="cls-2" d="M69,48.46l-.09-.11,0,0V48.1l.14.09v.27Zm0,0"/><path class="cls-2" d="M67.46,48.75l.09.11v.23L67.46,49Zm0,0"/><path class="cls-2" d="M67.55,48.86l.14.09v.27l-.09-.11,0,0Zm0,0"/><path class="cls-2" d="M67.42,49v-.38l0,.12V49h0Zm0,0"/><path class="cls-2" d="M53.39,64.79V63.61l8,4.43v3.11L61.1,71l-1.58-.89-.69-.38L57.45,69l-1-.56L55.57,66l-.63-.37,0-.12-.07-.19-.1-.19-.12-.17-.14-.14-.15-.1-.15-.05h-.14l-.11,0-.09.09-.05.13-.07,0Zm7.13,3.65-.12-.17-.14-.14L60.1,68,60,68h-.14l-.11,0-.09.09,0,.13v.17l0,.19.06.19.1.19.12.17.14.14.15.1.15.05h.14l.11,0,.08-.09.05-.13V69l0-.19-.06-.19Zm0,0"/><path class="cls-2" d="M58.9,69.77l.72.38-2.24,1.32v-.77Zm-.11,0"/><path class="cls-2" d="M61.19,68l-7.68-4.43,2-2.89,7.68,4.43Zm0,0"/><path class="cls-2" d="M53.94,64.69l.11,0h.14l.15.05.15.1.14.14.12.17.1.19.06.19,0,.12L53.81,65v0l.05-.13Zm0,0"/><path class="cls-4" d="M61.39,68l2-2.89,7-4V57.59l.86-.58,1.2,3.91-.06.48V64.5l-.22.22,0-.43L72.08,64l-.22-.23-.31-.1-.37,0-.39.17-.4.29-.37.39-.32.47-.24.51-.15.52,0,.25,0,.24-3.84,2.22-.05-.43-.15-.34L65,67.72l-.32-.1-.37,0-.4.17-.4.29-.37.39L62.8,69l-.24.51L62.4,70l0,.25.07.24-1.06.67Zm-.19,0"/><path class="cls-4" d="M70.39,61.17l-7.05,4,2.54-5,4.51-2.56Zm-.28,0"/><path class="cls-2" d="M71.1,57l-1,.58-4.44,2.56L58,55.72l1.61-.93.66-.38,1.54-.89,1.64-.95L68,55.24Zm0,0"/><path class="cls-10" d="M58,55.72l7.68,4.43-2.47,5-7.68-4.43,1.63-3.31,0-.07.22-.44Zm0,0"/><path class="cls-4" d="M62.4,70l.15-.52L62.8,69l.32-.47.37-.39.4-.29,1.34.78-2.85,1.65Zm0,0"/><path class="cls-2" d="M63.88,67.83l.4-.17,1.09.63.05.43-.19-.11Zm0,0"/><path class="cls-2" d="M65.37,68.28l-1.09-.63.37,0,.56.32Zm0,0"/><path class="cls-9" d="M65.21,67.95l-.56-.32.32.1Zm0,0"/><path class="cls-4" d="M69.31,66l.15-.52.24-.51.32-.47.37-.39.4-.29,1.34.78-2.85,1.65Zm0,0"/><path class="cls-2" d="M70.79,63.84l.4-.17,1.09.63.05.43-.19-.11Zm0,0"/><path class="cls-2" d="M72.28,64.29l-1.09-.63.37,0,.56.32Zm0,0"/><path class="cls-9" d="M72.12,64l-.56-.32.32.1Zm0,0"/><path class="cls-8" d="M81,72.38l-.52.13V71.4l.52-.13Zm0,0"/><path class="cls-8" d="M81,71.28l-.52.13V70.29l.52-.13Zm0,0"/><path class="cls-9" d="M80.43,71.4v1.11l-.56,0V71.44Zm0,0"/><path class="cls-4" d="M81,72.38V71.28l.45-.2v1.11Zm0,0"/><path class="cls-2" d="M78,71.93l-.22-.3V70.52l.22.3Zm0,0"/><path class="cls-2" d="M78,70.82l-.22-.3V69.41l.22.3Zm0,0"/><path class="cls-2" d="M77.77,70.52v1.11l-.07-.32V70.19Zm0,0"/><path class="cls-2" d="M78,71.93V70.82l.35.26v1.11Zm0,0"/><path class="cls-4" d="M81.69,72l-.29.22V71.08l.29-.22V72Zm0,0"/><path class="cls-4" d="M81.4,71.08l-.45.2V70.17l.45-.2Zm0,0"/><path class="cls-2" d="M79.31,72.51l-.52-.13V71.28l.52.13Zm0,0"/><path class="cls-2" d="M78.78,71.28v1.11l-.45-.2V71.08Zm0,0"/><path class="cls-2" d="M79.31,71.4l-.52-.13V70.17l.52.13Zm0,0"/><path class="cls-2" d="M79.31,72.51V71.4l.56,0v1.11Zm0,0"/><path class="cls-2" d="M79.87,71.44l-.56,0V70.29l.56,0Zm0,0"/><path class="cls-4" d="M81.69,70.86l-.29.22V70l.35-.26V70l-.06.25Zm0,0"/><path class="cls-2" d="M78.78,71.28l-.45-.2V70l.45.2Zm0,0"/><path class="cls-2" d="M77.77,70.52l-.07-.32V69.08l.07.32Zm0,0"/><path class="cls-2" d="M78.33,71.08,78,70.82V69.71l.35.26Zm0,0"/><path class="cls-9" d="M80.43,71.4l-.56,0V70.34l.56,0Zm0,0"/><path class="cls-5" d="M67.15,50.34l-.21,0v-.51l.21,0Zm0,0"/><path class="cls-7" d="M67.15,50.34v-.51l.19-.05v.51Zm0,0"/><path class="cls-2" d="M67.15,49.82l-.21,0h-.19l-.14-.68-.32-.09h0l.16-.08.19-.05.21,0h.21l.2,0,.15.06h0l.09.06,0,0,.09.11v0l0,.08,0,.12-.07.12-.12.1-.16.08Zm0,0"/><path class="cls-4" d="M67.51,49.69l.12-.1v.51l-.12.1Zm0,0"/><path class="cls-2" d="M66.94,49.85v.51h-.09l-.1-.52Zm0,0"/><path class="cls-4" d="M67.34,50.28v-.51l.16-.08v.51Zm0,0"/><path class="cls-4" d="M67.7,50l-.07.12v-.51l.07-.12Zm0,0"/><path class="cls-4" d="M67.7,50v-.51l0-.12v.51Zm0,0"/><path class="cls-2" d="M63.22,50.95l.07-.12.12-.1.16-.08.19-.05h.05l.19.53,0,.07,0,.07,0,.07,0,.07,0,.06,0,0h-.32l-.2,0-.18-.07-.14-.09-.09-.11,0-.12Zm0,0"/><path class="cls-5" d="M64.27,52l-.21,0v-.51h.11v0l0,.05,0,0,0,0Zm0,0"/><path class="cls-7" d="M64.27,52v-.36l0,0,0,0,0,0,0,0h.07v.19Zm0,0"/><path class="cls-2" d="M64.06,51.51V52h-.21V51.5Zm0,0"/><path class="cls-4" d="M64.46,51.95v-.19h0l.15,0v.15Zm0,0"/><path class="cls-4" d="M64.8,51.66l-.06.11v-.09Zm0,0"/><path class="cls-4" d="M64.74,51.77l-.12.1v-.15l.12,0Zm0,0"/><path class="cls-2" d="M63.85,52l-.2,0v-.51l.2,0Zm0,0"/><path class="cls-2" d="M63.65,52l-.18-.07v-.51l.18.07Zm0,0"/><path class="cls-2" d="M63.47,51.91l-.14-.09V51.3l.14.09Zm0,0"/><path class="cls-2" d="M63.33,51.81l-.09-.11v-.51l.09.11Zm0,0"/><path class="cls-2" d="M63.24,51.7l0-.12v-.51l0,.12Zm0,0"/><path class="cls-4" d="M110.39,42.58l-1.08.71,0-.43-.12-.34-.23-.23-.31-.1-.37,0-.4.17-.4.29-.37.39-.32.47-.24.51-.15.52,0,.25.05.24-1.08.67V42.62l1.29-2,.45.23.86-1.65,2.4-1.48v4.84Zm.3,0"/><path class="cls-4" d="M106.84,43.54l.32-.47.37-.39.4-.29,1.34.78-2.85,1.65,0-.25.15-.52Zm0,0"/><path class="cls-2" d="M110.69,37.74l-2.57,1.48.56-.9.17-.83-.22-.1.48-.32,1.14.42Zm0,0"/><path class="cls-2" d="M106.6,40.64l-1.37,2-7.68-4.43,2-2.89,6.61,3.82-.2.32-.17.83Zm0,0"/><path class="cls-2" d="M105.39,42.62v3.11l-.27-.11-1.57-.89-.68-.38-1.37-.78-.13-.07-1.28-3.26-2.7-1.51v-.53Zm-.15,0"/><path class="cls-2" d="M102.84,44.34l.67.38-1.73,1V45Zm0,0"/><path class="cls-2" d="M107.93,42.4l.4-.17,1.09.63.05.43-.19-.11Zm0,0"/><path class="cls-2" d="M108.32,42.23l.37,0,.56.32.15.34Zm0,0"/><path class="cls-9" d="M108.69,42.19l.32.1.24.23Zm0,0"/><path class="cls-2" d="M110.39,37.74l-.28-.25,2.71,1,.57-.1V41l-.21-.11L111.63,40l-.82-.38-.43-.16Zm.3,0"/><path class="cls-2" d="M111,39.66l.67.38-.94.54v-.77Zm0,0"/><path class="cls-2" d="M106.16,39.12,99.55,35.3l.41-.24.4-.23.91-.52.21-.12,1.53-.88.93.53.05,0,.7.4.25.14.75.43,1.92,1.11-.51.52H107l-.26,0-.08.06-.06.07,0,.08,0,.09-.17.83v.09l0,.09,0,.09.06.08.07.07.09.06.1,0h0Zm0,0"/><path class="cls-2" d="M71.65,47.87l.07-.12.12-.1.16-.08.19-.05.21,0h0l-.42.86-.1,0-.14-.09-.09-.11,0-.12Zm0,0"/><path class="cls-2" d="M71.67,48.11l.09.11v.23l-.09-.06Zm0,0"/><path class="cls-2" d="M71.77,48.22l.14.09v.28h0l-.09-.11,0,0Zm0,0"/><path class="cls-2" d="M71.9,48.57v-.25l.1,0Zm0,0"/><path class="cls-2" d="M71.63,48.38V48l0,.12v.28h0Zm0,0"/><path class="cls-2" d="M71.67,46.92l0,.12,0,.12-.07.12-.12.1-.16.08-.19.05-.21,0h-.21l-.2,0-.18-.07-.14-.09-.09-.11,0-.12,0-.12.07-.12.12-.1.16-.08.19-.05.21,0h.21l.2,0,.18.07.14.09Zm0,0"/><path class="cls-4" d="M71.5,47.38l.12-.1v.51l-.12.1Zm0,0"/><path class="cls-4" d="M71.71,47v.51l0,.12v-.51Zm0,0"/><path class="cls-5" d="M71.15,48l-.21,0v-.51l.21,0Zm0,0"/><path class="cls-7" d="M71.15,48v-.51l.19-.05V48Zm0,0"/><path class="cls-2" d="M70.94,47.54v.51h-.21v-.51Zm0,0"/><path class="cls-4" d="M71.34,48v-.51l.16-.08v.51Zm0,0"/><path class="cls-4" d="M71.69,47.17v.51l-.07.12v-.51Zm0,0"/><path class="cls-2" d="M70.73,48l-.2,0v-.51l.2,0Zm0,0"/><path class="cls-2" d="M70.53,48l-.15-.06v-.13l0-.08v-.31l.18.07Zm0,0"/><path class="cls-2" d="M70.12,47.22l.09.11v.23l-.09-.06Zm0,0"/><path class="cls-2" d="M70.21,47.33l.14.09v.27l-.09-.11,0,0Zm0,0"/><path class="cls-2" d="M70.08,47.48V47.1l0,.12v.28h0Zm0,0"/><path class="cls-2" d="M69,49.41l.07-.12.12-.1.16-.08.19-.05.21,0H70l.2,0,.15.06h0l.09.06,0,0,.09.11v0l0,.08,0,.12-.07.12-.12.1-.16.08L70,50l-.21,0h-.21l-.2,0-.18-.07-.14-.09L69,49.65l0-.12Zm0,0"/><path class="cls-4" d="M70.39,49.82l.12-.1v.51l-.12.1Zm0,0"/><path class="cls-5" d="M70,50.46l-.21,0V50L70,50Zm0,0"/><path class="cls-7" d="M70,50.46V50l.19-.05v.51Zm0,0"/><path class="cls-2" d="M69.83,50v.51h-.21V50Zm0,0"/><path class="cls-4" d="M70.23,50.41V49.9l.16-.08v.51Zm0,0"/><path class="cls-4" d="M70.58,50.11l-.07.12v-.51l.07-.12Zm0,0"/><path class="cls-4" d="M70.58,50.11V49.6l0-.12V50Zm0,0"/><path class="cls-2" d="M69.62,50.48l-.2,0v-.51l.2,0Zm0,0"/><path class="cls-2" d="M69.42,50.44l-.15-.06v-.13l0-.08v-.31l.18.07Zm0,0"/><path class="cls-2" d="M70.56,49.36l-.09-.11,0,0V49l.14.09v.27Zm0,0"/><path class="cls-2" d="M69,49.65l.09.11V50L69,49.93Zm0,0"/><path class="cls-2" d="M69,49.91v-.38l0,.12v.28h0Zm0,0"/><path class="cls-2" d="M55,52.36l.56,0,.52.13.45.2.35.26.22.3.07.32-.07.32-.22.3-.35.26-.45.2-.52.13-.56,0-.56,0-.52-.13-.45-.2-.35-.26-.22-.3-.07-.32.06-.25,0-.07.2-.28,0,0,.06,0,.29-.22.45-.2.52-.13Zm0,0"/><path class="cls-2" d="M49.63,56.72,50,57l.22.3.07.32-.07.32-.22.3-.35.26-.45.2-.52.13-.56,0-.56,0L47,58.69l-.45-.2-.35-.26-.22-.3-.07-.32.06-.25,0-.07.2-.28,0,0,.06,0,.29-.22.45-.2.52-.13.56,0,.56,0,.52.13Zm0,0"/><path class="cls-5" d="M67.37,52l-.18,0,0-.13v-.38l.21,0Zm0,0"/><path class="cls-7" d="M67.37,52v-.51l.19-.05v.51Zm0,0"/><path class="cls-2" d="M67.37,51.49l-.21,0h-.08l-.19-.92.18,0h.21l.2,0,.15.06h0l.09.06,0,0,.09.11v0l0,.08,0,.12-.07.12-.12.1-.16.08Zm0,0"/><path class="cls-4" d="M67.73,51.36l.12-.1v.51l-.12.1Zm0,0"/><path class="cls-2" d="M67.17,51.51v.38l-.08-.39Zm0,0"/><path class="cls-4" d="M67.57,51.95v-.51l.16-.08v.51Zm0,0"/><path class="cls-4" d="M67.92,51.65l-.07.12v-.51l.07-.12Zm0,0"/><path class="cls-4" d="M67.92,51.65v-.51l0-.12v.51Zm0,0"/><path class="cls-8" d="M84.95,74.69l-.52.13V73.71l.52-.13Zm0,0"/><path class="cls-8" d="M84.95,73.58l-.52.13V72.6l.52-.13Zm0,0"/><path class="cls-9" d="M84.43,73.71v1.11l-.56,0V73.75Zm0,0"/><path class="cls-4" d="M84.95,74.69V73.58l.45-.2v1.11Zm0,0"/><path class="cls-2" d="M82,74.23l-.22-.3V72.82l.22.3Zm0,0"/><path class="cls-2" d="M82,73.12l-.22-.3V71.71L82,72Zm0,0"/><path class="cls-2" d="M81.77,72.82v1.11l-.07-.32V72.5Zm0,0"/><path class="cls-2" d="M82,74.23V73.12l.35.26v1.11Zm0,0"/><path class="cls-4" d="M85.74,74.23l-.35.26V73.38l.35-.26Zm0,0"/><path class="cls-4" d="M85.4,73.38l-.45.2V72.47l.45-.2Zm0,0"/><path class="cls-4" d="M85.74,74.23V73.12l.22-.3v1.11Zm0,0"/><path class="cls-4" d="M86,72.82l-.22.3V72l.22-.3Zm0,0"/><path class="cls-4" d="M86,73.93V72.82L86,72.5v1.11Zm0,0"/><path class="cls-2" d="M83.3,74.82l-.52-.13V73.58l.52.13Zm0,0"/><path class="cls-2" d="M82.78,73.58v1.11l-.45-.2V73.38Zm0,0"/><path class="cls-2" d="M83.3,73.71l-.52-.13V72.47l.52.13Zm0,0"/><path class="cls-2" d="M83.3,74.82V73.71l.56,0v1.11Zm0,0"/><path class="cls-2" d="M83.86,73.75l-.56,0V72.6l.56,0Zm0,0"/><path class="cls-4" d="M85.74,73.12l-.35.26V72.28l.35-.26Zm0,0"/><path class="cls-2" d="M82.78,73.58l-.45-.2V72.28l.45.2Zm0,0"/><path class="cls-4" d="M86,72.5l-.07.32V71.71l.07-.32Zm0,0"/><path class="cls-2" d="M81.77,72.82l-.07-.32V71.39l.07.32Zm0,0"/><path class="cls-2" d="M82.33,73.38,82,73.12V72l.35.26Zm0,0"/><path class="cls-9" d="M84.43,73.71l-.56,0V72.64l.56,0Zm0,0"/><path class="cls-2" d="M51,50.06l.56,0,.52.13.45.2.35.26.22.3.07.32-.07.32-.22.3-.35.26-.45.2-.52.13-.56,0-.56,0-.52-.13-.45-.2-.35-.26-.22-.3-.07-.32.07-.32.22-.3.35-.26.45-.2.52-.13Zm0,0"/><path class="cls-2" d="M45.63,54.42l.35.26.22.3.07.32-.07.32-.22.3-.35.26-.45.2-.52.13-.56,0-.56,0L43,56.39l-.45-.2-.35-.26-.22-.3-.07-.32L42,55l.22-.3.35-.26.45-.2.52-.13.56,0,.56,0,.52.13Zm0,0"/><path class="cls-2" d="M83.86,69l.56,0,.52.13.45.2.35.26L86,70l.07.32L86,70.6l-.22.3-.35.26-.45.2-.52.13-.56,0-.56,0-.52-.13-.45-.2L82,70.91l-.22-.3-.07-.32.06-.25,0-.07.2-.28,0,0,.06,0,.29-.22.42-.18h0l.52-.13.38,0h.19Zm0,0"/><path class="cls-2" d="M83.3,71.49l.56,0v1.11l-.56,0Zm0,0"/><path class="cls-8" d="M84.43,71.49l.52-.13v1.11l-.52.13Zm0,0"/><path class="cls-9" d="M84.43,71.49V72.6l-.56,0V71.53Zm0,0"/><path class="cls-4" d="M84.95,72.47V71.37l.45-.2v1.11Zm0,0"/><path class="cls-2" d="M81.77,70.6l.22.3V72l-.22-.3Zm0,0"/><path class="cls-2" d="M81.77,70.6v1.11l-.07-.32V70.28Zm0,0"/><path class="cls-2" d="M82,72V70.91l.35.26v1.11Zm0,0"/><path class="cls-4" d="M85.74,72l-.35.26V71.17l.35-.26Zm0,0"/><path class="cls-4" d="M85.74,70.91l.22-.3v1.11l-.22.3Zm0,0"/><path class="cls-4" d="M86,71.71V70.6l.07-.32v1.11Zm0,0"/><path class="cls-2" d="M82.78,71.37l.52.13V72.6l-.52-.13Zm0,0"/><path class="cls-2" d="M82.78,71.37v1.11l-.45-.2V71.17Zm0,0"/><path class="cls-11" d="M83.3,69.07l-.52.13h0V68l.91-.15V69Zm0,0"/><path class="cls-2" d="M79.87,70.34l-.56,0V69.19l.56,0Zm0,0"/><path class="cls-8" d="M81,70.17l-.52.13V69.19l.52-.13Zm0,0"/><path class="cls-2" d="M78,69.71l-.22-.3V68.3l.22.3Zm0,0"/><path class="cls-4" d="M81.4,70l-.45.2V69.06l.45-.2Zm0,0"/><path class="cls-4" d="M81.75,70v-.32l.22-.3v.27l-.2.28Zm0,0"/><path class="cls-4" d="M82,69.41l-.22.3V68.6l.22-.3Zm0,0"/><path class="cls-4" d="M82,69.68v-.27l.07-.32v.53l-.06,0Zm0,0"/><path class="cls-2" d="M79.31,70.29l-.52-.13V69.06l.52.13Zm0,0"/><path class="cls-4" d="M81.75,69.71,81.4,70V68.86l.35-.26Zm0,0"/><path class="cls-2" d="M78.78,70.17l-.45-.2V68.86l.45.2Zm0,0"/><path class="cls-4" d="M82,69.08l-.07.32V68.3L82,68v1.11Zm0,0"/><path class="cls-2" d="M77.77,69.41l-.07-.32V68l.07.32Zm0,0"/><path class="cls-2" d="M78.33,70,78,69.71V68.6l.35.26Zm0,0"/><path class="cls-9" d="M80.43,70.29l-.56,0V69.23l.56,0Zm0,0"/><path class="cls-4" d="M57.39,71.48l2.18-1.32,1.59.89-3.77,2.21Zm-.21,0"/><path class="cls-4" d="M87.39,54.12l1.22-.74,1.57.89-2.79,1.63Zm-.14,0"/><path class="cls-4" d="M101.39,45.73l1.93-1,1.44.89-3.36,1.89Zm.39,0"/><path class="cls-4" d="M110.39,40.58l1.09-.54,1.46.89-2.55,1.43Zm.3,0"/><path class="cls-2" d="M39.39,79.65l-1-.38V77.49l1,.38Zm-.4,0"/><path class="cls-2" d="M39,77.87l-.67-.38,1.39-.8.67.38Zm0,0"/><path class="cls-2" d="M40.37,77.07l-.46-.38-1.52-1V72.58l7,4.43v3.11L45.33,80l-1.47-.89-.63-.38L41.89,78ZM45,77.4l-.12-.17-.14-.14-.15-.1-.15-.05h-.14l-.11,0-.09.09,0,.13v.17l0,.19.06.19.1.19.12.17.14.14.15.1.15.05h.14l.11,0,.09-.09,0-.13V78l0-.19-.07-.19ZM39.26,75l.09-.09,0-.13v-.17l0-.19-.06-.19-.1-.19-.12-.17L39,73.77l-.15-.1-.15-.05h-.14l-.11,0-.09.09-.05.13v.17l0,.19.06.19.1.19.12.17.14.14.15.1.15.05h.14Zm0,0"/><path class="cls-2" d="M43.26,78.74l.67.38-1.39.8-.67-.38Zm0,0"/><path class="cls-4" d="M42.39,79.93l1.47-.8,1.5.89-3,1.69Zm.15,0"/><path class="cls-4" d="M75.37,62.65l-3,1.63V62.51l1.37-.74Zm.16,0"/><path class="cls-2" d="M74,61.77l-1.29.74v-.77l.62-.36Zm0,0"/><path class="cls-2" d="M74,61.77l-.67-.38-.79-.46L71.27,57l-2.89-1.77v0L73.07,58l-.27.29-.21.83,1.28.61.36-.88,1.15.77v3.11l0-.11Zm0,0"/><path class="cls-4" d="M79.76,60.21l-2.85,1.65,0-.25.15-.52.24-.51.32-.47.37-.39.4-.29Zm0,0"/><path class="cls-4" d="M86.67,56.22l-.8.46-.23-.09-.81.14-.55-.2.28-.41.37-.39.4-.29Zm0,0"/><path class="cls-2" d="M42.39,79.93V81.7l-1-.38V79.54Zm.15,0"/><path class="cls-4" d="M39.39,79.65V77.87l1.19-.8,1.64.89Zm-.4,0"/><path class="cls-6" d="M58.8,69.77l-1.62.94v-.34l-.37-1,.64-.37Zm0,0"/><path class="cls-4" d="M57.44,69l-.64.37-.34-.93Zm0,0"/><path class="cls-6" d="M73.33,61.38l-.62.36V61.4l-.17-.48Zm0,0"/><path class="cls-6" d="M87.86,53l-.62.36V53l-.17-.48Zm0,0"/><path class="cls-6" d="M102.84,44.34l-1.07.61v-.34l-.37-1,.08,0Zm0,0"/><path class="cls-4" d="M101.49,43.56l-.08,0,0-.12Zm0,0"/><path class="cls-6" d="M111,39.66l-.27.16V39.5Zm0,0"/><path class="cls-10" d="M40,69.7l2.47-5,7.68,4.43-2.47,5Zm0,0"/><path class="cls-2" d="M45.66,77,38,72.58l2-2.89,7.68,4.43Zm0,0"/><path class="cls-2" d="M50.13,69.12l-7.68-4.43L47,62l.48-.28.36-.21.2.12.56.32.2.11,4.66,2.69.29.17,1.13.65.63.37-1,.58Zm0,0"/><path class="cls-4" d="M54.39,66.56,55.48,66l.94,2.45.47.93.5,1v3.11l-.49.22-.1-.43-.18-.34-.26-.23L56,72.6l-.37,0-.4.17-.4.29-.37.39-.32.47-.24.51-.15.52-.05.49-.35.2-.22.13,0,0-3.23,1.87-.05-.43-.15-.34-.24-.23-.32-.1-.37,0-.4.17-.4.29-.37.39-.32.47-.24.51-.15.52-.05.49-.35.2-.22.13-.18,0-.68.32V77l2-2.89,7-4Zm.18,0"/><path class="cls-4" d="M54.39,70.14l-6.82,4,2.43-5,4.4-2.56Zm.18,0"/><path class="cls-4" d="M46.81,79.46l.05-.49.15-.52.24-.51.32-.47.37-.39.4-.29.4-.17.37,0,.32.1.24.23.15.34.05.43-.05.49-.15.52-.24.51-.32.47-.37.39-.4.29-.4.17-.37,0-.32-.1L47,80.22l-.15-.34Zm0,0"/><path class="cls-4" d="M53.72,75.47l.05-.49.15-.52.24-.51.32-.47.37-.39.4-.29.4-.17.37,0,.32.1.24.23.15.34.05.43-.05.49-.15.52-.24.51-.32.47-.37.39-.4.29-.4.17-.37,0-.32-.1-.24-.23-.15-.34Zm0,0"/><path class="cls-2" d="M75.73,59.66l-1.33-.77,1-1.68.17-.83-.22-.1.48-.32,1.24.46.62.36Zm0,0"/><path class="cls-2" d="M72.9,58,68,55.22l2-2.89,4.31,2.49-.52.53h-.13l-.26,0-.08.06-.06.07,0,.08,0,.09-.17.83v.09l0,.09,0,.09.06.08.07.07.09.06.1,0h0Zm0,0"/><path class="cls-2" d="M72.52,47.33,78,44.18l4.62,2.67,3.06,1.77-1,.58-4.44,2.56Zm0,0"/><path class="cls-10" d="M72.52,47.33l7.68,4.43L79,54.14l-1.46-.54,0-.15-.11-.17-.16-.15L77,53l-.22-.07-.23,0-.23,0-.21.07L76.1,53,76,53l-.64.2-.47,1.05-.54.55L70,52.34l1.3-2.64,0,0,.19-.39.09-.18.24-.5v0l.1-.21.42-.86Zm0,0"/><path class="cls-4" d="M84.39,49.2l1.13-.58,1.57,3.91.31.48v3.11l-.45.22-.09-.43-.17-.34-.25-.23-.32-.1-.37,0-.4.17-.4.29-.37.39-.28.41-3.19-1.16L80.7,55l3.69-2.2Zm.25,0"/><path class="cls-4" d="M84.39,52.78,80.7,55l-.1-.23L79,54.14l1.06-2.38,4.33-2.56Zm.25,0"/><path class="cls-4" d="M75.39,59.66l2.17-2.89.22-.08,1.81.66.92-.19,3,1.09-3.57,2.07,0-.43-.15-.34-.24-.23-.32-.1-.37,0-.4.17-.4.29-.37.39-.32.47-.24.51-.15.52,0,.25-.2.24-1.32.67Zm.34,0"/><path class="cls-4" d="M77.86,56.69l-.13.08.05-.11Zm0,0"/><path class="cls-2" d="M78.42,59.44l.4-.17,1.09.63.05.43-.19-.11Zm0,0"/><path class="cls-2" d="M79.9,59.89l-1.09-.63.37,0,.56.32Zm0,0"/><path class="cls-9" d="M79.75,59.55l-.56-.32.32.1Zm0,0"/><path class="cls-2" d="M85.33,55.45l.4-.17,1.09.63.05.43-.19-.11Zm0,0"/><path class="cls-2" d="M86.81,55.9l-1.09-.63.37,0,.56.32Zm0,0"/><path class="cls-9" d="M86.66,55.56l-.56-.32.32.1Zm0,0"/><path class="cls-2" d="M77.78,56.66l-.05.11-.62-.36Zm0,0"/><path class="cls-9" d="M53.93,76.23l.24.23-1-.55-.1-.09,0,0Zm0,0"/><path class="cls-2" d="M46.86,79.88l.15.34-.77-.44.22-.13Zm0,0"/><path class="cls-2" d="M46.86,79.88l-.4-.23.35-.2Zm0,0"/><path class="cls-9" d="M46.25,79.78l.77.44.24.23-1-.55-.1-.09Zm0,0"/><path class="cls-2" d="M53.78,75.89l.15.34-.77-.44.22-.13Zm0,0"/><path class="cls-2" d="M53.78,75.89l-.4-.23.35-.2Zm0,0"/><path class="cls-2" d="M71.89,48.59h0l-.24.5-.09,0-.19.05-.21,0h-.21l-.2,0-.18-.07L70.43,49l-.09-.11,0-.12,0-.12.07-.12.12-.1.16-.08.19-.05.21,0h.21l.2,0,.15.06h0l.09.06,0,0Zm0,0"/><path class="cls-5" d="M71.35,49.7l-.19,0v-.51l.21,0v.47Zm0,0"/><path class="cls-7" d="M71.37,49.65v-.47l.19-.05v.13Zm0,0"/><path class="cls-2" d="M71.16,49.21v.51h-.21V49.2Zm0,0"/><path class="cls-4" d="M71.56,49.26v-.13l.09,0Zm0,0"/><path class="cls-2" d="M70.95,49.71l-.2,0v-.51l.2,0Zm0,0"/><path class="cls-2" d="M70.75,49.67l-.15-.06v-.13l0-.08v-.31l.18.07Zm0,0"/><path class="cls-2" d="M70.34,48.88l.09.11v.23l-.09-.06Zm0,0"/><path class="cls-2" d="M70.3,49.15v-.38l0,.12v.28h0Zm0,0"/><path class="cls-2" d="M68.77,47.74l.07-.12.12-.1.16-.08.19-.05.21,0h.21l.2,0,.15.06h0l.09.06,0,0,.09.11v0l0,.08,0,.12-.07.12-.12.1-.16.08-.19.05-.21,0h-.21l-.2,0L69,48.19l-.14-.09L68.79,48l0-.12Zm0,0"/><path class="cls-4" d="M70.17,48.15l.12-.1v.51l-.12.1Zm0,0"/><path class="cls-5" d="M69.82,48.8l-.21,0v-.51l.21,0Zm0,0"/><path class="cls-7" d="M69.82,48.8v-.51l.19-.05v.51Zm0,0"/><path class="cls-2" d="M69.61,48.31v.51h-.21V48.3Zm0,0"/><path class="cls-4" d="M70,48.75v-.51l.16-.08v.51Zm0,0"/><path class="cls-4" d="M70.36,48.45l-.07.12v-.51l.07-.12Zm0,0"/><path class="cls-4" d="M70.36,48.45v-.51l0-.12v.51Zm0,0"/><path class="cls-2" d="M69.39,48.81l-.2,0v-.51l.2,0Zm0,0"/><path class="cls-2" d="M69.19,48.77,69,48.71v-.13l0-.08v-.31l.18.07Zm0,0"/><path class="cls-2" d="M68.79,48l.09.11v.23l-.09-.06Zm0,0"/><path class="cls-2" d="M68.75,48.25v-.38l0,.12v.28h0Zm0,0"/><path class="cls-2" d="M109.13,26.19l1-.58L117.81,30l-1,.58Zm0,0"/><path class="cls-2" d="M119,37.76l-1.54-.89.4-.17,1.09.63Zm0,0"/><path class="cls-2" d="M119,37.33l-1.09-.63.37,0,.56.32Zm0,0"/><path class="cls-9" d="M118.83,37l-.56-.32.32.1Zm0,0"/><path class="cls-4" d="M116.39,30.62l1.2-.58,1.8,4.39v3.11l-.37.22,0-.43-.15-.34-.24-.23-.32-.1-.37,0-.4.17-.4.29-.23.25-2.53-.92-.63-.61,2.67-1.67Zm.42,0"/><path class="cls-4" d="M116,39.09l0,.44L113.39,41V38.36l.4-.09Zm0,0"/><path class="cls-2" d="M116.39,30.62v3.59l-7-4.43V26.19Zm.42,0"/><path class="cls-2" d="M109.13,29.77l7.68,4.43-2.89,1.67h0l-3.1-1.15,0-.15-.11-.17-.16-.15-.2-.11-.22-.07-.23,0-.23.08h0l-3.93-2.33Zm0,0"/><path class="cls-2" d="M105.39,34.84V31.77L109.46,34l-.14.06,0,.05-.07,0-.63.2-.46,1.05-.7.57Zm.29,0"/><path class="cls-2" d="M79.87,69.23l-.56,0-.52-.13-.45-.2L78,68.6l-.22-.3L77.7,68l.07-.32.22-.3.35-.26.3-.14h0l.13-.06.12,0,.07,0,.33-.08.56,0,.56,0,.52.13.45.2.35.26.22.3L82,68,82,68.3l-.22.3-.35.26-.45.2-.52.13Zm0,0"/><path class="cls-12" d="M80.43,66.76l-.56,0-.56,0-.33.08-.07-.07-.26-.53V65.7l.23-.53.46-.48L80,64.3l.82-.14h1l-.33.11-.22,1v.48l.77.64.75,0,2.32-1.78,0,0,.48.47.26.53v.55l-.23.53-.46.48-.66.39-.82.28-.74.15h-.55V68l-.25-.32-.3-.3-.39-.26-.47-.2Zm0,0"/><path class="cls-12" d="M111.88,46.81l.23-.53.46-.48.66-.39.82-.19.91-.06h0l-.33.17-.22,1v.49l.77.65.75,0,2.32-1.78,0,0,.48.47.26.53v.55l-.23.53-.46.48-.66.39-.82.28-.91.15h-.95l-.92-.14-.83-.27-.68-.38-.48-.47-.26-.53Zm0,0"/><path class="cls-11" d="M116.92,50.17l-.91.15V49.13l.91-.15Zm0,0"/><path class="cls-13" d="M116.92,50.17V49l.82-.28v1.19Zm0,0"/><path class="cls-14" d="M116,49.13v1.19h-.95V49.14Zm0,0"/><path class="cls-15" d="M111.88,48v0Zm0,0"/><path class="cls-13" d="M119.1,47.3v1.19l-.23.53V47.83Zm0,0"/><path class="cls-16" d="M115.06,49.14v1.19l-.92-.14V49Zm0,0"/><path class="cls-13" d="M118.4,48.31l.46-.48V49l-.46.48Zm0,0"/><path class="cls-17" d="M112.63,49.54l-.48-.47V47.88l.48.47Zm0,0"/><path class="cls-18" d="M112.63,49.54V48.35l.68.38v1.19Zm0,0"/><path class="cls-18" d="M112.15,47.88v1.19l-.26-.53V47.35Zm0,0"/><path class="cls-15" d="M113.31,48.73l.83.27v1.19l-.83-.27Zm0,0"/><path class="cls-13" d="M118.4,49.5l-.66.39V48.7l.66-.39Zm0,0"/><path class="cls-12" d="M122,42.94h-.67l-2.2,1.72h0l-.1.54-.67.51L116,47.52l-.75,0-.77-.66V46.3l3-2.32.76,0,2.2-1.72.07-.62.31-.24,2.1.78Zm0,0"/><path class="cls-17" d="M120.53,41.66l-.07.62L118.25,44l.22-1.07,2.07-1.61.06,0Zm0,0"/><path class="cls-19" d="M117.71,42.91l.76,0L118.25,44l-.76,0Zm0,0"/><path class="cls-13" d="M125,39.73l-.22,1.07v-.47l.22-1.07Zm0,0"/><path class="cls-13" d="M125,39.26l-.22,1.07-.9-.77.22-1.07Zm0,0"/><path class="cls-17" d="M117.49,44l-3,2.32.22-1.07L115,45l2.7-2.06Zm0,0"/><path class="cls-17" d="M122.67,39.12l.86-.66-.18.91Zm0,0"/><path class="cls-20" d="M123.53,38.46l.55,0-.22,1.07-.51-.19Zm0,0"/><path class="cls-13" d="M119,45.23l.1-.54h0Zm0,0"/><path class="cls-12" d="M124.77,40.8l-.87.67.21-.48.14-.71-.4-.72.9.77Zm0,0"/><path class="cls-17" d="M120.83,41.42l-.31.24.07-.33Zm0,0"/><path class="cls-12" d="M123.67,42l-.7.22h0l-2.1-.78-.24-.09-.06,0-2.62-1-.44-.72L116,39.09l-2.24-.82-.42.09-.48.1-2.62-1-1.14-.42-.88-.33-.28-.51v0l.52-1.17.64-.2,4.66,1.73.43.63,3.74,1.36.81-.14,5,1.85.4.72-.21.48Zm0,0"/><path class="cls-21" d="M113.77,36.57l-4.66-1.73.14-.71.09,0h0l.18.07.21.08.22.08.22.08.2.08.18.07.14.05.07,0,3.1,1.15Zm0,0"/><path class="cls-22" d="M109.11,34.83l-.64.2.14-.71.64-.2Zm0,0"/><path class="cls-13" d="M124.11,41l-.4-.72.14-.71.4.72Zm0,0"/><path class="cls-18" d="M108.47,35l-.52,1.17.14-.71.05-.12.47-1.05Zm0,0"/><path class="cls-13" d="M114.19,37.19l-.43-.63.14-.71h0l.42.61Zm0,0"/><path class="cls-23" d="M117.93,38.55l-3.74-1.36.14-.71,2.53.92,1.2.44Zm0,0"/><path class="cls-21" d="M123.71,40.27l-5-1.85.14-.71,3.79,1.41.67.25.51.19Zm0,0"/><path class="cls-24" d="M118.74,38.42l-.81.14.14-.71.81-.14Zm0,0"/><path class="cls-17" d="M108.09,35.5l-.14.71v0l-1,1.07.17-.83.51-.52.55-.57Zm0,0"/><path class="cls-25" d="M105.8,40.26l.17-.83.2-.32.55-.89.84-1.36-.17.83Zm0,0"/><path class="cls-26" d="M105.8,40.26l1.59-2.56,1.3.61-.56.9-1,1.65-.49-.23Zm0,0"/><path class="cls-27" d="M107.39,37.71l.17-.83,1.08.51.22.1-.17.83Zm0,0"/><path class="cls-12" d="M106.51,38.12l-.07-.07-.06-.08,0-.09,0-.09V37.7l0-.09,0-.08.06-.07.08-.06.26,0h.13l1-1.07.28.51.88.33-.48.32-1.08-.51-.84,1.36h0l-.1,0Zm0,0"/><path class="cls-17" d="M106.45,37.46l-.06.07.17-.83.06-.07Zm0,0"/><path class="cls-17" d="M106.9,37.32h0l.17-.83h0Zm0,0"/><path class="cls-18" d="M106.87,37.35h0l.17-.83h0Zm0,0"/><path class="cls-22" d="M106.35,37.61l0,.09.17-.83,0-.09Zm0,0"/><path class="cls-18" d="M106.85,37.35h0l.17-.83h0Zm0,0"/><path class="cls-18" d="M106.39,37.53l0,.08.17-.83,0-.08Zm0,0"/><path class="cls-17" d="M106.53,37.4l-.08.06.17-.83.08-.06Zm0,0"/><path class="cls-28" d="M106.79,37.38l-.26,0,.17-.83.26,0Zm0,0"/><path class="cls-24" d="M106.81,37.37h0l.17-.83h0Zm0,0"/><path class="cls-29" d="M106.82,37.37h0l.17-.83h0Zm0,0"/><path class="cls-22" d="M106.84,37.36h0l.17-.83h0Zm0,0"/><path class="cls-17" d="M106.88,37.34h0l.17-.83h0Zm0,0"/><path class="cls-17" d="M106.91,37.31h0l.17-.83h0Zm0,0"/><path class="cls-17" d="M106.92,37.3h0l.17-.83h0Zm0,0"/><path class="cls-17" d="M109.34,34.16l.05-.05v.07Zm0,0"/><path class="cls-28" d="M109.61,34l.23,0-.06.3-.21-.08Zm0,0"/><path class="cls-30" d="M109.84,34l.23,0-.07.35-.22-.08Zm0,0"/><path class="cls-31" d="M110.07,34l.22.07-.07.36L110,34.4Zm0,0"/><path class="cls-32" d="M110.29,34.12l.2.11-.07.32-.2-.08Zm0,0"/><path class="cls-13" d="M110.49,34.23l.16.15,0,.24-.18-.07Zm0,0"/><path class="cls-13" d="M110.65,34.38l.11.17,0,.12-.14-.05Zm0,0"/><path class="cls-13" d="M110.76,34.56l0,.15-.07,0Zm0,0"/><path class="cls-29" d="M109.38,34.17V34.1l.21-.06h0l0,.2Zm0,0"/><path class="cls-17" d="M81.78,44.31l-.46-.48V42.65l.46.48Zm0,0"/><path class="cls-18" d="M81.78,44.31V43.13l.66.39v1.19Zm0,0"/><path class="cls-12" d="M81.78,43.13l-.46-.48-.23-.53v-.55l.26-.53.49-.47.68-.38.57-.18.7,1.5.45.36,1.49-.64L86.2,41v-.51L86,39.92l.18,0,.82.28.66.39.46.48.23.53v.17l-3.72,2.15h-.41l-.91-.15-.81-.28Zm0,0"/><path class="cls-18" d="M81.31,42.65v1.19l-.23-.53V42.12Zm0,0"/><path class="cls-29" d="M83.25,45l-.81-.28V43.52l.81.28Zm0,0"/><path class="cls-33" d="M83.25,45V43.8l.91.15v.59l-.37.53Zm0,0"/><path class="cls-34" d="M84.17,43.95h.41l-.41.59Zm0,0"/><path class="cls-13" d="M88.3,41.63v.17h0Zm0,0"/><path class="cls-13" d="M82.55,32.59l0,.65-1.49.64,0-.65Zm0,0"/><path class="cls-12" d="M83.92,36.14l.46.39-1.49.64-.46-.39Zm0,0"/><path class="cls-17" d="M82.43,36.78l.46.39,1.83,3.94v.51l-.47.25-.45-.36-.7-1.5L82,37.63l-.06-.6-1.34-2.91-.41-.37L78.5,30.11v-.47l.55-.29.33.26,1.68,3.62,0,.65Zm0,0"/><path class="cls-13" d="M86.2,41l-.47.25-1.49.64.47-.25Zm0,0"/><path class="cls-13" d="M86.2,41l-1.49.64v-.51l1.49-.64Zm0,0"/><path class="cls-35" d="M84.72,41.11l-1.83-3.94,1.49-.64L86,39.92l.26.55Zm0,0"/><path class="cls-35" d="M82.43,36.78,81.1,33.89l1.49-.64,1.33,2.89Zm0,0"/><path class="cls-35" d="M81.06,33.24l-1.68-3.62L80.87,29,82,31.32l.59,1.27Zm0,0"/><path class="cls-12" d="M79.38,29.62,79,29.36l1.49-.64.33.26Zm0,0"/><path class="cls-17" d="M80.87,29l-.33-.26,3,.8.49.57,2.25.63.26-.4,2.81.75.39.55.31,1.45-.13.27-.56-1.44-.13-.18-.14-.14-.14-.1-.13,0h-.12l-1.16.5-.1.06-.07.11,0,.16v.19l0,.21,0,.1-.32-.09L86.54,32l-1.72-.48-.52-.15-.26.48L82,31.32Zm0,0"/><path class="cls-12" d="M87.53,29.89l2.81.75-1,.43-2.81-.75.33-.14Zm0,0"/><path class="cls-34" d="M90.34,30.64l.39.55-1,.43-.39-.55Zm0,0"/><path class="cls-13" d="M91,32.63l-.17.37-.91.4,0-.07.13-.27Zm0,0"/><path class="cls-36" d="M90.73,31.18,91,32.63l-1,.43-.31-1.45Zm0,0"/><path class="cls-12" d="M85,29.66l1.85.52-.33.14-.26.4L84,30.08Zm0,0"/><path class="cls-12" d="M81.53,28.29l3,.8-1,.43-3-.8Zm0,0"/><path class="cls-30" d="M84.53,29.09l.49.57-1,.43-.49-.57Zm0,0"/><path class="cls-13" d="M84,31.88l.26-.48.52.15Zm0,0"/><path class="cls-37" d="M90.55,38l-.33-1.18.68-.29.44,1.55Zm0,0"/><path class="cls-26" d="M91.54,34.21l-1.09.47-.14-.36.44-.19Zm0,0"/><path class="cls-38" d="M91,35.89l0,.1-1.16.5,0-.1Zm0,0"/><path class="cls-13" d="M91.05,36.49l0,0-.11,0-.68.29-.38.16,0,0Zm0,0"/><path class="cls-13" d="M91.12,36.29v.08l-1.16.5v-.08Zm0,0"/><path class="cls-23" d="M90.77,35.52v0l-1.16.5v0Zm0,0"/><path class="cls-12" d="M89,31.48l.14.1-1.16.5L87.8,32Zm0,0"/><path class="cls-39" d="M90.79,35.56v0l-1.16.5v0Zm0,0"/><path class="cls-12" d="M88.83,31.43l.13,0L87.8,32l-.13,0Zm0,0"/><path class="cls-40" d="M91.1,36.1v.1L90,36.7v-.1Zm0,0"/><path class="cls-41" d="M90.8,35.57v0l-1.16.5v0Zm0,0"/><path class="cls-42" d="M91.08,36l0,.1-1.16.5,0-.1Zm0,0"/><path class="cls-43" d="M89.1,31.57l.14.14-1.16.5-.14-.14Zm0,0"/><path class="cls-34" d="M89.24,31.71l.13.18-1.16.5-.13-.18Zm0,0"/><path class="cls-44" d="M91,35.79l0,.1-1.16.5,0-.1Zm0,0"/><path class="cls-43" d="M90.84,35.63l.15.16-1.16.5-.15-.16Zm0,0"/><path class="cls-30" d="M90.83,35.62h0l-1.16.5h0Zm0,0"/><path class="cls-34" d="M90.82,35.6h0l-1.16.5h0Zm0,0"/><path class="cls-14" d="M90.81,35.59v0l-1.16.5v0Zm0,0"/><path class="cls-45" d="M90.78,35.54v0l-1.16.5v0Zm0,0"/><path class="cls-46" d="M90.77,35.5v0l-1.16.5v0Zm0,0"/><path class="cls-47" d="M90.76,35.49v0L89.6,36v0Zm0,0"/><path class="cls-43" d="M88.71,31.44h.12l-1.16.5h-.12Zm0,0"/><path class="cls-13" d="M91.09,36.44l0,.05-1.16.5,0-.05Zm0,0"/><path class="cls-13" d="M91.11,36.37l0,.07-1.16.5,0-.07Zm0,0"/><path class="cls-13" d="M91.12,36.2v.09l-1.16.5V36.7Zm0,0"/><path class="cls-17" d="M89.83,36.3l0,.1,0,.1,0,.1v.27l0,.07,0,.05,0,0h-.11l0,0,0,0,0,0,0,0,0,0,0,0,0-.05,0-.06,0-.06,0-.07,0-.07,0-.07-1.68-3.34-.09-.21,0-.12,0-.1,0-.21v-.19l0-.16.07-.11.1-.06h.12l.13,0,.14.1.14.14.13.18L89.6,36v.12h0Zm0,0"/><path class="cls-48" d="M89.6,36l-1.4-3.59,1.16-.5.56,1.44,0,.07.36.92.14.36.31.8Zm0,0"/><path class="cls-49" d="M98.47,34l-.21-.53V32.31l.21.53Zm0,0"/><path class="cls-17" d="M98.47,34V32.84l.44.48v1.19Zm0,0"/><path class="cls-12" d="M98.47,32.84l-.21-.53,0-.55.28-.52.5-.46.7-.37.84-.26h.06l.38,1.47.26.42,1.74-.38.27-.19V31l-.2-.79.26,0,.8.29.65.4.44.48.21.53,0,.55-.28.52-.5.46-.7.37-.05,0-.93-.53-1.53.88h-.21l-.91-.16-.8-.29-.65-.4Zm0,0"/><path class="cls-18" d="M99.56,34.92l-.65-.4V33.33l.65.4Zm0,0"/><path class="cls-29" d="M99.56,34.92V33.73l.8.29v.81l-.4.23Zm0,0"/><path class="cls-13" d="M105.19,34.17l-.26.24-.25-.14v-.82l.5-.46Zm0,0"/><path class="cls-13" d="M105.19,34.17V33l.28-.52v1.19Zm0,0"/><path class="cls-13" d="M104.68,33.45v.82l-.7-.4v0Zm0,0"/><path class="cls-13" d="M105.47,32.46l0-.55V33.1l0,.55Zm0,0"/><path class="cls-33" d="M100.37,34l.91.16v.12l-.91.52Zm0,0"/><path class="cls-34" d="M101.27,34.31v-.12h.21Zm0,0"/><path class="cls-50" d="M104,33.82v0l-.05,0Zm0,0"/><path class="cls-51" d="M101.2,22.6l0,.66-1.74.38,0-.66Zm0,0"/><path class="cls-12" d="M102,26.33l.27.45-1.74.38-.27-.45Zm0,0"/><path class="cls-18" d="M100.26,26.71l.27.45,1.07,4.18v.51l-.27.19-.26-.42-.38-1.47L100,27.49l0-.6-.78-3.09-.24-.43-1-3.86v-.46l.32-.22.19.3,1,3.84,0,.66Zm0,0"/><path class="cls-13" d="M103.34,31.46l-.27.19-1.74.38.27-.19Zm0,0"/><path class="cls-52" d="M103.34,31.46l-1.74.38v-.51l1.74-.38Zm0,0"/><path class="cls-30" d="M101.6,31.33l-1.07-4.18,1.74-.38.87,3.38.2.79Zm0,0"/><path class="cls-30" d="M100.26,26.71l-.78-3.07,1.74-.38.78,3.07Zm0,0"/><path class="cls-30" d="M99.46,23l-1-3.84,1.74-.38.64,2.49.35,1.35Zm0,0"/><path class="cls-12" d="M98.47,19.14l-.19-.3,1.74-.38.19.3Zm0,0"/><path class="cls-18" d="M100.22,18.76l-.19-.3,1.76,1.19.29.63,1.32.93.15-.37L105.18,22l.23.6.18,1.49-.07.25-.33-1.51-.07-.19-.08-.16-.08-.11-.08-.06h-.07l-1.29.28-.84-.59-.45-.32-.15.45-1.21-.83Zm0,0"/><path class="cls-34" d="M104.69,20.6l1.64,1.12-1.16.25-1.64-1.12.64-.14Zm0,0"/><path class="cls-20" d="M106.34,21.71l.23.6-1.16.25-.23-.6Zm0,0"/><path class="cls-13" d="M106.75,23.8l-.1.35-1.11.24,0-.09.07-.25Zm0,0"/><path class="cls-53" d="M106.56,22.31l.18,1.49-1.16.25-.18-1.49Zm0,0"/><path class="cls-34" d="M103.22,20l1,.67-.64.14-.15.37-1.32-.93Zm0,0"/><path class="cls-34" d="M101.18,18.21l1.76,1.19-1.16.25L100,18.46Zm0,0"/><path class="cls-20" d="M102.94,19.4l.29.63-1.16.25-.29-.63Zm0,0"/><path class="cls-13" d="M102.07,22.08l.15-.45.45.32Zm0,0"/><path class="cls-25" d="M105.88,29.1l-.22-1.36.41-.09.26,1.63Zm0,0"/><path class="cls-54" d="M107.14,25.46,107.7,29l-1.36.29-.26-1.63h.07l0,0,0,0,.1-.06.09-.08v-.09l-.09-.1-.06-.11,0-.11,0-.11-.1-.18h0v-.14l-.18-.83Zm0,0"/><path class="cls-55" d="M107.14,25.46l-1.31.28-.06-.27.92-.2Zm0,0"/><path class="cls-14" d="M106.17,27l0,.11-1.36.29,0-.11Zm0,0"/><path class="cls-13" d="M106.17,27.61l0,0h-.07l-.41.09-.88.19,0,0Zm0,0"/><path class="cls-56" d="M106.21,27.42v.08l-1.36.29v-.08Zm0,0"/><path class="cls-34" d="M106,26.61v0l-1.36.29v0Zm0,0"/><path class="cls-12" d="M105,22.33l.08.11-1.36.29-.08-.11Zm0,0"/><path class="cls-43" d="M106,26.64v0l-1.36.29v0Zm0,0"/><path class="cls-34" d="M104.87,22.26l.08.06-1.36.29-.08-.06Zm0,0"/><path class="cls-21" d="M106.21,27.23v.1l-1.36.29v-.1Zm0,0"/><path class="cls-12" d="M106,26.66v0l-1.36.29v0Zm0,0"/><path class="cls-57" d="M106.19,27.12l0,.11-1.36.29,0-.11Zm0,0"/><path class="cls-20" d="M105,22.44l.08.16-1.36.29-.08-.16Zm0,0"/><path class="cls-20" d="M105.11,22.6l.07.19-1.36.29-.07-.19Zm0,0"/><path class="cls-30" d="M106.14,26.91l0,.11-1.36.29,0-.11Zm0,0"/><path class="cls-20" d="M106,26.73l.09.18-1.36.29-.09-.18Zm0,0"/><path class="cls-20" d="M106,26.71h0l-1.36.29h0Zm0,0"/><path class="cls-20" d="M106,26.7v0l-1.36.29v0Zm0,0"/><path class="cls-12" d="M106,26.68v0l-1.36.29v0Zm0,0"/><path class="cls-30" d="M106,26.63v0l-1.36.29v0Zm0,0"/><path class="cls-14" d="M106,26.59v0l-1.36.29v0Zm0,0"/><path class="cls-58" d="M106,26.57v0l-1.36.29v0Zm0,0"/><path class="cls-59" d="M104.8,22.26h.07l-1.36.29h-.07l.07,0Zm0,0"/><path class="cls-13" d="M106.19,27.57l0,0-1.36.29,0,0Zm0,0"/><path class="cls-13" d="M106.21,27.5v.06l-1.36.29V27.8Zm0,0"/><path class="cls-60" d="M106.21,27.33v.09l-1.36.29v-.09Zm0,0"/><path class="cls-18" d="M104.78,27.2l0,.11,0,.11-.22.11-.22.1v.09l.23.08.1.06,0,0v0h0l0,0,0,0,0,0,0,0,0,0,0-.06,0-.06,0-.06,0-.07,0-.07,0-.07,0-.08-1-3.56-.05-.23,0-.23,0-.21v-.19l0-.15,0-.1.06-.05h.07l.08.06.08.11.08.16.07.19.82,3.78V27h0Zm0,0"/><path class="cls-61" d="M104.64,26.86l-.82-3.78,1.36-.29.33,1.51,0,.09.23,1.08.06.27.18.83Zm0,0"/><path class="cls-13" d="M83.68,69V67.87l.82-.28v1.19l-.74.25Zm0,0"/><path class="cls-14" d="M82.76,68V69.2H82V68Zm0,0"/><path class="cls-15" d="M78.64,66.88v.06h0Zm0,0"/><path class="cls-13" d="M85.85,66.19v1.19l-.23.53V66.72Zm0,0"/><path class="cls-13" d="M85.15,67.2l.46-.48v1.19l-.46.48Zm0,0"/><path class="cls-17" d="M78.9,66.77l.07.07-.07,0Zm0,0"/><path class="cls-18" d="M78.9,66.77v.09l-.12,0-.13.06v-.7Zm0,0"/><path class="cls-6" d="M82,69.21h.7l-.42.18-.29.22Zm0,0"/><path class="cls-13" d="M85.15,68.39l-.66.39V67.59l.66-.39Zm0,0"/><path class="cls-12" d="M88.73,61.83h-.67l-2.2,1.72h0l-.1.54-.67.51-2.32,1.78-.75,0-.77-.66v-.51l3-2.32.76,0,2.2-1.72.07-.62.31-.24,2.1.78Zm0,0"/><path class="cls-17" d="M87.28,60.55l-.07.62L85,62.89l.22-1.07,2.07-1.61.06,0Zm0,0"/><path class="cls-19" d="M84.46,61.8l.76,0L85,62.89l-.76,0Zm0,0"/><path class="cls-13" d="M91.74,58.62l-.22,1.07v-.47l.22-1.07Zm0,0"/><path class="cls-13" d="M91.73,58.15l-.22,1.07-.9-.77.22-1.07Zm0,0"/><path class="cls-17" d="M84.25,62.87l-3,2.32.22-1.07.33-.26,2.7-2.06Zm0,0"/><path class="cls-17" d="M89.42,58l.86-.66-.18.91Zm0,0"/><path class="cls-20" d="M90.28,57.35l.55,0-.22,1.07-.51-.19Zm0,0"/><path class="cls-13" d="M85.74,64.12l.1-.54h0Zm0,0"/><path class="cls-12" d="M91.52,59.69l-.87.67.21-.48.14-.71-.4-.72.9.77Zm0,0"/><path class="cls-17" d="M87.59,60.31l-.31.24.07-.33Zm0,0"/><path class="cls-12" d="M90.42,60.88l-.7.22h0l-2.1-.78-.24-.09-.06,0-2.62-1-.44-.72-.7-.26-3-1.09-.89.19-1.77-.66-.08,0-.67-.25L75.87,56,75,55.63l-.28-.51v0l.52-1.17.64-.2,4.66,1.73.43.63,3.74,1.36.81-.14,5,1.85.4.72-.21.48Zm0,0"/><path class="cls-21" d="M80.52,55.46l-4.66-1.73L76,53l.09,0h0l.18.07.21.08.22.08.22.08.2.08.18.07.14.05.07,0,1.46.54,1.64.61Zm0,0"/><path class="cls-22" d="M75.86,53.72l-.64.2.14-.71L76,53Zm0,0"/><path class="cls-13" d="M90.87,59.88l-.4-.72.14-.71.4.72Zm0,0"/><path class="cls-18" d="M75.22,53.93,74.7,55.1l.14-.71.05-.12.47-1.05Zm0,0"/><path class="cls-13" d="M80.95,56.08l-.43-.63.14-.71.16.23.27.39Zm0,0"/><path class="cls-23" d="M84.68,57.44l-3.74-1.36.14-.71,3.19,1.16.55.2Zm0,0"/><path class="cls-21" d="M90.47,59.16l-5-1.85.14-.71.23.09L89.42,58l.67.25.51.19Zm0,0"/><path class="cls-24" d="M85.5,57.31l-.81.14.14-.71.81-.14Zm0,0"/><path class="cls-17" d="M74.85,54.39l-.14.71v0l-1,1.07.17-.83.52-.53.54-.55Zm0,0"/><path class="cls-25" d="M72.55,59.16l.17-.83L72.9,58l.56-.91.84-1.36-.17.83Zm0,0"/><path class="cls-26" d="M72.55,59.16l1.59-2.56,1.3.61-1,1.68-.54.88Zm0,0"/><path class="cls-27" d="M74.14,56.6l.17-.83,1.08.51.22.1-.17.83Zm0,0"/><path class="cls-12" d="M73.26,57l-.07-.07-.06-.08,0-.09,0-.09v-.09l0-.09,0-.08.06-.07.08-.06.26,0h.13l1-1.07.28.51.88.33-.48.32-1.08-.51-.84,1.36h0l-.1,0Zm0,0"/><path class="cls-17" d="M73.21,56.35l-.06.07.17-.83.06-.07Zm0,0"/><path class="cls-17" d="M73.65,56.21h0l.17-.83h0Zm0,0"/><path class="cls-18" d="M73.62,56.24h0l.17-.83h0Zm0,0"/><path class="cls-22" d="M73.1,56.5l0,.09.17-.83,0-.09Zm0,0"/><path class="cls-18" d="M73.61,56.24h0l.17-.83h0Zm0,0"/><path class="cls-18" d="M73.15,56.42l0,.08.17-.83,0-.08Zm0,0"/><path class="cls-17" d="M73.29,56.29l-.08.06.17-.83.08-.06Zm0,0"/><path class="cls-28" d="M73.54,56.27l-.26,0,.17-.83.26,0Zm0,0"/><path class="cls-24" d="M73.56,56.26h0l.17-.83h0Zm0,0"/><path class="cls-29" d="M73.58,56.26h0l.17-.83h0Zm0,0"/><path class="cls-22" d="M73.59,56.25h0l.17-.83h0Zm0,0"/><path class="cls-17" d="M73.64,56.23h0l.17-.83h0Zm0,0"/><path class="cls-17" d="M73.66,56.2h0l.17-.83h0Zm0,0"/><path class="cls-17" d="M73.67,56.19h0l.17-.83h0Zm0,0"/><path class="cls-17" d="M76.1,53l.05-.05v.07Zm0,0"/><path class="cls-29" d="M76.15,53l.21-.07,0,.2-.18-.07Zm0,0"/><path class="cls-28" d="M76.36,52.93l.23,0-.06.3-.21-.08Zm0,0"/><path class="cls-30" d="M76.59,52.91l.23,0-.07.35-.22-.08Zm0,0"/><path class="cls-31" d="M76.82,52.94,77,53l-.07.36-.22-.08Zm0,0"/><path class="cls-32" d="M77,53l.2.11-.07.32-.2-.08Zm0,0"/><path class="cls-13" d="M77.24,53.13l.16.15,0,.24-.18-.07Zm0,0"/><path class="cls-13" d="M77.4,53.27l.11.17,0,.12-.14-.05Zm0,0"/><path class="cls-13" d="M77.51,53.45l0,.15-.07,0Zm0,0"/><path class="cls-12" d="M58.35,54.55l.79-.3.25,0,.19.59L58,55.72l-.59,1.19-.22-.38L57.12,56l.06-.17.13-.36.42-.49Zm0,0"/><path class="cls-18" d="M57.17,56.53l.22.38-.22.44Zm0,0"/><path class="cls-29" d="M57.17,56.53v.82l0,.07,0-.22V56Zm0,0"/><path class="cls-62" d="M59.54,46.67l0,.66-1.67.48,0-.66Zm0,0"/><path class="cls-12" d="M60.55,50.35l.34.43-1.67.48-.34-.43Zm0,0"/><path class="cls-17" d="M58.88,50.82l.34.43,1,3.15-.66.38-.19-.59-.84-2.57,0-.6-1-3-.3-.41L56,43.79v-.46l.4-.24.24.29,1.24,3.77,0,.66Zm0,0"/><path class="cls-63" d="M60.25,54.41l-1-3.15,1.67-.48.9,2.74Zm0,0"/><path class="cls-64" d="M58.88,50.82l-1-3,1.67-.48,1,3Zm0,0"/><path class="cls-63" d="M57.87,47.15l-1.24-3.77,1.67-.48.8,2.45.44,1.33Zm0,0"/><path class="cls-12" d="M56.63,43.37l-.24-.29,1.67-.48.24.29Zm0,0"/><path class="cls-17" d="M58.3,42.9l-.24-.29,2.21,1.08.36.61,1.66.84.19-.38,2.07,1,.29.58.23,1.48L65,48.1l-.41-1.49-.09-.19-.1-.15-.1-.11-.1-.06h-.09l-1.3.37-.07.05-.05.11,0,.12-.15-.27-1.14-.58-.51-.26-.19.46-1.53-.75Zm0,0"/><path class="cls-30" d="M63.59,44.45l2.07,1-1.11.32-2.07-1,.51-.15Zm0,0"/><path class="cls-43" d="M65.66,45.46l.29.58-1.11.32-.29-.58Zm0,0"/><path class="cls-13" d="M66.18,47.52l-.13.36-1.05.3,0-.08.09-.26Zm0,0"/><path class="cls-65" d="M65.95,46l.23,1.48-1.11.32-.23-1.48Zm0,0"/><path class="cls-30" d="M61.74,44l1.25.64-.51.15-.19.38-1.66-.84Zm0,0"/><path class="cls-30" d="M59.16,42.29l2.21,1.08-1.11.32-2.21-1.08Zm0,0"/><path class="cls-12" d="M61.37,43.37l.36.61-1.11.32-.36-.61Zm0,0"/><path class="cls-13" d="M60.63,46.09l.19-.46.51.26Zm0,0"/><path class="cls-66" d="M67.32,52.65,66,53l-.33-1.61.08,0,0,0,0,0,0-.06V51l0-.11,0-.11,0-.1-.11-.18h0v-.14l-.23-.82,1.25-.35.14.68.1.52,0,.24.19.92.08.39,0,.13Zm0,0"/><path class="cls-67" d="M66.61,49.15l-1.25.35-.08-.29L66,49l.25.07Zm0,0"/><path class="cls-37" d="M65.69,51.41,66,53l-.37-.1h0l-.18,0,0-.18-.06-.3-.17-.83Zm0,0"/><path class="cls-39" d="M65.8,50.76l0,.11-1.3.37,0-.11Zm0,0"/><path class="cls-13" d="M65.81,51.36l0,0-.08,0-.52.15-.18.05-.19.05-.06,0-.12,0-.15,0,0,0Zm0,0"/><path class="cls-13" d="M65.86,51.17v.08l-1.3.37v-.08Zm0,0"/><path class="cls-68" d="M65.6,50.37v0l-1.3.37v0Zm0,0"/><path class="cls-12" d="M64.26,46.15l.1.11-1.3.37-.1-.11Zm0,0"/><path class="cls-34" d="M65.61,50.4v0l-1.3.37v0Zm0,0"/><path class="cls-30" d="M64.17,46.1l.1.06-1.3.37-.1-.06Zm0,0"/><path class="cls-69" d="M65.84,51v.1l-1.3.37v-.1Zm0,0"/><path class="cls-30" d="M65.62,50.42v0l-1.3.37v0Zm0,0"/><path class="cls-23" d="M65.82,50.87l0,.11-1.3.37,0-.11Zm0,0"/><path class="cls-12" d="M64.37,46.26l.1.15-1.3.37-.1-.15Zm0,0"/><path class="cls-43" d="M64.47,46.41l.09.19-1.3.37-.09-.19Zm0,0"/><path class="cls-14" d="M65.76,50.66l0,.1-1.3.37,0-.1Zm0,0"/><path class="cls-12" d="M65.65,50.48l.11.18-1.3.37-.11-.18Zm0,0"/><path class="cls-12" d="M65.64,50.47h0l-1.3.37h0Zm0,0"/><path class="cls-43" d="M65.63,50.45v0l-1.3.37v0Zm0,0"/><path class="cls-43" d="M65.63,50.44v0l-1.3.37v0Zm0,0"/><path class="cls-14" d="M65.61,50.38v0l-1.3.37v0Zm0,0"/><path class="cls-39" d="M65.6,50.35v0l-1.3.37v0Zm0,0"/><path class="cls-53" d="M65.59,50.33v0l-1.3.37v0Zm0,0"/><path class="cls-63" d="M64.08,46.09h.09l-1.3.37h-.09Zm0,0"/><path class="cls-13" d="M65.83,51.31l0,0-1.3.37,0,0Zm0,0"/><path class="cls-13" d="M65.85,51.25l0,.06-1.3.37,0-.06Zm0,0"/><path class="cls-70" d="M65.85,51.08v.09l-1.3.37v-.09Zm0,0"/><path class="cls-17" d="M64.46,51l0,.1,0,.11,0,.11v.27l0,.06,0,0,0,0h-.08l0,0,0,0,0,0,0,0,0,0,0,0,0-.05v0l0,0,0-.06,0-.07,0-.07,0-.07,0-.07-.19-.53-1.05-3-.07-.22,0-.23,0-.21v-.22l0-.12.05-.11.07-.05h.09l.1.06.1.11.1.15.09.19,1,3.72v.14h0Zm0,0"/><path class="cls-71" d="M64.29,50.7l-1-3.72,1.3-.37L65,48.1l0,.08.29,1,.08.29.23.82Zm0,0"/><path class="cls-2" d="M150.39,19.19V44.81l-51-29.32V.12l25,4.41V14.78Zm-.36,0"/><path class="cls-6" d="M150,44.81l-99.2,57.28L0,72.77,99.25,15.5Zm-57.62-9L92,36l-.49-1.83-.77-.08-.44.19-.36-.92.91-.4.18-.37-.31-1.45-.39-.55-2.81-.75-.66.29L85,29.66l-.49-.57-3-.8-1,.43L79,29.36l-.55.29v.47l1.69,3.63.41.37L81.93,37l.06.6L83.09,40l-.57.18-.68.38-.49.47-.11.53.14.55V43.3l.08.53.39.48.62.39.8.28.44.09-1.32,1.76v0l-4.52-2.67-5.39,3.14-.06.17h0l-.2,0-.19.05-.16.08-.12.1-.19.12-.14.12v.38l0-.06-.14,0H71l-.19,0-.18.05-.16.08-.12.1,0,.12,0,.12v.38l-.19-.06L70,49h-.22l-.21,0-.19.05-.16.08-.12.1.14.12.19.12v.38L69,49.85l-.3,0h-.26l-.23,0-.2.05-.17.08-.12.1-.2.12-.15.12v.38l0-.06-.14,0H67l-.16,0,0-.24h.09l.21,0,.19-.05.16-.08.12-.1L67.53,50l-.15-.12v-.38l.31.06.28,0h.25l.23,0,.2-.05.17-.08.12-.1.24-.12.19-.12v-.38l0,.06.12,0h.17l.19,0,.18-.05.16-.08.12-.1.07-.12,0-.12v-.38l.14.06.2,0h.21l.21,0,.19-.05.16-.08.12-.1-.09-.12-.14-.12V47l.12-.12v-.11l-.1-.09-.16-.07-.19,0h-.21l-.21,0-.19.05-.16.08-.12.1.08.12.14.12v.38l-.3-.06-.28,0h-.25l-.23,0-.2.05-.17.08-.12.1-.25.12-.2.12v.38l0-.06-.11,0h-.17l-.19,0-.18.05-.16.08-.12.1-.09.12,0,.12V49L67.25,49l-.19,0h-.21l-.21,0-.19.05-.16.08h0L66,49l-.75.21-.29-1,1.05-.3.13-.36L65.95,46l-.29-.58-2.07-1-.6.17L61.74,44l-.36-.61-2.21-1.08-1.11.32-1.67.48-.4.24v.46l1.25,3.79.3.41,1,3,0,.6.84,2.57-.25,0-.79.3-.63.41-.32.49,0,.36v-2.2l-.18-.32-.27-.3-.37-.26-.46-.2-.53-.13-.57,0-.56,0-.52.13-.35.2-.19.22V51.31L53.21,51l-.27-.3-.37-.26-.46-.2-.53-.13-.57,0-.56,0-.52.13-.45.2-.35.26-.44.3-.3.32v3.33l.3.32.33.3.4.26.48.2.54.13.57,0,.57,0,.53-.13.23-.2.06-.22v1.64l.3.32.33.3.4.26.48.2.54.13.57,0,.57,0,.53-.13.45-.2.35-.26.22-.3,0-.07,0,.22-1.69,3.31-2.06,2.89v1.18l-4.6-2.69.36-.08.47-.2.35-.26.28-.3.14-.32V57.61l-.13-.32L50,57l-.36-.26-.46-.2-.53-.13-.56,0-.56,0-.52.13-.39.2-.23.22V55.3L46.25,55l-.25-.3-.36-.26-.46-.2-.53-.13-.56,0-.56,0-.52.13-.45.2-.35.26V55l.16.32v3.33l-.16.32.1.3.29.26.42.2.51.13.55,0,.56,0,.52-.13.68-.2.52-.22v1.64l-.16.32.1.3.29.26L47,62h0l-4.61,2.66-2.27,5-1.8,2.89v3.11l1.56,1-1.56.8v1.77l.63.38L41.92,78l1.1.78-1.64.8v1.77l.91.38,3-1.69.25.11.58-.32.11.09,1,.55.32.1.37,0,.4-.17.4-.29.37-.39.32-.47.24-.51.15-.52.05-.49,3.23-1.87.1.09,1,.55.32.1.37,0,.4-.17.4-.29.37-.39.32-.47.24-.51.15-.52.16-.49.49-.22v-.22L61.11,71l.14.11,1.13-.67v-.24l2.85-1.65.19.11,3.84-2.22,0-.24,2.85-1.65,0,.11.22-.22v-.22l3-1.63.27.11,1.2-.67,0-.24,2.86-1.65.2.11,3.58-2.07.7.26.44.72,2.62,1-2.07,1.61-.76.13-2.7,2.21h-1l-.82.21-.66.36-.59.46-.36.51v1.19l.13.07-.24.14-.31.26-.36.3-.21.32V71.3l.23.32.29.3.38.26.47.2.53.13.57,0,.56,0,.53-.13.3-.2.13-.22v1.64l.23.32.29.3.38.26.47.2.53.13.57,0,.56,0,.53-.13.45-.2.35-.26.39-.3.25-.32V70.28L86.14,70l-.3-.3-.39-.26-.47-.2-.53-.13-.57,0h-.11l.74-.25.66-.39.23-.48V66.19l.22-.55-.14-.53L85,64.65v0l.68-.51.12-.56L88,61.84h.68l1-.74h0l.7-.22.23-.53.87-.67.22-1.07v-.47l-.9-.77-.55,0-.86.66-3.55-1.32.8-.46.26.11.45-.22v-.22l2.75-1.63.16.11,1.14-.67,0-.24,2.85-1.65.19.11,3.84-2.22,0-.24,2.85-1.65v.11l.18-.22V47.5l3.46-1.89.29.11,1.2-.67,0-.24,2.87-1.65,0,.11,1.08-.71v-.22L113,40.93l.27.11,2.65-1.51.07-.44,1.48.53.44.72,2.62,1-2.07,1.61-.76.07L115,45.15h0l-.91.06-.82.24-.66.37-.71.47-.48.52V48l.26.55.38.53.55.47.71.38.84.27.93.14h1l.92-.15.82-.28.66-.39L119,49l.38-.53V47.3l-.15-.55-.33-.53-.52-.47,0,0,.66-.51.11-.56L121.3,43H122l1-.74h0l.7-.22.23-.53.87-.67.22-1.07v-.47l-.9-.77-.55,0-.86.66-3.79-1.41-.81.14-1.2-.44.23-.25.4-.29,1.52.89.37-.22V34.43L117.79,30l-7.54-4.43-.87.58v3.59l-4,2v3.08l-.6-.43.33-.24.26-.52V31.92l-.15-.53-.42-.48-.63-.4-.8-.29-.25,0-.87-3.38-.27-.45-.78-3.07,0-.66-.35-1.35,1.21.83.61-.13.84.59-.07,0-.06.05,0,.1,0,.15V23l0,.21,0,.23.05.23,1,3.56,0,.08,0,.07,0,.07,0,.07,0,.06,0,.06,0,.06,0,0,0,0,0,0,0,0,0,0h.07l.88-.19.22,1.36.46.18L107.7,29l-.56-3.53-.46-.18-.92.2-.23-1.08,1.11-.24.1-.35-.18-1.49-.23-.6-1.64-1.12-.51.11-1-.67-.29-.63-1.76-1.19-1.16.25-1.74.38-.32.22v.46l1,3.86.24.43.78,3.09,0,.6.68,2.65h-.06l-.84.26-.7.37-.5.46-.22.52,0,.55V33.5l.15.53.41.48.63.4.39.15-.5.24-2.09,2.89v.53ZM90.14,64.54l.09.12.15.12v.51l-.13.12v.11l.1.09.15.07.19,0h.21l.21,0,.19-.05.16-.08.12-.1-.08-.12-.13-.12v-.38l.3.06L92,65h.25l.23,0,.2-.05.17-.08.12-.1.26-.12.2-.12v-.38l0,.06.11,0h.17l.19,0,.18-.05.16-.08.12-.1.09-.12,0-.12v-.38l.13.06.19,0h.21l.21,0,.19-.05.16-.08.12-.1-.07-.12-.13-.12v-.38l.29.06.27,0h.25l.23,0,.2-.05.17-.08.12-.1.26-.12.21-.12v-.51l-.23-.12L97,61.42l-.19-.09-.2-.07-.21,0h-.22l-.21,0-.19.05-.16.08-.12.1-.07.12v.51L95.23,62,95,62h-.21l-.21,0-.19.05-.16.08-.12.1.1.12.15.12v.38l-.32-.06-.28,0h-.25l-.23,0-.2.05-.17.08-.12.1-.24.12-.18.12v.38l0-.06-.12,0h-.17l-.19,0-.18.05-.16.08-.12.1-.07.12,0,.12v.38l-.15-.06-.2,0h-.21l-.21,0-.19.05-.16.08Zm2.44-3.2-.13.12-.07.12V62l-.09-.06-.17,0h-.2l-.2,0-.19.05-.16.08-.12.1,0,.12.09.12v.38l-.26-.06-.26,0h-.24l-.22,0-.2.05-.16.08-.12.1-.3.12-.24.12v.38l.07-.06-.09,0h-.16l-.18,0-.18.05-.15.08-.12.1-.13.12-.07.12v.51l.1.12.12.11.15.09.18.07.2,0h.21l.21,0,.19-.05.16-.08.12-.1.2-.12.15-.12V64l0,.06.14,0h.18l.19,0L91.1,64l.16-.08.12-.1,0-.12,0-.12v-.38l.19.06.22,0H92l.21,0,.19-.05.16-.08.12-.1-.13-.12-.19-.12v-.38l.35.06.3,0h.26l.23,0,.2-.05.17-.08.12-.1.2-.12.15-.12v-.38l0,.06.13,0h.18l.19,0,.18-.05.16-.08.12-.1,0-.12,0-.12v-.63l-.07-.11-.13-.09L95,60.36l-.2,0H94.6l-.21,0-.19.05-.16.08-.12.1-.29.12-.24.12v.38l.07-.06-.09,0h-.16l-.18,0-.18.05-.15.08Zm-20.71,15,.52.13.56,0,.56,0,.52-.13.25-.2.09-.22V77.6l.27.32.32.3.39.26.47.2.54.13.57,0,.57,0,.53-.13.45-.2.35-.26.35-.3.2-.32V74.27l-.2-.32-.28-.3-.38-.26-.47-.2-.53-.13L77,73l-.56,0-.52.13-.32.2-.16.22V72l-.2-.32-.28-.3-.38-.26-.47-.2-.53-.13-.57,0-.56,0-.52.13-.45.2-.35.26-.42.3-.27.32v3.33l.27.32.32.3.4.26Zm16.7-11.65,0-.12-.09-.11-.14-.09-.18-.07-.2,0h-.21l-.21,0-.19.05-.16.08-.12.1-.07.12,0,.12v.51l0,.12.09.11.14.09.18.07.2,0h.21l.21,0,.19-.05.16-.08.12-.1.07-.12,0-.12Zm1.55.9,0-.12L90,65.39l-.14-.09-.18-.07-.2,0h-.21l-.21,0-.19.05-.16.08-.12.1-.07.12,0,.12v.51l0,.12.09.11.14.09.18.07.2,0h.21l.21,0,.19-.05.16-.08.12-.1.07-.12,0-.12ZM36.22,72.48,35.85,72l-.56-.45-.74-.35-.86-.23L33,70.86l-.17-.19L30.1,69l-.68.17-1.15-.75,0-.18-.86-1-.87-.55,3.07-2,.39-.81,3.32-2.1h.8l2.65-1.7.27.3.14.1.51.26.9,1.42.67.74,1.16-.87-.15-.24h0l.07,0,.07,0,.09-.07.08-.08.07-.09.05-.09,0-.09,0-.09v-.09l0-.08,0-.07L40,60.28,40,60.22l-.07-.07h-.25l0,0h-.06l0,0L38.31,59l.19-.42L38,57.52l-.57-.63-.57-.08-4.16,2.67-.38.71L29,62.3l-.72,0-4.44,2.85-.35.8.26.61-.15.17v.47l.86,1L27,69.77l.6-.12,1.19.78v.08l.86,1,.2.13-.31.21-.19.5.05.54V74l-.14.55.21.52.49.45.7.35.85.23.93.1.94,0,.89-.19.78-.31.61-.42.49-.5.25-.54V73ZM108.43,62.4l7-4V54.83l-7.72-4.43L103.2,53l-2.46,5Zm0,0"/><path class="cls-4" d="M.39,72.77V57.4L99.39.12V15.5Zm-.34,0"/><path class="cls-2" d="M91.59,65l-.12.1-.16.08-.19.05-.21,0H90.7l-.2,0-.18-.07L90.19,65l-.09-.11,0-.12,0-.12.07-.12.12-.1.16-.08.19-.05.21,0H91l.2,0,.15.06h0l.09.06,0,0,.09.11v0l0,.08,0,.12Zm0,0"/><path class="cls-4" d="M91.47,65.07l.12-.1v.51l-.12.1Zm0,0"/><path class="cls-5" d="M91.12,65.71l-.21,0v-.51l.21,0Zm0,0"/><path class="cls-7" d="M91.12,65.71V65.2l.19-.05v.51Zm0,0"/><path class="cls-2" d="M90.91,65.22v.51H90.7v-.51Zm0,0"/><path class="cls-4" d="M91.31,65.66v-.51l.16-.08v.51Zm0,0"/><path class="cls-4" d="M91.67,65.36l-.07.12V65l.07-.12Zm0,0"/><path class="cls-4" d="M91.67,65.36v-.51l0-.12v.51Zm0,0"/><path class="cls-2" d="M90.7,65.73l-.2,0v-.51l.2,0Zm0,0"/><path class="cls-2" d="M90.5,65.68l-.18-.07V65.1l.18.07Zm0,0"/><path class="cls-2" d="M90.32,65.62l-.14-.09V65l.14.09Zm0,0"/><path class="cls-2" d="M90.19,65.52l-.09-.11V64.9l.09.11Zm0,0"/><path class="cls-2" d="M90.09,65.41l0-.12v-.51l0,.12Zm0,0"/><path class="cls-2" d="M91.64,64.61l-.09-.11,0,0v-.23l.14.09v.27Zm0,0"/><path class="cls-2" d="M94.07,62.35l.07-.12.12-.1.16-.08.19-.05.21,0H95l.2,0,.15.06h0l.09.06,0,0,.09.11v0l0,.08,0,.12-.07.12-.12.1-.16.08-.19.05-.21,0h-.21l-.2,0-.18-.07-.14-.09-.09-.11,0-.12Zm0,0"/><path class="cls-4" d="M95.47,62.76l.12-.1v.51l-.12.1Zm0,0"/><path class="cls-5" d="M95.12,63.41l-.21,0v-.51l.21,0Zm0,0"/><path class="cls-7" d="M95.12,63.41v-.51l.19-.05v.51Zm0,0"/><path class="cls-2" d="M94.91,62.92v.51h-.21v-.51Zm0,0"/><path class="cls-4" d="M95.31,63.35v-.51l.16-.08v.51Zm0,0"/><path class="cls-4" d="M95.66,63.06l-.07.12v-.51l.07-.12Zm0,0"/><path class="cls-4" d="M95.66,63.06v-.51l0-.12v.51Zm0,0"/><path class="cls-2" d="M94.69,63.42l-.2,0v-.51l.2,0Zm0,0"/><path class="cls-2" d="M94.49,63.38l-.15-.06v-.13l0-.08V62.8l.18.07Zm0,0"/><path class="cls-2" d="M95.64,62.3l-.09-.11,0,0v-.23l.14.09v.27Zm0,0"/><path class="cls-2" d="M94.09,62.59l.09.11v.23l-.09-.06Zm0,0"/><path class="cls-2" d="M94.18,62.7l.14.09v.27L94.21,63l0,0Zm0,0"/><path class="cls-2" d="M94,62.86v-.38l0,.12v.28h0Zm0,0"/><path class="cls-2" d="M91.4,63.89l.07-.12.12-.1.16-.08.19-.05.21,0h.21l.2,0,.15.06h0l.09.06,0,0,.09.11v0L93,64l0,.12-.07.12-.12.1-.16.08-.19.05-.21,0H92l-.2,0-.18-.07-.14-.09-.09-.11,0-.12Zm0,0"/><path class="cls-4" d="M92.81,64.3l.12-.1v.51l-.12.1Zm0,0"/><path class="cls-5" d="M92.45,64.94l-.21,0v-.51l.21,0Zm0,0"/><path class="cls-7" d="M92.45,64.94v-.51l.19-.05v.51Zm0,0"/><path class="cls-2" d="M92.24,64.45V65H92v-.51Zm0,0"/><path class="cls-4" d="M92.64,64.89v-.51l.16-.08v.51Zm0,0"/><path class="cls-4" d="M93,64.59l-.07.12V64.2l.07-.12Zm0,0"/><path class="cls-4" d="M93,64.59v-.51L93,64v.51Zm0,0"/><path class="cls-2" d="M92,65l-.2,0V64.4l.2,0Zm0,0"/><path class="cls-2" d="M91.83,64.92l-.15-.06v-.13l0-.08v-.31l.18.07Zm0,0"/><path class="cls-2" d="M93,63.84l-.09-.11,0,0v-.23l.14.09v.27Zm0,0"/><path class="cls-2" d="M91.43,64.13l.09.11v.23l-.09-.06Zm0,0"/><path class="cls-2" d="M91.39,64.39V64l0,.12v.28h0Zm0,0"/><path class="cls-2" d="M97,61.53l0,.12,0,.12-.07.12-.12.1-.16.08-.19.05-.21,0H96l-.2,0L95.65,62l-.14-.09-.09-.11,0-.12,0-.12.07-.12.12-.1.16-.08.19-.05.21,0h.21l.2,0,.18.07.14.09Zm0,0"/><path class="cls-4" d="M96.8,62l.12-.1v.51l-.12.1Zm0,0"/><path class="cls-4" d="M97,61.65v.51l0,.12v-.51Zm0,0"/><path class="cls-5" d="M96.45,62.64l-.21,0v-.51l.21,0Zm0,0"/><path class="cls-7" d="M96.45,62.64v-.51l.19-.05v.51Zm0,0"/><path class="cls-2" d="M96.24,62.15v.51H96v-.51Zm0,0"/><path class="cls-4" d="M96.64,62.58v-.51L96.8,62v.51Zm0,0"/><path class="cls-4" d="M97,61.78v.51l-.07.12v-.51Zm0,0"/><path class="cls-2" d="M96,62.65l-.2,0V62.1l.2,0Zm0,0"/><path class="cls-2" d="M95.83,62.61l-.15-.06v-.13l0-.08V62l.18.07Zm0,0"/><path class="cls-2" d="M95.42,61.82l.09.11v.23l-.09-.06Zm0,0"/><path class="cls-2" d="M95.38,62.09V61.7l0,.12v.28h0Zm0,0"/><path class="cls-2" d="M92.73,63.12l.07-.12.12-.1.16-.08.19-.05.21,0h.21l.2,0,.15.06h0l.09.06,0,0,.09.11v0l0,.08,0,.12-.07.12-.12.1-.16.08-.19.05-.21,0h-.21l-.2,0L93,63.57l-.14-.09-.09-.11,0-.12Zm0,0"/><path class="cls-4" d="M94.14,63.53l.12-.1v.51l-.12.1Zm0,0"/><path class="cls-5" d="M93.78,64.17l-.21,0v-.51l.21,0Zm0,0"/><path class="cls-7" d="M93.78,64.17v-.51l.19-.05v.51Zm0,0"/><path class="cls-2" d="M93.58,63.68v.51h-.21v-.51Zm0,0"/><path class="cls-4" d="M94,64.12v-.51l.16-.08V64Zm0,0"/><path class="cls-4" d="M94.33,63.83l-.07.12v-.51l.07-.12Zm0,0"/><path class="cls-4" d="M94.33,63.83v-.51l0-.12v.51Zm0,0"/><path class="cls-2" d="M93.36,64.19l-.2,0v-.51l.2,0Zm0,0"/><path class="cls-2" d="M93.16,64.15,93,64.09V64l0-.08v-.31l.18.07Zm0,0"/><path class="cls-2" d="M92.76,63.36l.09.11v.23l-.09-.06Zm0,0"/><path class="cls-2" d="M92.72,63.62v-.38l0,.12v.28h0Zm0,0"/><path class="cls-2" d="M60.39,68.27l.12.17.1.19.06.19,0,.19v.17l-.05.13-.08.09-.11,0h-.14l-.15-.05-.15-.1-.14-.14L59.75,69l-.1-.19-.06-.19,0-.19v-.17l0-.13L59.7,68l.11,0H60l.15.05.15.1Zm0,0"/><path class="cls-2" d="M94,61.76l-.12.1-.16.08-.19.05-.21,0h-.21l-.2,0-.18-.07-.14-.09-.09-.11,0-.12,0-.12.07-.12.12-.1.16-.08.19-.05.21,0h.21l.2,0,.15.06h0l.09.06,0,0,.09.11v0l0,.08,0,.12Zm0,0"/><path class="cls-4" d="M93.92,61.86l.12-.1v.51l-.12.1Zm0,0"/><path class="cls-5" d="M93.56,62.51l-.21,0V62l.21,0Zm0,0"/><path class="cls-7" d="M93.56,62.51V62l.19-.05v.51Zm0,0"/><path class="cls-2" d="M93.35,62v.51h-.21V62Zm0,0"/><path class="cls-4" d="M93.75,62.46v-.51l.16-.08v.51Zm0,0"/><path class="cls-4" d="M94.11,62.16l-.07.12v-.51l.07-.12Zm0,0"/><path class="cls-4" d="M94.11,62.16v-.51l0-.12V62Zm0,0"/><path class="cls-2" d="M93.14,62.52l-.2,0V62l.2,0Zm0,0"/><path class="cls-2" d="M92.94,62.48l-.15-.06v-.13l0-.08V61.9l.18.07Zm0,0"/><path class="cls-2" d="M94.08,61.4,94,61.29l0,0V61l.14.09v.27Zm0,0"/><path class="cls-2" d="M92.54,61.7l.09.11V62L92.54,62Zm0,0"/><path class="cls-2" d="M92.63,61.81l.14.09v.27l-.09-.11,0,0Zm0,0"/><path class="cls-2" d="M92.5,62v-.38l0,.12V62h0Zm0,0"/><path class="cls-2" d="M95.42,60.64l0,.12,0,.12-.07.12-.12.1-.16.08-.19.05-.21,0h-.21l-.2,0-.18-.07L94,61l-.09-.11,0-.12,0-.12.07-.12.12-.1.16-.08.19-.05.21,0h.21l.2,0,.18.07.14.09Zm0,0"/><path class="cls-4" d="M95.25,61.1l.12-.1v.51l-.12.1Zm0,0"/><path class="cls-4" d="M95.45,60.76v.51l0,.12v-.51Zm0,0"/><path class="cls-5" d="M94.89,61.74l-.21,0v-.51l.21,0Zm0,0"/><path class="cls-7" d="M94.89,61.74v-.51l.19-.05v.51Zm0,0"/><path class="cls-2" d="M94.68,61.25v.51h-.21v-.51Zm0,0"/><path class="cls-4" d="M95.09,61.69v-.51l.16-.08v.51Zm0,0"/><path class="cls-4" d="M95.44,60.88v.51l-.07.12V61Zm0,0"/><path class="cls-2" d="M94.47,61.75l-.2,0V61.2l.2,0Zm0,0"/><path class="cls-2" d="M94.27,61.71l-.15-.06v-.13l0-.08v-.31l.18.07Zm0,0"/><path class="cls-2" d="M93.87,60.93,94,61v.23l-.09-.06Zm0,0"/><path class="cls-2" d="M93.83,61.19v-.38l0,.12v.28h0Zm0,0"/><path class="cls-2" d="M88.52,63.76l.07-.12.12-.1.16-.08.19-.05.21,0h.21l.2,0,.15.06h0l.09.06,0,0,.09.11v0l0,.08,0,.12-.07.12-.12.1-.16.08-.19.05-.21,0h-.21l-.2,0-.18-.07-.14-.09L88.54,64l0-.12Zm0,0"/><path class="cls-4" d="M89.92,64.17l.12-.1v.51l-.12.1Zm0,0"/><path class="cls-5" d="M89.57,64.82l-.21,0v-.51l.21,0Zm0,0"/><path class="cls-7" d="M89.57,64.82V64.3l.19-.05v.51Zm0,0"/><path class="cls-2" d="M89.36,64.33v.51h-.21v-.51Zm0,0"/><path class="cls-4" d="M89.76,64.76v-.51l.16-.08v.51Zm0,0"/><path class="cls-4" d="M90.11,64.47l-.07.12v-.51l.07-.12Zm0,0"/><path class="cls-4" d="M90.11,64.47V64l0-.12v.51Zm0,0"/><path class="cls-2" d="M89.15,64.83l-.2,0v-.51l.2,0Zm0,0"/><path class="cls-2" d="M88.95,64.79l-.18-.07v-.51l.18.07Zm0,0"/><path class="cls-2" d="M88.77,64.72l-.14-.09v-.51l.14.09Zm0,0"/><path class="cls-2" d="M88.63,64.63l-.09-.11V64l.09.11Zm0,0"/><path class="cls-2" d="M88.54,64.51l0-.12v-.51l0,.12Zm0,0"/><path class="cls-2" d="M90.09,63.71,90,63.6l0,0v-.23l.14.09v.27Zm0,0"/><path class="cls-2" d="M91.18,62.22l.07-.12.12-.1.16-.08.19-.05.21,0h.21l.2,0,.15.06h0l.09.06,0,0,.09.11v0l0,.08,0,.12-.07.12-.12.1-.16.08-.19.05-.21,0h-.21l-.2,0-.18-.07-.14-.09-.09-.11,0-.12Zm0,0"/><path class="cls-4" d="M92.58,62.63l.12-.1V63l-.12.1Zm0,0"/><path class="cls-5" d="M92.23,63.28l-.21,0v-.51l.21,0Zm0,0"/><path class="cls-7" d="M92.23,63.28v-.51l.19-.05v.51Zm0,0"/><path class="cls-2" d="M92,62.79v.51h-.21v-.51Zm0,0"/><path class="cls-4" d="M92.42,63.23v-.51l.16-.08v.51Zm0,0"/><path class="cls-4" d="M92.77,62.93,92.7,63v-.51l.07-.12Zm0,0"/><path class="cls-4" d="M92.77,62.93v-.51l0-.12v.51Zm0,0"/><path class="cls-2" d="M91.81,63.29l-.2,0v-.51l.2,0Zm0,0"/><path class="cls-2" d="M91.61,63.25l-.15-.06v-.13l0-.08v-.31l.18.07Zm0,0"/><path class="cls-2" d="M91.2,62.46l.09.11v.23l-.09-.06Zm0,0"/><path class="cls-2" d="M91.3,62.57l.14.09v.27l-.09-.11,0,0Zm0,0"/><path class="cls-2" d="M91.16,62.73v-.38l0,.12v.28h0Zm0,0"/><path class="cls-2" d="M89.85,63l.07-.12.12-.1.16-.08.19-.05.21,0h.21l.2,0,.15.06h0l.09.06,0,0,.09.11v0l0,.08,0,.12-.07.12-.12.1-.16.08-.19.05-.21,0h-.21l-.2,0-.18-.07L90,63.34l-.09-.11,0-.12Zm0,0"/><path class="cls-4" d="M91.25,63.4l.12-.1v.51l-.12.1Zm0,0"/><path class="cls-5" d="M90.9,64l-.21,0v-.51l.21,0Zm0,0"/><path class="cls-7" d="M90.9,64v-.51l.19-.05V64Zm0,0"/><path class="cls-2" d="M90.69,63.56v.51h-.21v-.51Zm0,0"/><path class="cls-4" d="M91.09,64v-.51l.16-.08v.51Zm0,0"/><path class="cls-4" d="M91.44,63.7l-.07.12V63.3l.07-.12Zm0,0"/><path class="cls-4" d="M91.44,63.7v-.51l0-.12v.51Zm0,0"/><path class="cls-2" d="M90.48,64.06l-.2,0v-.51l.2,0Zm0,0"/><path class="cls-2" d="M90.28,64,90.13,64v-.13l0-.08v-.31l.18.07Zm0,0"/><path class="cls-2" d="M89.87,63.23l.09.11v.23l-.09-.06Zm0,0"/><path class="cls-2" d="M89.83,63.5v-.38l0,.12v.28h0Zm0,0"/><path class="cls-2" d="M71.87,75.27v1.11l-.45-.2V75.07Zm0,0"/><path class="cls-2" d="M71.87,76.37V75.27l.52.13V76.5Zm0,0"/><path class="cls-2" d="M72.4,75.39l-.52-.13V74.16l.52.13Zm0,0"/><path class="cls-4" d="M74.78,76l-.29.22V75.07l.29-.22V76Zm0,0"/><path class="cls-4" d="M74.78,74.85l-.29.22V74l.35-.26V74l-.06.25Zm0,0"/><path class="cls-4" d="M74.49,75.07v1.11l-.45.2V75.27Zm0,0"/><path class="cls-2" d="M72.4,76.5V75.39l.56,0v1.11Zm0,0"/><path class="cls-9" d="M73.52,76.5l-.56,0V75.43l.56,0Zm0,0"/><path class="cls-8" d="M74,76.37l-.52.13V75.39l.52-.13Zm0,0"/><path class="cls-2" d="M71.87,75.27l-.45-.2V74l.45.2Zm0,0"/><path class="cls-2" d="M71.42,75.07v1.11l-.35-.26V74.81Zm0,0"/><path class="cls-2" d="M71.08,74.81v1.11l-.22-.3V74.51Zm0,0"/><path class="cls-2" d="M70.86,74.51v1.11l-.07-.32V74.18Zm0,0"/><path class="cls-8" d="M74,75.27l-.52.13V74.28l.52-.13Zm0,0"/><path class="cls-4" d="M74.49,75.07l-.45.2V74.16l.45-.2Zm0,0"/><path class="cls-9" d="M73.52,75.39l-.56,0V74.33l.56,0Zm0,0"/><path class="cls-2" d="M70.86,74.51l-.07-.32V73.07l.07.32Zm0,0"/><path class="cls-2" d="M71.08,74.81l-.22-.3V73.4l.22.3Zm0,0"/><path class="cls-2" d="M71.42,75.07l-.35-.26V73.7l.35.26Zm0,0"/><path class="cls-2" d="M73,75.43l-.56,0V74.28l.56,0Zm0,0"/><path class="cls-4" d="M78.83,78.22l-.35.26V77.37l.35-.26Zm0,0"/><path class="cls-4" d="M78.83,77.11l-.35.26V76.27l.35-.26Zm0,0"/><path class="cls-4" d="M78.49,77.37v1.11l-.45.2V77.57Zm0,0"/><path class="cls-4" d="M78.83,78.22V77.11l.22-.3v1.11Zm0,0"/><path class="cls-4" d="M79.12,76.49V77.6l-.07.32V76.81Zm0,0"/><path class="cls-2" d="M76.39,78.81l-.52-.13V77.57l.52.13Zm0,0"/><path class="cls-2" d="M75.87,77.57v1.11l-.45-.2V77.37Zm0,0"/><path class="cls-2" d="M76.39,77.7l-.52-.13V76.46l.52.13Zm0,0"/><path class="cls-2" d="M76.39,78.81V77.7l.56,0v1.11Zm0,0"/><path class="cls-9" d="M77.51,78.81l-.56,0V77.74l.56,0Zm0,0"/><path class="cls-8" d="M78,78.68l-.52.13V77.7l.52-.13Zm0,0"/><path class="cls-2" d="M75.87,77.57l-.45-.2V76.27l.45.2Zm0,0"/><path class="cls-2" d="M75.42,77.37v1.11l-.35-.26V77.11Zm0,0"/><path class="cls-2" d="M75.07,77.11v1.11l-.22-.3V76.81Zm0,0"/><path class="cls-2" d="M74.85,76.81v1.11l-.07-.32V76.49Zm0,0"/><path class="cls-4" d="M79.12,76.49l-.07.32V75.7l.07-.32Zm0,0"/><path class="cls-8" d="M78,77.57l-.52.13V76.59l.52-.13Zm0,0"/><path class="cls-4" d="M79.05,76.81l-.22.3V76l.22-.3Zm0,0"/><path class="cls-4" d="M78.49,77.37l-.45.2V76.46l.45-.2Zm0,0"/><path class="cls-9" d="M77.51,77.7l-.56,0V76.63l.56,0Zm0,0"/><path class="cls-2" d="M74.85,76.81l-.07-.32V75.38l.07.32Zm0,0"/><path class="cls-2" d="M75.07,77.11l-.22-.3V75.7l.22.3Zm0,0"/><path class="cls-2" d="M75.42,77.37l-.35-.26V76l.35.26Zm0,0"/><path class="cls-2" d="M77,77.74l-.56,0V76.59l.56,0Zm0,0"/><path class="cls-2" d="M78.49,73.38l.35.26.22.3.07.32-.07.32-.22.3-.35.26-.45.2-.52.13-.56,0-.56,0-.52-.13-.45-.2-.35-.26-.22-.3-.07-.32.06-.25,0-.07.2-.28,0,0,.06,0,.29-.22.45-.2.52-.13L77,73l.56,0,.52.13Zm0,0"/><path class="cls-4" d="M78.49,75.16l.35-.26V76l-.35.26Zm0,0"/><path class="cls-4" d="M78.49,75.16v1.11l-.45.2V75.36Zm0,0"/><path class="cls-4" d="M78.83,76V74.9l.22-.3V75.7Zm0,0"/><path class="cls-4" d="M79.12,74.27v1.11l-.07.32V74.59Zm0,0"/><path class="cls-2" d="M75.87,75.36l.52.13v1.11l-.52-.13Zm0,0"/><path class="cls-2" d="M75.87,75.36v1.11l-.45-.2V75.16Zm0,0"/><path class="cls-2" d="M76.39,76.59V75.48l.56,0v1.11Zm0,0"/><path class="cls-9" d="M77.51,76.59l-.56,0V75.52l.56,0Zm0,0"/><path class="cls-8" d="M78,76.46l-.52.13V75.48l.52-.13Zm0,0"/><path class="cls-2" d="M75.42,75.16v1.11L75.07,76V74.9Zm0,0"/><path class="cls-2" d="M75.07,74.9V76l-.22-.3V74.59Zm0,0"/><path class="cls-2" d="M74.85,74.59V75.7l-.07-.32V74.27Zm0,0"/><path class="cls-4" d="M74.84,73.7l-.35.26V72.85l.35-.26Zm0,0"/><path class="cls-4" d="M74.84,74V73.7l.22-.3v.27l-.2.28Zm0,0"/><path class="cls-4" d="M75.13,73.07v.53l-.06,0,0,0V73.4Zm0,0"/><path class="cls-2" d="M72.4,74.28l-.52-.13V73l.52.13Zm0,0"/><path class="cls-2" d="M71.87,74.16l-.45-.2V72.85l.45.2Zm0,0"/><path class="cls-4" d="M75.13,73.07l-.07.32V72.29l.07-.32Zm0,0"/><path class="cls-8" d="M74,74.16l-.52.13V73.18L74,73Zm0,0"/><path class="cls-4" d="M75.06,73.4l-.22.3V72.59l.22-.3Zm0,0"/><path class="cls-4" d="M74.49,74l-.45.2V73l.45-.2Zm0,0"/><path class="cls-9" d="M73.52,74.28l-.56,0V73.22l.56,0Zm0,0"/><path class="cls-2" d="M70.86,73.4l-.07-.32V72l.07.32Zm0,0"/><path class="cls-2" d="M71.08,73.7l-.22-.3V72.29l.22.3Zm0,0"/><path class="cls-2" d="M71.42,74l-.35-.26V72.59l.35.26Zm0,0"/><path class="cls-2" d="M73,74.33l-.56,0V73.18l.56,0Zm0,0"/><path class="cls-2" d="M74.49,71.08l.35.26.22.3.07.32-.07.32-.22.3-.35.26L74,73l-.52.13-.56,0-.56,0L71.87,73l-.45-.2-.35-.26-.22-.3L70.79,72l.07-.32.22-.3.35-.26.45-.2.52-.13.56,0,.56,0,.52.13Zm0,0"/><path class="cls-2" d="M88.49,65l-.12.1-.16.08L88,65.2l-.21,0h-.21l-.2,0-.18-.07L87.08,65,87,64.9l0-.12,0-.12.07-.12.12-.1.16-.08.19-.05.21,0h.21l.2,0,.18.07.14.09.09.11,0,.12,0,.12Zm0,0"/><path class="cls-4" d="M88.37,65.07l.12-.1v.51l-.12.1Zm0,0"/><path class="cls-4" d="M88.57,64.73v.51l0,.12v-.51Zm0,0"/><path class="cls-5" d="M88,65.71l-.21,0v-.51l.21,0Zm0,0"/><path class="cls-7" d="M88,65.71V65.2l.19-.05v.51Zm0,0"/><path class="cls-2" d="M87.8,65.22v.51h-.21v-.51Zm0,0"/><path class="cls-4" d="M88.21,65.66v-.51l.16-.08v.51Zm0,0"/><path class="cls-4" d="M88.56,64.85v.51l-.07.12V65Zm0,0"/><path class="cls-2" d="M87.59,65.73l-.2,0v-.51l.2,0Zm0,0"/><path class="cls-2" d="M87.39,65.68l-.18-.07V65.1l.18.07Zm0,0"/><path class="cls-2" d="M87.22,65.62l-.14-.09V65l.14.09Zm0,0"/><path class="cls-2" d="M87.08,65.52,87,65.41V64.9l.09.11Zm0,0"/><path class="cls-2" d="M87,65.41l0-.12v-.51l0,.12Zm0,0"/><path class="cls-2" d="M44.86,77.24l.12.17.1.19.07.19,0,.19v.17l0,.13-.09.09-.11,0h-.14l-.15-.05-.15-.1-.14-.14-.12-.17-.1-.19L44,77.57l0-.19v-.17l0-.13.09-.09.11,0h.14l.15.05.15.1Zm0,0"/><path class="cls-2" d="M39.35,74.95l-.09.09-.11,0H39L38.87,75l-.15-.1-.14-.14-.12-.17-.1-.19-.06-.19,0-.19v-.17l.05-.13.09-.09.11,0h.14l.15.05.15.1.14.14.12.17.1.19.06.19,0,.19v.17Zm0,0"/><path class="cls-2" d="M90,65.86l-.12.1-.16.08-.19.05-.21,0h-.21l-.2,0L88.77,66l-.14-.09-.09-.11,0-.12,0-.12.07-.12.12-.1.16-.08.19-.05.21,0h.21l.2,0,.18.07.14.09.09.11,0,.12,0,.12Zm0,0"/><path class="cls-4" d="M89.92,66l.12-.1v.51l-.12.1Zm0,0"/><path class="cls-4" d="M90.13,65.62v.51l0,.12v-.51Zm0,0"/><path class="cls-5" d="M89.57,66.61l-.21,0v-.51l.21,0Zm0,0"/><path class="cls-7" d="M89.57,66.61V66.1l.19-.05v.51Zm0,0"/><path class="cls-2" d="M89.36,66.12v.51h-.21v-.51Zm0,0"/><path class="cls-4" d="M89.76,66.56V66l.16-.08v.51Zm0,0"/><path class="cls-4" d="M90.11,65.75v.51l-.07.12v-.51Zm0,0"/><path class="cls-2" d="M89.15,66.62l-.2,0v-.51l.2,0Zm0,0"/><path class="cls-2" d="M88.95,66.58l-.18-.07V66l.18.07Zm0,0"/><path class="cls-2" d="M88.77,66.51l-.14-.09v-.51l.14.09Zm0,0"/><path class="cls-2" d="M88.63,66.42l-.09-.11V65.8l.09.11Zm0,0"/><path class="cls-2" d="M88.54,66.31l0-.12v-.51l0,.12Zm0,0"/><path class="cls-12" d="M35.81,72l.32.52.08.55-.17.54-.4.5-.61.42-.78.31-.89.19-.95,0-.93-.1-.86-.23-.73-.35-.54-.45L29,73.38l-.08-.55.17-.54.4-.5.31-.21,2.47,1.56L33,73l.69-.82v-.51L33,70.86l.71.07.86.23.73.35Zm0,0"/><path class="cls-20" d="M32.41,76.21l-.93-.1V74.93l.93.1Zm0,0"/><path class="cls-72" d="M34.25,76l-.89.19V75l.89-.19Zm0,0"/><path class="cls-13" d="M34.25,76V74.79l.78-.31v1.19Zm0,0"/><path class="cls-71" d="M33.36,75v1.19l-.95,0V75Zm0,0"/><path class="cls-17" d="M29.9,75.53l-.54-.45V73.89l.54.45Zm0,0"/><path class="cls-49" d="M29.9,75.53V74.34l.73.35v1.19Zm0,0"/><path class="cls-24" d="M30.62,75.88V74.7l.86.23v1.19Zm0,0"/><path class="cls-18" d="M29.35,73.89v1.19L29,74.57V73.38Zm0,0"/><path class="cls-13" d="M35.64,75.25l-.61.42V74.48l.61-.42Zm0,0"/><path class="cls-13" d="M35.64,75.25V74.06l.4-.5v1.19Zm0,0"/><path class="cls-22" d="M28.95,72.83l.08.55v1.19L28.95,74Zm0,0"/><path class="cls-13" d="M36.21,73v1.19l-.17.54V73.57Zm0,0"/><path class="cls-30" d="M29.42,69.12,30.1,69l.86,1-.68.17Zm0,0"/><path class="cls-73" d="M30.28,70.08l.68-.17,2.71,1.71v.51L33,73l-.67.19-2.47-1.56-.2-.13-.09-.52-.79-.51-1.19-.78-.6.12-2.5-1.58v-.47l.81-1,.49-.14,2.49,1.57,0,.18,0,.42Zm0,0"/><path class="cls-13" d="M33.67,71.62,31,69.91l-.86-1,2.71,1.71.17.19Zm0,0"/><path class="cls-17" d="M24.46,68.19l-.86-1v-.47l.86,1Zm0,0"/><path class="cls-74" d="M24.47,67.72l-.86-1,.15-.17.14-.16.52-.62.86,1Zm0,0"/><path class="cls-13" d="M30.28,70.08l-2-1.28,0-.42,1.15.75Zm0,0"/><path class="cls-13" d="M28.25,68.2l-2.49-1.57-.86-1,1.61,1,.87.55Zm0,0"/><path class="cls-12" d="M25.76,66.63l-.49.14-.86-1,.49-.14Zm0,0"/><path class="cls-22" d="M29.54,70.93l.09.52-.86-1v-.08Zm0,0"/><path class="cls-73" d="M24.9,65.67l-.49.14L28.86,63l.72,0,3.34-2.11.38-.71,4.16-2.67.57.08.46,1.07-.19.42-.83-.76-.19,0-.2,0-.21.07-.2.12-.18.15-.14.18-.1.2-.06.2v.19l0,.17.09.14.4.45-2.65,1.7h-.8L30,63.92l-.39.81-3.07,2Zm0,0"/><path class="cls-49" d="M32.73,59.48l4.16-2.67.57.63L33.3,60.12Zm0,0"/><path class="cls-75" d="M36.89,56.81l.57.08.57.63-.57-.08Zm0,0"/><path class="cls-33" d="M23.76,66.59,23.49,66l.4.45Zm0,0"/><path class="cls-76" d="M23.49,66l.35-.8.57.63-.52.62Zm0,0"/><path class="cls-76" d="M32.35,60.2l.38-.71.57.63-.38.71Zm0,0"/><path class="cls-22" d="M29,62.3l3.34-2.11.57.63-3.34,2.11Zm0,0"/><path class="cls-49" d="M23.84,65.18l4.44-2.85.57.63-4.44,2.85Zm0,0"/><path class="cls-23" d="M28.29,62.33l.72,0,.57.63-.72,0Zm0,0"/><path class="cls-77" d="M40.25,61.86l.15.24L39.24,63,38,61l1.69.87.05,0,.05,0,.06,0,.06.13.06.13H40l.07-.13.07-.07.07,0Zm0,0"/><path class="cls-78" d="M38,61l1.27,2-.67-.74-.9-1.42Zm0,0"/><path class="cls-13" d="M40,60.22l.06.06.67.74L40.63,61Zm0,0"/><path class="cls-13" d="M39.57,60.18h0l.67.74h0Zm0,0"/><path class="cls-19" d="M36.88,58.33l.21-.07.67.74-.21.07Zm0,0"/><path class="cls-13" d="M39.59,60.19h0l.67.74h0Zm0,0"/><path class="cls-22" d="M36.69,58.45l.2-.12.67.74-.2.12Zm0,0"/><path class="cls-13" d="M39.6,60.2h0l.67.74h0Zm0,0"/><path class="cls-71" d="M37.09,58.26l.2,0L38,59l-.2,0Zm0,0"/><path class="cls-17" d="M36.2,59.37v-.19l.67.74v.19Zm0,0"/><path class="cls-79" d="M37.29,58.23l.19,0,.67.74L38,59Zm0,0"/><path class="cls-13" d="M39.89,60.18l.07,0,.67.74-.07,0Zm0,0"/><path class="cls-39" d="M39.66,60.2l.23,0,.67.74-.23,0Zm0,0"/><path class="cls-48" d="M39.65,60.2h0l.67.74h0Zm0,0"/><path class="cls-72" d="M39.63,60.2h0l.67.74h0Zm0,0"/><path class="cls-80" d="M39.62,60.2h0l.67.74h0Zm0,0"/><path class="cls-13" d="M39.58,60.18h0l.67.74h0Zm0,0"/><path class="cls-81" d="M36.51,58.6l.18-.15.67.74-.18.15Zm0,0"/><path class="cls-74" d="M36.37,58.79l.14-.18.67.74-.14.18Zm0,0"/><path class="cls-76" d="M36.26,59l.1-.2.67.74-.1.2Zm0,0"/><path class="cls-82" d="M36.21,59.18l.06-.2.67.74-.06.2Zm0,0"/><path class="cls-24" d="M36.25,59.55l0-.17.67.74,0,.17Zm0,0"/><path class="cls-12" d="M36.35,59.69l-.09-.14.67.74.09.14-.27-.3Zm0,0"/><path class="cls-73" d="M40.56,61h.07l.06,0,0,.06,0,.08v.09l0,.09,0,.09-.05.09-.07.09-.08.08-.09.07-.07,0-.07,0h-.07l-.07,0-.07.13-.07.13h-.07L39.87,62,39.81,62l-.06,0-.05,0-.05,0L38,61l-.3-.16-.51-.27-.14-.1-.09-.14,0-.17v-.19l.06-.2.1-.2.14-.18.18-.15.2-.12.21-.07.2,0,.19,0,2.07,1.9h.07v.11l0,.1h0Zm0-.1"/><path class="cls-13" d="M40.24,60.92h0Zm0,0"/><path class="cls-13" d="M40.22,60.9,38.15,59l-.67-.74.83.76,1.24,1.14,0,0Zm0,0"/><path class="cls-4" d="M115.39,58.41l-7,4,2.49-5,4.46-2.56Zm-.08,0"/><path class="cls-10" d="M108.39,62.4,100.71,58l2.47-5,7.68,4.43Zm0,0"/><path class="cls-2" d="M107.62,50.39l7.68,4.43-4.44,2.56L103.18,53Zm0,0"/><g class="cls-83"><path class="cls-84" d="M.06,64.65c0-2.1,0-4.21,0-6.31A1.83,1.83,0,0,1,1.1,56.47C6.58,53.35,12,50.18,17.51,47L39.1,34.56,63.6,20.41,85.28,7.89,98.42.31A4.3,4.3,0,0,1,99,0a.36.36,0,0,1,.5.2,6.75,6.75,0,0,1,.27.77q2.36,8.11,4.72,16.22c.14.47.39.95-.22,1.35-.82.54-1.08.63-1.81,0a2.34,2.34,0,0,0-2.45-.44c-.38.13-.8.16-1.19.27-.65.19-.75.37-.61,1,.08.4.19.79.29,1.19.26,1.07.27,1.08-.65,1.62Q95,23.9,92.26,25.5c-2.06,1.19-4.12,2.36-6.17,3.56a1.14,1.14,0,0,1-1.27,0c-1.41-.7-2.88-1.42-4.51-.5-.35.2-.75.31-1.11.5-.6.32-.68.52-.42,1.14s.5,1.19.8,1.76A.68.68,0,0,1,79.24,33c-1.74,1-3.46,2-5.2,3-3.82,2.21-7.65,4.39-11.45,6.62a1.59,1.59,0,0,1-2,.06c-1.38-1-2.71-.36-4,.09-.48.16-.56.57-.44,1s.28.91.42,1.36c.22.75.2.83-.49,1.23l-4.67,2.71L38.63,56.45c-.39.22-.74.47-1.22.21a.75.75,0,0,0-.78.07,24.57,24.57,0,0,0-3.72,2.48,20.71,20.71,0,0,1-2.8,2.14,3.82,3.82,0,0,1-1.66.74,2.21,2.21,0,0,0-1,.51,15.84,15.84,0,0,1-4.28,2.08q-10.7,3.61-21.4,7.26C.11,72.52,0,72.71.06,70.65S.06,66.65.06,64.65Z"/><path class="cls-84" d="M87.23,60c-.85.6-1.37,1.45-2.43,1.52a1.31,1.31,0,0,0-.72.35c-.43.33-.86.66-1.29,1a4.18,4.18,0,0,1-1.8.88,2.62,2.62,0,0,0-2.3,1.89c-.11.44-.49.53-.83.67l-5.53,2.33c-.26.11-.61.13-.74.48.16.5.84.45,1,1-.29.44-.83.53-1.25.81a40.9,40.9,0,0,1-7.62,3.83c-3,1.2-6,2.5-9,3.77-1.78.76-3.65,1.28-5.47,1.92a2.56,2.56,0,0,1-2-.29A1.26,1.26,0,0,0,46,80.2a13.67,13.67,0,0,1-2.66,1c-.52.19-.67.06-.72-.5a1.3,1.3,0,0,1,.58-1.4,1.18,1.18,0,0,1,1.49,0,2.07,2.07,0,0,0,.36.19c.37.17.6.08.62-.34s0-1.09,0-1.63a2,2,0,0,1,.4-1.34A29,29,0,0,0,49.57,70a3.69,3.69,0,0,1,1.78-1.85c1.17-.62,2.29-1.32,3.44-2,.37-.21.71-.36.27-.9a1.06,1.06,0,0,1,.2-1.46c.44-.42.7-.46,1.37-.09,1.45.82,2.88,1.66,4.32,2.49,1,.57,1,.56,1.67-.41a18.74,18.74,0,0,0,2-3.67,6,6,0,0,1,3.2-3.46,20.19,20.19,0,0,0,2.64-1.52c.55-.34.53-.49,0-.86-.11-.08-.23-.14-.35-.21-.82-.51-.83-.65-.08-1.31s.78-.59,1.53-.2c.24.13.47.27.7.41A1.83,1.83,0,0,1,73,57.69c-.09.18-.17.37-.24.56a.64.64,0,0,0,.38.91c.41.19.77.29,1.06-.18s.64-1,.92-1.46.56-.57,1-.25c.61.46,1,.4,1.32-.25a.79.79,0,0,1,1.13-.35,3.32,3.32,0,0,0,1.87.31,2.9,2.9,0,0,1,1.36.36c.61.21,1.21.44,1.82.66.19.07.45.11.55.25.63.92,1.7,1.06,2.6,1.49C86.88,59.78,87,59.85,87.23,60Z"/><path class="cls-84" d="M100.16,40a4.56,4.56,0,0,0-1.24-.91.93.93,0,0,1-.51-1A7.69,7.69,0,0,1,99,36c.31-.47.22-.6-.34-.78-.35-.11-.73-.16-1.08-.28a1.26,1.26,0,0,0-1.55.39,5.18,5.18,0,0,1-1.54,1c-.39.23-.71-.1-1-.26-.76-.38-.95-.35-1.4.35-.16.24-.14.61-.55.64a1.31,1.31,0,0,1-.92-.36l-.2-.13c.06-.28.25-.31.39-.39a.5.5,0,0,0,.21-.77,2.79,2.79,0,0,1-.38-1,.28.28,0,0,1,.21-.31c.14,0,.26,0,.3.16a1.1,1.1,0,0,0,.13.37c.62.85,1,.9,1.6.06a5.23,5.23,0,0,1,3.67-1.9,1,1,0,0,0,.2,0c1.91-.71,3.66,0,5.42.61.38.13.79.19,1.18.28.2,0,.42.1.44.35s-.16.36-.33.47a7.49,7.49,0,0,1-2.19,1.06c-.92.21-.66,1-.85,1.53s.23.72.59.92c1.5.87,3,1.74,4.49,2.6a1.5,1.5,0,0,0,2.1-.47c.66-1.25,1.89-1.69,3-2.36a.92.92,0,0,1,.87-.07,5.84,5.84,0,0,0,2.55.52,4.89,4.89,0,0,1,1.83.57,5,5,0,0,1,2.36,1.3c.38.46,1.09.5,1.66.73.19.07.43.12.47.34s-.23.38-.42.51a17.5,17.5,0,0,1-2.82,1.4,1.19,1.19,0,0,0-.78.7,1.93,1.93,0,0,1-1.5,1.09,3.88,3.88,0,0,0-2.67,1.51.88.88,0,0,1-.42.28c-2.47.92-4.59,2.48-6.88,3.73-.78.42-1.55.84-2.36,1.19s-.69.39-.13.83c.08.06.17.11.25.17s.23.32,0,.5l-.17.11a58.17,58.17,0,0,1-5.79,3.18c-1.25.52-2.51,1-3.77,1.53-.61.24-1.1.53-1.14,1.26a.83.83,0,0,1-.15.37c-.22.34-.48.33-.7,0a1.26,1.26,0,0,1-.16-1.07,3.9,3.9,0,0,0,.12-.6c0-.48-.27-.74-.57-.43-.61.62-1.17.28-1.76.06l-1.91-.71a1.29,1.29,0,0,0-.29-.1,15.27,15.27,0,0,1-3.83-.93c-.3-.12-.6.06-.9.09s-.75-.08-.78-.47c-.05-.67-.46-.9-1-1.12s-.57-.32-.33-.93a4.54,4.54,0,0,1,2.3-2.57c1.27-.62,2.46-1.41,3.76-2.16-.33-.54-.84-.68-1.25-1s-.43-.5-.08-.8l.38-.34c.69-.56.74-.58,1.52-.14,1.48.83,2.94,1.69,4.41,2.54L91,49a.52.52,0,0,0,.79-.2,4.59,4.59,0,0,1,2-1.57c1.5-.87,3-1.75,4.5-2.57a1.64,1.64,0,0,0,1-1.79c0-.4,0-.81,0-1.22C99.27,41,99.22,40.29,100.16,40Z"/><path class="cls-84" d="M118.11,25.53a2.42,2.42,0,0,1-1.49-.47c-.7-.38-1.27-.48-1.88.21s-1.32.68-1.88,1.19a.41.41,0,0,1-.48,0c-.5-.29-1.22-.42-1.42-.91s.54-.82.86-1.22a6.15,6.15,0,0,1,.65-.65,1.88,1.88,0,0,0,.64-1.22c.14-1.1.79-1.44,1.77-1l2,.93a5.48,5.48,0,0,1,1.17.79,4.66,4.66,0,0,0,3.1,1.3,1.69,1.69,0,0,1,.77.22,20.46,20.46,0,0,0,1.94.88,2.46,2.46,0,0,1,1.5,2.62c0,.29-.25.58-.07.88s.55.2.81.36c1.49.88,3,1.73,4.5,2.59l2,1.17a1.44,1.44,0,0,1,.71.7c.24.6.11,1-.5,1.2-1.08.39-2.17.79-3.28,1.1a21.42,21.42,0,0,0-4.08,2,.7.7,0,0,0-.4.83,2,2,0,0,1-.21,1.28c-.21.4-.53.39-.76,0a1.32,1.32,0,0,1-.14-1,3.67,3.67,0,0,0,.11-.7c0-.41-.3-.61-.59-.33-.55.53-1,.29-1.58.08s-1.34-.5-2-.74a3.43,3.43,0,0,0-1.48-.27,4.69,4.69,0,0,1-1.85-.52,2.42,2.42,0,0,0-1.67-.2.63.63,0,0,1-.85-.36.74.74,0,0,1,.34-1,10.73,10.73,0,0,1,1.57-.93,1.55,1.55,0,0,0,1-1.77,14.48,14.48,0,0,1,0-1.63,2,2,0,0,1,.08-.6.75.75,0,0,1,.7-.5c.3,0,.38.25.46.47s.22.64.35,1c.28.7.37.74,1.05.55l2.44-.72c.89-.26,1.32-1,1.82-1.7.21-.28-.18-1.07-.64-1.38a6.36,6.36,0,0,0-.81-.42,1.82,1.82,0,0,1-.77-.48c-.7-1-1.86-1.19-2.83-1.72A.82.82,0,0,0,118.11,25.53Z"/><path class="cls-84" d="M91.53,63.67a6.15,6.15,0,0,1,2-.07c.33.09.57-.17.77-.41s.58-.31.82,0c.11.17.16.38.43.32a43.25,43.25,0,0,0,5.07-1c.08,0,.15-.12.27-.24a2.19,2.19,0,0,0-1.59-.57,3.77,3.77,0,0,0-1.94.37c-.21.15-.44.06-.46-.3,0-.88-.28-1-1.08-.72a5.05,5.05,0,0,0-.62.34h0a.31.31,0,0,0,0-.1c-.09-.33.42-.61.1-.94s-1.09,0-1.38.35c-.14.15-.24.33-.38.48a.94.94,0,0,1-.41.29c-1.42.31-2.67,1.12-4.09,1.4-.38.08-.83.3-1-.25-.14-.38.16-.76.72-.93.39-.12.79-.21,1.19-.29a1.31,1.31,0,0,0,1.15-.85c.16-.48.64-.6,1.07-.66,2.35-.35,4.66-.9,7-1.32a2,2,0,0,1,1.73.36,6.65,6.65,0,0,0,1.08.57,1.84,1.84,0,0,1,1.08,1c.21.55.82.67,1.37.71a4,4,0,0,1,1.49.26c.4.18.8,0,1.2-.1.61-.07.8.1.8.71a1.33,1.33,0,0,1-1.09,1.51,14.09,14.09,0,0,1-2.78.6,1.1,1.1,0,0,1-.6,0,3.09,3.09,0,0,0-2-.08c-2.16.25-4.3.55-6.43,1-1.46.3-2.91.65-4.36,1-.2,0-.43.18-.59,0-.88-.77-1.41.13-1.86.52a10.34,10.34,0,0,1-1.31,1.26c0,.31.21.38.32.49.72.72.64,1.24-.26,1.75-.29.17-.6.31-.91.46h0c0-1.13-.26-1.45-1.31-1.71a3.13,3.13,0,0,0-1.41,0c-1.17.24-1.53.68-1.57,1.88,0,.3,0,.61-.06.91a.27.27,0,0,1-.28.24.27.27,0,0,1-.26-.27,6.3,6.3,0,0,1,0-2.52,4.17,4.17,0,0,1,1.17-1.48,1.54,1.54,0,0,1,1.26-.26,2,2,0,0,0,1.84-.63c.15-.18.35-.38.19-.63s-.36-.15-.56-.12a11.32,11.32,0,0,1-2.05.25,7.57,7.57,0,0,1,2.27-1.86.82.82,0,0,1,.6,0,6,6,0,0,0,4.26-.67c.35-.19.58,0,.83.14s.43.12.54-.16Z"/><path class="cls-84" d="M116.33,47.21a15.14,15.14,0,0,1,2.12-1.71.9.9,0,0,1,1,0,3.69,3.69,0,0,0,2.57.14,36.28,36.28,0,0,1,4.31-.71c1.94-.13,3.82-.57,5.73-.85a8,8,0,0,0,2.3-.63,1.72,1.72,0,0,0-1.36-.58,4.76,4.76,0,0,1-2.94-1,1.5,1.5,0,0,0-2.22.48,1,1,0,0,1-.62.47l-5,1.16c-.38.09-.78.14-.89-.37s.18-.7.59-.81.85-.23,1.28-.33,1-.25,1.2-.92.8-.6,1.28-.66c1.65-.21,3.26-.61,4.9-.91l.1,0a4.79,4.79,0,0,1,4.77.69c.35.26.72.41.93.87a1.43,1.43,0,0,0,1.37.71c1,0,2,.48,3,.19a.37.37,0,0,1,.47.28,1.71,1.71,0,0,1-.76,1.74c-1.4.48-2.79,1.11-4.33.57a1.1,1.1,0,0,0-.5,0c-3,.43-6,.78-9,1.46-1.39.32-2.79.54-4.19.79a1.45,1.45,0,0,0-1.22.77,1.8,1.8,0,0,1-1,.84c-.73.28-1.46.54-2.2.79-.29.1-.63.21-.77-.2a.68.68,0,0,1,.26-.89c.2-.12.42-.23.63-.34a2.43,2.43,0,0,0,.78-.64c.11-.13.22-.28.13-.46s-.28-.17-.44-.15l-1.5.25A1.16,1.16,0,0,1,116.33,47.21Z"/><path class="cls-84" d="M108.84,61.84c-.12-.26.06-.45.15-.66.55-1.13,1.12-2.24,1.66-3.38a2.34,2.34,0,0,1,1-1.08q1.56-.86,3.08-1.78c.52-.31.52-.44,0-.77s-1.23-.72-1.84-1.09a2.05,2.05,0,0,1-.81-.58,1.84,1.84,0,0,1,2.31-.48c2.18,1.24,4.35,2.51,6.52,3.76a2.21,2.21,0,0,1,.3.25C120,57.43,111,61.59,108.84,61.84Z"/><path class="cls-84" d="M65.08,51.25c.79-.5.79-.5.53-1.42-.08-.29-.22-.59,0-.87a.37.37,0,0,1,.27-.11c.15,0,.1.11.08.22-.13.77.42,1.14.93,1.51a.46.46,0,0,0,.73-.38c0-.13-.07-.26-.07-.39,0-.72.27-.87.92-.55l.27.13a3.27,3.27,0,0,1,2.1-2.49,1.64,1.64,0,0,1,2,.05c.35.32.21,1.46-.3,2.09a1.55,1.55,0,0,0-.34,1.43,4.84,4.84,0,0,1-.41,2.78,1,1,0,0,1-.75.62c-.67.13-1-.26-.84-.92a2.47,2.47,0,0,0,.25-1.32,1.07,1.07,0,0,0-.78.78c-.19,1-1,1.41-1.58,2.05a.5.5,0,0,1-.65.08c-.53-.3-1.07-.58-1.58-.92s-.33-.44.08-.67.67-.32,1-.47a.56.56,0,0,0,.31-.76c-.11-.35-.4-.37-.66-.25a1.52,1.52,0,0,1-1.52-.23Z"/><path class="cls-85" d="M50.2,57.76c.08.44.29.67.78.51.7-.24,1.42-.44,2.12-.69a2.67,2.67,0,0,1,2.45.59.75.75,0,0,1,.07,1.23,1.83,1.83,0,0,1-.77.47c-1.56.54-3.13,1.09-4.7,1.6-.75.25-.88.13-.92-.67,0-.3,0-.61,0-.91a1.87,1.87,0,0,1,1-2.11Z"/><path class="cls-85" d="M79.12,74.46c.09.44.29.66.78.49q1.1-.38,2.23-.72a2.72,2.72,0,0,1,2.36.64.74.74,0,0,1,0,1.23,2.62,2.62,0,0,1-1,.53c-1.44.5-2.88,1-4.33,1.49-.87.29-1,.19-1-.72,0-.3,0-.62,0-.92a1.8,1.8,0,0,1,1-2Z"/><path class="cls-84" d="M86,70.58a.52.52,0,0,0,.77.39l1.92-.63a2.82,2.82,0,0,1,2.16.16c.41.19.8.43.82.94s-.34.77-.75,1a3,3,0,0,1-.37.16c-1.53.53-3.06,1.07-4.6,1.58-.83.28-.91.2-.93-.7,0-.4,0-.81,0-1.21a1.41,1.41,0,0,1,1-1.65Z"/><path class="cls-86" d="M109.5,26.18c.29.94.6,1.87.86,2.81.16.61-.06.88-.66.75a1.85,1.85,0,0,0-1.44.3c-.61.37-1.23.72-1.85,1.07a1.08,1.08,0,0,0-.61,1.08c0,.51,0,1,0,1.53,0,.32.23.55.54.45.64-.22,1,.27,1.47.5.18.09.36.25.25.49a.49.49,0,0,1-.57.31.63.63,0,0,1-.19-.07l-3-1.72c.35-.38.66-.68.92-1s.41-.6.2-.93-.55-.17-.84-.12c-.5.09-1,.22-1.5.27A1.65,1.65,0,0,1,102,31.7c.1-.29.33-.31.51-.34.59-.09,1.07-.25.91-1,0-.24.13-.37.38-.32s.39.1.59.16a1.67,1.67,0,0,0,1.92-.52,4.47,4.47,0,0,1,1.38-1c.93-.52,1.76-1.19,1.59-2.49Z"/><path class="cls-85" d="M32.9,72.82a13.19,13.19,0,0,0,.87-1.22,1.14,1.14,0,0,1,1.24-.5,3.89,3.89,0,0,1,1.09.23,2.13,2.13,0,0,0,1.84-.24c.18-.09.39-.19.38-.43,0-.83.57-.73,1.16-.82a2.78,2.78,0,0,1-.79,1.46A2.84,2.84,0,0,0,38,73.45a1.23,1.23,0,0,1-.9,1.41c-.63.24-1.27.48-1.91.7-.27.09-.59.31-.81-.07a.9.9,0,0,1,.31-1.07c.25-.17.54-.29.78-.47a1.5,1.5,0,0,0,.69-1.19c0-.51-.17-.69-.67-.55-.65.17-1.29.4-1.95.59C33.35,72.85,33.16,73,32.9,72.82Z"/><path class="cls-85" d="M92.11,37.67A1.39,1.39,0,0,0,91.56,39,1,1,0,0,1,90.94,40c-.51.27-1,.58-1.5.86s-.77.54-1.31.25c-.27-.14-.58.1-.86.22a4.21,4.21,0,0,1-2,.29c-.2,0-.44,0-.48-.27a.58.58,0,0,1,.2-.55,3.58,3.58,0,0,1,.51-.33c.23-.13.55-.18.64-.46s.39-.31.65-.21a1.63,1.63,0,0,0,2.06-.54,16.36,16.36,0,0,1,1.85-1.38C91,37.71,91.46,37.78,92.11,37.67Z"/><path class="cls-85" d="M79.13,74.47c0-1-.3-1.34-1.22-1.57a3.73,3.73,0,0,0-1.61,0,1.55,1.55,0,0,0-1.45,1.75c0,.34,0,.67-.06,1a.28.28,0,0,1-.28.25.25.25,0,0,1-.26-.25,14,14,0,0,1,0-2.53c0-.38.38-.54.65-.74.09-.06.22-.1.27,0,.35.66.81.24,1.22.13A8.85,8.85,0,0,0,77.72,72a2.75,2.75,0,0,1,2.44.27A.9.9,0,0,1,80.23,74a7.65,7.65,0,0,1-1.11.48Z"/><path class="cls-86" d="M57.13,53.89c0-1.08-.24-1.38-1.22-1.67a2.93,2.93,0,0,0-1.5-.05c-1.19.26-1.51.63-1.54,1.87,0,.27,0,.54,0,.81s-.12.33-.32.32-.28-.19-.28-.36c0-.78,0-1.55,0-2.33,0-.3.23-.47.45-.64s.46-.16.69.08.45.05.67,0c.55-.18,1.09-.38,1.64-.53a3,3,0,0,1,2.45.21,1,1,0,0,1,0,1.81c-.32.18-.66.33-1,.49Z"/><path class="cls-85" d="M50.21,57.77c0-1-.26-1.29-1.12-1.53a3.43,3.43,0,0,0-1.9,0,1.49,1.49,0,0,0-1.24,1.62c0,.37,0,.74-.08,1.11a.27.27,0,0,1-.29.23.26.26,0,0,1-.26-.26,10.28,10.28,0,0,1,0-2.53.65.65,0,0,1,1-.49.88.88,0,0,0,.77,0c.65-.19,1.3-.38,1.93-.62a2.69,2.69,0,0,1,2.4.47c.6.36.59,1,0,1.42a3.27,3.27,0,0,1-1.28.58Z"/><path class="cls-86" d="M57.11,53.88a.52.52,0,0,0,.77.4c.38-.13.77-.25,1.17-.34a.39.39,0,0,1,.31.69c-.24.18-.52.31-.77.5-.67.5-1.44.92-1.47,1.92a.56.56,0,0,1-.43.52c-.26.09-.51,0-.53-.27a10.7,10.7,0,0,1,0-2.54c.08-.49.58-.62.94-.86Z"/><path class="cls-86" d="M39,78.41a1.33,1.33,0,0,1,1.94-1.24c.47.24,1.24.4,1.24.89s-.82.52-1.29.73a7.76,7.76,0,0,1-1,.32C39.13,79.36,39,79.25,39,78.41Z"/><path class="cls-87" d="M28.34,68.46A7.86,7.86,0,0,1,33,70.79,2,2,0,0,1,32,70.31a3.45,3.45,0,0,0-1.49-.57A4.28,4.28,0,0,1,28.34,68.46Z"/><path class="cls-88" d="M106.65,25a1,1,0,0,0,.21,1.43c.14.14.32.25.47.38a.3.3,0,0,1,.11.36,1.84,1.84,0,0,1-1.37.38c-.08-.07-.11-.21,0-.27.49-.42.13-.87,0-1.3C106,25.36,106,25.29,106.65,25Z"/><path class="cls-89" d="M27.68,67.5a5.48,5.48,0,0,1-2.44-1.81,2.37,2.37,0,0,1,1.33.2c.06,0,.17.08.16.1C26.62,66.68,27.38,66.83,27.68,67.5Z"/><path class="cls-90" d="M82.65,32.71a.44.44,0,0,1-.23.42,1.35,1.35,0,0,1-1,.26.28.28,0,0,1-.13-.24c.09-.44.5-.48.83-.63a.71.71,0,0,1,.29-.05A.27.27,0,0,1,82.65,32.71Z"/><path class="cls-91" d="M93.79,62.25c.3-1.12.33-1.14,1.42-.82h0a3.83,3.83,0,0,1-1.43.81Z"/><path class="cls-92" d="M95.79,63c-.17,0-.3-.09-.28-.24.05-.31.2-.59.57-.57.2,0,.44.12.39.36S96.06,62.91,95.79,63Z"/><path class="cls-93" d="M91.55,63.66c-.42-.12-.31-.36-.13-.61s.31-.38.59-.22.25.23.07.39-.37.3-.55.44Z"/><path class="cls-94" d="M38,60.9a2,2,0,0,1,.84,1.24A2.38,2.38,0,0,1,38,60.9Z"/><path class="cls-84" d="M93.78,62.24a2.55,2.55,0,0,1-1.06.51c.25-.8.25-.8,1.07-.5Z"/><path class="cls-8" d="M40.53,60.61c-.57-.12-.79-.3-.9-.7C40.09,59.89,40.25,60.15,40.53,60.61Z"/><path class="cls-95" d="M105.77,23.86a.65.65,0,0,1,.78-.22c.08.26-.11.29-.27.31S106,24.06,105.77,23.86Z"/><path class="cls-96" d="M90.95,32.54c0,.09,0,.13-.06.15a.64.64,0,0,1-.54.22.1.1,0,0,1-.07-.16.61.61,0,0,1,.51-.27A.64.64,0,0,1,90.95,32.54Z"/><path class="cls-97" d="M65.47,47.75c-.11,0-.2-.08-.13-.2a.33.33,0,0,1,.34-.15c.11,0,.2.07.14.19A.35.35,0,0,1,65.47,47.75Z"/><path class="cls-87" d="M38.32,58.46s-.08.11-.12.11a.2.2,0,0,1-.21-.16c0-.12,0-.18.17-.16A.2.2,0,0,1,38.32,58.46Z"/><path class="cls-84" d="M65.07,51.24a1.07,1.07,0,0,1-.12.16c-.06.06-.17.16-.23.06s.06-.16.16-.18l.19,0Z"/></g><line class="cls-98" x1="25.89" y1="72.15" x2="25.89" y2="62.15"/><line class="cls-99" x1="50.82" y1="76.46" x2="25.43" y2="72.06"/><line class="cls-99" x1="25.43" y1="61.81" x2="0.04" y2="57.4"/><line class="cls-98" x1="50.89" y1="102.15" x2="50.89" y2="76.15"/></g></g></g></svg>