<svg id="Layer_1" data-name="Layer 1" xmlns="http://www.w3.org/2000/svg" viewBox="0 0 91.2 91.2"><defs><style>.cls-1{fill:#f47421;}.cls-2{fill:none;stroke:#fff;stroke-miterlimit:10;stroke-width:3px;}.cls-3{fill:#fff;}</style></defs><title>fox</title><circle class="cls-1" cx="45.6" cy="45.6" r="45.6"/><polygon class="cls-2" points="30.74 41.18 35.66 17.93 41.43 25.89 49.91 25.89 55.01 16.89 60.48 41.71 45.61 50.11 44.69 49.45 30.74 41.18"/><path class="cls-3" d="M398.24,249.78l2.27,4.69-14.87-8.69a5.51,5.51,0,0,1,7.44-1.63C397.9,246.65,398.24,249.78,398.24,249.78Z" transform="translate(-354.9 -204.61)"/><path class="cls-3" d="M402.6,249.78l-2.21,4.69,14.87-8.69a5.51,5.51,0,0,0-7.44-1.63C403,246.65,402.6,249.78,402.6,249.78Z" transform="translate(-354.9 -204.61)"/><path class="cls-2" d="M411.7,229.62c10.79,4.42,18.41,9,18.41,21.38a29.61,29.61,0,1,1-58.82-4.84s10.11,1.41,19,13l-0.18-10.77" transform="translate(-354.9 -204.61)"/><path class="cls-3" d="M371.29,246.16a29.81,29.81,0,0,0-.39,4.84,29.5,29.5,0,0,0,2.43,11.74l11.37-9.53C377.65,247.05,371.29,246.16,371.29,246.16Z" transform="translate(-354.9 -204.61)"/></svg>